<svg width="20" height="20" viewBox="0 0 20 20" fill="none" xmlns="http://www.w3.org/2000/svg">
    <path fill-rule="evenodd" clip-rule="evenodd"
          d="M10 19C14.9706 19 19 14.9706 19 10C19 5.02944 14.9706 1 10 1C5.02944 1 1 5.02944 1 10C1 14.9706 5.02944 19 10 19ZM15.4714 6.59526C15.7318 6.85561 15.7318 7.27772 15.4714 7.53807L9.47141 13.5381C9.21106 13.7984 8.78895 13.7984 8.5286 13.5381L5.19526 10.2047C4.93491 9.94439 4.93491 9.52228 5.19526 9.26193C5.45561 9.00158 5.87772 9.00158 6.13807 9.26193L9 12.1239L14.5286 6.59526C14.7889 6.33491 15.2111 6.33491 15.4714 6.59526Z"
          fill="#0062FF"/>
</svg>
