<svg width="320.000000" height="96.000000" viewBox="0 0 320 96" fill="none" xmlns="http://www.w3.org/2000/svg" xmlns:xlink="http://www.w3.org/1999/xlink">
	<defs>
		<clipPath id="clip31086_161033">
			<rect id="Outline / Home Outline" width="24.000000" height="24.000000" transform="translate(16.000000 58.000000)" fill="white" fill-opacity="0"/>
		</clipPath>
		<clipPath id="clip31086_161037">
			<rect id="Outline / Plus Outline" width="24.000000" height="24.000000" transform="translate(244.000000 58.000000)" fill="white" fill-opacity="0"/>
		</clipPath>
		<clipPath id="clip31086_161039">
			<rect id="Outline / More Vertical Outline" width="24.000000" height="24.000000" transform="translate(280.000000 58.000000)" fill="white" fill-opacity="0"/>
		</clipPath>
		<clipPath id="clip31086_161041">
			<rect id="Service" rx="32.000000" width="320.000000" height="96.000000" fill="white" fill-opacity="0"/>
		</clipPath>
	</defs>
	<path id="Service" d="M32 0L288 0C305.67 0 320 14.32 320 32L320 96L0 96L0 32C0 14.32 14.32 0 32 0Z" fill="#000000" fill-opacity="0.050000" fill-rule="evenodd"/>
	<g clip-path="url(#clip31086_161041)">
		<rect id="Adress Bar" width="320.000000" height="52.000000" transform="translate(0.000000 44.000000)" fill="#FFFFFF" fill-opacity="0"/>
		<g clip-path="url(#clip31086_161039)">
			<path id="Shape" d="M290 77C290 75.89 290.89 75 292 75C293.1 75 294 75.89 294 77C294 78.1 293.1 79 292 79C290.89 79 290 78.1 290 77ZM290 70C290 68.89 290.89 68 292 68C293.1 68 294 68.89 294 70C294 71.1 293.1 72 292 72C290.89 72 290 71.1 290 70ZM290 63C290 61.89 290.89 61 292 61C293.1 61 294 61.89 294 63C294 64.1 293.1 65 292 65C290.89 65 290 64.1 290 63Z" fill="#74767B" fill-opacity="1.000000" fill-rule="evenodd"/>
		</g>
		<g clip-path="url(#clip31086_161037)">
			<path id="Shape" d="M256.65 63C256.65 62.64 256.35 62.35 256 62.35C255.64 62.35 255.35 62.64 255.35 63L255.35 69.35L249 69.35C248.64 69.35 248.35 69.64 248.35 70C248.35 70.35 248.64 70.65 249 70.65L255.35 70.65L255.35 77C255.35 77.35 255.64 77.65 256 77.65C256.35 77.65 256.65 77.35 256.65 77L256.65 70.65L263 70.65C263.35 70.65 263.65 70.35 263.65 70C263.65 69.64 263.35 69.35 263 69.35L256.65 69.35L256.65 63Z" fill="#74767B" fill-opacity="1.000000" fill-rule="nonzero"/>
		</g>
		<rect id="Input" rx="18.000000" width="180.000000" height="36.000000" transform="translate(52.000000 52.000000)" fill="#000000" fill-opacity="0.050000"/>
		<path id="Text" d="M120.12 76L118.62 76L118.62 63.8L120.12 63.8L120.12 76ZM80.14 74.84C79.52 75.63 78.7 76.12 77.5 76.12C75.18 76.12 73.71 74.3 73.71 71.82C73.71 69.47 75.24 67.71 77.47 67.71C78.7 67.71 79.55 68.25 80.14 68.92L80.17 68.92L80.17 63.83L81.68 63.83L81.68 76L80.24 76L80.24 74.84L80.14 74.84ZM100.33 66.17L98.64 66.17L98.64 64.48L100.33 64.48L100.33 66.17ZM70.28 74.75C69.6 75.76 68.44 76.12 67.42 76.12C65.72 76.12 64.64 75.19 64.64 73.67C64.64 71.9 66 70.91 68.84 70.91L70.35 70.91L70.35 70.64C70.35 69.47 69.47 68.96 68.12 68.96C67.26 68.96 66.36 69.13 65.39 69.66L65.39 68.25C66.2 67.9 67.32 67.71 68.32 67.71C70.54 67.71 71.85 68.67 71.85 70.92L71.85 76L70.32 76L70.32 74.75L70.28 74.75ZM85.84 76L84.33 76L84.33 67.83L85.74 67.83L85.74 69.02L85.77 69.02C86.33 68.12 87.37 67.71 88.33 67.71C89.47 67.71 90.3 68.3 90.7 69.29C91.26 68.25 92.2 67.71 93.4 67.71C95.21 67.71 96.09 69.02 96.09 70.76L96.09 76L94.59 76L94.59 71.13C94.59 69.85 94.2 68.92 93.07 68.92C91.61 68.92 90.96 70.39 90.96 71.88L90.96 76L89.47 76L89.47 71.13C89.47 69.82 89.03 68.92 87.95 68.92C86.59 68.92 85.84 70.25 85.84 71.88L85.84 76ZM104.64 76L103.13 76L103.13 67.83L104.54 67.83L104.54 69.16L104.57 69.16C105.1 68.12 105.85 67.71 106.91 67.71C107.21 67.71 107.51 67.74 107.85 67.79L107.85 69.1C107.53 69.05 107.23 69.02 106.96 69.02C105.32 69.02 104.64 70.19 104.64 72.35L104.64 76ZM114.41 74.75C113.73 75.76 112.57 76.12 111.55 76.12C109.85 76.12 108.76 75.19 108.76 73.67C108.76 71.9 110.12 70.91 112.97 70.91L114.48 70.91L114.48 70.64C114.48 69.47 113.6 68.96 112.25 68.96C111.39 68.96 110.49 69.13 109.51 69.66L109.51 68.25C110.33 67.9 111.45 67.71 112.44 67.71C114.67 67.71 115.98 68.67 115.98 70.92L115.98 76L114.44 76L114.44 74.75L114.41 74.75ZM132.52 75.8C132.52 75.8 131.74 76.12 130.47 76.12C127.95 76.12 126.4 74.43 126.4 71.92C126.4 69.4 127.99 67.71 130.49 67.71C131.79 67.71 132.52 68.03 132.52 68.03L132.52 69.32C132.52 69.32 131.76 68.92 130.65 68.92C128.96 68.92 127.99 70.01 127.99 71.92C127.99 73.82 128.96 74.91 130.63 74.91C131.76 74.91 132.52 74.49 132.52 74.49L132.52 75.8ZM142.43 71.92C142.43 74.41 140.72 76.12 138.25 76.12C135.79 76.12 134.08 74.41 134.08 71.92C134.08 69.42 135.79 67.71 138.25 67.71C140.72 67.71 142.43 69.42 142.43 71.92ZM146.04 76L144.54 76L144.54 67.83L145.95 67.83L145.95 69.02L145.98 69.02C146.54 68.12 147.58 67.71 148.54 67.71C149.68 67.71 150.51 68.3 150.91 69.29C151.47 68.25 152.41 67.71 153.61 67.71C155.42 67.71 156.3 69.02 156.3 70.76L156.3 76L154.79 76L154.79 71.13C154.79 69.85 154.41 68.92 153.27 68.92C151.82 68.92 151.16 70.39 151.16 71.88L151.16 76L149.68 76L149.68 71.13C149.68 69.82 149.24 68.92 148.16 68.92C146.8 68.92 146.04 70.25 146.04 71.88L146.04 76ZM100.23 76L98.73 76L98.73 67.83L100.23 67.83L100.23 76ZM75.31 71.88C75.31 73.63 76.36 74.91 77.76 74.91C79.18 74.91 80.17 73.66 80.17 71.93C80.17 70.19 79.16 68.92 77.72 68.92C76.35 68.92 75.31 70.17 75.31 71.88ZM135.67 71.92C135.67 73.74 136.84 74.91 138.25 74.91C139.66 74.91 140.83 73.74 140.83 71.92C140.83 70.09 139.64 68.92 138.25 68.92C136.84 68.92 135.67 70.09 135.67 71.92ZM66.23 73.58C66.23 74.39 66.83 74.84 67.79 74.84C69.28 74.84 70.35 73.82 70.35 72.57L70.35 72.06L68.91 72.06C66.92 72.06 66.23 72.7 66.23 73.58ZM110.36 73.58C110.36 74.39 110.96 74.84 111.92 74.84C113.4 74.84 114.48 73.82 114.48 72.57L114.48 72.06L113.03 72.06C111.05 72.06 110.36 72.7 110.36 73.58ZM124.83 76L123.04 76L123.04 74.2L124.83 74.2L124.83 76Z" fill="#74767B" fill-opacity="1.000000" fill-rule="evenodd"/>
		<g clip-path="url(#clip31086_161033)">
			<path id="Shape" d="M34 67L37 70C37.27 70.23 37.3 70.64 37.06 70.91C36.83 71.18 36.42 71.21 36.14 70.98L35 69.83L35 77.7C35 78.41 34.41 79 33.7 79L30.49 79C29.78 79 29.19 78.41 29.19 77.69L29.2 72.3L26.8 72.3L26.8 77.7C26.8 78.41 26.21 79 25.5 79L22.3 79C21.58 79 21 78.41 21 77.7L21 69.83L19.85 70.98C19.57 71.21 19.16 71.18 18.93 70.91C18.69 70.64 18.72 70.23 19 70L22 67L27.08 61.91C27.58 61.41 28.41 61.41 28.91 61.91L34 67ZM33.7 77.7L30.5 77.7L30.5 72.3C30.5 71.58 29.91 71 29.2 71L26.8 71C26.08 71 25.5 71.58 25.5 72.3L25.5 77.7L22.3 77.7L22.3 68.53L28 62.83L33.7 68.53L33.7 77.7Z" fill="#74767B" fill-opacity="1.000000" fill-rule="evenodd"/>
		</g>
		<rect id="Status Bar" width="320.000000" height="44.000000" fill="#FFFFFF" fill-opacity="0"/>
		<rect id="Island" width="102.000000" height="30.000000" transform="translate(109.000000 7.000000)" fill="#FFFFFF" fill-opacity="0"/>
		<rect id="Island" x="109.000000" y="7.000000" rx="15.000000" width="102.000000" height="30.000000" fill="#000000" fill-opacity="1.000000"/>
		<circle id="Camera" cx="196.000000" cy="22.000000" r="8.000000" fill="#0D0D0D" fill-opacity="1.000000"/>
		<circle id="Lens" cx="196.000000" cy="22.000000" r="5.000000" fill="#161720" fill-opacity="1.000000"/>
		<rect id="Status" width="63.000000" height="10.000000" transform="translate(231.000000 19.000000)" fill="#FFFFFF" fill-opacity="0"/>
		<path id="Vector 4" d="M246.5 19L245.5 19C244.94 19 244.5 19.44 244.5 20L244.5 28C244.5 28.55 244.94 29 245.5 29L246.5 29C247.05 29 247.5 28.55 247.5 28L247.5 20C247.5 19.44 247.05 19 246.5 19ZM241 21L242 21C242.55 21 243 21.44 243 22L243 28C243 28.55 242.55 29 242 29L241 29C240.44 29 240 28.55 240 28L240 22C240 21.44 240.44 21 241 21ZM237.5 23L236.5 23C235.94 23 235.5 23.44 235.5 24L235.5 28C235.5 28.55 235.94 29 236.5 29L237.5 29C238.05 29 238.5 28.55 238.5 28L238.5 24C238.5 23.44 238.05 23 237.5 23ZM233 25L232 25C231.44 25 231 25.44 231 26L231 28C231 28.55 231.44 29 232 29L233 29C233.55 29 234 28.55 234 28L234 26C234 25.44 233.55 25 233 25Z" fill="#252629" fill-opacity="1.000000" fill-rule="evenodd"/>
		<path id="Vector 5" d="M253.39 21.49C253.47 21.42 253.57 21.34 253.71 21.24C253.96 21.06 254.23 20.88 254.52 20.7C255.41 20.17 256.33 19.76 257.29 19.48C257.34 19.47 257.38 19.46 257.43 19.45C258.53 19.14 259.62 19.02 260.7 19.08C261.02 19.1 261.34 19.14 261.66 19.19Q261.81 19.22 261.97 19.25C263.58 19.57 265.12 20.31 266.57 21.47L265.41 22.92C264.12 21.89 262.77 21.25 261.36 21.02C261.17 20.99 260.98 20.97 260.79 20.95C259.85 20.87 258.89 20.96 257.92 21.23C257.08 21.47 256.26 21.82 255.48 22.29C255.23 22.44 255.01 22.59 254.81 22.74C254.71 22.81 254.64 22.86 254.6 22.9L253.39 21.49ZM255.65 23.54C255.56 23.61 255.48 23.67 255.43 23.73L256.68 25.09C256.71 25.07 256.74 25.04 256.8 25C256.92 24.9 257.06 24.8 257.21 24.71C257.68 24.4 258.17 24.18 258.69 24.03C259.19 23.88 259.73 23.81 260.23 23.83C260.45 23.84 260.67 23.86 260.88 23.9C261.79 24.06 262.68 24.5 263.55 25.2L264.72 23.76C263.6 22.86 262.43 22.29 261.21 22.07C260.85 22.01 260.5 21.97 260.14 21.97C259.5 21.96 258.86 22.05 258.22 22.23C258.12 22.26 258.02 22.29 257.93 22.32C257.33 22.52 256.76 22.79 256.21 23.14C256.01 23.27 255.82 23.4 255.65 23.54ZM260.43 28.79L257.33 25.69C257.33 25.69 260.43 23.84 262.9 25.69L260.43 28.79Z" fill="#252629" fill-opacity="1.000000" fill-rule="evenodd"/>
		<path id="Vector 6" d="M290.84 19.32C290.17 19 289.28 19 287.52 19L277.54 19C275.77 19 274.89 19 274.22 19.32C273.62 19.61 273.14 20.07 272.84 20.63C272.5 21.27 272.5 22.11 272.5 23.8L272.5 24.19C272.5 25.88 272.5 26.72 272.84 27.36C273.14 27.92 273.62 28.38 274.22 28.67C274.89 29 275.77 29 277.54 29L287.52 29C289.28 29 290.17 29 290.84 28.67C291.43 28.38 291.92 27.92 292.22 27.36C292.56 26.72 292.56 25.88 292.56 24.19L292.56 23.8C292.56 22.11 292.56 21.27 292.22 20.63C291.92 20.07 291.43 19.61 290.84 19.32ZM290.41 20.13C289.94 19.9 289.32 19.9 288.09 19.9L276.97 19.9C275.74 19.9 275.12 19.9 274.65 20.13C274.24 20.33 273.9 20.65 273.69 21.05C273.45 21.49 273.45 22.08 273.45 23.25L273.45 24.74C273.45 25.91 273.45 26.5 273.69 26.94C273.9 27.34 274.24 27.66 274.65 27.86C275.12 28.09 275.74 28.09 276.97 28.09L288.09 28.09C289.32 28.09 289.94 28.09 290.41 27.86C290.82 27.66 291.16 27.34 291.37 26.94C291.61 26.5 291.61 25.91 291.61 24.74L291.61 23.25C291.61 22.08 291.61 21.49 291.37 21.05C291.16 20.65 290.82 20.33 290.41 20.13ZM277.41 20.81L287.65 20.81C288.67 20.81 289.17 20.81 289.57 20.99C289.96 21.17 290.27 21.47 290.46 21.84C290.65 22.22 290.65 22.7 290.65 23.67L290.65 24.32C290.65 25.29 290.65 25.77 290.46 26.15C290.27 26.52 289.96 26.82 289.57 27C289.17 27.18 288.67 27.18 287.65 27.18L277.41 27.18C276.39 27.18 275.88 27.18 275.49 27C275.1 26.82 274.78 26.52 274.6 26.15C274.41 25.77 274.41 25.29 274.41 24.32L274.41 23.67C274.41 22.7 274.41 22.22 274.6 21.84C274.78 21.47 275.1 21.17 275.49 20.99C275.88 20.81 276.39 20.81 277.41 20.81ZM294 23.54C294 23.04 293.57 22.63 293.04 22.63L293.04 25.36C293.57 25.36 294 24.95 294 24.45L294 23.54Z" fill="#252629" fill-opacity="1.000000" fill-rule="evenodd"/>
		<path id="Time" d="M42.86 22.35C42.86 20.35 44.39 18.88 46.53 18.88C48.63 18.88 50.46 20.38 50.46 23.94L50.46 23.95C50.46 27.27 48.97 29.24 46.49 29.24C44.67 29.24 43.32 28.17 43.01 26.66L42.99 26.58L44.73 26.58L44.75 26.65C45.01 27.34 45.62 27.79 46.49 27.79C48.05 27.79 48.71 26.26 48.79 24.37C48.79 24.3 48.8 24.22 48.8 24.15L48.66 24.15C48.3 24.93 47.44 25.62 46.08 25.62C44.19 25.62 42.86 24.24 42.86 22.36L42.86 22.35ZM63.14 29L61.45 29L61.45 27.1L56.62 27.1L56.62 25.66C57.9 23.44 59.3 21.17 60.64 19.13L63.14 19.13L63.14 25.65L64.46 25.65L64.46 27.1L63.14 27.1L63.14 29ZM70.32 29L68.55 29L68.55 20.87L68.44 20.87L65.98 22.6L65.98 20.94L68.56 19.13L70.32 19.13L70.32 29ZM44.59 22.3C44.59 23.44 45.4 24.26 46.52 24.26C47.63 24.26 48.49 23.46 48.49 22.34L48.49 22.33C48.49 21.2 47.63 20.32 46.54 20.32C45.45 20.32 44.59 21.19 44.59 22.29L44.59 22.3ZM54.65 21.52C54.65 22.12 54.19 22.6 53.56 22.6C52.94 22.6 52.47 22.12 52.47 21.52C52.47 20.91 52.94 20.44 53.56 20.44C54.19 20.44 54.65 20.91 54.65 21.52ZM58.26 25.58L58.26 25.69L61.48 25.69L61.48 20.54L61.37 20.54C60.36 22.08 59.22 23.91 58.26 25.58ZM54.65 26.6C54.65 27.2 54.19 27.68 53.56 27.68C52.94 27.68 52.47 27.2 52.47 26.6C52.47 25.99 52.94 25.52 53.56 25.52C54.19 25.52 54.65 25.99 54.65 26.6Z" fill="#252629" fill-opacity="1.000000" fill-rule="evenodd"/>
	</g>
</svg>
