<svg fill="none" xmlns="http://www.w3.org/2000/svg">
<style>
@container (min-width: 64px) {
  svg path.spinner-icon:not([data-dimension='xl']) {
    display: none;
  }
}
@container (max-width: 48px) and (min-width: 25px) {
  svg path.spinner-icon:not([data-dimension='l']) {
    display: none;
  }
}
@container (max-width: 24px) and (min-width: 21px) {
  svg path.spinner-icon:not([data-dimension='m']) {
    display: none;
  }
}
@container (max-width: 20px) and (min-width: 17px) {
  svg path.spinner-icon:not([data-dimension='ms']) {
    display: none;
  }
}
@container (max-width: 16px) {
  svg path.spinner-icon:not([data-dimension='s']) {
    display: none;
  }
}
</style>
    <path class="spinner-icon" data-dimension="xl" fill-rule="evenodd" clip-rule="evenodd"
          d="M58.607 49.7783C61.5659 45.35 63.3639 40.2671 63.8595 34.9957C64.0146 33.3461 62.6569 32 61 32C59.3432 32 58.0182 33.3489 57.8294 34.995C56.3442 47.9437 45.3465 58 32 58C17.6406 58 6 46.3594 6 32C6 18.6535 16.0563 7.65577 29.005 6.17065C30.6511 5.98186 32 4.65687 32 3.00002C32 1.34316 30.6539 -0.0145857 29.0043 0.140512C23.733 0.636141 18.65 2.4341 14.2218 5.39298C8.95939 8.90918 4.85787 13.9069 2.43587 19.7541C0.0138652 25.6014 -0.619842 32.0355 0.614885 38.2429C1.84961 44.4503 4.89732 50.1521 9.3726 54.6274C13.8479 59.1027 19.5497 62.1504 25.7571 63.3851C31.9645 64.6199 38.3986 63.9862 44.2459 61.5642C50.0931 59.1421 55.0908 55.0406 58.607 49.7783Z"
          fill="none"/>
    <path class="spinner-icon" data-dimension="l" fill-rule="evenodd" clip-rule="evenodd"
          d="M43.9553 37.3337C46.1278 34.0822 47.4659 30.3601 47.8699 26.4956C48.0135 25.1223 46.8807 24 45.5 24C44.1193 24 43.0173 25.1253 42.8377 26.4943C41.6163 35.8089 33.648 43 24 43C13.5066 43 5 34.4934 5 24C5 14.352 12.1911 6.38363 21.5057 5.16224C22.8747 4.98273 24 3.8807 24 2.49999C24 1.11928 22.8777 -0.0134965 21.5044 0.130068C17.6399 0.534091 13.9178 1.87215 10.6663 4.04471C6.71955 6.68187 3.64341 10.4302 1.8269 14.8156C0.0103989 19.201 -0.464881 24.0266 0.461164 28.6822C1.38721 33.3377 3.67299 37.6141 7.02945 40.9705C10.3859 44.327 14.6623 46.6128 19.3178 47.5388C23.9734 48.4649 28.799 47.9896 33.1844 46.1731C37.5698 44.3566 41.3181 41.2805 43.9553 37.3337Z"
          fill="none"/>
    <path class="spinner-icon" data-dimension="m" fill-rule="evenodd" clip-rule="evenodd"
          d="M21.9776 18.6668C23.0173 17.1109 23.6748 15.3393 23.9064 13.4961C24.0097 12.6742 23.3284 12 22.5 12C21.6716 12 21.0131 12.6766 20.8766 13.4937C20.1651 17.7534 16.4617 21 12 21C7.02944 21 3.00001 16.9705 3.00001 12C3.00001 7.5383 6.24663 3.8349 10.5063 3.12337C11.3234 2.98688 12 2.32841 12 1.49999C12 0.671559 11.3258 -0.00967684 10.5039 0.0936096C8.66065 0.325226 6.88914 0.982682 5.33316 2.02235C3.35977 3.34093 1.8217 5.21507 0.913451 7.40778C0.00519943 9.6005 -0.232441 12.0133 0.230582 14.3411C0.693605 16.6688 1.83649 18.807 3.51472 20.4853C5.19295 22.1635 7.33115 23.3064 9.65892 23.7694C11.9867 24.2324 14.3995 23.9948 16.5922 23.0865C18.7849 22.1783 20.6591 20.6402 21.9776 18.6668Z"
          fill="none"/>
    <path class="spinner-icon" data-dimension="ms" fill-rule="evenodd" clip-rule="evenodd"
          d="M18.3784 15.5402C19.2478 14.2391 19.7976 12.7576 19.9913 11.2163C20.0777 10.5289 19.508 9.9652 18.8153 9.9652C18.1226 9.9652 17.572 10.531 17.4578 11.2142C16.8628 14.7762 13.7659 17.4911 10.035 17.4911C5.8784 17.4911 2.50885 14.1215 2.50885 9.96497C2.50885 6.23397 5.22377 3.13707 8.78583 2.54206C9.46906 2.42793 10.0348 1.87734 10.0348 1.18465C10.0348 0.491952 9.47108 -0.0776724 8.78379 0.00868486C7.24238 0.202359 5.76095 0.75215 4.45977 1.62157C2.80955 2.72421 1.52337 4.29143 0.763858 6.12505C0.00434798 7.95867 -0.194375 9.97633 0.19282 11.9229C0.580015 13.8695 1.53574 15.6575 2.93913 17.0609C4.34252 18.4643 6.13055 19.42 8.07711 19.8072C10.0237 20.1944 12.0413 19.9957 13.875 19.2361C15.7086 18.4766 17.2758 17.1904 18.3784 15.5402Z"
          fill="none"/>
    <path class="spinner-icon" data-dimension="s" fill-rule="evenodd" clip-rule="evenodd"
          d="M14.6518 12.4446C15.3449 11.4072 15.7832 10.2262 15.9376 8.99741C16.0064 8.44944 15.5523 7.99999 15 7.99999C14.4477 7.99999 14.0087 8.45107 13.9177 8.9958C13.4434 11.8356 10.9745 14 8 14C4.6863 14 2 11.3137 2 7.99999C2 5.02553 4.16442 2.5566 7.00419 2.08225C7.54893 1.99126 8 1.55228 8 0.999991C8 0.447706 7.55056 -0.00645119 7.00258 0.0624064C5.77376 0.216817 4.59276 0.655121 3.55544 1.34823C2.23985 2.22729 1.21447 3.47671 0.608967 4.93852C0.00346628 6.40033 -0.15496 8.00887 0.153721 9.56071C0.462403 11.1126 1.22433 12.538 2.34315 13.6568C3.46197 14.7757 4.88743 15.5376 6.43928 15.8463C7.99113 16.155 9.59966 15.9965 11.0615 15.391C12.5233 14.7855 13.7727 13.7601 14.6518 12.4446Z"
          fill="none"/>
</svg>