<svg width="20" height="20" viewBox="0 0 20 20" fill="none" xmlns="http://www.w3.org/2000/svg">
    <path fill-rule="evenodd" clip-rule="evenodd"
          d="M10 19C14.9706 19 19 14.9706 19 10C19 5.02944 14.9706 1 10 1C5.02944 1 1 5.02944 1 10C1 14.9706 5.02944 19 10 19ZM10.0072 12.0714C10.4806 12.0714 10.8643 11.6877 10.8643 11.2143V5.35714C10.8643 4.88376 10.4806 4.5 10.0072 4.5C9.53378 4.5 9.15002 4.88376 9.15002 5.35714V11.2143C9.15002 11.6877 9.53378 12.0714 10.0072 12.0714ZM10.8643 14.6429C10.8643 14.1695 10.4806 13.7857 10.0072 13.7857C9.53378 13.7857 9.15002 14.1695 9.15002 14.6429C9.15002 15.1162 9.53378 15.5 10.0072 15.5C10.4806 15.5 10.8643 15.1162 10.8643 14.6429Z"
          fill="#D92020"/>
</svg>
