<svg width="138" height="24" viewBox="0 0 138 24" fill="none" xmlns="http://www.w3.org/2000/svg">
    <path d="M12.6789 3.43959C12.5725 3.17406 12.3152 3 12.0291 3H8.08353C7.79741 3 7.5401 3.17413 7.43372 3.43974L0.384602 21.0397C0.200426 21.4996 0.539061 22 1.03442 22H19.083C19.5784 22 19.917 21.4995 19.7327 21.0396L12.6789 3.43959ZM6.28573 17.6087L10.1047 8.39546L13.9238 17.6087H6.28573Z" fill="#22242A"/>
    <path d="M31.788 6.4H34.614L39.222 19H36.486L35.568 16.228H30.726L29.808 19H27.198L31.788 6.4ZM31.392 14.23H34.902L33.174 9.082H33.138L31.392 14.23ZM43.9902 19.18C43.3422 19.18 42.7602 19.054 42.2442 18.802C41.7282 18.55 41.2902 18.202 40.9302 17.758C40.5822 17.314 40.3122 16.798 40.1202 16.21C39.9282 15.61 39.8322 14.968 39.8322 14.284C39.8322 13.66 39.9222 13.06 40.1022 12.484C40.2942 11.908 40.5642 11.404 40.9122 10.972C41.2722 10.528 41.7042 10.18 42.2082 9.928C42.7122 9.664 43.2882 9.532 43.9362 9.532C44.4402 9.532 44.9262 9.634 45.3942 9.838C45.8742 10.03 46.3122 10.342 46.7082 10.774V5.392H49.1202V19H46.8522V17.632C46.5162 18.148 46.1142 18.538 45.6462 18.802C45.1902 19.054 44.6382 19.18 43.9902 19.18ZM44.5662 17.326C45.2142 17.326 45.7422 17.056 46.1502 16.516C46.5582 15.976 46.7622 15.262 46.7622 14.374C46.7622 13.942 46.7022 13.546 46.5822 13.186C46.4742 12.814 46.3182 12.502 46.1142 12.25C45.9222 11.986 45.6882 11.782 45.4122 11.638C45.1482 11.494 44.8542 11.422 44.5302 11.422C44.2062 11.422 43.9122 11.494 43.6482 11.638C43.3842 11.782 43.1502 11.986 42.9462 12.25C42.7542 12.502 42.6042 12.808 42.4962 13.168C42.3882 13.528 42.3342 13.924 42.3342 14.356C42.3342 14.788 42.3882 15.19 42.4962 15.562C42.6042 15.922 42.7542 16.234 42.9462 16.498C43.1502 16.762 43.3902 16.966 43.6662 17.11C43.9422 17.254 44.2422 17.326 44.5662 17.326ZM51.7101 9.694H53.9421V11.152H53.9961C54.3081 10.684 54.6981 10.3 55.1661 10C55.6341 9.688 56.1681 9.532 56.7681 9.532C57.3921 9.532 57.9201 9.7 58.3521 10.036C58.7961 10.36 59.1381 10.81 59.3781 11.386C59.7141 10.81 60.1281 10.36 60.6201 10.036C61.1121 9.7 61.6881 9.532 62.3481 9.532C62.8281 9.532 63.2541 9.622 63.6261 9.802C63.9981 9.982 64.3041 10.234 64.5441 10.558C64.7961 10.882 64.9821 11.266 65.1021 11.71C65.2341 12.154 65.3001 12.634 65.3001 13.15V19H62.8701V13.78C62.8701 13.12 62.7741 12.592 62.5821 12.196C62.3901 11.788 62.0421 11.584 61.5381 11.584C61.2141 11.584 60.9381 11.662 60.7101 11.818C60.4821 11.974 60.2901 12.184 60.1341 12.448C59.9901 12.712 59.8821 13.024 59.8101 13.384C59.7381 13.744 59.7021 14.122 59.7021 14.518V19H57.2901V13.78C57.2901 13.096 57.1881 12.562 56.9841 12.178C56.7921 11.782 56.4561 11.584 55.9761 11.584C55.6761 11.584 55.4061 11.662 55.1661 11.818C54.9381 11.962 54.7461 12.166 54.5901 12.43C54.4341 12.682 54.3141 12.988 54.2301 13.348C54.1581 13.708 54.1221 14.098 54.1221 14.518V19H51.7101V9.694ZM67.7438 9.694H70.1738V19H67.7438V9.694ZM67.7078 5.896H70.2278V8.02H67.7078V5.896ZM72.8565 9.694H75.1065V11.242H75.1245C75.2445 11.014 75.3705 10.798 75.5025 10.594C75.6465 10.378 75.8085 10.192 75.9885 10.036C76.1805 9.88 76.3965 9.76 76.6365 9.676C76.8765 9.58 77.1585 9.532 77.4825 9.532C77.6265 9.532 77.7825 9.544 77.9505 9.568C78.1185 9.58 78.2745 9.598 78.4185 9.622V11.674C78.2505 11.65 78.0885 11.632 77.9325 11.62C77.7765 11.608 77.6385 11.602 77.5185 11.602C76.6545 11.602 76.0605 11.89 75.7365 12.466C75.4245 13.03 75.2685 13.858 75.2685 14.95V19H72.8565V9.694ZM82.2797 19.18C81.8477 19.18 81.4457 19.12 81.0737 19C80.7017 18.88 80.3777 18.7 80.1017 18.46C79.8377 18.22 79.6277 17.926 79.4717 17.578C79.3277 17.218 79.2557 16.804 79.2557 16.336C79.2557 15.784 79.3637 15.31 79.5797 14.914C79.7957 14.518 80.1077 14.194 80.5157 13.942C80.9237 13.69 81.4097 13.51 81.9737 13.402C82.5377 13.282 83.1737 13.222 83.8817 13.222H85.2857V13.006C85.2857 12.706 85.2257 12.46 85.1057 12.268C84.9977 12.064 84.8417 11.902 84.6377 11.782C84.4457 11.65 84.2117 11.56 83.9357 11.512C83.6717 11.452 83.3897 11.422 83.0897 11.422C82.6817 11.422 82.2257 11.464 81.7217 11.548C81.2177 11.632 80.6837 11.788 80.1197 12.016V10.054C80.6117 9.886 81.1457 9.76 81.7217 9.676C82.3097 9.58 82.8917 9.532 83.4677 9.532C84.0917 9.532 84.6617 9.604 85.1777 9.748C85.7057 9.88 86.1497 10.096 86.5097 10.396C86.8817 10.684 87.1697 11.062 87.3737 11.53C87.5777 11.998 87.6797 12.562 87.6797 13.222V19H85.3577L85.3757 17.56H85.3217C84.9857 18.112 84.5417 18.52 83.9897 18.784C83.4377 19.048 82.8677 19.18 82.2797 19.18ZM83.0717 17.434C83.3837 17.434 83.6717 17.374 83.9357 17.254C84.2117 17.122 84.4457 16.954 84.6377 16.75C84.8417 16.534 84.9977 16.288 85.1057 16.012C85.2257 15.736 85.2857 15.448 85.2857 15.148V14.68H84.0617C83.2457 14.68 82.6517 14.824 82.2797 15.112C81.9197 15.388 81.7397 15.754 81.7397 16.21C81.7397 16.618 81.8657 16.924 82.1177 17.128C82.3697 17.332 82.6877 17.434 83.0717 17.434ZM90.1028 5.392H92.5508V19H90.1028V5.392ZM98.2119 6.4H100.93L103.27 16.318H103.342L105.502 6.4H108.76L110.938 16.372H111.01L113.35 6.4H115.942L112.612 19H109.408L107.14 8.686H107.068L104.782 19H101.542L98.2119 6.4ZM118.587 14.986C118.815 16.534 119.745 17.308 121.377 17.308C121.833 17.308 122.319 17.26 122.835 17.164C123.363 17.056 123.849 16.936 124.293 16.804V18.748C123.993 18.832 123.567 18.922 123.015 19.018C122.475 19.126 121.857 19.18 121.161 19.18C119.529 19.18 118.281 18.742 117.417 17.866C116.553 16.99 116.121 15.784 116.121 14.248C116.121 13.528 116.229 12.88 116.445 12.304C116.673 11.716 116.985 11.218 117.381 10.81C117.789 10.402 118.269 10.09 118.821 9.874C119.373 9.646 119.979 9.532 120.639 9.532C122.019 9.532 123.075 9.958 123.807 10.81C124.539 11.662 124.905 12.88 124.905 14.464V14.986H118.587ZM120.639 11.386C120.039 11.386 119.571 11.584 119.235 11.98C118.899 12.364 118.683 12.862 118.587 13.474H122.529C122.553 12.826 122.385 12.316 122.025 11.944C121.677 11.572 121.215 11.386 120.639 11.386ZM132.145 19.18C130.897 19.18 129.949 18.706 129.301 17.758H129.265L129.121 19H127.015V5.392H129.427V10.738H129.463C129.847 10.33 130.267 10.03 130.723 9.838C131.191 9.634 131.683 9.532 132.199 9.532C132.847 9.532 133.423 9.664 133.927 9.928C134.431 10.18 134.857 10.528 135.205 10.972C135.565 11.404 135.835 11.908 136.015 12.484C136.207 13.06 136.303 13.66 136.303 14.284C136.303 14.968 136.207 15.61 136.015 16.21C135.823 16.798 135.547 17.314 135.187 17.758C134.839 18.19 134.407 18.538 133.891 18.802C133.375 19.054 132.793 19.18 132.145 19.18ZM131.587 17.326C131.911 17.326 132.205 17.254 132.469 17.11C132.745 16.966 132.979 16.762 133.171 16.498C133.375 16.234 133.531 15.922 133.639 15.562C133.747 15.19 133.801 14.788 133.801 14.356C133.801 13.924 133.747 13.528 133.639 13.168C133.531 12.808 133.375 12.502 133.171 12.25C132.979 11.986 132.751 11.782 132.487 11.638C132.223 11.494 131.929 11.422 131.605 11.422C131.281 11.422 130.981 11.494 130.705 11.638C130.429 11.782 130.189 11.986 129.985 12.25C129.793 12.502 129.637 12.814 129.517 13.186C129.409 13.546 129.355 13.942 129.355 14.374C129.355 14.818 129.409 15.22 129.517 15.58C129.625 15.94 129.775 16.252 129.967 16.516C130.171 16.768 130.411 16.966 130.687 17.11C130.963 17.254 131.263 17.326 131.587 17.326Z" fill="#22242A"/>
</svg>
