<svg width="406" height="142" viewBox="0 0 406 142" fill="none" xmlns="http://www.w3.org/2000/svg">
    <path d="M0 0C17.7229 0 33.1583 11.0188 41.1884 27.299V0C58.5232 0 73.3569 13.7684 79.4348 33.2636V0C94.0583 0 105.913 23.7094 105.913 52.9565C105.913 82.2036 94.0583 105.913 79.4348 105.913V72.6494C73.3569 92.1446 58.5232 105.913 41.1884 105.913V78.614C33.1583 94.8943 17.7229 105.913 0 105.913V0Z"
          fill="#0B43DA"/>
    <path d="M305.561 35.3044V141.1H288.182L245.85 67.857V141.1H228.69V35.3044H245.85L288.474 109.056V35.3044H305.561Z"
          fill="#0B43DA"/>
    <path fill-rule="evenodd" clip-rule="evenodd"
          d="M181.739 35.4215H141.915V141.217H159.659V100.599H181.829L199.118 141.217H218.103V140.273L198.472 96.1133C201.034 94.8333 203.318 93.2769 205.324 91.444C208.294 88.6828 210.558 85.2919 212.115 81.2713C213.722 77.2507 214.525 72.6003 214.525 67.3202C214.525 60.3446 213.235 54.5074 210.655 49.8086C208.123 45.0614 204.424 41.4767 199.556 39.0546C194.688 36.6326 188.749 35.4215 181.739 35.4215ZM159.659 50.2444V85.7762H181.3C184.757 85.7762 187.629 85.0253 189.917 83.5237C192.205 82.022 193.909 79.939 195.028 77.2747C196.197 74.6105 196.781 71.5829 196.781 68.192C196.781 64.5589 196.27 61.4102 195.247 58.7459C194.225 56.0332 192.619 53.9502 190.428 52.497C188.237 50.9953 185.341 50.2444 181.739 50.2444H159.659Z"
          fill="#0B43DA"/>
    <path fill-rule="evenodd" clip-rule="evenodd"
          d="M384.322 84.7146C383.58 85.1834 382.801 85.6131 381.985 86.0039C384.194 86.6346 386.141 87.5854 387.827 88.8563C391.04 91.2299 393.401 94.3059 394.91 98.0844C396.419 101.863 397.174 105.908 397.174 110.219C397.174 116.952 395.908 122.62 393.377 127.222C390.845 131.775 387.219 135.239 382.497 137.613C377.823 139.938 372.152 141.1 365.483 141.1H322.265V35.3044H363.657C368.623 35.3044 373.053 35.8856 376.947 37.0482C380.89 38.1624 384.225 39.8821 386.951 42.2072C389.677 44.5324 391.746 47.5116 393.158 51.1447C394.618 54.7293 395.348 58.9922 395.348 63.9332C395.348 68.2445 394.423 72.2167 392.574 75.8498C390.724 79.4345 387.973 82.3894 384.322 84.7146ZM340.009 126.35V93.434H366.14C369.353 93.434 371.933 94.1122 373.88 95.4685C375.827 96.8249 377.239 98.7626 378.115 101.282C378.992 103.8 379.43 106.755 379.43 110.146C379.43 113.392 378.919 116.226 377.896 118.648C376.874 121.07 375.341 122.959 373.296 124.315C371.251 125.672 368.647 126.35 365.483 126.35H340.009ZM371.178 78.175C369.085 79.3376 366.554 79.9189 363.584 79.9189H340.009V50.1274H363.657C366.87 50.1274 369.499 50.6361 371.544 51.6533C373.637 52.6706 375.17 54.2934 376.144 56.5217C377.117 58.7015 377.604 61.5354 377.604 65.0231C377.604 68.1718 377.044 70.8603 375.925 73.0886C374.854 75.3169 373.272 77.0124 371.178 78.175Z"
          fill="#0B43DA"/>
</svg>
