<svg width="20" height="20" viewBox="0 0 20 20" fill="none" xmlns="http://www.w3.org/2000/svg">
<path d="M8.88873 6.11111C8.88873 6.72476 8.39126 7.22222 7.77762 7.22222C7.16397 7.22222 6.6665 6.72476 6.6665 6.11111C6.6665 5.49746 7.16397 5 7.77762 5C8.39127 5 8.88873 5.49746 8.88873 6.11111Z" fill="#717681"/>
<path d="M8.88873 13.8889C8.88873 14.5025 8.39126 15 7.77761 15C7.16397 15 6.6665 14.5025 6.6665 13.8889C6.6665 13.2752 7.16397 12.7778 7.77761 12.7778C8.39126 12.7778 8.88873 13.2752 8.88873 13.8889Z" fill="#717681"/>
<path d="M8.88873 10C8.88873 10.6136 8.39126 11.1111 7.77762 11.1111C7.16397 11.1111 6.6665 10.6136 6.6665 10C6.6665 9.38635 7.16397 8.88889 7.77762 8.88889C8.39126 8.88889 8.88873 9.38635 8.88873 10Z" fill="#717681"/>
<path d="M13.337 6.11111C13.337 6.72476 12.8395 7.22222 12.2259 7.22222C11.6122 7.22222 11.1147 6.72476 11.1147 6.11111C11.1147 5.49746 11.6122 5 12.2259 5C12.8395 5 13.337 5.49746 13.337 6.11111Z" fill="#717681"/>
<path d="M13.337 13.8889C13.337 14.5025 12.8395 15 12.2259 15C11.6122 15 11.1147 14.5025 11.1147 13.8889C11.1147 13.2752 11.6122 12.7778 12.2259 12.7778C12.8395 12.7778 13.337 13.2752 13.337 13.8889Z" fill="#717681"/>
<path d="M13.337 10C13.337 10.6136 12.8395 11.1111 12.2259 11.1111C11.6122 11.1111 11.1147 10.6136 11.1147 10C11.1147 9.38635 11.6122 8.88889 12.2259 8.88889C12.8395 8.88889 13.337 9.38635 13.337 10Z" fill="#717681"/>
</svg>
