<svg width="64" height="64" viewBox="0 0 64 64" fill="none" xmlns="http://www.w3.org/2000/svg">
    <path fill-rule="evenodd" clip-rule="evenodd"
          d="M58.607 49.7783C61.5659 45.35 63.3639 40.2671 63.8595 34.9957C64.0146 33.3461 62.6569 32 61 32C59.3432 32 58.0182 33.3489 57.8294 34.995C56.3442 47.9437 45.3465 58 32 58C17.6406 58 6 46.3594 6 32C6 18.6535 16.0563 7.65577 29.005 6.17065C30.6511 5.98186 32 4.65687 32 3.00002C32 1.34316 30.6539 -0.0145857 29.0043 0.140512C23.733 0.636141 18.65 2.4341 14.2218 5.39298C8.95939 8.90918 4.85787 13.9069 2.43587 19.7541C0.0138652 25.6014 -0.619842 32.0355 0.614885 38.2429C1.84961 44.4503 4.89732 50.1521 9.3726 54.6274C13.8479 59.1027 19.5497 62.1504 25.7571 63.3851C31.9645 64.6199 38.3986 63.9862 44.2459 61.5642C50.0931 59.1421 55.0908 55.0406 58.607 49.7783Z"
          fill="none"/>
</svg>
