<svg width="48" height="48" viewBox="0 0 48 48" fill="none" xmlns="http://www.w3.org/2000/svg">
    <path fill-rule="evenodd" clip-rule="evenodd"
          d="M43.9553 37.3337C46.1278 34.0822 47.4659 30.3601 47.8699 26.4956C48.0135 25.1223 46.8807 24 45.5 24C44.1193 24 43.0173 25.1253 42.8377 26.4943C41.6163 35.8089 33.648 43 24 43C13.5066 43 5 34.4934 5 24C5 14.352 12.1911 6.38363 21.5057 5.16224C22.8747 4.98273 24 3.8807 24 2.49999C24 1.11928 22.8777 -0.0134965 21.5044 0.130068C17.6399 0.534091 13.9178 1.87215 10.6663 4.04471C6.71955 6.68187 3.64341 10.4302 1.8269 14.8156C0.0103989 19.201 -0.464881 24.0266 0.461164 28.6822C1.38721 33.3377 3.67299 37.6141 7.02945 40.9705C10.3859 44.327 14.6623 46.6128 19.3178 47.5388C23.9734 48.4649 28.799 47.9896 33.1844 46.1731C37.5698 44.3566 41.3181 41.2805 43.9553 37.3337Z"
          fill="none"/>
</svg>
