<svg width="16" height="16" viewBox="0 0 16 16" fill="none" xmlns="http://www.w3.org/2000/svg">
    <path fill-rule="evenodd" clip-rule="evenodd"
          d="M14.6518 12.4446C15.3449 11.4072 15.7832 10.2262 15.9376 8.99741C16.0064 8.44944 15.5523 7.99999 15 7.99999C14.4477 7.99999 14.0087 8.45107 13.9177 8.9958C13.4434 11.8356 10.9745 14 8 14C4.6863 14 2 11.3137 2 7.99999C2 5.02553 4.16442 2.5566 7.00419 2.08225C7.54893 1.99126 8 1.55228 8 0.999991C8 0.447706 7.55056 -0.00645119 7.00258 0.0624064C5.77376 0.216817 4.59276 0.655121 3.55544 1.34823C2.23985 2.22729 1.21447 3.47671 0.608967 4.93852C0.00346628 6.40033 -0.15496 8.00887 0.153721 9.56071C0.462403 11.1126 1.22433 12.538 2.34315 13.6568C3.46197 14.7757 4.88743 15.5376 6.43928 15.8463C7.99113 16.155 9.59966 15.9965 11.0615 15.391C12.5233 14.7855 13.7727 13.7601 14.6518 12.4446Z"
          fill="none"/>
</svg>
