<svg width="20" height="20" viewBox="0 0 20 20" fill="none" xmlns="http://www.w3.org/2000/svg">
    <path fill-rule="evenodd" clip-rule="evenodd"
          d="M18.3784 15.5402C19.2478 14.2391 19.7976 12.7576 19.9913 11.2163C20.0777 10.5289 19.508 9.9652 18.8153 9.9652C18.1226 9.9652 17.572 10.531 17.4578 11.2142C16.8628 14.7762 13.7659 17.4911 10.035 17.4911C5.8784 17.4911 2.50885 14.1215 2.50885 9.96497C2.50885 6.23397 5.22377 3.13707 8.78583 2.54206C9.46906 2.42793 10.0348 1.87734 10.0348 1.18465C10.0348 0.491952 9.47108 -0.0776724 8.78379 0.00868486C7.24238 0.202359 5.76095 0.75215 4.45977 1.62157C2.80955 2.72421 1.52337 4.29143 0.763858 6.12505C0.00434798 7.95867 -0.194375 9.97633 0.19282 11.9229C0.580015 13.8695 1.53574 15.6575 2.93913 17.0609C4.34252 18.4643 6.13055 19.42 8.07711 19.8072C10.0237 20.1944 12.0413 19.9957 13.875 19.2361C15.7086 18.4766 17.2758 17.1904 18.3784 15.5402Z"
          fill="none"/>
</svg>
