<svg viewBox="0 0 24 24" fill="none" xmlns="http://www.w3.org/2000/svg"><path fill-rule="evenodd" clip-rule="evenodd" d="M7 3a3 3 0 00-3 3v12a3 3 0 003 3h10a3 3 0 003-3V9.3a3 3 0 00-.948-2.189l-3.52-3.3A3 3 0 0013.48 3H7zm11.402 5.402a.35.35 0 01-.247.598h-2.819C14.598 9 14 8.362 14 7.575v-2.73a.35.35 0 01.598-.248l3.804 3.805zm-6.277.064a.75.75 0 10-1.5 0 .75.75 0 001.5 0zm-.1 2.754a.65.65 0 10-1.3 0v3.846a1.95 1.95 0 001.95 1.95h.05a.65.65 0 100-1.3h-.05a.65.65 0 01-.65-.65V11.22z" fill="#626F84"/></svg>