<svg viewBox="0 0 24 24" fill="none" xmlns="http://www.w3.org/2000/svg"><path fill-rule="evenodd" clip-rule="evenodd" d="M8.5 2a3 3 0 00-3 3l.452 11.75A1.3 1.3 0 007.25 18h.018v2.3a1.7 1.7 0 001.7 1.7h6.35a1.7 1.7 0 001.7-1.7v-2.296-.032a1.3 1.3 0 001.03-1.222L18.5 5a3 3 0 00-3-3h-7zm.88 2.523A1.3 1.3 0 008.083 5.87l.094 2.59a1.3 1.3 0 001.288 1.253l5.024.044a1.3 1.3 0 001.31-1.252l.099-2.634a1.3 1.3 0 00-1.3-1.348H9.381zM10.623 12a.65.65 0 110 1.3H8.925a.65.65 0 110-1.3h1.697zm.65 3.108a.65.65 0 00-.65-.65H8.925a.65.65 0 000 1.3h1.697a.65.65 0 00.65-.65zM15.055 12a.65.65 0 110 1.3h-1.697a.65.65 0 110-1.3h1.697zm.65 3.108a.65.65 0 00-.65-.65h-1.697a.65.65 0 000 1.3h1.697a.65.65 0 00.65-.65zm-5.716 2.896h-1.42V20.3c0 .22.18.4.4.4h1.02v-2.695zm1.3 0V20.7h4.03a.4.4 0 00.4-.4v-2.296h-4.43z" fill="#626F84"/></svg>