<svg viewBox="0 0 24 24" fill="none" xmlns="http://www.w3.org/2000/svg"><path fill-rule="evenodd" clip-rule="evenodd" d="M8.5 3.3h7a1.7 1.7 0 011.7 1.678L16.749 16.7H7.251l-.45-11.722A1.7 1.7 0 018.5 3.3zm9.548 13.45L18.5 5a3 3 0 00-3-3h-7a3 3 0 00-3 3l.452 11.75a1.3 1.3 0 001.173 1.244V20.3a1.7 1.7 0 001.7 1.7h6.35a1.7 1.7 0 001.7-1.7V17.994a1.3 1.3 0 001.173-1.244zm-9.623 1.255h1.42V20.7h-1.02a.4.4 0 01-.4-.4v-2.296zm2.72 2.695v-2.695h4.43V20.3a.4.4 0 01-.4.4h-4.03zm.127-8.693a.65.65 0 00-.65-.65H8.925a.65.65 0 000 1.3h1.697a.65.65 0 00.65-.65zm-.65 1.808a.65.65 0 110 1.3H8.925a.65.65 0 110-1.3h1.697zm5.083-1.808a.65.65 0 00-.65-.65h-1.697a.65.65 0 000 1.3h1.697a.65.65 0 00.65-.65zm-.65 1.808a.65.65 0 110 1.3h-1.697a.65.65 0 110-1.3h1.697zM9.38 5.823h5.216L14.5 8.457l-5.024-.043-.094-2.591zm-1.3.047a1.3 1.3 0 011.3-1.347h5.216a1.3 1.3 0 011.3 1.348l-.098 2.634a1.3 1.3 0 01-1.31 1.252l-5.025-.044a1.3 1.3 0 01-1.288-1.252L8.082 5.87z" fill="#626F84"/></svg>