<svg viewBox="0 0 24 24" fill="none" xmlns="http://www.w3.org/2000/svg"><path fill-rule="evenodd" clip-rule="evenodd" d="M15 19.7H9A1.7 1.7 0 017.3 18v-2.201h9.4V18a1.7 1.7 0 01-1.7 1.7zm1.7-5.201H7.3V6.064a1.7 1.7 0 011.7-1.7h6a1.7 1.7 0 011.7 1.7v8.435zM15 3.064a3 3 0 013 3V18a3 3 0 01-3 3H9a3 3 0 01-3-3V6.064a3 3 0 013-3h6zm-3.555 8.61c.304.15.676.04.808-.271.24-.571.373-1.199.373-1.857 0-.642-.126-1.255-.355-1.815-.13-.315-.505-.428-.811-.276-.336.166-.453.583-.329.937.127.361.195.75.195 1.154 0 .416-.073.815-.206 1.185-.128.354-.013.776.325.943zm3.116.852c-.14.317-.52.434-.831.28-.332-.164-.455-.572-.312-.914a6.033 6.033 0 00.472-2.346c0-.82-.163-1.6-.458-2.313-.14-.341-.017-.747.313-.911.313-.155.694-.036.834.283.393.9.611 1.895.611 2.94 0 1.062-.225 2.07-.63 2.981zM10.11 9.564a.65.65 0 11-1.3 0 .65.65 0 011.3 0zm-.657 7.537a.65.65 0 000 1.3h5.094a.65.65 0 100-1.3H9.453z" fill="#626F84"/></svg>