<svg viewBox="0 0 24 24" fill="none" xmlns="http://www.w3.org/2000/svg"><path d="M12.06 9.976a.653.653 0 01.628.653l-.006 3.593 1.39-1.508a.65.65 0 01.92-.008c.252.25.257.66.008.921l-2.552 2.628c-.291.3-.771.283-1.04-.037l-2.477-2.8a.627.627 0 01-.154-.446.645.645 0 01.227-.472.658.658 0 01.918.073l1.46 1.61s-.01-1.856.002-3.562a.65.65 0 01.676-.645z" fill="#626F84"/><path fill-rule="evenodd" clip-rule="evenodd" d="M4 6a3 3 0 013-3h6.48a3 3 0 012.052.811l3.52 3.3A3 3 0 0120 9.3V18a3 3 0 01-3 3H7a3 3 0 01-3-3V6zm3-1.7h6.48a1.7 1.7 0 01.57.098v2.655A1.95 1.95 0 0016 9.003h2.674a1.7 1.7 0 01.026.297V18a1.7 1.7 0 01-1.7 1.7H7A1.7 1.7 0 015.3 18V6A1.7 1.7 0 017 4.3zm10.782 3.403l-2.432-2.28v1.63c0 .359.29.65.65.65h1.782z" fill="#626F84"/></svg>