<svg viewBox="0 0 24 24" fill="none" xmlns="http://www.w3.org/2000/svg"><path fill-rule="evenodd" clip-rule="evenodd" d="M4 6a3 3 0 013-3h6.48a3 3 0 012.052.811l3.52 3.3A3 3 0 0120 9.3V18a3 3 0 01-3 3H7a3 3 0 01-3-3V6zm14.155 3a.35.35 0 00.247-.598l-3.805-3.805a.35.35 0 00-.597.248v2.73C14 8.362 14.598 9 15.336 9h2.819zm-5.467 1.63a.653.653 0 00-1.304-.009c-.011 1.706-.002 3.561-.002 3.561l-1.46-1.61a.658.658 0 00-.918-.072.645.645 0 00-.227.472.627.627 0 00.154.446l2.477 2.8a.698.698 0 001.04.037L15 13.627a.658.658 0 00-.007-.92.65.65 0 00-.921.007l-1.39 1.508.006-3.592z" fill="#626F84"/></svg>