<svg viewBox="0 0 24 24" fill="none" xmlns="http://www.w3.org/2000/svg"><path fill-rule="evenodd" clip-rule="evenodd" d="M4.003 5a3 3 0 013-3h8.026a3 3 0 013 3v5.095c0 .347-.302.614-.65.614a5.794 5.794 0 00-5.793 5.794c0 .777-.563 1.525-1.34 1.525H7.003a3 3 0 01-3-3V5zm3.355 5.14a.65.65 0 01.65-.65h2.358a.65.65 0 110 1.3H8.008a.65.65 0 01-.65-.65zm.65-4.242a.65.65 0 100 1.3h6.02a.65.65 0 100-1.3h-6.02zm9.372 15.105a4.5 4.5 0 100-9 4.5 4.5 0 000 9zm0-7.156a.65.65 0 01.65.65v1.357h1.222a.65.65 0 110 1.3H18.03v1.357a.65.65 0 11-1.3 0v-1.357h-1.222a.65.65 0 110-1.3h1.222v-1.357a.65.65 0 01.65-.65z" fill="#626F84"/></svg>