<svg viewBox="0 0 24 24" fill="none" xmlns="http://www.w3.org/2000/svg"><path d="M15.026 3.3H7A1.7 1.7 0 005.3 5v10.028a1.7 1.7 0 001.7 1.7h4.432a.65.65 0 110 1.3H7a3 3 0 01-3-3V5a3 3 0 013-3h8.026a3 3 0 013 3v6.408a.65.65 0 11-1.3 0V5a1.7 1.7 0 00-1.7-1.7z" fill="#626F84"/><path d="M7.355 6.548a.65.65 0 01.65-.65h6.02a.65.65 0 110 1.3h-6.02a.65.65 0 01-.65-.65zM8.005 9.431a.65.65 0 100 1.3h2.626a.65.65 0 000-1.3H8.005zM17.266 21.003a.65.65 0 01-.65-.65v-2.36h-2.36a.65.65 0 010-1.3h2.36v-2.36a.65.65 0 111.3 0v2.36h2.36a.65.65 0 110 1.3h-2.36v2.36a.65.65 0 01-.65.65z" fill="#626F84"/></svg>