<svg viewBox="0 0 24 24" fill="none" xmlns="http://www.w3.org/2000/svg"><path fill-rule="evenodd" clip-rule="evenodd" d="M16.934 12.975c-.467 0-.862.327-.926.766-.08.544-.678.872-1.214.665a.96.96 0 00-1.162.379l-.505.829a.857.857 0 00.224 1.135.862.862 0 01-.02 1.392.858.858 0 00-.235 1.144l.504.829a.96.96 0 001.148.383c.556-.204 1.177.144 1.26.713.064.438.46.765.926.765h1.009c.461 0 .853-.319.924-.751.096-.588.74-.942 1.325-.727a.96.96 0 001.148-.383l.505-.83a.858.858 0 00-.236-1.143.862.862 0 01-.02-1.392.857.857 0 00.224-1.135l-.504-.83a.96.96 0 00-1.162-.378c-.56.216-1.188-.12-1.28-.68-.07-.432-.463-.75-.924-.75h-1.009zm2.036 4.5a1.5 1.5 0 11-3 0 1.5 1.5 0 013 0z" fill="#626F84"/><path d="M19.56 12.056c.207.08.44-.066.44-.288V7a3 3 0 00-3-3H7a3 3 0 00-3 3v10a3 3 0 003 3h4.768c.221 0 .368-.233.288-.44a5.79 5.79 0 01-.388-2.089c0-1.056.283-2.046.776-2.9H9.25l-1.055 2.126a.65.65 0 11-1.165-.578l4.375-8.816A.65.65 0 0112 6.942a.65.65 0 01.594.361l2.434 4.903a5.781 5.781 0 012.443-.538c.737 0 1.442.138 2.09.388z" fill="#626F84"/><path d="M12 9.03l1.914 3.856c-.156.121-.305.25-.447.385H9.895L12 9.03z" fill="#626F84"/></svg>