<svg viewBox="0 0 24 24" fill="none" xmlns="http://www.w3.org/2000/svg"><path fill-rule="evenodd" clip-rule="evenodd" d="M16.934 12.975c-.467 0-.862.327-.926.766-.08.544-.678.872-1.214.665a.96.96 0 00-1.162.379l-.505.829a.857.857 0 00.224 1.135.862.862 0 01-.02 1.392.858.858 0 00-.235 1.144l.504.829a.96.96 0 001.148.383c.556-.204 1.177.144 1.26.713.064.438.46.765.926.765h1.009c.461 0 .853-.319.924-.751.096-.588.74-.942 1.325-.727a.96.96 0 001.148-.383l.505-.83a.858.858 0 00-.236-1.143.862.862 0 01-.02-1.392.857.857 0 00.224-1.135l-.504-.83a.96.96 0 00-1.162-.378c-.56.216-1.188-.12-1.28-.68-.07-.432-.463-.75-.924-.75h-1.009zm2.036 4.5a1.5 1.5 0 11-3 0 1.5 1.5 0 013 0z" fill="#626F84"/><path d="M19.56 12.056c.207.08.44-.066.44-.288V7a3 3 0 00-3-3H7a3 3 0 00-3 3v10a3 3 0 003 3h4.768c.221 0 .368-.233.288-.44a5.802 5.802 0 012.654-7.195v-.052H9.34v4.095a.65.65 0 11-1.3 0V7.62a.65.65 0 011.3 0v3.393h5.37V7.62a.65.65 0 111.3 0v4.234a5.812 5.812 0 013.55.202z" fill="#626F84"/></svg>