<svg viewBox="0 0 24 24" fill="none" xmlns="http://www.w3.org/2000/svg"><path fill-rule="evenodd" clip-rule="evenodd" d="M14.662 20.674a.65.65 0 000 1.3h5.666a.65.65 0 100-1.3h-5.666zM4.246 21.776l6.93-7.163 2.504 2.504.026.026-1.235 1.235a.65.65 0 00.92.919l7.396-7.397a.65.65 0 10-.919-.92l-1.208 1.21-.026-.027-5.795-5.795-.017-.017 1.316-1.317a.65.65 0 10-.919-.919l-7.587 7.588a.65.65 0 00.919.919l1.317-1.317.017.017 2.371 2.372-6.945 7.178a.65.65 0 10.935.904zm13.469-8.694l-5.796-5.795-3.115 3.116 5.795 5.795 3.116-3.116z" fill="#626F84"/></svg>