<svg viewBox="0 0 24 24" fill="none" xmlns="http://www.w3.org/2000/svg"><path d="M12 .5a.72.72 0 01.72.72V3.1a.72.72 0 11-1.44 0V1.22A.72.72 0 0112 .5z" fill="#626F84"/><path fill-rule="evenodd" clip-rule="evenodd" d="M12 5a7 7 0 00-7 7v5.7a.7.7 0 00.7.7h12.6a.7.7 0 00.7-.7V12a7 7 0 00-7-7zm0 7.75a.65.65 0 00.65-.65V9.046a.65.65 0 10-1.3 0v3.052c0 .36.29.65.65.65zm0 2.853a.75.75 0 100-1.5.75.75 0 000 1.5z" fill="#626F84"/><path d="M.498 12.002a.72.72 0 01.72-.72h1.881a.72.72 0 110 1.44H1.217a.72.72 0 01-.719-.72zM20.181 12.002a.72.72 0 01.72-.72h1.881a.72.72 0 110 1.44h-1.881a.72.72 0 01-.72-.72zM3.867 3.869a.72.72 0 011.017 0l1.33 1.33a.72.72 0 11-1.017 1.018l-1.33-1.33a.72.72 0 010-1.018zM17.785 6.217a.72.72 0 010-1.018l1.33-1.33a.72.72 0 011.018 1.017l-1.33 1.33a.72.72 0 01-1.018 0zM3.795 19.7a.65.65 0 100 1.3h16.41a.65.65 0 000-1.3H3.795z" fill="#626F84"/></svg>