<svg viewBox="0 0 24 24" fill="none" xmlns="http://www.w3.org/2000/svg"><path d="M12.72 1.22a.72.72 0 10-1.44 0V3.1a.72.72 0 001.44 0V1.22zM12.65 12.1a.65.65 0 11-1.3 0V9.046a.65.65 0 111.3 0v3.052zM12.75 14.853a.75.75 0 11-1.5 0 .75.75 0 011.5 0z" fill="#626F84"/><path fill-rule="evenodd" clip-rule="evenodd" d="M5 12a7 7 0 0114 0v5.7a.7.7 0 01-.7.7H5.7a.7.7 0 01-.7-.7V12zm12.7 0v5.1H6.3V12a5.7 5.7 0 0111.4 0z" fill="#626F84"/><path d="M3.795 19.7a.65.65 0 100 1.3h16.41a.65.65 0 000-1.3H3.795zM.498 12.002a.72.72 0 01.72-.72h1.881a.72.72 0 110 1.44H1.217a.72.72 0 01-.719-.72zM20.9 11.282a.72.72 0 100 1.44h1.882a.72.72 0 100-1.44h-1.881zM3.867 3.869a.72.72 0 011.017 0l1.33 1.33a.72.72 0 11-1.017 1.018l-1.33-1.33a.72.72 0 010-1.018zM17.785 5.2a.72.72 0 101.017 1.017l1.33-1.33a.72.72 0 00-1.017-1.018l-1.33 1.33z" fill="#626F84"/></svg>