<svg viewBox="0 0 24 24" fill="none" xmlns="http://www.w3.org/2000/svg"><path fill-rule="evenodd" clip-rule="evenodd" d="M11.352 7.971V2.65a.65.65 0 111.298 0V7.97l2.45-2.45a.649.649 0 11.917.918l-3.558 3.56a.649.649 0 01-.918 0l-3.558-3.56a.65.65 0 01.918-.918l2.45 2.451zm1.107 6.032l3.558 3.56a.65.65 0 01-.918.917l-2.45-2.451v5.322a.65.65 0 11-1.298 0V16.03L8.9 18.48a.649.649 0 11-.918-.918l3.558-3.56a.649.649 0 01.918 0zm6.892-1.315a.65.65 0 000-1.298H4.65a.65.65 0 000 1.298H19.35z" fill="#626F84"/></svg>