<svg viewBox="0 0 28 28" fill="none" xmlns="http://www.w3.org/2000/svg"><path d="M.25 21A2.75 2.75 0 003 23.75h22A2.75 2.75 0 0027.75 21V7A2.75 2.75 0 0025 4.25H3A2.75 2.75 0 00.25 7v14z" fill="#fff" stroke="#D6D8DD" stroke-width=".5"/><mask id="a" style="mask-type:alpha" maskUnits="userSpaceOnUse" x="0" y="4" width="28" height="20"><path d="M0 21a3 3 0 003 3h22a3 3 0 003-3V7a3 3 0 00-3-3H3a3 3 0 00-3 3v14z" fill="#fff"/></mask><g mask="url(#a)"><path fill-rule="evenodd" clip-rule="evenodd" d="M22.106 16.143s-.195-.18.036-.47c-.125-.12-.01-.35-.01-.35s-.212-.09.01-.46c-.16-.12-.09-.39-.09-.39s-.523-.22-.026-.43c-.407.2-.79-.27-.79-.27l-.594.02c-.1-.556-.883-.073-.302-1.67-.15-.028-.319-.079-.488.061-.168.14-.647.44-.931.14-.283-.3.186-.73.196-.74.008-.01.63-.37.718-.61-.008-.18-.204-.32-.027-.71.205-.37 1.455-.719 2.023-.839.275-.14.4-.41.4-.41l.062.26s1.259-.42 1.321-.62c.063-.2.027.18.027.18.496-.05 1.127-.53 1.215-.31.417-.09 1.216-.49 1.216-.49s.274-.01.08.33a.348.348 0 01-.046.41c-.009 0 .054.22-.105.34.052.19-.099.34-.099.34s.072.23-.212.35c.026.2-.16.24-.16.24s.027.21-.098.3c0 .16-.14.24-.14.24s.087.06-.037.159c-.124.1-1.41.99-1.41.98 0-.01.94.19 1.002.23.062.04.771.57.771.57l-.718.999s-.798-.1-.834-.05c-.035.05.169.07.214.15.044.08.115.27.256.25.142-.02-.266.29-.532.32 0 .11.337.12.426.03.089-.09-.213.26-.248.31-.036.05.4-.07.4-.07s-.072.33-.453.43c.15.28.088.46.08.46-.009 0-.25-.28-.48-.23.063.27.25.52.302.56.053.04-.417.03-.48-.12-.06-.15-.115.36.055.52-.196.01-.364-.12-.364-.12s-.116.3-.036.45c.08.149-.275-.3-.275-.3l-.674.32-.15-.29h-.001z" fill="#8C301C"/><path fill-rule="evenodd" clip-rule="evenodd" d="M16.896 15.548c.015 0 .98-.018 1.422-.304.22.393.521.66.521.66l.142-.57s.347.017.38.107a.991.991 0 00-.064.25s.237.017.253.052c.015.036-.064.338-.064.338l1.012.268s.078-.445.158-.392c.078.054.426.605.916.642.49.035.52-.464.52-.464l.111.072s.206-.5.237-.5c.032 0 .08.072.348.072.079.107.11.356.11.356s-.3.339-.204.606c.094.266.11.195.11.195l2.18.588s.11.195-.08.302c0 .018-2.195-.57-2.195-.57s-.205.268-.363.214c-.159-.053-.048.107-.048.107l2.37.213s.174.25.047.321c-.157.018-2.559-.178-2.559-.178s-.142.339-.3.054c-.11.195-.237-.054-.237-.054s-.205.178-.237-.017c-.174.142-.285-.09-.285-.09l-1.01-.071-.063.107s.173.054-.095.178c-.27.124 1.611.071 1.658.09.048.017-.126.177-.126.177s.963.072 1.138-.16c.173-.231-.064.302-.064.302s.758-.035.758-.07c0-.037-.016.266-.537.23.316.232.71.375.71.375s-.394.106-.852-.018c.08.231.426.445.426.445s-.252.25-.82-.356c.157.32.03.445.015.409-.015-.035-.285-.48-.916-.64.394.284.221.409.221.409s-.206-.41-.537 0c-.126-.373-.616-.588-1.216-.623-.19-.25-.3-.178-.743-.32-.252-.321-.616-.678-.616-.678s.016-.48.442-.426c.048.16.048.107.048.107s.473-.197.616.07c.206-.409.49-.06.537.081.136.023.822.044.822.044s-.08-.16-.032-.142c.047.017.426-.16.41-.214-.015-.053-.032-.231.032-.214.064.018-.537-.089-.869.196-.11-.125-.031-.463-.031-.463l-.98-.23-.047.284s-.285.053-.269-.018c.017-.072-.063.25-.063.25s-.38-.108-.38-.125c0-.018.111-.641.111-.624 0 .019-.315.037-.758.41-.126-.444-1.12-1.033-1.12-1.05h-.001zM18.128 14.088s-.663.64 0 1.015c.032-.25.079-.285.079-.285s.552.232.884-.32c-.142-.232-.394-.143-.394-.143s-.521 0-.569-.267z" fill="#F0BC1E"/><path fill-rule="evenodd" clip-rule="evenodd" d="M18.15 14.093s.088-.1.115-.22c.027-.12-.035-.25.071-.36.107-.11 1.508-.779 1.623-.909.115-.13.329-.41.355-.47.026-.06.107.3-.133.459.257-.08.426-.17.532-.13-.106.17-.39.45-.524.45.312-.13.595-.24.675-.17.08.07-.381.42-.568.44.311-.09.728-.23.78-.08-.167.06-.114.11-.46.33-.044.04-.266.05-.266.05.266-.03.629-.15.665.07-.213.09-.293.211-.47.26-.178.05-.586.14-.834.25-.248.11-.612.43-.612.43s-.79.03-.79.02c0-.01-.15-.41-.16-.42" fill="#F9EBC2"/><path d="M18.55 14.025l-.055-.003c0-.01.01-.215.1-.293.028-.025.09-.059.167-.102.143-.079.339-.187.394-.28.022-.037.035-.056.057-.042.023.015.016.031-.008.085-.029.068-.117.274-.098.333l-.051.02c-.018-.055.012-.157.056-.27-.094.08-.22.15-.326.208l-.058.033c.074.043.165.136.13.268l-.051-.017c.036-.14-.127-.21-.134-.213l.002-.008a.358.358 0 00-.048.033c-.057.05-.075.196-.078.248" fill="#100F0D"/><path d="M18.766 13.699c-.068 0-.124.063-.124.14 0 .076.056.138.124.138s.123-.062.123-.138c0-.078-.055-.14-.123-.14zm0 .33c-.094 0-.17-.085-.17-.19 0-.107.076-.193.17-.193.093 0 .17.086.17.193 0 .105-.077.19-.17.19z" fill="#100F0D"/><path fill-rule="evenodd" clip-rule="evenodd" d="M24.918 13.483l1.535.33s.168-.22.08-.34c.23-.06.168-.399.168-.399s.266-.13.044-.43c.152-.17-.035-.3-.035-.3s.062-.3-.133-.33c.052-.24-.337-.32-.337-.32s-.808.25-1.376.27c.187.21-.07.34-.07.34s.15.12.106.22.027.21-.168.28c.258.13-.027.35-.027.35s.285.22.213.33v-.001z" fill="#F9EBC2"/><path d="M28 24H0V14l28 10zM0 4h28L0 14V4z" fill="#000661"/><path d="M0 14L28 4v1L3 14l25 9v1L0 14z" fill="#AB1A2E"/></g></svg>