<svg viewBox="0 0 28 28" fill="none" xmlns="http://www.w3.org/2000/svg"><rect y="4" width="28" height="20" rx="3" fill="#fff"/><mask id="a" style="mask-type:alpha" maskUnits="userSpaceOnUse" x="0" y="4" width="28" height="20"><rect y="4" width="28" height="20" rx="3" fill="#fff"/></mask><g mask="url(#a)"><path fill="#1537D1" d="M0 4h28v20H0z"/><path fill="#EA3058" d="M13.333 4H28v20H13.333z"/><path fill-rule="evenodd" clip-rule="evenodd" d="M9.333 24h9.334V4H9.333v20z" fill="#FFCF3C"/><path fill-rule="evenodd" clip-rule="evenodd" d="M12.667 12.667H14v.666h-1.333v-.666z" fill="#FFEDB1"/><path d="M12.392 12.694a.333.333 0 01.333-.36h2.55c.195 0 .349.166.333.36l-.172 2.056a1 1 0 01-.996.917h-.88a1 1 0 01-.996-.917l-.172-2.056z" stroke="#D32E28" stroke-width=".667"/><path fill-rule="evenodd" clip-rule="evenodd" d="M12.667 13.333h2.666V14h-2.666v-.667z" fill="#D32E28"/></g></svg>