<svg viewBox="0 0 28 28" fill="none" xmlns="http://www.w3.org/2000/svg"><rect y="4" width="28" height="20" rx="2" fill="#fff"/><mask id="a" style="mask-type:alpha" maskUnits="userSpaceOnUse" x="0" y="4" width="28" height="20"><rect y="4" width="28" height="20" rx="2" fill="#fff"/></mask><g mask="url(#a)"><path fill="url(#paint0_linear_17_6199)" d="M0 4h28v20H0z"/><g filter="url(#filter0_d_17_6199)"><path fill-rule="evenodd" clip-rule="evenodd" d="M0 24h28v-9.333H0V24z" fill="#262626"/></g><g filter="url(#filter1_d_17_6199)"><path fill-rule="evenodd" clip-rule="evenodd" d="M0 14.667h28V4H0v10.667z" fill="#DD2137"/></g><g filter="url(#filter2_d_17_6199)"><path fill-rule="evenodd" clip-rule="evenodd" d="M16.198 15.553a4 4 0 00-2.44-5.848.667.667 0 10-.344 1.288 2.667 2.667 0 011.67 3.817l-2.047-1.365a.667.667 0 00-.74 1.11l1.877 1.251a2.66 2.66 0 01-2.14.339.667.667 0 10-.346 1.287 3.996 3.996 0 003.66-.844l.949.633a.667.667 0 00.74-1.109l-.84-.56zm-3.531-2.886a.667.667 0 100-1.334.667.667 0 000 1.334z" fill="#F8D84B"/></g></g><defs><filter id="filter0_d_17_6199" x="0" y="14.667" width="28" height="9.333" filterUnits="userSpaceOnUse" color-interpolation-filters="sRGB"><feFlood flood-opacity="0" result="BackgroundImageFix"/><feColorMatrix in="SourceAlpha" values="0 0 0 0 0 0 0 0 0 0 0 0 0 0 0 0 0 0 127 0" result="hardAlpha"/><feOffset/><feColorMatrix values="0 0 0 0 0 0 0 0 0 0 0 0 0 0 0 0 0 0 0.06 0"/><feBlend in2="BackgroundImageFix" result="effect1_dropShadow_17_6199"/><feBlend in="SourceGraphic" in2="effect1_dropShadow_17_6199" result="shape"/></filter><filter id="filter1_d_17_6199" x="0" y="4" width="28" height="10.667" filterUnits="userSpaceOnUse" color-interpolation-filters="sRGB"><feFlood flood-opacity="0" result="BackgroundImageFix"/><feColorMatrix in="SourceAlpha" values="0 0 0 0 0 0 0 0 0 0 0 0 0 0 0 0 0 0 127 0" result="hardAlpha"/><feOffset/><feColorMatrix values="0 0 0 0 0 0 0 0 0 0 0 0 0 0 0 0 0 0 0.06 0"/><feBlend in2="BackgroundImageFix" result="effect1_dropShadow_17_6199"/><feBlend in="SourceGraphic" in2="effect1_dropShadow_17_6199" result="shape"/></filter><filter id="filter2_d_17_6199" x="11.194" y="9.682" width="6.139" height="8.888" filterUnits="userSpaceOnUse" color-interpolation-filters="sRGB"><feFlood flood-opacity="0" result="BackgroundImageFix"/><feColorMatrix in="SourceAlpha" values="0 0 0 0 0 0 0 0 0 0 0 0 0 0 0 0 0 0 127 0" result="hardAlpha"/><feOffset dy="1"/><feColorMatrix values="0 0 0 0 0 0 0 0 0 0 0 0 0 0 0 0 0 0 0.06 0"/><feBlend in2="BackgroundImageFix" result="effect1_dropShadow_17_6199"/><feBlend in="SourceGraphic" in2="effect1_dropShadow_17_6199" result="shape"/></filter><linearGradient id="paint0_linear_17_6199" x1="0" y1="4" x2="0" y2="24" gradientUnits="userSpaceOnUse"><stop stop-color="#FF323E"/><stop offset="1" stop-color="#FD0D1B"/></linearGradient></defs></svg>