<svg viewBox="0 0 28 28" fill="none" xmlns="http://www.w3.org/2000/svg"><rect y="4" width="28" height="20" rx="3" fill="#fff"/><mask id="a" style="mask-type:alpha" maskUnits="userSpaceOnUse" x="0" y="4" width="28" height="20"><rect y="4" width="28" height="20" rx="3" fill="#fff"/></mask><g mask="url(#a)"><path fill="#E2243B" d="M0 4h28v20H0z"/><path fill-rule="evenodd" clip-rule="evenodd" d="M0 4h28L14 24 0 4z" fill="#262626"/><mask id="b" style="mask-type:alpha" maskUnits="userSpaceOnUse" x="0" y="4" width="28" height="20"><path fill-rule="evenodd" clip-rule="evenodd" d="M0 4h28L14 24 0 4z" fill="#fff"/></mask><g mask="url(#b)"><g filter="url(#filter0_d_17_6209)"><path fill-rule="evenodd" clip-rule="evenodd" d="M14 15l-2.296 2.543.175-3.422-3.422.175L11 12 8 9.333l3.879.667-.546-4L14 9.333 16.667 6l-.546 4L20 9.333 17 12l2.543 2.296-3.422-.175.175 3.422L14 15z" fill="#FFCF3C"/></g><g filter="url(#filter1_d_17_6209)"><path fill-rule="evenodd" clip-rule="evenodd" d="M0 17.333h28V12H0v5.333z" fill="#1984D8"/></g><path fill-rule="evenodd" clip-rule="evenodd" d="M0 24h28v-6.667H0V24z" fill="#fff"/></g></g><defs><filter id="filter0_d_17_6209" x="8" y="6" width="12" height="11.543" filterUnits="userSpaceOnUse" color-interpolation-filters="sRGB"><feFlood flood-opacity="0" result="BackgroundImageFix"/><feColorMatrix in="SourceAlpha" values="0 0 0 0 0 0 0 0 0 0 0 0 0 0 0 0 0 0 127 0" result="hardAlpha"/><feOffset/><feColorMatrix values="0 0 0 0 0 0 0 0 0 0 0 0 0 0 0 0 0 0 0.06 0"/><feBlend in2="BackgroundImageFix" result="effect1_dropShadow_17_6209"/><feBlend in="SourceGraphic" in2="effect1_dropShadow_17_6209" result="shape"/></filter><filter id="filter1_d_17_6209" x="0" y="12" width="28" height="5.333" filterUnits="userSpaceOnUse" color-interpolation-filters="sRGB"><feFlood flood-opacity="0" result="BackgroundImageFix"/><feColorMatrix in="SourceAlpha" values="0 0 0 0 0 0 0 0 0 0 0 0 0 0 0 0 0 0 127 0" result="hardAlpha"/><feOffset/><feColorMatrix values="0 0 0 0 0 0 0 0 0 0 0 0 0 0 0 0 0 0 0.06 0"/><feBlend in2="BackgroundImageFix" result="effect1_dropShadow_17_6209"/><feBlend in="SourceGraphic" in2="effect1_dropShadow_17_6209" result="shape"/></filter></defs></svg>