<svg viewBox="0 0 24 24" fill="none" xmlns="http://www.w3.org/2000/svg"><path d="M17.5 19a1.5 1.5 0 100-3 1.5 1.5 0 000 3z" fill="#626F84"/><path fill-rule="evenodd" clip-rule="evenodd" d="M16.964 13c-.467 0-.862.327-.926.766a.819.819 0 01-.053.192V7.606a.65.65 0 00-.65-.65h-6.67a.65.65 0 00-.65.65v8.788a.65.65 0 101.3 0V8.256h5.37v6.133a.956.956 0 00-1.024.42l-.504.83a.858.858 0 00.224 1.135.862.862 0 01-.02 1.391.858.858 0 00-.236 1.144l.505.83a.96.96 0 001.148.383c.556-.204 1.176.144 1.26.712.064.44.46.766.926.766h1.009c.46 0 .853-.319.924-.752.096-.588.74-.94 1.325-.726a.96.96 0 001.148-.384l.505-.829a.858.858 0 00-.236-1.144.862.862 0 01-.02-1.391.858.858 0 00.224-1.136l-.504-.829a.96.96 0 00-1.162-.378c-.56.216-1.189-.12-1.28-.68-.07-.432-.463-.751-.924-.751h-1.01zm.508 1.3a.343.343 0 00-.308.213c-.407.925-1.423 1.409-2.385 1.247a.23.23 0 00-.237.103.232.232 0 00.021.263 2.16 2.16 0 01-.026 2.7.23.23 0 00-.023.264c.048.08.141.118.233.103.986-.157 2.015.355 2.422 1.3a.33.33 0 00.296.207h.013c.13 0 .243-.085.295-.204.423-.963 1.477-1.47 2.48-1.304a.228.228 0 00.234-.102.229.229 0 00-.023-.263 2.16 2.16 0 01-.027-2.701.231.231 0 00.021-.263.23.23 0 00-.237-.102c-.976.168-2.02-.311-2.443-1.252a.342.342 0 00-.306-.209z" fill="#626F84"/><path d="M20 11.423c0 .423-.442.706-.847.584a.62.62 0 01-.453-.58V7A1.7 1.7 0 0017 5.3H7A1.7 1.7 0 005.3 7v10A1.7 1.7 0 007 18.7h4.428a.62.62 0 01.58.453c.12.405-.162.847-.585.847H7a3 3 0 01-3-3V7a3 3 0 013-3h10a3 3 0 013 3v4.423z" fill="#626F84"/></svg>