<svg viewBox="0 0 24 24" fill="none" xmlns="http://www.w3.org/2000/svg"><path fill-rule="evenodd" clip-rule="evenodd" d="M3.937 6.056a3 3 0 013-3h6.615a3 3 0 012.006.769l3.448 3.1A3 3 0 0120 9.155V18a3 3 0 01-3 3H6.937a3 3 0 01-3-3V6.056zm3.96-1.04a.65.65 0 01.65-.65h.92a.65.65 0 010 1.3h-.92a.65.65 0 01-.65-.65zm.65 1.95a.65.65 0 000 1.3h.92a.65.65 0 100-1.3h-.92zm-.65 3.25a.65.65 0 01.65-.65h.92a.65.65 0 110 1.3h-.92a.65.65 0 01-.65-.65zm1.544 1.95a.7.7 0 00-.678.529l-.646 2.556a.7.7 0 00.678.872h2.274a.7.7 0 00.68-.872l-.647-2.556a.7.7 0 00-.679-.529h-.982zm.308-5.85a.65.65 0 01.65-.65h.92a.65.65 0 110 1.3h-.92a.65.65 0 01-.65-.65zm.65 1.95a.65.65 0 100 1.3h.92a.65.65 0 100-1.3h-.92z" fill="#626F84"/></svg>