<svg viewBox="0 0 24 24" fill="none" xmlns="http://www.w3.org/2000/svg"><path fill-rule="evenodd" clip-rule="evenodd" d="M8.048 3.706a.65.65 0 00-.65-.65h-.461a3 3 0 00-3 3V18a3 3 0 003 3H17a3 3 0 003-3V9.156a3 3 0 00-.994-2.23l-3.448-3.101a3 3 0 00-2.006-.77h-.934a.65.65 0 100 1.3h.934a1.7 1.7 0 011.137.436l3.448 3.1a1.7 1.7 0 01.563 1.265V18a1.7 1.7 0 01-1.7 1.7H6.937a1.7 1.7 0 01-1.7-1.7V6.056a1.7 1.7 0 011.7-1.7h.46a.65.65 0 00.65-.65zm-.152 1.31a.65.65 0 01.65-.65h.92a.65.65 0 010 1.3h-.92a.65.65 0 01-.65-.65zm.65 1.95a.65.65 0 100 1.3h.92a.65.65 0 000-1.3h-.92zm-.65 3.25a.65.65 0 01.65-.65h.92a.65.65 0 010 1.3h-.92a.65.65 0 01-.65-.65zm1.545 1.95a.7.7 0 00-.678.529l-.646 2.556a.7.7 0 00.678.872h2.274a.7.7 0 00.68-.872l-.647-2.556a.7.7 0 00-.679-.529h-.982zm.308-5.85a.65.65 0 01.65-.65h.92a.65.65 0 110 1.3h-.92a.65.65 0 01-.65-.65zm.65 1.95a.65.65 0 100 1.3h.92a.65.65 0 100-1.3h-.92z" fill="#626F84"/></svg>