<svg viewBox="0 0 24 24" fill="none" xmlns="http://www.w3.org/2000/svg"><path d="M8.392 11.563c.18 0 .35-.07.48-.21.24-.27.22-.68-.04-.92L7.277 8.95l10.077.017a.65.65 0 00.002-1.3c-3.36-.007-6.715-.02-10.075-.02l1.55-1.374a.65.65 0 00.04-.92.658.658 0 00-.92-.04l-2.71 2.464c-.31.28-.31.76 0 1.04l2.71 2.575c.13.12.28.17.44.17zM15.626 18.911c-.18 0-.35-.07-.48-.21a.658.658 0 01.04-.92l1.554-1.482-10.08.017a.65.65 0 01-.002-1.3c3.361-.006 6.717-.02 10.078-.02l-1.55-1.375a.65.65 0 01-.04-.92c.24-.26.65-.28.92-.04l2.71 2.465c.31.28.31.76 0 1.04l-2.71 2.575c-.13.12-.28.17-.44.17z" fill="#626F84"/></svg>