<svg viewBox="0 0 24 24" fill="none" xmlns="http://www.w3.org/2000/svg"><path fill-rule="evenodd" clip-rule="evenodd" d="M2 7a3 3 0 013-3h14a3 3 0 013 3v10a3 3 0 01-3 3H5a3 3 0 01-3-3V7zm6.43 1.433l1.434-1.272a.674.674 0 10-.894-1.008L6.214 8.598a.672.672 0 00-.226.51.672.672 0 00.226.508l2.756 2.445a.674.674 0 10.894-1.008L8.43 9.781h7.456a.674.674 0 100-1.348H8.43zm5.698 4.503l1.435 1.272H8.218a.674.674 0 000 1.348h7.345l-1.435 1.272a.674.674 0 10.895 1.008l2.755-2.445a.672.672 0 00.227-.509.672.672 0 00-.227-.51l-2.755-2.444a.674.674 0 00-.895 1.008z" fill="#626F84"/></svg>