<svg viewBox="0 0 24 24" fill="none" xmlns="http://www.w3.org/2000/svg"><path d="M11.544 15.645c0-.18-.07-.35-.21-.48a.658.658 0 00-.92.04L8.93 16.759l.017-10.076a.65.65 0 00-1.3-.002c-.007 3.36-.02 6.715-.02 10.074l-1.374-1.55a.65.65 0 00-.92-.04c-.26.24-.28.65-.04.92l2.464 2.71c.28.31.76.31 1.04 0l2.576-2.71c.12-.13.17-.28.17-.44zM18.892 8.41c0 .18-.07.35-.21.48-.27.24-.68.22-.92-.04L16.28 7.297l.017 10.08a.65.65 0 01-1.3.003c-.006-3.362-.02-6.718-.02-10.079l-1.375 1.55a.65.65 0 01-.92.04.658.658 0 01-.04-.92l2.465-2.71c.28-.31.76-.31 1.04 0l2.575 2.71c.12.13.17.28.17.44z" fill="#626F84"/></svg>