<svg viewBox="0 0 24 24" fill="none" xmlns="http://www.w3.org/2000/svg"><path d="M20.518 12.546c.2.122.469 0 .477-.234a9 9 0 10-8.682 8.682c.233-.007.355-.276.233-.476a5.763 5.763 0 01-.816-2.427.65.65 0 01-.38-.591V9.1l-2.793 2.902a.65.65 0 01-.937-.9l3.911-4.066a.647.647 0 01.938 0l4.51 4.687a5.773 5.773 0 013.54.823z" fill="#626F84"/><path d="M12.65 14.318V9.1l2.845 2.956a5.818 5.818 0 00-2.845 2.262z" fill="#626F84"/><path fill-rule="evenodd" clip-rule="evenodd" d="M22 17.5a4.5 4.5 0 11-9 0 4.5 4.5 0 019 0zm-4.152-1.125a.56.56 0 00-.817-.11l-.322.267a.65.65 0 01-.831-1l.321-.267a1.86 1.86 0 012.463 2.785l-.728.685h1.045a.65.65 0 010 1.3h-2.686a.65.65 0 01-.445-1.124l1.924-1.808a.56.56 0 00.076-.729z" fill="#626F84"/></svg>