<svg viewBox="0 0 24 24" fill="none" xmlns="http://www.w3.org/2000/svg"><path fill-rule="evenodd" clip-rule="evenodd" d="M4.352 11.918a7.643 7.643 0 1115.287 0v.34a1.722 1.722 0 11-3.444 0V8.526a.65.65 0 10-1.3 0v.39a4.173 4.173 0 10.644 5.207 3.022 3.022 0 005.4-1.866v-.34a8.943 8.943 0 10-17.887 0 8.922 8.922 0 008.943 8.943 9.793 9.793 0 006.114-2.095.65.65 0 10-.803-1.022 8.493 8.493 0 01-5.31 1.817 7.622 7.622 0 01-7.644-7.643zm10.516 0a2.873 2.873 0 11-5.746 0 2.873 2.873 0 015.746 0z" fill="#626F84"/></svg>