<svg viewBox="0 0 24 24" fill="none" xmlns="http://www.w3.org/2000/svg"><path fill-rule="evenodd" clip-rule="evenodd" d="M21 12a9 9 0 11-18 0 9 9 0 0118 0zm-9.004-6.211a6.129 6.129 0 00-6.129 6.129 6.112 6.112 0 006.129 6.128c1.99 0 3.415-.79 4.267-1.46a.65.65 0 01.803 1.023 8.122 8.122 0 01-5.07 1.737 7.411 7.411 0 01-7.429-7.428 7.429 7.429 0 0114.857 0v.277a2.589 2.589 0 01-4.6 1.63 3.41 3.41 0 11-.577-4.47v-.209a.65.65 0 111.3 0v3.05a1.289 1.289 0 102.578 0v-.278a6.129 6.129 0 00-6.13-6.13zm2.11 6.129a2.111 2.111 0 11-4.221 0 2.111 2.111 0 014.222 0z" fill="#626F84"/></svg>