<svg viewBox="0 0 24 24" fill="none" xmlns="http://www.w3.org/2000/svg"><path d="M12.716 3.23a1.35 1.35 0 00-1.448.001L4.566 7.495c-1.14.725-.627 2.489.724 2.489h13.42c1.351 0 1.864-1.765.723-2.49L12.717 3.23zM12 11.272a.65.65 0 01.65.65v4.883a.65.65 0 11-1.3 0v-4.883a.65.65 0 01.65-.65zM3.987 19.4a.65.65 0 01.65-.65h14.726a.65.65 0 010 1.3H4.637a.65.65 0 01-.65-.65zM8.283 11.922a.65.65 0 10-1.3 0v4.883a.65.65 0 101.3 0v-4.883zM16.367 11.272a.65.65 0 01.65.65v4.883a.65.65 0 11-1.3 0v-4.883a.65.65 0 01.65-.65z" fill="#626F84"/></svg>