<svg viewBox="0 0 24 24" fill="none" xmlns="http://www.w3.org/2000/svg"><path fill-rule="evenodd" clip-rule="evenodd" d="M12.714 3.23a1.35 1.35 0 00-1.448.001L4.563 7.495c-1.14.725-.626 2.489.725 2.489h13.42c1.351 0 1.864-1.765.723-2.49L12.714 3.23zm-.75 1.098a.05.05 0 01.054 0l6.716 4.264a.077.077 0 01.02.016l.002.003.001.002a.061.061 0 01-.001.035.062.062 0 01-.018.03l-.003.002h-.002a.078.078 0 01-.025.004H5.288a.078.078 0 01-.026-.003l-.005-.003a.062.062 0 01-.017-.03.062.062 0 01-.002-.035l.003-.005a.078.078 0 01.02-.016l6.703-4.264z" fill="#626F84"/><path d="M12 11.272a.65.65 0 01.65.65v4.883a.65.65 0 11-1.3 0v-4.883a.65.65 0 01.65-.65zM3.987 19.4a.65.65 0 01.65-.65h14.726a.65.65 0 110 1.3H4.637a.65.65 0 01-.65-.65zM8.283 11.922a.65.65 0 10-1.3 0v4.883a.65.65 0 101.3 0v-4.883zM16.367 11.272a.65.65 0 01.65.65v4.883a.65.65 0 11-1.3 0v-4.883a.65.65 0 01.65-.65z" fill="#626F84"/></svg>