<svg viewBox="0 0 28 28" fill="none" xmlns="http://www.w3.org/2000/svg"><rect y="4" width="28" height="20" rx="3" fill="#fff"/><mask id="a" style="mask-type:alpha" maskUnits="userSpaceOnUse" x="0" y="4" width="28" height="20"><rect y="4" width="28" height="20" rx="3" fill="#fff"/></mask><g mask="url(#a)"><path fill="url(#paint0_linear_17_6005)" d="M0 4h28v20H0z"/><path fill="#08379D" d="M13.333 4H28v20H13.333z"/><path fill-rule="evenodd" clip-rule="evenodd" d="M0 24h9.333V4H0v20z" fill="#08379D"/><path fill-rule="evenodd" clip-rule="evenodd" d="M9.333 24h9.334V4H9.333v20z" fill="#FFCC50"/><path fill-rule="evenodd" clip-rule="evenodd" d="M13.746 10.414a.333.333 0 01.554.005l.696 1.065a.333.333 0 01-.279.516h-.015a.333.333 0 00-.332.367l.267 2.666c.017.17.16.3.331.3h.228a.333.333 0 00.235-.096l.47-.465a.333.333 0 00.099-.237V13.47a.333.333 0 00-.098-.235l-.187-.188a.333.333 0 01.13-.552l.953-.318c.24-.08.48.127.433.377l-.491 2.673a.333.333 0 01-.097.18l-1.213 1.166a.333.333 0 01-.23.093H15a.333.333 0 00-.333.333v.667c0 .184-.15.333-.334.333h-.666a.333.333 0 01-.334-.333V17a.333.333 0 00-.333-.333h-.195a.333.333 0 01-.236-.098l-1.164-1.164a.334.334 0 01-.091-.17l-.535-2.672a.333.333 0 01.433-.381l.943.314a.333.333 0 01.13.552l-.187.188a.333.333 0 00-.098.235v1.064c0 .089.036.174.099.237l.47.465a.333.333 0 00.235.096h.228c.17 0 .314-.13.331-.3l.267-2.666a.334.334 0 00-.332-.367.334.334 0 01-.277-.52l.725-1.066z" fill="#262626"/></g><defs><linearGradient id="paint0_linear_17_6005" x1="0" y1="4" x2="0" y2="24" gradientUnits="userSpaceOnUse"><stop stop-color="#1132C7"/><stop offset="1" stop-color="#0522A5"/></linearGradient></defs></svg>