<svg viewBox="0 0 24 24" fill="none" xmlns="http://www.w3.org/2000/svg"><path fill-rule="evenodd" clip-rule="evenodd" d="M5.05 2h14a3 3 0 013 3v14a3 3 0 01-3 3h-14a3 3 0 01-3-3V5a3 3 0 013-3zm.696 5.947a.65.65 0 00-.65.65v6.805c0 .36.291.65.65.65h1.275a.65.65 0 00.65-.65V8.597a.65.65 0 00-.65-.65H5.746zm12.652 0a.65.65 0 01.65.65v6.805a.65.65 0 11-1.3 0V8.598a.65.65 0 01.65-.65zm-4.533.65a.65.65 0 01.65-.65h1.275a.65.65 0 01.65.65v6.805a.65.65 0 01-.65.65h-1.275a.65.65 0 01-.65-.65V8.597zm-2.611-.65a.65.65 0 01.65.65v6.805a.65.65 0 11-1.3 0V8.598a.65.65 0 01.65-.65z" fill="#626F84"/></svg>