<svg viewBox="0 0 24 24" fill="none" xmlns="http://www.w3.org/2000/svg"><path d="M5.8 2H5a3 3 0 00-3 3v.691a.65.65 0 101.3 0V5A1.7 1.7 0 015 3.3h.8a.65.65 0 000-1.3zM2 18.309a.65.65 0 111.3 0V19A1.7 1.7 0 005 20.7h.8a.65.65 0 110 1.3H5a3 3 0 01-3-3v-.691zM21.35 17.659a.65.65 0 00-.65.65V19a1.7 1.7 0 01-1.7 1.7h-.583a.65.65 0 100 1.3H19a3 3 0 003-3v-.691a.65.65 0 00-.65-.65zM22 5.691a.65.65 0 11-1.3 0V5A1.7 1.7 0 0019 3.3h-.583a.65.65 0 110-1.3H19a3 3 0 013 3v.691zM5.804 7.947a.65.65 0 00-.65.65v6.805c0 .36.291.65.65.65H7.08a.65.65 0 00.65-.65V8.597a.65.65 0 00-.65-.65H5.804zM18.456 7.947a.65.65 0 01.65.65v6.805a.65.65 0 11-1.3 0V8.598a.65.65 0 01.65-.65zM13.923 8.597a.65.65 0 01.65-.65h1.275a.65.65 0 01.65.65v6.805a.65.65 0 01-.65.65h-1.275a.65.65 0 01-.65-.65V8.597zM11.312 7.948a.65.65 0 01.65.65v6.804a.65.65 0 11-1.3 0V8.598a.65.65 0 01.65-.65z" fill="#626F84"/></svg>