<svg viewBox="0 0 28 28" fill="none" xmlns="http://www.w3.org/2000/svg"><rect y="4" width="28" height="20" rx="3" fill="#fff"/><mask id="a" style="mask-type:alpha" maskUnits="userSpaceOnUse" x="0" y="4" width="28" height="20"><rect y="4" width="28" height="20" rx="3" fill="#fff"/></mask><g mask="url(#a)" fill-rule="evenodd" clip-rule="evenodd"><path d="M0 17.333h28V4H0v13.333z" fill="#E54252"/><path d="M0 24h28v-6.667H0V24z" fill="#5CBE6B"/><path d="M0 4h4v3l-.667 1L4 9v2l-.667 1L4 13v2l-.667 1L4 17v2l-.667 1L4 21v3H0V4z" fill="#fff"/><path d="M-.667 6L-2 8l1.333 2L-2 12l1.333 2L-2 16l1.333 2L-2 20l1.333 2 1.334-2-1.334-2 1.334-2-1.334-2 1.334-2-1.334-2L.667 8-.667 6zM.667 6L2 4l1.333 2L2 8 .667 6zM2 12L.667 10 2 8l1.333 2L2 12zm0 4L.667 14 2 12l1.333 2L2 16zm0 4l1.333-2L2 16 .667 18 2 20zm0 0l1.333 2L2 24 .667 22 2 20z" fill="#E54252"/></g></svg>