<svg viewBox="0 0 24 24" fill="none" xmlns="http://www.w3.org/2000/svg"><path fill-rule="evenodd" clip-rule="evenodd" d="M9.222 19.387a3.028 3.028 0 01-.298-.261L4.9 15.103a3 3 0 010-4.243l5.228-5.228L8.6 4.104a.65.65 0 01.919-.919l3.072 3.072a.66.66 0 01.049.055l6.175 6.174a.698.698 0 010 .99l-5.65 5.65a3 3 0 01-3.944.261zM5.322 13h12.132l.018-.018-6.427-6.427-5.225 5.224c-.336.337-.502.78-.497 1.221z" fill="#626F84"/><path d="M20.573 18.5a1.5 1.5 0 01-3 0c0-1.196.954-2.073 1.34-2.38a.254.254 0 01.319 0c.386.307 1.34 1.184 1.34 2.38z" fill="#626F84"/></svg>