<svg viewBox="0 0 28 28" fill="none" xmlns="http://www.w3.org/2000/svg"><rect x=".25" y="4.25" width="27.5" height="19.5" rx="2.75" fill="#fff" stroke="#D6D8DD" stroke-width=".5"/><path fill-rule="evenodd" clip-rule="evenodd" d="M27.065 4.824L1.076 23.302C1.597 23.738 2.268 24 3 24h22a3 3 0 003-3V7c0-.857-.359-1.63-.935-2.176z" fill="#003087"/><path fill-rule="evenodd" clip-rule="evenodd" d="M11.459 4H3a3 3 0 00-3 3v5.147L11.459 4z" fill="gold"/><circle cx="7.651" cy="12.644" r="3.458" stroke="#000" stroke-width=".7"/><path fill-rule="evenodd" clip-rule="evenodd" d="M8.312 11.516l-.662-1.15-.66 1.15H5.691l.649 1.128-.649 1.128H6.99l.662 1.15.66-1.15H9.61l-.649-1.128.649-1.128H8.312z" fill="#D50032"/></svg>