<svg viewBox="0 0 24 24" fill="none" xmlns="http://www.w3.org/2000/svg"><path fill-rule="evenodd" clip-rule="evenodd" d="M17.363 4.6a2.496 2.496 0 01-.262 1.745A3 3 0 0120 9.344V17a3 3 0 01-3 3H7a3 3 0 01-3-3V9.344a3 3 0 012.899-2.999 2.495 2.495 0 01-.262-1.744l.018-.085a2.365 2.365 0 011.593-1.76A3.313 3.313 0 0112 4.052a3.313 3.313 0 013.752-1.296c.808.258 1.416.93 1.593 1.76l.018.085zm-6.02 1.737H9.097a1.214 1.214 0 01-1.187-1.466l.018-.084c.08-.374.353-.677.717-.793A2.011 2.011 0 0111.25 5.64l.094.696v.001zm1.313 0h2.248c.772 0 1.348-.71 1.187-1.466l-.018-.084a1.065 1.065 0 00-.717-.793A2.011 2.011 0 0012.75 5.64l-.094.696v.001zM15.5 7.644H17a1.7 1.7 0 011.7 1.7v2.639h-3.2v-4.34zm0 5.639v3.015a.7.7 0 01-1.108.569L12 15.149l-2.392 1.718a.7.7 0 01-1.108-.569v-3.015H5.3V17A1.7 1.7 0 007 18.7h10a1.7 1.7 0 001.7-1.7v-3.717h-3.2zm-7-1.3H5.3v-2.64a1.7 1.7 0 011.7-1.7h1.5v4.34zm5.7 3.146V7.644H9.8v7.485l1.441-1.036a1.3 1.3 0 011.518 0l1.441 1.036z" fill="#626F84"/></svg>