<svg viewBox="0 0 24 24" fill="none" xmlns="http://www.w3.org/2000/svg"><path fill-rule="evenodd" clip-rule="evenodd" d="M12 4.052a3.313 3.313 0 013.752-1.296c.808.258 1.416.93 1.593 1.76l.018.085a2.496 2.496 0 01-.262 1.744A3 3 0 0120 9.344v1.939a.7.7 0 01-.7.7h-2.885a.65.65 0 100 1.3H19.3a.7.7 0 01.7.7V17a3 3 0 01-3 3H7a3 3 0 01-3-3v-3.017a.7.7 0 01.7-.7h2.883a.65.65 0 000-1.3H4.7a.7.7 0 01-.7-.7v-1.94a3 3 0 012.899-2.998 2.495 2.495 0 01-.262-1.744l.018-.085a2.365 2.365 0 011.593-1.76A3.313 3.313 0 0112 4.052zm-1.906 3.585a.7.7 0 00-.54.682v6.938a.7.7 0 001.15.535l1.289-.954 1.357.954a.7.7 0 001.152-.535V8.319a.7.7 0 00-.541-.682h-3.867zm2.562-1.3h2.248c.772 0 1.348-.71 1.187-1.466l-.018-.084a1.065 1.065 0 00-.717-.793A2.011 2.011 0 0012.75 5.64l-.094.696v.001zm-1.312 0l-.094-.697a2.011 2.011 0 00-2.606-1.646 1.065 1.065 0 00-.717.793l-.018.084a1.214 1.214 0 001.187 1.466h2.248z" fill="#626F84"/></svg>