<svg viewBox="0 0 24 24" fill="none" xmlns="http://www.w3.org/2000/svg"><path fill-rule="evenodd" clip-rule="evenodd" d="M17.101 6.345c.284-.508.395-1.119.262-1.744l-.018-.085a2.365 2.365 0 00-1.593-1.76A3.313 3.313 0 0012 4.052a3.313 3.313 0 00-3.752-1.296 2.365 2.365 0 00-1.593 1.76l-.018.085A2.495 2.495 0 006.9 6.345 3 3 0 004 9.344V17a3 3 0 003 3h10a3 3 0 003-3V9.344a3 3 0 00-2.899-2.999zm-8.005-.008h2.248l-.094-.697a2.011 2.011 0 00-2.606-1.646 1.065 1.065 0 00-.717.793l-.018.084a1.214 1.214 0 001.187 1.466zm5.808 0h-2.248l.094-.697a2.011 2.011 0 012.606-1.646c.364.116.638.419.717.793l.018.084a1.214 1.214 0 01-1.187 1.466zM17 7.644a1.7 1.7 0 011.7 1.7v2.639H5.3v-2.64a1.7 1.7 0 011.7-1.7h10zM5.3 13.283V17A1.7 1.7 0 007 18.7h10a1.7 1.7 0 001.7-1.7v-3.717H5.3z" fill="#626F84"/></svg>