<svg viewBox="0 0 24 24" fill="none" xmlns="http://www.w3.org/2000/svg"><path fill-rule="evenodd" clip-rule="evenodd" d="M6.899 6.345a2.495 2.495 0 01-.262-1.744l.018-.085a2.365 2.365 0 011.593-1.76A3.313 3.313 0 0112 4.053a3.313 3.313 0 013.752-1.297c.808.258 1.416.93 1.593 1.76l.018.085a2.495 2.495 0 01-.261 1.744A3 3 0 0120 9.344v1.939a.7.7 0 01-.7.7H4.7a.7.7 0 01-.7-.7v-1.94a3 3 0 012.899-2.998zm5.851-.705l-.094.697h2.248c.772 0 1.348-.71 1.187-1.466l-.018-.084a1.065 1.065 0 00-.717-.793A2.011 2.011 0 0012.75 5.64zm-1.5 0l.094.697H9.096a1.214 1.214 0 01-1.187-1.466l.018-.084c.08-.374.353-.677.717-.793A2.011 2.011 0 0111.25 5.64z" fill="#626F84"/><path d="M19.3 13.283a.7.7 0 01.7.7V17a3 3 0 01-3 3H7a3 3 0 01-3-3v-3.017a.7.7 0 01.7-.7h14.6z" fill="#626F84"/></svg>