<svg viewBox="0 0 24 24" fill="none" xmlns="http://www.w3.org/2000/svg"><path d="M8.191 7.644a.65.65 0 01.65-.65h6.318a.65.65 0 110 1.3H8.84a.65.65 0 01-.65-.65zM8.841 9.587a.65.65 0 100 1.3h6.318a.65.65 0 100-1.3H8.84z" fill="#626F84"/><path fill-rule="evenodd" clip-rule="evenodd" d="M8 4a3 3 0 00-3 3v8.447l.002.002H5V17a3 3 0 003 3h8a3 3 0 003-3V7a3 3 0 00-3-3H8zM6.3 7A1.7 1.7 0 018 5.3h8A1.7 1.7 0 0117.7 7v5.45a1.7 1.7 0 01-1.7 1.7H7.856c-.574 0-1.109.17-1.556.461V7zm11.4 7.922a2.986 2.986 0 01-1.7.527H7.856A1.55 1.55 0 006.306 17a.656.656 0 01-.005.07A1.7 1.7 0 008 18.7h8a1.7 1.7 0 001.7-1.7v-2.078z" fill="#626F84"/></svg>