<svg viewBox="0 0 24 24" fill="none" xmlns="http://www.w3.org/2000/svg"><path fill-rule="evenodd" clip-rule="evenodd" d="M6.996 20.003a2.998 2.998 0 01-2.996-3V7c0-1.657 1.342-3 2.996-3h10.008A2.998 2.998 0 0120 7v10a3 3 0 01-3.016 3.003H6.996zm.55-4.25a.7.7 0 00.7.7h3.12a.653.653 0 01-.025-.182v-1.195a.65.65 0 111.299 0v1.195a.649.649 0 01-.026.181h3.14a.7.7 0 00.7-.7V12.62a.65.65 0 01-.197.03h-1.194a.65.65 0 010-1.3h1.194c.068 0 .134.01.196.03V8.25a.7.7 0 00-.699-.7h-3.139a.648.648 0 01.025.179v1.195a.65.65 0 11-1.299 0V7.729c0-.062.009-.122.025-.178h-3.12a.7.7 0 00-.7.7v3.124a.65.65 0 01.178-.025h1.194a.65.65 0 010 1.3H7.724a.65.65 0 01-.177-.024v3.126z" fill="#626F84"/></svg>