<svg viewBox="0 0 24 24" fill="none" xmlns="http://www.w3.org/2000/svg"><path d="M7.652 5.3a2.36 2.36 0 00-.554.065.65.65 0 01-.305-1.263A3.66 3.66 0 017.652 4h.657a.65.65 0 110 1.3h-.657zM15.04 4.65a.65.65 0 01.651-.65h.657c.295 0 .583.035.86.102a.65.65 0 11-.306 1.263 2.36 2.36 0 00-.554-.065h-.657a.65.65 0 01-.65-.65zM4.886 6.312a.65.65 0 01.48.784 2.357 2.357 0 00-.065.554v.657a.65.65 0 01-1.301 0V7.65c0-.295.035-.582.102-.858a.65.65 0 01.784-.48zM19.114 6.312c.349-.084.7.13.784.48.067.276.102.563.102.858v.657a.65.65 0 01-1.3 0V7.65c0-.191-.023-.377-.066-.554a.65.65 0 01.48-.784zM19.35 15.038c.359 0 .65.291.65.65v.657c0 .295-.035.583-.102.859a.65.65 0 01-1.264-.305c.043-.177.065-.362.065-.554v-.657a.65.65 0 01.65-.65zM4.65 15.038c.36 0 .65.291.65.65v.657c0 .192.023.377.066.554a.65.65 0 01-1.264.305A3.656 3.656 0 014 16.345v-.657a.65.65 0 01.65-.65zM6.313 19.11a.65.65 0 01.785-.48c.177.043.362.065.554.065h.657a.65.65 0 110 1.3h-.657c-.295 0-.583-.035-.86-.101a.65.65 0 01-.479-.785zM17.687 19.11a.65.65 0 01-.48.784 3.663 3.663 0 01-.859.101h-.657a.65.65 0 110-1.3h.657c.192 0 .377-.022.554-.065.35-.084.7.13.785.48zM12.012 19.99a.65.65 0 00.65-.65v-6.696h6.684a.65.65 0 100-1.3h-6.684V4.652a.65.65 0 00-1.3 0v6.692H4.653a.65.65 0 100 1.3h6.709v6.696c0 .359.291.65.65.65z" fill="#626F84"/></svg>