<svg viewBox="0 0 24 24" fill="none" xmlns="http://www.w3.org/2000/svg"><path d="M4.01 7.55H4V7a3 3 0 013-3h10a3 3 0 013 3v.544l.002.112v.657a.65.65 0 11-1.3 0v-.657l-.003-.105h-6.075a.649.649 0 01.026.182v1.195a.65.65 0 11-1.3 0V7.733c0-.064.01-.125.026-.182H5.31a2.41 2.41 0 00-.002.105v.657a.65.65 0 11-1.3 0v-.657l.001-.105zM20.002 11.347a.65.65 0 10-1.3 0v1.314a.65.65 0 101.3 0v-1.314zM5.309 11.347a.65.65 0 10-1.3 0v1.314a.65.65 0 101.3 0v-1.314zM20.002 15.694a.65.65 0 10-1.3 0v.658c0 .191-.023.376-.066.553a.65.65 0 101.264.305c.067-.276.102-.564.102-.858v-.658zM5.309 15.694a.65.65 0 10-1.3 0v.658c0 .294.035.582.101.858a.65.65 0 101.264-.305 2.357 2.357 0 01-.065-.553v-.658zM7.105 18.636A.65.65 0 006.8 19.9c.276.067.564.102.859.102h.657a.65.65 0 000-1.3h-.657c-.192 0-.377-.023-.554-.066zM17.21 19.9a.65.65 0 00-.305-1.264 2.355 2.355 0 01-.553.066h-.657a.65.65 0 100 1.3h.657c.295 0 .582-.035.858-.102zM11.348 18.702a.65.65 0 100 1.3h1.314a.65.65 0 000-1.3h-1.314zM15.076 11.354a.65.65 0 100 1.3h1.195a.65.65 0 100-1.3h-1.195zM12 16.923a.65.65 0 01-.65-.65v-1.195a.65.65 0 111.3 0v1.195a.65.65 0 01-.65.65zM7.729 11.354a.65.65 0 100 1.3h1.195a.65.65 0 100-1.3H7.729z" fill="#626F84"/></svg>