<svg viewBox="0 0 24 24" fill="none" xmlns="http://www.w3.org/2000/svg"><path d="M5.3 7.658A2.35 2.35 0 017.65 5.31h.356a.654.654 0 00.11-.009h.192a.65.65 0 000-1.3H7.65c-.295 0-.582.035-.858.102a.654.654 0 00-.113.038A3.657 3.657 0 004 7.65v8.695a3.65 3.65 0 003.65 3.65H8.308a.65.65 0 100-1.3H7.65a2.35 2.35 0 01-2.35-2.35V7.658zM11.342 4a.65.65 0 100 1.3h1.315a.65.65 0 100-1.3h-1.315zM15.692 4a.65.65 0 100 1.3h.657c.192 0 .377.023.554.065a.65.65 0 10.305-1.263A3.657 3.657 0 0016.349 4h-.657zM19.898 6.792a.65.65 0 00-1.264.304c.043.177.065.363.065.554v.657a.65.65 0 101.3 0V7.65a3.66 3.66 0 00-.101-.858zM20 11.34a.65.65 0 10-1.3 0v1.315a.65.65 0 001.3 0V11.34zM20 15.688a.65.65 0 10-1.3 0v.657c0 .192-.023.377-.066.554a.65.65 0 001.264.305 3.66 3.66 0 00.101-.859v-.657zM17.208 19.894a.65.65 0 00-.305-1.264 2.356 2.356 0 01-.554.065h-.657a.65.65 0 100 1.3h.657c.295 0 .583-.035.859-.101zM11.342 18.695a.65.65 0 100 1.3h1.315a.65.65 0 100-1.3h-1.315zM11.994 9.571a.65.65 0 01-.65-.65V7.726a.65.65 0 011.3 0v1.195a.65.65 0 01-.65.65zM15.072 11.348a.65.65 0 000 1.3h1.196a.65.65 0 100-1.3h-1.196zM11.994 16.917a.65.65 0 01-.65-.65v-1.195a.65.65 0 011.3 0v1.195a.65.65 0 01-.65.65z" fill="#626F84"/><path d="M7.72 11.348a.65.65 0 100 1.3h1.197a.65.65 0 100-1.3H7.721z" fill="#626F84"/></svg>