<svg viewBox="0 0 24 24" fill="none" xmlns="http://www.w3.org/2000/svg"><path d="M4 16.996a3 3 0 003 3h10a3 3 0 003-3v-.539l.002-.112v-.657a.65.65 0 10-1.3 0v.657l-.002.1h-6.075a.654.654 0 00.025-.178v-1.195a.65.65 0 10-1.3 0v1.195c0 .062.009.122.025.179H5.31a2.405 2.405 0 01-.002-.1v-.658a.65.65 0 10-1.3 0v.657l.001.1H4v.551zM7.105 5.365c.177-.042.362-.065.554-.065h.657a.65.65 0 000-1.3h-.657c-.295 0-.583.035-.859.102a.65.65 0 10.305 1.263zM11.348 4a.65.65 0 100 1.3h1.314a.65.65 0 100-1.3h-1.314zM15.695 4a.65.65 0 100 1.3h.657c.191 0 .376.023.553.065a.65.65 0 10.305-1.263A3.658 3.658 0 0016.352 4h-.657zM5.374 7.096a.65.65 0 00-1.264-.304 3.657 3.657 0 00-.101.858v.657a.65.65 0 001.3 0V7.65c0-.191.022-.377.065-.554zM19.9 6.792a.65.65 0 10-1.264.304c.043.177.066.363.066.554v.657a.65.65 0 101.3 0V7.65c0-.295-.035-.582-.102-.858zM20.002 11.34a.65.65 0 10-1.3 0v1.315a.65.65 0 001.3 0V11.34zM5.309 11.34a.65.65 0 10-1.3 0v1.315a.65.65 0 001.3 0V11.34zM12 9.571a.65.65 0 01-.65-.65V7.726a.65.65 0 111.3 0v1.195a.65.65 0 01-.65.65zM15.076 11.348a.65.65 0 100 1.3h1.195a.65.65 0 000-1.3h-1.195zM7.729 11.348a.65.65 0 100 1.3h1.195a.65.65 0 000-1.3H7.729z" fill="#626F84"/></svg>