<svg viewBox="0 0 24 24" fill="none" xmlns="http://www.w3.org/2000/svg"><path d="M6.743 4.115A3.657 3.657 0 017.65 4H16.349c.295 0 .583.035.859.102h.005a3.656 3.656 0 012.68 2.673l.005.017c.066.276.101.563.101.858v.657a.65.65 0 11-1.3 0v-.282-.375a2.35 2.35 0 00-2.35-2.35H7.657a2.35 2.35 0 00-2.35 2.35v.354a.655.655 0 01-.007.094v.21a.65.65 0 11-1.3 0V7.65c0-.295.035-.582.102-.858a.654.654 0 01.03-.096 3.657 3.657 0 012.61-2.58zM20 11.34a.65.65 0 10-1.3 0v1.315a.65.65 0 001.3 0V11.34zM5.3 11.34a.65.65 0 10-1.3 0v1.315a.65.65 0 001.3 0V11.34zM20 15.688a.65.65 0 10-1.3 0v.657c0 .192-.023.377-.066.554a.65.65 0 001.264.305 3.66 3.66 0 00.101-.859v-.657zM5.3 15.688a.65.65 0 10-1.3 0v.657c0 .295.035.583.102.859a.65.65 0 001.263-.305 2.359 2.359 0 01-.065-.554v-.657zM7.096 18.63a.65.65 0 10-.304 1.264c.276.066.563.101.858.101h.658a.65.65 0 100-1.3H7.65c-.191 0-.377-.022-.554-.065zM17.208 19.894a.65.65 0 00-.305-1.264 2.356 2.356 0 01-.554.065h-.657a.65.65 0 100 1.3h.657c.295 0 .583-.035.859-.101zM11.342 18.695a.65.65 0 100 1.3h1.315a.65.65 0 100-1.3h-1.315z" fill="#626F84"/><path d="M11.994 9.571a.65.65 0 01-.65-.65V7.726a.65.65 0 011.3 0v1.195a.65.65 0 01-.65.65zM15.072 11.348a.65.65 0 000 1.3h1.196a.65.65 0 100-1.3h-1.196zM11.994 16.917a.65.65 0 01-.65-.65v-1.195a.65.65 0 011.3 0v1.195a.65.65 0 01-.65.65zM7.72 11.348a.65.65 0 100 1.3h1.197a.65.65 0 100-1.3H7.721z" fill="#626F84"/></svg>