<svg viewBox="0 0 24 24" fill="none" xmlns="http://www.w3.org/2000/svg"><path d="M4.003 6.652a.65.65 0 01.65-.65h14.7a.65.65 0 110 1.3h-14.7a.65.65 0 01-.65-.65zM4.003 17.35a.65.65 0 01.65-.65H5.85a.65.65 0 110 1.3H4.653a.65.65 0 01-.65-.65zM12.993 17.35a.65.65 0 01.65-.65h1.196a.65.65 0 110 1.3h-1.196a.65.65 0 01-.65-.65zM8.499 17.35a.65.65 0 01.65-.65h1.195a.65.65 0 110 1.3H9.149a.65.65 0 01-.65-.65zM17.489 17.35a.65.65 0 01.65-.65h1.195a.65.65 0 110 1.3h-1.195a.65.65 0 01-.65-.65zM4.003 12a.65.65 0 01.65-.65h5.69a.65.65 0 010 1.3h-5.69a.65.65 0 01-.65-.65zM13.008 12a.65.65 0 01.65-.65h5.695a.65.65 0 110 1.3h-5.696a.65.65 0 01-.65-.65z" fill="#626F84"/></svg>