<svg viewBox="0 0 24 24" fill="none" xmlns="http://www.w3.org/2000/svg"><path d="M11.999 4.063a.65.65 0 00-.65.648v14.641a.65.65 0 001.3 0V4.712a.65.65 0 00-.65-.649zM7.721 11.379a.65.65 0 100 1.296h1.196a.65.65 0 100-1.296H7.721zM15.072 11.379a.65.65 0 100 1.296h1.196a.65.65 0 100-1.296h-1.196zM7.652 5.296c-.192 0-.377.023-.554.065a.648.648 0 11-.305-1.26c.276-.066.564-.101.859-.101h.657a.65.65 0 110 1.296h-.657zM15.04 4.648A.65.65 0 0115.692 4h.657c.295 0 .583.035.86.101a.648.648 0 11-.306 1.26 2.367 2.367 0 00-.554-.065h-.657a.65.65 0 01-.65-.648zM4.886 6.305c.35.084.564.434.48.782a2.343 2.343 0 00-.065.552v.655a.65.65 0 01-1.301 0v-.655c0-.294.035-.581.102-.856a.65.65 0 01.784-.478zM19.114 6.305c.349-.084.7.13.784.478.067.275.102.562.102.856v.655a.65.65 0 01-1.3 0v-.655c0-.191-.023-.376-.066-.552a.648.648 0 01.48-.782zM19.35 10.67c.359 0 .65.29.65.648v1.31a.65.65 0 01-1.3 0v-1.31a.65.65 0 01.65-.648zM4.65 10.67c.36 0 .65.29.65.648v1.31a.65.65 0 01-1.3 0v-1.31a.65.65 0 01.65-.648zM19.35 15.004c.359 0 .65.29.65.648v.655c0 .294-.035.58-.102.856a.65.65 0 01-1.264-.304c.043-.177.065-.361.065-.552v-.655a.65.65 0 01.65-.648zM4.65 15.004c.36 0 .65.29.65.648v.655c0 .19.023.375.066.552a.65.65 0 01-1.264.304A3.635 3.635 0 014 16.307v-.655a.65.65 0 01.65-.648zM6.313 19.062a.65.65 0 01.785-.478c.177.043.362.066.554.066h.657a.65.65 0 110 1.296h-.657c-.295 0-.583-.036-.86-.102a.648.648 0 01-.479-.782zM17.687 19.062a.648.648 0 01-.48.782 3.674 3.674 0 01-.859.101h-.657a.65.65 0 110-1.295h.657c.192 0 .377-.023.554-.066.35-.084.7.13.785.478z" fill="#626F84"/></svg>