<svg viewBox="0 0 24 24" fill="none" xmlns="http://www.w3.org/2000/svg"><path d="M11.995 9.571a.65.65 0 01-.65-.65V7.726a.65.65 0 011.3 0v1.195a.65.65 0 01-.65.65zM15.072 11.348a.65.65 0 100 1.3h1.196a.65.65 0 100-1.3h-1.196zM11.995 16.919a.65.65 0 01-.65-.65v-1.195a.65.65 0 011.3 0v1.195a.65.65 0 01-.65.65zM7.722 11.348a.65.65 0 100 1.3h1.195a.65.65 0 100-1.3H7.722z" fill="#626F84"/><path fill-rule="evenodd" clip-rule="evenodd" d="M4 7.65A3.65 3.65 0 017.652 4h8.696A3.65 3.65 0 0120 7.65v8.695a3.65 3.65 0 01-3.652 3.65H7.652A3.65 3.65 0 014 16.345V7.65zM7.652 5.3A2.35 2.35 0 005.3 7.65v8.695a2.35 2.35 0 002.35 2.35h8.697a2.35 2.35 0 002.351-2.35V7.65a2.35 2.35 0 00-2.35-2.35H7.651z" fill="#626F84"/></svg>