<svg viewBox="0 0 24 24" fill="none" xmlns="http://www.w3.org/2000/svg"><path d="M7.094 5.372c.177-.043.362-.066.554-.066h.656a.65.65 0 000-1.3h-.656c-.295 0-.582.035-.858.102a.65.65 0 00.304 1.264zM11.335 4.006a.65.65 0 000 1.3h1.313a.65.65 0 000-1.3h-1.313zM15.678 4.006a.65.65 0 000 1.3h.657c.04 0 .078.001.116.003v6.075a.646.646 0 00-.196-.03H15.06a.65.65 0 000 1.3h1.195c.068 0 .135-.01.197-.03v6.075a2.368 2.368 0 01-.117.003h-.657a.65.65 0 000 1.3h.657l.116-.002h.55A2.999 2.999 0 0020 17V7a3 3 0 00-2.998-3h-.55v.008a3.696 3.696 0 00-.117-.002h-.657zM5.365 7.103a.65.65 0 00-1.263-.305A3.66 3.66 0 004 7.656v.657a.65.65 0 101.3 0v-.657c0-.191.022-.376.065-.553zM5.3 11.347a.65.65 0 10-1.3 0v1.314a.65.65 0 101.3 0v-1.314zM5.3 15.694a.65.65 0 10-1.3 0v.658c0 .294.035.582.102.858a.65.65 0 101.263-.305 2.359 2.359 0 01-.066-.553v-.658zM7.094 18.636A.65.65 0 006.79 19.9c.276.067.563.102.858.102h.656a.65.65 0 000-1.3h-.656c-.192 0-.377-.023-.554-.066zM11.335 18.702a.65.65 0 000 1.3h1.313a.65.65 0 000-1.3h-1.313zM11.986 9.578a.65.65 0 01-.65-.65V7.733a.65.65 0 111.3 0v1.195a.65.65 0 01-.65.65zM11.986 16.923a.65.65 0 01-.65-.65v-1.195a.65.65 0 111.3 0v1.195a.65.65 0 01-.65.65zM7.718 11.354a.65.65 0 000 1.3h1.194a.65.65 0 000-1.3H7.718z" fill="#626F84"/></svg>