<svg viewBox="0 0 24 24" fill="none" xmlns="http://www.w3.org/2000/svg"><path d="M16.625 18.68c-.09.01-.182.015-.276.015h-.657a.65.65 0 100 1.3h.657a3.651 3.651 0 003.545-2.777l.004-.014a3.66 3.66 0 00.101-.859v-3.67-1.334-3.013-.678a3.66 3.66 0 00-.101-.858 3.657 3.657 0 00-2.576-2.651.65.65 0 00-.114-.04A3.657 3.657 0 0016.349 4h-.657a.65.65 0 100 1.3h.19c.037.006.074.01.111.01h.356a2.35 2.35 0 012.35 2.35v8.685a2.35 2.35 0 01-2.074 2.334zM7.096 5.365c.177-.042.363-.065.554-.065h.658a.65.65 0 000-1.3H7.65c-.295 0-.582.035-.858.102a.65.65 0 10.304 1.263zM11.342 4a.65.65 0 100 1.3h1.315a.65.65 0 100-1.3h-1.315zM5.365 7.096a.65.65 0 10-1.263-.304A3.657 3.657 0 004 7.65v.657a.65.65 0 101.3 0V7.65c0-.191.023-.377.065-.554zM5.3 11.34a.65.65 0 10-1.3 0v1.315a.65.65 0 001.3 0V11.34zM5.3 15.688a.65.65 0 10-1.3 0v.657c0 .295.035.583.102.859a.65.65 0 001.263-.305 2.359 2.359 0 01-.065-.554v-.657zM7.096 18.63a.65.65 0 10-.304 1.264c.276.066.563.101.858.101h.658a.65.65 0 100-1.3H7.65c-.191 0-.377-.022-.554-.065zM11.342 18.695a.65.65 0 100 1.3h1.315a.65.65 0 100-1.3h-1.315zM11.994 9.571a.65.65 0 01-.65-.65V7.726a.65.65 0 011.3 0v1.195a.65.65 0 01-.65.65z" fill="#626F84"/><path d="M15.072 11.348a.65.65 0 000 1.3h1.196a.65.65 0 100-1.3h-1.196zM11.994 16.917a.65.65 0 01-.65-.65v-1.195a.65.65 0 011.3 0v1.195a.65.65 0 01-.65.65zM7.72 11.348a.65.65 0 100 1.3h1.197a.65.65 0 100-1.3H7.721z" fill="#626F84"/></svg>