<svg viewBox="0 0 28 28" fill="none" xmlns="http://www.w3.org/2000/svg"><rect y="4" width="28" height="20" rx="3" fill="#fff"/><mask id="a" style="mask-type:alpha" maskUnits="userSpaceOnUse" x="0" y="4" width="28" height="20"><rect y="4" width="28" height="20" rx="3" fill="#fff"/></mask><g mask="url(#a)"><path fill="#0B36B2" d="M0 4h28v20H0z"/><g filter="url(#filter0_d_17_6044)"><path fill-rule="evenodd" clip-rule="evenodd" d="M22.667 24V4h-14l14 20z" fill="#FFD045"/></g><path fill-rule="evenodd" clip-rule="evenodd" d="M17.333 22.667l-.942.276.276-.943-.277-.943.943.276.943-.276L18 22l.276.943-.943-.276zM14.667 18.667l-.943.276L14 18l-.276-.943.943.276.943-.276-.277.943.277.943-.943-.276zM12 14.667l-.943.276.276-.943-.276-.943.943.276.943-.276-.276.943.276.943-.943-.276zM9.333 10.667l-.942.276.276-.943-.276-.943.942.276.943-.276L10 10l.276.943-.943-.276zM6.667 6.667l-.943.276L6 6l-.276-.943.943.276.942-.276L7.333 6l.276.943-.942-.276z" fill="#fff"/></g><defs><filter id="filter0_d_17_6044" x="8.667" y="4" width="14" height="20" filterUnits="userSpaceOnUse" color-interpolation-filters="sRGB"><feFlood flood-opacity="0" result="BackgroundImageFix"/><feColorMatrix in="SourceAlpha" values="0 0 0 0 0 0 0 0 0 0 0 0 0 0 0 0 0 0 127 0" result="hardAlpha"/><feOffset/><feColorMatrix values="0 0 0 0 0 0 0 0 0 0 0 0 0 0 0 0 0 0 0.06 0"/><feBlend in2="BackgroundImageFix" result="effect1_dropShadow_17_6044"/><feBlend in="SourceGraphic" in2="effect1_dropShadow_17_6044" result="shape"/></filter></defs></svg>