<svg viewBox="0 0 24 24" fill="none" xmlns="http://www.w3.org/2000/svg"><path fill-rule="evenodd" clip-rule="evenodd" d="M6.646 8.93a3.001 3.001 0 10-1.292 0A.656.656 0 005.35 9v6.07a3.001 3.001 0 103.575 3.601H15a3.65 3.65 0 003.65-3.65v-.092a3.001 3.001 0 10-1.3 0v.092a2.35 2.35 0 01-2.35 2.35H8.934a3.004 3.004 0 00-2.284-2.3V9a.657.657 0 00-.004-.07zM7.7 6a1.7 1.7 0 11-3.4 0 1.7 1.7 0 013.4 0zM18 13.7a1.7 1.7 0 100-3.4 1.7 1.7 0 000 3.4zM7.7 18a1.7 1.7 0 11-3.4 0 1.7 1.7 0 013.4 0z" fill="#626F84"/></svg>