<svg viewBox="0 0 28 28" fill="none" xmlns="http://www.w3.org/2000/svg"><path d="M.25 21A2.75 2.75 0 003 23.75h22A2.75 2.75 0 0027.75 21V7A2.75 2.75 0 0025 4.25H3A2.75 2.75 0 00.25 7v14z" fill="#fff" stroke="#D6D8DD" stroke-width=".5"/><mask id="a" style="mask-type:alpha" maskUnits="userSpaceOnUse" x="0" y="4" width="28" height="20"><path d="M0 21a3 3 0 003 3h22a3 3 0 003-3V7a3 3 0 00-3-3H3a3 3 0 00-3 3v14z" fill="#fff"/></mask><g mask="url(#a)"><path fill-rule="evenodd" clip-rule="evenodd" d="M34.285 18.908c-.383.23-.714.77-1.734.77-2.042 0-2.55-1.136-4.081-1.136-1.02 0-1.531 1.137-2.552 1.137-2.04 0-2.55-1.137-4.082-1.137-1.02 0-1.53 1.137-2.55 1.137-2.04 0-2.551-1.137-4.082-1.137-1.02 0-1.53 1.137-2.551 1.137-2.041 0-2.55-1.137-4.082-1.137-1.02 0-1.53 1.137-2.55 1.137-2.041 0-2.551-1.137-4.082-1.137-1.02 0-1.326.81-1.939.81v1.464c.613 0 .918-.81 1.939-.81 1.53 0 2.04 1.136 4.082 1.136 1.02 0 1.53-1.137 2.55-1.137 1.532 0 2.04 1.137 4.082 1.137 1.02 0 1.532-1.137 2.551-1.137 1.531 0 2.041 1.137 4.081 1.137 1.02 0 1.53-1.137 2.551-1.137 1.531 0 2.041 1.137 4.082 1.137 1.02 0 1.531-1.137 2.552-1.137 1.53 0 2.04 1.137 4.08 1.137 1.021 0 1.352-.322 1.735-.552v-1.682zM34.285 21.628c-.383.231-.714.772-1.734.772-2.042 0-2.55-1.138-4.081-1.138-1.02 0-1.531 1.138-2.552 1.138-2.04 0-2.55-1.138-4.082-1.138-1.02 0-1.53 1.138-2.55 1.138-2.04 0-2.551-1.138-4.082-1.138-1.02 0-1.53 1.138-2.551 1.138-2.041 0-2.55-1.138-4.082-1.138-1.02 0-1.53 1.138-2.55 1.138-2.041 0-2.551-1.138-4.082-1.138-1.02 0-1.326.811-1.939.811v1.463c.613 0 .918-.81 1.939-.81 1.53 0 2.04 1.137 4.082 1.137 1.02 0 1.53-1.136 2.55-1.136 1.532 0 2.04 1.136 4.082 1.136 1.02 0 1.532-1.136 2.551-1.136 1.531 0 2.041 1.136 4.081 1.136 1.02 0 1.53-1.136 2.551-1.136 1.531 0 2.041 1.136 4.082 1.136 1.02 0 1.531-1.136 2.552-1.136 1.53 0 2.04 1.136 4.08 1.136 1.021 0 1.352-.322 1.735-.553v-1.682zM34.285 16.064c-.383.232-.714.771-1.734.771-2.042 0-2.55-1.137-4.081-1.137-1.02 0-1.531 1.137-2.552 1.137-2.04 0-2.55-1.137-4.082-1.137-1.02 0-1.53 1.137-2.55 1.137-2.04 0-2.551-1.137-4.082-1.137-1.02 0-1.53 1.137-2.551 1.137-2.041 0-2.55-1.137-4.082-1.137-1.02 0-1.53 1.137-2.55 1.137-2.041 0-2.551-1.137-4.082-1.137-1.02 0-1.326.81-1.939.81v1.464c.613 0 .918-.81 1.939-.81 1.53 0 2.04 1.138 4.082 1.138 1.02 0 1.53-1.137 2.55-1.137 1.532 0 2.04 1.137 4.082 1.137 1.02 0 1.532-1.137 2.551-1.137 1.531 0 2.041 1.137 4.081 1.137 1.02 0 1.53-1.137 2.551-1.137 1.531 0 2.041 1.137 4.082 1.137 1.02 0 1.531-1.137 2.552-1.137 1.53 0 2.04 1.137 4.08 1.137 1.021 0 1.352-.323 1.735-.554v-1.682zM34.285 13.221c-.383.231-.714.772-1.734.772-2.042 0-2.55-1.138-4.081-1.138-1.02 0-1.531 1.138-2.552 1.138-2.04 0-2.55-1.138-4.082-1.138-1.02 0-1.53 1.138-2.55 1.138-2.04 0-2.551-1.138-4.082-1.138-1.02 0-1.53 1.138-2.551 1.138-2.041 0-2.55-1.138-4.082-1.138-1.02 0-1.53 1.138-2.55 1.138-2.041 0-2.551-1.138-4.082-1.138-1.02 0-1.326.81-1.939.81v1.465c.613 0 .918-.81 1.939-.81 1.53 0 2.04 1.137 4.082 1.137 1.02 0 1.53-1.138 2.55-1.138 1.532 0 2.04 1.138 4.082 1.138 1.02 0 1.532-1.138 2.551-1.138 1.531 0 2.041 1.138 4.081 1.138 1.02 0 1.53-1.138 2.551-1.138 1.531 0 2.041 1.138 4.082 1.138 1.02 0 1.531-1.138 2.552-1.138 1.53 0 2.04 1.138 4.08 1.138 1.021 0 1.352-.322 1.735-.554V13.22zM34.285 7.536c-.383.23-.714.77-1.734.77-2.042 0-2.55-1.136-4.081-1.136-1.02 0-1.531 1.137-2.552 1.137-2.04 0-2.55-1.137-4.082-1.137-1.02 0-1.53 1.137-2.55 1.137-2.04 0-2.551-1.137-4.082-1.137-1.02 0-1.53 1.137-2.551 1.137-2.041 0-2.55-1.137-4.082-1.137-1.02 0-1.53 1.137-2.55 1.137-2.041 0-2.551-1.137-4.082-1.137-1.02 0-1.326.81-1.939.81v1.464c.613 0 .918-.81 1.939-.81 1.53 0 2.04 1.137 4.082 1.137 1.02 0 1.53-1.138 2.55-1.138 1.532 0 2.04 1.138 4.082 1.138 1.02 0 1.532-1.138 2.551-1.138 1.531 0 2.041 1.138 4.081 1.138 1.02 0 1.53-1.138 2.551-1.138 1.531 0 2.041 1.138 4.082 1.138 1.02 0 1.531-1.138 2.552-1.138 1.53 0 2.04 1.138 4.08 1.138 1.021 0 1.352-.323 1.735-.553V7.536zM34.285 10.536c-.383.23-.714.77-1.734.77-2.042 0-2.55-1.136-4.081-1.136-1.02 0-1.531 1.136-2.552 1.136-2.04 0-2.55-1.136-4.082-1.136-1.02 0-1.53 1.136-2.55 1.136-2.04 0-2.551-1.136-4.082-1.136-1.02 0-1.53 1.136-2.551 1.136-2.041 0-2.55-1.136-4.082-1.136-1.02 0-1.53 1.136-2.55 1.136-2.041 0-2.551-1.136-4.082-1.136-1.02 0-1.326.81-1.939.81v1.464c.613 0 .918-.81 1.939-.81 1.53 0 2.04 1.137 4.082 1.137 1.02 0 1.53-1.138 2.55-1.138 1.532 0 2.04 1.138 4.082 1.138 1.02 0 1.532-1.138 2.551-1.138 1.531 0 2.041 1.138 4.081 1.138 1.02 0 1.53-1.138 2.551-1.138 1.531 0 2.041 1.138 4.082 1.138 1.02 0 1.531-1.138 2.552-1.138 1.53 0 2.04 1.138 4.08 1.138 1.021 0 1.352-.323 1.735-.553v-1.682zM34.285 4.693c-.383.231-.714.77-1.734.77-2.042 0-2.55-1.136-4.081-1.136-1.02 0-1.531 1.136-2.552 1.136-2.04 0-2.55-1.136-4.082-1.136-1.02 0-1.53 1.136-2.55 1.136-2.04 0-2.551-1.136-4.082-1.136-1.02 0-1.53 1.136-2.551 1.136-2.041 0-2.55-1.136-4.082-1.136-1.02 0-1.53 1.136-2.55 1.136-2.041 0-2.551-1.136-4.082-1.136-1.02 0-1.326.81-1.939.81v1.464c.613 0 .918-.811 1.939-.811 1.53 0 2.04 1.137 4.082 1.137 1.02 0 1.53-1.137 2.55-1.137 1.532 0 2.04 1.137 4.082 1.137 1.02 0 1.532-1.137 2.551-1.137 1.531 0 2.041 1.137 4.081 1.137 1.02 0 1.53-1.137 2.551-1.137 1.531 0 2.041 1.137 4.082 1.137 1.02 0 1.531-1.137 2.552-1.137 1.53 0 2.04 1.137 4.08 1.137 1.021 0 1.352-.321 1.735-.552V4.693z" fill="#2A337A"/><path fill="#951D24" d="M22.557 10.773h1.045V21h-1.045z"/><path fill-rule="evenodd" clip-rule="evenodd" d="M22.52 10.773h1.037v.038L25.34 9h-4.566l1.746 1.773z" fill="#7AA351"/><path d="M25.553 18.66H20.53v-.887c-1.614-2.046.864-3.296 2.023-2.273v-.886h-.5v-1h.5v-.478h1.045v.478h.5v1h-.5v.886c2.182-1.273 3.091 1.182 1.955 2.273v.886z" fill="#FADA61"/><path d="M24.576 17.66h-3.069v-.365l-.431-.409c-.205-.681.386-.818.681-.681l.796.681h1.045l.75-.681c.432-.319.932.34.637.681l-.41.41v.363z" fill="#C72A31"/><path fill="#2A337A" d="M0 4h12.667v10H0z"/><path d="M0 3.667h-.901l.684.586 4.55 3.9v1.009l-4.527 3.233-.14.1v1.44l.51-.319 5.253-3.283h1.13l4.523 3.23a.554.554 0 00.682-.87L7.667 9.18V8.172l4.387-3.134a.667.667 0 00.28-.543V3.4l-.51.318L6.57 7h-1.13L.86 3.729l-.088-.062H0z" fill="#DB1E36" stroke="#fff" stroke-width=".667"/><path fill-rule="evenodd" clip-rule="evenodd" d="M0 7.333V10h4.667v3.333c0 .368.298.667.666.667h1.334a.667.667 0 00.666-.667V10H12a.667.667 0 00.667-.667V8A.667.667 0 0012 7.333H7.333V4H4.667v3.333H0z" fill="#fff"/><path fill-rule="evenodd" clip-rule="evenodd" d="M0 8h5.333V4h1.334v4H12v1.333H6.667v4H5.333v-4H0V8z" fill="#DB1E36"/></g></svg>