<svg viewBox="0 0 28 28" fill="none" xmlns="http://www.w3.org/2000/svg"><rect y="4" width="28" height="20" rx="3" fill="#fff"/><mask id="a" style="mask-type:alpha" maskUnits="userSpaceOnUse" x="0" y="4" width="28" height="20"><rect y="4" width="28" height="20" rx="3" fill="#fff"/></mask><g mask="url(#a)"><path fill="#07319C" d="M0 4h28v20H0z"/><path fill-rule="evenodd" clip-rule="evenodd" d="M17.333 14v-3.334c0-.737.597-1.333 1.334-1.333h4c.736 0 1.333.596 1.333 1.333V14c0 3.333-3.333 4.667-3.333 4.667S17.333 17.333 17.333 14z" fill="#008339"/><mask id="b" style="mask-type:alpha" maskUnits="userSpaceOnUse" x="17" y="9" width="7" height="10"><path fill-rule="evenodd" clip-rule="evenodd" d="M17.333 14v-3.334c0-.737.597-1.333 1.334-1.333h4c.736 0 1.333.596 1.333 1.333V14c0 3.333-3.333 4.667-3.333 4.667S17.333 17.333 17.333 14z" fill="#fff"/></mask><g mask="url(#b)" fill-rule="evenodd" clip-rule="evenodd"><path d="M19.333 12a.667.667 0 100-1.333.667.667 0 000 1.333zm0 1.333a.667.667 0 100-1.333.667.667 0 000 1.333zm0 1.334a.667.667 0 110-1.334.667.667 0 010 1.334zm0 0a.667.667 0 110 1.333.667.667 0 010-1.333zm3.334.666a.667.667 0 11-1.334 0 .667.667 0 011.334 0zm-.667-2a.667.667 0 110 1.334.667.667 0 010-1.334zM22 12a.667.667 0 100 1.333A.667.667 0 0022 12zm0 0a.667.667 0 110-1.333A.667.667 0 0122 12z" fill="#FFD033"/><path d="M20.667 15.333c.368 0 .666-.895.666-2 0-1.104-.298-2-.666-2-.369 0-.667.896-.667 2 0 1.105.299 2 .667 2z" fill="#fff"/></g><path d="M16.667 17.333c0 1.272 1.82 2 4 2 2.178 0 4-.728 4-2a.667.667 0 00-1.334 0c0 .013-.161.166-.557.324-.537.215-1.294.343-2.11.343-.815 0-1.572-.128-2.109-.343-.395-.158-.557-.31-.557-.324a.667.667 0 00-1.333 0z" fill="#FFD033"/><path d="M0 3.667h-.901l.684.586 4.55 3.9v1.009l-4.527 3.233-.14.1v1.44l.51-.319 5.253-3.283h1.13l4.523 3.23a.554.554 0 00.682-.87L7.667 9.18V8.172l4.387-3.134a.667.667 0 00.28-.543V3.4l-.51.318L6.57 7h-1.13L.86 3.729l-.088-.062H0z" fill="#DB1E36" stroke="#fff" stroke-width=".667"/><path fill-rule="evenodd" clip-rule="evenodd" d="M0 7.333V10h4.667v3.333c0 .368.298.667.666.667h1.334a.667.667 0 00.666-.667V10H12a.667.667 0 00.667-.667V8A.667.667 0 0012 7.333H7.333V4H4.667v3.333H0z" fill="#fff"/><path fill-rule="evenodd" clip-rule="evenodd" d="M0 8h5.333V4h1.334v4H12v1.333H6.667v4H5.333v-4H0V8z" fill="#DB1E36"/></g></svg>