<svg viewBox="0 0 24 24" fill="none" xmlns="http://www.w3.org/2000/svg"><path fill-rule="evenodd" clip-rule="evenodd" d="M9.198 18.998c-.244-.461-.391-1.037-.391-1.731 0-1.801.89-2.873 1.72-3.873l.118-.147c.197-.238.297-.376.455-.642.14-.237.255-.48.347-.732a.65.65 0 011.082-.226c1.035 1.088 1.67 1.926 2.06 2.642.496.912.604 1.642.604 2.512 0 .9-.375 1.788-.975 2.473 2.057-.832 3.482-2.802 3.482-5.162 0-2.517-1.623-3.817-3.185-5.01l-.045-.035c-.39-.298-.831-.635-1.167-.977-.848-.865-1.425-1.847-1.633-3.078-4.512 4.189-5.37 6.777-5.37 9.1 0 2.13 1.16 3.941 2.898 4.886zM12 21c3.866 0 7-3 7-6.888 0-3.219-2.16-4.87-3.695-6.043-.426-.326-.804-.615-1.074-.89-.848-.864-1.32-1.808-1.345-3.109-.014-.671-.83-1.154-1.332-.708C6.253 8.072 5 11.138 5 14.112 5 18 8.134 21 12 21zm-.38-6.887c.229-.275.433-.564.61-.866.604.691.979 1.226 1.217 1.664.366.673.446 1.174.446 1.89 0 .57-.256 1.193-.712 1.682-.462.495-.977.698-1.351.698-.573 0-.976-.19-1.23-.445-.246-.246-.493-.692-.493-1.47 0-1.307.602-2.056 1.452-3.08l.06-.073z" fill="#626F84"/></svg>