<svg viewBox="0 0 24 24" fill="none" xmlns="http://www.w3.org/2000/svg"><path fill-rule="evenodd" clip-rule="evenodd" d="M12 21c3.866 0 7-3 7-6.888 0-3.219-2.16-4.87-3.695-6.043-.426-.326-.804-.615-1.074-.89-.848-.864-1.32-1.808-1.345-3.109-.014-.671-.83-1.154-1.332-.708C6.253 8.072 5 11.138 5 14.112 5 18 8.134 21 12 21zm-2.644-3.865c0 .926.3 1.545.684 1.93.39.389.964.635 1.689.635.591 0 1.269-.308 1.827-.906.553-.593.886-1.368.886-2.124 0-.793-.094-1.41-.525-2.201-.352-.647-.944-1.438-1.96-2.506a5.386 5.386 0 01-.938 1.604l-.06.072c-.846 1.018-1.603 1.93-1.603 3.496z" fill="#626F84"/></svg>