<svg viewBox="0 0 28 28" fill="none" xmlns="http://www.w3.org/2000/svg"><rect y="4" width="28" height="20" rx="3" fill="#fff"/><mask id="a" style="mask-type:alpha" maskUnits="userSpaceOnUse" x="0" y="4" width="28" height="20"><rect y="4" width="28" height="20" rx="3" fill="#fff"/></mask><g mask="url(#a)"><path fill="#E4233B" d="M0 4h28v20H0z"/><path fill-rule="evenodd" clip-rule="evenodd" d="M0 4l12 10L0 24V4zM28 4L16 14l12 10V4z" fill="#34CD4E"/><path fill-rule="evenodd" clip-rule="evenodd" d="M16.962 10.394A4.647 4.647 0 0014 9.334a4.647 4.647 0 00-2.962 1.06l-12.32-8.31-1.492 2.21 12.32 8.31a4.665 4.665 0 000 2.792l-12.32 8.31 1.492 2.21 12.32-8.31A4.648 4.648 0 0014 18.666a4.648 4.648 0 002.962-1.06l12.32 8.31 1.492-2.21-12.32-8.31a4.663 4.663 0 000-2.792l12.32-8.31-1.492-2.21-12.32 8.31z" fill="#fff"/><path fill-rule="evenodd" clip-rule="evenodd" d="M14 12.667l-.943.276.276-.943-.276-.943.943.276.943-.276-.276.943.276.943-.943-.276zM12 16l-.943.276.276-.943-.276-.943.943.277.943-.277-.276.943.276.943L12 16zm3.057.276L16 16l.943.276-.276-.943.276-.943-.943.277-.943-.277.276.943-.276.943z" fill="#DF2239"/></g></svg>