<svg viewBox="0 0 24 24" fill="none" xmlns="http://www.w3.org/2000/svg"><path d="M6.997 5.047a.65.65 0 000 1.3h10.031a.65.65 0 100-1.3H6.997z" fill="#626F84"/><path fill-rule="evenodd" clip-rule="evenodd" d="M3.007 19.54v.507a1.95 1.95 0 001.95 1.95h1.18a1.95 1.95 0 001.95-1.957v-.5h7.836l-.002.489a1.95 1.95 0 001.95 1.957h1.18a1.95 1.95 0 001.95-1.95V5.454a3 3 0 00-3-3H6.001a3 3 0 00-3 3V19.54h.005zM6.002 3.753H18a1.7 1.7 0 011.7 1.7v4.598a.656.656 0 00-.016.145v1.14a.65.65 0 01-.648.65l-14.082.048a.65.65 0 01-.652-.622V5.454a1.7 1.7 0 011.7-1.7zm13.039 9.533c.232-.001.454-.042.66-.117v1.863h-1.684a.65.65 0 100 1.3H19.7v1.906H17.05a3.652 3.652 0 00-3.485-2.532l-1.566.004h-1.563a3.652 3.652 0 00-3.474 2.528H4.302v-1.907h1.704a.65.65 0 100-1.3H4.302v-1.807c.205.072.426.111.656.11l14.083-.048zM6.786 19.539H4.307v.508c0 .359.291.65.65.65h1.18a.65.65 0 00.65-.652v-.506zm12.915 0h-2.478l-.002.494a.65.65 0 00.65.653h1.18a.65.65 0 00.65-.65v-.497zm-4.06-1.3H8.37a2.35 2.35 0 012.066-1.228H12l1.568-.004a2.35 2.35 0 012.073 1.232z" fill="#626F84"/></svg>