<svg viewBox="0 0 24 24" fill="none" xmlns="http://www.w3.org/2000/svg"><path d="M6.997 5.047a.65.65 0 000 1.3h10.031a.65.65 0 000-1.3H6.997z" fill="#626F84"/><path fill-rule="evenodd" clip-rule="evenodd" d="M3.01 12.15a1.314 1.314 0 01-.008-.14V5.454a3 3 0 013-3H18a3 3 0 013 3v8.779a.8.8 0 01-.8.8h-2.183a.65.65 0 100 1.3H20.2a.8.8 0 01.8.8v3.575a1.3 1.3 0 01-1.3 1.3h-1.15a1.3 1.3 0 01-1.3-1.3v-1.876a1.167 1.167 0 01-.018-.067 3.652 3.652 0 00-3.561-2.808l-1.673.004h-1.656a3.651 3.651 0 00-3.565 2.857v1.89a1.3 1.3 0 01-1.3 1.3h-1.15a1.3 1.3 0 01-1.3-1.3v-1.843a.808.808 0 01-.01-.12v-1.612a.8.8 0 01.8-.8h2.19a.65.65 0 000-1.3h-2.19a.8.8 0 01-.8-.8v-1.961c0-.041-.003-.082-.008-.123zm2.992-8.396H18a1.7 1.7 0 011.7 1.7V11.2a.8.8 0 01-.8.8H5.102a.8.8 0 01-.8-.8V5.454a1.7 1.7 0 011.7-1.7z" fill="#626F84"/><path d="M15.866 18.744c.165.418-.208.8-.658.8H8.816c-.451 0-.825-.383-.658-.801a2.35 2.35 0 012.184-1.482H12l1.675-.004a2.35 2.35 0 012.192 1.487z" fill="#626F84"/></svg>