<svg viewBox="0 0 28 28" fill="none" xmlns="http://www.w3.org/2000/svg"><rect y="4" width="28" height="20" rx="3" fill="#fff"/><mask id="a" style="mask-type:alpha" maskUnits="userSpaceOnUse" x="0" y="4" width="28" height="20"><rect y="4" width="28" height="20" rx="3" fill="#fff"/></mask><g mask="url(#a)"><path fill="#19BFBF" d="M0 4h28v20H0z"/><path fill-rule="evenodd" clip-rule="evenodd" d="M8.028 9.503a.333.333 0 01.093-.29l2.448-2.449a.333.333 0 01.236-.097h1.656c.126 0 .241.071.298.184l.482.965A.333.333 0 0013.54 8h2.255c.126 0 .242.071.298.184l1.816 3.632a.333.333 0 00.298.184h1.127c.275 0 .432.314.267.533l-1.582 2.11a.33.33 0 00-.031.05l-.618 1.237a.334.334 0 00-.036.149v1.176a.332.332 0 01-.035.149l-.631 1.263L16 20l-.575 1.15a.333.333 0 01-.298.183h-.921a.333.333 0 01-.298-.184l-.54-1.079a.334.334 0 01-.035-.149v-3.783a.333.333 0 00-.097-.236l-.514-.513a.332.332 0 01-.08-.13l-.566-1.698a.333.333 0 00-.316-.228H8.949a.333.333 0 01-.329-.278l-.592-3.552zM18.667 17.667c0-.184.149-.334.333-.334h.667c.184 0 .333.15.333.334v.921a.334.334 0 01-.035.149l-.54 1.079a.333.333 0 01-.298.184H19a.333.333 0 01-.333-.333v-2z" fill="#fff"/></g></svg>