<svg viewBox="0 0 24 24" fill="none" xmlns="http://www.w3.org/2000/svg"><path d="M7.87 10.184a.65.65 0 01-.65-.65v-.85h-.85a.65.65 0 010-1.3h.85v-.85a.65.65 0 111.3 0v.85h.85a.65.65 0 110 1.3h-.85v.85a.65.65 0 01-.65.65zM9.39 17.677a.65.65 0 01-.92 0l-.6-.601-.602.6a.65.65 0 11-.919-.919l.601-.6-.6-.602a.65.65 0 11.918-.919l.601.601.601-.601a.65.65 0 11.92.92l-.601.6.6.601a.65.65 0 010 .92zM15.256 14.454a.65.65 0 100 1.3h2a.65.65 0 100-1.3h-2zM14.606 17.14a.65.65 0 01.65-.65h2a.65.65 0 010 1.3h-2a.65.65 0 01-.65-.65zM14.606 8.034a.65.65 0 01.65-.65h2a.65.65 0 110 1.3h-2a.65.65 0 01-.65-.65z" fill="#626F84"/><path fill-rule="evenodd" clip-rule="evenodd" d="M18 21a3 3 0 003-3V6a3 3 0 00-3-3H6a3 3 0 00-3 3v12a3 3 0 003 3h12zM4.3 6A1.7 1.7 0 016 4.3h5.352v7.046H4.3V6zm0 6.646V18A1.7 1.7 0 006 19.7h5.352v-7.054H4.3zm8.352 7.054H18a1.7 1.7 0 001.7-1.7v-5.354h-7.048V19.7zm7.048-8.354V6A1.7 1.7 0 0018 4.3h-5.348v7.046H19.7z" fill="#626F84"/></svg>