<svg viewBox="0 0 24 24" fill="none" xmlns="http://www.w3.org/2000/svg"><path fill-rule="evenodd" clip-rule="evenodd" d="M21 10.646a.7.7 0 01-.7.7h-6.948a.7.7 0 01-.7-.7V3.7a.7.7 0 01.7-.7H18a3 3 0 013 3v4.646zm-5.819-3.259a.65.65 0 01.65-.65h2a.65.65 0 110 1.3h-2a.65.65 0 01-.65-.65zM13.352 21a.7.7 0 01-.7-.7v-6.954a.7.7 0 01.7-.7H20.3a.7.7 0 01.7.7V18a3 3 0 01-3 3h-4.648zm2.48-5.974a.65.65 0 000 1.3h2a.65.65 0 100-1.3h-2zm-.65 2.686a.65.65 0 01.65-.65h2a.65.65 0 110 1.3h-2a.65.65 0 01-.65-.65zM10.652 21a.7.7 0 00.7-.7v-6.954a.7.7 0 00-.7-.7H3.7a.7.7 0 00-.7.7V18a3 3 0 003 3h4.652zM8.71 18.257a.65.65 0 01-.92 0l-.6-.6-.601.6a.65.65 0 01-.92-.919l.602-.601-.601-.601a.65.65 0 11.919-.92l.6.602.602-.601a.65.65 0 01.92.919l-.602.6.601.602a.65.65 0 010 .92zM3.7 11.346a.7.7 0 01-.7-.7V6a3 3 0 013-3h4.652a.7.7 0 01.7.7v6.946a.7.7 0 01-.7.7H3.7zm2.839-2.459a.65.65 0 001.3 0v-.85h.85a.65.65 0 000-1.3h-.85v-.85a.65.65 0 00-1.3 0v.85h-.85a.65.65 0 000 1.3h.85v.85z" fill="#626F84"/></svg>