<svg viewBox="0 0 24 24" fill="none" xmlns="http://www.w3.org/2000/svg"><path fill-rule="evenodd" clip-rule="evenodd" d="M7.468 4V2.65a.65.65 0 011.3 0V4h2.582V2.65a.65.65 0 111.3 0V4h2.582V2.65a.65.65 0 111.3 0V4H17a3 3 0 013 3v4.402a.65.65 0 11-1.3 0v-.775H5.3V17A1.7 1.7 0 007 18.7h2.885a.65.65 0 010 1.3H7a3 3 0 01-3-3V7a3 3 0 013-3h.468zm.65 3.515a.65.65 0 01-.65-.65V5.3H7A1.7 1.7 0 005.3 7v2.327h13.4V7A1.7 1.7 0 0017 5.3h-.468v1.565a.65.65 0 11-1.3 0V5.3H12.65v1.565a.65.65 0 11-1.3 0V5.3H8.768v1.565a.65.65 0 01-.65.65z" fill="#626F84"/><path d="M15.272 18.576l-.85-.835a3.166 3.166 0 102.122-3.189.65.65 0 01-.426-1.228 4.466 4.466 0 11-2.985 4.596l-.67.68a.65.65 0 01-.927-.91l1.847-1.88a.65.65 0 01.92-.009l1.88 1.847a.65.65 0 01-.911.928z" fill="#626F84"/></svg>