<svg viewBox="0 0 24 24" fill="none" xmlns="http://www.w3.org/2000/svg"><path fill-rule="evenodd" clip-rule="evenodd" d="M8.88 12.65c-.749 0-1.35.601-1.35 1.35v1.32c0 .749.601 1.35 1.35 1.35h2.32c.749 0 1.35-.601 1.35-1.35V14c0-.749-.601-1.35-1.35-1.35H8.88zM8.83 14c0-.019.006-.03.013-.037.007-.007.018-.013.037-.013h2.32c.019 0 .03.006.037.013.007.007.013.018.013.037v1.32c0 .019-.006.03-.013.037-.007.007-.018.013-.037.013H8.88c-.019 0-.03-.006-.037-.013-.007-.007-.013-.018-.013-.037V14z" fill="#626F84"/><path fill-rule="evenodd" clip-rule="evenodd" d="M8.79 2.6a.65.65 0 00-1.3 0v1.39H7c-1.66 0-3 1.34-3 3v10.13c0 1.66 1.34 3 3 3h10c1.66 0 3-1.34 3-3V6.99c0-1.66-1.35-3-3-3h-.5V2.6a.65.65 0 10-1.3 0v1.39h-2.55V2.6a.65.65 0 10-1.3 0v1.39H8.79V2.6zm-1.3 2.69v1.57a.65.65 0 101.3 0V5.29h2.56v1.57a.65.65 0 101.3 0V5.29h2.55v1.57a.65.65 0 101.3 0V5.29h.5c.94 0 1.7.76 1.7 1.7v2.36H5.3V6.99c0-.94.76-1.7 1.7-1.7h.49zM5.3 10.65h13.4v6.47c0 .94-.76 1.7-1.7 1.7H7c-.94 0-1.7-.76-1.7-1.7v-6.47z" fill="#626F84"/></svg>