<svg viewBox="0 0 24 24" fill="none" xmlns="http://www.w3.org/2000/svg"><path d="M8.79 2.6a.65.65 0 00-1.3 0v1.39H7c-1.66 0-3 1.34-3 3v1.66c0 .39.31.7.7.7h14.6c.39 0 .7-.31.7-.7V6.99c0-1.66-1.35-3-3-3h-.5V2.6a.65.65 0 10-1.3 0v1.39h-2.55V2.6a.65.65 0 10-1.3 0v1.39H8.79V2.6zM4.7 10.627h14.6c.38 0 .7.31.7.7v.992c0 .208-.207.353-.407.296a6.076 6.076 0 00-7.633 7.006.315.315 0 01-.303.379H7a3 3 0 01-3-3v-5.673c0-.39.31-.7.7-.7z" fill="#626F84"/><path d="M15.612 18.606l.5.491a.65.65 0 10.912-.927l-1.578-1.55a.65.65 0 00-.92.008l-1.55 1.578a.65.65 0 10.928.911l.407-.415a3.853 3.853 0 102.55-4.185.65.65 0 00.427 1.228 2.552 2.552 0 11-1.676 2.86z" fill="#626F84"/></svg>