<svg viewBox="0 0 24 24" fill="none" xmlns="http://www.w3.org/2000/svg"><path d="M8.79 2.6a.65.65 0 00-1.3 0v1.39H7c-1.66 0-3 1.34-3 3v1.66c0 .39.31.7.7.7h14.6c.39 0 .7-.31.7-.7V6.99c0-1.66-1.35-3-3-3h-.5V2.6a.65.65 0 10-1.3 0v1.39h-2.55V2.6a.65.65 0 10-1.3 0v1.39H8.79V2.6z" fill="#626F84"/><path fill-rule="evenodd" clip-rule="evenodd" d="M4.7 10.65h14.6c.38 0 .7.31.7.7v5.77c0 1.66-1.34 3-3 3H7c-1.66 0-3-1.34-3-3v-5.77c0-.39.31-.7.7-.7zm5.72 5.87c.39 0 .7-.31.7-.7V14.5c0-.39-.31-.7-.7-.7H8.1c-.39 0-.7.31-.7.7v1.32c0 .39.31.7.7.7h2.32z" fill="#626F84"/></svg>