<svg viewBox="0 0 28 28" fill="none" xmlns="http://www.w3.org/2000/svg"><rect y="4" width="28" height="20" rx="3" fill="#fff"/><mask id="a" style="mask-type:alpha" maskUnits="userSpaceOnUse" x="0" y="4" width="28" height="20"><rect y="4" width="28" height="20" rx="3" fill="#fff"/></mask><g mask="url(#a)" fill-rule="evenodd" clip-rule="evenodd"><path d="M0 9.333h28V4H0v5.333zM0 24h28v-5.333H0V24z" fill="#0F3EB6"/><path d="M0 18.667h28V9.333H0v9.334z" fill="#ED1A3C"/><path d="M12 12.727h1.333V12a.667.667 0 011.334 0v.727H16V14h-4v-1.273zM17.333 12a.667.667 0 00-.666.667V14H18v-1.333a.667.667 0 00-.667-.667zm-6 5.333v-2.666H10l-1.333 2.666h2.666zM16 14.667h-4v2.666h4v-2.666zm.667 0H18l1.333 2.666h-2.666v-2.666zm-6-2.667a.667.667 0 00-.667.667V14h1.333v-1.333a.667.667 0 00-.666-.667z" fill="#fff"/></g></svg>