<svg viewBox="0 0 24 24" fill="none" xmlns="http://www.w3.org/2000/svg"><path fill-rule="evenodd" clip-rule="evenodd" d="M18.887 4.034a.65.65 0 10-1.028-.795L16.103 5.51a2.998 2.998 0 00-2.55-1.42h-3.105A3.001 3.001 0 007.652 6H6a3 3 0 00-3 3v8c0 1.317.849 2.436 2.029 2.84l-.862 1.115a.65.65 0 101.029.795L18.887 4.034zM8.513 15.33l.855-1.106a2.95 2.95 0 013.242-4.194l.854-1.106a4.25 4.25 0 00-4.951 6.406z" fill="#626F84"/><path d="M14.837 12.061c-.064-.212-.335-.241-.47-.066l-2.655 3.435c-.135.176-.038.43.183.438l.12.003a2.95 2.95 0 002.822-3.81z" fill="#626F84"/><path fill-rule="evenodd" clip-rule="evenodd" d="M12.014 17.17c-.33 0-.652-.037-.96-.108-.297-.069-.617.018-.803.26l-1.199 1.55A.7.7 0 009.606 20H18a3 3 0 003-3V9a3 3 0 00-1.654-2.682c-.261-.131-.57-.028-.748.203l-2.77 3.584c-.187.241-.19.573-.049.842a4.25 4.25 0 01-3.765 6.223zm5.436-7.522a1 1 0 01.995-1 1 1 0 010 2 1 1 0 01-.995-1z" fill="#626F84"/></svg>