<svg viewBox="0 0 24 24" fill="none" xmlns="http://www.w3.org/2000/svg"><path fill-rule="evenodd" clip-rule="evenodd" d="M18.77 3.084a.65.65 0 01.117.912L5.196 21.712a.65.65 0 01-1.029-.795l.862-1.115A3.001 3.001 0 013 16.962v-8a3 3 0 013-3h1.652a3.001 3.001 0 012.796-1.908h3.104c1.077 0 2.021.567 2.55 1.42L17.86 3.2a.65.65 0 01.912-.117zm-3.559 3.542l-.074-.19a1.701 1.701 0 00-1.585-1.082h-3.104c-.719 0-1.337.446-1.585 1.082l-.323.826H6a1.7 1.7 0 00-1.7 1.7v8a1.7 1.7 0 001.611 1.698l2.602-3.367a4.25 4.25 0 014.951-6.406l1.747-2.26zM12.61 9.993a2.95 2.95 0 00-3.242 4.195l3.242-4.195z" fill="#626F84"/><path d="M14.827 11.991c-.08-.254-.059-.538.105-.75.29-.376.864-.356 1.039.087a4.25 4.25 0 01-4.463 5.776c-.473-.057-.638-.607-.347-.984.164-.211.433-.305.7-.29a2.95 2.95 0 002.967-3.838z" fill="#626F84"/><path d="M9.515 18.662a.65.65 0 000 1.3H18a3 3 0 003-3v-8a2.999 2.999 0 00-1.521-2.61c-.328-.187-.728-.053-.959.246l-.017.023c-.203.262-.01.68.283.834a1.7 1.7 0 01.914 1.507v8a1.7 1.7 0 01-1.7 1.7H9.515z" fill="#626F84"/><path d="M16.626 9.633a1 1 0 01.996-1 1 1 0 010 2 1 1 0 01-.996-1z" fill="#626F84"/></svg>