<svg viewBox="0 0 28 28" fill="none" xmlns="http://www.w3.org/2000/svg"><rect y="4" width="28" height="20" rx="3" fill="#fff"/><mask id="a" style="mask-type:alpha" maskUnits="userSpaceOnUse" x="0" y="4" width="28" height="20"><rect y="4" width="28" height="20" rx="3" fill="#fff"/></mask><g mask="url(#a)"><path fill="url(#paint0_linear_17_5874)" d="M13.333 4H28v20H13.333z"/><path fill-rule="evenodd" clip-rule="evenodd" d="M0 24h9.333V4H0v20z" fill="#059170"/><path fill-rule="evenodd" clip-rule="evenodd" d="M9.333 24h9.334V4H9.333v20z" fill="#E21A30"/><path fill-rule="evenodd" clip-rule="evenodd" d="M18.667 24H28V4h-9.333v20z" fill="#FFDC44"/><path fill-rule="evenodd" clip-rule="evenodd" d="M14 15.3l-1.96 1.397.724-2.295-1.934-1.432 2.406-.022.764-2.281.764 2.281 2.406.022-1.934 1.432.723 2.295L14 15.3z" fill="#FFDC42"/></g><defs><linearGradient id="paint0_linear_17_5874" x1="13.333" y1="4" x2="13.333" y2="24" gradientUnits="userSpaceOnUse"><stop stop-color="#FFDC44"/><stop offset="1" stop-color="#FDD216"/></linearGradient></defs></svg>