<svg viewBox="0 0 24 24" fill="none" xmlns="http://www.w3.org/2000/svg"><path fill-rule="evenodd" clip-rule="evenodd" d="M12.014 17.133a4.25 4.25 0 100-8.5 4.25 4.25 0 000 8.5zm0-1.3a2.95 2.95 0 100-5.9 2.95 2.95 0 000 5.9z" fill="#626F84"/><path d="M16.626 9.633a1 1 0 01.996-1 1 1 0 010 2 1 1 0 01-.996-1z" fill="#626F84"/><path fill-rule="evenodd" clip-rule="evenodd" d="M6 5.962h1.652a3.001 3.001 0 012.796-1.908h3.104a3 3 0 012.796 1.908H18a3 3 0 013 3v8a3 3 0 01-3 3H6a3 3 0 01-3-3v-8a3 3 0 013-3zm9.137.474l.323.826H18a1.7 1.7 0 011.7 1.7v8a1.7 1.7 0 01-1.7 1.7H6a1.7 1.7 0 01-1.7-1.7v-8a1.7 1.7 0 011.7-1.7h2.54l.323-.826a1.701 1.701 0 011.585-1.082h3.104c.719 0 1.337.446 1.585 1.082z" fill="#626F84"/></svg>