<svg viewBox="0 0 28 28" fill="none" xmlns="http://www.w3.org/2000/svg"><rect x=".25" y="4.25" width="27.5" height="19.5" rx="2.75" fill="#fff" stroke="#D6D8DD" stroke-width=".5"/><mask id="a" style="mask-type:alpha" maskUnits="userSpaceOnUse" x="0" y="4" width="28" height="20"><rect x=".25" y="4.25" width="27.5" height="19.5" rx="2.75" fill="#fff" stroke="#fff" stroke-width=".5"/></mask><g mask="url(#a)" fill="#FF3131"><path d="M20 4h8v20h-8z"/><path fill-rule="evenodd" clip-rule="evenodd" d="M0 24h8V4H0v20zM16.112 13.222a.333.333 0 01-.563-.302L16 10.667l-1.333.666-.667-2-.667 2L12 10.667l.45 2.253a.333.333 0 01-.562.302l-.319-.32a.333.333 0 00-.471 0l-.431.431-1.334-.666L10 14l-.431.43a.333.333 0 000 .472l1.764 1.765h2l.334 2h.666l.334-2h2l1.764-1.765a.333.333 0 000-.471L18 14l.667-1.333-1.334.666-.43-.43a.333.333 0 00-.472 0l-.32.319z"/></g></svg>