<svg viewBox="0 0 24 24" fill="none" xmlns="http://www.w3.org/2000/svg"><path fill-rule="evenodd" clip-rule="evenodd" d="M6 19a3 3 0 01-3-3V8a3 3 0 013-3h12a3 3 0 013 3v8a3 3 0 01-3 3H6zm.019-10.104c0-.426.351-.771.785-.771h1.932c.433 0 .785.345.785.77v1.961c0 .426-.352.771-.785.771H6.804a.778.778 0 01-.785-.77V8.895zm.65 5.935a.65.65 0 100 1.3H8.36a.65.65 0 100-1.3H6.67zm8.346.65a.65.65 0 01.65-.65h1.693a.65.65 0 110 1.3h-1.693a.65.65 0 01-.65-.65zm-3.861-.65a.65.65 0 100 1.3h1.693a.65.65 0 100-1.3h-1.693z" fill="#626F84"/></svg>