<svg viewBox="0 0 24 24" fill="none" xmlns="http://www.w3.org/2000/svg"><path d="M7.14 10.544a.65.65 0 100 1.3h1.35v4.26a.65.65 0 001.3 0v-4.26h1.35a.65.65 0 000-1.3h-4z" fill="#626F84"/><path fill-rule="evenodd" clip-rule="evenodd" d="M13.44 10.544h1.78a2.29 2.29 0 110 4.582h-1.13v.978a.65.65 0 11-1.3 0v-4.91a.65.65 0 01.65-.65zm.65 1.3v1.982h1.13a.99.99 0 100-1.982h-1.13z" fill="#626F84"/><path fill-rule="evenodd" clip-rule="evenodd" d="M6 19a3 3 0 01-3-3V8a3 3 0 013-3h12a3 3 0 013 3v8a3 3 0 01-3 3H6zM19.7 8A1.7 1.7 0 0018 6.3H6A1.7 1.7 0 004.3 8v.32a.65.65 0 01.195-.03H19.7V8zM4.3 16V9.56a.65.65 0 00.195.03H19.7V16a1.7 1.7 0 01-1.7 1.7H6A1.7 1.7 0 014.3 16z" fill="#626F84"/></svg>