<svg viewBox="0 0 24 24" fill="none" xmlns="http://www.w3.org/2000/svg"><path d="M6.019 15.448a.65.65 0 01.65-.65H8.36a.65.65 0 110 1.3H6.67a.65.65 0 01-.65-.65zM15.015 15.448a.65.65 0 01.65-.65h1.693a.65.65 0 110 1.3h-1.693a.65.65 0 01-.65-.65zM11.154 14.798a.65.65 0 100 1.3h1.693a.65.65 0 100-1.3h-1.693z" fill="#626F84"/><path fill-rule="evenodd" clip-rule="evenodd" d="M6.969 8.125a.95.95 0 00-.95.95v2.417c0 .524.425.95.95.95h2.338a.95.95 0 00.95-.95V9.075a.95.95 0 00-.95-.95H6.969zm.35 3.017V9.425h1.638v1.717H7.319z" fill="#626F84"/><path fill-rule="evenodd" clip-rule="evenodd" d="M6 19a3 3 0 01-3-3V8a3 3 0 013-3h12a3 3 0 013 3v8a3 3 0 01-3 3H6zM19.7 8A1.7 1.7 0 0018 6.3H6A1.7 1.7 0 004.3 8v8A1.7 1.7 0 006 17.7h12a1.7 1.7 0 001.7-1.7V8z" fill="#626F84"/></svg>