<svg viewBox="0 0 24 24" fill="none" xmlns="http://www.w3.org/2000/svg"><path fill-rule="evenodd" clip-rule="evenodd" d="M16.414 4a3 3 0 012.667 1.625l2.077 4.027A2.99 2.99 0 0122 11.737v6.872a2 2 0 01-2 2h-.984a2 2 0 01-2-2V18H6.984v.61a2 2 0 01-2 2H4a2 2 0 01-2-2v-6.873c0-.81.32-1.545.842-2.085L4.92 5.625A3 3 0 017.586 4h8.828zM7.586 5.3h8.828a1.7 1.7 0 011.511.92l1.279 2.48H4.796l1.279-2.48a1.7 1.7 0 011.51-.92zM18.316 18H20.7v.61a.7.7 0 01-.7.7h-.984a.7.7 0 01-.7-.7V18zM3.3 18h2.384v.61a.7.7 0 01-.7.7H4a.7.7 0 01-.7-.7V18zM5 10.037h14a1.7 1.7 0 011.666 1.359h-2.07a.65.65 0 100 1.3H20.7V16.7h-2.625a1.01 1.01 0 00-.025-.07l-1.332-3.344a3 3 0 00-2.787-1.89H10.07a3 3 0 00-2.788 1.89L5.95 16.63c-.01.023-.018.047-.025.07H3.3v-4.004h2.104a.65.65 0 100-1.3h-2.07A1.7 1.7 0 015 10.036zM7.321 16.7h9.358l-1.168-2.934a1.7 1.7 0 00-1.58-1.07H10.07a1.7 1.7 0 00-1.58 1.07L7.321 16.7z" fill="#626F84"/></svg>