<svg viewBox="0 0 24 24" fill="none" xmlns="http://www.w3.org/2000/svg"><path fill-rule="evenodd" clip-rule="evenodd" d="M19.08 5.625a520.341 520.341 0 012.397 4.76.699.699 0 01-.626 1.011h-2.255a.65.65 0 100 1.3H21.3a.7.7 0 01.7.7v5.913a1.3 1.3 0 01-1.3 1.3h-1.134a1.3 1.3 0 01-1.3-1.3V18h-.004l-1.878-4.714a3 3 0 00-2.787-1.89h-3.229a3 3 0 00-2.787 1.89l-1.847 4.638v1.385a1.3 1.3 0 01-1.3 1.3H3.3a1.3 1.3 0 01-1.3-1.3v-5.913a.7.7 0 01.7-.7h2.704a.65.65 0 100-1.3H3.149a.699.699 0 01-.626-1.01c.66-1.323 1.802-3.608 2.396-4.761A3 3 0 017.586 4h8.828a3 3 0 012.667 1.625zM7.587 5.3h8.828a1.7 1.7 0 011.511.92l1.279 2.48H4.796l1.279-2.48a1.7 1.7 0 011.51-.92z" fill="#626F84"/><path d="M15.882 18a.7.7 0 00.647-.968l-1.352-3.266a1.7 1.7 0 00-1.58-1.07h-3.229a1.7 1.7 0 00-1.58 1.07l-1.277 3.28a.7.7 0 00.652.954h7.72z" fill="#626F84"/></svg>