<svg viewBox="0 0 24 24" fill="none" xmlns="http://www.w3.org/2000/svg"><path fill-rule="evenodd" clip-rule="evenodd" d="M11.411 14.24h1.427a2.256 2.256 0 100-4.512h-1.777c-.52 0-.95.42-.95.948v2.263h-.547a.65.65 0 100 1.3h.547v.948h-.555a.65.65 0 100 1.3h.555v.635a.65.65 0 001.3 0v-.635h2.042a.65.65 0 100-1.3h-2.042v-.948zm0-3.212v1.911h1.427a.956.956 0 100-1.911h-1.427z" fill="#626F84"/><path fill-rule="evenodd" clip-rule="evenodd" d="M19 16c0-2.44-2.18-6.222-3.322-8.034l1.856-3.97A.7.7 0 0016.9 3H7.1a.7.7 0 00-.634.996l1.856 3.97C7.18 9.778 5 13.56 5 16c0 3.625 3 5 7 5s7-1.375 7-5zM8.043 4.3h7.914l-1.356 2.9H9.4L8.043 4.3zm-.303 7.319A36.578 36.578 0 019.522 8.5h4.956a36.581 36.581 0 011.782 3.119c.84 1.672 1.44 3.3 1.44 4.381 0 1.384-.536 2.213-1.399 2.763-.95.606-2.413.937-4.301.937-1.888 0-3.35-.33-4.301-.937C6.836 18.213 6.3 17.384 6.3 16c0-1.082.6-2.709 1.44-4.381z" fill="#626F84"/></svg>