<svg viewBox="0 0 24 24" fill="none" xmlns="http://www.w3.org/2000/svg"><path d="M11.412 12.94v-1.912h1.426a.956.956 0 110 1.911h-1.426z" fill="#626F84"/><path fill-rule="evenodd" clip-rule="evenodd" d="M16.9 3H7.1a.7.7 0 00-.634.996l1.875 4.01C7.205 9.808 5 13.62 5 16.073c0 3.625 3 5 7 5s7-1.375 7-5c0-2.453-2.205-6.265-3.34-8.065l1.874-4.01A.7.7 0 0016.9 3zm-4.062 11.24h-1.426v.947h2.041a.65.65 0 110 1.3h-2.041v.635a.65.65 0 01-1.3 0v-.635h-.556a.65.65 0 110-1.3h.556v-.948h-.548a.65.65 0 110-1.3h.547v-2.263c0-.528.43-.948.95-.948h1.777a2.256 2.256 0 010 4.511z" fill="#626F84"/></svg>