<svg viewBox="0 0 24 24" fill="none" xmlns="http://www.w3.org/2000/svg"><path fill-rule="evenodd" clip-rule="evenodd" d="M11 4.366c0-.745.605-1.35 1.35-1.35h5.3c.745 0 1.35.605 1.35 1.35v1.281a1.35 1.35 0 01-1.35 1.35h-2v1.719h.53c.961 0 1.779.7 1.927 1.65l.644 4.14a1.95 1.95 0 011.267 1.826v1.7a1.95 1.95 0 01-1.95 1.95H5.932a1.95 1.95 0 01-1.95-1.95v-1.7c0-.837.527-1.55 1.267-1.827l.644-4.14a1.95 1.95 0 011.927-1.65h6.53V6.998h-2A1.35 1.35 0 0111 5.647v-1.28zm1.35-.05a.05.05 0 00-.05.05v1.281c0 .028.023.05.05.05h5.3a.05.05 0 00.05-.05v-1.28a.05.05 0 00-.05-.05h-5.3zM5.932 15.682h12.136a.65.65 0 01.65.65v1.7a.65.65 0 01-.65.65H5.932a.65.65 0 01-.65-.65v-1.7a.65.65 0 01.65-.65zm10.89-5.116l.595 3.816H6.583l.594-3.816a.65.65 0 01.642-.55h8.36a.65.65 0 01.642.55zm-7.976.732a.65.65 0 100 1.3h3.115a.65.65 0 000-1.3H8.846z" fill="#626F84"/></svg>