<svg viewBox="0 0 24 24" fill="none" xmlns="http://www.w3.org/2000/svg"><path fill-rule="evenodd" clip-rule="evenodd" d="M11 4.345a1.3 1.3 0 011.3-1.3h5.4a1.3 1.3 0 011.3 1.3v1.32a1.3 1.3 0 01-1.3 1.3h-2.05v1.67h1.237a1.3 1.3 0 011.285 1.1l.593 3.796a1.3 1.3 0 01-1.284 1.501H6.519a1.3 1.3 0 01-1.284-1.5l.593-3.798a1.3 1.3 0 011.285-1.099h7.237v-1.67H12.3a1.3 1.3 0 01-1.3-1.3v-1.32zm-3.98 7.311a.65.65 0 01.65-.65h3.114a.65.65 0 110 1.3H7.67a.65.65 0 01-.65-.65zM5.286 16.37a1.3 1.3 0 00-1.3 1.3v1.05a1.3 1.3 0 001.3 1.3h13.426a1.3 1.3 0 001.3-1.3v-1.05a1.3 1.3 0 00-1.3-1.3H5.287z" fill="#626F84"/></svg>