<svg viewBox="0 0 24 24" fill="none" xmlns="http://www.w3.org/2000/svg"><path fill-rule="evenodd" clip-rule="evenodd" d="M20.39 7.525c.838 0 .838 1.3 0 1.3H19V15.2h1.39a.65.65 0 110 1.3H19V18c0 1.65-1.34 3-3 3H7c-1.66 0-3-1.34-3-3V6.035c0-1.66 1.34-3 3-3h9c1.66 0 3 1.34 3 3v1.49h1.39zM8.5 9.227a1 1 0 100-2 1 1 0 000 2zm6.22-.35a.65.65 0 100-1.3H11.5a.65.65 0 100 1.3h3.22zM15.38 12a.65.65 0 01-.65.65h-3.22a.65.65 0 110-1.3h3.22a.65.65 0 01.65.65zm-.66 4.48a.65.65 0 100-1.3H11.5a.65.65 0 100 1.3h3.22zM9.526 12a1 1 0 11-2 0 1 1 0 012 0zm0 3.803a1 1 0 11-2 0 1 1 0 012 0z" fill="#626F84"/></svg>