<svg viewBox="0 0 24 24" fill="none" xmlns="http://www.w3.org/2000/svg"><path fill-rule="evenodd" clip-rule="evenodd" d="M17 5.296H7c-.939 0-1.7.76-1.7 1.695v1.924h13.4V6.991c0-.936-.761-1.695-1.7-1.695zM5.3 13.79v-3.577h3.596v3.577H5.3zm0 1.296v1.924c0 .936.761 1.695 1.7 1.695h10c.939 0 1.7-.76 1.7-1.695v-1.924H5.3zm13.4-1.296h-3.608v-3.577H18.7v3.577zm-4.908 0v-3.577h-3.597v3.577h3.597zM7 4C5.343 4 4 5.34 4 6.991V17.01A2.996 2.996 0 007 20h10c1.657 0 3-1.34 3-2.991V6.99A2.996 2.996 0 0017 4H7z" fill="#626F84"/></svg>