<svg viewBox="0 0 28 28" fill="none" xmlns="http://www.w3.org/2000/svg"><rect x=".25" y="4.25" width="27.5" height="19.5" rx="2.75" fill="#fff" stroke="#D6D8DD" stroke-width=".5"/><mask id="a" style="mask-type:alpha" maskUnits="userSpaceOnUse" x="0" y="4" width="28" height="20"><rect x=".25" y="4.25" width="27.5" height="19.5" rx="2.75" fill="#fff" stroke="#fff" stroke-width=".5"/></mask><g mask="url(#a)" fill-rule="evenodd" clip-rule="evenodd"><path d="M0 9.333h28V4H0v5.333z" fill="#083D96"/><path d="M0 18.667h28v-5.334H0v5.334z" fill="#37AE39"/><path d="M0 24h28v-5.333H0V24z" fill="#FFD13F"/><path d="M10.667 24h6.666V4h-6.666v20z" fill="#E42346"/><path d="M4.667 7.447l-1.176.838.434-1.377-1.16-.86 1.443-.012.459-1.37.458 1.37 1.444.013-1.16.859.433 1.377-1.175-.838z" fill="#FFD03B"/></g></svg>