<svg viewBox="0 0 28 28" fill="none" xmlns="http://www.w3.org/2000/svg"><rect y="4" width="28" height="20" rx="3" fill="#fff"/><mask id="a" style="mask-type:alpha" maskUnits="userSpaceOnUse" x="0" y="4" width="28" height="20"><rect y="4" width="28" height="20" rx="3" fill="#fff"/></mask><g mask="url(#a)"><path fill="#19BFBF" d="M0 4h28v20H0z"/><path fill-rule="evenodd" clip-rule="evenodd" d="M17.098 21.764l-1.042-1.042a.334.334 0 01-.08-.13l-.567-1.698a.333.333 0 00-.639.187l.518 2.07a.333.333 0 01-.088.316l-.298.297a.333.333 0 01-.471 0l-.333-.333a.333.333 0 01-.098-.236V20.08a.334.334 0 00-.035-.15l-.54-1.078a.333.333 0 00-.298-.184h-1.715a.333.333 0 00-.15.035l-1.139.57a.333.333 0 00-.167.192l-.579 1.738a.333.333 0 01-.167.193l-1.06.53a.333.333 0 01-.3 0l-1-.5a.333.333 0 01-.183-.298V19c0-.184.149-.333.333-.333h1.333c.184 0 .334-.15.334-.334v-.946c0-.035.005-.071.017-.105l.573-1.72a.333.333 0 01.317-.229h1.014a.333.333 0 00.149-.035l1.193-.596a.333.333 0 01.149-.035H13c.184 0 .333-.15.333-.334v-.195c0-.088.035-.173.098-.236l.242-.242a.333.333 0 01.534.087l.367.735a.333.333 0 00.299.185h1.553c.144 0 .271-.092.317-.228l.514-1.544a.333.333 0 01.317-.228h.76a.333.333 0 000-.667h-.667a.333.333 0 01-.334-.333v-.922c0-.051.012-.102.036-.149l.523-1.048a.333.333 0 00-.062-.385l-.261-.26a.333.333 0 00-.471 0l-1 1a.333.333 0 00-.098.235v1.141a.334.334 0 01-.017.106l-.574 1.72a.333.333 0 01-.316.228h-.288a.333.333 0 01-.236-.097l-.473-.473A.328.328 0 0114 12.53a.328.328 0 00-.475-.294l-.643.322a.333.333 0 01-.385-.062l-.4-.4a.334.334 0 01-.097-.235v-1.057c0-.089.035-.173.098-.236l1.235-1.236 1.945-1.944a.333.333 0 01.13-.08l1.874-.625a.333.333 0 01.105-.017h1.074c.126 0 .241.071.298.184l.54 1.079a.333.333 0 01.034.149v1.783c0 .088.035.173.098.236l.423.423c.09.09.12.221.08.341l-.52 1.563c-.048.143.006.3.131.383L21.333 14l.996.498c.18.09.24.316.128.483l-1.068 1.602a.334.334 0 00-.056.185v1.658c0 .144-.091.271-.228.317l-1.64.547a.333.333 0 00-.193.167l-.581 1.161a.333.333 0 01-.063.087l-1.059 1.06a.333.333 0 01-.471 0zm-5.765-.43a.667.667 0 100-1.334.667.667 0 000 1.333zm-2-8.667a.667.667 0 11-1.333 0 .667.667 0 011.333 0z" fill="#fff"/><path fill-rule="evenodd" clip-rule="evenodd" d="M9.965 12.737a.334.334 0 00.035-.149v-.51a.334.334 0 00-.035-.148l-.39-.78a.333.333 0 01.298-.483h.46c.184 0 .334.149.334.333v1.588c0 .052.012.103.035.15l.39.78a.333.333 0 01-.298.482h-.921a.333.333 0 01-.298-.482l.39-.78z" fill="#fff"/></g></svg>