<svg viewBox="0 0 24 24" fill="none" xmlns="http://www.w3.org/2000/svg"><path d="M6.481 16.997a.651.651 0 01-.653-.65c0-.359.293-.65.653-.65h4.087c.36 0 .652.291.652.65 0 .36-.292.65-.652.65H6.48z" fill="#626F84"/><path fill-rule="evenodd" clip-rule="evenodd" d="M14.049 7h1.299c.36 0 .652.291.652.65 0 .359-.292.65-.652.65h-1.3V17c0 1.657-1.348 3-3.013 3H6.013A3.007 3.007 0 013 17V7c0-1.657 1.35-3 3.013-3h5.022a3.007 3.007 0 013.014 3zM6.013 5.3h5.022c.943 0 1.708.761 1.708 1.7H6.48a.651.651 0 00-.653.65c0 .359.293.65.653.65h6.262v1.677H4.306V7c0-.939.764-1.7 1.707-1.7zm-1.707 5.977h8.437V17c0 .939-.765 1.7-1.708 1.7H6.013A1.704 1.704 0 014.306 17v-5.723z" fill="#626F84"/><path d="M15.517 15.496a.649.649 0 01.013-.964l2.234-1.961a.655.655 0 01.922.057c.238.27.212.68-.058.918l-1 .878h1.413c.361 0 .653-.291.653-.65V8.969a.651.651 0 00-.653-.65h-1.033a.651.651 0 01-.653-.65c0-.359.292-.65.653-.65h1.033c1.082 0 1.959.873 1.959 1.95v4.805c0 1.077-.877 1.95-1.959 1.95h-1.36l.96.89a.648.648 0 01.033.919.655.655 0 01-.923.033l-2.234-2.07zM6.481 14.272a.651.651 0 01-.653-.65c0-.36.293-.65.653-.65h4.087c.36 0 .652.29.652.65 0 .359-.292.65-.652.65H6.48z" fill="#626F84"/></svg>