<svg viewBox="0 0 24 24" fill="none" xmlns="http://www.w3.org/2000/svg"><path fill-rule="evenodd" clip-rule="evenodd" d="M4.669 4.035a.65.65 0 01.65.65v13.619c0 .193.157.35.35.35h13.687a.65.65 0 010 1.3H5.67a1.65 1.65 0 01-1.65-1.65V4.684a.65.65 0 01.65-.65zM19.822 8.09a.65.65 0 00-.49-.196l-3.036.109a.65.65 0 00.047 1.3l1.334-.049-3.579 3.579-2.86-2.86a.65.65 0 00-.919 0L7 13.294a.65.65 0 10.92.918l2.86-2.86 2.86 2.86a.65.65 0 00.919 0l4.045-4.045-.081 1.297a.65.65 0 001.297.081l.186-2.96a.65.65 0 00-.183-.494z" fill="#626F84"/></svg>