<svg viewBox="0 0 24 24" fill="none" xmlns="http://www.w3.org/2000/svg"><path fill-rule="evenodd" clip-rule="evenodd" d="M19.028 18.697v-7.706a1.95 1.95 0 10-3.9 0v7.706H13.95v-3.143a1.95 1.95 0 00-3.9 0v3.143H8.872v-5.706a1.95 1.95 0 10-3.9 0v5.706H3.934a.65.65 0 100 1.3h16.133a.65.65 0 000-1.3h-1.039zm-1.3 0v-7.706a.65.65 0 10-1.3 0v7.706h1.3zm-11.456 0v-5.706a.65.65 0 111.3 0v5.706h-1.3zm5.078 0h1.3v-3.143a.65.65 0 10-1.3 0v3.143z" fill="#626F84"/><path fill-rule="evenodd" clip-rule="evenodd" d="M19.078 5.691a2 2 0 01-2.93 1.77l-2.287 2.12a1.994 1.994 0 01.14.735 2 2 0 11-3.992-.193l-1.754-.941a2 2 0 11.635-1.134l1.66.89a1.996 1.996 0 012.464-.346l2.241-2.077a2 2 0 113.823-.824zm-1.3 0a.7.7 0 11-1.4 0 .7.7 0 011.4 0zm-10.156 2a.7.7 0 11-1.4 0 .7.7 0 011.4 0zM12 11.016a.7.7 0 100-1.4.7.7 0 000 1.4z" fill="#626F84"/></svg>