<svg viewBox="0 0 24 24" fill="none" xmlns="http://www.w3.org/2000/svg"><path fill-rule="evenodd" clip-rule="evenodd" d="M4.669 4.005a.65.65 0 01.65.65v13.708c0 .194.157.35.35.35h13.687a.65.65 0 010 1.3H5.67a1.65 1.65 0 01-1.65-1.65V4.655a.65.65 0 01.65-.65zm9.903 6.073a.65.65 0 00-.65.65v6.1a.65.65 0 101.3 0v-6.1a.65.65 0 00-.65-.65zm-3.95-5.335a.65.65 0 111.3 0v12.084a.65.65 0 11-1.3 0V4.743zM7.97 10.078a.65.65 0 00-.65.65v6.1a.65.65 0 101.3 0v-6.1a.65.65 0 00-.65-.65zm10.553 6.75a.65.65 0 11-1.3 0V7.748a.65.65 0 011.3 0v9.078z" fill="#626F84"/></svg>