<svg viewBox="0 0 24 24" fill="none" xmlns="http://www.w3.org/2000/svg"><path fill-rule="evenodd" clip-rule="evenodd" d="M14.4 15a.6.6 0 00.6-.6V9.6a.6.6 0 00-.6-.6H9.6a.6.6 0 00-.6.6v4.8a.6.6 0 00.6.6h4.8zm-.7-4.4a.3.3 0 00-.3-.3h-2.8a.3.3 0 00-.3.3v2.8a.3.3 0 00.3.3h2.8a.3.3 0 00.3-.3v-2.8z" fill="#626F84"/><path fill-rule="evenodd" clip-rule="evenodd" d="M11.35 3v3h-1.7V4a.65.65 0 00-1.3 0v2.07a3.004 3.004 0 00-2.28 2.28H4a.65.65 0 000 1.3h2v1.7H3a.65.65 0 100 1.3h3v1.7H4a.65.65 0 100 1.3h2.07a3.004 3.004 0 002.28 2.28V20a.65.65 0 101.3 0v-2h1.7v3a.65.65 0 101.3 0v-3h1.7v2a.65.65 0 101.3 0v-2.07a3.004 3.004 0 002.28-2.28H20a.65.65 0 100-1.3h-2v-1.7h3a.65.65 0 100-1.3h-3v-1.7h2a.65.65 0 100-1.3h-2.07a3.004 3.004 0 00-2.28-2.28V4a.65.65 0 10-1.3 0v2h-1.7V3a.65.65 0 10-1.3 0zm5.342 12c0-.035.003-.07.008-.105V9A1.7 1.7 0 0015 7.3H9A1.7 1.7 0 007.3 9v6A1.7 1.7 0 009 16.7h6a1.7 1.7 0 001.698-1.61.643.643 0 01-.006-.09z" fill="#626F84"/></svg>