<svg viewBox="0 0 24 24" fill="none" xmlns="http://www.w3.org/2000/svg"><path d="M13.7 13.346a.3.3 0 01-.3.3h-2.8a.3.3 0 01-.3-.3v-2.8a.3.3 0 01.3-.3h2.8a.3.3 0 01.3.3v2.8z" fill="#626F84"/><path fill-rule="evenodd" clip-rule="evenodd" d="M11.35 2.946v3h-1.7v-2a.65.65 0 00-1.3 0v2.07a3.004 3.004 0 00-2.28 2.28H4a.65.65 0 000 1.3h2v1.7H3a.65.65 0 100 1.3h3v1.7H4a.65.65 0 000 1.3h2.07a3.004 3.004 0 002.28 2.28v2.07a.65.65 0 001.3 0v-2h1.7v3a.65.65 0 001.3 0v-3h1.7v2a.65.65 0 001.3 0v-2.07a3.004 3.004 0 002.28-2.28H20a.65.65 0 100-1.3h-2v-1.7h3a.65.65 0 100-1.3h-3v-1.7h2a.65.65 0 100-1.3h-2.07a3.004 3.004 0 00-2.28-2.28v-2.07a.65.65 0 10-1.3 0v2h-1.7v-3a.65.65 0 10-1.3 0zm3.65 11.4a.6.6 0 01-.6.6H9.6a.6.6 0 01-.6-.6v-4.8a.6.6 0 01.6-.6h4.8a.6.6 0 01.6.6v4.8z" fill="#626F84"/></svg>