<svg viewBox="0 0 28 28" fill="none" xmlns="http://www.w3.org/2000/svg"><mask id="a" style="mask-type:alpha" maskUnits="userSpaceOnUse" x="0" y="4" width="28" height="20"><path d="M28 21a3 3 0 01-3 3H3a3 3 0 01-3-3V7a3 3 0 013-3h22a3 3 0 013 3v14z" fill="#fff"/></mask><g mask="url(#a)"><path d="M28 24V4H0l28 20z" fill="#2C8D3D"/><path d="M0 4l28 20H0V4z" fill="#2A3D98"/><path fill-rule="evenodd" clip-rule="evenodd" d="M15.985 12.23v-.066c0-.023.01-.052-.024-.06-.03-.008-.055.001-.077.026-.067.078-.2.064-.244-.025-.014-.029-.032-.048-.066-.044-.033.005-.056.025-.055.057.003.11-.08.172-.138.247-.027.034-.054.04-.065-.014-.008-.04-.034-.057-.073-.049-.038.008-.054.035-.053.073v.106c0 .03-.01.056-.03.079-.33.394-.748.603-1.268.592-.053-.001-.1-.003-.12-.066-.008-.025-.038-.034-.064-.043a.325.325 0 00-.177-.009c-.078.02-.14-.004-.2-.043a.764.764 0 01-.147-.134c-.084-.094-.157-.197-.231-.3-.018-.025-.035-.042-.07-.019-.09.062-.106.216-.027.29l.132.12c.06.058.066.237.01.297-.01.01-.026.022-.04.022-.119.003-.153.09-.154.18-.002.137-.057.22-.183.27a.26.26 0 00-.154.15c-.025.068-.006.103.072.155.057.038.092.002.123-.034.041-.047.075-.099.113-.147.017-.021.037-.034.07-.03.153.026.308.016.463.011.078-.002.146 0 .187.084.02.043.066.071.114.086.05.016.1.023.148-.005.067-.04.165-.034.22.017.043.04.092.06.15.066.104.013.211.012.313.05.117.043.171.118.18.242.022.275.003.548-.053.818-.008.037-.002.057.04.065.16.032.32.061.485.061.053 0 .072-.016.07-.068v-.345c0-.05.01-.1.037-.14.094-.136.106-.297.138-.452.01-.05.004-.1-.011-.15a.487.487 0 01.005-.262c.005-.026.019-.047.046-.048.098-.004.146-.072.18-.147.085-.19.236-.31.41-.41.076-.042.178-.06.181-.177 0-.002.002-.003.004-.005.05-.072.05-.072-.037-.104-.016-.006-.033-.012-.049-.02-.082-.033-.092-.052-.063-.135a.618.618 0 00.008-.41.571.571 0 01-.026-.202zm-3.743.299a2.71 2.71 0 01.36-.523 2.36 2.36 0 011.5-.784 2.39 2.39 0 012.578 1.66 2.372 2.372 0 01-.11 1.727l-.03.066c-.133.252-.295.48-.505.674a2.363 2.363 0 01-1.345.631 2.33 2.33 0 01-1.73-.457 2.33 2.33 0 01-.932-1.522 2.364 2.364 0 01.205-1.448l.01-.024z" fill="#FAC225"/><path fill-rule="evenodd" clip-rule="evenodd" d="M15.985 12.23a.571.571 0 00.026.204.618.618 0 01-.008.41c-.03.082-.019.101.063.135l.05.019c.086.032.086.032.036.104-.002.002-.004.003-.004.005-.003.118-.105.135-.18.177-.175.1-.326.22-.412.41-.033.075-.08.143-.179.147-.027 0-.04.022-.047.048a.488.488 0 00-.005.262c.016.05.022.1.012.15-.032.155-.044.316-.138.453a.244.244 0 00-.037.14v.344c.002.052-.017.068-.07.068-.165 0-.325-.029-.486-.06-.04-.009-.047-.03-.04-.066.057-.27.075-.543.055-.818-.01-.124-.064-.199-.181-.243-.102-.037-.209-.036-.314-.049a.253.253 0 01-.148-.066c-.056-.051-.154-.057-.221-.017-.048.028-.098.02-.148.005-.048-.015-.093-.043-.114-.086-.041-.085-.11-.086-.187-.084-.155.005-.31.015-.464-.01-.032-.005-.052.008-.069.029-.038.048-.072.1-.113.147-.031.036-.066.072-.124.034-.077-.052-.096-.087-.07-.156a.26.26 0 01.153-.149c.125-.05.181-.133.183-.27 0-.09.035-.177.154-.18.013 0 .03-.011.04-.022.056-.06.05-.239-.01-.296-.043-.041-.088-.08-.132-.121-.08-.074-.064-.228.027-.29.035-.023.051-.006.07.02.074.102.147.205.231.299.045.05.091.097.147.134.06.04.122.063.2.043a.324.324 0 01.177.01c.026.008.056.017.064.042.02.063.067.065.12.066.52.01.938-.198 1.269-.592a.114.114 0 00.029-.079v-.106c-.001-.038.015-.065.053-.073.04-.008.065.009.073.048.011.055.038.049.065.015.059-.075.14-.137.138-.247 0-.032.022-.053.055-.057.034-.004.052.015.066.044.044.089.177.103.244.025.022-.025.048-.034.077-.027.033.009.023.038.024.061v.067z" fill="#2E8D3C"/><path fill-rule="evenodd" clip-rule="evenodd" d="M26.18 10.694c.039 0 .078-.005.09-.05.01-.044-.022-.069-.054-.088a.167.167 0 00-.135-.02c-.054.016-.068.06-.032.102a.16.16 0 00.13.056zm-6.248 2.664a6.116 6.116 0 01-1.8-.283c-.046-.015-.09-.037-.136-.057-.016-.008-.034-.02-.033-.042.002-.027.027-.03.047-.036.074-.02.146.005.217.014.646.08 1.293.138 1.944.119a4.862 4.862 0 002.335-.672c.305-.177.597-.373.894-.56a.499.499 0 00.204-.266c.049-.14.12-.27.184-.405a1.24 1.24 0 00.119-.463c.007-.114-.052-.197-.122-.277-.083-.096-.196-.155-.288-.24-.271-.25-.587-.433-.911-.606-.524-.28-.975-.654-1.384-1.083-.036-.037-.074-.073-.108-.112-.06-.069-.039-.137.049-.161a.37.37 0 01.203-.002c.36.104.73.168 1.092.268.53.147 1.009.384 1.416.758.062.057.137.048.207.031.053-.012.069-.064.07-.113.002-.23.067-.453.065-.683a.43.43 0 00-.154-.355 1.85 1.85 0 01-.486-.655c-.055-.12-.085-.251-.168-.357a.605.605 0 01-.153-.36c-.005-.105-.064-.21-.111-.31-.073-.154-.155-.303-.237-.452a.158.158 0 01.013-.185c.046-.059.11-.044.17-.021a.4.4 0 01.108.066c.54.444 1.06.912 1.52 1.443.084.099.16.204.237.309.137.185.18.401.212.622.063.45.089.902.17 1.349.031.172.068.343.144.502a.476.476 0 00.486.271c.045-.006.088-.033.13-.052.206-.092.4-.059.587.051.05.029.098.058.145.089.038.024.076.049.11.078.04.036.09.078.08.134-.011.06-.077.069-.13.083-.023.005-.047.01-.06.034-.048.09-.13.13-.226.152-.043.009-.075.027-.086.078-.016.078-.073.125-.141.158a.904.904 0 01-.31.071.41.41 0 00-.172.053c-.16.092-.337.146-.511.204-.347.115-.702.204-1.036.357a9.861 9.861 0 00-1.046.565c-.21.129-.426.229-.67.27-.17.027-.32.104-.469.191a3.021 3.021 0 01-.635.257 5.32 5.32 0 01-1.575.231z" fill="#FAC225"/><path fill-rule="evenodd" clip-rule="evenodd" d="M27.8 13.65a.191.191 0 01-.158-.067c-.044-.051-.027-.104.038-.123a.2.2 0 01.162.024c.04.023.079.053.065.106-.013.055-.061.06-.108.06z" fill="#328E3C"/><path fill-rule="evenodd" clip-rule="evenodd" d="M8.534 15.61c.05.129.1.254.146.38.013.037.029.04.062.03.13-.04.261-.079.402-.12-.074.126-.14.244-.211.359-.022.035-.015.05.017.072.11.073.218.15.34.235l-.265.04-.065.01c-.134.024-.132.024-.12.155.01.103.014.207.021.327-.106-.1-.203-.185-.294-.277-.038-.038-.059-.032-.094.002-.092.089-.188.174-.295.27.008-.1.011-.187.021-.273.022-.185.024-.186-.156-.216l-.288-.047c.115-.078.215-.15.32-.214.055-.033.064-.058.029-.114-.066-.104-.123-.214-.192-.336.124.037.233.07.341.104.103.031.102.032.142-.066.04-.102.082-.205.124-.307.002-.004.006-.006.015-.014zM2.652 16.617c.053.139.103.261.148.386.015.041.03.047.072.033.125-.041.253-.077.393-.119-.075.13-.142.247-.21.362-.019.03-.02.045.013.067.112.074.221.153.344.239-.144.021-.274.044-.404.059-.048.005-.057.024-.053.067l.03.406c-.11-.102-.207-.19-.301-.283-.031-.03-.05-.03-.08 0l-.304.278c.01-.142.015-.27.032-.396.009-.065-.021-.074-.069-.081l-.387-.059c.121-.082.227-.158.337-.227.046-.028.043-.05.019-.091-.066-.11-.128-.223-.199-.348.134.042.257.076.377.119.054.02.075.012.094-.044.043-.12.095-.237.148-.368zM6.253 13.633c-.074.127-.14.244-.21.359-.022.034-.018.05.016.071.11.074.218.15.34.236l-.361.055a.148.148 0 01-.02.002c-.062 0-.084.026-.075.093.015.12.019.242.029.383l-.242-.226c-.097-.091-.097-.091-.195-.003l-.247.223c.01-.144.017-.275.032-.405.006-.05-.01-.06-.053-.067-.128-.018-.256-.04-.402-.064.117-.08.22-.153.328-.22.048-.03.055-.05.025-.1-.066-.107-.125-.218-.19-.334.065.002.116.03.17.044.039.009.076.023.114.035.154.047.154.047.215-.106l.112-.277c.051.132.099.252.142.372.017.047.033.064.089.045.122-.043.247-.076.383-.116zM6.307 20.826c-.065.113-.129.227-.197.339-.022.035-.016.05.016.071.11.074.219.151.34.236l-.244.038c-.07.011-.161 0-.203.041-.04.04.004.13.003.198-.002.079.018.158.01.248-.101-.093-.198-.18-.29-.271-.036-.035-.056-.032-.09.001-.094.09-.192.177-.297.273.01-.145.016-.275.033-.404.006-.054-.013-.064-.057-.07l-.381-.06c-.003-.027.022-.03.036-.04.095-.065.19-.13.287-.193.035-.022.042-.038.02-.076-.069-.113-.131-.23-.204-.359.139.043.264.079.386.12.047.017.064.007.08-.038.046-.122.097-.242.151-.375.051.132.1.251.143.372.017.048.034.062.088.045.12-.04.238-.082.362-.104a.097.097 0 00.008.008z" fill="#FCFCFE"/><path fill-rule="evenodd" clip-rule="evenodd" d="M6.097 19.373c.047-.154.086-.284.127-.414.012-.038.008-.061-.03-.085-.116-.077-.23-.158-.357-.247.149-.006.284-.016.419-.015.063.001.086-.023.102-.078.036-.123.077-.245.123-.388.055.15.104.277.148.407.015.042.036.055.08.054.139-.003.277 0 .43 0-.121.09-.23.176-.344.256-.035.026-.04.048-.026.086.047.128.09.256.124.395-.102-.068-.208-.13-.305-.205-.064-.048-.108-.051-.172.001-.095.08-.2.147-.32.233z" fill="#FBFBFE"/><path fill-rule="evenodd" clip-rule="evenodd" d="M4.924 21.756l.01-.01v.02a.136.136 0 01-.01-.01z" fill="#FCFCFE"/></g></svg>