<svg viewBox="0 0 24 24" fill="none" xmlns="http://www.w3.org/2000/svg"><path d="M14.479 12.44a.65.65 0 10-.957-.88l-2.04 2.218-1.022-1.023a.65.65 0 10-.92.919l1.282 1.281a.95.95 0 001.37-.029l2.287-2.486z" fill="#626F84"/><path fill-rule="evenodd" clip-rule="evenodd" d="M10.126 5a2 2 0 113.748 0H16a3 3 0 013 3v10a3 3 0 01-3 3H8a3 3 0 01-3-3V8a3 3 0 013-3h2.126zm1.866 0a.7.7 0 11.016 0h-.016zm-.006 1.3H9.347A1.7 1.7 0 0011 7.6h2a1.7 1.7 0 001.653-1.3h-2.639a2.209 2.209 0 01-.028 0zM8 6.3h.026A3 3 0 0011 8.9h2a3 3 0 002.974-2.6H16A1.7 1.7 0 0117.7 8v10a1.7 1.7 0 01-1.7 1.7H8A1.7 1.7 0 016.3 18V8A1.7 1.7 0 018 6.3z" fill="#626F84"/></svg>