<svg viewBox="0 0 24 24" fill="none" xmlns="http://www.w3.org/2000/svg"><path fill-rule="evenodd" clip-rule="evenodd" d="M10.126 5a2 2 0 113.748 0H16a3 3 0 013 3v10a3 3 0 01-3 3H8a3 3 0 01-3-3V8a3 3 0 013-3h2.126zm1.866 0a.7.7 0 11.016 0h-.016zm-.006 1.3H9.347A1.7 1.7 0 0011 7.6h2a1.7 1.7 0 001.653-1.3h-2.639a2.209 2.209 0 01-.028 0zm2.454 5.221a.65.65 0 01.039.919l-2.286 2.486a.95.95 0 01-1.371.03L9.54 13.673a.65.65 0 11.92-.92l1.023 1.024 2.038-2.218a.65.65 0 01.919-.039z" fill="#626F84"/></svg>