<svg viewBox="0 0 24 24" fill="none" xmlns="http://www.w3.org/2000/svg"><path fill-rule="evenodd" clip-rule="evenodd" d="M6 4a3 3 0 00-3 3v7.002a3 3 0 003 3h4V18.7H8.649a.65.65 0 100 1.3h6.702a.65.65 0 000-1.3H14v-1.698h4a3 3 0 003-3V7a3 3 0 00-3-3H6zm5.35 1.3H6A1.7 1.7 0 004.3 7v6.1h15.4V7A1.7 1.7 0 0018 5.3h-5.35v3.745l1.508-1.582a.65.65 0 11.94.897l-2.624 2.753a.648.648 0 01-.717.159l-.014-.006a.647.647 0 01-.218-.153l-2.58-2.757a.65.65 0 01.95-.889l1.455 1.556V5.3zM6 15.702A1.7 1.7 0 014.347 14.4h15.306A1.7 1.7 0 0118 15.702H6zm6.7 2.998v-1.4h-1.4v1.4h1.4z" fill="#626F84"/></svg>