<svg viewBox="0 0 24 24" fill="none" xmlns="http://www.w3.org/2000/svg"><path fill-rule="evenodd" clip-rule="evenodd" d="M4 7a3 3 0 013-3h10a3 3 0 013 3v10a3 3 0 01-3 3H7a3 3 0 01-3-3V7zm2.094 6.754a.65.65 0 01.65-.65h3.5a.65.65 0 01.65.65v3.5a.65.65 0 11-1.3 0v-1.93l-2.482 2.482a.65.65 0 01-.92-.92l2.483-2.482H6.744a.65.65 0 01-.65-.65zm4.154-7.664a.65.65 0 01.65.65v3.5a.65.65 0 01-.65.65h-3.5a.65.65 0 110-1.3h1.931L6.197 7.109a.65.65 0 01.92-.919l2.481 2.482v-1.93a.65.65 0 01.65-.65zm7.665 4.15a.65.65 0 01-.65.65h-3.501a.65.65 0 01-.65-.65v-3.5a.65.65 0 111.3 0v1.931l2.482-2.482a.65.65 0 01.92.92L15.33 9.59h1.931a.65.65 0 01.65.65zm-4.151 7.66a.65.65 0 01-.65-.65v-3.5a.65.65 0 01.65-.65h3.5a.65.65 0 110 1.3h-1.93l2.482 2.483a.65.65 0 11-.92.919l-2.482-2.482v1.93a.65.65 0 01-.65.65z" fill="#626F84"/></svg>