<svg viewBox="0 0 24 24" fill="none" xmlns="http://www.w3.org/2000/svg"><path fill-rule="evenodd" clip-rule="evenodd" d="M7.793 6.88V4.95a.65.65 0 111.3 0v2.8a1.35 1.35 0 01-1.35 1.35h-2.8a.65.65 0 010-1.3h1.93L4.188 5.113a.65.65 0 01.92-.919l2.686 2.687zm-3.501 8.666a.65.65 0 01.65-.65h2.8c.746 0 1.35.605 1.35 1.35v2.8a.65.65 0 11-1.3 0v-1.93l-2.686 2.686a.65.65 0 11-.92-.92l2.687-2.686H4.942a.65.65 0 01-.65-.65zm10.613 3.509a.65.65 0 101.3 0v-1.932l2.687 2.687a.65.65 0 00.919-.92l-2.687-2.686h1.931a.65.65 0 100-1.3h-2.8a1.35 1.35 0 00-1.35 1.35v2.8zM19.7 8.45a.65.65 0 01-.65.65h-2.8a1.35 1.35 0 01-1.35-1.35v-2.8a.65.65 0 111.3 0V6.88l2.686-2.687a.65.65 0 11.92.92L17.12 7.8h1.93a.65.65 0 01.65.65z" fill="#626F84"/></svg>