<svg viewBox="0 0 28 28" fill="none" xmlns="http://www.w3.org/2000/svg"><rect y="4" width="28" height="20" rx="3" fill="green"/><path fill-rule="evenodd" clip-rule="evenodd" d="M16.807 11.7a2.749 2.749 0 100 4.932 3.348 3.348 0 110-4.932z" fill="#FFE000"/><circle cx="4.79" cy="9.379" r="3.445" fill="#FFE000"/><path d="M18.562 12.044l.226.661.657-.236-.376.588.595.367-.696.073.084.694-.49-.498-.49.498.084-.694-.695-.073.595-.367-.377-.588.658.236.225-.661zM22.542 7.72l.225.661.658-.236-.376.589.594.367-.695.073.084.693-.49-.498-.49.498.084-.693-.695-.073.595-.367-.377-.589.658.236.225-.66zM26.088 11.011l.225.662.658-.236-.377.588.595.367-.695.073.084.694-.49-.499-.49.498.084-.693-.695-.073.594-.367-.376-.588.657.236.226-.662zM22.542 18.357l.225.662.658-.236-.376.588.594.367-.695.073.084.694-.49-.499-.49.498.084-.693-.695-.073.595-.367-.377-.588.658.236.225-.662zM24.158 14.148l.184.428.463.042-.35.308.103.454-.4-.238-.4.238.102-.454-.35-.308.464-.043.184-.427z" fill="#FFE000"/><path fill-rule="evenodd" clip-rule="evenodd" d="M5.066 8.746c.08 0 .145.064.146.144.008.884-.033 2.113-.425 2.926-.098.204-.734.147-.637-.054.486-1.008.784-1.72.773-2.87-.001-.08.063-.145.143-.146z" fill="#7B3100"/><path d="M3.577 7.257c.665.023.947.924 1.1.756-.138-1.787 1.405-1.049 1.36-1.039-.574.122-.846 1.068-.65 1.2.09.06.328-.306.65-.306.818 0 .92.827.87 1.183-.726-.458-1.248-.377-.924-.145.324.233.183.96.122 1.184-.168-.428-.706-.935-.962-.977-.321-.054-1.192 1.206-1.245.9-.053-.305.3-1.1.252-1.206-.071-.16-1.385.13-2.047.397-.043-.028-.004-.208.497-.702a1.92 1.92 0 011.435-.535c-.374-.244-.99-.728-.458-.71z" fill="green"/></svg>