<svg viewBox="0 0 24 24" fill="none" xmlns="http://www.w3.org/2000/svg"><path fill-rule="evenodd" clip-rule="evenodd" d="M3.35 12a8.65 8.65 0 1117.3 0 8.65 8.65 0 01-17.3 0zm4.164-5.405a.29.29 0 01.024-.436 7.313 7.313 0 013.487-1.445.29.29 0 01.325.292v2.61a.316.316 0 01-.252.305 4.153 4.153 0 00-1.344.557.316.316 0 01-.393-.037L7.514 6.595zm.964 3.159a.316.316 0 00-.037-.394L6.595 7.514a.29.29 0 00-.436.024 7.313 7.313 0 00-1.445 3.486.29.29 0 00.292.326h2.61a.316.316 0 00.305-.252c.107-.485.298-.939.557-1.344zm-.557 3.148a.316.316 0 00-.304-.252H5.006a.29.29 0 00-.292.325 7.313 7.313 0 001.445 3.487.29.29 0 00.436.024l1.846-1.847a.316.316 0 00.037-.393 4.151 4.151 0 01-.557-1.344zm1.833 2.62a.316.316 0 00-.393.037l-1.847 1.846a.29.29 0 00.024.436 7.313 7.313 0 003.487 1.445.29.29 0 00.325-.292v-2.61a.316.316 0 00-.252-.305 4.153 4.153 0 01-1.344-.557zm3.148.557a.316.316 0 00-.252.304v2.611a.29.29 0 00.326.292 7.313 7.313 0 003.486-1.445.29.29 0 00.024-.436l-1.846-1.846a.316.316 0 00-.394-.037c-.405.26-.859.45-1.344.557zm2.62-1.833a.316.316 0 00.037.393l1.846 1.847a.29.29 0 00.436-.024 7.313 7.313 0 001.445-3.486.29.29 0 00-.292-.326h-2.61a.316.316 0 00-.305.252 4.151 4.151 0 01-.557 1.344zm.557-3.148a.316.316 0 00.304.252h2.611a.29.29 0 00.292-.325 7.314 7.314 0 00-1.445-3.487.29.29 0 00-.436-.024L15.56 9.36a.316.316 0 00-.037.394c.26.405.45.859.557 1.344zm-1.833-2.62c.125.08.29.068.394-.037l1.846-1.846a.29.29 0 00-.024-.436 7.313 7.313 0 00-3.486-1.445.29.29 0 00-.326.292v2.61c0 .149.108.273.252.305.485.107.939.298 1.344.557zM9.123 12a2.877 2.877 0 115.754 0 2.877 2.877 0 01-5.754 0z" fill="#626F84"/></svg>