<svg viewBox="0 0 24 24" fill="none" xmlns="http://www.w3.org/2000/svg"><path d="M8.478 14.246a.316.316 0 01-.037.393L5.67 17.412a.292.292 0 01-.435-.02 8.609 8.609 0 01-1.831-4.42.292.292 0 01.293-.321h3.92c.147 0 .272.108.304.252.107.485.298.939.557 1.344zM8.441 9.36a.316.316 0 01.037.394c-.26.405-.45.859-.557 1.344a.316.316 0 01-.304.252h-3.92a.292.292 0 01-.293-.322 8.609 8.609 0 011.83-4.419.292.292 0 01.436-.02L8.44 9.36zM11.35 7.617a.316.316 0 01-.252.304 4.153 4.153 0 00-1.344.557.316.316 0 01-.394-.037L6.59 5.67a.292.292 0 01.02-.435 8.609 8.609 0 014.42-1.831.292.292 0 01.32.293v3.92zM14.64 8.441a.316.316 0 01-.394.037 4.153 4.153 0 00-1.344-.557.316.316 0 01-.252-.304v-3.92c0-.174.148-.312.322-.293a8.609 8.609 0 014.419 1.83.292.292 0 01.02.436L14.639 8.44zM16.383 11.35a.316.316 0 01-.304-.252 4.154 4.154 0 00-.557-1.344.316.316 0 01.037-.394L18.33 6.59a.292.292 0 01.435.02 8.609 8.609 0 011.831 4.42.292.292 0 01-.293.321h-3.92zM15.559 14.64a.316.316 0 01-.037-.394c.26-.405.45-.859.557-1.344a.316.316 0 01.304-.252h3.92c.174 0 .312.148.293.322a8.61 8.61 0 01-1.83 4.419.292.292 0 01-.436.02l-2.771-2.772zM12.65 16.383c0-.148.108-.272.252-.304a4.153 4.153 0 001.344-.557.316.316 0 01.393.037l2.772 2.771a.292.292 0 01-.02.435 8.61 8.61 0 01-4.42 1.831.292.292 0 01-.321-.293v-3.92zM11.35 16.383a.316.316 0 00-.252-.304 4.15 4.15 0 01-1.344-.557.316.316 0 00-.394.037L6.59 18.33a.292.292 0 00.02.435 8.61 8.61 0 004.42 1.831.292.292 0 00.32-.293v-3.92z" fill="#626F84"/></svg>