<svg viewBox="0 0 24 24" fill="none" xmlns="http://www.w3.org/2000/svg"><path fill-rule="evenodd" clip-rule="evenodd" d="M8.705 12.667c.36 0 .651-.293.651-.654a.653.653 0 00-.65-.655H7.328V9.974a.653.653 0 00-.65-.655c-.36 0-.652.293-.652.655v1.384H4.651c-.36 0-.651.293-.651.655 0 .361.291.654.65.654h1.377v1.385c0 .362.292.655.651.655.36 0 .65-.293.65-.655v-1.385h1.377zm4.955 6.024h2.686a2.36 2.36 0 002.352-2.367V7.676a2.36 2.36 0 00-2.352-2.367H13.66v13.382zM12.358 5.309H9.361a2.039 2.039 0 00-2.033 2.045.653.653 0 01-.65.654.653.653 0 01-.651-.654A3.344 3.344 0 019.36 4h6.985C18.364 4 20 5.646 20 7.676v8.648C20 18.354 18.364 20 16.346 20H9.325a3.308 3.308 0 01-3.298-3.317c0-.362.291-.655.65-.655.36 0 .651.293.651.655 0 1.109.894 2.008 1.997 2.008h3.033V5.309z" fill="#626F84"/></svg>