<svg viewBox="0 0 24 24" fill="none" xmlns="http://www.w3.org/2000/svg"><path fill-rule="evenodd" clip-rule="evenodd" d="M15.295 12.667a.653.653 0 01-.651-.654c0-.362.291-.655.65-.655h1.377V9.974c0-.362.291-.655.65-.655.36 0 .652.293.652.655v1.384h1.376c.36 0 .651.293.651.655a.653.653 0 01-.65.654h-1.377v1.385a.653.653 0 01-.651.655.653.653 0 01-.65-.655v-1.385h-1.377zm-4.955 6.024H7.654a2.36 2.36 0 01-2.352-2.367V7.676a2.36 2.36 0 012.352-2.367h2.686v13.382zm1.302-13.382h2.997c1.123 0 2.033.916 2.033 2.045 0 .361.291.654.65.654.36 0 .651-.293.651-.654A3.344 3.344 0 0014.64 4H7.654C5.636 4 4 5.646 4 7.676v8.648C4 18.354 5.636 20 7.654 20h7.021a3.308 3.308 0 003.298-3.317.653.653 0 00-.65-.655c-.36 0-.651.293-.651.655 0 1.109-.894 2.008-1.997 2.008h-3.033V5.309z" fill="#626F84"/></svg>