<svg viewBox="0 0 24 24" fill="none" xmlns="http://www.w3.org/2000/svg"><path d="M4.25 6.655c0-.362.291-.655.65-.655h5.035c.359 0 .65.293.65.655a.653.653 0 01-.65.656H4.9a.653.653 0 01-.65-.656zM4.25 12c0-.362.291-.655.65-.655h5.035c.359 0 .65.293.65.655a.653.653 0 01-.65.655H4.9A.653.653 0 014.25 12zM4.9 16.69a.653.653 0 00-.65.654c0 .362.291.656.65.656h5.035c.359 0 .65-.294.65-.655a.653.653 0 00-.65-.656H4.9zM13.403 6.655c0-.362.291-.655.651-.655H19.1c.36 0 .651.293.651.655a.653.653 0 01-.651.655h-5.045a.653.653 0 01-.651-.655zM13.403 11.998c0-.362.291-.655.651-.655H19.1c.36 0 .651.293.651.655a.653.653 0 01-.651.655h-5.045a.653.653 0 01-.651-.655zM14.054 16.686a.653.653 0 00-.65.655c0 .362.29.655.65.655H19.1c.36 0 .651-.293.651-.655a.653.653 0 00-.651-.655h-5.045z" fill="#626F84"/></svg>