<svg viewBox="0 0 28 28" fill="none" xmlns="http://www.w3.org/2000/svg"><rect x=".25" y="4.25" width="27.5" height="19.5" rx="2.75" fill="#fff" stroke="#D6D8DD" stroke-width=".5"/><mask id="a" style="mask-type:alpha" maskUnits="userSpaceOnUse" x="0" y="4" width="28" height="20"><rect x=".25" y="4.25" width="27.5" height="19.5" rx="2.75" fill="#fff" stroke="#fff" stroke-width=".5"/></mask><g mask="url(#a)" fill-rule="evenodd" clip-rule="evenodd"><path d="M0 9.333h28V4H0v5.333z" fill="#FFCB49"/><path d="M0 18.667h28v-5.334H0v5.334z" fill="#DC1D34"/><path d="M0 24h28v-5.333H0V24z" fill="#4985D4"/><path d="M0 24l13.333-10L0 4v20z" fill="#4BA343"/><path d="M5.333 18c.346 0 .68-.044 1-.126a4.002 4.002 0 010-7.748 4 4 0 10-1 7.874zM8 11.333a.667.667 0 11-1.333 0 .667.667 0 011.333 0zm-.667 3.334a.667.667 0 100-1.334.667.667 0 000 1.334zm.667 2a.667.667 0 11-1.333 0 .667.667 0 011.333 0z" fill="#fff"/></g></svg>