<svg viewBox="0 0 24 24" fill="none" xmlns="http://www.w3.org/2000/svg"><path d="M9.827 10.966a.65.65 0 01.117.911l-.86 1.114.866 1.154a.65.65 0 11-1.04.78l-1.162-1.55a.65.65 0 01.005-.787l1.162-1.505a.65.65 0 01.912-.117zM14.056 14.138a.65.65 0 001.029.794l1.162-1.504a.65.65 0 00.005-.787l-1.161-1.55a.65.65 0 00-1.04.779l.864 1.155-.86 1.113zM12.62 10.738a.65.65 0 01.463.795l-.87 3.29a.65.65 0 11-1.257-.331l.87-3.292a.65.65 0 01.794-.462z" fill="#626F84"/><path fill-rule="evenodd" clip-rule="evenodd" d="M7 3a3 3 0 00-3 3v12a3 3 0 003 3h10a3 3 0 003-3V9.3a3 3 0 00-.948-2.189l-3.52-3.3A3 3 0 0013.48 3H7zm6.48 1.3H7A1.7 1.7 0 005.3 6v12A1.7 1.7 0 007 19.7h10a1.7 1.7 0 001.7-1.7V9.3c0-.1-.009-.2-.026-.297H16a1.95 1.95 0 01-1.95-1.95V4.398a1.7 1.7 0 00-.57-.098zm1.87 1.122l2.432 2.28H16a.65.65 0 01-.65-.65v-1.63z" fill="#626F84"/></svg>