<svg viewBox="0 0 24 24" fill="none" xmlns="http://www.w3.org/2000/svg"><path fill-rule="evenodd" clip-rule="evenodd" d="M7 3a3 3 0 00-3 3v12a3 3 0 003 3h10a3 3 0 003-3V9.3a3 3 0 00-.948-2.189l-3.52-3.3A3 3 0 0013.48 3H7zm11.402 5.402a.35.35 0 01-.247.598h-2.819C14.598 9 14 8.362 14 7.575v-2.73a.35.35 0 01.598-.248l3.804 3.805zm-8.575 2.533a.65.65 0 01.117.912l-.86 1.113.866 1.155a.65.65 0 01-1.04.78l-1.162-1.55a.65.65 0 01.005-.788l1.162-1.505a.65.65 0 01.912-.117zm4.229 3.172a.65.65 0 101.029.795l1.161-1.505a.65.65 0 00.006-.787l-1.162-1.55a.65.65 0 00-1.04.78l.865 1.154-.86 1.114zm-1.436-3.4a.65.65 0 01.462.795l-.87 3.291a.65.65 0 11-1.256-.332l.87-3.291a.65.65 0 01.794-.462z" fill="#626F84"/></svg>