<svg viewBox="0 0 24 24" fill="none" xmlns="http://www.w3.org/2000/svg"><path fill-rule="evenodd" clip-rule="evenodd" d="M15.3 6.3a3.3 3.3 0 11-6.6 0 3.3 3.3 0 016.6 0zm-1.3 0a2 2 0 11-4 0 2 2 0 014 0zM15.302 17.698a3.302 3.302 0 11-6.604 0 3.302 3.302 0 016.604 0zm-1.3 0a2.002 2.002 0 11-4.004 0 2.002 2.002 0 014.004 0zM9.6 12A3.3 3.3 0 103 12a3.3 3.3 0 006.6 0zm-1.3 0a2 2 0 10-4 0 2 2 0 004 0zM17.7 8.701a3.3 3.3 0 11.001 6.598 3.3 3.3 0 010-6.598zm0 1.3a1.999 1.999 0 11.001 3.998 1.999 1.999 0 010-3.998z" fill="#626F84"/></svg>