<svg viewBox="0 0 24 24" fill="none" xmlns="http://www.w3.org/2000/svg"><path d="M17.65 21.003a3 3 0 003-3v-10a3 3 0 00-2.516-2.96 2.994 2.994 0 00-.114-.567.65.65 0 10-1.244.38c.015.048.028.097.038.147H9.65a3 3 0 00-3 3v9.664a1.691 1.691 0 01-.147-.037.65.65 0 00-.379 1.243c.222.068.455.11.695.125a3.001 3.001 0 002.831 2.005h8zM5.374 16.5a.65.65 0 01-1.243.38 3 3 0 01-.13-.876v-.944a.65.65 0 111.3 0v.944c0 .174.025.34.073.496zM5.3 11.946a.65.65 0 11-1.3 0v-1.888a.65.65 0 011.3 0v1.888zM5.3 6.944a.65.65 0 01-1.3 0V6c0-.37.056-.728.159-1.066a.65.65 0 111.243.38A2.35 2.35 0 005.3 6v.944zM6.964 3.752a.65.65 0 01-.38-1.244A3.65 3.65 0 017.65 2.35h.647a.65.65 0 010 1.3H7.65c-.24 0-.47.036-.686.102zM16.024 2.48a.65.65 0 11-.38 1.244 1.703 1.703 0 00-.497-.074h-.768a.65.65 0 110-1.3h.768c.304 0 .599.045.877.13zM10.43 3.65a.65.65 0 110-1.3h1.414a.65.65 0 110 1.3h-1.415z" fill="#626F84"/></svg>