<svg viewBox="0 0 24 24" fill="none" xmlns="http://www.w3.org/2000/svg"><mask id="a" fill="#fff"><path d="M14.232 2.975a.65.65 0 01-.03.919L12.645 5.35H15A3.65 3.65 0 0118.65 9v3.713a.65.65 0 11-1.3 0V9A2.35 2.35 0 0015 6.65h-2.375l1.58 1.507a.65.65 0 01-.896.941l-2.741-2.613a.648.648 0 01-.007-.965l2.752-2.575a.65.65 0 01.919.03zM6.646 8.93A.657.657 0 016.65 9v11.359a.65.65 0 11-1.3 0V9c0-.024.001-.047.004-.07a3.001 3.001 0 111.292 0zM18.65 15.28a.65.65 0 10-1.3 0v1.89h-1.89a.65.65 0 100 1.3h1.89v1.889a.65.65 0 101.3 0v-1.89h1.89a.65.65 0 000-1.3h-1.89V15.28z"/></mask><path d="M14.232 2.975a.65.65 0 01-.03.919L12.645 5.35H15A3.65 3.65 0 0118.65 9v3.713a.65.65 0 11-1.3 0V9A2.35 2.35 0 0015 6.65h-2.375l1.58 1.507a.65.65 0 01-.896.941l-2.741-2.613a.648.648 0 01-.007-.965l2.752-2.575a.65.65 0 01.919.03zM6.646 8.93A.657.657 0 016.65 9v11.359a.65.65 0 11-1.3 0V9c0-.024.001-.047.004-.07a3.001 3.001 0 111.292 0zM18.65 15.28a.65.65 0 10-1.3 0v1.89h-1.89a.65.65 0 100 1.3h1.89v1.889a.65.65 0 101.3 0v-1.89h1.89a.65.65 0 000-1.3h-1.89V15.28z" fill="#626F84"/><path d="M14.232 2.975a.65.65 0 01-.03.919L12.645 5.35H15A3.65 3.65 0 0118.65 9v3.713a.65.65 0 11-1.3 0V9A2.35 2.35 0 0015 6.65h-2.375l1.58 1.507a.65.65 0 01-.896.941l-2.741-2.613a.648.648 0 01-.007-.965l2.752-2.575a.65.65 0 01.919.03zM6.646 8.93A.657.657 0 016.65 9v11.359a.65.65 0 11-1.3 0V9c0-.024.001-.047.004-.07a3.001 3.001 0 111.292 0zM18.65 15.28a.65.65 0 10-1.3 0v1.89h-1.89a.65.65 0 100 1.3h1.89v1.889a.65.65 0 101.3 0v-1.89h1.89a.65.65 0 000-1.3h-1.89V15.28z" stroke="#626F84" stroke-width="2.6" mask="url(#a)"/></svg>