<svg viewBox="0 0 24 24" fill="none" xmlns="http://www.w3.org/2000/svg"><path d="M9 10.293a.7.7 0 100-1.4.7.7 0 000 1.4zM15.002 15.107a.7.7 0 100-1.4.7.7 0 000 1.4z" fill="#626F84"/><path fill-rule="evenodd" clip-rule="evenodd" d="M8.14 1.95a.65.65 0 01.65.65v1.39h2.56V2.6a.65.65 0 111.3 0v1.39h2.55V2.6a.65.65 0 111.3 0v1.39h.5c1.65 0 3 1.34 3 3V17c0 1.66-1.34 3-3 3H7c-1.66 0-3-1.34-3-3V6.99c0-1.66 1.34-3 3-3h.49V2.6a.65.65 0 01.65-.65zM9 11.593a2 2 0 100-4 2 2 0 000 4zm6.506-2.19a.65.65 0 00-.922-.915L8.58 14.53a.65.65 0 10.922.916l6.004-6.042zm-.504 7.004a2 2 0 100-4 2 2 0 000 4z" fill="#626F84"/></svg>