<svg viewBox="0 0 24 24" fill="none" xmlns="http://www.w3.org/2000/svg"><path fill-rule="evenodd" clip-rule="evenodd" d="M15.26 10.827H13.6a.603.603 0 00-.603.603v4.558a.603.603 0 00.652.604.65.65 0 00.65-.65v-.785h.914c1.196 0 2.165-.97 2.165-2.165v-.022-.017a2.126 2.126 0 00-2.12-2.126zm-.96 3.03h.914a.865.865 0 100-1.73H14.3v1.73z" fill="#626F84"/><path d="M8.873 14.365H8.43v1.583a.65.65 0 11-1.3 0v-4.466a.65.65 0 111.3 0v1.583h.5a.651.651 0 01.045-.061l1.625-1.94a.65.65 0 11.997.835l-1.55 1.85 1.493 1.781a.65.65 0 01-.996.835l-1.625-1.939a.64.64 0 01-.046-.061z" fill="#626F84"/><path fill-rule="evenodd" clip-rule="evenodd" d="M3 16a3 3 0 003 3h12a3 3 0 003-3V8a3 3 0 00-3-3H6a3 3 0 00-3 3v8zm15-9.7A1.7 1.7 0 0119.7 8v.29H4.495a.65.65 0 00-.195.03V8A1.7 1.7 0 016 6.3h12zM4.3 9.56V16A1.7 1.7 0 006 17.7h12a1.7 1.7 0 001.7-1.7V9.59H4.495a.65.65 0 01-.195-.03z" fill="#626F84"/></svg>