<svg viewBox="0 0 24 24" fill="none" xmlns="http://www.w3.org/2000/svg"><path fill-rule="evenodd" clip-rule="evenodd" d="M9 12.672a2 2 0 100-4 2 2 0 000 4zm0-1.3a.7.7 0 100-1.4.7.7 0 000 1.4z" fill="#626F84"/><path d="M15.506 10.483a.65.65 0 00-.922-.916l-6.003 6.042a.65.65 0 10.922.916l6.003-6.042z" fill="#626F84"/><path fill-rule="evenodd" clip-rule="evenodd" d="M17.003 15.486a2 2 0 11-4 0 2 2 0 014 0zm-1.3 0a.7.7 0 11-1.4 0 .7.7 0 011.4 0z" fill="#626F84"/><path fill-rule="evenodd" clip-rule="evenodd" d="M8.79 2.6a.65.65 0 00-1.3 0v1.39H7c-1.66 0-3 1.34-3 3V17c0 1.66 1.34 3 3 3h10c1.66 0 3-1.34 3-3V6.99c0-1.66-1.35-3-3-3h-.5V2.6a.65.65 0 10-1.3 0v1.39h-2.55V2.6a.65.65 0 10-1.3 0v1.39H8.79V2.6zm-1.3 2.69v1.57a.65.65 0 101.3 0V5.29h2.56v1.57a.65.65 0 101.3 0V5.29h2.55v1.57a.65.65 0 101.3 0V5.29h.5c.94 0 1.7.76 1.7 1.7V17c0 .94-.76 1.7-1.7 1.7H7c-.94 0-1.7-.76-1.7-1.7V6.99c0-.94.76-1.7 1.7-1.7h.49z" fill="#626F84"/></svg>