<svg viewBox="0 0 28 28" fill="none" xmlns="http://www.w3.org/2000/svg"><rect x=".25" y="4.25" width="27.5" height="19.5" rx="2.75" fill="#fff" stroke="#D6D8DD" stroke-width=".5"/><mask id="a" style="mask-type:alpha" maskUnits="userSpaceOnUse" x="0" y="4" width="28" height="20"><rect x=".25" y="4.25" width="27.5" height="19.5" rx="2.75" fill="#fff" stroke="#fff" stroke-width=".5"/></mask><g mask="url(#a)" fill-rule="evenodd" clip-rule="evenodd"><path d="M0 10.667h28V4H0v6.667z" fill="#FF202D"/><path opacity=".5" d="M10.667 9.333l.666-.666.667.666v1.334h-1.333V9.333zm2.666 0L14 8.667l.667.666v1.334h-1.334V9.333zm3.334-.666L16 9.333v1.334h1.333V9.333l-.666-.666z" fill="#1895DB"/><path opacity=".5" d="M12.667 8.667L12 9.333v1.334h1.333V9.333l-.666-.666zm2.666 0l-.666.666v1.334H16V9.333l-.667-.666z" fill="#191F94"/><path d="M0 24h28v-6.667H0V24z" fill="#2027AC"/><path d="M12 10.667h-.667L10.667 12H12v1.333h-1.333v1.334H12V16h-1.333v1.333H12v1.334h1.333v-1.334h1.334v1.334H16v-1.334h1.333V16H16v-1.333h1.333v-1.334H16V12h1.333l-.666-1.333H16V12h-1.333v-1.333h-1.334V12H12v-1.333zm1.333 2.666V12h1.334v1.333h-1.334zm0 1.334v-1.334H12v1.334h1.333zm1.334 0h-1.334V16H12v1.333h1.333V16h1.334v1.333H16V16h-1.333v-1.333zm0 0H16v-1.334h-1.333v1.334z" fill="url(#paint0_linear_17_5943)"/></g><defs><linearGradient id="paint0_linear_17_5943" x1="10.667" y1="10.667" x2="10.667" y2="18.667" gradientUnits="userSpaceOnUse"><stop stop-color="#FF212E"/><stop offset="1" stop-color="#FD0D1B"/></linearGradient></defs></svg>