<svg viewBox="0 0 28 28" fill="none" xmlns="http://www.w3.org/2000/svg"><rect y="4" width="28" height="20" rx="3" fill="#fff"/><mask id="a" style="mask-type:alpha" maskUnits="userSpaceOnUse" x="0" y="4" width="28" height="20"><rect y="4" width="28" height="20" rx="3" fill="#fff"/></mask><g mask="url(#a)"><path fill="#19BFBF" d="M0 4h28v20H0z"/><path fill-rule="evenodd" clip-rule="evenodd" d="M10 20.041c0-.027.003-.054.01-.08l.657-2.628.643-2.572a.333.333 0 00-.007-.186l-.593-1.777a.333.333 0 00-.167-.193l-1.025-.513a.333.333 0 01-.185-.298V9.412c0-.052.012-.103.036-.149L10 8l.575-1.149a.333.333 0 01.298-.184h3.46c.184 0 .334.149.334.333v.667c0 .184.149.333.333.333h.667c.184 0 .333.15.333.333v.794c0 .127.071.242.184.298l2.298 1.15a.333.333 0 01.185.298v1.048a.334.334 0 01-.036.15l-.591 1.183a.334.334 0 01-.114.129l-1.852 1.235a.334.334 0 00-.114.128l-1.254 2.508a.334.334 0 01-.113.128l-1.853 1.236a.334.334 0 00-.113.128l-1.202 2.403a.333.333 0 01-.298.184h-.794A.333.333 0 0110 21v-.959z" fill="#fff"/></g></svg>