<svg viewBox="0 0 28 28" fill="none" xmlns="http://www.w3.org/2000/svg"><rect x=".25" y="4.25" width="27.5" height="19.5" rx="2.75" fill="#fff" stroke="#D6D8DD" stroke-width=".5"/><mask id="a" style="mask-type:alpha" maskUnits="userSpaceOnUse" x="0" y="4" width="28" height="20"><rect x=".25" y="4.25" width="27.5" height="19.5" rx="2.75" fill="#fff" stroke="#fff" stroke-width=".5"/></mask><g mask="url(#a)" fill-rule="evenodd" clip-rule="evenodd"><path d="M0 8h28V4H0v4zM0 16h28v-4H0v4zM0 24h28v-4H0v4z" fill="#0B389F"/><path d="M0 4l13.333 10L0 24V4z" fill="#E12A43"/><path d="M4.667 15.023l-1.568 1.134.595-1.841-1.563-1.14 1.935-.003.6-1.84.602 1.84 1.935.003-1.564 1.14.595 1.841-1.567-1.134z" fill="#fff"/></g></svg>