<svg viewBox="0 0 24 24" fill="none" xmlns="http://www.w3.org/2000/svg"><path fill-rule="evenodd" clip-rule="evenodd" d="M10.797 4.252l-5 2.187A3 3 0 004 9.187v6.076a3 3 0 001.798 2.749l5 2.187a3 3 0 002.405 0l5-2.187A3 3 0 0020 15.263V9.188a3 3 0 00-1.797-2.749l-5-2.187a3 3 0 00-2.405 0zm.522 1.19l-5 2.188c-.077.034-.15.073-.22.116-.177.11-.13.358.061.441l5.563 2.435a.65.65 0 00.52 0l5.592-2.438c.19-.083.238-.332.06-.441a1.703 1.703 0 00-.214-.113l-5-2.187a1.7 1.7 0 00-1.362 0zM5.3 15.264V9.69a.3.3 0 01.42-.275l5.482 2.399a.24.24 0 01.148.216v6.959a.022.022 0 01-.031.02l-5-2.187A1.7 1.7 0 015.3 15.263zm7.35 3.725c0 .016.016.027.031.02l5-2.187a1.7 1.7 0 001.019-1.558v-5.58a.3.3 0 00-.42-.275l-5.517 2.406a.185.185 0 00-.113.167v7.007z" fill="#626F84"/></svg>