<svg viewBox="0 0 24 24" fill="none" xmlns="http://www.w3.org/2000/svg"><path fill-rule="evenodd" clip-rule="evenodd" d="M21 12a9 9 0 11-18 0 9 9 0 0118 0zM8.662 16.226a1.123 1.123 0 100-2.246 1.123 1.123 0 000 2.246zm0 1.3a2.423 2.423 0 002.126-3.586l.988-.989 4.393 4.393a.65.65 0 00.92-.92l-6.319-6.318a2.423 2.423 0 10-.921.917l1.008 1.009-.976.976a2.423 2.423 0 10-1.218 4.518zM9.785 8.91a1.123 1.123 0 11-2.246 0 1.123 1.123 0 012.246 0zm3.36.834a.65.65 0 00.92.919l3.098-3.099a.65.65 0 10-.92-.919l-3.097 3.099z" fill="#626F84"/></svg>