<svg viewBox="0 0 24 24" fill="none" xmlns="http://www.w3.org/2000/svg"><path fill-rule="evenodd" clip-rule="evenodd" d="M3.028 7.588c-.053.383.285.702.672.702h16.665c.35 0 .655-.286.615-.635A3.001 3.001 0 0018 5H6a3 3 0 00-2.972 2.588zM3 10.27a.7.7 0 01.7-.7h16.6a.7.7 0 01.7.7V16a3 3 0 01-3 3H6a3 3 0 01-3-3v-5.73zm7.92 1.765a.653.653 0 00-.645.757l.394 2.465a1.342 1.342 0 002.65.004l.402-2.468a.653.653 0 00-1.288-.217l-.34 1.944c-.019.11-.177.11-.196 0l-.333-1.942a.653.653 0 00-.644-.543zm3.949.757a.653.653 0 011.288-.214l.334 1.941c.019.11.177.111.196 0l.34-1.943a.653.653 0 011.288.217l-.402 2.468a1.342 1.342 0 01-2.65-.004l-.394-2.465zm-7.253.363c-.225 0-.64.288-.64.965 0 .676.415.964.64.964.121 0 .265-.059.398-.222a.65.65 0 011.007.822c-.332.408-.824.7-1.405.7-1.2 0-1.94-1.158-1.94-2.264 0-1.107.74-2.265 1.94-2.265.536 0 .998.25 1.327.61a.65.65 0 01-.96.877c-.124-.136-.254-.187-.367-.187z" fill="#626F84"/></svg>