<svg viewBox="0 0 24 24" fill="none" xmlns="http://www.w3.org/2000/svg"><path fill-rule="evenodd" clip-rule="evenodd" d="M9.978 5.083c.13-.238-.074-.532-.333-.453a7.76 7.76 0 109.688 9.757c.081-.258-.212-.463-.45-.336a6.6 6.6 0 01-8.904-8.967zm10.853 6.537a.648.648 0 00-1.01.038.549.549 0 01-.059.068 5.3 5.3 0 11-7.487-7.477.742.742 0 00.146-.176l.03-.045a.647.647 0 00-.07-.86.482.482 0 00-.297-.162.652.652 0 00-.153-.018 9.06 9.06 0 108.944 10.519c.082-.49.125-.994.125-1.507a.486.486 0 00-.17-.38z" fill="#626F84"/></svg>