<svg viewBox="0 0 24 24" fill="none" xmlns="http://www.w3.org/2000/svg"><path fill-rule="evenodd" clip-rule="evenodd" d="M13.343 16.402a.65.65 0 00.46.19h1.89a1.84 1.84 0 100-3.68h-1.24v-.786h1.834a.65.65 0 100-1.3h-2.484a.65.65 0 00-.65.65v4.466a.65.65 0 00.19.46zm1.11-2.19h1.24a.54.54 0 010 1.08h-1.24v-1.08zM8.264 10.834a.65.65 0 00-.65.65v1.214a4.35 4.35 0 01-.445 1.916l-.323.658a.713.713 0 00-.01.02h-.294a.65.65 0 100 1.3h5.278a.65.65 0 000-1.3h-.391v-3.808a.65.65 0 00-.65-.65H8.264zm1.865 4.458v-3.158H8.914v.564a5.65 5.65 0 01-.578 2.488l-.052.106h1.845z" fill="#626F84"/><path fill-rule="evenodd" clip-rule="evenodd" d="M6 19a3 3 0 01-3-3V8a3 3 0 013-3h12a3 3 0 013 3v8a3 3 0 01-3 3H6zM19.7 8A1.7 1.7 0 0018 6.3H6A1.7 1.7 0 004.3 8v.32a.65.65 0 01.195-.03H19.7V8zM4.3 16V9.56a.65.65 0 00.195.03H19.7V16a1.7 1.7 0 01-1.7 1.7H6A1.7 1.7 0 014.3 16z" fill="#626F84"/></svg>