<svg viewBox="0 0 24 24" fill="none" xmlns="http://www.w3.org/2000/svg"><path fill-rule="evenodd" clip-rule="evenodd" d="M4.998 2.135a.65.65 0 01.911.119l1.386 1.8H17a3 3 0 013 3v10.067c0 .869-.37 1.651-.96 2.2l1.28 1.663a.65.65 0 01-1.03.793L4.879 3.047a.65.65 0 01.119-.912zM18.24 18.282c.285-.304.459-.712.459-1.161v-4.456h-4.78l4.321 5.617zm-5.322-6.917l-.265-.345V5.355H17a1.7 1.7 0 011.7 1.7v4.31h-5.78zM11.354 9.33L8.295 5.355h3.059V9.33zM4 7.055c0-.778.296-1.487.782-2.02l.815 1.059a1.692 1.692 0 00-.297.96v4.311h4.353l1 1.3H5.3v4.456a1.7 1.7 0 001.7 1.7h4.354v-5.246l1.3 1.69v3.556h2.735l1 1.3H7a3 3 0 01-3-3V7.055z" fill="#626F84"/></svg>