<svg viewBox="0 0 24 24" fill="none" xmlns="http://www.w3.org/2000/svg"><path d="M14.48 9.12a.65.65 0 10-1.3 0v6.35a.65.65 0 001.3 0V9.12zM10.18 8.47a.65.65 0 01.65.65v6.35a.65.65 0 01-1.3 0V9.12a.65.65 0 01.65-.65z" fill="#626F84"/><path fill-rule="evenodd" clip-rule="evenodd" d="M12 2.02a.65.65 0 01.65.65v1.98h7.03a.65.65 0 110 1.3h-.784l-.776 11.49a2.991 2.991 0 01-2.99 2.81H8.77c-1.58 0-2.89-1.23-2.99-2.81L5.023 5.95H4.33a.65.65 0 110-1.3h7.02V2.67a.65.65 0 01.65-.65zM6.378 5.95l.702 11.4c.06.9.8 1.6 1.7 1.6h6.36c.9 0 1.64-.7 1.7-1.59l.703-11.41H6.378z" fill="#626F84"/></svg>