<svg viewBox="0 0 24 24" fill="none" xmlns="http://www.w3.org/2000/svg"><path fill-rule="evenodd" clip-rule="evenodd" d="M5.068 2.227a.65.65 0 10-1.03.792L6.67 6.441v.001l1.3 1.69v-.001l10.497 13.642a.65.65 0 001.03-.792l-1.328-1.726A3 3 0 0020.65 16.3V6.305a3 3 0 00-3-3H9.67c-1.116 0-2.09.61-2.607 1.515L5.068 2.227zm2.925 3.801A1.7 1.7 0 019.67 4.605h7.98a1.7 1.7 0 011.7 1.7V16.3a1.7 1.7 0 01-1.7 1.7h-.447L7.993 6.028z" fill="#626F84"/><path d="M4.628 8.681a.65.65 0 01.65.65v9.02a2.35 2.35 0 002.35 2.35h8.001a.65.65 0 110 1.3h-8a3.65 3.65 0 01-3.65-3.65v-9.02a.65.65 0 01.65-.65z" fill="#626F84"/><path d="M9.67 18h4.252l1 1.3H9.67a3 3 0 01-3-3V8.574l1.3 1.69V16.3a1.7 1.7 0 001.7 1.7z" fill="#626F84"/></svg>