<svg viewBox="0 0 25 24" fill="none" xmlns="http://www.w3.org/2000/svg"><path d="M10.847 3a1.303 1.303 0 00-.027.265v1.64a1.3 1.3 0 002.6 0v-1.64c0-.091-.01-.18-.027-.265h2.662a3 3 0 013 3v5.417c0 .39-.323.697-.704.782a3.124 3.124 0 00-.176.044l-5.393 1.527c-.441 0-.65-.5-.154-.833 1.473-.95 1.606-3 .656-4.425a3.335 3.335 0 00-4.51-.999L6.248 9.051a.7.7 0 01-1.064-.598V6a3 3 0 013-3h2.663z" fill="#626F84"/><path d="M3.928 11.986a3 3 0 00-1.406 3.012l.232 1.529a3 3 0 002.397 2.496l5.839 1.128a3 3 0 001.798-.208l6.951-3.122a1.775 1.775 0 00-1.21-3.327l-5.393 1.527c-.45.127-.923.147-1.382.06l-1.503-.288a.746.746 0 01-.333-1.31l1.884-1.55a2.035 2.035 0 00-2.351-3.31l-5.523 3.363z" fill="#626F84"/></svg>