<svg viewBox="0 0 24 24" fill="none" xmlns="http://www.w3.org/2000/svg"><path fill-rule="evenodd" clip-rule="evenodd" d="M5.004 6.637a3.65 3.65 0 013.65-3.65h6.692a3.65 3.65 0 013.65 3.65V11a.65.65 0 11-1.3 0V6.637a2.35 2.35 0 00-2.35-2.35H13.3v1.376a1.3 1.3 0 11-2.6 0V4.287H8.654a2.35 2.35 0 00-2.35 2.35V7.5a.65.65 0 01-1.3 0v-.863zM10.02 9.34a1.324 1.324 0 011.53 2.153l-1.828 1.504a1.374 1.374 0 00.615 2.41l1.437.276a3.65 3.65 0 001.681-.073l5.21-1.475a1.072 1.072 0 01.732 2.008l-6.718 3.017a2.35 2.35 0 01-1.408.164l-5.574-1.077a2.35 2.35 0 01-1.878-1.956l-.206-1.361a2.35 2.35 0 011.101-2.36l5.306-3.23zm2.873-.325a2.624 2.624 0 00-3.549-.786L4.038 11.46a3.65 3.65 0 00-1.71 3.664l.206 1.362a3.65 3.65 0 002.916 3.037l5.574 1.077a3.65 3.65 0 002.188-.254l6.718-3.017a2.372 2.372 0 00-1.618-4.445L13.1 14.358a2.35 2.35 0 01-1.083.047l-1.437-.275a.074.074 0 01-.033-.13l1.828-1.504a2.624 2.624 0 00.517-3.482z" fill="#626F84"/></svg>