<svg viewBox="0 0 28 28" fill="none" xmlns="http://www.w3.org/2000/svg"><rect x=".25" y="4.25" width="27.5" height="19.5" rx="2.75" fill="#fff" stroke="#D6D8DD" stroke-width=".5"/><mask id="a" style="mask-type:alpha" maskUnits="userSpaceOnUse" x="0" y="4" width="28" height="20"><rect x=".25" y="4.25" width="27.5" height="19.5" rx="2.75" fill="#fff" stroke="#fff" stroke-width=".5"/></mask><g mask="url(#a)"><path fill-rule="evenodd" clip-rule="evenodd" d="M2 4a2 2 0 00-2 2v6h8V4H2zm10 0v8h16V6a2 2 0 00-2-2H12zm16 12H12v8h14a2 2 0 002-2v-6zM8 24v-8H0v6a2 2 0 002 2h6z" fill="#EF264D"/></g></svg>