<svg viewBox="0 0 24 24" fill="none" xmlns="http://www.w3.org/2000/svg"><path d="M13 12a1 1 0 11-2 0 1 1 0 012 0z" fill="#626F84"/><path fill-rule="evenodd" clip-rule="evenodd" d="M15.948 12.648a4.001 4.001 0 110-1.296.643.643 0 01.052-.002h1a.65.65 0 110 1.3h-1c-.018 0-.035 0-.052-.002zM14.7 12a2.7 2.7 0 11-5.4 0 2.7 2.7 0 015.4 0z" fill="#626F84"/><path fill-rule="evenodd" clip-rule="evenodd" d="M4 17v-1.35H3a.65.65 0 110-1.3h1v-4.7H3a.65.65 0 010-1.3h1V7a3 3 0 013-3h10a3 3 0 013 3v10a3 3 0 01-3 3H7a3 3 0 01-3-3zM7 5.3h10A1.7 1.7 0 0118.7 7v10a1.7 1.7 0 01-1.7 1.7H7A1.7 1.7 0 015.3 17v-1.35H6a.65.65 0 100-1.3h-.7v-4.7H6a.65.65 0 000-1.3h-.7V7A1.7 1.7 0 017 5.3z" fill="#626F84"/></svg>