<svg viewBox="0 0 24 24" fill="none" xmlns="http://www.w3.org/2000/svg"><path fill-rule="evenodd" clip-rule="evenodd" d="M12 14.7a2.7 2.7 0 100-5.4 2.7 2.7 0 000 5.4zm1-2.7a1 1 0 11-2 0 1 1 0 012 0z" fill="#626F84"/><path fill-rule="evenodd" clip-rule="evenodd" d="M4 7a3 3 0 013-3h10a3 3 0 013 3v10a3 3 0 01-3 3H7a3 3 0 01-3-3v-1.35H2.65a.65.65 0 110-1.3H4v-4.7H2.65a.65.65 0 010-1.3H4V7zm11.948 5.648a4.001 4.001 0 110-1.296.643.643 0 01.052-.002h1a.65.65 0 110 1.3h-1c-.018 0-.035 0-.052-.002z" fill="#626F84"/></svg>