<svg viewBox="0 0 24 24" fill="none" xmlns="http://www.w3.org/2000/svg"><path d="M15.35 12.504a.65.65 0 000-1.3H8.646a.65.65 0 100 1.3h6.704zM16 15.363a.65.65 0 01-.65.65H8.646a.65.65 0 110-1.3h6.704a.65.65 0 01.65.65zM11.35 8.994a.65.65 0 100-1.3H8.646a.65.65 0 000 1.3h2.704z" fill="#626F84"/><path fill-rule="evenodd" clip-rule="evenodd" d="M7 3a3 3 0 00-3 3v12a3 3 0 003 3h10a3 3 0 003-3V9.3a3 3 0 00-.948-2.189l-3.52-3.3A3 3 0 0013.48 3H7zm6.48 1.3H7A1.7 1.7 0 005.3 6v12A1.7 1.7 0 007 19.7h10a1.7 1.7 0 001.7-1.7V9.3c0-.1-.009-.2-.026-.297H16a1.95 1.95 0 01-1.95-1.95V4.398a1.7 1.7 0 00-.57-.098zm1.87 1.122l2.432 2.28H16a.65.65 0 01-.65-.65v-1.63z" fill="#626F84"/></svg>