<svg viewBox="0 0 24 24" fill="none" xmlns="http://www.w3.org/2000/svg"><path fill-rule="evenodd" clip-rule="evenodd" d="M4 6a3 3 0 013-3h6.48a3 3 0 012.052.811l3.52 3.3A3 3 0 0120 9.3V18a3 3 0 01-3 3H7a3 3 0 01-3-3V6zm14.155 3a.35.35 0 00.247-.598l-3.805-3.805a.35.35 0 00-.597.248v2.73C14 8.362 14.598 9 15.336 9h2.819zm-6.805-.006a.65.65 0 100-1.3H8.646a.65.65 0 000 1.3h2.704zm4.65 2.86a.65.65 0 01-.65.65H8.646a.65.65 0 010-1.3h6.704a.65.65 0 01.65.65zm-.65 4.16a.65.65 0 100-1.3H8.646a.65.65 0 100 1.3h6.704z" fill="#626F84"/></svg>