<svg viewBox="0 0 24 24" fill="none" xmlns="http://www.w3.org/2000/svg"><path d="M13.271 10.12a.65.65 0 10-1.24-.389l-1.303 4.148a.65.65 0 101.24.39l1.303-4.148zM9.6 9.433c.285.22.33.62.1.894L8.291 12l1.41 1.673a.617.617 0 01-.101.894.685.685 0 01-.934-.096L6.92 12.399a.614.614 0 010-.798L8.666 9.53a.685.685 0 01.934-.096zM14.3 10.327a.617.617 0 01.1-.894.685.685 0 01.934.096l1.745 2.072a.614.614 0 010 .798l-1.745 2.072a.685.685 0 01-.934.096.617.617 0 01-.1-.894L15.708 12l-1.41-1.673z" fill="#626F84"/><path fill-rule="evenodd" clip-rule="evenodd" d="M4 7a3 3 0 013-3h10a3 3 0 013 3v10a3 3 0 01-3 3H7a3 3 0 01-3-3V7zm3-1.7h10A1.7 1.7 0 0118.7 7v10a1.7 1.7 0 01-1.7 1.7H7A1.7 1.7 0 015.3 17V7A1.7 1.7 0 017 5.3z" fill="#626F84"/></svg>