<svg viewBox="0 0 24 24" fill="none" xmlns="http://www.w3.org/2000/svg"><path fill-rule="evenodd" clip-rule="evenodd" d="M7 4a3 3 0 00-3 3v10a3 3 0 003 3h10a3 3 0 003-3V7a3 3 0 00-3-3H7zm6.277 5.827a.65.65 0 00-1.252-.347l-1.303 4.693a.65.65 0 101.253.347l1.302-4.693zM8.78 9.13c.269.234.31.659.095.95L7.444 12l1.43 1.92a.714.714 0 01-.095.95.592.592 0 01-.877-.102l-1.745-2.344a.719.719 0 010-.848l1.745-2.344a.592.592 0 01.877-.102zm6.35.949a.714.714 0 01.095-.95.592.592 0 01.877.103l1.742 2.345a.72.72 0 01.005.84l-1.912 2.64a.592.592 0 01-.876.115.713.713 0 01-.106-.947l1.607-2.22-1.432-1.926z" fill="#626F84"/></svg>