<svg viewBox="0 0 24 24" fill="none" xmlns="http://www.w3.org/2000/svg"><path d="M19 17.5a1.5 1.5 0 11-3 0 1.5 1.5 0 013 0z" fill="#626F84"/><path fill-rule="evenodd" clip-rule="evenodd" d="M16.038 13.766c.064-.44.46-.766.926-.766h1.009c.46 0 .853.32.924.752.091.559.72.895 1.28.679a.96.96 0 011.162.378l.504.83a.858.858 0 01-.224 1.135.862.862 0 00.02 1.391c.369.272.47.76.236 1.144l-.505.83a.96.96 0 01-1.148.383c-.585-.215-1.229.138-1.325.726-.07.433-.463.752-.924.752h-1.01c-.466 0-.861-.327-.925-.766-.084-.568-.704-.916-1.26-.712a.96.96 0 01-1.148-.384l-.505-.829a.858.858 0 01.236-1.144.862.862 0 00.02-1.391.858.858 0 01-.224-1.136l.504-.829a.96.96 0 011.162-.378c.537.207 1.135-.121 1.215-.665zm1.127.747a.343.343 0 01.307-.213c.134 0 .25.087.306.21.423.94 1.467 1.42 2.443 1.25a.23.23 0 01.237.103.231.231 0 01-.021.263 2.16 2.16 0 00.026 2.701c.061.075.074.18.024.263a.228.228 0 01-.233.102c-1.004-.166-2.058.341-2.48 1.304a.329.329 0 01-.296.204h-.013a.33.33 0 01-.296-.206c-.407-.946-1.436-1.458-2.422-1.3a.229.229 0 01-.233-.104.23.23 0 01.023-.263 2.16 2.16 0 00.026-2.7.232.232 0 01-.02-.264.23.23 0 01.236-.103c.962.162 1.979-.322 2.386-1.247z" fill="#626F84"/><path d="M19.153 12.007c.405.122.847-.161.847-.584V7a3 3 0 00-3-3H7a3 3 0 00-3 3v10a3 3 0 003 3h4.424c.422 0 .705-.442.583-.847a.62.62 0 00-.58-.453H7A1.7 1.7 0 015.3 17V7A1.7 1.7 0 017 5.3h10A1.7 1.7 0 0118.7 7v4.428c0 .27.194.501.453.58z" fill="#626F84"/><path d="M12.846 9.306a.65.65 0 01.425.815l-1.302 4.148a.65.65 0 01-1.24-.39l1.302-4.148a.65.65 0 01.815-.425zM9.6 9.433c.286.22.33.62.1.894L8.291 12l1.41 1.673a.617.617 0 01-.101.894.685.685 0 01-.934-.096L6.92 12.399a.614.614 0 010-.798L8.666 9.53a.685.685 0 01.934-.096zM14.296 10.322a.617.617 0 01.109-.892.685.685 0 01.933.104l1.27 1.536a.617.617 0 01-.11.893.685.685 0 01-.932-.104l-1.27-1.537z" fill="#626F84"/></svg>