<svg viewBox="0 0 24 24" fill="none" xmlns="http://www.w3.org/2000/svg"><path fill-rule="evenodd" clip-rule="evenodd" d="M16.934 12.514c-.467 0-.862.327-.926.766-.08.544-.678.872-1.214.665a.96.96 0 00-1.162.379l-.505.829a.857.857 0 00.224 1.135.862.862 0 01-.02 1.392.858.858 0 00-.235 1.144l.504.829a.96.96 0 001.148.384c.556-.205 1.177.143 1.26.712.064.439.46.765.926.765h1.009c.461 0 .853-.319.924-.751.096-.589.74-.942 1.325-.727a.96.96 0 001.148-.383l.505-.83a.858.858 0 00-.236-1.143.862.862 0 01-.02-1.392.858.858 0 00.224-1.135l-.504-.83a.96.96 0 00-1.162-.378c-.56.216-1.188-.12-1.28-.68-.07-.432-.463-.75-.924-.75h-1.009zm2.036 4.5a1.5 1.5 0 11-3 0 1.5 1.5 0 013 0z" fill="#626F84"/><path fill-rule="evenodd" clip-rule="evenodd" d="M7 4a3 3 0 00-3 3v10a3 3 0 003 3h4.966c.233 0 .38-.256.278-.467a5.805 5.805 0 013.846-8.16l-.961-1.294a.714.714 0 01.095-.95.592.592 0 01.877.103l1.468 1.976a5.784 5.784 0 011.992.387c.206.08.439-.066.439-.288V7a3 3 0 00-3-3H7zm5.825 5.027a.65.65 0 01.452.8l-1.302 4.693a.65.65 0 01-1.253-.347l1.303-4.693a.65.65 0 01.8-.453zM8.874 10.08a.714.714 0 00-.095-.95.592.592 0 00-.877.103l-1.745 2.344a.719.719 0 000 .848l1.745 2.344c.216.29.61.336.877.102a.714.714 0 00.095-.95L7.444 12l1.43-1.92z" fill="#626F84"/></svg>