<svg viewBox="0 0 24 24" fill="none" xmlns="http://www.w3.org/2000/svg"><path d="M3.062 8.49a.3.3 0 00.227.496h4.094a.3.3 0 00.249-.132l2.963-4.386A.3.3 0 0010.347 4H7.562a1.3 1.3 0 00-.978.444C5.624 5.541 3.87 7.558 3.062 8.49zM3.243 10.286a.299.299 0 00-.227.496c2.221 2.529 5.97 6.766 7.518 8.515.147.165.412.003.335-.204l-3.167-8.61a.3.3 0 00-.281-.197H3.243zM13.292 18.95c-.075.207.191.367.337.201 1.498-1.703 5.088-5.784 7.355-8.369a.3.3 0 00-.228-.496h-4.133a.3.3 0 00-.282.199l-3.049 8.465zM20.707 8.986a.3.3 0 00.226-.496c-.813-.933-2.573-2.951-3.537-4.048A1.3 1.3 0 0016.419 4h-3.022a.3.3 0 00-.242.478l3.246 4.387a.3.3 0 00.241.121h4.065zM14.886 10.688a.3.3 0 00-.282-.402H9.445a.3.3 0 00-.281.404l2.606 7.086a.3.3 0 00.564-.002l2.552-7.086zM14.476 8.506a.3.3 0 01-.24.48H9.73a.3.3 0 01-.246-.471l2.17-3.113a.3.3 0 01.487-.008l2.336 3.112z" fill="#626F84"/></svg>