<svg viewBox="0 0 24 24" fill="none" xmlns="http://www.w3.org/2000/svg"><path d="M11.298 9.65v1.557h1.779a.779.779 0 000-1.557h-1.779z" fill="#626F84"/><path fill-rule="evenodd" clip-rule="evenodd" d="M12.65 6.327V3.641a.65.65 0 10-1.3 0v2.686c-.6.068-1.172.229-1.7.468v-2.15a.65.65 0 00-1.3 0V7.61a5.743 5.743 0 00-.736.734H4.652a.65.65 0 000 1.3h2.146a5.671 5.671 0 00-.471 1.706H3.653a.65.65 0 000 1.3h2.674c.068.6.229 1.171.468 1.7h-2.15a.65.65 0 100 1.3h2.964c.225.27.475.52.745.744v2.971a.65.65 0 101.3 0v-2.158a5.67 5.67 0 001.696.466v2.675a.65.65 0 101.3 0v-2.675a5.673 5.673 0 001.697-.467v2.146a.65.65 0 001.3 0v-2.959c.27-.224.519-.473.743-.743h2.967a.65.65 0 100-1.3h-2.152c.239-.529.4-1.1.467-1.7h2.708a.65.65 0 000-1.3h-2.707a5.672 5.672 0 00-.471-1.706h2.165a.65.65 0 100-1.3h-2.982a5.749 5.749 0 00-.739-.737V4.645a.65.65 0 10-1.3 0v2.149a5.672 5.672 0 00-1.696-.467zm-1.352 6.18h1.779a2.079 2.079 0 000-4.157h-2.129c-.52 0-.95.42-.95.949v1.908h-.415a.65.65 0 100 1.3h.415v.7h-.423a.65.65 0 100 1.3h.423V15a.65.65 0 101.3 0v-.494h1.744a.65.65 0 000-1.3h-1.744v-.699z" fill="#626F84"/></svg>