<svg viewBox="0 0 24 24" fill="none" xmlns="http://www.w3.org/2000/svg"><path fill-rule="evenodd" clip-rule="evenodd" d="M9.158 8.024a.65.65 0 00-.65.65v6.734a.65.65 0 101.3 0v-1.406h5.088a.65.65 0 00.544-1.006l-1.3-1.986 1.3-1.979a.65.65 0 00-.544-1.007H9.158zm4.536 4.678H9.808V9.324h3.883l-.872 1.329a.65.65 0 000 .713l.874 1.336z" fill="#626F84"/><path fill-rule="evenodd" clip-rule="evenodd" d="M17 3a3 3 0 013 3v12a3 3 0 01-3 3H7.007a3 3 0 01-3-3V6a3 3 0 013-3H17zM7.007 4.3H17A1.7 1.7 0 0118.7 6v12a1.7 1.7 0 01-1.7 1.7H7.007a1.7 1.7 0 01-1.7-1.7V6a1.7 1.7 0 011.7-1.7z" fill="#626F84"/></svg>