<svg viewBox="0 0 24 24" fill="none" xmlns="http://www.w3.org/2000/svg"><path fill-rule="evenodd" clip-rule="evenodd" d="M17 3a3 3 0 013 3v12a3 3 0 01-3 3H7.007a3 3 0 01-3-3V6a3 3 0 013-3H17zm-6.525 7.506c.13.14.3.21.48.21.16 0 .31-.05.44-.17l2.04-2.029c.31-.28.31-.76 0-1.04l-2.04-1.991a.658.658 0 00-.92.04.65.65 0 00.04.92l.88.901-.309-.001a10.376 10.376 0 00-.448.004A3.65 3.65 0 006.988 11v.35a.65.65 0 101.3 0V11a2.35 2.35 0 012.35-2.35h.76l-.883.936c-.26.24-.28.65-.04.92zm3.044 2.986a.645.645 0 00-.48-.21c-.16 0-.31.05-.44.17l-2.04 2.029c-.31.28-.31.76 0 1.04l2.04 1.991c.27.24.68.22.92-.04a.65.65 0 00-.04-.92l-.88-.901c.157 0 .243 0 .308.002.117 0 .17.001.449-.005a3.65 3.65 0 003.65-3.65v-.35a.65.65 0 10-1.3 0v.35a2.35 2.35 0 01-2.35 2.35h-.76l.883-.936c.26-.24.28-.65.04-.92z" fill="#626F84"/></svg>