<svg viewBox="0 0 24 24" fill="none" xmlns="http://www.w3.org/2000/svg"><path fill-rule="evenodd" clip-rule="evenodd" d="M17.65 3.35a3 3 0 013 3v10a3 3 0 01-3 3h-8a3 3 0 01-3-3v-10a3 3 0 013-3h8zm-3.829 10.773c-.27.29-.73.3-1.01.02l-2.375-2.386a.658.658 0 010-.92c.25-.25.67-.25.92 0l1.935 1.946 3.237-3.506a.65.65 0 01.92-.04c.26.24.28.65.04.92l-3.667 3.966z" fill="#626F84"/><path d="M4 9.35a.65.65 0 111.3 0v9.4a1.95 1.95 0 001.95 1.95h8.4a.65.65 0 010 1.3h-8.4A3.25 3.25 0 014 18.75v-9.4z" fill="#626F84"/></svg>