<svg viewBox="0 0 24 24" fill="none" xmlns="http://www.w3.org/2000/svg"><path d="M10.546 12.877l-.73-.58a2.7 2.7 0 103.329-2.914c-.35-.085-.644-.376-.644-.735 0-.36.293-.648.647-.59a4.002 4.002 0 01-.647 7.948 4 4 0 01-3.966-3.473l-.542.84c-.199.3-.599.393-.9.193a.65.65 0 01-.193-.9l1.45-2.179a.69.69 0 011.003-.182l1.949 1.53a.65.65 0 01.135.911.526.526 0 01-.381.252.66.66 0 01-.51-.12z" fill="#626F84"/><path fill-rule="evenodd" clip-rule="evenodd" d="M17 3a3 3 0 013 3v12a3 3 0 01-3 3H7.007a3 3 0 01-3-3V6a3 3 0 013-3H17zM7.007 4.3H17A1.7 1.7 0 0118.7 6v12a1.7 1.7 0 01-1.7 1.7H7.007a1.7 1.7 0 01-1.7-1.7V6a1.7 1.7 0 011.7-1.7z" fill="#626F84"/></svg>