<svg viewBox="0 0 24 24" fill="none" xmlns="http://www.w3.org/2000/svg"><path fill-rule="evenodd" clip-rule="evenodd" d="M20 6a3 3 0 00-3-3H7.007a3 3 0 00-3 3v12a3 3 0 003 3H17a3 3 0 003-3V6zm-3-1.7H7.007a1.7 1.7 0 00-1.7 1.7v12a1.7 1.7 0 001.7 1.7H17a1.7 1.7 0 001.7-1.7V6A1.7 1.7 0 0017 4.3z" fill="#626F84"/><path d="M13.017 12.107a1 1 0 11-2 0 1 1 0 012 0z" fill="#626F84"/><path fill-rule="evenodd" clip-rule="evenodd" d="M12.653 7.214a.65.65 0 10-1.3 0v.897a3.985 3.985 0 00-1.682.683l-.624-.625a.65.65 0 10-.92.92l.617.616a3.986 3.986 0 00-.715 1.69h-.857a.65.65 0 100 1.3h.85c.099.631.345 1.213.702 1.71l-.596.597a.65.65 0 00.919.92l.596-.597c.497.357 1.08.603 1.71.702v.85a.65.65 0 001.3 0v-.858a3.986 3.986 0 001.69-.715l.617.617a.65.65 0 10.92-.92l-.625-.624c.346-.49.585-1.063.682-1.682h.898a.65.65 0 000-1.3h-.905a3.986 3.986 0 00-.695-1.662l.644-.644a.65.65 0 00-.919-.92l-.644.645a3.986 3.986 0 00-1.663-.695v-.905zm-.674 7.562a2.707 2.707 0 100-5.413 2.707 2.707 0 000 5.413z" fill="#626F84"/></svg>