<svg viewBox="0 0 24 24" fill="none" xmlns="http://www.w3.org/2000/svg"><path d="M9.92 11.569c-.116.49-.349 1.037-.62 1.593l1.261-.917a.95.95 0 011.382.294l.473.82.612-.88a2.95 2.95 0 014.507-.4l.037.036a.65.65 0 01-.919.92l-.037-.038a1.65 1.65 0 00-2.52.224l-.929 1.332a.95.95 0 01-1.602-.068l-.554-.96-3.21 2.333a.65.65 0 01-.957-.827 80.1 80.1 0 01.523-.98c.21-.388.412-.762.603-1.137.34-.667.584-1.22.686-1.646.05-.21.054-.349.042-.43-.01-.065-.025-.078-.03-.082l-.001-.001c-.048-.042-.31-.176-1.157-.057a.65.65 0 11-.18-1.287c.881-.124 1.674-.085 2.19.363.571.496.534 1.234.4 1.795z" fill="#626F84"/><path fill-rule="evenodd" clip-rule="evenodd" d="M4 6a3 3 0 013-3h10a3 3 0 013 3v12a3 3 0 01-3 3H7a3 3 0 01-3-3V6zm3-1.7h10A1.7 1.7 0 0118.7 6v12a1.7 1.7 0 01-1.7 1.7H7A1.7 1.7 0 015.3 18V6A1.7 1.7 0 017 4.3z" fill="#626F84"/></svg>