<svg viewBox="0 0 24 24" fill="none" xmlns="http://www.w3.org/2000/svg"><path d="M14.024 7.898a.65.65 0 01-.65.65H10.67a.65.65 0 110-1.3h2.704a.65.65 0 01.65.65zM16.628 12.057a.65.65 0 100-1.3H10.67a.65.65 0 100 1.3h5.958zM17.278 14.917a.65.65 0 01-.65.65H10.67a.65.65 0 110-1.3h5.958a.65.65 0 01.65.65z" fill="#626F84"/><path fill-rule="evenodd" clip-rule="evenodd" d="M17.65 3.35a3 3 0 013 3v10a3 3 0 01-3 3h-8a3 3 0 01-3-3v-10a3 3 0 013-3h8zm-8 1.3h8a1.7 1.7 0 011.7 1.7v10a1.7 1.7 0 01-1.7 1.7h-8a1.7 1.7 0 01-1.7-1.7v-10a1.7 1.7 0 011.7-1.7z" fill="#626F84"/><path d="M4 9.35a.65.65 0 111.3 0v9.4a1.95 1.95 0 001.95 1.95h8.4a.65.65 0 010 1.3h-8.4A3.25 3.25 0 014 18.75v-9.4z" fill="#626F84"/></svg>