<svg viewBox="0 0 24 24" fill="none" xmlns="http://www.w3.org/2000/svg"><path fill-rule="evenodd" clip-rule="evenodd" d="M14.686 12.07a2.707 2.707 0 11-5.413 0 2.707 2.707 0 015.413 0zm-2.669 1.037a1 1 0 100-2 1 1 0 000 2z" fill="#626F84"/><path fill-rule="evenodd" clip-rule="evenodd" d="M17 3a3 3 0 013 3v12a3 3 0 01-3 3H7.007a3 3 0 01-3-3V6a3 3 0 013-3H17zm-4.996 3.564a.65.65 0 01.65.65v.905a3.985 3.985 0 011.662.695l.644-.644a.65.65 0 01.92.919l-.645.644c.348.484.59 1.05.695 1.662h.905a.65.65 0 110 1.3h-.898a3.985 3.985 0 01-.682 1.682l.624.625a.65.65 0 01-.919.919l-.617-.617c-.49.36-1.065.61-1.69.715v.857a.65.65 0 11-1.3 0v-.849a3.984 3.984 0 01-1.71-.702l-.596.596a.65.65 0 01-.92-.92l.597-.596a3.985 3.985 0 01-.702-1.71h-.85a.65.65 0 010-1.3h.857c.106-.624.356-1.2.715-1.69l-.616-.616a.65.65 0 01.919-.92l.624.625a3.984 3.984 0 011.683-.683v-.897a.65.65 0 01.65-.65z" fill="#626F84"/></svg>