<svg viewBox="0 0 24 24" fill="none" xmlns="http://www.w3.org/2000/svg"><path fill-rule="evenodd" clip-rule="evenodd" d="M19.997 6a3 3 0 00-3-3H7.003a3 3 0 00-3 3v12a3 3 0 003 3h9.994a3 3 0 003-3V6zm-3-1.7H7.003a1.7 1.7 0 00-1.7 1.7v12a1.7 1.7 0 001.7 1.7h9.994a1.7 1.7 0 001.7-1.7V6a1.7 1.7 0 00-1.7-1.7z" fill="#626F84"/><path fill-rule="evenodd" clip-rule="evenodd" d="M13.877 14.584a3.58 3.58 0 11.941-.897l1.299 1.302a.65.65 0 01-.92.918l-1.32-1.323zm.32-2.998a2.28 2.28 0 11-4.56 0 2.28 2.28 0 014.56 0z" fill="#626F84"/></svg>