<svg viewBox="0 0 24 24" fill="none" xmlns="http://www.w3.org/2000/svg"><path fill-rule="evenodd" clip-rule="evenodd" d="M17.65 3.35a3 3 0 013 3v10a3 3 0 01-3 3h-8a3 3 0 01-3-3v-10a3 3 0 013-3h8zm-3.625 4.547a.65.65 0 01-.65.65H10.67a.65.65 0 010-1.3h2.705a.65.65 0 01.65.65zm2.603 4.16a.65.65 0 100-1.3H10.67a.65.65 0 000 1.3h5.958zm.65 2.86a.65.65 0 01-.65.65H10.67a.65.65 0 010-1.3h5.958a.65.65 0 01.65.65z" fill="#626F84"/><path d="M4 9.35a.65.65 0 111.3 0v9.4a1.95 1.95 0 001.95 1.95h8.4a.65.65 0 010 1.3h-8.4A3.25 3.25 0 014 18.75v-9.4z" fill="#626F84"/></svg>