<svg viewBox="0 0 24 24" fill="none" xmlns="http://www.w3.org/2000/svg"><path fill-rule="evenodd" clip-rule="evenodd" d="M7 3a3 3 0 00-3 3v12a3 3 0 003 3h10a3 3 0 003-3V6a3 3 0 00-3-3H7zm2.3 10.162c.271-.556.504-1.104.62-1.594.134-.56.171-1.298-.4-1.794-.516-.447-1.309-.487-2.19-.363a.65.65 0 10.18 1.287c.847-.119 1.109.015 1.157.057.006.005.022.018.031.082.012.082.008.22-.042.43-.102.426-.346.98-.686 1.647-.191.375-.393.749-.603 1.138a80.1 80.1 0 00-.523.979.65.65 0 00.958.827l3.209-2.333.554.96a.95.95 0 001.602.068l.928-1.332a1.65 1.65 0 012.52-.224l.038.037a.65.65 0 10.92-.919l-.038-.037a2.95 2.95 0 00-4.507.4l-.613.88-.472-.82a.95.95 0 00-1.382-.293l-1.262.917z" fill="#626F84"/></svg>