<svg viewBox="0 0 24 24" fill="none" xmlns="http://www.w3.org/2000/svg"><path d="M12 9a.65.65 0 01.65.65V12H15a.65.65 0 110 1.3h-2.35v2.35a.65.65 0 11-1.3 0V13.3H9A.65.65 0 119 12h2.35V9.65A.65.65 0 0112 9z" fill="#626F84"/><path fill-rule="evenodd" clip-rule="evenodd" d="M7 3a3 3 0 00-3 3v12a3 3 0 003 3h10a3 3 0 003-3V9.3a3 3 0 00-.948-2.189l-3.52-3.3A3 3 0 0013.48 3H7zm6.48 1.3H7A1.7 1.7 0 005.3 6v12A1.7 1.7 0 007 19.7h10a1.7 1.7 0 001.7-1.7V9.3c0-.1-.009-.2-.026-.297H16a1.95 1.95 0 01-1.95-1.95V4.398a1.7 1.7 0 00-.57-.098zm1.87 1.122l2.432 2.28H16a.65.65 0 01-.65-.65v-1.63z" fill="#626F84"/></svg>