<svg viewBox="0 0 24 24" fill="none" xmlns="http://www.w3.org/2000/svg"><path fill-rule="evenodd" clip-rule="evenodd" d="M20 6a3 3 0 00-3-3H7.007a3 3 0 00-3 3v12a3 3 0 003 3H17a3 3 0 003-3V6zm-3-1.7H7.007a1.7 1.7 0 00-1.7 1.7v12a1.7 1.7 0 001.7 1.7H17a1.7 1.7 0 001.7-1.7V6A1.7 1.7 0 0017 4.3z" fill="#626F84"/><path d="M12 13.734a1.734 1.734 0 100-3.468 1.734 1.734 0 000 3.468z" fill="#626F84"/><path fill-rule="evenodd" clip-rule="evenodd" d="M12.004 8.018c-2.444 0-4.073 2.073-4.79 3.223a1.426 1.426 0 000 1.495c.717 1.15 2.346 3.222 4.79 3.222 2.443 0 4.072-2.072 4.788-3.223a1.426 1.426 0 000-1.494c-.716-1.15-2.345-3.223-4.789-3.223zm-3.685 3.91c.316-.51.816-1.188 1.47-1.727.647-.534 1.382-.883 2.215-.883.832 0 1.567.349 2.214.883.654.54 1.153 1.218 1.47 1.727a.115.115 0 01.015.06.116.116 0 01-.015.06c-.317.51-.816 1.188-1.47 1.728-.647.534-1.382.882-2.214.882-.833 0-1.568-.348-2.215-.882-.654-.54-1.154-1.218-1.47-1.727a.116.116 0 01-.016-.06c0-.028.008-.05.016-.061z" fill="#626F84"/></svg>