<svg viewBox="0 0 28 28" fill="none" xmlns="http://www.w3.org/2000/svg"><rect x=".25" y="4.25" width="27.5" height="19.5" rx="2.75" fill="#fff" stroke="#D6D8DD" stroke-width=".5"/><mask id="a" style="mask-type:alpha" maskUnits="userSpaceOnUse" x="0" y="4" width="28" height="20"><rect x=".25" y="4.25" width="27.5" height="19.5" rx="2.75" fill="#fff" stroke="#fff" stroke-width=".5"/></mask><g mask="url(#a)"><path fill-rule="evenodd" clip-rule="evenodd" d="M0 12h12V4H0v8zM16 24h12v-8H16v8z" fill="#083D7A"/><path fill-rule="evenodd" clip-rule="evenodd" d="M0 24h12v-8H0v8zM16 12h12V4H16v8z" fill="#DF1E35"/><mask id="b" fill="#fff"><path fill-rule="evenodd" clip-rule="evenodd" d="M12.586 12.586a2 2 0 102.828 0"/></mask><path d="M12.114 12.114a2.667 2.667 0 000 3.772l.943-.943a1.333 1.333 0 010-1.886l-.943-.943zm0 3.772a2.667 2.667 0 003.772 0l-.943-.943c-.52.52-1.365.52-1.886 0l-.943.943zm3.772 0a2.667 2.667 0 000-3.772l-.943.943c.52.52.52 1.365 0 1.886l.943.943z" fill="#0F6D1A" mask="url(#b)"/><path fill-rule="evenodd" clip-rule="evenodd" d="M14 14.667a.667.667 0 100-1.334.667.667 0 000 1.334z" fill="#042F60"/></g></svg>