<svg viewBox="0 0 28 28" fill="none" xmlns="http://www.w3.org/2000/svg"><rect y="4" width="28" height="20" rx="3" fill="#fff"/><mask id="a" style="mask-type:alpha" maskUnits="userSpaceOnUse" x="0" y="4" width="28" height="20"><rect y="4" width="28" height="20" rx="3" fill="#fff"/></mask><g mask="url(#a)" clip-rule="evenodd"><path fill-rule="evenodd" d="M0 12h28V4H0v8zM0 24h28v-8H0v8z" fill="#108753"/><path fill-rule="evenodd" d="M16 24h-4v-8H0v-4h12V4h4v8h12v4H16v8z" fill="#fff"/><path fill-rule="evenodd" d="M14.667 24h-1.334v-9.333H0v-1.334h13.333V4h1.334v9.333H28v1.334H14.667V24z" fill="#262626"/><path fill-rule="evenodd" d="M13.333 24H12V13.333H0V12h12V4h1.333v8H28v1.333H13.333V24z" fill="#FCD449"/><path fill-rule="evenodd" d="M14 18.667a4.667 4.667 0 100-9.334 4.667 4.667 0 000 9.334z" fill="url(#paint0_linear_17_5807)"/><path d="M14 17.333a3.333 3.333 0 100-6.666 3.333 3.333 0 000 6.666z" stroke="#0E673F" stroke-width="1.333" stroke-linecap="round" stroke-dasharray="0.67 2.67"/><path fill-rule="evenodd" d="M14 15.333c.736 0 .667-.597.667-1.333s.07-1.333-.667-1.333c-.736 0-.667.597-.667 1.333s-.07 1.333.667 1.333z" fill="#0E673F"/></g><defs><linearGradient id="paint0_linear_17_5807" x1="9.333" y1="9.333" x2="9.333" y2="18.667" gradientUnits="userSpaceOnUse"><stop stop-color="#E02C42"/><stop offset="1" stop-color="#D22036"/></linearGradient></defs></svg>