<svg viewBox="0 0 24 24" fill="none" xmlns="http://www.w3.org/2000/svg"><path d="M4 5.3A1.3 1.3 0 015.3 4h1.4A1.3 1.3 0 018 5.3v1.4A1.3 1.3 0 016.7 8H5.3A1.3 1.3 0 014 6.7V5.3zM4 11.3A1.3 1.3 0 015.3 10h1.4A1.3 1.3 0 018 11.3v1.4A1.3 1.3 0 016.7 14H5.3A1.3 1.3 0 014 12.7v-1.4zM5.3 16A1.3 1.3 0 004 17.3v1.4A1.3 1.3 0 005.3 20h1.4A1.3 1.3 0 008 18.7v-1.4A1.3 1.3 0 006.7 16H5.3zM10 5.3A1.3 1.3 0 0111.3 4h1.4A1.3 1.3 0 0114 5.3v1.4A1.3 1.3 0 0112.7 8h-1.4A1.3 1.3 0 0110 6.7V5.3zM11.3 10a1.3 1.3 0 00-1.3 1.3v1.4a1.3 1.3 0 001.3 1.3h1.4a1.3 1.3 0 001.3-1.3v-1.4a1.3 1.3 0 00-1.3-1.3h-1.4zM10 17.3a1.3 1.3 0 011.3-1.3h1.4a1.3 1.3 0 011.3 1.3v1.4a1.3 1.3 0 01-1.3 1.3h-1.4a1.3 1.3 0 01-1.3-1.3v-1.4zM17.3 4A1.3 1.3 0 0016 5.3v1.4A1.3 1.3 0 0017.3 8h1.4A1.3 1.3 0 0020 6.7V5.3A1.3 1.3 0 0018.7 4h-1.4zM16 11.3a1.3 1.3 0 011.3-1.3h1.4a1.3 1.3 0 011.3 1.3v1.4a1.3 1.3 0 01-1.3 1.3h-1.4a1.3 1.3 0 01-1.3-1.3v-1.4zM17.3 16a1.3 1.3 0 00-1.3 1.3v1.4a1.3 1.3 0 001.3 1.3h1.4a1.3 1.3 0 001.3-1.3v-1.4a1.3 1.3 0 00-1.3-1.3h-1.4z" fill="#626F84"/></svg>