<svg viewBox="0 0 24 24" fill="none" xmlns="http://www.w3.org/2000/svg"><path fill-rule="evenodd" clip-rule="evenodd" d="M5.3 4A1.3 1.3 0 004 5.3v1.4A1.3 1.3 0 005.3 8h1.4A1.3 1.3 0 008 6.7V5.3A1.3 1.3 0 006.7 4H5.3zm.455 1.3a.455.455 0 00-.455.455v.49c0 .251.204.455.455.455h.49a.455.455 0 00.455-.455v-.49a.455.455 0 00-.455-.455h-.49zM5.3 10A1.3 1.3 0 004 11.3v1.4A1.3 1.3 0 005.3 14h1.4A1.3 1.3 0 008 12.7v-1.4A1.3 1.3 0 006.7 10H5.3zm.455 1.3a.455.455 0 00-.455.455v.49c0 .251.204.455.455.455h.49a.455.455 0 00.455-.455v-.49a.455.455 0 00-.455-.455h-.49zM4 17.3A1.3 1.3 0 015.3 16h1.4A1.3 1.3 0 018 17.3v1.4A1.3 1.3 0 016.7 20H5.3A1.3 1.3 0 014 18.7v-1.4zm1.3.455c0-.251.204-.455.455-.455h.49c.251 0 .455.204.455.455v.49a.455.455 0 01-.455.455h-.49a.455.455 0 01-.455-.455v-.49zM11.3 4A1.3 1.3 0 0010 5.3v1.4A1.3 1.3 0 0011.3 8h1.4A1.3 1.3 0 0014 6.7V5.3A1.3 1.3 0 0012.7 4h-1.4zm.455 1.3a.455.455 0 00-.455.455v.49c0 .251.204.455.455.455h.49a.455.455 0 00.455-.455v-.49a.455.455 0 00-.455-.455h-.49zM10 11.3a1.3 1.3 0 011.3-1.3h1.4a1.3 1.3 0 011.3 1.3v1.4a1.3 1.3 0 01-1.3 1.3h-1.4a1.3 1.3 0 01-1.3-1.3v-1.4zm1.3.455c0-.251.204-.455.455-.455h.49c.251 0 .455.204.455.455v.49a.455.455 0 01-.455.455h-.49a.455.455 0 01-.455-.455v-.49zM11.3 16a1.3 1.3 0 00-1.3 1.3v1.4a1.3 1.3 0 001.3 1.3h1.4a1.3 1.3 0 001.3-1.3v-1.4a1.3 1.3 0 00-1.3-1.3h-1.4zm.455 1.3a.455.455 0 00-.455.455v.49c0 .251.204.455.455.455h.49a.455.455 0 00.455-.455v-.49a.455.455 0 00-.455-.455h-.49zM16 5.3A1.3 1.3 0 0117.3 4h1.4A1.3 1.3 0 0120 5.3v1.4A1.3 1.3 0 0118.7 8h-1.4A1.3 1.3 0 0116 6.7V5.3zm1.3.455c0-.251.204-.455.455-.455h.49c.251 0 .455.204.455.455v.49a.455.455 0 01-.455.455h-.49a.455.455 0 01-.455-.455v-.49zM17.3 10a1.3 1.3 0 00-1.3 1.3v1.4a1.3 1.3 0 001.3 1.3h1.4a1.3 1.3 0 001.3-1.3v-1.4a1.3 1.3 0 00-1.3-1.3h-1.4zm.455 1.3a.455.455 0 00-.455.455v.49c0 .251.204.455.455.455h.49a.455.455 0 00.455-.455v-.49a.455.455 0 00-.455-.455h-.49zM16 17.3a1.3 1.3 0 011.3-1.3h1.4a1.3 1.3 0 011.3 1.3v1.4a1.3 1.3 0 01-1.3 1.3h-1.4a1.3 1.3 0 01-1.3-1.3v-1.4zm1.3.455c0-.251.204-.455.455-.455h.49c.251 0 .455.204.455.455v.49a.455.455 0 01-.455.455h-.49a.455.455 0 01-.455-.455v-.49z" fill="#626F84"/></svg>