<svg viewBox="0 0 24 24" fill="none" xmlns="http://www.w3.org/2000/svg"><path fill-rule="evenodd" clip-rule="evenodd" d="M3 12a9 9 0 1118 0 9 9 0 01-18 0zm12.331 1.038c0-.18-.07-.35-.21-.48a.658.658 0 00-.92.04l-2.248 2.5-2.156-2.496a.65.65 0 00-.92-.04c-.26.24-.28.65-.04.92l2.596 2.986c.28.31.76.31 1.04 0l2.688-2.99c.12-.13.17-.28.17-.44zm0-3.9c0-.18-.07-.35-.21-.48a.658.658 0 00-.92.04l-2.248 2.5-2.156-2.496a.65.65 0 00-.92-.04c-.26.24-.28.65-.04.92l2.596 2.986c.28.31.76.31 1.04 0l2.688-2.99c.12-.13.17-.28.17-.44z" fill="#626F84"/></svg>