<svg viewBox="0 0 24 24" fill="none" xmlns="http://www.w3.org/2000/svg"><path fill-rule="evenodd" clip-rule="evenodd" d="M12 3a9 9 0 100 18 9 9 0 000-18zm1.038 12.331c-.18 0-.35-.07-.48-.21a.658.658 0 01.04-.92l2.5-2.248-2.496-2.156a.65.65 0 01-.04-.92c.24-.26.65-.28.92-.04l2.986 2.596c.31.28.31.76 0 1.04l-2.99 2.688c-.13.12-.28.17-.44.17zm-3.9 0c-.18 0-.35-.07-.48-.21a.658.658 0 01.04-.92l2.5-2.248-2.496-2.156a.65.65 0 01-.04-.92c.24-.26.65-.28.92-.04l2.986 2.596c.31.28.31.76 0 1.04l-2.99 2.688c-.13.12-.28.17-.44.17z" fill="#626F84"/></svg>