<svg viewBox="0 0 24 24" fill="none" xmlns="http://www.w3.org/2000/svg"><path d="M11.483 7.999a.645.645 0 00-.48-.21c-.16 0-.31.05-.44.17L6.58 11.545c-.31.28-.31.76 0 1.04l3.98 3.458c.27.24.68.22.92-.04a.65.65 0 00-.04-.92l-3.49-3.018 3.493-3.146c.26-.24.28-.65.04-.92z" fill="#626F84"/><path d="M15.483 7.999a.645.645 0 00-.48-.21c-.16 0-.31.05-.44.17l-3.983 3.586c-.31.28-.31.76 0 1.04l3.98 3.458c.27.24.68.22.92-.04a.65.65 0 00-.04-.92l-3.49-3.018 3.493-3.146c.26-.24.28-.65.04-.92z" fill="#626F84"/></svg>