<svg viewBox="0 0 28 28" fill="none" xmlns="http://www.w3.org/2000/svg"><rect x=".25" y="4.25" width="27.5" height="19.5" rx="2.75" fill="#fff" stroke="#D6D8DD" stroke-width=".5"/><mask id="a" style="mask-type:alpha" maskUnits="userSpaceOnUse" x="0" y="4" width="28" height="20"><rect x=".25" y="4.25" width="27.5" height="19.5" rx="2.75" fill="#fff" stroke="#fff" stroke-width=".5"/></mask><g mask="url(#a)"><path fill-rule="evenodd" clip-rule="evenodd" d="M0 10.667h28V4H0v6.667z" fill="#E41D33"/><path fill-rule="evenodd" clip-rule="evenodd" d="M0 24h28v-6.667H0V24z" fill="#262626"/><path d="M12.368 13.482l.285.569.306-.557h0l.001-.002.005-.01a2.983 2.983 0 01.108-.18c.075-.12.178-.276.298-.431.122-.157.252-.302.378-.404.134-.11.217-.134.251-.134.057 0 .151.031.281.136.126.1.253.242.369.398a4.5 4.5 0 01.36.566l.02.038.004.01.001.001h0l.298.597.299-.597.574-1.149h.46c.185 0 .334.15.334.334v2.087a.333.333 0 01-.518.278l-.964-.643-.084-.056h-1.101v1a.333.333 0 01-.666 0v-1h-1.101l-.084.056-.964.643a.333.333 0 01-.518-.278v-2.087c0-.184.15-.334.333-.334h.461l.574 1.15z" fill="#F4B32E" fill-opacity=".25" stroke="#C6A846" stroke-width=".667"/></g></svg>