<svg viewBox="0 0 24 24" fill="none" xmlns="http://www.w3.org/2000/svg"><path d="M10.524 2a1.5 1.5 0 00-1.5 1.5v1a1.5 1.5 0 003 0v-1a1.5 1.5 0 00-1.5-1.5zM10.374 17.5H9.07v3.851a.65.65 0 11-1.3 0V17.5H6.87a.7.7 0 01-.687-.831l.868-4.559c.403.762 1.013 1.504 1.845 2.19a.65.65 0 00.826-1.004c-1.31-1.08-1.869-2.221-1.959-3.22-.086-.947.243-1.835.871-2.52A2.73 2.73 0 0110.289 7c.9 0 1.655.424 2.219 1.04l1.754 1.743a2.35 2.35 0 001.614.642h1.496a.65.65 0 01.194 1.27c.59.383.982 1.049.982 1.805v7.851a.65.65 0 01-1.3 0V13.5a.85.85 0 00-1.7 0v1.098a.65.65 0 01-1.3 0V13.5c0-.771.405-1.447 1.015-1.827a3.65 3.65 0 01-1.894-.945l-.345-.325V16.8a.7.7 0 01-.7.7h-.65v3.851a.65.65 0 11-1.3 0V17.5z" fill="#626F84"/></svg>