<svg viewBox="0 0 24 24" fill="none" xmlns="http://www.w3.org/2000/svg"><path d="M9.024 3.5a1.5 1.5 0 013 0v1a1.5 1.5 0 01-3 0v-1z" fill="#626F84"/><path fill-rule="evenodd" clip-rule="evenodd" d="M6.654 17.5H7.77v3.851a.65.65 0 101.3 0V17.5h1.305v3.851a.65.65 0 101.3 0V17.5h.65a.7.7 0 00.7-.7v-6.4l.344.326c.528.5 1.189.826 1.896.947a2.148 2.148 0 00-1.016 1.827v1.098a.65.65 0 101.3 0V13.5a.85.85 0 111.7 0v7.851a.65.65 0 101.3 0V13.5c0-.756-.391-1.422-.982-1.805a.65.65 0 00-.194-1.27h-1.495c-.6 0-1.179-.23-1.615-.643a61.679 61.679 0 01-2.086-1.984A2.8 2.8 0 0010.194 7a2.83 2.83 0 00-2.776 2.284l-1.45 7.381a.7.7 0 00.686.835zm2.771-8.993a1.53 1.53 0 012.299 1.322V16.2h-4.34l.711-3.622c.261.442.574.847.91 1.192a.65.65 0 10.93-.908c-.619-.635-1.108-1.5-1.245-2.323-.13-.785.056-1.499.735-2.032z" fill="#626F84"/></svg>