<svg viewBox="0 0 24 24" fill="none" xmlns="http://www.w3.org/2000/svg"><path fill-rule="evenodd" clip-rule="evenodd" d="M5.3 4.649a.65.65 0 00-1.3 0v14.693a.65.65 0 001.3 0V4.649zm14.51 6.897a.648.648 0 010 .917l-3.562 3.557a.65.65 0 01-.919-.917l2.453-2.45H7.662a.65.65 0 110-1.297h10.12l-2.453-2.45a.648.648 0 11.919-.917l3.562 3.557zm-7.815-7.537c.359 0 .65.29.65.649v4.708a.65.65 0 01-1.3 0V4.658a.65.65 0 01.65-.649zm.65 10.635a.65.65 0 00-1.3 0v4.707a.65.65 0 001.3 0v-4.707z" fill="#626F84"/></svg>