<svg viewBox="0 0 24 24" fill="none" xmlns="http://www.w3.org/2000/svg"><path d="M14.1 4.199c1.715 1.272 3.573 2.462 5.232 3.824a.68.68 0 01-.033 1.072l-5.737 4.31a2.6 2.6 0 01-3.124 0l-.387-.29a.648.648 0 00-.087-.066L4.699 9.093a.683.683 0 01-.034-1.073c1.612-1.335 3.39-2.525 5.046-3.791a3.65 3.65 0 014.39-.03z" fill="#626F84"/><path d="M4.233 10.37C3.73 9.991 3 10.198 3 10.826v6.668c0 1.66 1.34 3 3 3h12c1.66 0 3-1.34 3-3v-6.668c0-.628-.73-.835-1.233-.457l-4.302 3.232 2.544 1.914a.65.65 0 11-.781 1.039l-2.845-2.14-.04.03a3.9 3.9 0 01-4.686 0l-.04-.03-2.845 2.14a.65.65 0 01-.781-1.04l2.544-1.913-4.302-3.233z" fill="#626F84"/></svg>