<svg viewBox="0 0 24 24" fill="none" xmlns="http://www.w3.org/2000/svg"><path fill-rule="evenodd" clip-rule="evenodd" d="M19.764 8.417L14.1 4.218a3.653 3.653 0 00-4.39.03L4.437 8.28A2.992 2.992 0 003 10.84v6.663A2.995 2.995 0 006 20.5h12c1.66 0 3-1.339 3-2.997V10.84c0-.998-.488-1.88-1.236-2.424zM13.326 5.26a2.352 2.352 0 00-2.826.02L9.045 6.39C7.684 7.427 6.275 8.5 5.067 9.428l5.419 4.079c.837.63 1.99.63 2.828 0l5.524-4.159-5.512-4.087zm6.31 5.113l-4.283 3.224 2.57 1.933a.65.65 0 11-.781 1.038l-2.87-2.157-.175.132a3.652 3.652 0 01-4.393 0l-.176-.132-2.87 2.157a.65.65 0 01-.781-1.038l2.57-1.933-4.113-3.096c-.022.11-.034.223-.034.338v6.663c0 .939.76 1.698 1.7 1.698h12c.94 0 1.7-.76 1.7-1.698V10.84c0-.162-.023-.318-.065-.466z" fill="#626F84"/></svg>