<svg viewBox="0 0 24 24" fill="none" xmlns="http://www.w3.org/2000/svg"><path fill-rule="evenodd" clip-rule="evenodd" d="M6 5C4.34 5 3 6.34 3 8v8c0 1.66 1.34 3 3 3h12c1.66 0 3-1.34 3-3V8c0-1.66-1.35-3-3-3H6zm13.7 3.947l-4.347 3.275 2.57 1.934a.65.65 0 01-.781 1.04l-2.87-2.16-.175.133a3.65 3.65 0 01-4.393 0l-.176-.133-2.87 2.16a.65.65 0 11-.781-1.04l2.57-1.934L4.3 9.097V16c0 .94.76 1.7 1.7 1.7h12c.94 0 1.7-.76 1.7-1.7V8.947zM18 6.3a1.7 1.7 0 011.592 1.1l-6.278 4.73a2.35 2.35 0 01-2.828 0L4.368 7.522A1.699 1.699 0 016 6.3h12z" fill="#626F84"/></svg>