<svg viewBox="0 0 24 24" fill="none" xmlns="http://www.w3.org/2000/svg"><path d="M8.962 7.284a.65.65 0 01.65-.65h4.754a.65.65 0 110 1.3H9.612a.65.65 0 01-.65-.65zM9.612 9.664a.65.65 0 000 1.3h4.754a.65.65 0 100-1.3H9.612z" fill="#626F84"/><path fill-rule="evenodd" clip-rule="evenodd" d="M18 7.484l1.723 1.209A3 3 0 0121 11.149V18a3 3 0 01-3 3H6a3 3 0 01-3-3v-6.851a3 3 0 011.277-2.456L6 7.483V6a3 3 0 013-3h6a3 3 0 013 3v1.484zM15 4.3H9A1.7 1.7 0 007.3 6v5.494l3.307 2.462a2.35 2.35 0 002.792.011l3.301-2.418V6A1.7 1.7 0 0015 4.3zm3 6.297l1.06-.777a1.698 1.698 0 00-.084-.063L18 9.072v1.525zM6 9.072l-.976.685-.03.02 1.006.75V9.071zm9.44 5.012l4.25-3.114c.007.059.01.118.01.179V18a1.7 1.7 0 01-1.7 1.7H6A1.7 1.7 0 014.3 18v-6.851c0-.086.006-.17.019-.254l4.26 3.173-2.59 1.947a.65.65 0 10.781 1.04l2.897-2.178.164.122a3.65 3.65 0 004.337.017l.176-.13 2.883 2.169a.65.65 0 00.781-1.04l-2.569-1.93z" fill="#626F84"/></svg>