<svg viewBox="0 0 28 28" fill="none" xmlns="http://www.w3.org/2000/svg"><rect y="4" width="28" height="20" rx="3" fill="#fff"/><mask id="a" style="mask-type:alpha" maskUnits="userSpaceOnUse" x="0" y="4" width="28" height="20"><rect y="4" width="28" height="20" rx="3" fill="#fff"/></mask><g mask="url(#a)"><path fill-rule="evenodd" clip-rule="evenodd" d="M28 4v10H0V4h28z" fill="#29C53F"/><path fill-rule="evenodd" clip-rule="evenodd" d="M28 14v10.667H0V14h28z" fill="#579DED"/><path fill-rule="evenodd" clip-rule="evenodd" d="M0 24l28-10L0 4v20z" fill="#F42D56"/><path d="M12.667 14a4 4 0 11-8 0 4 4 0 018 0z" stroke="#FFC63C" stroke-width="1.333"/><path fill-rule="evenodd" clip-rule="evenodd" d="M8 13.333A.667.667 0 108 12a.667.667 0 000 1.333z" fill="#FFC63C"/><path fill-rule="evenodd" clip-rule="evenodd" d="M9.333 14a.667.667 0 100-1.333.667.667 0 000 1.333zM8.667 12.667a.667.667 0 100-1.334.667.667 0 000 1.334zM8 14.667a.667.667 0 100-1.334.667.667 0 000 1.334z" fill="#FFC63C"/><path fill-rule="evenodd" clip-rule="evenodd" d="M9.333 15.333a.667.667 0 100-1.333.667.667 0 000 1.333zM8 16a.667.667 0 100-1.333A.667.667 0 008 16z" fill="#FFC63C"/><path fill-rule="evenodd" clip-rule="evenodd" d="M9.333 16.667a.667.667 0 100-1.334.667.667 0 000 1.334z" fill="#FFC63C"/></g></svg>