<svg viewBox="0 0 24 24" fill="none" xmlns="http://www.w3.org/2000/svg"><path d="M12.65 14.121a.65.65 0 11-1.3 0V8.976a.65.65 0 111.3 0v5.146zM12.75 16.875a.75.75 0 11-1.5 0 .75.75 0 011.5 0z" fill="#626F84"/><path fill-rule="evenodd" clip-rule="evenodd" d="M18.838 21H5.162c-2.302 0-3.746-2.485-2.606-4.485L9.394 4.513c1.15-2.02 4.062-2.02 5.213 0l6.838 12.002c1.14 2-.305 4.485-2.607 4.485zm0-1.3H5.162a1.7 1.7 0 01-1.477-2.542l6.838-12.002c.652-1.144 2.302-1.144 2.954 0l6.838 12.002a1.7 1.7 0 01-1.477 2.542z" fill="#626F84"/></svg>