<svg viewBox="0 0 28 28" fill="none" xmlns="http://www.w3.org/2000/svg"><rect y="4" width="28" height="20" rx="3" fill="#fff"/><mask id="a" style="mask-type:alpha" maskUnits="userSpaceOnUse" x="0" y="4" width="28" height="20"><rect y="4" width="28" height="20" rx="3" fill="#fff"/></mask><g mask="url(#a)"><path fill-rule="evenodd" clip-rule="evenodd" d="M0 8h28V4H0v4zM0 24h28v-4H0v4z" fill="#486BCA"/><path fill-rule="evenodd" clip-rule="evenodd" d="M0 20h28V8H0v12z" fill="#FFDF20"/><path fill-rule="evenodd" clip-rule="evenodd" d="M0 18.667h28V9.333H0v9.334z" fill="#CF1615"/><path fill-rule="evenodd" clip-rule="evenodd" d="M14 17.333c3.314 0 6-3.333 6-3.333s-2.686-3.333-6-3.333S8 14 8 14s2.686 3.333 6 3.333z" fill="#fff"/><mask id="b" style="mask-type:alpha" maskUnits="userSpaceOnUse" x="8" y="10" width="12" height="8"><path fill-rule="evenodd" clip-rule="evenodd" d="M14 17.333c3.314 0 6-3.333 6-3.333s-2.686-3.333-6-3.333S8 14 8 14s2.686 3.333 6 3.333z" fill="#fff"/></mask><g mask="url(#b)" fill-rule="evenodd" clip-rule="evenodd"><path d="M14.667 10.667H8v6.666h5.333l1.334-6.666z" fill="#262626"/><path d="M15.333 14.667a.667.667 0 100-1.334.667.667 0 000 1.334z" fill="#1A1A1A"/><path d="M12.667 14.667a.667.667 0 100-1.334.667.667 0 000 1.334z" fill="#F6F6F6"/></g></g></svg>