<svg viewBox="0 0 28 28" fill="none" xmlns="http://www.w3.org/2000/svg"><rect y="4" width="28" height="20" rx="3" fill="#fff"/><mask id="a" style="mask-type:alpha" maskUnits="userSpaceOnUse" x="0" y="4" width="28" height="20"><rect y="4" width="28" height="20" rx="3" fill="#fff"/></mask><g mask="url(#a)"><path fill-rule="evenodd" clip-rule="evenodd" d="M0 10.667h28V4H0v6.667z" fill="#20AA46"/><path fill-rule="evenodd" clip-rule="evenodd" d="M0 24h28v-6.667H0V24z" fill="#E92F3B"/><path fill-rule="evenodd" clip-rule="evenodd" d="M0 17.333h28v-6.666H0v6.666z" fill="#FADF50"/><path fill-rule="evenodd" clip-rule="evenodd" d="M14 18.667a4.667 4.667 0 100-9.334 4.667 4.667 0 000 9.334z" fill="#205CCA"/><path d="M14.194 15.029L14 14.89l-.194.138-1.148.819.424-1.346.07-.227-.19-.141-1.134-.84 1.41-.012.239-.003.075-.225.448-1.338.448 1.338.075.225.238.003 1.41.012-1.133.84-.191.141.071.227.424 1.345-1.149-.818z" stroke="#FFDB3D" stroke-width=".667"/></g></svg>