<svg viewBox="0 0 28 28" fill="none" xmlns="http://www.w3.org/2000/svg"><rect y="4" width="28" height="20" rx="3" fill="#fff"/><mask id="a" style="mask-type:alpha" maskUnits="userSpaceOnUse" x="0" y="4" width="28" height="20"><rect y="4" width="28" height="20" rx="3" fill="#fff"/></mask><g mask="url(#a)"><path fill="#043CAE" d="M0 4h28v20H0z"/><path fill-rule="evenodd" clip-rule="evenodd" d="M13.057 8.276L14 8l.943.276-.276-.943.276-.942-.943.276-.943-.276.276.942-.276.943zm0 13.334l.943-.277.943.277-.276-.943.276-.943L14 20l-.943-.276.276.943-.276.942zm7.61-6.943l-.943.276L20 14l-.276-.943.943.276.942-.276-.276.943.277.943-.943-.276zm-14.277.276l.943-.276.943.276L8 14l.276-.943-.943.276-.942-.276.276.943-.276.943zm13.383-3.61l-.942.277.276-.943-.276-.943.942.276.943-.276-.276.943.276.943-.943-.277zm-12.49 6.943L8.227 18l.943.276-.276-.943.276-.942-.943.276-.942-.277.276.943-.276.943zm10.05-9.383l-.942.276.276-.943-.277-.942.943.276.943-.276-.276.942.276.943-.943-.276zm-7.61 11.823l.944-.276.943.276-.277-.943.277-.942-.943.276-.943-.276.276.942-.276.943zM19.774 18l-.942.276.276-.943-.276-.942.942.276.943-.277-.276.943.276.943-.943-.276zm-12.49-6.39l.943-.277.943.277-.276-.943.276-.943-.943.276-.942-.276.276.943-.276.943zm10.05 8.83l-.942.276.276-.943-.277-.942.943.276.943-.276-.276.942.276.943-.943-.276zM9.723 9.17l.944-.277.943.276-.277-.943.277-.942-.943.276-.943-.276.276.942-.276.943z" fill="#FFD429"/></g></svg>