<svg viewBox="0 0 24 24" fill="none" xmlns="http://www.w3.org/2000/svg"><path d="M7.717 11.487a4.702 4.702 0 000 1.026h-.728a.65.65 0 100 1.3h1.067a4.651 4.651 0 007.359 1.674.65.65 0 10-.86-.974 3.347 3.347 0 01-5.033-.7h3.175a.65.65 0 100-1.3H9.028a3.376 3.376 0 010-1.026h3.669a.65.65 0 100-1.3H9.521a3.347 3.347 0 015.034-.7.65.65 0 00.86-.974 4.651 4.651 0 00-7.36 1.674H6.99a.65.65 0 100 1.3h.728z" fill="#626F84"/><path fill-rule="evenodd" clip-rule="evenodd" d="M12 3a9 9 0 100 18 9 9 0 000-18zm0 1.3a7.7 7.7 0 100 15.4 7.7 7.7 0 000-15.4z" fill="#626F84"/></svg>