<svg viewBox="0 0 24 24" fill="none" xmlns="http://www.w3.org/2000/svg"><path d="M8 4.3h7A1.7 1.7 0 0116.7 6v.35a.65.65 0 101.3 0V6a3 3 0 00-3-3H8a3 3 0 00-3 3v12a3 3 0 003 3h7a3 3 0 003-3v-.35a.65.65 0 10-1.3 0V18a1.7 1.7 0 01-1.7 1.7H8c-.198 0-.387-.034-.564-.096l2.231-1.275a1.95 1.95 0 00.983-1.693V7.254c0-.7-.375-1.345-.983-1.693L7.561 4.357C7.7 4.32 7.848 4.3 8 4.3z" fill="#626F84"/><path d="M17 15c.13.14.3.21.48.21.16 0 .31-.05.44-.17l2.71-2.575c.31-.28.31-.76 0-1.04L17.92 8.96A.658.658 0 0017 9a.65.65 0 00.04.92l1.55 1.374h-4.94a.65.65 0 100 1.3h4.948L17.04 14.08c-.26.24-.28.65-.04.92z" fill="#626F84"/></svg>