<svg viewBox="0 0 24 24" fill="none" xmlns="http://www.w3.org/2000/svg"><path fill-rule="evenodd" clip-rule="evenodd" d="M17.48 15.21c-.18 0-.35-.07-.48-.21a.658.658 0 01.04-.92l1.558-1.486H13.65a.65.65 0 110-1.3h4.94L17.04 9.92A.65.65 0 0117 9c.24-.26.65-.28.92-.04l2.71 2.464c.31.28.31.76 0 1.04l-2.71 2.576c-.13.12-.28.17-.44.17z" fill="#626F84"/><path fill-rule="evenodd" clip-rule="evenodd" d="M15 4.3H8c-.152 0-.3.02-.44.057l2.107 1.204c.608.348.983.994.983 1.693v9.382c0 .7-.375 1.346-.983 1.693l-2.23 1.275c.176.062.365.096.563.096h7a1.7 1.7 0 001.7-1.7v-.35a.65.65 0 111.3 0V18a3 3 0 01-3 3H8a3 3 0 01-3-3V6a3 3 0 013-3h7a3 3 0 013 3v.35a.65.65 0 11-1.3 0V6A1.7 1.7 0 0015 4.3zM6.44 18.676L9.022 17.2a.65.65 0 00.328-.564V7.254c0-.926-2.216-1.643-2.87-2.017-.115.23-.18.489-.18.763v12c0 .24.05.469.14.676z" fill="#626F84"/></svg>