<svg viewBox="0 0 24 24" fill="none" xmlns="http://www.w3.org/2000/svg"><path d="M16.02 10.51c.13.14.3.21.48.21.16 0 .31-.05.44-.17L21 6.725c.31-.28.31-.76 0-1.04L16.98 2.18a.658.658 0 00-.92.04.65.65 0 00.04.92l2.86 2.415v.015H15a3.65 3.65 0 00-3.65 3.65V14a.65.65 0 101.3 0V9.22A2.35 2.35 0 0115 6.87h3.951l-2.89 2.72c-.26.24-.28.65-.04.92z" fill="#626F84"/><path d="M9.35 4a.65.65 0 110 1.3H8A1.7 1.7 0 006.3 7v10A1.7 1.7 0 008 18.7h8a1.7 1.7 0 001.7-1.7v-4.35a.65.65 0 111.3 0V17a3 3 0 01-3 3H8a3 3 0 01-3-3V7a3 3 0 013-3h1.35z" fill="#626F84"/></svg>