<svg viewBox="0 0 24 24" fill="none" xmlns="http://www.w3.org/2000/svg"><path d="M13.433 12.91a.65.65 0 00-.92 0l-5.155 5.156a1.2 1.2 0 11-1.697-1.697l5.156-5.156a.65.65 0 00-.92-.92L4.743 15.45a2.501 2.501 0 00-.436 2.95l-.707.708a.65.65 0 10.919.92l.68-.68a2.501 2.501 0 003.08-.362l5.155-5.156a.65.65 0 000-.92z" fill="#626F84"/><path fill-rule="evenodd" clip-rule="evenodd" d="M15.3 12.938a.65.65 0 00.905-.932l-.474-.475 3.244-3.244a2.5 2.5 0 10-3.536-3.535l-3.244 3.244-.542-.542a.65.65 0 00-.924.913l4.552 4.552a.715.715 0 01.019.02z" fill="#626F84"/></svg>