<svg viewBox="0 0 24 24" fill="none" xmlns="http://www.w3.org/2000/svg"><path fill-rule="evenodd" clip-rule="evenodd" d="M15.286 12.925l-.475-.474-6.534 6.534a2.501 2.501 0 01-3.08.361l-.68.68a.65.65 0 01-.918-.92l.707-.706a2.501 2.501 0 01.436-2.95l6.534-6.535-.542-.541a.65.65 0 01.92-.92l.541.542 3.244-3.244a2.5 2.5 0 013.536 3.535l-3.244 3.244.474.475a.65.65 0 01-.92.919zm-7.928 5.14l6.534-6.534-1.697-1.697-6.534 6.535a1.2 1.2 0 101.697 1.697zm9-12.394l-3.244 3.244 1.697 1.697 3.244-3.244a1.2 1.2 0 10-1.697-1.697z" fill="#626F84"/></svg>