<svg viewBox="0 0 24 24" fill="none" xmlns="http://www.w3.org/2000/svg"><path d="M11.306 9.08c.376-.088.694.233.694.62v1a1.3 1.3 0 001.3 1.3h1c.387 0 .708.318.62.694a3.001 3.001 0 11-3.614-3.613z" fill="#626F84"/><path fill-rule="evenodd" clip-rule="evenodd" d="M12 5c-4.88 0-8.134 3.655-9.563 5.682a2.267 2.267 0 000 2.636C3.867 15.345 7.119 19 12 19c4.88 0 8.134-3.655 9.563-5.682a2.267 2.267 0 000-2.636C20.133 8.655 16.881 5 12 5zM5.709 8.927a15.062 15.062 0 00-2.21 2.505.967.967 0 000 1.136c.522.74 1.263 1.654 2.21 2.505A6.972 6.972 0 015 12c0-1.102.255-2.145.709-3.073zM12 17.7a5.7 5.7 0 110-11.4 5.7 5.7 0 010 11.4zm6.291-8.773a15.06 15.06 0 012.21 2.505.967.967 0 010 1.136 15.06 15.06 0 01-2.21 2.505c.454-.928.709-1.97.709-3.073a6.972 6.972 0 00-.709-3.073z" fill="#626F84"/></svg>