<svg viewBox="0 0 24 24" fill="none" xmlns="http://www.w3.org/2000/svg"><path fill-rule="evenodd" clip-rule="evenodd" d="M12 8.006a.65.65 0 01.65.65v3.146c0 1.233-.99 2.223-2.223 2.223h-.087a.65.65 0 110-1.3h.087a.916.916 0 00.923-.923V8.656a.65.65 0 01.65-.65zM15.983 15.26a.65.65 0 01.03.918c-.802.855-2.203 1.4-3.626 1.483-1.44.084-3.04-.297-4.21-1.468a.65.65 0 11.919-.919c.838.84 2.035 1.158 3.216 1.089 1.198-.07 2.244-.53 2.753-1.074a.65.65 0 01.918-.03zM7.5 8.006a.65.65 0 01.65.65v1.748a.65.65 0 11-1.3 0V8.656a.65.65 0 01.65-.65zM16.5 8.006a.65.65 0 01.65.65v1.748a.65.65 0 11-1.3 0V8.656a.65.65 0 01.65-.65z" fill="#626F84"/><path d="M4.892 2h.799a.65.65 0 010 1.3h-.8a1.7 1.7 0 00-1.7 1.7v.691a.65.65 0 11-1.3 0v-.69a3 3 0 013-3zM2.542 17.659a.65.65 0 00-.65.65V19a3 3 0 003 3h.799a.65.65 0 100-1.3h-.8a1.7 1.7 0 01-1.7-1.7v-.691a.65.65 0 00-.65-.65zM21.242 17.659a.65.65 0 00-.65.65V19a1.7 1.7 0 01-1.7 1.7h-.583a.65.65 0 100 1.3h.583a3 3 0 003-3v-.691a.65.65 0 00-.65-.65zM21.242 6.341a.65.65 0 00.65-.65v-.69a3 3 0 00-3-3h-.583a.65.65 0 100 1.3h.583a1.7 1.7 0 011.7 1.7v.69c0 .36.29.65.65.65z" fill="#626F84"/></svg>