<svg viewBox="0 0 28 28" fill="none" xmlns="http://www.w3.org/2000/svg"><rect y="4" width="28" height="20" rx="2" fill="#fff"/><mask id="a" style="mask-type:alpha" maskUnits="userSpaceOnUse" x="0" y="4" width="28" height="20"><rect y="4" width="28" height="20" rx="2" fill="#fff"/></mask><g mask="url(#a)"><path fill="#79CFF6" d="M0 4h28v20H0z"/><path fill="url(#paint0_linear_17_5662)" d="M0 4h12v9.333H0z"/><path fill-rule="evenodd" clip-rule="evenodd" d="M17.333 14V9.333H24V14c0 3.333-3.333 4.667-3.333 4.667S17.333 17.333 17.333 14z" fill="#fff"/><mask id="b" style="mask-type:alpha" maskUnits="userSpaceOnUse" x="17" y="9" width="7" height="10"><path fill-rule="evenodd" clip-rule="evenodd" d="M17.333 14V9.333H24V14c0 3.333-3.333 4.667-3.333 4.667S17.333 17.333 17.333 14z" fill="#fff"/></mask><g mask="url(#b)" fill-rule="evenodd" clip-rule="evenodd"><path d="M19.333 12A.667.667 0 1118 12a.667.667 0 011.333 0zm4 0A.667.667 0 1122 12a.667.667 0 011.333 0z" fill="#2A915C"/><path d="M17.333 9.333H24v1.334h-2.667v2.666H24v1.334h-2.667v4H20v-4h-2.667v-1.334H20v-2.666h-2.667V9.333z" fill="#EB1D43"/></g><path d="M0 3.667h-.901l.684.586 4.55 3.9v1.009l-4.527 3.233-.14.1v1.44l.51-.319 5.253-3.283h1.13l4.523 3.23a.554.554 0 00.682-.87L7.667 9.18V8.172l4.387-3.134a.667.667 0 00.28-.543V3.4l-.51.318L6.57 7h-1.13L.86 3.729l-.088-.062H0z" fill="#DB1E36" stroke="#fff" stroke-width=".667"/><path fill-rule="evenodd" clip-rule="evenodd" d="M0 7.333V10h4.667v3.333c0 .368.298.667.666.667h1.334a.667.667 0 00.666-.667V10H12a.667.667 0 00.667-.667V8A.667.667 0 0012 7.333H7.333V4H4.667v3.333H0z" fill="url(#paint1_linear_17_5662)"/><path fill-rule="evenodd" clip-rule="evenodd" d="M0 8h5.333V4h1.334v4H12v1.333H6.667v4H5.333v-4H0V8z" fill="#DB1E36"/></g><defs><linearGradient id="paint0_linear_17_5662" x1="0" y1="4" x2="0" y2="13.333" gradientUnits="userSpaceOnUse"><stop stop-color="#042C90"/><stop offset="1" stop-color="#00247E"/></linearGradient><linearGradient id="paint1_linear_17_5662" x1="0" y1="4" x2="0" y2="14" gradientUnits="userSpaceOnUse"><stop stop-color="#fff"/><stop offset="1" stop-color="#F0F0F0"/></linearGradient></defs></svg>