<svg viewBox="0 0 24 24" fill="none" xmlns="http://www.w3.org/2000/svg"><path fill-rule="evenodd" clip-rule="evenodd" d="M20.65 6.35a3 3 0 00-3-3h-8a3 3 0 00-3 3v10a3 3 0 003 3h8a3 3 0 003-3v-10zm-7.814.422a2.504 2.504 0 00-1.945 2.311c-.069 1.283.824 2.529 2.568 2.818.774.129 1.246.405 1.51.685.26.276.348.583.322.864-.05.551-.591 1.222-1.726 1.222-.604 0-.981-.25-1.22-.532-.263-.313-.34-.65-.34-.743a.65.65 0 10-1.3 0c0 .438.212 1.064.646 1.58.343.407.833.759 1.485.912v.806a.65.65 0 001.3 0v-.766c1.384-.21 2.343-1.182 2.45-2.36.06-.662-.161-1.334-.671-1.875-.505-.535-1.263-.913-2.243-1.075-1.155-.192-1.513-.908-1.483-1.466.031-.584.478-1.166 1.376-1.166.587 0 .914.235 1.115.504.223.3.308.674.308.91a.65.65 0 101.3 0 2.93 2.93 0 00-.565-1.685 2.502 2.502 0 00-1.587-.979v-.732a.65.65 0 10-1.3 0v.767z" fill="#626F84"/><path d="M4.65 8.7a.65.65 0 00-.65.65v9.4A3.25 3.25 0 007.25 22h8.4a.65.65 0 100-1.3h-8.4a1.95 1.95 0 01-1.95-1.95v-9.4a.65.65 0 00-.65-.65z" fill="#626F84"/></svg>