<svg viewBox="0 0 24 24" fill="none" xmlns="http://www.w3.org/2000/svg"><path d="M17.04 18.41a.65.65 0 00.65-.65v-.566h.48a.65.65 0 100-1.3h-.48v-1h1.062a.65.65 0 000-1.3h-1.713a.65.65 0 00-.65.65v3.515c0 .36.291.65.65.65zM13.382 17.76a.65.65 0 11-1.3 0v-3.517a.65.65 0 01.65-.65h1.72a.65.65 0 110 1.3h-1.07v1h.481a.65.65 0 110 1.3h-.48v.566zM8.32 14.243a.65.65 0 01-.65.65h-.56v2.866a.65.65 0 11-1.3 0v-2.866h-.561a.65.65 0 110-1.3H7.67a.65.65 0 01.65.65zM10.62 14.243a.65.65 0 10-1.3 0v3.516a.65.65 0 101.3 0v-3.516z" fill="#626F84"/><path fill-rule="evenodd" clip-rule="evenodd" d="M5 11V6a3 3 0 013-3h5.042a3 3 0 012.197.957l2.957 3.18A3 3 0 0119 9.18V11a3 3 0 013 3v4a3 3 0 01-3 3H5a3 3 0 01-3-3v-4a3 3 0 013-3zm8.042-6.7H8A1.7 1.7 0 006.3 6v5h11.4V9.18c0-.06-.003-.121-.01-.18H15.3a1.95 1.95 0 01-1.95-1.95V4.327a1.699 1.699 0 00-.308-.028zm1.608.933v1.816c0 .36.29.65.65.65h1.645L14.65 5.233zM5 12.3h14a1.7 1.7 0 011.7 1.7v4a1.7 1.7 0 01-1.7 1.7H5A1.7 1.7 0 013.3 18v-4A1.7 1.7 0 015 12.3z" fill="#626F84"/></svg>