<svg viewBox="0 0 24 24" fill="none" xmlns="http://www.w3.org/2000/svg"><path d="M11.706 17.109V14.89h.516a.65.65 0 01.65.65v.918a.65.65 0 01-.65.65h-.516zM6.74 14.891v.995h.668a.497.497 0 000-.995H6.74z" fill="#626F84"/><path fill-rule="evenodd" clip-rule="evenodd" d="M22 14a3 3 0 00-3-3V9.18a3 3 0 00-.803-2.044l-2.958-3.18A3 3 0 0013.041 3H8a3 3 0 00-3 3v5a3 3 0 00-3 3v4a3 3 0 003 3h14a3 3 0 003-3v-4zM8 4.3h5.042c.104 0 .207.01.308.028V7.05A1.95 1.95 0 0015.3 9h2.39c.007.06.01.12.01.18V11H6.3V6A1.7 1.7 0 018 4.3zm8.945 3.4L14.65 5.232v1.816c0 .36.29.65.65.65h1.645zm-6.348 10.518a.65.65 0 00.46.19h1.165a1.95 1.95 0 001.95-1.95v-.917a1.95 1.95 0 00-1.95-1.95h-1.166a.65.65 0 00-.65.65v3.518a.65.65 0 00.19.46zm6.245-.46a.65.65 0 11-1.3 0v-3.517a.65.65 0 01.65-.65h1.718a.65.65 0 010 1.3h-1.069v1h.481a.65.65 0 110 1.3h-.48v.568zm-10.102 0a.65.65 0 11-1.3 0v-3.517a.65.65 0 01.65-.65h1.318a1.797 1.797 0 010 3.595H6.74v.573z" fill="#626F84"/></svg>