<svg viewBox="0 0 24 24" fill="none" xmlns="http://www.w3.org/2000/svg"><path d="M10.89 9.083a2.504 2.504 0 011.946-2.311v-.767a.65.65 0 111.3 0v.732c.715.132 1.238.51 1.587.979a2.93 2.93 0 01.565 1.686.65.65 0 11-1.3 0c0-.237-.085-.611-.308-.91-.2-.27-.528-.505-1.115-.505-.898 0-1.345.582-1.376 1.166-.03.558.328 1.274 1.483 1.466.98.162 1.738.54 2.243 1.075.51.54.731 1.213.671 1.874-.107 1.179-1.066 2.15-2.45 2.361v.766a.65.65 0 01-1.3 0v-.806a2.744 2.744 0 01-1.485-.912c-.434-.516-.647-1.142-.647-1.58a.65.65 0 011.3 0c0 .094.078.43.342.743.238.283.615.532 1.22.532 1.134 0 1.675-.67 1.725-1.222.026-.281-.062-.588-.322-.864-.264-.28-.736-.556-1.51-.685-1.744-.29-2.637-1.535-2.568-2.818z" fill="#626F84"/><path fill-rule="evenodd" clip-rule="evenodd" d="M17.65 3.35a3 3 0 013 3v10a3 3 0 01-3 3h-8a3 3 0 01-3-3v-10a3 3 0 013-3h8zm-8 1.3h8a1.7 1.7 0 011.7 1.7v10a1.7 1.7 0 01-1.7 1.7h-8a1.7 1.7 0 01-1.7-1.7v-10a1.7 1.7 0 011.7-1.7z" fill="#626F84"/><path d="M4.65 8.7a.65.65 0 00-.65.65v9.4A3.25 3.25 0 007.25 22h8.4a.65.65 0 100-1.3h-8.4a1.95 1.95 0 01-1.95-1.95v-9.4a.65.65 0 00-.65-.65z" fill="#626F84"/></svg>