<svg viewBox="0 0 24 24" fill="none" xmlns="http://www.w3.org/2000/svg"><path d="M11.417 14.894v.995h.668a.497.497 0 100-.995h-.668z" fill="#626F84"/><path fill-rule="evenodd" clip-rule="evenodd" d="M5 6v5a3 3 0 00-3 3v4a3 3 0 003 3h14a3 3 0 003-3v-4a3 3 0 00-3-3V9.18a3 3 0 00-.803-2.044l-2.958-3.18A3 3 0 0013.041 3H8a3 3 0 00-3 3zm3-1.7h5.042c.104 0 .207.01.308.028V7.05A1.95 1.95 0 0015.3 9h2.39c.007.06.01.12.01.18V11H6.3V6A1.7 1.7 0 018 4.3zm8.945 3.4L14.65 5.232v1.816c0 .36.29.65.65.65h1.645zM11.417 17.76a.65.65 0 11-1.3 0v-3.517a.65.65 0 01.65-.65h1.318a1.797 1.797 0 110 3.595h-.668v.572zm5.515-2.867a.65.65 0 00-.65.65v.917c0 .36.291.65.65.65h.313a.05.05 0 00.05-.05v-.499a.65.65 0 111.3 0v.5a1.35 1.35 0 01-1.35 1.35h-.313a1.95 1.95 0 01-1.95-1.95v-.918a1.95 1.95 0 011.95-1.95h1.013a.65.65 0 110 1.3h-1.013zm-8.293-.65a.65.65 0 10-1.3 0v2.217a.65.65 0 01-.65.65h-.634a.65.65 0 100 1.3h.634a1.95 1.95 0 001.95-1.95v-2.217z" fill="#626F84"/></svg>