<svg viewBox="0 0 24 24" fill="none" xmlns="http://www.w3.org/2000/svg"><path fill-rule="evenodd" clip-rule="evenodd" d="M22 14a3 3 0 00-3-3V9.18a3 3 0 00-.803-2.044l-2.958-3.18A3 3 0 0013.041 3H8a3 3 0 00-3 3v5a3 3 0 00-3 3v4a3 3 0 003 3h14a3 3 0 003-3v-4zM8 4.3h5.042c.104 0 .207.01.308.028V7.05A1.95 1.95 0 0015.3 9h2.39c.007.06.01.12.01.18V11H6.3V6A1.7 1.7 0 018 4.3zm8.945 3.4L14.65 5.232v1.816c0 .36.29.65.65.65h1.645zm-7.953 6.544a.65.65 0 01-.65.65h-.56v2.867a.65.65 0 01-1.3 0v-2.867H5.92a.65.65 0 110-1.3h2.422a.65.65 0 01.65.65zm9.088.65a.65.65 0 100-1.3h-2.422a.65.65 0 100 1.3h.56v2.867a.65.65 0 001.3 0v-2.867h.562zm-7.693-1.196a.65.65 0 01.907.152l.735 1.03.735-1.03a.65.65 0 011.059.755L12.828 16l.995 1.395a.65.65 0 11-1.059.755l-.735-1.03-.735 1.03a.65.65 0 11-1.059-.755L11.232 16l-.995-1.395a.65.65 0 01.151-.907z" fill="#626F84"/></svg>