<svg viewBox="0 0 24 24" fill="none" xmlns="http://www.w3.org/2000/svg"><path d="M6.682 15.886v-.995h.668a.497.497 0 010 .995h-.668zM12.316 14.891h-.668v.995h.668a.497.497 0 000-.995z" fill="#626F84"/><path fill-rule="evenodd" clip-rule="evenodd" d="M22 14a3 3 0 00-3-3V9.18a3 3 0 00-.803-2.044l-2.958-3.18A3 3 0 0013.041 3H8a3 3 0 00-3 3v5a3 3 0 00-3 3v4a3 3 0 003 3h14a3 3 0 003-3v-4zM8 4.3h5.042c.104 0 .207.01.308.028V7.05A1.95 1.95 0 0015.3 9h2.39c.007.06.01.12.01.18V11H6.3V6A1.7 1.7 0 018 4.3zm8.945 3.4L14.65 5.232v1.816c0 .36.29.65.65.65h1.645zM6.032 18.408a.65.65 0 00.65-.65v-.573h.668a1.797 1.797 0 100-3.595H6.032a.65.65 0 00-.65.65v3.518c0 .359.291.65.65.65zm5.616-.65a.65.65 0 11-1.3 0V14.24a.65.65 0 01.65-.65h1.319a1.797 1.797 0 010 3.595h-.669v.573zm6.97-3.515a.65.65 0 01-.65.65h-.562v2.867a.65.65 0 01-1.3 0v-2.867h-.56a.65.65 0 010-1.3h2.421a.65.65 0 01.65.65z" fill="#626F84"/></svg>