<svg viewBox="0 0 24 24" fill="none" xmlns="http://www.w3.org/2000/svg"><path fill-rule="evenodd" clip-rule="evenodd" d="M17.65 4.65H9.668a1.7 1.7 0 00-1.7 1.7v10.016a1.7 1.7 0 001.7 1.7h7.982a1.7 1.7 0 001.7-1.7V6.35a1.7 1.7 0 00-1.7-1.7zm-7.982-1.3a3 3 0 00-3 3v10.016a3 3 0 003 3h7.982a3 3 0 003-3V6.35a3 3 0 00-3-3H9.668zM4.713 8.702a.65.65 0 01.65.65v9.461a1.85 1.85 0 001.85 1.85h8.443a.65.65 0 110 1.3H7.213a3.15 3.15 0 01-3.15-3.15v-9.46a.65.65 0 01.65-.65zm5.625.832c.224-.088.454-.05.567.027a.184.184 0 01.08.104c.013.042.028.142-.033.325-.342 1.032-.892 2.636-1.17 3.277a.65.65 0 001.005.764l2.103-1.703.827.759a.65.65 0 001.005-.159c.088-.155.171-.337.244-.494l.043-.094c.088-.192.17-.359.265-.504.178-.275.352-.405.61-.427a.602.602 0 01.551.231 1.092 1.092 0 01.176.294l.004.012a.65.65 0 001.238-.397l-.62.195.62-.196v-.002l-.002-.003-.002-.007-.006-.018a1.815 1.815 0 00-.095-.225 2.387 2.387 0 00-.321-.493 1.899 1.899 0 00-1.65-.686c-.805.066-1.29.546-1.594 1.015a4.283 4.283 0 00-.231.409l-.596-.547a.65.65 0 00-.848-.026l-.705.571c.14-.41.274-.808.383-1.137.126-.381.15-.76.044-1.108a1.483 1.483 0 00-.596-.806c-.518-.351-1.209-.382-1.771-.161a.65.65 0 10.475 1.21z" fill="#626F84"/></svg>