<svg viewBox="0 0 24 24" fill="none" xmlns="http://www.w3.org/2000/svg"><path d="M17.141 9.316a.65.65 0 10-1.243-.38l-.77 2.518-.853-2.535a.65.65 0 00-1.229-.012l-.909 2.549-.719-2.51a.65.65 0 10-1.25.359l1.277 4.453a.65.65 0 001.237.04l.958-2.687.9 2.675a.65.65 0 001.237-.017l1.364-4.453z" fill="#626F84"/><path fill-rule="evenodd" clip-rule="evenodd" d="M20.65 6.35a3 3 0 00-3-3h-8a3 3 0 00-3 3v10a3 3 0 003 3h8a3 3 0 003-3v-10zm-3-1.7h-8a1.7 1.7 0 00-1.7 1.7v10a1.7 1.7 0 001.7 1.7h8a1.7 1.7 0 001.7-1.7v-10a1.7 1.7 0 00-1.7-1.7z" fill="#626F84"/><path d="M4.65 8.7a.65.65 0 00-.65.65v9.4A3.25 3.25 0 007.25 22h8.4a.65.65 0 100-1.3h-8.4a1.95 1.95 0 01-1.95-1.95v-9.4a.65.65 0 00-.65-.65z" fill="#626F84"/></svg>