<svg viewBox="0 0 24 24" fill="none" xmlns="http://www.w3.org/2000/svg"><path fill-rule="evenodd" clip-rule="evenodd" d="M10.767 18.411a.65.65 0 00.65-.65v-.572h.668a1.797 1.797 0 100-3.595h-1.318a.65.65 0 00-.65.65v3.517c0 .36.291.65.65.65zm.65-2.522v-.995h.668a.497.497 0 110 .995h-.668z" fill="#626F84"/><path d="M16.282 15.544a.65.65 0 01.65-.65h1.013a.65.65 0 100-1.3h-1.013a1.95 1.95 0 00-1.95 1.95v.917a1.95 1.95 0 001.95 1.95h.313a1.35 1.35 0 001.35-1.35v-.499a.65.65 0 10-1.3 0v.5a.05.05 0 01-.05.05h-.313a.65.65 0 01-.65-.65v-.918zM7.989 13.594a.65.65 0 01.65.65v2.217a1.95 1.95 0 01-1.95 1.95h-.634a.65.65 0 110-1.3h.634a.65.65 0 00.65-.65v-2.217a.65.65 0 01.65-.65z" fill="#626F84"/><path fill-rule="evenodd" clip-rule="evenodd" d="M5 11V6a3 3 0 013-3h5.042a3 3 0 012.197.957l2.957 3.18A3 3 0 0119 9.18V11a3 3 0 013 3v4a3 3 0 01-3 3H5a3 3 0 01-3-3v-4a3 3 0 013-3zm8.042-6.7H8A1.7 1.7 0 006.3 6v5h11.4V9.18c0-.06-.003-.121-.01-.18H15.3a1.95 1.95 0 01-1.95-1.95V4.327a1.699 1.699 0 00-.308-.028zm1.608.933v1.816c0 .36.29.65.65.65h1.645L14.65 5.233zM5 12.3h14a1.7 1.7 0 011.7 1.7v4a1.7 1.7 0 01-1.7 1.7H5A1.7 1.7 0 013.3 18v-4A1.7 1.7 0 015 12.3z" fill="#626F84"/></svg>