<svg viewBox="0 0 24 24" fill="none" xmlns="http://www.w3.org/2000/svg"><path d="M12.412 14.233a.65.65 0 10-1.3 0v3.54c0 .358.291.65.65.65h1.72a.65.65 0 000-1.3h-1.07v-2.89zM18.097 14.233a.65.65 0 00-.65-.65h-.86a1.509 1.509 0 00-.525 2.923l.753.28a.174.174 0 01-.06.336h-1.026a.65.65 0 100 1.3h1.025a1.473 1.473 0 00.514-2.854l-.753-.28a.209.209 0 01.073-.405h.86a.65.65 0 00.65-.65zM6.951 13.85a.65.65 0 10-1.058.755L6.888 16l-.995 1.395a.65.65 0 001.058.755l.735-1.03.736 1.03a.65.65 0 001.058-.755L8.485 16l.995-1.395a.65.65 0 00-1.058-.755l-.736 1.03-.735-1.03z" fill="#626F84"/><path fill-rule="evenodd" clip-rule="evenodd" d="M5 6v5a3 3 0 00-3 3v4a3 3 0 003 3h14a3 3 0 003-3v-4a3 3 0 00-3-3V9.18a3 3 0 00-.803-2.044l-2.958-3.18A3 3 0 0013.041 3H8a3 3 0 00-3 3zm3-1.7h5.042c.104 0 .207.01.308.028V7.05A1.95 1.95 0 0015.3 9h2.39c.007.06.01.12.01.18V11H6.3V6A1.7 1.7 0 018 4.3zm8.945 3.4L14.65 5.232v1.816c0 .36.29.65.65.65h1.645zM19 12.3H5A1.7 1.7 0 003.3 14v4A1.7 1.7 0 005 19.7h14a1.7 1.7 0 001.7-1.7v-4a1.7 1.7 0 00-1.7-1.7z" fill="#626F84"/></svg>