<svg viewBox="0 0 24 24" fill="none" xmlns="http://www.w3.org/2000/svg"><path d="M6.626 14.891v2.218h.515a.65.65 0 00.65-.65v-.918a.65.65 0 00-.65-.65h-.515zM12.228 17.109a.583.583 0 01-.583-.583v-1.052a.583.583 0 111.166 0v1.052c0 .322-.261.583-.583.583z" fill="#626F84"/><path fill-rule="evenodd" clip-rule="evenodd" d="M5 6v5a3 3 0 00-3 3v4a3 3 0 003 3h14a3 3 0 003-3v-4a3 3 0 00-3-3V9.18a3 3 0 00-.803-2.044l-2.958-3.18A3 3 0 0013.041 3H8a3 3 0 00-3 3zm3-1.7h5.042c.104 0 .207.01.308.028V7.05A1.95 1.95 0 0015.3 9h2.39c.007.06.01.12.01.18V11H6.3V6A1.7 1.7 0 018 4.3zm8.945 3.4L14.65 5.232v1.816c0 .36.29.65.65.65h1.645zM5.975 18.408a.65.65 0 01-.65-.65V14.24a.65.65 0 01.65-.65h1.166a1.95 1.95 0 011.95 1.95v.918a1.95 1.95 0 01-1.95 1.95H5.976zm4.37-1.883a1.883 1.883 0 003.766 0v-1.052a1.883 1.883 0 10-3.766 0v1.052zm6.337-.067c0 .359.291.65.65.65h.692a.65.65 0 010 1.3h-.692a1.95 1.95 0 01-1.95-1.95v-.918a1.95 1.95 0 011.95-1.95h.692a.65.65 0 010 1.3h-.692a.65.65 0 00-.65.65v.918z" fill="#626F84"/></svg>