<svg viewBox="0 0 24 24" fill="none" xmlns="http://www.w3.org/2000/svg"><path fill-rule="evenodd" clip-rule="evenodd" d="M5.516 18.218a.65.65 0 00.46.19H7.14a1.95 1.95 0 001.95-1.95v-.917a1.95 1.95 0 00-1.95-1.95H5.976a.65.65 0 00-.65.65v3.518a.65.65 0 00.19.46zm1.11-1.11v-2.217h.515a.65.65 0 01.65.65v.918a.65.65 0 01-.65.65h-.515zM12.228 18.409a1.883 1.883 0 01-1.883-1.883v-1.052a1.883 1.883 0 013.766 0v1.052c0 1.04-.843 1.883-1.883 1.883zm-.583-1.883a.583.583 0 001.166 0v-1.052a.583.583 0 10-1.166 0v1.052z" fill="#626F84"/><path d="M17.332 17.109a.65.65 0 01-.65-.65v-.918a.65.65 0 01.65-.65h.692a.65.65 0 000-1.3h-.692a1.95 1.95 0 00-1.95 1.95v.918a1.95 1.95 0 001.95 1.95h.692a.65.65 0 000-1.3h-.692z" fill="#626F84"/><path fill-rule="evenodd" clip-rule="evenodd" d="M5 11V6a3 3 0 013-3h5.042a3 3 0 012.197.957l2.957 3.18A3 3 0 0119 9.18V11a3 3 0 013 3v4a3 3 0 01-3 3H5a3 3 0 01-3-3v-4a3 3 0 013-3zm8.042-6.7H8A1.7 1.7 0 006.3 6v5h11.4V9.18c0-.06-.003-.121-.01-.18H15.3a1.95 1.95 0 01-1.95-1.95V4.327a1.699 1.699 0 00-.308-.028zm1.608.933v1.816c0 .36.29.65.65.65h1.645L14.65 5.233zM5 12.3h14a1.7 1.7 0 011.7 1.7v4a1.7 1.7 0 01-1.7 1.7H5A1.7 1.7 0 013.3 18v-4A1.7 1.7 0 015 12.3z" fill="#626F84"/></svg>