<svg viewBox="0 0 24 24" fill="none" xmlns="http://www.w3.org/2000/svg"><path d="M7.59 13.85a.65.65 0 011.058.755L7.653 16l.995 1.395a.65.65 0 11-1.058.755l-.735-1.03-.736 1.03a.65.65 0 01-1.058-.755L6.056 16l-.995-1.395a.65.65 0 111.058-.755l.736 1.03.735-1.03zM9.9 14.236a.65.65 0 011.179-.386l1.32 1.85 1.29-1.809a.65.65 0 011.203.421v3.46a.65.65 0 11-1.3 0v-1.506l-.662.927a.648.648 0 01-1.063 0l-.668-.935v1.514a.65.65 0 11-1.3 0v-3.536zM16.845 13.583a.65.65 0 01.65.65v2.89h1.069a.65.65 0 110 1.3h-1.72a.65.65 0 01-.65-.65v-3.54a.65.65 0 01.65-.65z" fill="#626F84"/><path fill-rule="evenodd" clip-rule="evenodd" d="M5 11V6a3 3 0 013-3h5.042a3 3 0 012.197.957l2.957 3.18A3 3 0 0119 9.18V11a3 3 0 013 3v4a3 3 0 01-3 3H5a3 3 0 01-3-3v-4a3 3 0 013-3zm8.042-6.7H8A1.7 1.7 0 006.3 6v5h11.4V9.18c0-.06-.003-.121-.01-.18H15.3a1.95 1.95 0 01-1.95-1.95V4.327a1.699 1.699 0 00-.308-.028zm1.608.933v1.816c0 .36.29.65.65.65h1.645L14.65 5.233zM5 12.3h14a1.7 1.7 0 011.7 1.7v4a1.7 1.7 0 01-1.7 1.7H5A1.7 1.7 0 013.3 18v-4A1.7 1.7 0 015 12.3z" fill="#626F84"/></svg>