<svg viewBox="0 0 24 24" fill="none" xmlns="http://www.w3.org/2000/svg"><path fill-rule="evenodd" clip-rule="evenodd" d="M6.682 17.759a.65.65 0 11-1.3 0V14.24a.65.65 0 01.65-.65h1.319a1.797 1.797 0 010 3.595h-.669v.573zm0-2.868v.995h.669a.497.497 0 000-.995h-.669zM10.999 18.409a.65.65 0 00.65-.65v-.573h.668a1.797 1.797 0 100-3.595h-1.318a.65.65 0 00-.65.65v3.518c0 .359.29.65.65.65zm.65-3.518h.668a.497.497 0 010 .995h-.668v-.995z" fill="#626F84"/><path d="M17.968 14.894a.65.65 0 100-1.3h-2.422a.65.65 0 100 1.3h.56v2.867a.65.65 0 001.3 0v-2.867h.562z" fill="#626F84"/><path fill-rule="evenodd" clip-rule="evenodd" d="M5 6v5a3 3 0 00-3 3v4a3 3 0 003 3h14a3 3 0 003-3v-4a3 3 0 00-3-3V9.18a3 3 0 00-.803-2.044l-2.958-3.18A3 3 0 0013.041 3H8a3 3 0 00-3 3zm3-1.7h5.042c.104 0 .207.01.308.028V7.05A1.95 1.95 0 0015.3 9h2.39c.007.06.01.12.01.18V11H6.3V6A1.7 1.7 0 018 4.3zm8.945 3.4L14.65 5.232v1.816c0 .36.29.65.65.65h1.645zM19 12.3H5A1.7 1.7 0 003.3 14v4A1.7 1.7 0 005 19.7h14a1.7 1.7 0 001.7-1.7v-4a1.7 1.7 0 00-1.7-1.7z" fill="#626F84"/></svg>