<svg viewBox="0 0 24 24" fill="none" xmlns="http://www.w3.org/2000/svg"><path fill-rule="evenodd" clip-rule="evenodd" d="M5 6v5a3 3 0 00-3 3v4a3 3 0 003 3h14a3 3 0 003-3v-4a3 3 0 00-3-3V9.18a3 3 0 00-.803-2.044l-2.958-3.18A3 3 0 0013.041 3H8a3 3 0 00-3 3zm3-1.7h5.042c.104 0 .207.01.308.028V7.05A1.95 1.95 0 0015.3 9h2.39c.007.06.01.12.01.18V11H6.3V6A1.7 1.7 0 018 4.3zm8.945 3.4L14.65 5.232v1.816c0 .36.29.65.65.65h1.645zm.744 10.06a.65.65 0 01-1.3 0v-3.517a.65.65 0 01.65-.65h1.713a.65.65 0 010 1.3h-1.063v1h.481a.65.65 0 110 1.3h-.48v.566zm-4.957.65a.65.65 0 00.65-.65v-.566h.481a.65.65 0 100-1.3h-.48v-1h1.068a.65.65 0 100-1.3h-1.719a.65.65 0 00-.65.65v3.515c0 .36.291.65.65.65zm-5.061-3.517a.65.65 0 100-1.3H5.249a.65.65 0 100 1.3h.56v2.866a.65.65 0 101.3 0v-2.866h.562zm2.3-1.3a.65.65 0 01.65.65v3.516a.65.65 0 11-1.3 0v-3.516a.65.65 0 01.65-.65z" fill="#626F84"/></svg>