<svg viewBox="0 0 24 24" fill="none" xmlns="http://www.w3.org/2000/svg"><mask id="a" fill="#fff"><path fill-rule="evenodd" clip-rule="evenodd" d="M5 11V6a3 3 0 013-3h5.042a3 3 0 012.197.957l2.957 3.18A3 3 0 0119 9.18V11a3 3 0 013 3v4a3 3 0 01-3 3H5a3 3 0 01-3-3v-4a3 3 0 013-3zm8.042-6.7H8A1.7 1.7 0 006.3 6v5h11.4V9.18a1.7 1.7 0 00-.455-1.158l-2.958-3.18a1.7 1.7 0 00-1.245-.542zm-4.545 9.398a.65.65 0 00-.907.152l-.735 1.03-.736-1.03a.65.65 0 00-1.058.755L6.056 16l-.995 1.395a.65.65 0 001.058.755l.736-1.03.735 1.03a.65.65 0 101.058-.755L7.653 16l.995-1.395a.65.65 0 00-.151-.907zm8.998.535a.65.65 0 00-1.3 0v3.54c0 .358.291.65.65.65h1.719a.65.65 0 000-1.3h-1.069v-2.89zm-7.323-.535a.65.65 0 01.907.152l1.32 1.85 1.29-1.809a.65.65 0 011.203.421v3.46a.65.65 0 01-1.3 0v-1.506l-.654.915a.642.642 0 01-.245.217.646.646 0 01-.734-.1.645.645 0 01-.1-.117l-.66-.923v1.514a.65.65 0 01-1.3 0v-3.54a.663.663 0 01.273-.534z"/></mask><path fill-rule="evenodd" clip-rule="evenodd" d="M5 11V6a3 3 0 013-3h5.042a3 3 0 012.197.957l2.957 3.18A3 3 0 0119 9.18V11a3 3 0 013 3v4a3 3 0 01-3 3H5a3 3 0 01-3-3v-4a3 3 0 013-3zm8.042-6.7H8A1.7 1.7 0 006.3 6v5h11.4V9.18a1.7 1.7 0 00-.455-1.158l-2.958-3.18a1.7 1.7 0 00-1.245-.542zm-4.545 9.398a.65.65 0 00-.907.152l-.735 1.03-.736-1.03a.65.65 0 00-1.058.755L6.056 16l-.995 1.395a.65.65 0 001.058.755l.736-1.03.735 1.03a.65.65 0 101.058-.755L7.653 16l.995-1.395a.65.65 0 00-.151-.907zm8.998.535a.65.65 0 00-1.3 0v3.54c0 .358.291.65.65.65h1.719a.65.65 0 000-1.3h-1.069v-2.89zm-7.323-.535a.65.65 0 01.907.152l1.32 1.85 1.29-1.809a.65.65 0 011.203.421v3.46a.65.65 0 01-1.3 0v-1.506l-.654.915a.642.642 0 01-.245.217.646.646 0 01-.734-.1.645.645 0 01-.1-.117l-.66-.923v1.514a.65.65 0 01-1.3 0v-3.54a.663.663 0 01.273-.534z" fill="#626F84" stroke="#626F84" stroke-width="2.6" mask="url(#a)"/><path d="M15.3 8.35V9v-.65zm3.258-.65H15.3V9h3.258V7.7zm-3.908-.65V3.93h-1.3v3.12h1.3zm.65.65a.65.65 0 01-.65-.65h-1.3A1.95 1.95 0 0015.3 9V7.7z" fill="#626F84"/></svg>