<svg viewBox="0 0 24 24" fill="none" xmlns="http://www.w3.org/2000/svg"><path d="M14.01 5.64c0 1.462-2.463 2.648-5.5 2.648-3.038 0-5.5-1.186-5.5-2.647 0-1.462 2.462-2.647 5.5-2.647 3.037 0 5.5 1.185 5.5 2.647zM20.95 12.324c0 1.462-2.462 2.647-5.5 2.647-3.037 0-5.5-1.185-5.5-2.647 0-1.462 2.463-2.647 5.5-2.647 3.038 0 5.5 1.185 5.5 2.647z" fill="#626F84"/><path d="M10.097 15.267a.65.65 0 01.914-.096c.284.23 1.768 1.293 4.435 1.293 2.684 0 4.103-.987 4.431-1.276a.65.65 0 01.86.976c-.555.488-2.276 1.6-5.291 1.6-3.032 0-4.796-1.212-5.253-1.582a.65.65 0 01-.096-.915z" fill="#626F84"/><path d="M11.011 17.82a.65.65 0 10-.818 1.011c.449.363 2.266 1.644 5.306 1.644 3.035 0 4.7-1.188 5.237-1.661a.65.65 0 10-.859-.976c-.344.303-1.714 1.337-4.378 1.337-2.658 0-4.195-1.118-4.488-1.354zM4.07 8.488a.65.65 0 10-.817 1.01c.457.37 2.22 1.583 5.252 1.583a.65.65 0 100-1.3c-2.667 0-4.15-1.063-4.434-1.293zM3.156 11.234a.65.65 0 01.915-.097c.292.237 1.829 1.355 4.487 1.355a.65.65 0 010 1.3c-3.04 0-4.857-1.281-5.305-1.644a.65.65 0 01-.097-.914zM4.07 13.878a.65.65 0 00-.817 1.01c.448.364 2.265 1.644 5.305 1.644a.65.65 0 100-1.3c-2.658 0-4.195-1.117-4.487-1.354z" fill="#626F84"/></svg>