<svg viewBox="0 0 24 24" fill="none" xmlns="http://www.w3.org/2000/svg"><path fill-rule="evenodd" clip-rule="evenodd" d="M3.004 8.647l.004-3.092C3.14 4.133 5.55 3 8.504 3c.223 0 .444.006.66.02 2.569.148 4.592 1.148 4.816 2.395.009.046.016.093.02.14v2.374c0 .35-.294.627-.643.631a.64.64 0 01-.657-.631v-.576c-1.009.573-2.516.937-4.2.937-1.68 0-3.185-.362-4.194-.934v1.291c.016.044.124.339.873.699.638.307 1.788.58 2.931.671.136.011.272.02.406.024.285.011.398.55.225.776-.242.316-.56.518-.955.48-1.347-.133-2.598-.504-3.482-1.011l-.001 1.361h.004c.015.044.123.339.872.699.567.273 1.61.49 2.607.588.346.034.62.32.62.667 0 .371-.31.669-.68.631-1.322-.134-2.552-.488-3.425-.976L4.3 14.623a.198.198 0 00.013.034c.016.034.05.09.118.165.141.154.393.345.784.531.565.269 1.603.48 2.584.578.346.034.62.32.62.667 0 .371-.31.669-.68.631-2.491-.255-4.672-1.294-4.739-2.548l.005-5.992v-.042zm8.756-3.725c-.668-.311-1.598-.544-2.679-.606a10.21 10.21 0 00-.579-.016c-1.325 0-2.47.257-3.254.622-.392.183-.65.372-.798.529a.754.754 0 00-.142.203v.005c.03.075.173.351.866.685.784.377 1.958.646 3.326.646s2.542-.27 3.326-.646c.743-.358.854-.65.871-.698a.751.751 0 00-.14-.195c-.148-.157-.405-.346-.797-.529z" fill="#626F84"/><path fill-rule="evenodd" clip-rule="evenodd" d="M9.95 18.316v-2.889a1.297 1.297 0 01-.004-.095h.003v-3.048c.003-.036.008-.072.014-.108.161-1.392 2.558-2.496 5.492-2.496 3.037 0 5.5 1.184 5.5 2.645 0 .062-.005.124-.013.185l.007 5.806c-.077 1.473-2.51 2.656-5.5 2.656s-5.423-1.183-5.5-2.656zm1.315-5.972c.057-.12.26-.41.932-.729.782-.371 1.925-.632 3.248-.632 1.323 0 2.466.261 3.248.632.716.34.9.646.942.75-.05.102-.228.357-.855.659-.783.377-1.958.646-3.325.646-1.368 0-2.542-.27-3.326-.646-.677-.326-.83-.598-.864-.68zm-.016 1.686c1.009.575 2.519.94 4.206.94 1.678 0 3.18-.361 4.188-.93l.002 1.292h-.002c-.016.045-.123.339-.872.7-.784.376-1.958.645-3.326.645-1.367 0-2.541-.269-3.325-.646-.736-.354-.852-.644-.87-.696v-1.306zm4.196 3.947c-1.681 0-3.187-.363-4.196-.935v1.215c.014.057.133.387.924.77.781.377 1.936.645 3.276.645 1.34 0 2.495-.268 3.277-.646.788-.381.908-.711.923-.769l-.002-1.218c-1.008.574-2.516.938-4.202.938z" fill="#626F84"/></svg>