<svg viewBox="0 0 24 24" fill="none" xmlns="http://www.w3.org/2000/svg"><path fill-rule="evenodd" clip-rule="evenodd" d="M19 2H5a3 3 0 00-3 3v14a3 3 0 003 3h14a3 3 0 003-3V5a3 3 0 00-3-3zM8.014 7.145A6.37 6.37 0 0112 5.753c1.688 0 3.222.652 4.366 1.72a.65.65 0 00.887-.95A7.675 7.675 0 0012 4.453a7.67 7.67 0 00-4.796 1.676A7.687 7.687 0 004.3 12.153c0 .546.057 1.08.165 1.594a.65.65 0 001.272-.268 6.43 6.43 0 01-.137-1.326c0-2.027.942-3.834 2.414-5.008zm10.926 1.67a.65.65 0 10-1.17.564c.403.838.63 1.779.63 2.774v.021c0 .765 0 1.157-.223 2.576a.65.65 0 001.284.201c.237-1.505.239-1.959.239-2.798a7.672 7.672 0 00-.76-3.339zM12 7.386a.65.65 0 100 1.3 3.452 3.452 0 013.378 2.742.65.65 0 101.273-.265A4.752 4.752 0 0012 7.387zM10.036 9.3a.65.65 0 10-.74-1.069 4.745 4.745 0 00-2.046 3.907c0 1.097-.102 1.763-.283 2.286-.182.525-.46.952-.903 1.574a.65.65 0 001.06.754c.447-.628.822-1.186 1.07-1.902.25-.716.356-1.543.356-2.712 0-1.177.587-2.215 1.486-2.838zM12 11.275a.835.835 0 00-.835.835.65.65 0 11-1.3 0 2.135 2.135 0 014.27 0c0 2.52-.335 4.27-1.672 7.105a.65.65 0 11-1.176-.555c1.257-2.665 1.548-4.227 1.548-6.55a.835.835 0 00-.835-.835zm-1.35 2.386a.65.65 0 01.501.77c-.446 2.103-1.233 3.312-1.83 4.126a.65.65 0 11-1.048-.77c.528-.718 1.21-1.759 1.606-3.625a.65.65 0 01.771-.5zm6.344.011a.65.65 0 00-1.3 0 11.38 11.38 0 01-.774 4.058l-.024.055-.005.012v.002a.65.65 0 00.328.858.657.657 0 00.86-.33v-.002l.003-.006.01-.021.03-.075c.027-.064.064-.156.107-.273a12.681 12.681 0 00.765-4.277z" fill="#626F84"/></svg>