<svg viewBox="0 0 24 24" fill="none" xmlns="http://www.w3.org/2000/svg"><path d="M5.691 2h-.8a3 3 0 00-3 3v.691a.65.65 0 001.3 0v-.69a1.7 1.7 0 011.7-1.7h.8a.65.65 0 000-1.3zM1.892 18.309a.65.65 0 111.3 0V19a1.7 1.7 0 001.7 1.7h.799a.65.65 0 110 1.3h-.8a3 3 0 01-3-3v-.691zM21.242 17.659a.65.65 0 00-.65.65V19a1.7 1.7 0 01-1.7 1.7h-.583a.65.65 0 100 1.3h.583a3 3 0 003-3v-.691a.65.65 0 00-.65-.65zM21.892 5.691a.65.65 0 01-1.3 0v-.69a1.7 1.7 0 00-1.7-1.7h-.583a.65.65 0 110-1.3h.583a3 3 0 013 3v.69zM8.014 7.145A6.37 6.37 0 0112 5.753c1.688 0 3.222.652 4.366 1.72a.65.65 0 10.887-.95A7.675 7.675 0 0012 4.453a7.67 7.67 0 00-4.796 1.675A7.687 7.687 0 004.3 12.153c0 .546.057 1.08.165 1.594a.65.65 0 101.272-.268 6.43 6.43 0 01-.137-1.326c0-2.027.942-3.834 2.414-5.008zM18.94 8.814a.65.65 0 10-1.17.565c.403.838.63 1.779.63 2.774v.021c0 .765 0 1.157-.223 2.576a.65.65 0 001.284.201c.237-1.505.239-1.959.239-2.798a7.672 7.672 0 00-.76-3.339z" fill="#626F84"/><path d="M12 7.387a.65.65 0 000 1.3 3.452 3.452 0 013.378 2.742.65.65 0 001.273-.265A4.752 4.752 0 0012 7.387zM10.036 9.3a.65.65 0 00-.74-1.069 4.745 4.745 0 00-2.046 3.906c0 1.098-.102 1.763-.283 2.287-.182.524-.46.952-.903 1.574a.65.65 0 101.06.754c.447-.628.822-1.186 1.07-1.902.25-.716.356-1.544.356-2.713 0-1.176.587-2.214 1.486-2.838zM12 11.275a.835.835 0 00-.835.835.65.65 0 11-1.3 0 2.135 2.135 0 114.27 0c0 2.52-.335 4.27-1.672 7.105a.65.65 0 11-1.176-.555c1.257-2.665 1.548-4.227 1.548-6.55a.835.835 0 00-.835-.835z" fill="#626F84"/><path d="M10.65 13.661a.65.65 0 01.501.77c-.447 2.103-1.233 3.312-1.83 4.126a.65.65 0 11-1.048-.77c.528-.718 1.21-1.759 1.606-3.625a.65.65 0 01.771-.501zM16.994 13.672a.65.65 0 10-1.3 0 11.38 11.38 0 01-.798 4.113l-.005.012v.002a.65.65 0 00.328.858.656.656 0 00.86-.33v-.002l.003-.006.01-.021a8.071 8.071 0 00.137-.348 12.68 12.68 0 00.765-4.277z" fill="#626F84"/></svg>