<svg viewBox="0 0 24 24" fill="none" xmlns="http://www.w3.org/2000/svg"><path fill-rule="evenodd" clip-rule="evenodd" d="M2 5a3 3 0 013-3h14a3 3 0 013 3v14a3 3 0 01-3 3H5a3 3 0 01-3-3V5zm14.154 15.057a.65.65 0 01.03-.919l1.59-1.488h-4.433A3.65 3.65 0 019.69 14v-1.343H4.654a.65.65 0 110-1.3h5.037V10a3.65 3.65 0 013.65-3.65h4.363l-1.548-1.475a.65.65 0 01.897-.94l2.753 2.623a.903.903 0 01.01.01l.008.007a.647.647 0 01-.022.936l-2.753 2.576a.65.65 0 11-.888-.949l1.59-1.488h-4.41A2.35 2.35 0 0010.99 10v4a2.35 2.35 0 002.35 2.35h4.386l-1.547-1.475a.65.65 0 11.897-.94l2.753 2.623a.648.648 0 01-.004.953l-2.753 2.576a.65.65 0 01-.92-.03z" fill="#626F84"/></svg>