<svg viewBox="0 0 25 24" fill="none" xmlns="http://www.w3.org/2000/svg"><path fill-rule="evenodd" clip-rule="evenodd" d="M12.904 6.61l-.759-.455a3 3 0 00-3.665.451l-.48.48-3.742 3.743a3 3 0 00-.058 4.183l5.505 5.816a.7.7 0 00.473.218.648.648 0 00.11.009h6.707a.65.65 0 100-1.3h-2.556l3.085-3.131.487-.487a3 3 0 00.451-3.665l-.509-.848a1.3 1.3 0 01.446-1.783l1.547-.928a3 3 0 00.578-4.694l-.296-.297a3 3 0 00-4.805.78l-.687 1.375a1.3 1.3 0 01-1.832.533zM8.919 8.006l7.692 7.692.48-.48a1.7 1.7 0 00.256-2.077l-.508-.848a2.6 2.6 0 01.892-3.567l1.547-.928a1.7 1.7 0 00.327-2.66l-.296-.297a1.7 1.7 0 00-2.723.442l-.688 1.375a2.6 2.6 0 01-3.663 1.067l-.759-.455a1.7 1.7 0 00-2.076.256l-.48.48z" fill="#626F84"/></svg>