<svg viewBox="0 0 28 28" fill="none" xmlns="http://www.w3.org/2000/svg"><rect y="4" width="28" height="20" rx="3" fill="#fff"/><mask id="a" style="mask-type:alpha" maskUnits="userSpaceOnUse" x="0" y="4" width="28" height="20"><rect y="4" width="28" height="20" rx="3" fill="#fff"/></mask><g mask="url(#a)"><path fill="#083B9A" d="M0 4h28v20H0z"/><path fill-rule="evenodd" clip-rule="evenodd" d="M0 15h15V4H0v11z" fill="#083B9A" stroke="#fff"/><path fill-rule="evenodd" clip-rule="evenodd" d="M0 15h5V4H0v11z" fill="#083B9A"/><path fill-rule="evenodd" clip-rule="evenodd" d="M5 15h5V4H5v11z" fill="#fff"/><path fill-rule="evenodd" clip-rule="evenodd" d="M10 15h5V4h-5v11z" fill="#F44653"/><path d="M17.533 14.957l.221.68h.716l-.58.421.222.681-.579-.42-.579.42.221-.68-.579-.421h.716l.221-.68zM24.864 14.957l.221.68h.716l-.579.421.221.681-.579-.42-.579.42.222-.68-.58-.421h.716l.221-.68zM23.168 19.498l.221.681h.716l-.579.42.221.681-.579-.42-.578.42.22-.68-.578-.421h.715l.221-.68zM19.174 19.498l.221.681h.716l-.579.42.221.681-.579-.42-.578.42.22-.68-.578-.421h.715l.221-.68zM21.144 21.03l.221.68h.716l-.58.421.222.68-.579-.42-.579.42.221-.68-.579-.42h.716l.221-.68z" fill="#fff"/><path fill-rule="evenodd" clip-rule="evenodd" d="M19.995 18.541l1.204 1.888 1.203-1.888h1.012l.165.3h1.04l-1.67-2.653-1.23 1.915v-1.75h.738l.547-.876h-1.286v-.547h1.642l.574-.93h-5.47l.574.93h1.64v.547h-1.285l.547.876h.739v1.75l-1.231-1.915-1.669 2.654h1.04l.164-.301h1.012zm-.191-.63l-.329-.546-.328.547h.657zm2.79 0l.328-.546.328.547h-.656z" fill="#fff"/></g></svg>