<svg viewBox="0 0 28 28" fill="none" xmlns="http://www.w3.org/2000/svg"><rect x=".25" y="4.25" width="27.5" height="19.5" rx="2.75" fill="#fff" stroke="#D6D8DD" stroke-width=".5"/><mask id="a" style="mask-type:alpha" maskUnits="userSpaceOnUse" x="0" y="4" width="28" height="20"><rect x=".25" y="4.25" width="27.5" height="19.5" rx="2.75" fill="#fff" stroke="#fff" stroke-width=".5"/></mask><g mask="url(#a)"><path fill-rule="evenodd" clip-rule="evenodd" d="M0 9.333h28V4H0v5.333zM0 24h28v-5.333H0V24z" fill="#D82332"/><path fill-rule="evenodd" clip-rule="evenodd" d="M13.068 14.753l-.285.265c.257.072.614-.012.756-.265h-.471zM10.773 14.933c.192.193.51.17.703.049a.656.656 0 01.454-.117c.013.108.041.248.09.385h-1.142a3.867 3.867 0 01-.105-.317zM10.984 15.448a.557.557 0 01.553.054c.183.141.485.103.633.023.057.092.126.183.209.253h-1.222a2.676 2.676 0 01-.173-.33zM16.298 16.325a2.25 2.25 0 00.174-.209c-.08-.01-.17-.066-.269-.115-.18-.09-.351-.09-.505.016-.227.157-.51.196-.732.038-.242-.172-.467-.134-.656-.025a.746.746 0 01-.423.115.746.746 0 01-.423-.115c-.19-.11-.414-.147-.657.025-.22.158-.505.12-.732-.038-.153-.106-.325-.106-.505-.016-.098.049-.19.106-.268.115.047.065.12.154.173.209h4.823zM15.707 16.861c.05-.032.19-.138.258-.192-.075.016-.248-.04-.337-.087-.26-.135-.43-.122-.622-.02-.193.104-.464.158-.663.05-.199-.11-.34-.139-.445-.139-.104 0-.246.029-.445.138-.199.11-.47.055-.663-.048-.192-.103-.363-.116-.622.02-.089.046-.261.102-.337.086.07.054.208.16.258.192h3.618zM14.568 15.795a.57.57 0 01-.173-.182c-.092-.138-.237-.215-.455-.215-.218 0-.363.077-.454.215a.57.57 0 01-.174.182h1.256zM14.21 15.3a1.279 1.279 0 01-.085-.225.855.855 0 01-.205.023.855.855 0 01-.205-.023 1.263 1.263 0 01-.085.225h.58zM14.736 14.753l.284.265c-.257.072-.613-.012-.755-.265h.471zM17.1 14.933c-.193.193-.512.17-.704.049a.656.656 0 00-.454-.117 1.843 1.843 0 01-.09.385h1.142c.028-.07.083-.235.105-.317zM16.929 15.448a.557.557 0 00-.552.054c-.183.141-.486.103-.634.023a1.03 1.03 0 01-.209.253h1.222c.05-.08.157-.277.173-.33zM15.159 17.072a3.23 3.23 0 01-2.482 0c.082-.01.19-.05.279-.1.142-.08.4-.096.524-.016.123.08.271.16.438.16.168 0 .316-.08.439-.16s.382-.064.524.016c.088.05.196.09.278.1z" fill="#064A89"/><path fill-rule="evenodd" clip-rule="evenodd" d="M14.625 10.727c-.691-.144-1.313-.061-1.313.6v1.809c0 .198.004.224.237.279l1.101.26v-1.86c-.429-.049-.593-.294-.593-.578 0-.276.19-.456.568-.51zM12.854 15.829c-.385 0-.79-.34-.79-.988v-1.61c0-.146.017-.167-.017-.2-.02-.02.022-.05.05-.08.043-.043.073-.079.015-.138-.057-.058-.033-.073.003-.11.037-.037.05-.074.016-.11-.035-.034-.043-.046-.005-.084.038-.039.023-.055-.01-.087-.03-.032-.046-.055-.005-.096.04-.04.042-.046.088-.046h.19c.044 0 .044.013.007.051-.048.049-.062.068-.008.123.055.056.052.074.018.11-.052.052-.075.088-.022.142.053.054.057.078.017.119-.04.04-.044.077 0 .122.034.034.036.054.036.115v1.644c0 .276.196.443.568.443.373 0 .5-.154.606-.257-.069.494-.271.937-.757.937zM13.94 14.255c.053.016.103.093.103.176h.103c0-.07-.03-.18-.085-.247a.232.232 0 00-.007-.048c.038-.048.093-.125.092-.199-.001-.046-.055-.044-.062-.008-.005.03-.025.077-.063.093 0-.059-.033-.13-.08-.13-.048 0-.08.071-.08.13-.039-.016-.059-.062-.064-.093-.006-.037-.06-.038-.062.008-.001.074.054.151.092.2a.239.239 0 00-.007.047.442.442 0 00-.085.247h.103c0-.083.05-.16.103-.176z" fill="#514537"/><path fill-rule="evenodd" clip-rule="evenodd" d="M13.412 14.255c.052.016.102.093.102.176h.103c0-.07-.03-.18-.085-.247a.226.226 0 00-.007-.048c.038-.048.093-.125.092-.199-.001-.046-.056-.044-.062-.008-.005.03-.025.077-.063.093 0-.059-.033-.13-.08-.13-.048 0-.08.071-.08.13-.039-.016-.059-.062-.064-.093-.006-.037-.06-.038-.062.008-.001.074.054.151.092.2a.239.239 0 00-.007.047.442.442 0 00-.085.247h.103c0-.083.05-.16.103-.176zM12.883 14.255c.052.016.102.093.102.176h.103c0-.07-.03-.18-.085-.247a.232.232 0 00-.007-.048c.038-.048.093-.125.092-.199-.001-.046-.056-.044-.062-.008-.005.03-.025.077-.063.093 0-.059-.033-.13-.08-.13-.048 0-.081.071-.081.13-.038-.016-.058-.062-.063-.093-.007-.037-.06-.038-.062.008-.001.074.054.151.092.2a.232.232 0 00-.007.047.441.441 0 00-.085.247h.103c0-.083.05-.16.103-.176zM14.47 14.255c-.052.016-.103.093-.103.176h-.102c0-.07.03-.18.084-.247 0-.017.003-.032.007-.048-.038-.048-.093-.125-.091-.199 0-.046.055-.044.061-.008.005.03.025.077.063.093 0-.059.034-.13.08-.13.048 0 .081.071.081.13.038-.016.058-.062.063-.093.007-.037.06-.038.062.008.002.074-.054.151-.092.2.004.014.007.03.008.047a.441.441 0 01.084.247h-.103c0-.083-.05-.16-.102-.176zM14.999 14.255c-.052.016-.103.093-.103.176h-.102c0-.07.03-.18.084-.247.001-.017.003-.032.007-.048-.038-.048-.093-.125-.091-.199 0-.046.055-.044.061-.008.005.03.025.077.063.093 0-.059.034-.13.08-.13.048 0 .081.071.081.13.038-.016.058-.062.063-.093.007-.037.061-.038.062.008.002.074-.054.151-.091.2.003.014.006.03.007.047a.441.441 0 01.084.247h-.103c0-.083-.05-.16-.102-.176zM12.571 14.538h2.778v.133h-2.778v-.133z" fill="#514537"/><path fill-rule="evenodd" clip-rule="evenodd" d="M15.022 15.829c.385 0 .79-.34.79-.988v-1.61c0-.146-.017-.167.017-.2.02-.02-.023-.05-.05-.08-.043-.043-.073-.079-.015-.138.058-.058.033-.073-.003-.11-.037-.037-.05-.074-.016-.11.035-.034.043-.046.005-.084-.038-.039-.023-.055.01-.087.03-.032.046-.055.005-.096-.04-.04-.042-.046-.088-.046h-.19c-.043 0-.044.013-.007.051.048.049.062.068.008.123-.055.056-.052.074-.018.11.052.052.075.088.022.142-.053.054-.057.078-.017.119.04.04.044.077 0 .122-.034.034-.036.054-.036.115v1.644c0 .276-.196.443-.568.443-.373 0-.499-.154-.606-.257.069.494.271.937.757.937z" fill="#514537"/><path fill-rule="evenodd" clip-rule="evenodd" d="M12.571 13.674v-.212l.556.212h-.556zM11.91 13.773l-1.243-.17c.036-.271.104-.535.202-.786l1.04.42v.536zM14.476 11.696l.221-.922c.259.064.51.16.748.286l-.713 1.386.003-.696c-.082 0-.208-.012-.259-.054zM11.938 13.863l-1.265-.078c-.017.27 0 .542.048.81 0 0 1.217.008 1.217 0v-.732zM11.926 12.996c-.041-.055-.016-.084.028-.113.044-.029.038-.051.016-.093-.022-.041-.044-.086-.003-.131.041-.045.025-.065-.006-.097-.032-.032-.035-.067-.007-.092.029-.026.022-.046.004-.071-.02-.026-.057-.078-.023-.111l-.517-.438c-.17.207-.316.436-.434.681l.942.465zM13.163 13.234l-.616-.606c.087-.088.096-.103.034-.165-.067-.068-.07-.075.067-.214.047-.047.02-.08-.045-.08h-.406c-.035 0-.062.001-.087.027l-.491-.482c.187-.196.396-.367.622-.51l.922 1.506v.524zM12.523 13.327v-.321c0-.045-.003-.063-.038-.098-.035-.035-.017-.052.01-.09l.583.493v.29l-.555-.274zM13.07 12.446v-.71c0-.463.025-.694.091-.74l-.053-.222c-.259.071-.51.167-.748.293l.71 1.38zM15.349 13.674v-.212l-.555.212h.555zM15.958 13.773l1.242-.17a3.386 3.386 0 00-.202-.786l-1.04.42v.536zM15.958 13.863l1.265-.078c.017.27 0 .542-.048.81 0 0-1.217.008-1.217 0v-.732zM15.918 12.996c.04-.055.015-.084-.029-.113-.044-.029-.038-.051-.016-.093.023-.041.045-.086.004-.131-.042-.045-.026-.065.006-.097.031-.032.035-.067.006-.092-.028-.026-.022-.046-.003-.071.019-.026.056-.078.023-.111l.516-.438c.17.207.317.436.434.681l-.941.465zM14.794 13.234l.615-.606c-.087-.088-.096-.103-.034-.165.067-.068.07-.075-.067-.214-.047-.047-.02-.08.046-.08h.405c.035 0 .062.001.088.027l.49-.482a3.294 3.294 0 00-.622-.51l-.921 1.506v.524zM15.35 13.327l-.001-.321c0-.045.003-.063.038-.098.035-.035.017-.052-.01-.09l-.583.493v.29l.555-.274z" fill="#EEA339"/><path fill-rule="evenodd" clip-rule="evenodd" d="M12.148 13.032c.022.023.032.045.032.1v1.716c0 .57.34.888.691.888.322 0 .533-.298.644-.645-.142.113-.35.148-.55.148-.23 0-.602-.157-.602-.497v-1.665c0-.045-.044-.045-.215-.045zM14.161 10.784c-.44-.045-.848.048-.848.658v1.62c0 .272-.021.24.204.296.41.103.456.117.953.232v-1.65c-.424-.047-.608-.329-.608-.641 0-.25.108-.483.3-.515zM15.737 13.032c-.022.023-.031.045-.031.1v1.716c0 .57-.341.888-.692.888-.322 0-.533-.298-.644-.645.143.113.35.148.55.148.23 0 .602-.157.602-.497v-1.665c0-.045.045-.045.215-.045z" fill="#D82332"/><mask id="b" style="mask-type:alpha" maskUnits="userSpaceOnUse" x="10" y="10" width="8" height="8"><path fill-rule="evenodd" clip-rule="evenodd" d="M14 17.333a3.333 3.333 0 100-6.666 3.333 3.333 0 000 6.666z" fill="#fff"/></mask><g mask="url(#b)"><path fill-rule="evenodd" clip-rule="evenodd" d="M14 22.667A3.333 3.333 0 1014 16a3.333 3.333 0 000 6.667z" fill="#064A89"/></g></g></svg>