<svg viewBox="0 0 24 24" fill="none" xmlns="http://www.w3.org/2000/svg"><path fill-rule="evenodd" clip-rule="evenodd" d="M6.161 17.591l-.043.079a1.492 1.492 0 01-2.797-.725v-6.078c0-2.343 1.9-4.243 4.244-4.243h8.87c2.344 0 4.244 1.9 4.244 4.243v6.078a1.492 1.492 0 01-2.797.725l-.043-.079-.977-1.298a6.084 6.084 0 00-9.724 0l-.977 1.299zM7.565 5.325a5.544 5.544 0 00-5.544 5.543v6.078a2.792 2.792 0 005.233 1.356l.923-1.226a4.784 4.784 0 017.646 0l.923 1.226a2.792 2.792 0 005.233-1.356v-6.078a5.544 5.544 0 00-5.544-5.543h-8.87zm-.16 2.598a.65.65 0 00-.65.65v1.472H5.282a.65.65 0 100 1.3h1.473v1.473a.65.65 0 101.3 0v-1.473h1.472a.65.65 0 100-1.3H8.055V8.572a.65.65 0 00-.65-.65zm10.633 2.773a1.472 1.472 0 11-2.944 0 1.472 1.472 0 012.944 0zm1.3 0a2.772 2.772 0 11-5.544 0 2.772 2.772 0 015.544 0z" fill="#626F84"/></svg>