<svg viewBox="0 0 24 24" fill="none" xmlns="http://www.w3.org/2000/svg"><path d="M18.461 10.476a1.472 1.472 0 11-2.943 0 1.472 1.472 0 012.943 0z" fill="#626F84"/><path fill-rule="evenodd" clip-rule="evenodd" d="M2.021 10.867a5.544 5.544 0 015.544-5.543h8.87a5.544 5.544 0 015.544 5.543v6.078a2.792 2.792 0 01-5.233 1.356l-.923-1.226a4.784 4.784 0 00-7.646 0L7.254 18.3a2.792 2.792 0 01-5.233-1.356v-6.078zm17.74-.39a2.772 2.772 0 11-5.544 0 2.772 2.772 0 015.544 0zM6.377 8.346a.65.65 0 011.3 0V9.82H9.15a.65.65 0 110 1.3H7.677v1.473a.65.65 0 11-1.3 0V11.12H4.905a.65.65 0 110-1.3h1.472V8.348z" fill="#626F84"/></svg>