<svg viewBox="0 0 24 24" fill="none" xmlns="http://www.w3.org/2000/svg"><path d="M12.349 6.997c.713-.048 1.496.154 2 .64a.65.65 0 11-.903.935c-.169-.162-.551-.309-1.009-.278-.44.03-.815.215-1.024.533-.25.38-.322.775-.316 1.333.003.254.02.524.042.838l.01.13.023.386h1.607a.65.65 0 010 1.3h-1.6a5.167 5.167 0 01-.798 2.383h4.046a.65.65 0 110 1.3H8.715a.65.65 0 01-.21-1.266c.18-.06.534-.32.853-.85.247-.409.447-.94.515-1.568H8.754a.65.65 0 110-1.3H9.87l-.019-.297-.009-.129a16.176 16.176 0 01-.045-.913c-.007-.688.081-1.378.53-2.06.488-.745 1.291-1.067 2.022-1.117z" fill="#626F84"/><path fill-rule="evenodd" clip-rule="evenodd" d="M3 12a9 9 0 1118 0 9 9 0 01-18 0zm1.3 0a7.7 7.7 0 1115.4 0 7.7 7.7 0 01-15.4 0z" fill="#626F84"/></svg>