<svg viewBox="0 0 24 24" fill="none" xmlns="http://www.w3.org/2000/svg"><path fill-rule="evenodd" clip-rule="evenodd" d="M12 3a9 9 0 100 18 9 9 0 000-18zm2.349 4.637c-.504-.486-1.287-.688-2-.64-.73.05-1.534.372-2.023 1.117-.448.682-.536 1.372-.53 2.06.004.294.025.604.046.913l.009.129.019.298H8.754a.65.65 0 000 1.3h1.119a3.846 3.846 0 01-.515 1.568c-.32.529-.672.788-.852.85a.65.65 0 00.209 1.265h5.712a.65.65 0 100-1.3h-4.046l.09-.144c.36-.598.635-1.36.707-2.24h1.601a.65.65 0 100-1.3h-1.607a32.346 32.346 0 00-.024-.384l-.009-.131c-.021-.314-.04-.584-.042-.838-.006-.558.067-.953.316-1.333.209-.318.583-.503 1.024-.533.458-.03.84.116 1.01.278a.65.65 0 00.902-.935z" fill="#626F84"/></svg>