<svg viewBox="0 0 28 28" fill="none" xmlns="http://www.w3.org/2000/svg"><rect x=".25" y="4.25" width="27.5" height="19.5" rx="2.75" fill="#fff" stroke="#D6D8DD" stroke-width=".5"/><mask id="a" style="mask-type:alpha" maskUnits="userSpaceOnUse" x="0" y="4" width="28" height="20"><rect x=".25" y="4.25" width="27.5" height="19.5" rx="2.75" fill="#fff" stroke="#fff" stroke-width=".5"/></mask><g mask="url(#a)" fill-rule="evenodd" clip-rule="evenodd"><path d="M16 25.333h-4V16H-1.333v-4H12V2.667h4V12h13.333v4H16v9.333z" fill="#FF2B37"/><path d="M21.6 8.4l-1.6.267V7.333l1.6.267-.267-1.6h1.334L22.4 7.6l1.6-.267v1.334L22.4 8.4l.267 1.6h-1.334l.267-1.6zM5.6 8.4L4 8.667V7.333l1.6.267L5.333 6h1.334L6.4 7.6 8 7.333v1.334L6.4 8.4l.267 1.6H5.333L5.6 8.4zM5.6 20.4l-1.6.267v-1.334l1.6.267-.267-1.6h1.334L6.4 19.6l1.6-.267v1.334L6.4 20.4l.267 1.6H5.333l.267-1.6zM21.6 20.4l-1.6.267v-1.334l1.6.267-.267-1.6h1.334l-.267 1.6 1.6-.267v1.334l-1.6-.267.267 1.6h-1.334l.267-1.6z" fill="#FD0D1B"/></g></svg>