<svg viewBox="0 0 24 24" fill="none" xmlns="http://www.w3.org/2000/svg"><path fill-rule="evenodd" clip-rule="evenodd" d="M21 7a3 3 0 00-3-3H6a3 3 0 00-3 3v10a3 3 0 003 3h12a3 3 0 003-3v-2.035a1.3 1.3 0 001-1.265v-3.4a1.3 1.3 0 00-1-1.265V7zM4.3 7A1.7 1.7 0 016 5.3h5.406v4.069L9.921 7.81a.658.658 0 00-.92-.04c-.14.13-.21.3-.21.48 0 .16.05.31.17.44l2.575 2.71c.28.31.76.31 1.04 0l2.465-2.71c.24-.27.22-.68-.04-.92a.65.65 0 00-.92.04l-1.375 1.55V5.3H18A1.7 1.7 0 0119.7 7v2H19a3 3 0 100 6h.7v2a1.7 1.7 0 01-1.7 1.7H6A1.7 1.7 0 014.3 17V7zm16.4 6.7H19a1.7 1.7 0 110-3.4h1.7v3.4z" fill="#626F84"/></svg>