<svg viewBox="0 0 24 24" fill="none" xmlns="http://www.w3.org/2000/svg"><path d="M8.79 8.48c0-.18.07-.35.21-.48.27-.24.68-.22.92.04l1.486 1.558V4.7a.7.7 0 00-.7-.7H6a3 3 0 00-3 3v10a3 3 0 003 3h12a3 3 0 003-3v-1.3a.7.7 0 00-.7-.7H19a3 3 0 110-6h1.3a.7.7 0 00.7-.7V7a3 3 0 00-3-3h-4.594a.7.7 0 00-.7.7v4.89l1.375-1.55A.65.65 0 0115 8c.26.24.28.65.04.92l-2.465 2.71c-.28.31-.76.31-1.04 0L8.961 8.92a.627.627 0 01-.17-.44z" fill="#626F84"/><path d="M19.037 10.273a1.715 1.715 0 100 3.43H21.3a.7.7 0 00.7-.7v-2.03a.7.7 0 00-.7-.7h-2.263z" fill="#626F84"/></svg>