<svg viewBox="0 0 28 28" fill="none" xmlns="http://www.w3.org/2000/svg"><rect x=".25" y="4.25" width="27.5" height="19.5" rx="2.75" fill="#fff" stroke="#D6D8DD" stroke-width=".5"/><mask id="a" style="mask-type:alpha" maskUnits="userSpaceOnUse" x="0" y="4" width="28" height="20"><rect x=".25" y="4.25" width="27.5" height="19.5" rx="2.75" fill="#fff" stroke="#fff" stroke-width=".5"/></mask><g mask="url(#a)" fill-rule="evenodd" clip-rule="evenodd"><path d="M0 24h28v-6.667H0V24zM9.333 17.333h8V12h-8v5.333z" fill="#E34F4F"/><path d="M10.667 17.333H12V16h-1.333v1.333zM14.667 17.333H16V16h-1.333v1.333zM9.333 12h1.334v-1.333H9.333V12zM13.333 12h1.334v-1.333h-1.334V12zM12 12h1.333v-1.333H12V12zM16 12h1.333v-1.333H16V12z" fill="#181A1A"/><path d="M9.333 10.667h1.334V9.333H9.333v1.334zM13.333 10.667h1.334V9.333h-1.334v1.334zM12 10.667h1.333V9.333H12v1.334zM16 10.667h1.333V9.333H16v1.334z" fill="#E34F4F"/></g></svg>