<svg viewBox="0 0 24 24" fill="none" xmlns="http://www.w3.org/2000/svg"><path d="M11.135 3.496c.188-.2.041-.527-.231-.494a9.045 9.045 0 00-6.369 3.873c-.133.194.01.45.245.45h3.508a.306.306 0 00.273-.17c.115-.231.234-.455.356-.672.619-1.097 1.369-2.076 2.218-2.987zM3.799 8.634a.295.295 0 00-.278.191 9.026 9.026 0 00-.52 2.2.294.294 0 00.296.323h3.77a.31.31 0 00.306-.28c.072-.7.222-1.38.424-2.028a.31.31 0 00-.291-.406H3.799zM3.297 12.658a.294.294 0 00-.295.323c.082.77.26 1.51.523 2.209.043.115.154.19.277.19H7.51a.31.31 0 00.291-.405 10.41 10.41 0 01-.427-2.038.31.31 0 00-.305-.28H3.297zM4.786 16.69a.288.288 0 00-.244.45 9.046 9.046 0 006.314 3.857c.28.036.426-.308.23-.512-.85-.882-1.57-1.902-2.17-2.962a14.64 14.64 0 01-.35-.663.306.306 0 00-.274-.17H4.786zM10.055 7.127a14.327 14.327 0 011.729-2.429.289.289 0 01.432 0c.542.61 1.173 1.445 1.729 2.43a.133.133 0 01-.116.197H10.17a.133.133 0 01-.116-.198zM8.988 11.348a.293.293 0 01-.294-.327 9.603 9.603 0 01.56-2.196.297.297 0 01.279-.19h4.934c.123 0 .235.074.278.19.266.701.465 1.439.56 2.196a.293.293 0 01-.293.327H8.988zM9.536 15.38a.297.297 0 01-.278-.19 9.61 9.61 0 01-.564-2.205.293.293 0 01.294-.327h6.024c.177 0 .316.151.294.327a9.61 9.61 0 01-.564 2.205.297.297 0 01-.278.19H9.536zM10.055 16.878a.127.127 0 01.11-.188h3.67c.096 0 .158.104.11.188a14.318 14.318 0 01-1.729 2.43.288.288 0 01-.432 0 14.323 14.323 0 01-1.729-2.43z" fill="#626F84"/><path d="M11.135 3.496c.188-.2.041-.527-.231-.494a9.045 9.045 0 00-6.369 3.873c-.133.194.01.45.245.45h3.508a.306.306 0 00.273-.17c.115-.231.234-.455.356-.672.619-1.097 1.369-2.076 2.218-2.987zM3.799 8.634a.295.295 0 00-.278.191 9.026 9.026 0 00-.52 2.2.294.294 0 00.296.323h3.77a.31.31 0 00.306-.28c.072-.7.222-1.38.424-2.028a.31.31 0 00-.291-.406H3.799zM3.297 12.658a.294.294 0 00-.295.323c.082.77.26 1.51.523 2.209.043.115.154.19.277.19H7.51a.31.31 0 00.291-.405 10.41 10.41 0 01-.427-2.038.31.31 0 00-.305-.28H3.297zM4.786 16.69a.288.288 0 00-.244.45 9.046 9.046 0 006.314 3.857c.28.036.426-.308.23-.512-.85-.882-1.57-1.902-2.17-2.962a14.64 14.64 0 01-.35-.663.306.306 0 00-.274-.17H4.786zM12.865 3.496c-.188-.2-.041-.527.231-.494a9.045 9.045 0 016.369 3.873c.133.194-.01.45-.245.45h-3.508a.306.306 0 01-.273-.17c-.114-.231-.234-.455-.356-.672-.619-1.097-1.369-2.076-2.218-2.987zM20.201 8.634c.123 0 .235.075.278.191.26.697.437 1.434.52 2.2a.294.294 0 01-.296.323h-3.77a.31.31 0 01-.306-.28 10.41 10.41 0 00-.424-2.028.31.31 0 01.291-.406h3.707zM20.703 12.658c.175 0 .314.149.295.323a9.02 9.02 0 01-.523 2.209.295.295 0 01-.277.19H16.49a.31.31 0 01-.291-.405c.204-.651.354-1.334.427-2.038a.31.31 0 01.305-.28h3.771zM19.214 16.69c.235 0 .378.256.244.45a9.045 9.045 0 01-6.314 3.857c-.28.036-.426-.308-.23-.512.85-.882 1.57-1.902 2.17-2.962.12-.214.237-.435.35-.663a.306.306 0 01.274-.17h3.506z" fill="#626F84"/></svg>