<svg viewBox="0 0 24 24" fill="none" xmlns="http://www.w3.org/2000/svg"><path d="M9.513 12.703l-1.02-2.399-1.014 2.399h2.034z" fill="#626F84"/><path fill-rule="evenodd" clip-rule="evenodd" d="M5 5.005a3 3 0 00-3 3v7.99a3 3 0 003 3h14a3 3 0 003-3v-7.99a3 3 0 00-3-3H5zm4.09 3.38a.65.65 0 00-1.197.001l-2.84 6.712a.65.65 0 101.198.506l.678-1.601h3.137l.681 1.603a.65.65 0 101.197-.51L9.09 8.387zM14 9.995a.65.65 0 01.65.65v2.534a1.528 1.528 0 103.056 0v-2.534a.65.65 0 111.3 0v2.534a2.828 2.828 0 01-5.656 0v-2.534a.65.65 0 01.65-.65z" fill="#626F84"/></svg>