<svg viewBox="0 0 24 24" fill="none" xmlns="http://www.w3.org/2000/svg"><path fill-rule="evenodd" clip-rule="evenodd" d="M5 6.403h14a1.7 1.7 0 011.7 1.7v7.794a1.7 1.7 0 01-1.7 1.7H5a1.7 1.7 0 01-1.7-1.7V8.103a1.7 1.7 0 011.7-1.7zm-3 1.7a3 3 0 013-3h14a3 3 0 013 3v7.794a3 3 0 01-3 3H5a3 3 0 01-3-3V8.103zm7.096.284a.65.65 0 00-1.197.001L5.06 15.1a.65.65 0 101.198.506l.678-1.601h3.137l.682 1.602a.65.65 0 101.196-.508L9.096 8.386zm.423 4.317L8.5 10.306l-1.014 2.399h2.034zm4.484-2.707a.65.65 0 01.65.65v2.542a1.52 1.52 0 103.039 0v-2.542a.65.65 0 111.3 0v2.542a2.82 2.82 0 01-5.64 0v-2.542a.65.65 0 01.65-.65z" fill="#626F84"/></svg>