<svg viewBox="0 0 24 24" fill="none" xmlns="http://www.w3.org/2000/svg"><path fill-rule="evenodd" clip-rule="evenodd" d="M12.474 1.81l-.206.412a.3.3 0 01-.536 0l-.206-.412a.3.3 0 01.268-.434h.412a.3.3 0 01.268.434zm-1.28.678a.288.288 0 01.308.158l.23.46a.3.3 0 00.536 0l.23-.46a.287.287 0 01.308-.159c.336.062.666.167.834.335.383.383.052 1.48-.328 1.958a.26.26 0 01-.206.093h-2.212a.26.26 0 01-.207-.093c-.379-.478-.71-1.575-.327-1.958.168-.168.499-.272.835-.334zm-2.678 3.44a.652.652 0 01.067-.004h2.503c.205 0 .342.197.245.377a2.895 2.895 0 01-.245.385 2.41 2.41 0 01-.17.201c.297.31.726.841 1.097 1.555.37-.711.798-1.24 1.094-1.551a2.4 2.4 0 01-.173-.205 2.905 2.905 0 01-.245-.385c-.096-.18.04-.377.245-.377h2.503c.024 0 .047.001.07.004.047-.003.095-.004.143-.004.989 0 1.709.471 1.45 1.353a.096.096 0 01-.094.068h-.841c-.617 0-1.231.933-1.293 2.449-.006.28-.002.588.006.935a.46.46 0 00.454.452.437.437 0 00.438-.438v-.175c0-.476.177-.935.498-1.287l2.979-3.273c.364-.4 1.061-.445 1.436.065 1.12 1.524 1.489 4.133.912 6.34-.292 1.122-.841 2.193-1.715 2.988-.884.805-2.063 1.293-3.538 1.293h-.267a.758.758 0 01-.758-.758.43.43 0 00-.43-.426.437.437 0 00-.437.434v.257c0 .175.059.392.188.65.128.257.306.52.502.78.097.13.195.255.292.378l.005.006c.093.118.187.238.27.35.082.11.167.233.233.354a1.1 1.1 0 01.15.52c0 .548-.322.972-.64 1.26-.329.299-.75.541-1.161.73a8.038 8.038 0 01-1.245.45c-.375.101-.751.171-1.03.171-.28 0-.656-.07-1.031-.171a8.046 8.046 0 01-1.245-.449c-.411-.19-.832-.432-1.16-.73-.32-.289-.641-.713-.641-1.26a1.1 1.1 0 01.15-.52c.066-.122.151-.244.233-.355.083-.112.177-.232.27-.35.1-.127.2-.254.297-.383.196-.262.374-.524.502-.78.129-.26.188-.476.188-.651v-.257a.437.437 0 00-.438-.434.43.43 0 00-.43.426c0 .418-.338.758-.757.758h-.267c-1.475 0-2.655-.488-3.539-1.293-.873-.795-1.422-1.866-1.714-2.987-.577-2.208-.209-4.817.912-6.341.375-.51 1.072-.466 1.436-.065L7.76 9.281c.32.352.498.811.498 1.287v.175c0 .242.196.438.437.438a.46.46 0 00.455-.452c.007-.335.012-.635.007-.907-.056-1.533-.674-2.477-1.294-2.477H7.02a.096.096 0 01-.093-.068c-.26-.882.46-1.353 1.45-1.353l.14.003zm1.919 3.386c.035.473.024.959.013 1.444a1.76 1.76 0 01-1.754 1.723c-.96 0-1.737-.778-1.737-1.738v-.175c0-.152-.057-.3-.16-.412L4.143 7.238c-.656 1.203-.9 3.13-.453 4.847.246.943.69 1.769 1.333 2.355.599.545 1.403.912 2.476.95.23-.687.88-1.18 1.641-1.18.955 0 1.738.773 1.738 1.734v.257c0 .451-.146.872-.325 1.23-.18.36-.412.696-.625.98-.108.144-.214.28-.31.4v.002c-.098.124-.181.23-.251.325-.05.067-.087.12-.112.16.023.05.076.13.196.238.193.175.484.352.832.513a6.75 6.75 0 001.04.375c.339.091.584.126.691.126.108 0 .353-.035.693-.126a6.746 6.746 0 001.038-.375c.35-.16.64-.338.833-.513a.796.796 0 00.196-.238 2.716 2.716 0 00-.112-.16c-.07-.095-.153-.201-.25-.325l-.002-.001c-.095-.122-.202-.257-.309-.4a6.502 6.502 0 01-.625-.98c-.179-.359-.325-.78-.325-1.231v-.257c0-.96.783-1.734 1.737-1.734.76 0 1.412.493 1.642 1.18 1.073-.038 1.877-.405 2.476-.95.644-.586 1.087-1.412 1.332-2.355.449-1.716.204-3.644-.452-4.847l-2.656 2.918a.613.613 0 00-.16.412v.175c0 .96-.777 1.738-1.736 1.738a1.76 1.76 0 01-1.755-1.723c-.01-.485-.02-.97.014-1.443 0-.266-.317-.398-.454-.17a4.271 4.271 0 00-.298.657.875.875 0 01-.827.591.875.875 0 01-.826-.591 4.34 4.34 0 00-.299-.657c-.137-.228-.453-.097-.453.169z" fill="#626F84"/></svg>