<svg viewBox="0 0 24 24" fill="none" xmlns="http://www.w3.org/2000/svg"><path fill-rule="evenodd" clip-rule="evenodd" d="M12.269 2.371l.206-.412a.3.3 0 00-.269-.434h-.412a.3.3 0 00-.268.434l.206.412a.3.3 0 00.537 0zm-.767.425a.288.288 0 00-.307-.159c-.336.062-.667.166-.835.335-.383.382-.051 1.479.328 1.957a.26.26 0 00.206.093h2.212a.26.26 0 00.207-.093c.379-.478.71-1.575.328-1.957-.17-.17-.499-.274-.835-.335a.288.288 0 00-.307.158l-.23.46a.3.3 0 01-.537 0l-.23-.46zM8.361 6.072c-.989 0-1.709.471-1.45 1.353.013.041.05.069.094.069h.841c.566 0 1.442.748 1.69 2.043.048.379.064.8.067 1.272a.82.82 0 01-.823.82.822.822 0 01-.823-.822v-.09c0-.402-.15-.789-.42-1.086L4.56 6.36c-.251-.275-.724-.302-.974.044-.528.73-.841 1.727-.96 2.788a9.312 9.312 0 00.237 3.296c.549 2.124 1.939 4.056 4.306 4.056h.996a.415.415 0 00.414-.416.65.65 0 111.298.04c-.001.03 0 .058.005.085-.015.291-.14.623-.337.98-.209.377-.476.742-.72 1.073l-.005.008c-.14.19-.276.376-.376.535-.052.081-.1.165-.136.247a.739.739 0 00-.07.294c0 .424.25.773.542 1.038.297.27.688.497 1.085.68.4.184.823.33 1.197.432.367.098.713.16.953.16s.585-.062.952-.16a7.751 7.751 0 001.197-.432c.397-.183.788-.41 1.086-.68.292-.265.541-.614.541-1.038a.731.731 0 00-.072-.297 1.936 1.936 0 00-.14-.247c-.102-.16-.242-.345-.385-.535l-.006-.009c-.247-.327-.518-.689-.731-1.061-.216-.377-.348-.726-.354-1.027v-.026a.415.415 0 001.716.356h1.041c2.367 0 3.758-1.932 4.307-4.056a9.312 9.312 0 00.236-3.296c-.118-1.061-.432-2.058-.96-2.788-.25-.346-.722-.32-.973-.044L16.49 9.632c-.27.297-.42.684-.42 1.085v.07a.843.843 0 01-.843.843.835.835 0 01-.84-.838c.003-.224.01-.435.022-.636h.001a3.728 3.728 0 01.032-.405c.187-1.425 1.127-2.256 1.723-2.256h.842a.097.097 0 00.093-.069c.259-.882-.461-1.353-1.45-1.353-.048 0-.096.001-.143.004a.649.649 0 00-.07-.004h-2.503c-.204 0-.34.198-.245.378.063.117.144.251.245.385.055.072.115.144.182.213l.024.024c.032.033.066.066.102.097-.625.61-1.058 1.345-1.235 1.857l-.001.003-.002-.003c-.177-.511-.608-1.244-1.23-1.852a2.06 2.06 0 00.108-.102l.023-.024c.067-.07.127-.141.182-.213.1-.134.182-.268.245-.385.096-.18-.041-.378-.245-.378H8.584a.648.648 0 00-.073.004c-.05-.002-.1-.004-.15-.004z" fill="#626F84"/></svg>