<svg viewBox="0 0 24 24" fill="none" xmlns="http://www.w3.org/2000/svg"><path fill-rule="evenodd" clip-rule="evenodd" d="M18.598 5.334a.069.069 0 00-.021.006L5.404 11.097a.08.08 0 00-.022.013l-.003.004a.063.063 0 00-.004.035c.002.019.01.03.013.033l.004.003c.002.001.009.005.025.007l5.241.794a1.65 1.65 0 011.382 1.39l.789 5.277a.08.08 0 00.006.025.023.023 0 00.004.004c.003.003.014.01.032.013a.062.062 0 00.035-.004l.004-.003c.002-.002.007-.008.014-.023l5.718-13.259a.067.067 0 00.007-.02v-.008a.059.059 0 00-.017-.027.058.058 0 00-.027-.017h-.007zm-.537-1.19c1.12-.49 2.256.654 1.77 1.782l-5.719 13.258c-.538 1.248-2.364 1.008-2.565-.338l-.789-5.275a.35.35 0 00-.293-.295l-5.24-.794c-1.338-.202-1.576-2.04-.337-2.582l13.173-5.756z" fill="#626F84"/></svg>