<svg viewBox="0 0 28 28" fill="none" xmlns="http://www.w3.org/2000/svg"><rect y="4" width="28" height="20" rx="3" fill="#fff"/><mask id="a" style="mask-type:alpha" maskUnits="userSpaceOnUse" x="0" y="4" width="28" height="20"><rect y="4" width="28" height="20" rx="3" fill="#fff"/></mask><g mask="url(#a)"><path fill="#E42235" d="M0 4h28v20H0z"/><path fill="#079B77" d="M2.667 6.667h22.667v14.667H2.667z"/><mask id="b" style="mask-type:alpha" maskUnits="userSpaceOnUse" x="2" y="6" width="24" height="16"><path fill="#fff" d="M2.667 6.667h22.667v14.667H2.667z"/></mask><g mask="url(#b)" fill-rule="evenodd" clip-rule="evenodd"><path d="M4.393 14.132c.378.604.92 1.003 1.424 1.105.278.056-.23-1.218-.009-1.357.19-.118 1.1.942 1.18.72.183-.508.075-1.228-.333-1.881-.586-.937-.609-.319-2.19-.99.165.96-.657 1.466-.072 2.403z" fill="#FFD938"/><path d="M14 14l11.333-7.333H2.667L14 14zm0 0L2.667 21.333h22.666L14 14z" fill="#FFD93B"/><path d="M14 17.333a3.333 3.333 0 100-6.666 3.333 3.333 0 000 6.666z" fill="url(#paint0_linear_17_5610)"/><path d="M14 15.028l-1.567 1.13.589-1.84-1.558-1.142 1.931-.008.605-1.835.604 1.835 1.932.008-1.558 1.142.59 1.84L14 15.027z" fill="#FFD938"/></g></g><defs><linearGradient id="paint0_linear_17_5610" x1="10.667" y1="10.667" x2="10.667" y2="17.333" gradientUnits="userSpaceOnUse"><stop stop-color="#E21C30"/><stop offset="1" stop-color="#CE1225"/></linearGradient></defs></svg>