<svg viewBox="0 0 24 24" fill="none" xmlns="http://www.w3.org/2000/svg"><path d="M5.3 4A1.3 1.3 0 004 5.3v4.4A1.3 1.3 0 005.3 11h4.4A1.3 1.3 0 0011 9.7V5.3A1.3 1.3 0 009.7 4H5.3zM5.3 13A1.3 1.3 0 004 14.3v4.4A1.3 1.3 0 005.3 20h4.4a1.3 1.3 0 001.3-1.3v-4.4A1.3 1.3 0 009.7 13H5.3zM13 5.3A1.3 1.3 0 0114.3 4h4.4A1.3 1.3 0 0120 5.3v4.4a1.3 1.3 0 01-1.3 1.3h-4.4A1.3 1.3 0 0113 9.7V5.3zM14.3 13a1.3 1.3 0 00-1.3 1.3v4.4a1.3 1.3 0 001.3 1.3h4.4a1.3 1.3 0 001.3-1.3v-4.4a1.3 1.3 0 00-1.3-1.3h-4.4z" fill="#626F84"/></svg>