<svg viewBox="0 0 24 24" fill="none" xmlns="http://www.w3.org/2000/svg"><path fill-rule="evenodd" clip-rule="evenodd" d="M4 5.3A1.3 1.3 0 015.3 4h4.4A1.3 1.3 0 0111 5.3v4.4A1.3 1.3 0 019.7 11H5.3A1.3 1.3 0 014 9.7V5.3zm1.3 0h4.4v4.4H5.3V5.3zM4 14.3A1.3 1.3 0 015.3 13h4.4a1.3 1.3 0 011.3 1.3v4.4A1.3 1.3 0 019.7 20H5.3A1.3 1.3 0 014 18.7v-4.4zm1.3 0h4.4v4.4H5.3v-4.4zM14.3 4A1.3 1.3 0 0013 5.3v4.4a1.3 1.3 0 001.3 1.3h4.4A1.3 1.3 0 0020 9.7V5.3A1.3 1.3 0 0018.7 4h-4.4zm4.4 1.3h-4.4v4.4h4.4V5.3zM13 14.3a1.3 1.3 0 011.3-1.3h4.4a1.3 1.3 0 011.3 1.3v4.4a1.3 1.3 0 01-1.3 1.3h-4.4a1.3 1.3 0 01-1.3-1.3v-4.4zm1.3 0h4.4v4.4h-4.4v-4.4z" fill="#626F84"/></svg>