<svg viewBox="0 0 28 28" fill="none" xmlns="http://www.w3.org/2000/svg"><rect x=".25" y="4.25" width="27.5" height="19.5" rx="2.75" fill="#fff" stroke="#D6D8DD" stroke-width=".5"/><path fill-rule="evenodd" clip-rule="evenodd" d="M21 6.682V20H7v-2.108l.23-.14c.947-.552 2.117-.853 4-1.118l.968-.137.346-.914c1.209-3.205 2.348-5.085 3.844-6.337C17.84 8.029 19.569 7.209 21 6.682z" fill="#00A650"/><path fill-rule="evenodd" clip-rule="evenodd" d="M14.269 6.716c-1.952 1.635-3.276 3.863-4.46 6.798-1.001.17-1.933.385-2.809.713V6h8.34c-.341.205-.681.43-1.018.675l-.027.02-.026.021z" fill="#127BCA"/><path fill-rule="evenodd" clip-rule="evenodd" d="M12.636 10.272a4.5 4.5 0 00-6.923 5.66c.114-.058.232-.112.355-.164 1.582-.667 3.035-.556 5.284-.327-.142-1.84.423-3.656 1.284-5.169z" fill="#FFF200"/><path fill-rule="evenodd" clip-rule="evenodd" d="M22.872 4.874c.117-.002.132.152.018.18-1.434.355-4.643 1.33-7.144 3.425-1.693 1.418-2.908 3.49-4.138 6.75l-.136.36-.381.055c-1.91.269-3.243.59-4.367 1.246-2.09 1.235-3.365 2.732-3.845 3.362-.062.082-.185.033-.165-.067.163-.84.691-3.295 3.354-4.417 1.582-.667 3.035-.556 5.284-.327-.25-3.23 1.68-6.385 3.559-7.958 2.9-2.429 6.475-2.581 7.961-2.609z" fill="#2E3192"/><path fill="#FFF200" d="M6.959 20.945H21v1.709H6.959z"/></svg>