<svg viewBox="0 0 28 28" fill="none" xmlns="http://www.w3.org/2000/svg"><mask id="a" style="mask-type:alpha" maskUnits="userSpaceOnUse" x="0" y="4" width="28" height="20"><path fill-rule="evenodd" clip-rule="evenodd" d="M0 7a3 3 0 013-3h22a3 3 0 013 3v14a3 3 0 01-3 3H3a3 3 0 01-3-3V7z" fill="#C81A38"/></mask><g mask="url(#a)"><path fill-rule="evenodd" clip-rule="evenodd" d="M0 4h28v20H0V4z" fill="#C81A38"/><path fill-rule="evenodd" clip-rule="evenodd" d="M1 21a2 2 0 002 2h22a2 2 0 002-2V7a2 2 0 00-2-2H3a2 2 0 00-2 2v14z" fill="#273474"/><path fill-rule="evenodd" clip-rule="evenodd" d="M14.46 8.312s-3.27 2.601-3.27 5.303 3.27 5.373 3.27 5.373 3.247-2.476 3.247-5.373c0-2.896-3.248-5.303-3.248-5.303z" fill="#9FE0F9"/><path fill-rule="evenodd" clip-rule="evenodd" d="M11.552 15.264c.85 2.044 2.907 3.724 2.907 3.724s2.093-1.596 2.92-3.724" fill="#4884CD"/><path fill-rule="evenodd" clip-rule="evenodd" d="M17.39 14.675c-.504.36-3.34.187-3.34.187l-.159.404 3.377.01c.014-.055.048-.121.06-.177l.062-.424z" fill="#948120"/><path fill-rule="evenodd" clip-rule="evenodd" d="M13.336 17.631c.127-.087.216-.156.34-.16.241-.007.323-.156.602-.156.317.058.746-.038.997-.094.446-.102.235-.415-.035-.528-.219-.093-.628-.004-.882-.097-.192-.075-.033-.195.07-.22.104-.02.216.015.346.036.232.02.522-.001.726-.033.42-.064.403-.187.606-.19a.645.645 0 00.362-.123c.119-.08.242-.242.386-.236l.084.004c-.887 1.716-2.48 2.842-2.48 2.842s-.514-.394-1.122-1.045zm-1.02-1.285a.938.938 0 01.414.103c.23.12.363.12.61.124.26.004.463.194.743.202.516.015.733.27.332.27-.19 0-.596-.127-.792-.1-.298.03-.47.053-.692.229a9.05 9.05 0 01-.616-.828z" fill="#FADE35"/><path fill-rule="evenodd" clip-rule="evenodd" d="M15.374 16.375c.055.213.113.285.337.34.22.054.558-.16.35-.369-.2-.194-.41-.243-.588-.418-.276-.274-.656-.84-.836-1.377-.197-.585-.163-2.235-.154-3.07 0-.01.024-.016.027-.02.013-.018.025.006.005-.116-.005-.032-.03-.064-.03-.096 0-.057-.196.062-.247.163-.012.023.037.089.037.102.007.802-.08 2.384.134 3.1.131.444.372.787.59 1.104.13.203.318.422.375.657z" fill="#87391B"/><path d="M15.619 13.623v-.367h.073l.072.001.097.293a53.218 53.218 0 01.112.337L16 13.81l.108-.314.082-.238h.13l-.001.367v.367h-.092v-.309-.306a126.248 126.248 0 01-.207.592l-.01.023h-.086l-.105-.312a38.823 38.823 0 00-.106-.314c-.001-.002-.002.138-.003.311v.314h-.092v-.367zm-.562.064l-.047-.126a7.593 7.593 0 01-.08-.227 1.551 1.551 0 01-.077.233l-.045.12c-.002.003.005.004.124.004.12 0 .126 0 .125-.004zm-.457.293l.142-.366.138-.357h.103l.148.364.15.368c.001.003-.002.003-.053.003h-.054l-.01-.024-.042-.11-.033-.087h-.155l-.156-.002-.04.111-.04.112h-.101l.003-.012zm-.807.021a.272.272 0 01-.164-.068.238.238 0 01-.067-.14c-.008-.044-.008-.068-.008-.306v-.233h.096v.249c0 .265 0 .26.01.3.014.051.051.089.106.104a.31.31 0 00.15.001c.059-.015.09-.046.106-.106.012-.045.012-.04.014-.304v-.243h.096v.225c0 .13-.002.238-.003.255-.008.114-.038.176-.107.222a.28.28 0 01-.105.04.924.924 0 01-.124.004zm-.863-.007a.367.367 0 01-.239-.117.383.383 0 01-.083-.202.667.667 0 010-.112.421.421 0 01.094-.22c.083-.095.255-.133.394-.088.088.029.14.083.17.175a.167.167 0 01.007.024l-.082.022c-.003 0-.004-.002-.01-.017a.208.208 0 00-.058-.093c-.051-.041-.123-.056-.208-.043a.238.238 0 00-.138.072.314.314 0 00-.073.206.338.338 0 00.049.205c.058.088.194.127.315.091a.398.398 0 00.11-.052l.013-.01v-.14h-.218V13.61h.312v.272l-.017.013a.51.51 0 01-.216.096.617.617 0 01-.122.003z" fill="#BE1D2A"/><path fill-rule="evenodd" clip-rule="evenodd" d="M12.428 11.244c.014.019.011.101.011.101.012.007.196-.157.196-.15 0 .035.005.106.005.106s.19-.181.198-.162c.01.021 0 .127 0 .127l.15-.166c.017-.018.014.023.016.089 0 .012.208-.153.22-.156.027-.006.035.085.034.108-.001.017.192-.11.183-.093l.015.098c.053-.008.181-.056.258-.043.025.004.024.016.002.025-.371.15-.657.377-.823.693-.057.107-.074.201-.06.225 0 0 .068-.144.143-.166.01-.003.016.092.027.086 0 0 .057-.144.098-.197.011-.014.03.076.041.062 0 0 .03-.096.088-.163.008-.01.023.091.032.083.06-.056.117-.195.14-.205.015-.012.018.116.033.104 0 0 .085-.171.136-.203.033-.02.032.094.032.094.065-.064.137-.171.171-.217.016-.022.008.14.024.147.022.008.162-.124.178-.127.01-.002.023.038-.004.07l-.174.2c.033.006.046-.003.07.003.071.019-.133.136-.13.158 0 0 .099-.002.066.018-.024.014-.155.182-.155.176 0-.003.066.001.066.02-.001.035-.109.214-.11.213-.006-.006.058-.008.067.01.015.033-.111.178-.086.202.003.004.072.002.103.008a.992.992 0 01.045.254 2.428 2.428 0 01.073-.318c.017-.045.073.067.077.057a1.54 1.54 0 01-.003-.231c.002-.02.042.021.041.002-.001-.044-.005-.091.004-.134.007-.032.041.059.054.034 0 0-.04-.157-.024-.202.012-.029.039.071.057.075 0 0-.01-.122.009-.154l.057.062c.012-.02.01-.21.022-.228.01-.015.069.071.077.058.008-.013-.025-.154-.017-.165.01-.016.075.039.077.038.026-.027.025-.093.036-.118.03-.067.202-.076.222-.028.01.023.003.053 0 .089a.316.316 0 00.086 0s-.01.08-.004.166c0 .012.086-.002.087.009.008.082-.011.09-.011.09 0 .005.057-.01.058-.003a.225.225 0 01-.032.135c-.004.007.08-.006.082.001.01.062.012.11.002.197-.001.007.082-.061.084-.054.012.073-.002.151.005.227.002.017.056-.052.06-.032.005.02-.011.164-.003.172 0 0 .09-.004.097.003.071.067.058.184.058.184.02-.015.012-.155-.008-.284-.002-.013.07-.008.067-.02 0 0-.078-.048-.103-.178-.006-.028.075-.022.075-.022-.023-.052-.062-.061-.095-.11-.011-.017.084-.025.084-.03 0-.049-.08-.072-.122-.123-.017-.022.087-.023.087-.023-.031-.043-.131-.061-.183-.117-.028-.03.102-.06.1-.066-.014-.045-.136-.059-.195-.11-.012-.01.077-.045.077-.045-.009-.02-.204-.148-.104-.136.041.005.126.065.133.056 0 0-.004-.075.005-.084.033-.034.145.144.184.136 0 0 .014-.127.03-.13.042-.008.092.185.133.185.005 0 .008-.111.03-.118.023-.006.05.126.08.155.027.027.027-.104.044-.079.027.04.034.123.072.16.024.024.029-.115.056-.096.031.021.024.093.06.128.017.017.028-.091.047-.075.017.014.029.146.047.167.024.027.05-.07.075-.055.018.012.014.126.03.15.033.052.05-.06.072-.043.015.011.049.143.063.153.03.024.047-.06.07-.048.018.009.052.178.066.174.01-.003.032-.386-.115-.548-.24-.264-.671-.416-1.023-.42 0 0 .177-.035.181-.065.01-.058.097-.05.159-.038.01.003.005-.103.006-.103.055-.001.104.03.156.063.016.01-.033-.106-.016-.096.067.039.142.05.187.097.012.013-.013-.089-.013-.089.033-.008.1.04.126.086.012.022-.001-.118.008-.093 0 0 .117.04.13.088 0 0 .01-.089.025-.084.047.012.088.092.125.103 0 0-.015-.08-.003-.076.088.022.183.076.183.076-.05-.124-.238-.254-.569-.29a1.876 1.876 0 00-.516.033c-.171.04-.307.062-.279.035.113-.11.296-.124.347-.15.036-.018-.122-.08-.09-.088.03-.007.171-.019.171-.019.03-.024-.102-.07-.082-.105.04-.07.274-.006.294-.033.007-.009-.1-.072-.096-.081.017-.035.226.026.23-.005 0 0-.063-.047-.108-.086a2.1 2.1 0 01.187-.056.305.305 0 00-.077-.042c-.04-.015.169-.07.169-.07-.265-.12-.951.223-1.088.58-.035.085-.036-.007-.028-.08.007-.077.016-.145.008-.216-.002-.021-.056.056-.06.035-.013-.075.027-.159.009-.243-.007-.028-.078.084-.087.055-.026-.077.02-.187.001-.294-.007-.042-.074.09-.097.052-.026-.043-.015-.204-.027-.229-.01-.02-.07.078-.075.06-.081-.296.027-.333-.13-.166-.005.006-.04-.175-.045-.169-.064.137-.169-.097-.204-.075-.027.016.072.107.073.148.001.02-.091.02-.091.02.002.034.175.129.18.166.005.03-.122.023-.122.023.004.041.149.08.156.124.005.024-.067.03-.065.054.004.038.14.113.144.151.003.027-.087.038-.089.063-.002.03.18.13.18.159.001.04-.072.02-.105.04-.047.028.15.143.158.175.006.03-.079.004-.082.03-.003.034.097.086.12.145.023.058 0 .073-.034.05a6.417 6.417 0 01-.402-.404.82.82 0 00-.521-.239c-.022.007.113.102.113.136 0 .009-.06.022-.057.025a.626.626 0 00.152.081l-.033.06c.008.017.063.022.15.05 0 0-.065.042-.06.046a.514.514 0 00.137.064l-.09.03c-.005.017.2.099.2.099s-.064.055-.06.058c.015.016.166.05.166.05.002.003-.107.037-.106.038.04.04.148.052.174.117 0 0 .015.038-.028.03-.17-.061-.433-.188-.942-.138-.52.067-.917.52-.91.565 0 0 .186-.133.206-.106z" fill="#2D973F"/><path fill-rule="evenodd" clip-rule="evenodd" d="M13.055 16.032s.297.038.64 0c0 0 .01.065-.006.09-.016.024-.412.043-.611.009-.032-.01-.033-.05-.023-.099zm-.568-.229s1.089.083 1.757-.06c0 0 .056.038-.025.132-.08.094-.284.114-.396.135 0 0-.027.06-.025.091.002.032.07.029.104.022l.034-.007s-.016.118-.428.133c-.135.006-.581.015-.676-.117 0 0 .082.006.103 0 .021-.007.006-.092-.002-.105-.008-.012-.29 0-.437-.136a.19.19 0 01-.054-.095c0-.002.045.008.045.008z" fill="#87391B"/><path fill-rule="evenodd" clip-rule="evenodd" d="M12.639 15.75s.404-.43.28-1.326c0 0 .421.109.85.728 0 0 .125.126.272.574l-1.402.024z" fill="#FEFAFD"/><path fill-rule="evenodd" clip-rule="evenodd" d="M14.459 8.623s-3.079 2.292-3.079 4.994 3.079 5.059 3.079 5.059 3.058-2.162 3.058-5.06c0-2.896-3.058-4.993-3.058-4.993zM14.46 8S11 10.576 11 13.613c0 3.037 3.46 5.686 3.46 5.686s3.438-2.43 3.438-5.686S14.46 8 14.46 8z" fill="#C81A38"/></g></svg>