<svg viewBox="0 0 28 28" fill="none" xmlns="http://www.w3.org/2000/svg"><rect x=".25" y="4.25" width="27.5" height="19.5" rx="2.75" fill="#fff" stroke="#D6D8DD" stroke-width=".5"/><mask id="a" style="mask-type:alpha" maskUnits="userSpaceOnUse" x="0" y="4" width="28" height="20"><rect x=".25" y="4.25" width="27.5" height="19.5" rx="2.75" fill="#fff" stroke="#fff" stroke-width=".5"/></mask><g mask="url(#a)"><path fill="#63AEE3" d="M18.667 4H28v20h-9.333z"/><path fill-rule="evenodd" clip-rule="evenodd" d="M0 24h9.333V4H0v20z" fill="#63AEE3"/><path d="M12 13.333a.667.667 0 00-1.333 0H12zm.329 2.885a.667.667 0 00.67-1.153l-.67 1.153zm2.747-1.198a.667.667 0 00.718 1.123l-.718-1.123zm2.257-1.687a.667.667 0 00-1.333 0h1.333zm-6.666 0c0 1.233.67 2.31 1.662 2.885l.67-1.153A2 2 0 0112 13.333h-1.333zm5.127 2.81a3.331 3.331 0 001.54-2.81H16c0 .708-.367 1.33-.924 1.687l.718 1.123z" fill="#628A40"/><path fill-rule="evenodd" clip-rule="evenodd" d="M14 14.667A1.333 1.333 0 1014 12a1.333 1.333 0 000 2.667z" fill="#DCC26D"/></g></svg>