<svg viewBox="0 0 28 28" fill="none" xmlns="http://www.w3.org/2000/svg"><rect y="4" width="28" height="20" rx="3" fill="#fff"/><mask id="a" style="mask-type:alpha" maskUnits="userSpaceOnUse" x="0" y="4" width="28" height="20"><rect y="4" width="28" height="20" rx="3" fill="#fff"/></mask><g mask="url(#a)"><path fill-rule="evenodd" clip-rule="evenodd" d="M0 13.333h28V4H0v9.333z" fill="#112EBC"/><path fill-rule="evenodd" clip-rule="evenodd" d="M0 24h28V13.333H0V24z" fill="#E3264A"/><rect x="9.333" y="10.667" width="9.333" height="8" rx=".667" fill="url(#paint0_linear_17_5475)"/><mask id="b" style="mask-type:alpha" maskUnits="userSpaceOnUse" x="9" y="10" width="10" height="9"><rect x="9.333" y="10.667" width="9.333" height="8" rx=".667" fill="#fff"/></mask><g mask="url(#b)"><path d="M9.667 18.333v-.794l1.919-.96a2.334 2.334 0 011.043-.246h2.742c.362 0 .719.085 1.043.247l1.92.96v.793H9.666z" fill="#AABCAE" stroke="#366C14" stroke-width=".667"/><path fill-rule="evenodd" clip-rule="evenodd" d="M14 16a2 2 0 100-4 2 2 0 000 4z" fill="#D4B872"/><path d="M11 15.387c0-.28.323-.435.541-.26l1.834 1.467a1 1 0 001.25 0l1.833-1.467a.333.333 0 01.542.26v1.28c0 .184-.15.333-.333.333h-5.334a.333.333 0 01-.333-.333v-1.28z" fill="#C28321" stroke="#0D3488" stroke-width=".667"/><path fill-rule="evenodd" clip-rule="evenodd" d="M12.569 12.569a.333.333 0 01.236-.569h2.39c.297 0 .446.359.236.569l-1.195 1.195a.333.333 0 01-.472 0L12.57 12.57z" fill="#216C30"/></g></g><defs><linearGradient id="paint0_linear_17_5475" x1="9.333" y1="10.667" x2="9.333" y2="18.667" gradientUnits="userSpaceOnUse"><stop stop-color="#fff"/><stop offset="1" stop-color="#F0F0F0"/></linearGradient></defs></svg>