<svg viewBox="0 0 24 24" fill="none" xmlns="http://www.w3.org/2000/svg"><path fill-rule="evenodd" clip-rule="evenodd" d="M7.65 9.65a4.35 4.35 0 018.7 0v4.503a3.148 3.148 0 01-2.484 3.077 2 2 0 10.044 1.314 4.45 4.45 0 003.677-3.644h.713a1.95 1.95 0 001.95-1.95v-1.9A1.95 1.95 0 0018.3 9.1h-.677a5.65 5.65 0 00-11.247 0H5.7a1.95 1.95 0 00-1.95 1.95v1.9A1.95 1.95 0 005.7 14.9H7a.65.65 0 00.65-.65v-4.6zm10 .75v3.2h.65a.65.65 0 00.65-.65v-1.9a.65.65 0 00-.65-.65h-.65zm-11.95 0h.65v3.2H5.7a.65.65 0 01-.65-.65v-1.9a.65.65 0 01.65-.65zm7 7.55a.7.7 0 11-1.4 0 .7.7 0 011.4 0z" fill="#626F84"/></svg>