<svg viewBox="0 0 28 28" fill="none" xmlns="http://www.w3.org/2000/svg"><path d="M.25 21A2.75 2.75 0 003 23.75h22A2.75 2.75 0 0027.75 21V7A2.75 2.75 0 0025 4.25H3A2.75 2.75 0 00.25 7v14z" fill="#fff" stroke="#D6D8DD" stroke-width=".5"/><mask id="a" style="mask-type:alpha" maskUnits="userSpaceOnUse" x="0" y="4" width="28" height="20"><path d="M0 21a3 3 0 003 3h22a3 3 0 003-3V7a3 3 0 00-3-3H3a3 3 0 00-3 3v14z" fill="#fff"/></mask><g mask="url(#a)"><path d="M0 24h14V4H0v20z" fill="#FBE04B"/><path fill-rule="evenodd" clip-rule="evenodd" d="M18.449 17.375c.657.699 1.53 1.125 2.49 1.125.959 0 1.833-.426 2.49-1.125h-1.292a2.462 2.462 0 01-1.198.321c-.415 0-.825-.113-1.198-.321h-1.292z" fill="#BF2D1B"/><path fill-rule="evenodd" clip-rule="evenodd" d="M19.01 11.85l.283-.248.266.266.803.803 1.734 1.734a1.687 1.687 0 11-.568.568l-1.468-1.468-.36.315-.53-.604.32-.28-.233-.234-.36.315-.53-.605.643-.563zm3.077 3.998a.884.884 0 101.768 0 .884.884 0 00-1.768 0z" fill="#CCC"/><path fill-rule="evenodd" clip-rule="evenodd" d="M23.052 11.85l-.283-.248-.266.266-.804.803-1.734 1.734a1.687 1.687 0 10.568.568l1.469-1.468.36.315.529-.604-.32-.28.234-.234.36.315.53-.605-.643-.563zm-3.078 3.998a.884.884 0 11-1.767 0 .884.884 0 011.767 0z" fill="#FBE04B"/><ellipse cx="21.099" cy="11.027" rx=".964" ry="1.527" fill="#C4C4C4"/><mask id="b" style="mask-type:alpha" maskUnits="userSpaceOnUse" x="20" y="9" width="3" height="4"><ellipse cx="21.099" cy="11.027" rx=".964" ry="1.527" fill="#C4C4C4"/></mask><g mask="url(#b)" stroke="#FBE04B" stroke-width=".321" stroke-linejoin="round"><path d="M20.135 10.464h1.929M19.974 10.946h2.25M20.135 11.429h1.929"/></g></g></svg>