<svg viewBox="0 0 24 24" fill="none" xmlns="http://www.w3.org/2000/svg"><path d="M12.92 2.387l8.08 8.08a.65.65 0 11-.85.984l-2.062-2.06V9.39C16.41 7.714 14.084 5.392 12 3.306l-8.15 8.145a.65.65 0 11-.85-.983l8.08-8.081a1.3 1.3 0 011.84 0z" fill="#626F84"/><path fill-rule="evenodd" clip-rule="evenodd" d="M5.549 13.253a2.986 2.986 0 00-.547 1.727v4.72a1.3 1.3 0 001.3 1.3h1.463a1.3 1.3 0 001.3-1.3v-.707h5.88v.707a1.3 1.3 0 001.3 1.3h1.462a1.3 1.3 0 001.3-1.3v-4.72c0-.663-.215-1.276-.579-1.772l-1.294-2.567a3 3 0 00-2.679-1.649h-4.91a3 3 0 00-2.68 1.65l-1.316 2.61zm10.418 4.44h1.74v-1.84h-1.103a.65.65 0 010-1.3h1.05a1.701 1.701 0 00-1.516-1.269H7.871a1.701 1.701 0 00-1.515 1.27h1.01a.65.65 0 110 1.3H6.302v1.839H8.05l.587-1.327a3 3 0 012.743-1.786h1.256a3 3 0 012.744 1.786l.587 1.327zm-1.422 0l-.354-.8a1.7 1.7 0 00-1.555-1.013H11.38a1.7 1.7 0 00-1.554 1.012l-.355.8h5.074zm-6.9-5.709h.183c.058-.003.116-.004.174-.004h8.005c.058 0 .116.001.174.005h.174l-.382-.758a1.7 1.7 0 00-1.518-.935h-4.91a1.7 1.7 0 00-1.518.935l-.383.758zM17.706 19.7h-1.463v-.684h1.463v.684zm-11.405 0h1.463v-.684H6.302v.684z" fill="#626F84"/></svg>