<svg viewBox="0 0 24 24" fill="none" xmlns="http://www.w3.org/2000/svg"><path d="M12.92 2.387l8.08 8.08a.65.65 0 11-.85.984l-2.062-2.06A21218.04 21218.04 0 0112 3.306l-8.15 8.145a.65.65 0 11-.85-.983l8.08-8.081a1.3 1.3 0 011.84 0z" fill="#626F84"/><path fill-rule="evenodd" clip-rule="evenodd" d="M5.549 13.253l1.317-2.612a3 3 0 012.678-1.649h4.911a3 3 0 012.679 1.65l1.294 2.566c.197.268.35.57.45.896.07.233-.119.45-.362.45h-1.531a.65.65 0 100 1.3h1.622c.22 0 .4.179.4.4v3.515a1.231 1.231 0 01-2.462 0v-.776h-.003l-1.162-2.627a3 3 0 00-2.744-1.786H11.38a3 3 0 00-2.743 1.786l-1.162 2.626v.772a1.236 1.236 0 11-2.473 0v-3.51c0-.221.18-.4.4-.4h1.615a.65.65 0 100-1.3H5.493c-.243 0-.432-.217-.361-.45a2.99 2.99 0 01.417-.851zm10.631-1.268a3.115 3.115 0 00-.173-.005H8.002c-.058 0-.116.001-.173.005h-.185l.383-.758a1.7 1.7 0 011.517-.935h4.911a1.7 1.7 0 011.518.935l.382.758h-.175z" fill="#626F84"/><path d="M11.38 15.88h1.256a1.7 1.7 0 011.555 1.012l.69 1.537a.4.4 0 01-.364.564H9.55a.4.4 0 01-.37-.554l.645-1.547a1.7 1.7 0 011.554-1.012z" fill="#626F84"/></svg>