<svg viewBox="0 0 28 28" fill="none" xmlns="http://www.w3.org/2000/svg"><rect x=".25" y="4.25" width="27.5" height="19.5" rx="2.75" fill="#fff" stroke="#D6D8DD" stroke-width=".5"/><mask id="a" style="mask-type:alpha" maskUnits="userSpaceOnUse" x="0" y="4" width="28" height="20"><rect x=".25" y="4.25" width="27.5" height="19.5" rx="2.75" fill="#fff" stroke="#fff" stroke-width=".5"/></mask><g mask="url(#a)" fill-rule="evenodd" clip-rule="evenodd"><path d="M0 10.667h28V4H0v6.667zM0 24h28v-6.667H0V24z" fill="#0884E6"/><path d="M14 14.667l-.943.276.276-.943-.276-.943.943.276.943-.276-.276.943.276.943-.943-.276zM19.333 13.333l-.942.277.276-.943-.277-.943.943.276.943-.276-.276.943.276.943-.943-.277zM19.333 16l-.942.276.276-.943-.277-.943.943.277.943-.277-.276.943.276.943-.943-.276zM8.667 16l-.943.276.276-.943-.276-.943.943.277.942-.277-.276.943.276.943L8.667 16zM8.667 13.333l-.943.277.276-.943-.276-.943.943.276.942-.276-.276.943.276.943-.942-.277z" fill="#0E88E9"/></g></svg>