<svg viewBox="0 0 24 24" fill="none" xmlns="http://www.w3.org/2000/svg"><path fill-rule="evenodd" clip-rule="evenodd" d="M10 2a.65.65 0 01.65.65V5h2.7V2.65a.65.65 0 111.3 0V5h1.041c.39 0 .76.175 1.007.477l1.233 1.508a3 3 0 01-.063 3.874l-3.61 4.129c-.09.104-.187.2-.288.289a3.65 3.65 0 11-5.62 3.073.65.65 0 111.3 0 2.35 2.35 0 102.538-2.343 2.99 2.99 0 01-2.447-1.02l-3.61-4.128a3 3 0 01-.063-3.874l1.234-1.508A1.3 1.3 0 018.308 5H9.35V2.65A.65.65 0 0110 2zm2.495 6.05a.7.7 0 00-.99 0l-.424.425a.7.7 0 000 .99l.424.424a.7.7 0 00.99 0l.424-.424a.7.7 0 000-.99l-.424-.424z" fill="#626F84"/></svg>