<svg viewBox="0 0 24 24" fill="none" xmlns="http://www.w3.org/2000/svg"><path fill-rule="evenodd" clip-rule="evenodd" d="M19 16.46a2.54 2.54 0 10-5.082 0 2.54 2.54 0 005.082 0zm-2.541 3.84a3.84 3.84 0 100-7.682 3.84 3.84 0 000 7.682zM16.46 5.683L14.186 9.7h4.544l-2.272-4.017zm-3.995 4.422a.6.6 0 00.523.895h6.942a.6.6 0 00.523-.895l-3.472-6.14a.6.6 0 00-1.044 0l-3.472 6.14zM7.486 14.086l-2.43 2.43 2.43 2.429 2.429-2.43-2.43-2.429zm.424-1.414a.6.6 0 00-.849 0L3.642 16.09a.6.6 0 000 .848l3.42 3.42a.6.6 0 00.848 0l3.42-3.42a.6.6 0 000-.848l-3.42-3.42zM5 5v4.7h4.7V5H5zm-.7-1.3a.6.6 0 00-.6.6v6.1a.6.6 0 00.6.6h6.1a.6.6 0 00.6-.6V4.3a.6.6 0 00-.6-.6H4.3z" fill="#626F84"/></svg>