<svg viewBox="0 0 24 24" fill="none" xmlns="http://www.w3.org/2000/svg"><path fill-rule="evenodd" clip-rule="evenodd" d="M16.014 14.975v3.014A3.01 3.01 0 0113.004 21h-2.008a3.01 3.01 0 01-3.01-3.01v-3.015a6.66 6.66 0 118.028 0zm-6.724.29h5.42v2.724c0 .943-.764 1.706-1.706 1.706h-2.008A1.706 1.706 0 019.29 17.99v-2.724zm-.517-1.33l.033.025h1.176v-3.714h-.769a.652.652 0 010-1.305h5.618a.652.652 0 110 1.305h-.768v3.714h1.13l.034-.025a5.356 5.356 0 10-6.454 0zm3.985.025v-3.714h-1.472v3.714h1.472z" fill="#626F84"/></svg>