<svg viewBox="0 0 24 24" fill="none" xmlns="http://www.w3.org/2000/svg"><path d="M10 4.65A.65.65 0 009.35 4H8a3 3 0 00-3 3v10a3 3 0 003 3h8a3 3 0 003-3V8.389a.65.65 0 10-1.3 0V17a1.7 1.7 0 01-1.7 1.7H8A1.7 1.7 0 016.3 17V7A1.7 1.7 0 018 5.3h1.35a.65.65 0 00.65-.65z" fill="#626F84"/><path d="M16.308 9.757c.14.13.21.3.21.48 0 .16-.05.31-.17.44l-3.825 4.06c-.28.31-.76.31-1.04 0l-3.505-4.02a.658.658 0 01.04-.92.65.65 0 01.92.04l2.415 2.86h.015v-4.96a3.65 3.65 0 013.65-3.65h3.346a.65.65 0 110 1.3h-3.346a2.35 2.35 0 00-2.35 2.35v4.951l2.72-2.891c.24-.26.65-.28.92-.04z" fill="#626F84"/></svg>