<svg viewBox="0 0 24 24" fill="none" xmlns="http://www.w3.org/2000/svg"><path fill-rule="evenodd" clip-rule="evenodd" d="M20 17.85a.65.65 0 01-.65.65H4.668a.65.65 0 110-1.3H19.35c.359 0 .65.291.65.65zm0-7.8a.65.65 0 01-.65.65h-6.723a.65.65 0 110-1.3h6.723c.359 0 .65.291.65.65zm-.65 4.55a.65.65 0 100-1.3h-6.723a.65.65 0 100 1.3h6.723zM20 6.15a.65.65 0 01-.65.65H4.668a.65.65 0 110-1.3H19.35c.359 0 .65.291.65.65zM4.207 11.551a.65.65 0 00.013.964l2.226 1.961a.65.65 0 00.86-.975L5.62 12.014l1.7-1.581a.65.65 0 10-.886-.952l-2.226 2.07z" fill="#626F84"/></svg>