<svg viewBox="0 0 24 24" fill="none" xmlns="http://www.w3.org/2000/svg"><path fill-rule="evenodd" clip-rule="evenodd" d="M4 6.15c0-.359.29-.65.65-.65h14.683a.65.65 0 010 1.3H4.649A.65.65 0 014 6.15zm0 7.8c0-.359.29-.65.65-.65h6.737a.65.65 0 010 1.3H4.65A.65.65 0 014 13.95zm.65-4.55a.65.65 0 000 1.3h6.737a.65.65 0 000-1.3H4.65zM4 17.85c0-.359.29-.65.65-.65h14.683a.65.65 0 010 1.3H4.649A.65.65 0 014 17.85zm15.793-5.401a.65.65 0 00-.013-.964l-2.222-1.961a.649.649 0 10-.858.975l1.684 1.487-1.698 1.581a.65.65 0 00.885.952l2.222-2.07z" fill="#626F84"/></svg>