<svg viewBox="0 0 24 24" fill="none" xmlns="http://www.w3.org/2000/svg"><path fill-rule="evenodd" clip-rule="evenodd" d="M11 2c-.895 0-1.591.844-1.49 1.807l.088.838C9.678 5.417 10.282 6 11 6c.718 0 1.321-.583 1.402-1.355l.088-.838C12.591 2.844 11.895 2 11 2zM9 9a2 2 0 114 0v2h2.259a.65.65 0 110 1.3H13.05a5.506 5.506 0 011.702 2.564l1.703.32a1.95 1.95 0 011.517 1.383l.96 3.378a.65.65 0 01-1.25.355l-.96-3.377a.65.65 0 00-.506-.461l-1.223-.23a5.5 5.5 0 11-8.515-4.329 1.947 1.947 0 01-.741-1.214L5.309 8.26a.65.65 0 111.28-.226l.429 2.428a.65.65 0 00.64.537H9V9zm.5 3.3a4.2 4.2 0 110 8.4 4.2 4.2 0 010-8.4z" fill="#626F84"/></svg>