<svg viewBox="0 0 28 28" fill="none" xmlns="http://www.w3.org/2000/svg"><rect x=".25" y="4.25" width="27.5" height="19.5" rx="2.75" fill="#fff" stroke="#D6D8DD" stroke-width=".5"/><mask id="a" style="mask-type:alpha" maskUnits="userSpaceOnUse" x="0" y="4" width="28" height="20"><rect x=".25" y="4.25" width="27.5" height="19.5" rx="2.75" fill="#fff" stroke="#fff" stroke-width=".5"/></mask><g mask="url(#a)"><path fill-rule="evenodd" clip-rule="evenodd" d="M0 10.667h28V4H0v6.667z" fill="#38BB56"/><path fill-rule="evenodd" clip-rule="evenodd" d="M0 24h28v-6.667H0V24z" fill="#DE1B27"/><path fill-rule="evenodd" clip-rule="evenodd" d="M1.667 9.333a.333.333 0 00-.334.334v.666c0 .184.15.334.334.334h.666c.184 0 .334-.15.334-.334v-.666a.333.333 0 00-.334-.334h-.666zm2.666 0A.333.333 0 004 9.667v.666c0 .184.15.334.333.334H5c.184 0 .333-.15.333-.334v-.666A.333.333 0 005 9.333h-.667zm2.334.334c0-.184.149-.334.333-.334h.667c.184 0 .333.15.333.334v.666c0 .184-.15.334-.333.334H7a.333.333 0 01-.333-.334v-.666zm3-.334a.333.333 0 00-.334.334v.666c0 .184.15.334.334.334h.666c.184 0 .334-.15.334-.334v-.666a.333.333 0 00-.334-.334h-.666zM12 9.667c0-.184.15-.334.333-.334H13c.184 0 .333.15.333.334v.666c0 .184-.149.334-.333.334h-.667a.333.333 0 01-.333-.334v-.666zm3-.334a.333.333 0 00-.333.334v.666c0 .184.149.334.333.334h.667c.184 0 .333-.15.333-.334v-.666a.333.333 0 00-.333-.334H15zm2.333.334c0-.184.15-.334.334-.334h.666c.184 0 .334.15.334.334v.666c0 .184-.15.334-.334.334h-.666a.333.333 0 01-.334-.334v-.666zm3-.334a.333.333 0 00-.333.334v.666c0 .184.15.334.333.334H21c.184 0 .333-.15.333-.334v-.666A.333.333 0 0021 9.333h-.667zm2.334.334c0-.184.149-.334.333-.334h.667c.184 0 .333.15.333.334v.666c0 .184-.15.334-.333.334H23a.333.333 0 01-.333-.334v-.666zm3-.334a.333.333 0 00-.334.334v.666c0 .184.15.334.334.334h.666c.184 0 .334-.15.334-.334v-.666a.333.333 0 00-.334-.334h-.666zM1.333 17.667c0-.184.15-.334.334-.334h.666c.184 0 .334.15.334.334v.666c0 .184-.15.334-.334.334h-.666a.333.333 0 01-.334-.334v-.666zm3-.334a.333.333 0 00-.333.334v.666c0 .184.15.334.333.334H5c.184 0 .333-.15.333-.334v-.666A.333.333 0 005 17.333h-.667zm2.334.334c0-.184.149-.334.333-.334h.667c.184 0 .333.15.333.334v.666c0 .184-.15.334-.333.334H7a.333.333 0 01-.333-.334v-.666zm3-.334a.333.333 0 00-.334.334v.666c0 .184.15.334.334.334h.666c.184 0 .334-.15.334-.334v-.666a.333.333 0 00-.334-.334h-.666zm2.333.334c0-.184.15-.334.333-.334H13c.184 0 .333.15.333.334v.666c0 .184-.149.334-.333.334h-.667a.333.333 0 01-.333-.334v-.666zm3-.334a.333.333 0 00-.333.334v.666c0 .184.149.334.333.334h.667c.184 0 .333-.15.333-.334v-.666a.333.333 0 00-.333-.334H15zm2.333.334c0-.184.15-.334.334-.334h.666c.184 0 .334.15.334.334v.666c0 .184-.15.334-.334.334h-.666a.333.333 0 01-.334-.334v-.666zm3-.334a.333.333 0 00-.333.334v.666c0 .184.15.334.333.334H21c.184 0 .333-.15.333-.334v-.666a.333.333 0 00-.333-.334h-.667zm2.334.334c0-.184.149-.334.333-.334h.667c.184 0 .333.15.333.334v.666c0 .184-.15.334-.333.334H23a.333.333 0 01-.333-.334v-.666zm3-.334a.333.333 0 00-.334.334v.666c0 .184.15.334.334.334h.666c.184 0 .334-.15.334-.334v-.666a.333.333 0 00-.334-.334h-.666z" fill="#fff" fill-opacity=".5"/><mask id="b" fill="#fff"><path fill-rule="evenodd" clip-rule="evenodd" d="M12.653 12.521a2 2 0 102.716.02"/></mask><path d="M12.204 12.028a2.662 2.662 0 00-.87 1.972h1.333c0-.39.167-.741.435-.986l-.898-.986zM11.335 14A2.667 2.667 0 0014 16.667v-1.334A1.333 1.333 0 0112.667 14h-1.334zM14 16.667A2.667 2.667 0 0016.667 14h-1.334c0 .736-.597 1.333-1.333 1.333v1.334zM16.667 14c0-.767-.325-1.458-.842-1.944l-.912.972c.26.244.42.589.42.972h1.334z" fill="#D80915" mask="url(#b)"/><rect x="13.333" y="13.333" width="1.333" height="2.667" rx=".667" fill="#D80915"/></g></svg>