<svg viewBox="0 0 28 28" fill="none" xmlns="http://www.w3.org/2000/svg"><rect x=".25" y="4.25" width="27.5" height="19.5" rx="2.75" fill="#fff" stroke="#D6D8DD" stroke-width=".5"/><mask id="a" style="mask-type:alpha" maskUnits="userSpaceOnUse" x="0" y="4" width="28" height="20"><rect x=".25" y="4.25" width="27.5" height="19.5" rx="2.75" fill="#fff" stroke="#fff" stroke-width=".5"/></mask><g mask="url(#a)" fill-rule="evenodd" clip-rule="evenodd"><path d="M0 10.667h28V4H0v6.667z" fill="#DF1E35"/><path d="M0 24h28v-6.667H0V24z" fill="#262626"/><path d="M18.667 12.54c0-.248.26-.41.482-.299l.667.334a.333.333 0 01.184.298v2.794c0 .184-.15.333-.333.333H19a.333.333 0 01-.333-.333v-3.128zM10.667 12.54c0-.248.26-.41.482-.299l.667.334a.333.333 0 01.184.298v2.794c0 .184-.15.333-.333.333H11a.333.333 0 01-.333-.333v-3.128zM16 12.873c0-.127.071-.242.184-.298l.667-.334c.222-.11.482.05.482.298v3.128c0 .184-.149.333-.333.333h-.667a.333.333 0 01-.333-.333v-2.794z" fill="#0F7A40"/><path d="M13.333 14.206c0-.126.072-.242.185-.298l.666-.333c.222-.111.483.05.483.298v.853h2V16h-3a.333.333 0 01-.334-.333v-1.461zM8 14.206c0-.126.071-.242.184-.298l.667-.333c.222-.111.482.05.482.298v.853h2V16h-3A.333.333 0 018 15.667v-1.461z" fill="#0F7A40"/></g></svg>