<svg viewBox="0 0 28 28" fill="none" xmlns="http://www.w3.org/2000/svg"><rect y="4" width="28" height="20" rx="3" fill="#D01129"/><mask id="a" style="mask-type:alpha" maskUnits="userSpaceOnUse" x="0" y="4" width="28" height="20"><rect y="4" width="28" height="20" rx="3" fill="#fff"/></mask><g mask="url(#a)" fill-rule="evenodd" clip-rule="evenodd"><path d="M13.888 14.04c.661 0 1.197-.562 1.197-1.255 0-.694-.536-1.257-1.197-1.257-.66 0-1.197.563-1.197 1.256 0 .694.536 1.257 1.197 1.257z" fill="#FFF101"/><path d="M12.797 12.28c.34-.114.779.018 1.068.31.307-.06.615-.464.71-.825-.104-1.198-.85-2.105-1.077-2.728-.072-.197-.405-.506-.751-.362-.284.118-.428.026-1.384.527-.517.27-.952.548-1.18.597-.23.048-.472.091-.655-.06-.253-.207-.535-.265-.702-.42-.204-.192-.335-.337-.473-.396-.138-.058-.372.072-.273.382.222.701.747.815.973 1.47.106.31.257.543.595.308.338-.235.816-.547 1.63-.58.547-.022 1.112-.233 1.372-.58-.003.3.098.546.072.936-.027.39-.023.875.075 1.42z" fill="#fff"/><path d="M13.438 12.312c-.1-.59.082-.675-.136-1.366-.13-.415-.214-.936-.216-1.179l-.088.027c.003.242.086.763.217 1.179.21.668.047.77.127 1.31a.981.981 0 01.096.03z" fill="#FFF101"/><path d="M12.924 12.248c0-.075-.004-.154-.015-.221.153-.039.416.11.41 0a3.695 3.695 0 01.002-.21c-.003.095-.369-.064-.432-.023-.068-.343.016-.696-.037-.912.122-.035.346.042.319-.059-.016-.051-.046-.18-.065-.26.019.085-.16.015-.22.063a5.638 5.638 0 01-.076-.7l-.16-.002c-.003.3.098.545.072.935-.027.39-.023.875.075 1.42a1.85 1.85 0 01.127-.031zM12.52 9.508c-.24.362-.81.611-1.336.667-.617.064-1.031.28-1.336.49-.026-.049-.074-.075-.115-.108-.446-.347-.263-.817-.094-.75-.064-.026-.1-.06-.136-.087-.059-.046-.229.13-.207.409.009.119.106.294.184.387-.144-.027-.213-.066-.297-.173a.36.36 0 01.159-.053c-.017-.043-.04-.09-.046-.161a.407.407 0 00-.23.078c-.178-.186-.36-.333-.466-.552-.169-.35.003-.57.226-.337-.204-.191-.335-.336-.473-.395-.138-.058-.372.072-.273.382.222.701.747.815.973 1.47.106.31.263.551.595.308l.094-.068c.105-.064.272.043.254.277.086-.215.031-.28-.041-.409-.054.03-.05-.145-.083-.169.19-.123.42-.248.712-.336.01.105.038.216.13.2.05-.011.1-.022.152-.031-.092.016-.118-.106-.129-.21.138-.034.29-.059.454-.073.19-.016.387-.057.572-.12.028.1.085.27.18.237.083-.029.165-.06.242-.098-.132.066-.184-.122-.216-.222.241-.11.446-.26.569-.438l-.019-.115z" fill="#FFF101"/><path d="M13.573 9.688c.116-.095.216-.14.116-.34-.164-.328-.062-.33-.421-.538-.366-.212-.32-.229-.804-.05-.12.045-.093.09-.072.271.045.39.13.705.208 1.027.305-.042.773-.207.973-.37z" fill="#FFF101"/><path d="M12.438 9.599c-.064-.192-.047-.166.184-.107.076-.253.18-.467.24-.671.065-.23.085-.27.181-.215.124.072.26.148.347.193.154.08.132.107.058.233-.073.126-.314.382-.462.648.195.145.258.158.12.22-.156.07-.415.156-.524.176-.02-.126-.084-.295-.144-.477zM10.14 11.402l-.014.198-.139-.132-.155.11.01-.197-.178-.056.152-.115-.067-.183.179.055.094-.17.072.181.185-.03-.09.173.135.134-.183.032z" fill="#FFF101"/><path d="M14.017 14.029c-.263-.252-.374-.717-.278-1.126-.202-.25-.69-.328-1.035-.234-.936.694-1.311 1.827-1.712 2.345-.126.163-.215.62.077.863.24.2.236.376 1.126.995.482.334.929.591 1.083.775.155.184.311.383.279.625-.045.333.049.619.003.849-.056.28-.11.472-.089.627.02.155.245.302.452.057.466-.552.298-1.087.726-1.619.202-.252.318-.506-.044-.695-.363-.19-.859-.469-1.293-1.193-.292-.486-.749-.894-1.164-.957.248-.148.4-.362.735-.533a5.23 5.23 0 001.134-.779z" fill="#fff"/><path d="M13.724 13.43c-.436.386-.598.263-1.06.806-.277.327-.665.664-.864.787l.066.066c.2-.123.587-.46.865-.787.446-.525.611-.427 1.016-.77a1.107 1.107 0 01-.023-.102z" fill="#FFF101"/><path d="M13.928 13.93c-.063.037-.125.08-.175.124-.109-.12-.117-.434-.205-.372-.028.02-.123.073-.174.101.08-.044.131.368.197.405-.25.233-.583.334-.733.49-.09-.094-.14-.336-.209-.26-.034.04-.125.13-.181.188.06-.06.091.138.16.169-.137.121-.405.34-.539.42l.079.146c.248-.148.4-.362.735-.533.335-.17.733-.417 1.134-.779a2.055 2.055 0 01-.09-.099zM11.87 15.667c.418.037.909.43 1.218.882.361.528.746.797 1.073.968-.028.05-.026.105-.032.16-.063.579-.543.647-.572.46.01.071 0 .122-.004.167-.009.077.222.143.441-.016.094-.067.19-.243.227-.361.05.144.052.226.006.357a.38.38 0 01-.123-.118c-.027.037-.054.082-.11.122.035.065.1.13.18.17-.065.254-.095.494-.223.699-.204.329-.472.283-.39-.037-.057.282-.11.473-.09.628.02.155.245.302.452.057.466-.552.298-1.087.726-1.619.202-.252.323-.515-.044-.695l-.103-.052c-.106-.063-.1-.269.1-.37-.219.03-.246.113-.315.243.051.033-.096.117-.099.159a2.813 2.813 0 01-.633-.479c.082-.062.16-.143.1-.218a2.968 2.968 0 01-.101-.123c.06.076-.028.16-.11.222a3.313 3.313 0 01-.286-.376 2.635 2.635 0 00-.385-.46c.069-.075.18-.212.105-.281a2.15 2.15 0 00-.201-.172c.12.087-.01.228-.075.307-.212-.164-.438-.276-.647-.298l-.085.074z" fill="#FFF101"/><path d="M11.322 14.698c-.136-.059-.07-.138-.184.054-.189.313-.225.24-.218.672.008.438.09.368.48.719.299-.236.657-.593.883-.824-.187-.256-.726-.52-.961-.621z" fill="#FFF101"/><path d="M11.986 15.696c-.126.154-.114.126-.18-.114-.247.057-.437.124-.635.173-.222.055-.266.057-.268-.059a9.96 9.96 0 00-.014-.412c-.012-.18.022-.173.163-.169.14.004.433.04.727.042.021-.25 0-.314.122-.218.135.106.335.298.406.387-.094.08-.201.224-.321.37zM14.622 16.883l.17-.085-.04.192.17.086-.168.089.042.19-.17-.08-.118.152-.044-.19-.187-.001.113-.156-.116-.153.187-.004.042-.19.119.15z" fill="#FFF101"/><path d="M14.85 12.045c-.075.365-.404.699-.79.816-.104.309.075.791.325 1.058 1.04.504 2.162.279 2.79.384.198.033.62-.115.674-.501.044-.318.192-.403.257-1.522.035-.605.023-1.14.098-1.372.075-.233.16-.475.376-.566.297-.126.486-.354.699-.427.26-.09.444-.137.561-.233.118-.096.127-.374-.178-.44-.69-.147-1.046.273-1.699.15-.308-.058-.576-.037-.551.388.024.425.043 1.015-.337 1.772-.256.508-.364 1.128-.208 1.537-.246-.152-.499-.184-.807-.403a5.161 5.161 0 00-1.21-.64z" fill="#fff"/><path d="M14.503 12.611c.537.204.515.412 1.194.56.409.089.88.273 1.081.393l.022-.093c-.201-.12-.673-.304-1.081-.393-.656-.143-.659-.342-1.143-.54a1 1 0 01-.073.073z" fill="#FFF101"/><path d="M14.813 12.176c.062.038.129.073.19.097-.045.159-.3.324-.204.372.03.016.121.075.17.107-.076-.05.238-.303.236-.38.317.11.566.362.77.42-.032.13-.207.296-.11.32.05.012.17.05.246.071-.079-.024.068-.152.058-.23.17.064.484.199.616.28l.082-.144c-.246-.152-.499-.184-.807-.403a5.161 5.161 0 00-1.21-.64 2.108 2.108 0 01-.037.13zM17.275 13.178c-.179-.398-.1-1.041.118-1.548a3.111 3.111 0 00.263-1.46c.054.001.1-.029.147-.05.51-.232.806.17.666.29.053-.046.1-.062.14-.08.067-.031.007-.274-.234-.394-.103-.051-.296-.05-.412-.025.095-.117.161-.16.292-.184a.405.405 0 01-.036.17c.044.006.094.009.156.04a.46.46 0 00.05-.249c.242-.068.455-.16.688-.147.373.021.47.288.166.374.26-.09.444-.137.561-.233.118-.096.127-.374-.178-.44-.69-.147-1.046.273-1.699.15-.308-.058-.586-.036-.551.388l.01.119c0 .128-.173.226-.357.093.134.185.216.168.358.167.002-.064.145.027.18.01.008.233-.005.505-.078.814-.092-.043-.197-.073-.23.018a3.07 3.07 0 01-.05.154c.033-.092.146-.054.238-.011a3.441 3.441 0 01-.167.448c-.082.182-.147.381-.187.58-.097-.025-.265-.058-.285.045a2.34 2.34 0 00-.041.269c.011-.153.193-.106.29-.085-.029.274-.008.536.078.737l.104.04z" fill="#FFF101"/><path d="M16.559 14.01c.02.153.007.266.222.275.353.014.324.06.675-.162.358-.227.368-.182.462-.712.023-.13-.027-.128-.187-.2-.345-.155-.646-.144-.95-.234-.118.297-.257.769-.222 1.032z" fill="#FFF101"/><path d="M17.241 13.058c.19.038.16.04-.004.222.171.195.302.333.441.488.156.174.18.213.086.273a8.8 8.8 0 00-.333.219c-.142.1-.154.066-.221-.064s-.165-.412-.31-.68c-.217.106-.26.156-.241-.001.02-.176.078-.455.116-.564.114.045.286.071.466.107zM16.902 10.068l-.155-.113.178-.06-.014-.196.157.108.137-.134.018.196.184.03-.134.136.092.17-.185-.025-.068.183-.097-.169-.178.057.065-.183z" fill="#FFF101"/><path d="M13.86 12.595c-.29-.292-.727-.42-1.06-.308l-.01-.006a5.761 5.761 0 01-.076-1.423c.012-.18.002-.31-.033-.545a5.433 5.433 0 01-.022-.151 1.768 1.768 0 01-.016-.217c-.257.325-.799.543-1.365.566-.669.027-1.087.204-1.626.578-.3.208-.47.084-.606-.311-.09-.262-.2-.413-.463-.691l-.02-.022c-.276-.29-.396-.46-.49-.757-.088-.277.102-.469.283-.392a1.001 1.001 0 01.234.167l.168.16a17.239 17.239 0 00.1.094.122.122 0 00-.042-.018l-.068-.065a17.26 17.26 0 00-.168-.159.989.989 0 00-.23-.164c-.169-.072-.347.108-.263.372.093.294.212.462.486.752l.02.021c.265.28.376.432.466.697.134.387.296.505.585.303.541-.375.962-.553 1.634-.58.572-.023 1.119-.247 1.366-.577l.013.005c0 .074.005.147.016.236l.022.15c.035.236.046.368.034.55-.031.46-.012.927.074 1.41l-.008.002.01.006-.002-.009c.338-.109.776.021 1.06.313.289-.055.604-.436.705-.816-.05-.57-.233-1.085-.564-1.718-.051-.098-.19-.354-.258-.478l-.037-.068a3.64 3.64 0 01-.218-.462c-.095-.26-.45-.48-.741-.358a1.034 1.034 0 01-.213.065c-.39.089-.605.165-1.17.461l-.049.026c-.108.057-.37.202-.534.292-.069.038-.12.067-.135.074-.224.121-.364.185-.465.206-.335.07-.505.068-.66-.06a1.322 1.322 0 00-.206-.14l.005-.005-.003-.01.05.03c.06.034.112.071.162.112.152.125.318.128.649.058.1-.021.239-.084.462-.204l.134-.074c.164-.09.426-.235.535-.293l.048-.025c.567-.297.783-.374 1.173-.463l.092-.023c.042-.012.08-.025.12-.041.3-.125.662.1.76.366.045.125.111.263.216.46l.037.068.259.479c.331.634.516 1.151.566 1.726-.103.388-.423.774-.723.828zM9.305 9.582l.015.009v-.002a.182.182 0 00-.015-.007zm-.053-.01c.018 0 .035.003.053.01a2.698 2.698 0 00-.167-.084v-.003a.325.325 0 00-.036-.015l-.028-.014a1.166 1.166 0 01-.205-.12v-.002a.142.142 0 00-.01-.007l.01.008v.012l-.005.003a.129.129 0 01-.004-.004v-.012l-.008.006H8.85a.584.584 0 01-.03-.026l-.005-.005c-.094-.02-.2.08-.261.24l.01.01.299-.209c.046.036.102.07.18.109-.113-.006-.209.1-.331.373l.011.009.41-.338a12.266 12.266 0 01.118.059zm.047.025a2.337 2.337 0 00-.047-.025c-.13-.003-.253.178-.327.498l.012.007.38-.47-.012-.007v-.001l.009.004-.003-.012-.006.008-.006-.002zm-.353.445c.083-.334.22-.497.353-.445l.006.003-.359.442zm0 0l-.007.032-.013-.007.02-.025zm.173-.537l.015.008.006-.005-.002-.01-.019-.01-.017-.008a.213.213 0 00-.057-.011l.022.011.03.015c-.128-.042-.225.038-.357.324l-.025.02.011.01.014-.03.379-.314zm.002-.001a.284.284 0 00-.024-.01l.016.009.006.002.002-.001zm0 0l.011.005-.001-.013-.01.008zm-.543.038l.274-.192H8.85c-.088-.057-.205.03-.273.192zm0 0l-.02.014.01.01a.634.634 0 01.01-.024z" fill="#000"/><path d="M13.417 11.76c-.01.227-.006.348.028.55l-.01.01a1.599 1.599 0 00-.04-.015c-.021-.007-.045-.015-.06-.022a2.228 2.228 0 01-.02-.497l.003-.043a1.944 1.944 0 00-.11-.768c-.121-.386-.214-.913-.212-1.189l.097-.019c.002.267.095.792.216 1.177.101.322.122.503.11.773l-.002.043zm.023.545l-.01.008-.001-.012.011.004zm-.097-.03a.936.936 0 01.086.026 2.218 2.218 0 01-.026-.541l.002-.044a1.942 1.942 0 00-.11-.767c-.121-.386-.214-.914-.207-1.175l-.082.02c.002.266.095.792.216 1.177.101.322.122.503.11.773l-.002.043c-.01.208-.007.318.013.488z" fill="#000"/><path d="M11.719 9.01c-.082.037-.081.168-.015.37.052.163.146.366.258.575l.014-.006-.248-.933-.01-.005zm1.197 3.016c.01.065.015.142.015.222l-.006.007-.025.005a.916.916 0 01-.11.02 5.761 5.761 0 01-.076-1.422c.012-.18.002-.31-.033-.545a5.433 5.433 0 01-.022-.151 1.052 1.052 0 01-.009-.246l.167.01c0 .138.036.456.075.687.02-.011.05-.014.095-.013h.019c.042.001.059 0 .074-.003.017-.005.023-.014.019-.032l.014-.003.026.107.002.009c.017.072.029.117.037.143.009.034-.006.053-.041.06a.465.465 0 01-.119.002 1.8 1.8 0 00-.044-.002c-.033-.002-.06-.001-.081 0h-.035c.022.086.024.165.015.387a2.38 2.38 0 00.021.515c.028-.01.076-.002.2.027l.008.002a.963.963 0 00.15.028c.041.002.061-.005.062-.023v.03c-.014.007-.035.01-.063.008a.977.977 0 01-.152-.028l-.008-.002c-.13-.03-.178-.038-.198-.025l-.011-.005a2.386 2.386 0 01-.023-.528c.008-.22.007-.298-.01-.392a.406.406 0 01.126-.01l.044.002a.462.462 0 00.115 0c.027-.006.036-.018.03-.041a3.134 3.134 0 01-.037-.145l-.002-.008-.018-.075c.007-.009.01-.02.006-.036l-.014.004.008.032a.046.046 0 01-.023.013.263.263 0 01-.079.004h-.018c-.05-.001-.079.003-.096.017l-.012-.005c-.04-.233-.077-.56-.07-.694l-.152-.01c0 .075.005.148.016.237l.022.15c.035.236.046.368.034.55-.032.463-.012.932.066 1.412.03-.01.08-.022.121-.03v.005l.006-.007-.006.001c0-.076-.004-.15-.01-.221.042-.01.091-.01.155.002l.072.015c.092.02.106.023.133.024.033 0 .046-.01.045-.034-.002-.026 0-.096.002-.18a.032.032 0 00.016-.03h-.015.015c-.004.097-.005.18-.004.209.003.035-.019.05-.06.05a.626.626 0 01-.135-.024.711.711 0 00-.214-.026zm-1.2-2.997l-.002-.01.01.006a.09.09 0 00-.007.004zm.23.862a3.524 3.524 0 01-.229-.516c-.06-.188-.064-.31 0-.346l.228.862zm0 0l.029.056-.014.006-.016-.062zm-.185.257l.005.017c.068-.027.137-.058.206-.095l-.005-.016-.206.094zm0 0c.068-.026.137-.058.205-.093l.006.016-.206.094-.005-.016zm-1.179.229l.004.016.153-.047-.003-.017a2.47 2.47 0 00-.154.048zm0 0l.004.016c.05-.017.1-.033.153-.047l-.003-.017-.154.048z" fill="#000"/><path d="M11.183 10.167c.557-.058 1.105-.322 1.33-.663l.013.003.018.12c-.12.174-.32.326-.568.432a6.666 6.666 0 00.03.089c.043.116.095.166.17.13a1.6 1.6 0 01-.056.027c-.053-.007-.094-.061-.128-.152a1.083 1.083 0 01-.016-.047c-.004-.01-.014-.044-.01-.052.25-.114.449-.265.565-.43l-.016-.097a.606.606 0 00.01-.015l-.013-.003.003.018c-.234.339-.777.597-1.33.655a2.834 2.834 0 00-1.343.487c-.017-.031-.037-.05-.087-.086a1.162 1.162 0 01-.027-.02c-.201-.157-.294-.354-.28-.537.01-.128.073-.223.145-.232a.377.377 0 00.043.02l.005-.014a.095.095 0 00-.048-.006.42.42 0 01-.038-.025 2.272 2.272 0 01-.056-.043c-.07-.055-.214.167-.196.402.008.107.094.278.183.383l-.007.013c-.147-.028-.217-.069-.3-.188a.365.365 0 01.152-.053l.004.01.006-.01h-.01l-.01-.026a.378.378 0 01-.023-.07.179.179 0 01-.003-.05H9.29a.465.465 0 00-.229.075 3.555 3.555 0 00-.144-.146 12.555 12.555 0 01-.038-.037 1.344 1.344 0 01-.284-.37c-.08-.166-.09-.317-.033-.396.037-.052.096-.063.163-.032l.024.023.037.035c-.089-.075-.169-.079-.213-.016-.052.073-.043.218.035.379.06.123.14.223.281.366a25.748 25.748 0 01.148.148c.012.012.024.024.025.034a.372.372 0 01.227-.073c-.018-.244.135-.48.22-.413l.003.002.052.04c.025.018.05.032.079.044l-.006.014c-.08-.032-.163.067-.174.213-.013.178.077.37.275.524l.026.02c.052.037.073.057.081.088.39-.27.802-.436 1.339-.492zm-1.846.13a.565.565 0 00-.149.04c.079.1.143.14.273.168a.988.988 0 01-.124-.207zm-.542-1.019a.319.319 0 00-.071-.047l-.144-.136a.989.989 0 00-.23-.164c-.169-.072-.347.108-.263.372.093.294.212.462.486.752l.02.021c.265.28.376.432.466.697.062.179.128.296.21.357.1.072.221.06.375-.054l.052-.037c.015-.01.026-.02.042-.03.117-.072.261.047.267.24a.873.873 0 01-.015.04l.014.003a.405.405 0 000-.043c.04-.112.037-.182 0-.26a.668.668 0 00-.025-.05c-.006-.01-.025-.043-.02-.05-.02.011-.034.003-.045-.019a.305.305 0 01-.02-.07l-.001-.008c-.01-.046-.016-.065-.025-.071v-.013c.226-.147.453-.258.723-.33.014.136.05.205.121.192l.102-.021c.015.007.033.009.053.006-.05.008-.1.018-.152.03-.085.015-.124-.062-.13-.2-.256.078-.48.187-.7.33a.212.212 0 01.022.074l.002.008a.296.296 0 00.018.066c.007.015.014.019.034.016l.03.054a.71.71 0 01.027.05c.042.09.04.172-.015.312l-.014-.004c.016-.207-.13-.34-.243-.27l-.041.03a6.53 6.53 0 00-.053.038c-.158.116-.286.13-.39.054-.087-.063-.154-.183-.216-.365-.09-.262-.2-.413-.463-.691l-.02-.022c-.276-.29-.396-.46-.49-.757-.088-.277.102-.469.283-.392a1.002 1.002 0 01.234.167l.168.16.037.035zm2.07 1.261l.002.016-.002-.016zm0 0c-.072.013-.106-.06-.12-.203.137-.026.287-.05.447-.065.193-.016.39-.057.573-.12.038.168.096.266.18.237a2.102 2.102 0 00.243-.098l-.006-.014-.005.003.005-.003.006.014-.005.003a.116.116 0 01-.063.012 2.267 2.267 0 01-.18.068c-.071.025-.125-.068-.17-.231a2.93 2.93 0 01-.58.114c-.16.014-.31.038-.454.073.007.121.03.197.078.22l.05-.01zm-2.07-1.26c.012.01.024.021.036.034l-.01.01.01-.01a7.736 7.736 0 01-.036-.035zM13.746 12.905c-.096.409.017.87.276 1.118v.012a5.207 5.207 0 01-1.135.78c-.118.06-.218.127-.327.214a4.72 4.72 0 00-.173.146c-.086.071-.15.12-.218.161.396.071.847.455 1.149.958.357.595.712.887 1.29 1.19.321.168.304.385.046.707-.172.214-.24.387-.34.774-.109.42-.185.607-.386.846-.184.218-.437.141-.464-.062a.884.884 0 01.016-.269c.009-.05.045-.226.063-.313l.01-.048a.81.81 0 00.006-.036c0 .017.002.032.007.046l-.009.041c-.018.087-.054.262-.063.313a.873.873 0 00-.016.264c.026.19.263.262.44.053.199-.236.274-.42.382-.84.1-.388.17-.563.343-.779.253-.315.269-.52-.042-.684-.58-.303-.937-.597-1.296-1.195-.304-.508-.762-.894-1.158-.954l-.003-.014c.075-.044.141-.094.233-.171a17.297 17.297 0 00.174-.146c.11-.088.211-.156.33-.216a5.2 5.2 0 001.125-.772l.006.006v-.012l-.006.006c-.259-.253-.37-.717-.273-1.121-.189-.234-.662-.33-1.025-.233-.35.26-.641.592-.917 1.017-.076.117-.23.384-.38.645-.156.27-.307.534-.362.612a1.772 1.772 0 01-.05.07c-.168.215-.172.647.075.852a.948.948 0 01.132.13l.042.049.078.088c.053.06.106.115.17.175.165.156.387.333.704.553.16.111.666.445.663.444.224.15.35.248.42.332.226.269.309.425.28.631a1.44 1.44 0 00-.01.256l-.008-.001-.007.007a1.46 1.46 0 01.011-.264c.028-.2-.053-.353-.276-.619-.07-.082-.195-.18-.418-.33.003.002-.503-.332-.664-.444a6.106 6.106 0 01-.705-.553 2.834 2.834 0 01-.171-.176l-.078-.09-.041-.047a1.258 1.258 0 00-.131-.129c-.254-.21-.25-.652-.078-.874.017-.022.033-.045.05-.07.055-.077.205-.339.36-.609.15-.26.305-.53.382-.647.277-.426.57-.76.923-1.021.37-.101.849-.003 1.044.243zm-.207 5.648l-.001-.018h-.001c0 .007 0 .012.002.018zm.017.054a.166.166 0 01-.017-.054c.002.053.006.112.012.182l.001.012-.002.001a1.384 1.384 0 01.011.32l-.002.015.002-.015.01-.006.005.003-.002.016v-.01l-.01.005.01.005v.003a.677.677 0 01-.007.038l-.001.007c.03.095.166.142.329.117l.002-.014-.32-.167a1.157 1.157 0 00-.002-.22c.052.108.188.142.474.117l.002-.015-.484-.204-.001-.01a5.513 5.513 0 01-.01-.126zm-.003-.056l.003.056c.064.119.274.14.575.048v-.015l-.579-.111v.016-.01l-.01.008.01.002.001.006zm.544.098c-.317.092-.52.049-.544-.098v-.006l.544.104zm0 0l.03-.009v.015l-.03-.006zm-.529.111l-.001-.017-.007-.002-.008.006.004.042c.004.02.01.04.019.057a6.596 6.596 0 00-.005-.06c.03.137.145.185.446.163l.03.012.001-.015-.03.003-.449-.189zm-.002 0l.004.026-.002-.026h-.002zm0 0l-.002-.013-.01.008.012.005zm.303.474l-.295-.153v.003c-.002.107.128.17.295.15zm0 0l.022.012.002-.015a.52.52 0 01-.024.003z" fill="#000"/><path d="M13.262 13.734a2.01 2.01 0 00.457-.31l.012.005.008.043.013.066a2.029 2.029 0 01-.418.276l-.041.022c-.21.115-.35.228-.557.471-.258.304-.646.652-.875.787l-.064-.078c.218-.135.606-.482.862-.785.208-.244.35-.359.562-.475l.04-.022zm.454-.303l.012.005-.01.008a.835.835 0 01-.002-.013zm.003.013c-.15.132-.24.19-.45.303l-.042.023c-.209.115-.35.228-.557.471-.257.304-.646.652-.864.776l.057.065c.218-.135.605-.482.862-.785a1.81 1.81 0 01.561-.475l.041-.022c.199-.107.278-.157.413-.265a1.018 1.018 0 01-.021-.09zM12.597 15.897l.009-.012c.06.046.118.095.171.146l-.009.012-.171-.146zm0 0c.06.046.117.095.17.146l.01-.012-.17-.146-.01.012zm.964 1.11v.001l.011-.012-.01.012h-.001zm-.121-.127l.12.128c-.039-.04-.079-.082-.12-.128zm0 0zm.01-.012l-.01.012.01-.012zm.001 0l.121.128a3.18 3.18 0 01-.12-.127zm0 0z" fill="#000"/><path d="M11.875 15.673l-.004-.013c.006 0 .011 0 .017.002l-.013.011zm.85-.042c.013.03.01.063-.004.1a.443.443 0 01-.124.166c-.22-.17-.443-.275-.637-.298l-.072.063c.397.043.881.408 1.206.882.313.458.654.748 1.073.977-.018.031-.023.059-.028.123v.002a2.295 2.295 0 01-.003.032c-.029.261-.145.444-.303.523-.11.055-.22.046-.264-.016a.422.422 0 00-.005-.05l-.014.003c.002.018.01.034.019.047a.596.596 0 01-.005.088l-.004.032c-.01.091.245.11.43-.023.083-.06.182-.224.224-.358h.014c.05.148.052.232-.005.367a.381.381 0 01-.12-.112l.007-.008h-.012l.006.008-.003.003a1.396 1.396 0 01-.054.07.198.198 0 01-.02.02.063.063 0 01-.027.013.491.491 0 00.18.176 6.27 6.27 0 00-.045.192c-.058.256-.097.378-.178.508-.096.156-.216.24-.31.228-.061-.008-.1-.056-.107-.133l.017-.085c-.018.119.019.194.092.203.087.01.202-.07.296-.221.08-.128.118-.25.176-.503a1.05 1.05 0 01.05-.184.393.393 0 01-.175-.17c-.192.138-.462.117-.45.007l.003-.032a.453.453 0 000-.133l.015-.002c.014.088.137.115.263.051.153-.076.266-.254.294-.511l.003-.032v-.002c.006-.066.011-.095.033-.118a2.873 2.873 0 01-1.075-.971c-.327-.478-.818-.844-1.212-.878l-.004-.014.09-.075c.203.02.429.127.64.3l.045-.054a.425.425 0 00.066-.106c.022-.055.014-.099-.03-.133l.049.038zm.856 1.067c.005.054-.046.113-.142.18a3.337 3.337 0 01-.287-.377 3.18 3.18 0 00-.385-.47c.113-.122.163-.217.106-.27-.05-.048-.1-.091-.147-.13a.123.123 0 00-.041-.05c.064.048.13.104.198.169.066.062.014.163-.105.281.143.136.275.295.386.462.09.138.186.263.276.374.11-.085.154-.152.108-.21l.033.04zm-.022-.052l-.01.01.01-.01zm.625.813a2.78 2.78 0 01-.623-.472c.11-.074.155-.148.1-.218a2.962 2.962 0 01-.102-.122c.013.016.02.033.022.05l.069.082c.047.06.007.126-.099.207.195.21.4.36.634.492l.01-.007c.002-.011.014-.025.053-.063l.007-.006a.246.246 0 00.043-.05c.01-.019.01-.036-.008-.047.005.005.027-.034.036-.051l.002-.005c.055-.1.108-.143.235-.166-.156.102-.182.292-.065.363l.045.022.059.03c.17.083.24.187.23.313-.008.106-.072.224-.189.37-.174.216-.243.391-.343.78-.108.418-.183.603-.383.84-.176.208-.413.136-.439-.054a.873.873 0 01.016-.264l.046-.227a.357.357 0 01.003-.089c.005-.025.01-.043.01-.048l.014.003a11.594 11.594 0 000 0l-.014-.003a.884.884 0 00-.09.63c.028.203.281.28.465.061.201-.238.277-.424.386-.845.1-.387.168-.56.34-.774.12-.148.184-.269.193-.379.01-.133-.064-.242-.24-.328a3.118 3.118 0 00-.103-.051c-.113-.07-.077-.267.102-.357l-.004-.014c-.161.022-.224.066-.286.18l-.03.054-.006.012c.012.016.013.024.005.037a.236.236 0 01-.04.046l-.007.006c-.035.033-.05.049-.054.063zm.38-.376a.377.377 0 01.036-.02l.004.014a.894.894 0 00-.04.006zm-1.88-1.502l-.003-.003-.008.012.008-.012.004.003zm1.429 2.585c.03.044.073.087.107.115a.445.445 0 00.001-.331c-.025.072-.065.15-.108.216z" fill="#000"/><path d="M14.624 16.873l-.115-.146-.013.004-.042.19-.18-.002-.006.013.116.153-.113.146.006.012.187.002.037.184.013.003.117-.153.162.083.01-.008-.042-.19.164-.081v-.014l-.17-.086.044-.183-.01-.009-.165.082zm.158-.061l-.157.078-.009-.002-.11-.14.004-.014-.012.003.009.012-.046.181-.173.004-.009-.012-.005.012h.014l.108.15-.105.145-.014-.001.006.012.008-.011.18.006.04.176-.009.011.013.003-.004-.014.117-.144.158.075.003.015.01-.008-.013-.007-.036-.184.155-.082.013.007v-.014l-.013.007-.16-.088.037-.176zm0 0l.014-.007-.01-.008-.004.015zM14.059 12.854c.385-.118.71-.451.784-.81l.01-.006c.446.164.844.381 1.21.642.153.108.244.152.511.26.127.052.202.086.279.131-.14-.395-.049-.997.215-1.523.313-.622.376-1.09.336-1.768-.021-.376.166-.47.56-.395.258.048.442.024.789-.072l.027-.008c.393-.109.588-.133.883-.07.272.058.336.327.182.453a.83.83 0 01-.25.127l-.23.078-.084.029-.012.004a.136.136 0 00.03-.027l.062-.02.23-.078a.818.818 0 00.245-.125c.144-.118.084-.37-.175-.426-.293-.063-.486-.039-.878.07l-.027.008c-.348.096-.534.12-.794.072-.387-.073-.564.016-.543.38.04.68-.024 1.15-.338 1.775-.267.532-.356 1.14-.207 1.531l-.01.01a1.8 1.8 0 00-.295-.142c-.268-.109-.36-.152-.513-.261a5.12 5.12 0 00-1.2-.638l.001-.008-.01.005.009.003c-.08.362-.406.695-.789.809-.098.289.058.766.321 1.048.142.069.29.126.443.173.473.143.86.174 1.63.176.396.001.55.007.715.034.261.044.62-.168.665-.495a1.22 1.22 0 01.034-.16l.049-.162c.022-.072.039-.136.055-.21a6.16 6.16 0 00.12-.989c.01-.17.012-.238.025-.602.016-.456.031-.641.073-.772.11-.34.197-.492.38-.57.074-.031.142-.069.217-.118l.003.008.01.003c-.078.05-.148.09-.224.121-.179.076-.264.225-.372.561-.041.128-.056.313-.072.768-.013.364-.016.432-.026.602a6.182 6.182 0 01-.12.992 3.097 3.097 0 01-.055.21l-.049.162a1.2 1.2 0 00-.033.159c-.047.335-.414.552-.683.507-.163-.027-.317-.033-.712-.034-.77-.001-1.16-.033-1.634-.177a3.003 3.003 0 01-.447-.174c-.269-.288-.427-.771-.321-1.071zm4.762-2.636l-.015.01h.002a.24.24 0 00.013-.01zm.035-.043a.162.162 0 01-.035.043c.024-.016.05-.034.075-.053l.078-.056.003.001a.36.36 0 00.03-.026l.03-.022c.053-.038.094-.066.133-.088a.72.72 0 01.067-.035l.003.002a.166.166 0 00.029-.015.555.555 0 00-.032.013l-.008-.005-.001-.007a.71.71 0 01.016-.007v.002a.164.164 0 01-.01.005l.011.006v-.011a.57.57 0 01.032-.014l.022-.008c.065-.078.031-.22-.082-.353l-.015.005.026.375a1.446 1.446 0 00-.183.112c.061-.102.021-.242-.142-.489l-.013.005.074.542a8.39 8.39 0 01-.076.056l-.032.022zm-.044.03c.015-.009.03-.019.044-.03.067-.117-.02-.319-.247-.547l-.012.008.197.582.013-.009-.008.007.012.004-.004-.01.005-.004zm-.19-.543c.233.243.3.448.19.544l-.005.003-.186-.547zm0 0l-.023-.023.012-.008.01.031zm.355.425l-.013.01.001.008.009.004.016-.012.017-.013a.237.237 0 00.038-.046l-.016.011-.031.024c.098-.095.08-.225-.09-.487l-.004-.033-.013.006.018.027.068.501zm0 .003a.287.287 0 00.02-.017l-.015.011-.005.003v.003zm0 0l-.009.008.012.005-.002-.013zm.243-.513l.024.343a.51.51 0 01.014-.006c.09-.057.071-.2-.038-.337zm0 0l-.002-.026-.015.006a.697.697 0 01.017.02z" fill="#000"/><path d="M14.61 12.663a2.17 2.17 0 00-.11-.045l-.002-.013c.01-.008.021-.02.034-.03l.046-.044.056.024c.14.062.203.1.39.225.223.15.377.221.697.29.379.083.86.262 1.086.403l-.032.097c-.221-.13-.701-.31-1.08-.392a1.736 1.736 0 01-.702-.293 2.047 2.047 0 00-.383-.222zm-.102-.046l-.003-.013.012.005a.56.56 0 01-.01.008zm.073-.074a.888.888 0 01-.064.066 2.113 2.113 0 01.484.264c.224.15.379.22.698.29.38.083.86.262 1.072.399l.025-.085c-.22-.13-.7-.309-1.078-.392a1.735 1.735 0 01-.703-.292 2.043 2.043 0 00-.387-.224l-.003-.001c-.017-.008-.034-.015-.044-.024z" fill="#000"/><path d="M17.492 11.146c.018-.057.035-.11.048-.161l-.016-.004-.048.16.016.005zm-.016-.005l.016.005.048-.16-.016-.005c-.014.051-.03.104-.048.16zM15 12.28a1.22 1.22 0 01-.19-.098l-.004-.009.009-.025c.01-.037.024-.08.038-.11.446.164.844.381 1.21.642.153.108.244.152.511.26.137.056.214.091.3.153l-.092.147a4.792 4.792 0 00-.605-.276c0 .021-.01.046-.028.079a.869.869 0 01-.014.024.326.326 0 00-.038.074c-.005.02-.001.03.016.035l-.004.015.004-.015-.03-.01a.054.054 0 010-.03.333.333 0 01.04-.077l.014-.024c.02-.036.028-.061.025-.081l.01-.008c.21.08.5.21.607.284l.084-.135a1.8 1.8 0 00-.294-.14c-.268-.11-.36-.153-.513-.262a5.48 5.48 0 00-1.199-.646 2.078 2.078 0 01-.035.125l-.005-.003.003.01.002-.007c.063.039.127.072.188.103a.585.585 0 01-.11.178l-.027.03-.03.035a.52.52 0 00-.042.055c-.022.035-.022.054 0 .065.023.012.083.05.149.093 0 .012.005.021.015.028l.008-.013-.008.013a3.205 3.205 0 00-.17-.107c-.032-.017-.032-.046-.006-.087a.536.536 0 01.043-.057l.03-.036.026-.03a.567.567 0 00.1-.15c.004-.008.006-.014.012-.012zm-.027.466l-.023-.015c0-.016.007-.036.022-.06a.986.986 0 01.097-.121l.007-.008c.094-.107.122-.145.121-.17l.01-.008c.118.04.227.1.37.192l.005.003c.029.02.169.112.209.136.075.046.133.075.191.1a.377.377 0 01-.035.086 1.175 1.175 0 01-.033.055v.001a.926.926 0 00-.064.114c-.013.032-.008.048.016.054.027.006.071.019.145.04l.006.003.05.015.015.004c.004.011.012.02.027.024l-.045-.014-.05-.015-.006-.001a2.972 2.972 0 00-.145-.04c-.035-.01-.042-.036-.027-.075l.005-.014c.007-.016.016-.03.06-.102l.001-.002a1.245 1.245 0 00.048-.087.3.3 0 01.024-.04.79.79 0 01-.19-.093c-.041-.024-.182-.118-.21-.136l-.005-.003a1.703 1.703 0 00-.358-.188c-.005.03-.036.07-.125.171l-.006.008a.992.992 0 00-.095.12c-.023.035-.026.057-.012.066zm3.113-.047c.01-.093-.098-.157-.298-.199a3.302 3.302 0 00-.603-.052l-.002.015.894.242.009-.006zm-.014-.011l.008.002-.009.007v-.009zm-.826-.224c.204.005.395.021.54.051.185.039.287.097.286.173l-.826-.224zm0 0h-.06l.001-.016.059.016zm-.143-.062a2.19 2.19 0 01.04-.228l-.016-.003-.04.229.016.002zm0 0l-.017-.002c.01-.078.024-.155.04-.229l.017.003-.04.228z" fill="#000"/><path d="M17.4 11.633c-.23.537-.287 1.166-.118 1.542l-.01.01-.107-.044c-.084-.195-.11-.454-.073-.732l-.037-.008a.8.8 0 00-.077-.013c-.101-.011-.16.014-.167.094l.007-.065c.028-.04.084-.053.162-.045a.781.781 0 01.078.014c.009.001.035.007.043.016-.03.285-.005.54.073.729l.087.033a.653.653 0 00.008.017l.009-.01-.017-.007c-.162-.382-.103-1.005.126-1.537a3.2 3.2 0 00.269-1.465c.034.001.06-.008.112-.034l.003-.001.03-.014c.23-.105.439-.09.583.013.1.072.146.177.119.248a.372.372 0 00-.039.03l.01.011a.104.104 0 00.029-.041.74.74 0 01.093-.047l.01-.004c.08-.037-.032-.279-.234-.38-.092-.046-.276-.053-.407-.025l-.008-.012c.097-.12.166-.163.305-.18a.41.41 0 01-.032.165l-.01-.001.006.01a.276.276 0 00.004-.009h.005c.042.006.069.01.092.019a.175.175 0 01.042.022.526.526 0 00.055-.252 4.79 4.79 0 00.13-.039c.171-.053.2-.062.274-.079a.998.998 0 01.285-.029c.177.01.306.077.343.168.025.06.004.12-.055.164l-.04.014-.038.013c.106-.043.15-.114.12-.185-.034-.084-.159-.149-.33-.158a.984.984 0 00-.282.028 3.156 3.156 0 00-.273.08.649.649 0 01-.125.03.421.421 0 01-.053.243c.21.107.328.362.232.407l-.01.004a.41.41 0 00-.129.074l-.009-.012c.066-.056.027-.181-.089-.264-.14-.1-.343-.115-.569-.012a.883.883 0 00-.029.014h-.002c-.055.028-.083.037-.112.029.028.489-.04.947-.263 1.463zm1.927-1.727a.317.317 0 00.074-.04l.19-.065a.818.818 0 00.245-.125c.144-.118.084-.37-.175-.426-.293-.063-.486-.039-.878.07l-.027.008c-.348.096-.534.12-.794.072-.179-.034-.308-.033-.4.012-.109.054-.159.171-.143.367l.002.019c0 .01 0 .019.003.045v.003l.004.053c0 .142-.17.213-.331.122a.843.843 0 01-.026-.034l-.01.011a.36.36 0 00.036.023c.048.06.09.095.135.113.042.017.074.02.162.018.014 0 .02 0 .022.006 0-.021.015-.03.038-.03a.26.26 0 01.066.017h.004c.048.017.067.021.076.016l.01.007c.01.277-.013.54-.088.822-.12-.056-.194-.058-.22.014-.01.035-.021.069-.033.103a.093.093 0 00-.03.045l.013.006.017-.051c.043-.032.117-.015.22.039a3.454 3.454 0 01-.167.45 3.309 3.309 0 00-.195.584c-.157-.041-.261-.038-.276.039-.014.07-.026.135-.033.198a.13.13 0 00-.022.063v.005l.014.002v-.005.005l-.014-.002m.8-2.307c-.013.002-.033-.003-.077-.018h-.004a.25.25 0 00-.062-.017c-.016 0-.022.004-.03.023h-.029c-.09.003-.123 0-.167-.018a.406.406 0 01-.167-.151l.01-.011c.162.118.344.052.344-.086a2.955 2.955 0 01-.004-.053v-.003a14 14 0 00-.006-.063c-.016-.202.037-.326.152-.383.095-.046.227-.047.409-.013.257.048.44.024.788-.072l.027-.008c.393-.109.588-.133.883-.07.272.058.336.327.182.453a.83.83 0 01-.25.127l-.23.078c-.013.005-.026.01-.038.013a.46.46 0 01-.047.016l-.004-.015.005.015.046-.016M17.982 9.9a.894.894 0 01.233-.01.64.64 0 00.041-.155.402.402 0 00-.274.165z" fill="#000"/></g></svg>