<svg viewBox="0 0 28 28" fill="none" xmlns="http://www.w3.org/2000/svg"><rect x=".25" y="4.25" width="27.5" height="19.5" rx="2.75" fill="#fff" stroke="#D6D8DD" stroke-width=".5"/><mask id="a" style="mask-type:alpha" maskUnits="userSpaceOnUse" x="0" y="4" width="28" height="20"><rect x=".25" y="4.25" width="27.5" height="19.5" rx="2.75" fill="#fff" stroke="#fff" stroke-width=".5"/></mask><g mask="url(#a)"><path fill="#E3243B" d="M-6.311 1.417l1.53-2.185 40.41 28.296-1.53 2.185z"/><path fill="#E3243B" d="M35.63 1.417L34.1-.767-6.311 27.529l1.53 2.184z"/><path fill-rule="evenodd" clip-rule="evenodd" d="M15.74 6.667h-2.148l.088-.052-.987-.57 1.276.143-.18-.855.878.713.877-.713-.18.855 1.276-.142-.987.57.088.05z" fill="#FAEF32"/><path fill-rule="evenodd" clip-rule="evenodd" d="M12.667 9.167V8c0-.736.597-1.333 1.333-1.333h1.333c.737 0 1.334.597 1.334 1.333v1.167c0 1.785-2 2.5-2 2.5s-2-.715-2-2.5z" fill="#E3243B"/><mask id="b" style="mask-type:alpha" maskUnits="userSpaceOnUse" x="12" y="6" width="5" height="6"><path fill-rule="evenodd" clip-rule="evenodd" d="M12.667 9.167V8c0-.736.597-1.333 1.333-1.333h1.333c.737 0 1.334.597 1.334 1.333v1.167c0 1.785-2 2.5-2 2.5s-2-.715-2-2.5z" fill="#fff"/></mask><g mask="url(#b)" fill="#FAEF32"><rect x="14.333" y="10.667" width=".667" height=".667" rx=".333"/><rect x="13.333" y="9.333" width="2.667" height=".667" rx=".333"/><rect x="13.333" y="8" width="2.667" height=".667" rx=".333"/></g></g></svg>