<svg viewBox="0 0 28 28" fill="none" xmlns="http://www.w3.org/2000/svg"><rect x=".25" y="4.25" width="27.5" height="19.5" rx="2.75" fill="#fff" stroke="#D6D8DD" stroke-width=".5"/><mask id="a" style="mask-type:alpha" maskUnits="userSpaceOnUse" x="0" y="4" width="28" height="20"><rect x=".25" y="4.25" width="27.5" height="19.5" rx="2.75" fill="#fff" stroke="#fff" stroke-width=".5"/></mask><g mask="url(#a)" fill-rule="evenodd" clip-rule="evenodd"><path d="M0 24h28v-6.667H0V24z" fill="#199E56"/><path d="M0 10.667h28V4H0v6.667z" fill="#262626"/><path d="M0 4l13.333 10L0 24V4z" fill="#E6223A"/><path d="M4.667 15l-.868.802.086-1.178-1.168-.179.975-.668-.589-1.024 1.13.346L4.667 12l.434 1.099 1.13-.346-.59 1.024.976.668-1.168.178.085 1.179L4.667 15z" fill="#fff"/></g></svg>