<svg viewBox="0 0 24 24" fill="none" xmlns="http://www.w3.org/2000/svg"><path fill-rule="evenodd" clip-rule="evenodd" d="M9.293 8.15a2.5 2.5 0 105 0 2.5 2.5 0 00-5 0zm1.3 0a1.2 1.2 0 102.4 0 1.2 1.2 0 00-2.4 0z" fill="#626F84"/><path fill-rule="evenodd" clip-rule="evenodd" d="M20.65 6a3 3 0 00-3-3h-8a3 3 0 00-3 3v10a3 3 0 003 3h.001l-.001.002h8a3 3 0 003-3V6zm-2.005 5.29l.705 1.02V6a1.7 1.7 0 00-1.7-1.7h-8A1.7 1.7 0 007.95 6v10a1.7 1.7 0 001.7 1.7h.796l3.842-6.287c.98-1.605 3.288-1.67 4.357-.123zm-.995 6.41a1.7 1.7 0 001.7-1.7v-1.405l-1.774-2.566a1.3 1.3 0 00-2.179.061L11.97 17.7h5.681z" fill="#626F84"/><path d="M4.65 8.35A.65.65 0 004 9v9.4a3.25 3.25 0 003.25 3.25h8.4a.65.65 0 100-1.3h-8.4A1.95 1.95 0 015.3 18.4V9a.65.65 0 00-.65-.65z" fill="#626F84"/></svg>