<svg viewBox="0 0 24 24" fill="none" xmlns="http://www.w3.org/2000/svg"><path fill-rule="evenodd" clip-rule="evenodd" d="M20.65 6.35a3 3 0 00-3-3h-8a3 3 0 00-3 3v10a3 3 0 003 3h8a3 3 0 003-3v-10zM9.3 8a2 2 0 104 0 2 2 0 00-4 0zm10.057 8.352v-1.973l-1.928-2.79a1.7 1.7 0 00-2.849.081l-3.9 6.382h6.977a1.7 1.7 0 001.7-1.7z" fill="#626F84"/><path d="M4.65 8.7a.65.65 0 00-.65.65v9.4A3.25 3.25 0 007.25 22h8.4a.65.65 0 100-1.3h-8.4a1.95 1.95 0 01-1.95-1.95v-9.4a.65.65 0 00-.65-.65z" fill="#626F84"/></svg>