<svg viewBox="0 0 28 28" fill="none" xmlns="http://www.w3.org/2000/svg"><rect y="4" width="28" height="20" rx="3" fill="#fff"/><mask id="a" style="mask-type:alpha" maskUnits="userSpaceOnUse" x="0" y="4" width="28" height="20"><rect y="4" width="28" height="20" rx="3" fill="#fff"/></mask><g mask="url(#a)"><path fill="#30C6E0" d="M0 4h28v20H0z"/><path fill-rule="evenodd" clip-rule="evenodd" d="M14 18a4 4 0 100-8 4 4 0 000 8z" fill="#FFCD4B"/><path fill-rule="evenodd" clip-rule="evenodd" d="M12.368 21.15L14 18.713l1.632 2.436.413-2.903 2.527 1.486-.887-2.794 2.922.243-2.011-2.133L21.333 14l-2.737-1.049 2.011-2.133-2.922.243.887-2.794-2.527 1.486-.413-2.902L14 9.286l-1.632-2.435-.413 2.902-2.527-1.486.887 2.794-2.922-.243 2.012 2.133L6.667 14l2.738 1.049-2.012 2.133 2.922-.243-.887 2.794 2.527-1.486.413 2.902zM18.667 14a4.667 4.667 0 11-9.334 0 4.667 4.667 0 019.334 0zM1.333 5.667c0-.184.15-.334.334-.334h.666c.184 0 .334.15.334.334v.666c0 .184-.15.334-.334.334h-.666a.333.333 0 01-.334-.334v-.666zm0 2.666c0-.184.15-.333.334-.333h.666c.184 0 .334.15.334.333V9c0 .184-.15.333-.334.333h-.666A.333.333 0 011.333 9v-.667zm.334 2.334a.333.333 0 00-.334.333v.667c0 .184.15.333.334.333h.666c.184 0 .334-.15.334-.333V11a.333.333 0 00-.334-.333h-.666zm-.334 3c0-.184.15-.334.334-.334h.666c.184 0 .334.15.334.334v.666c0 .184-.15.334-.334.334h-.666a.333.333 0 01-.334-.334v-.666zM1.667 16a.333.333 0 00-.334.333V17c0 .184.15.333.334.333h.666c.184 0 .334-.149.334-.333v-.667A.333.333 0 002.333 16h-.666zm-.334 3c0-.184.15-.333.334-.333h.666c.184 0 .334.149.334.333v.667c0 .184-.15.333-.334.333h-.666a.333.333 0 01-.334-.333V19zm.334 2.333a.333.333 0 00-.334.334v.666c0 .184.15.334.334.334h.666c.184 0 .334-.15.334-.334v-.666a.333.333 0 00-.334-.334h-.666zm1-1c0-.184.149-.333.333-.333h.667c.184 0 .333.15.333.333V21c0 .184-.15.333-.333.333H3A.333.333 0 012.667 21v-.667zm.333-3a.333.333 0 00-.333.334v.666c0 .184.149.334.333.334h.667c.184 0 .333-.15.333-.334v-.666a.333.333 0 00-.333-.334H3zM2.667 15c0-.184.149-.333.333-.333h.667c.184 0 .333.149.333.333v.667c0 .184-.15.333-.333.333H3a.333.333 0 01-.333-.333V15zM3 12a.333.333 0 00-.333.333V13c0 .184.149.333.333.333h.667c.184 0 .333-.149.333-.333v-.667A.333.333 0 003.667 12H3zm-.333-2.333c0-.184.149-.334.333-.334h.667c.184 0 .333.15.333.334v.666c0 .184-.15.334-.333.334H3a.333.333 0 01-.333-.334v-.666zm.333-3A.333.333 0 002.667 7v.667c0 .184.149.333.333.333h.667C3.85 8 4 7.85 4 7.667V7a.333.333 0 00-.333-.333H3z" fill="#FFCD4B"/></g></svg>