<svg viewBox="0 0 28 28" fill="none" xmlns="http://www.w3.org/2000/svg"><rect y="4" width="28" height="20" rx="3" fill="#fff"/><mask id="a" style="mask-type:alpha" maskUnits="userSpaceOnUse" x="0" y="4" width="28" height="20"><rect y="4" width="28" height="20" rx="3" fill="#fff"/></mask><g mask="url(#a)"><path fill-rule="evenodd" clip-rule="evenodd" d="M0 9.333h28V4H0v5.333z" fill="#262626"/><path fill-rule="evenodd" clip-rule="evenodd" d="M0 24h28v-5.333H0V24z" fill="#018301"/><path fill-rule="evenodd" clip-rule="evenodd" d="M0 18.667h28V9.333H0v9.334z" fill="#fff"/><path fill-rule="evenodd" clip-rule="evenodd" d="M0 17.333h28v-6.666H0v6.666z" fill="#DC0808"/><path fill-rule="evenodd" clip-rule="evenodd" d="M14 20.667c1.333 0 3.333-2.617 3.333-6.667s-2-6.667-3.333-6.667c-1.333 0-3.333 2.617-3.333 6.667s2 6.667 3.333 6.667z" fill="#BC0000"/><mask id="b" style="mask-type:alpha" maskUnits="userSpaceOnUse" x="10" y="7" width="8" height="14"><path fill-rule="evenodd" clip-rule="evenodd" d="M14 20.667c1.333 0 3.333-2.617 3.333-6.667s-2-6.667-3.333-6.667c-1.333 0-3.333 2.617-3.333 6.667s2 6.667 3.333 6.667z" fill="#fff"/></mask><g mask="url(#b)"><path fill-rule="evenodd" clip-rule="evenodd" d="M8.667 21.333C10.507 21.333 12 18.05 12 14c0-4.05-1.492-7.333-3.333-7.333-1.841 0-3.334 3.283-3.334 7.333 0 4.05 1.493 7.333 3.334 7.333zM19.333 21.333c1.841 0 3.334-3.283 3.334-7.333 0-4.05-1.493-7.333-3.334-7.333C17.493 6.667 16 9.95 16 14c0 4.05 1.492 7.333 3.333 7.333z" fill="#262626"/><g filter="url(#filter0_d_17_5173)"><path fill-rule="evenodd" clip-rule="evenodd" d="M14 12c.368 0 .667-1.194.667-2.667 0-1.472-.299-2.666-.667-2.666-.368 0-.667 1.194-.667 2.666 0 1.473.299 2.667.667 2.667zm0 4c.368 0 .667-.895.667-2s-.299-2-.667-2c-.368 0-.667.895-.667 2s.299 2 .667 2zm0 0c-.368 0-.667 1.194-.667 2.667 0 1.472.299 2.666.667 2.666.368 0 .667-1.194.667-2.666 0-1.473-.299-2.667-.667-2.667z" fill="url(#paint0_linear_17_5173)"/></g></g></g><defs><linearGradient id="paint0_linear_17_5173" x1="13.333" y1="6.667" x2="13.333" y2="21.333" gradientUnits="userSpaceOnUse"><stop stop-color="#fff"/><stop offset="1" stop-color="#F0F0F0"/></linearGradient><filter id="filter0_d_17_5173" x="13.333" y="6.667" width="1.333" height="15.667" filterUnits="userSpaceOnUse" color-interpolation-filters="sRGB"><feFlood flood-opacity="0" result="BackgroundImageFix"/><feColorMatrix in="SourceAlpha" values="0 0 0 0 0 0 0 0 0 0 0 0 0 0 0 0 0 0 127 0" result="hardAlpha"/><feOffset dy="1"/><feColorMatrix values="0 0 0 0 0 0 0 0 0 0 0 0 0 0 0 0 0 0 0.06 0"/><feBlend in2="BackgroundImageFix" result="effect1_dropShadow_17_5173"/><feBlend in="SourceGraphic" in2="effect1_dropShadow_17_5173" result="shape"/></filter></defs></svg>