<svg viewBox="0 0 24 24" fill="none" xmlns="http://www.w3.org/2000/svg"><path d="M9.148 13.938a.65.65 0 100 1.3h5.704a.65.65 0 100-1.3H9.148zM15.995 9.412a.65.65 0 01.65-.65h.697a.65.65 0 110 1.3h-.697a.65.65 0 01-.65-.65zM6.648 8.762a.65.65 0 000 1.3h.697a.65.65 0 100-1.3h-.697zM9.33 9.412a.65.65 0 01.65-.65h.697a.65.65 0 110 1.3H9.98a.65.65 0 01-.65-.65zM13.313 8.762a.65.65 0 100 1.3h.697a.65.65 0 100-1.3h-.697zM15.995 11.912a.65.65 0 01.65-.65h.697a.65.65 0 010 1.3h-.697a.65.65 0 01-.65-.65zM6.648 11.262a.65.65 0 000 1.3h.697a.65.65 0 100-1.3h-.697zM9.33 11.912a.65.65 0 01.65-.65h.697a.65.65 0 010 1.3H9.98a.65.65 0 01-.65-.65zM13.313 11.262a.65.65 0 000 1.3h.697a.65.65 0 100-1.3h-.697z" fill="#626F84"/><path fill-rule="evenodd" clip-rule="evenodd" d="M3 8.6a3 3 0 013-3h12a3 3 0 013 3v6.8a3 3 0 01-3 3H6a3 3 0 01-3-3V8.6zm3-1.7h12a1.7 1.7 0 011.7 1.7v6.8a1.7 1.7 0 01-1.7 1.7H6a1.7 1.7 0 01-1.7-1.7V8.6A1.7 1.7 0 016 6.9z" fill="#626F84"/></svg>