<svg viewBox="0 0 24 24" fill="none" xmlns="http://www.w3.org/2000/svg"><path fill-rule="evenodd" clip-rule="evenodd" d="M6 5.6a3 3 0 00-3 3v6.8a3 3 0 003 3h12a3 3 0 003-3V8.6a3 3 0 00-3-3H6zm.003 3.408a.65.65 0 01.65-.65h.697a.65.65 0 010 1.3h-.697a.65.65 0 01-.65-.65zm10.647-.65a.65.65 0 100 1.3h.697a.65.65 0 100-1.3h-.697zm-7.502 6a.65.65 0 100 1.3h5.704a.65.65 0 100-1.3H9.148zm.837-6a.65.65 0 100 1.3h.697a.65.65 0 100-1.3h-.697zm2.683.65a.65.65 0 01.65-.65h.697a.65.65 0 110 1.3h-.697a.65.65 0 01-.65-.65zm3.977 2.254a.65.65 0 000 1.3h.697a.65.65 0 100-1.3h-.697zm-10.647.65a.65.65 0 01.65-.65h.697a.65.65 0 010 1.3h-.697a.65.65 0 01-.65-.65zm3.982-.65a.65.65 0 000 1.3h.697a.65.65 0 100-1.3H9.98zm2.683.65a.65.65 0 01.65-.65h.697a.65.65 0 010 1.3h-.697a.65.65 0 01-.65-.65z" fill="#626F84"/></svg>