<svg viewBox="0 0 24 24" fill="none" xmlns="http://www.w3.org/2000/svg"><path d="M10.532 7.77a.65.65 0 00-.92-.92L7.255 9.209a.65.65 0 00.919.92l2.359-2.36z" fill="#626F84"/><path fill-rule="evenodd" clip-rule="evenodd" d="M8.166 3.559a3 3 0 014.242 0L14.53 5.68a3 3 0 010 4.243l-.325.325 2.43 2.385a1.3 1.3 0 01.364.679l.389 1.997a.7.7 0 00.687.566h.607a1.3 1.3 0 01.92.381l.344.345c.635.635.888 1.557.665 2.427l-.16.63a1.876 1.876 0 01-3.144.861l-6.687-6.686-.333.332a3 3 0 01-4.242 0l-2.122-2.12a3 3 0 010-4.243l4.243-4.243zM4.842 8.72l4.243-4.243a1.7 1.7 0 012.404 0L13.611 6.6a1.7 1.7 0 010 2.404l-4.243 4.242a1.7 1.7 0 01-2.404 0l-2.122-2.121a1.7 1.7 0 010-2.404zm8.446 2.448l2.435 2.391.389 1.997a2 2 0 001.963 1.618h.607l.345.345c.31.31.433.761.325 1.187l-.16.629a.576.576 0 01-.965.264l-6.685-6.685 1.746-1.746z" fill="#626F84"/></svg>