<svg viewBox="0 0 24 24" fill="none" xmlns="http://www.w3.org/2000/svg"><path fill-rule="evenodd" clip-rule="evenodd" d="M12.409 3.559a3 3 0 00-4.243 0L3.923 7.802a3 3 0 000 4.242l2.122 2.121a3 3 0 004.242 0l.333-.332 6.687 6.687a1.876 1.876 0 003.144-.863l.16-.629a2.544 2.544 0 00-.665-2.427l-.344-.345a1.3 1.3 0 00-.92-.38h-.607a.7.7 0 01-.687-.567l-.389-1.997a1.3 1.3 0 00-.365-.68l-2.429-2.384.325-.325a3 3 0 000-4.243L12.409 3.56zm-1.877 4.21a.65.65 0 00-.92-.919L7.255 9.209a.65.65 0 00.919.92l2.359-2.36z" fill="#626F84"/></svg>