<svg viewBox="0 0 28 28" fill="none" xmlns="http://www.w3.org/2000/svg"><rect x=".25" y="4.25" width="27.5" height="19.5" rx="2.75" fill="#fff" stroke="#D6D8DD" stroke-width=".5"/><mask id="a" style="mask-type:alpha" maskUnits="userSpaceOnUse" x="0" y="4" width="28" height="20"><rect x=".25" y="4.25" width="27.5" height="19.5" rx="2.75" fill="#fff" stroke="#fff" stroke-width=".5"/></mask><g mask="url(#a)"><path fill-rule="evenodd" clip-rule="evenodd" d="M14 18.667a4.667 4.667 0 100-9.334 4.667 4.667 0 000 9.334z" fill="#E01B41"/><mask id="b" style="mask-type:alpha" maskUnits="userSpaceOnUse" x="9" y="9" width="10" height="10"><path fill-rule="evenodd" clip-rule="evenodd" d="M14 18.667a4.667 4.667 0 100-9.334 4.667 4.667 0 000 9.334z" fill="#fff"/></mask><g mask="url(#b)"><path fill-rule="evenodd" clip-rule="evenodd" d="M9.333 14.667c1.334 1.25 3.334 2 4.667 0 1.333-2 4-2 4.667 0 .666 2 0 4 0 4H9.333s-1.333-5.25 0-4z" fill="#0E4B9C"/></g><path opacity=".75" fill-rule="evenodd" clip-rule="evenodd" d="M6.173 7.557a.333.333 0 01.455-.122l.578.333c.16.092.214.296.122.455L5.66 11.11a.333.333 0 01-.455.122l-.578-.333a.333.333 0 01-.122-.456l1.667-2.886zm14.621.211a.333.333 0 00-.122.455l1.667 2.887c.092.16.296.214.455.122l.578-.333a.333.333 0 00.122-.456l-1.667-2.886a.333.333 0 00-.455-.122l-.578.333zm-1.732 1a.333.333 0 00-.122.455l1.667 2.887c.092.16.296.214.455.122l.578-.333a.333.333 0 00.122-.456l-1.667-2.886a.333.333 0 00-.455-.122l-.578.333zM4.506 17.557a.333.333 0 01.122-.456l.578-.333a.333.333 0 01.455.122l1.667 2.887a.333.333 0 01-.122.455l-.578.333a.333.333 0 01-.455-.122l-1.667-2.886zM6.36 16.1a.333.333 0 00-.122.456l1.667 2.886c.092.16.296.214.455.122l.578-.333a.333.333 0 00.122-.455L7.393 15.89a.333.333 0 00-.455-.122l-.578.333zm14.247-.211a.333.333 0 01.455-.122l.578.333c.159.092.214.296.122.456l-1.667 2.886a.333.333 0 01-.455.122l-.578-.333a.333.333 0 01-.122-.455l1.667-2.887zm2.187.878a.333.333 0 00-.455.122l-1.667 2.887a.333.333 0 00.122.455l.578.333c.159.092.363.038.455-.122l1.667-2.886a.333.333 0 00-.122-.456l-.578-.333zM8.36 8.435a.333.333 0 00-.455.122l-1.667 2.886a.333.333 0 00.122.456l.578.333c.16.092.363.038.455-.122L9.06 9.223a.333.333 0 00-.122-.455l-.578-.333z" fill="#262626"/></g></svg>