<svg viewBox="0 0 28 28" fill="none" xmlns="http://www.w3.org/2000/svg"><rect y="4" width="28" height="20" rx="3" fill="#fff"/><mask id="a" style="mask-type:alpha" maskUnits="userSpaceOnUse" x="0" y="4" width="28" height="20"><rect y="4" width="28" height="20" rx="3" fill="#fff"/></mask><g mask="url(#a)" fill-rule="evenodd" clip-rule="evenodd"><path d="M0 8h28V4H0v4zM0 24h28v-4H0v4z" fill="#1461B6"/><path d="M0 20h28V8H0v12z" fill="#fff"/><path d="M0 18.667h28V9.333H0v9.334z" fill="#F53846"/><path d="M13.333 14A3.333 3.333 0 1110 10.667l-.786 2.25-2.384.053 1.898 1.443-.687 2.284L10 15.337l1.96 1.36-.688-2.284 1.898-1.443-2.384-.052L10 10.667A3.333 3.333 0 0113.333 14z" fill="#fff"/></g></svg>