<svg viewBox="0 0 28 28" fill="none" xmlns="http://www.w3.org/2000/svg"><rect y="4" width="28" height="20" rx="3" fill="#fff"/><mask id="a" style="mask-type:alpha" maskUnits="userSpaceOnUse" x="0" y="4" width="28" height="20"><rect y="4" width="28" height="20" rx="3" fill="#fff"/></mask><g mask="url(#a)"><path fill="#F22A46" d="M0 4h28v20H0z"/><path fill-rule="evenodd" clip-rule="evenodd" d="M14 17.333a3.333 3.333 0 100-6.666 3.333 3.333 0 000 6.666z" fill="#FFF04D"/><path fill-rule="evenodd" clip-rule="evenodd" d="M12.368 21.15L14 18.713l1.632 2.436.413-2.903 2.527 1.486-.887-2.794 2.922.243-2.011-2.133L21.333 14l-2.737-1.049 2.011-2.133-2.922.243.887-2.794-2.527 1.486-.413-2.902L14 9.286l-1.632-2.435-.413 2.902-2.527-1.486.887 2.794-2.922-.243 2.012 2.133L6.667 14l2.738 1.049-2.012 2.133 2.922-.243-.887 2.794 2.527-1.486.413 2.902zM18.667 14a4.667 4.667 0 11-9.334 0 4.667 4.667 0 019.334 0z" fill="#FFF04D"/></g></svg>