<svg viewBox="0 0 24 24" fill="none" xmlns="http://www.w3.org/2000/svg"><path fill-rule="evenodd" clip-rule="evenodd" d="M13.632 3.652a3.65 3.65 0 00-3.264 0L2.884 7.393a.75.75 0 000 1.342l2.627 1.313-2.627 1.314a.75.75 0 000 1.341l2.628 1.314-2.558 1.279a.75.75 0 000 1.341l7.414 3.707a3.65 3.65 0 003.264 0l7.414-3.707a.75.75 0 000-1.341l-2.558-1.279 2.628-1.314a.75.75 0 000-1.341l-2.627-1.314 2.627-1.313a.75.75 0 000-1.342l-7.484-3.741zM10.95 4.814a2.35 2.35 0 012.102 0l6.5 3.25-6.5 3.25a2.35 2.35 0 01-2.102 0l-6.5-3.25 6.5-3.25zm6.086 5.961l-3.403 1.702a3.65 3.65 0 01-3.264 0l-3.403-1.702-2.515 1.258 6.499 3.25c.662.33 1.44.33 2.102 0l6.5-3.25-2.516-1.258zM4.52 15.967l2.446-1.223 3.403 1.701a3.65 3.65 0 003.264 0l3.403-1.701 2.446 1.223-6.43 3.214a2.35 2.35 0 01-2.102 0l-6.43-3.214z" fill="#626F84"/></svg>