<svg viewBox="0 0 24 24" fill="none" xmlns="http://www.w3.org/2000/svg"><path fill-rule="evenodd" clip-rule="evenodd" d="M18.839 7.993A1.3 1.3 0 0020 6.7V5.3A1.3 1.3 0 0018.7 4H5.3A1.3 1.3 0 004 5.3v1.4A1.3 1.3 0 005.3 8h13.4c.047 0 .093-.002.139-.007zM7.577 9.3a1.311 1.311 0 00-.17-.01H5.3a1.3 1.3 0 00-1.3 1.3v8.11A1.3 1.3 0 005.3 20h2.108a1.3 1.3 0 001.3-1.3v-8.11a1.3 1.3 0 00-1.13-1.29zm11.262-.004a1.314 1.314 0 00-.139-.007h-7.4a1.3 1.3 0 00-1.3 1.3V18.7a1.3 1.3 0 001.3 1.3h7.4a1.3 1.3 0 001.3-1.3v-8.11a1.3 1.3 0 00-1.161-1.294zM5.6 5.3a.3.3 0 00-.3.3v.8a.3.3 0 00.3.3h12.8a.3.3 0 00.3-.3v-.8a.3.3 0 00-.3-.3H5.6zm0 5.29a.3.3 0 00-.3.3v7.51a.3.3 0 00.3.3h1.508a.3.3 0 00.3-.3v-7.51a.3.3 0 00-.3-.3H5.6zm6 0a.3.3 0 00-.3.3v7.51a.3.3 0 00.3.3h6.8a.3.3 0 00.3-.3v-7.51a.3.3 0 00-.3-.3h-6.8z" fill="#626F84"/></svg>