<svg viewBox="0 0 28 28" fill="none" xmlns="http://www.w3.org/2000/svg"><rect x=".25" y="4.25" width="27.5" height="19.5" rx="2.75" fill="#fff" stroke="#D6D8DD" stroke-width=".5"/><mask id="a" style="mask-type:alpha" maskUnits="userSpaceOnUse" x="0" y="4" width="28" height="20"><rect x=".25" y="4.25" width="27.5" height="19.5" rx="2.75" fill="#fff" stroke="#fff" stroke-width=".5"/></mask><g mask="url(#a)"><path fill-rule="evenodd" clip-rule="evenodd" d="M0 10.667h28V4H0v6.667z" fill="#0C33B8"/><path fill-rule="evenodd" clip-rule="evenodd" d="M0 24h28v-6.667H0V24z" fill="#1DB158"/><path fill-rule="evenodd" clip-rule="evenodd" d="M13.333 14l.034-.103c.203-.607 1.063-.607 1.265 0l.035.103 1.181 1.773c.088.132.07.306-.063.395-.293.197-.889.499-1.785.499-.896 0-1.492-.302-1.785-.5-.132-.088-.152-.262-.063-.394L13.333 14z" fill="#262626"/><path d="M15 12.667a1 1 0 11-2 0 1 1 0 012 0z" stroke="#262626" stroke-width=".667"/></g></svg>