<svg viewBox="0 0 28 28" fill="none" xmlns="http://www.w3.org/2000/svg"><rect x=".25" y="4.25" width="27.5" height="19.5" rx="2.75" fill="#fff" stroke="#D6D8DD" stroke-width=".5"/><mask id="a" style="mask-type:alpha" maskUnits="userSpaceOnUse" x="0" y="4" width="28" height="20"><rect x=".25" y="4.25" width="27.5" height="19.5" rx="2.75" fill="#fff" stroke="#fff" stroke-width=".5"/></mask><g mask="url(#a)"><path fill-rule="evenodd" clip-rule="evenodd" d="M28 4H13.333v2.667H28V4zm0 5.333H13.333V12H28V9.333zm-14.667 5.334H28v2.666H13.333v-2.666zM28 20H0v2.667h28V20z" fill="#E1244A"/><path fill="#0C3F8E" d="M0 4h13.333v13.333H0z"/><path fill-rule="evenodd" clip-rule="evenodd" d="M6.667 12.227l-2.351 1.676.867-2.754-2.32-1.718 2.887-.026.917-2.738.917 2.738 2.887.026-2.32 1.718.867 2.754-2.351-1.676z" fill="#fff"/></g></svg>