<svg viewBox="0 0 24 24" fill="none" xmlns="http://www.w3.org/2000/svg"><path fill-rule="evenodd" clip-rule="evenodd" d="M5 7a3 3 0 013-3h8a3 3 0 013 3v5.45c0 .742-.721 1.276-1.464 1.253a6.05 6.05 0 00-.191-.003c-1.634 0-2.93.655-3.888 1.422a1.427 1.427 0 01-.886.327H7.856a1.55 1.55 0 00-1.551 1.596c-.001.032-.002.065 0 .097A1.7 1.7 0 008 18.7h2.933c.277 0 .5.212.56.482.085.386-.175.818-.57.818H8a3 3 0 01-3-3V7zm10.154 2.617c.133 0 .271.012.38.089a.65.65 0 01-.375 1.18H8.84a.65.65 0 01-.375-1.18c.109-.077.247-.089.38-.089h6.308zM8.841 6.994a.65.65 0 100 1.3h6.318a.65.65 0 100-1.3H8.84z" fill="#626F84"/><path fill-rule="evenodd" clip-rule="evenodd" d="M21.545 17.267a1.943 1.943 0 01-.01 2.459C20.716 20.735 19.302 22 17.344 22c-1.961 0-3.374-1.27-4.187-2.28a1.941 1.941 0 01-.011-2.448C13.95 16.263 15.354 15 17.345 15c1.988 0 3.393 1.259 4.2 2.267zM19.35 18.5a2 2 0 11-4 0 2 2 0 014 0z" fill="#626F84"/></svg>