<svg viewBox="0 0 28 28" fill="none" xmlns="http://www.w3.org/2000/svg"><rect y="4" width="28" height="20" rx="3" fill="#fff"/><mask id="a" style="mask-type:alpha" maskUnits="userSpaceOnUse" x="0" y="4" width="28" height="20"><rect y="4" width="28" height="20" rx="3" fill="#fff"/></mask><g mask="url(#a)"><g filter="url(#filter0_d_17_5087)"><path fill-rule="evenodd" clip-rule="evenodd" d="M0 17.333h28v-6.666H0v6.666z" fill="#262626"/></g><g filter="url(#filter1_d_17_5087)"><path fill-rule="evenodd" clip-rule="evenodd" d="M0 24h28v-6.667H0V24z" fill="#34B857"/></g><path fill-rule="evenodd" clip-rule="evenodd" d="M0 10.667h28V4H0v6.667z" fill="#F41F34"/><path fill-rule="evenodd" clip-rule="evenodd" d="M14 16a1.99 1.99 0 001.111-.337 1.667 1.667 0 110-3.326A2 2 0 1014 16zm2-2a.667.667 0 11-1.333 0A.667.667 0 0116 14z" fill="#fff"/></g><defs><filter id="filter0_d_17_5087" x="0" y="10.667" width="28" height="6.667" filterUnits="userSpaceOnUse" color-interpolation-filters="sRGB"><feFlood flood-opacity="0" result="BackgroundImageFix"/><feColorMatrix in="SourceAlpha" values="0 0 0 0 0 0 0 0 0 0 0 0 0 0 0 0 0 0 127 0" result="hardAlpha"/><feOffset/><feColorMatrix values="0 0 0 0 0 0 0 0 0 0 0 0 0 0 0 0 0 0 0.06 0"/><feBlend in2="BackgroundImageFix" result="effect1_dropShadow_17_5087"/><feBlend in="SourceGraphic" in2="effect1_dropShadow_17_5087" result="shape"/></filter><filter id="filter1_d_17_5087" x="0" y="17.333" width="28" height="6.667" filterUnits="userSpaceOnUse" color-interpolation-filters="sRGB"><feFlood flood-opacity="0" result="BackgroundImageFix"/><feColorMatrix in="SourceAlpha" values="0 0 0 0 0 0 0 0 0 0 0 0 0 0 0 0 0 0 127 0" result="hardAlpha"/><feOffset/><feColorMatrix values="0 0 0 0 0 0 0 0 0 0 0 0 0 0 0 0 0 0 0.06 0"/><feBlend in2="BackgroundImageFix" result="effect1_dropShadow_17_5087"/><feBlend in="SourceGraphic" in2="effect1_dropShadow_17_5087" result="shape"/></filter></defs></svg>