<svg viewBox="0 0 24 24" fill="none" xmlns="http://www.w3.org/2000/svg"><path fill-rule="evenodd" clip-rule="evenodd" d="M13.77 3.309a.617.617 0 00-.537.169l-8.472 8.36a.65.65 0 00.33 1.1l3.841.763a1.95 1.95 0 011.537 2.27l-.742 3.999a.617.617 0 001.04.552l8.472-8.36a.65.65 0 00-.33-1.1l-3.841-.764a1.95 1.95 0 01-1.537-2.268l.742-4a.617.617 0 00-.503-.721zm-1.45-.757a1.917 1.917 0 013.232 1.715l-.743 4a.65.65 0 00.512.756l3.842.764c1.534.304 2.103 2.201.99 3.3l-8.472 8.36a1.917 1.917 0 01-3.232-1.714l.742-4a.65.65 0 00-.512-.756l-3.842-.764c-1.534-.305-2.103-2.202-.99-3.3l8.473-8.36z" fill="#626F84"/></svg>