<svg viewBox="0 0 24 24" fill="none" xmlns="http://www.w3.org/2000/svg"><path fill-rule="evenodd" clip-rule="evenodd" d="M6.643 5.906a.65.65 0 01.484.207l2.07 2.225a.65.65 0 01-.951.885l-.917-.985v2.512a.65.65 0 11-1.3 0V8.245l-.852.965a.65.65 0 11-.975-.86l1.962-2.224a.65.65 0 01.479-.22zm4.348.844a.65.65 0 01.65-.65h7.709a.65.65 0 110 1.3h-7.71a.65.65 0 01-.65-.65zm0 5.3a.65.65 0 01.65-.65h7.709a.65.65 0 110 1.3h-7.71a.65.65 0 01-.65-.65zM7.329 15.8v-2.45a.65.65 0 10-1.3 0v2.457l-.917-.986a.65.65 0 10-.952.886l2.07 2.224a.65.65 0 00.963-.012l1.962-2.225a.65.65 0 10-.975-.86l-.851.966zm4.312.9a.65.65 0 100 1.3h7.709a.65.65 0 100-1.3h-7.71z" fill="#626F84"/></svg>