<svg viewBox="0 0 24 24" fill="none" xmlns="http://www.w3.org/2000/svg"><path fill-rule="evenodd" clip-rule="evenodd" d="M3 12a9 9 0 1118 0 9 9 0 01-18 0zm11.645.472a.65.65 0 10.92.919l.682-.683a3.5 3.5 0 10-4.95-4.95l-.682.683a.65.65 0 10.919.92l.683-.683a2.2 2.2 0 013.111 3.11l-.683.684zm-1.202 2.121a.65.65 0 00-.92 0l-.74.74a2.2 2.2 0 11-3.111-3.11l.74-.741a.65.65 0 10-.919-.92l-.74.741a3.5 3.5 0 004.95 4.95l.74-.74a.65.65 0 000-.92zm.163-3.274a.65.65 0 10-.92-.92l-2.284 2.285a.65.65 0 10.92.92l2.284-2.285z" fill="#626F84"/></svg>