<svg viewBox="0 0 24 24" fill="none" xmlns="http://www.w3.org/2000/svg"><path fill-rule="evenodd" clip-rule="evenodd" d="M3.664 4.594a.65.65 0 000 1.3h.272v2.362a.65.65 0 001.3 0V5.244a.65.65 0 00-.65-.65h-.922zM8.668 6.1a.65.65 0 000 1.3H19.35a.65.65 0 100-1.3H8.668zm0 5.3a.65.65 0 100 1.3H19.35a.65.65 0 100-1.3H8.668zm-.65 5.95a.65.65 0 01.65-.65H19.35a.65.65 0 110 1.3H8.668a.65.65 0 01-.65-.65zm-5.044-6.768a.65.65 0 01.65-.65h1.152a1.385 1.385 0 01.952 2.39l-.472.446H5.6a.65.65 0 110 1.3H3.624a.65.65 0 01-.447-1.122l1.657-1.568a.085.085 0 00-.058-.146H3.624a.65.65 0 01-.65-.65zm2.608 4.603h-2.01a.65.65 0 000 1.3h.743l-.16.223a.65.65 0 00.529 1.029h.018a.239.239 0 110 .478h-1.13a.65.65 0 100 1.3h1.13a1.539 1.539 0 00.99-2.718l.418-.582a.65.65 0 00-.528-1.03z" fill="#626F84"/></svg>