<svg viewBox="0 0 24 24" fill="none" xmlns="http://www.w3.org/2000/svg"><path d="M12.657 3.65a.65.65 0 10-1.3 0v3.7a.65.65 0 101.3 0v-3.7zM8.252 9.172a.65.65 0 10.92-.92L6.555 5.636a.65.65 0 00-.919.92l2.616 2.616zM8 12a.65.65 0 01-.65.65h-3.7a.65.65 0 110-1.3h3.7A.65.65 0 018 12zM12.007 16a.65.65 0 01.65.65v3.7a.65.65 0 11-1.3 0v-3.7a.65.65 0 01.65-.65zM9.179 14.829a.65.65 0 010 .919l-2.617 2.616a.65.65 0 01-.919-.92L8.26 14.83a.65.65 0 01.92 0zM21 12a.65.65 0 01-.65.65h-3.7a.65.65 0 110-1.3h3.7A.65.65 0 0121 12zM17.445 18.364a.65.65 0 00.919-.92l-2.616-2.615a.65.65 0 10-.92.919l2.617 2.616z" fill="#626F84"/></svg>