<svg viewBox="0 0 24 24" fill="none" xmlns="http://www.w3.org/2000/svg"><path fill-rule="evenodd" clip-rule="evenodd" d="M12.007 21a9 9 0 100-18 9 9 0 000 18zm.65-5.346a.652.652 0 00-.65-.654.652.652 0 00-.65.654v2.192c0 .361.291.654.65.654.36 0 .65-.293.65-.654v-2.192zM9 12c0 .359-.293.65-.654.65H6.154A.652.652 0 015.5 12c0-.359.293-.65.654-.65h2.192c.361 0 .654.291.654.65zm-.036-2.124a.652.652 0 00.922.003.652.652 0 00-.003-.922l-1.55-1.55a.652.652 0 00-.922-.003.652.652 0 00.003.922l1.55 1.55zm.915 4.245a.652.652 0 01-.003.922l-1.55 1.55a.652.652 0 01-.922.003.652.652 0 01.003-.922l1.55-1.55a.652.652 0 01.922-.003zm2.778-7.967a.652.652 0 00-.65-.654.652.652 0 00-.65.654v2.192c0 .361.291.654.65.654.36 0 .65-.293.65-.654V6.154zM18.5 12c0 .359-.293.65-.654.65h-2.192A.652.652 0 0115 12c0-.359.293-.65.654-.65h2.192c.361 0 .654.291.654.65zm-2.819 4.593a.652.652 0 00.923.003.652.652 0 00-.003-.922l-1.55-1.55a.652.652 0 00-.922-.003.652.652 0 00.003.922l1.55 1.55z" fill="#626F84"/></svg>