<svg viewBox="0 0 24 24" fill="none" xmlns="http://www.w3.org/2000/svg"><path fill-rule="evenodd" clip-rule="evenodd" d="M7.85 10.1a4.15 4.15 0 118.3 0 4.15 4.15 0 01-8.3 0zM12 7.25a2.85 2.85 0 100 5.7 2.85 2.85 0 000-5.7z" fill="#626F84"/><path fill-rule="evenodd" clip-rule="evenodd" d="M11.623 3.13c3.273-.198 6.749 1.71 7.266 5.937.036.298.058.575.061.824.02 1.346-.409 2.709-1.02 3.967-.615 1.264-1.434 2.462-2.243 3.491a30.499 30.499 0 01-2.23 2.522c-.333.338-.67.672-1.026.987a.651.651 0 01-.862 0c.044-.05 0 0 0 0a21.933 21.933 0 01-1.025-.987 30.501 30.501 0 01-2.23-2.522c-.81-1.03-1.628-2.227-2.242-3.49-.613-1.26-1.04-2.622-1.022-3.968.06-4.254 3.302-6.564 6.573-6.761zM12 19.483a29.184 29.184 0 01-2.664-2.937c-.774-.985-1.535-2.103-2.095-3.256-.563-1.157-.906-2.312-.89-3.38.047-3.434 2.61-5.317 5.35-5.482 2.74-.166 5.481 1.393 5.897 4.797.033.266.05.495.052.684.015 1.07-.327 2.223-.89 3.38-.56 1.154-1.321 2.272-2.095 3.257A29.212 29.212 0 0112 19.483z" fill="#626F84"/></svg>