<svg viewBox="0 0 24 24" fill="none" xmlns="http://www.w3.org/2000/svg"><path fill-rule="evenodd" clip-rule="evenodd" d="M11.623 3.13c3.273-.198 6.749 1.71 7.266 5.937.036.298.058.575.061.824.02 1.346-.409 2.709-1.02 3.967-.615 1.264-1.434 2.462-2.243 3.491a30.499 30.499 0 01-3.177 3.439 9.89 9.89 0 01-.077.069l-.002.001a.651.651 0 01-.862 0 10.233 10.233 0 01-.288-.265 30.501 30.501 0 01-2.967-3.244c-.81-1.03-1.628-2.227-2.242-3.49-.613-1.26-1.04-2.622-1.022-3.968.06-4.254 3.302-6.564 6.573-6.761zM7.85 10.1a4.15 4.15 0 118.3 0 4.15 4.15 0 01-8.3 0z" fill="#626F84"/></svg>