<svg viewBox="0 0 24 24" fill="none" xmlns="http://www.w3.org/2000/svg"><path d="M12.65 13.642a.65.65 0 00-1.3 0v1.716a.65.65 0 101.3 0v-1.716z" fill="#626F84"/><path fill-rule="evenodd" clip-rule="evenodd" d="M8.016 7.084V9H8a3 3 0 00-3 3v5a3 3 0 003 3h8a3 3 0 003-3v-5a3 3 0 00-3-3h-.04V7.084a3.972 3.972 0 00-7.944 0zm3.972-2.642a2.642 2.642 0 00-2.642 2.642V9h5.284V7.084a2.642 2.642 0 00-2.642-2.642zM16 10.3H8A1.7 1.7 0 006.3 12v5A1.7 1.7 0 008 18.7h8a1.7 1.7 0 001.7-1.7v-5a1.7 1.7 0 00-1.7-1.7z" fill="#626F84"/></svg>