<svg viewBox="0 0 28 28" fill="none" xmlns="http://www.w3.org/2000/svg"><rect y="4" width="28" height="20" rx="3" fill="#fff"/><mask id="a" style="mask-type:alpha" maskUnits="userSpaceOnUse" x="0" y="4" width="28" height="20"><rect y="4" width="28" height="20" rx="3" fill="#fff"/></mask><g mask="url(#a)" fill-rule="evenodd" clip-rule="evenodd"><path d="M0 24h28V4H0v20z" fill="#079D7B"/><path d="M15.885 12.667c0 .292-.021.575-.061.844.102-.031.206-.061.312-.09 1.779-.476 3.366-.319 3.545.352.163.606-.88 1.423-2.395 1.927-.268-.794-1.637-1.033-3.286-1.033-1.65 0-3.021.24-3.287 1.036-1.494-.505-2.518-1.314-2.357-1.915.18-.67 1.767-.828 3.545-.351.093.025.185.051.276.079a5.795 5.795 0 01-.062-.85c0-1.84.844-3.333 1.885-3.333s1.885 1.493 1.885 3.334zM10.667 16h1.166a8.758 8.758 0 01-.564-.13c.215.006.48.024.782.045.548.038 1.221.085 1.949.085s1.4-.047 1.949-.085c.291-.02.547-.037.757-.044a8.64 8.64 0 01-.582.129h3.21a6.127 6.127 0 01-.631 1.333H9.297A6.128 6.128 0 018.667 16h2zM14 20c1.347 0 2.584-.5 3.555-1.333h-7.11A5.436 5.436 0 0014 20z" fill="#fff"/><path d="M14 8a.667.667 0 100-1.333A.667.667 0 0014 8zm-5.333 3.333a.667.667 0 100-1.333.667.667 0 000 1.333zM20 10.667a.667.667 0 11-1.333 0 .667.667 0 011.333 0zm-2.667-1.334a.667.667 0 100-1.333.667.667 0 000 1.333zm-6-.666a.667.667 0 11-1.333 0 .667.667 0 011.333 0z" fill="#FCD117"/></g></svg>