<svg viewBox="0 0 40 40" fill="none" xmlns="http://www.w3.org/2000/svg"><rect x="6" y="10" width="28" height="20" rx="2" fill="#F0F2F5"/><path fill-rule="evenodd" clip-rule="evenodd" d="M17.611 24.401h4.753v-8.716H17.61v8.716z" fill="#6C6BBD"/><path fill-rule="evenodd" clip-rule="evenodd" d="M17.923 20c0-1.754.812-3.317 2.077-4.324A5.377 5.377 0 0016.64 14.5c-3.004 0-5.439 2.463-5.439 5.5s2.435 5.5 5.439 5.5c1.269 0 2.436-.44 3.361-1.176A5.513 5.513 0 0117.923 20z" fill="#EB001B"/><path fill-rule="evenodd" clip-rule="evenodd" d="M28.788 20c0 3.038-2.435 5.5-5.439 5.5a5.376 5.376 0 01-3.36-1.176A5.512 5.512 0 0022.064 20a5.513 5.513 0 00-2.077-4.324A5.377 5.377 0 0123.35 14.5c3.004 0 5.44 2.462 5.44 5.5z" fill="#0099DF"/></svg>