<svg viewBox="0 0 24 24" fill="none" xmlns="http://www.w3.org/2000/svg"><path d="M18.74 16.17l-4.187 3.933a3.64 3.64 0 01-2.402.987l.332-.764a3.65 3.65 0 00-.965-4.22l-2.24-1.929a3.65 3.65 0 00-5.176.418l-.31.368-1.505-1.343a3.65 3.65 0 01-.294-5.154l3.472-3.892a3.65 3.65 0 015.152-.295l.477.426-2.928 2.553a2.784 2.784 0 103.662 4.195l.699-.61a.65.65 0 01.886.028l5.328 5.299z" fill="#626F84"/><path d="M19.717 15.308L14.33 9.949a1.95 1.95 0 00-2.659-.085l-.698.61A1.484 1.484 0 119.02 8.238l4.728-4.123a3.5 3.5 0 014.825.382l3.471 3.892a3.5 3.5 0 01-.182 4.848l-2.146 2.07zM10.826 20.88a3.64 3.64 0 01-1.202-.714l-4.861-4.337.334-.398a2.35 2.35 0 013.333-.269l2.24 1.93a2.35 2.35 0 01.621 2.716l-.465 1.072z" fill="#626F84"/></svg>