<svg viewBox="0 0 24 24" fill="none" xmlns="http://www.w3.org/2000/svg"><path fill-rule="evenodd" clip-rule="evenodd" d="M21.734 13.385a3.65 3.65 0 00.2-5.143l-3.462-3.764a3.65 3.65 0 00-5.084-.282l-1.43 1.246-1.305-1.163a3.65 3.65 0 00-5.152.295L2.029 8.466a3.65 3.65 0 00.294 5.154l7.338 6.546a3.65 3.65 0 004.928-.063l6.728-6.318-.006-.006.423-.394zm-12.95-5.18l2.185-1.903L9.79 5.25a2.35 2.35 0 00-3.318.19L3 9.332a2.35 2.35 0 00.19 3.318l1.536 1.37a3.651 3.651 0 014.607.129l2.228 1.92a3.65 3.65 0 011.163 3.636c.354-.098.69-.282.976-.55l4.16-3.906-3.944-3.912a.65.65 0 00-.87-.041l-.976.8a2.547 2.547 0 01-3.286-3.89zM11.37 19.68a2.35 2.35 0 00-.66-2.626l-2.228-1.919a2.35 2.35 0 00-2.76-.224l4.803 4.285c.252.225.54.387.845.484zm9.606-10.557a2.35 2.35 0 01-.129 3.311l-2.054 1.912-3.963-3.93a1.95 1.95 0 00-2.61-.125l-.976.8a1.246 1.246 0 01-1.608-1.904l4.605-4.01a2.35 2.35 0 013.273.182l3.462 3.764z" fill="#626F84"/></svg>