<svg viewBox="0 0 28 28" fill="none" xmlns="http://www.w3.org/2000/svg"><rect y="4" width="28" height="20" rx="3" fill="#fff"/><mask id="a" style="mask-type:alpha" maskUnits="userSpaceOnUse" x="0" y="4" width="28" height="20"><rect y="4" width="28" height="20" rx="3" fill="#fff"/></mask><g mask="url(#a)"><path fill-rule="evenodd" clip-rule="evenodd" d="M28 4H13.333v1.333H28V4zm0 2.667H13.333V8H28V6.667zM13.333 9.333H28v1.334H13.333V9.333zM28 12H13.333v1.333H28V12zM0 14.667h28V16H0v-1.333zm28 2.666H0v1.334h28v-1.334zM0 20h28v1.333H0V20zm28 2.667H0V24h28v-1.333z" fill="#E1244A"/><path fill="#0C3F8E" d="M0 4h16v10.667H0z"/><path fill-rule="evenodd" clip-rule="evenodd" d="M6.667 13.333c.945 0 1.813-.327 2.498-.876a3.333 3.333 0 110-6.248 4 4 0 10-2.498 7.124zm2.843-1.597l1.157-1.31 1.157 1.31-.303-1.721 1.745-.088-1.533-.837 1.019-1.42-1.61.678-.475-1.681-.475 1.681-1.61-.677L9.6 9.09l-1.534.837 1.745.088-.302 1.72z" fill="#FFD34F"/></g></svg>