<svg viewBox="0 0 24 24" fill="none" xmlns="http://www.w3.org/2000/svg"><path d="M10.5 3.5a1.5 1.5 0 013 0v1a1.5 1.5 0 01-3 0v-1zM7.768 9.653c.376-.794.904-1.486 1.589-1.881.371-.24 1.124-.499 2.643-.499.933 0 1.577.098 2.02.229 1.015.259 1.76 1.118 2.249 2.151.595 1.258.9 2.938.9 4.73a.65.65 0 11-1.3 0c0-1.666-.287-3.141-.775-4.174-.1-.213-.206-.4-.315-.564l-.79 5.266a.332.332 0 01-.044.123v6.333a.65.65 0 11-1.3 0v-6.172h-1.29v6.172a.65.65 0 11-1.3 0v-6.35a.334.334 0 01-.034-.105L9.23 9.689a4.523 4.523 0 00-.286.52c-.489 1.033-.777 2.508-.777 4.174a.65.65 0 11-1.3 0c0-1.792.307-3.472.901-4.73z" fill="#626F84"/></svg>