<svg viewBox="0 0 24 24" fill="none" xmlns="http://www.w3.org/2000/svg"><path d="M10.5 3.5a1.5 1.5 0 013 0v1a1.5 1.5 0 01-3 0v-1z" fill="#626F84"/><path fill-rule="evenodd" clip-rule="evenodd" d="M8.864 10.263a3.99 3.99 0 01.357-.633l.786 5.193v6.545a.65.65 0 001.3 0v-6.173h1.394v6.173a.65.65 0 001.3 0v-6.534l.779-5.194c.127.182.243.39.35.623.462 1.01.697 2.437.697 4.12a.65.65 0 101.3 0c0-1.775-.243-3.411-.814-4.66-.385-.842-.937-1.538-1.676-1.955a2.338 2.338 0 00-.568-.252 3.37 3.37 0 00-.612-.14A9.066 9.066 0 0012 7.273c-.584 0-1.054.038-1.434.1a3.359 3.359 0 00-1.151.363c-.769.414-1.338 1.123-1.733 1.987-.571 1.249-.815 2.885-.815 4.66a.65.65 0 101.3 0c0-1.683.235-3.11.697-4.12zm4.285-1.62a8.152 8.152 0 00-1.15-.07 8.094 8.094 0 00-1.233.085l-.017.001c-.14.024-.256.05-.349.075l.782 5.161h1.645l.774-5.161a3.513 3.513 0 00-.452-.09z" fill="#626F84"/></svg>