<svg viewBox="0 0 28 28" fill="none" xmlns="http://www.w3.org/2000/svg"><rect x=".25" y="4.25" width="27.5" height="19.5" rx="2.75" fill="#fff" stroke="#D6D8DD" stroke-width=".5"/><mask id="a" style="mask-type:alpha" maskUnits="userSpaceOnUse" x="0" y="4" width="28" height="20"><rect x=".25" y="4.25" width="27.5" height="19.5" rx="2.75" fill="#fff" stroke="#fff" stroke-width=".5"/></mask><g mask="url(#a)"><path fill-rule="evenodd" clip-rule="evenodd" d="M14.667 24H28V4H14.667v20z" fill="#DE233C"/><mask id="b" maskUnits="userSpaceOnUse" x="1.667" y="5.667" width="6" height="6" fill="#000"><path fill="#fff" d="M1.667 5.667h6v6h-6z"/><path fill-rule="evenodd" clip-rule="evenodd" d="M5.333 6.667H4V8H2.667v1.333H4v1.334h1.333V9.333h1.334V8H5.333V6.667z"/></mask><path fill-rule="evenodd" clip-rule="evenodd" d="M5.333 6.667H4V8H2.667v1.333H4v1.334h1.333V9.333h1.334V8H5.333V6.667z" fill="#CCCCCD"/><path d="M4 6.667V6h-.667v.667H4zm1.333 0H6V6h-.667v.667zM4 8v.667h.667V8H4zM2.667 8v-.667H2V8h.667zm0 1.333H2V10h.667v-.667zm1.333 0h.667v-.666H4v.666zm0 1.334h-.667v.666H4v-.666zm1.333 0v.666H6v-.666h-.667zm0-1.334v-.666h-.666v.666h.666zm1.334 0V10h.666v-.667h-.666zm0-1.333h.666v-.667h-.666V8zM5.333 8h-.666v.667h.666V8zM4 7.333h1.333V6H4v1.333zM4.667 8V6.667H3.333V8h1.334zm-2 .667H4V7.333H2.667v1.334zm.666.666V8H2v1.333h1.333zM4 8.667H2.667V10H4V8.667zm.667 2V9.333H3.333v1.334h1.334zM5.333 10H4v1.333h1.333V10zm-.666-.667v1.334H6V9.333H4.667zm2-.666H5.333V10h1.334V8.667zM6 8v1.333h1.333V8H6zm-.667.667h1.334V7.333H5.333v1.334zm-.666-2V8H6V6.667H4.667z" fill="#7B716A" fill-opacity=".66" mask="url(#b)"/><path fill-rule="evenodd" clip-rule="evenodd" d="M4.667 9.333a.667.667 0 100-1.333.667.667 0 000 1.333z" fill="#7B716A"/></g></svg>