<svg viewBox="0 0 28 28" fill="none" xmlns="http://www.w3.org/2000/svg"><rect x=".25" y="4.25" width="27.5" height="19.5" rx="2.75" stroke="#F5F5F5" stroke-width=".5"/><mask id="a" style="mask-type:alpha" maskUnits="userSpaceOnUse" x="0" y="4" width="28" height="20"><rect y="4" width="28" height="20" rx="3" fill="#103A8E"/></mask><g mask="url(#a)"><path fill-rule="evenodd" clip-rule="evenodd" d="M28 4H0v19.242l28-12.774V4zm0 9.75L0 23.621V24h28V13.75z" fill="#103A8E"/><path d="M7.015 4.91l.23 4.3.962-2.705-.519 2.824 1.63-2.363-1.232 2.593 2.186-1.861-1.861 2.185 2.593-1.231-2.363 1.63 2.823-.52-2.705.963 4.302.23-4.302.23 2.705.962-2.823-.52 2.363 1.63-2.593-1.231 1.861 2.185-2.186-1.86 1.232 2.592-1.63-2.363.52 2.824-.963-2.705L7.015 17l-.23-4.301-.962 2.705.519-2.824-1.63 2.364 1.232-2.594-2.186 1.861 1.861-2.185-2.593 1.232 2.364-1.63-2.824.519 2.705-.963-4.301-.23 4.3-.23-2.704-.962 2.824.52-2.364-1.63L5.62 9.883 3.76 7.697l2.185 1.86-1.232-2.592 1.63 2.363-.519-2.824.962 2.705.23-4.3z" fill="#fff"/><path d="M28.879 6.455L0 23.09v.151l28.879-13V6.455z" fill="#D07A2C"/><path d="M28 10.5L.707 22.926l.168.195.16.133L28 14.5v-4z" fill="#fff"/></g></svg>