<svg viewBox="0 0 24 24" fill="none" xmlns="http://www.w3.org/2000/svg"><path fill-rule="evenodd" clip-rule="evenodd" d="M11.35 14.22v5.48h-3.7a.65.65 0 100 1.3h8.7a.65.65 0 000-1.3h-3.7v-5.476l7.573-9.092C20.93 4.286 20.327 3 19.225 3H4.774c-1.102 0-1.704 1.286-.998 2.132 2.523 3.03 5.048 6.06 7.573 9.088zm.652-1.253L9.155 9.555c.208.025.426.04.656.04 1.371 0 2.356-.495 3.15-.724.637-.185 1.355-.293 2.47-.02L12 12.966zm4.341-5.21c-1.667-.527-2.766-.418-3.744-.135-1.061.307-1.662.672-2.788.672-1.475 0-2.31-.756-2.563-1.027L4.776 4.3h14.448l-2.88 3.458z" fill="#626F84"/></svg>