<svg viewBox="0 0 28 20" fill="none" xmlns="http://www.w3.org/2000/svg"><rect width="28" height="20" rx="2" fill="#F0F2F5"/><path fill-rule="evenodd" clip-rule="evenodd" d="M11.611 14.401h4.753V5.685H11.61v8.716z" fill="#FF5F00"/><path fill-rule="evenodd" clip-rule="evenodd" d="M11.923 10c0-1.754.812-3.317 2.077-4.324A5.377 5.377 0 0010.64 4.5C7.635 4.5 5.2 6.963 5.2 10s2.435 5.5 5.439 5.5c1.269 0 2.436-.44 3.361-1.176A5.513 5.513 0 0111.923 10z" fill="#EB001B"/><path fill-rule="evenodd" clip-rule="evenodd" d="M22.788 10c0 3.038-2.435 5.5-5.439 5.5a5.376 5.376 0 01-3.36-1.176A5.512 5.512 0 0016.064 10a5.513 5.513 0 00-2.077-4.324A5.377 5.377 0 0117.35 4.5c3.004 0 5.44 2.462 5.44 5.5z" fill="#F79E1B"/></svg>