<svg viewBox="0 0 24 24" fill="none" xmlns="http://www.w3.org/2000/svg"><path fill-rule="evenodd" clip-rule="evenodd" d="M12.259 5.97a.3.3 0 00-.518 0L10.73 7.697l-1.956.43a.3.3 0 00-.16.492l1.33 1.496-.196 1.993a.3.3 0 00.419.304L12 11.61l1.834.802a.3.3 0 00.42-.304l-.197-1.993 1.33-1.496a.3.3 0 00-.16-.493l-1.956-.43L12.26 5.97zm-.696 2.875L12 8.099l.437.746.845.185-.574.647.084.86-.792-.346-.792.346.084-.86-.574-.647.845-.185z" fill="#626F84"/><path fill-rule="evenodd" clip-rule="evenodd" d="M18.5 9.5a6.47 6.47 0 01-.972 3.421l2.407 5.915a.65.65 0 01-.742.88l-3.153-.695-1.717 2.674a.65.65 0 01-1.149-.107l-1.178-2.894-1.178 2.894a.65.65 0 01-1.153.1l-1.698-2.704-3.162.73a.65.65 0 01-.749-.878l2.411-5.923A6.5 6.5 0 1118.5 9.5zm-1.3 0a5.2 5.2 0 11-10.4 0 5.2 5.2 0 0110.4 0zm-4.068 6.402a6.484 6.484 0 003.469-1.81l1.664 4.088-2.387-.525a.65.65 0 00-.687.283l-1.285 2-1.208-2.968.434-1.068zm-5.739-1.816l-1.66 4.08 2.392-.553a.65.65 0 01.697.288l1.27 2.023 1.6-3.931a6.479 6.479 0 01-4.299-1.907z" fill="#626F84"/></svg>