<svg viewBox="0 0 24 24" fill="none" xmlns="http://www.w3.org/2000/svg"><path fill-rule="evenodd" clip-rule="evenodd" d="M12 16a6.5 6.5 0 100-13 6.5 6.5 0 000 13zm1.271-8.303L12.26 5.97a.3.3 0 00-.518 0L10.73 7.697l-1.956.43a.3.3 0 00-.16.491l1.33 1.497-.196 1.993a.3.3 0 00.419.304L12 11.61l1.834.802a.3.3 0 00.42-.304l-.197-1.993 1.33-1.497a.3.3 0 00-.16-.492l-1.956-.43z" fill="#626F84"/><path d="M6.699 15.222c-.393-.364-1.064-.265-1.266.231l-1.377 3.383a.65.65 0 00.749.879l3.162-.731 1.698 2.705a.65.65 0 001.153-.1l1.338-3.289c.191-.47-.18-.984-.686-1.018a7.77 7.77 0 01-4.771-2.06zM12.698 20.418l.476 1.17a.65.65 0 001.149.107l1.717-2.673 3.153.694a.65.65 0 00.742-.88l-1.374-3.377c-.202-.496-.872-.596-1.265-.232a7.79 7.79 0 01-3.063 1.749c-.166.05-.266.323-.457.794l-1.078 2.648z" fill="#626F84"/></svg>