<svg viewBox="0 0 24 24" fill="none" xmlns="http://www.w3.org/2000/svg"><path d="M7.02 12c0-.55.448-1 1-1s1 .45 1 1-.448 1-1 1-1-.45-1-1z" fill="#626F84"/><path fill-rule="evenodd" clip-rule="evenodd" d="M11.763 8.006h1.118a3.444 3.444 0 003.403-2.918 1.279 1.279 0 011.264-1.084H18.7a1.3 1.3 0 011.3 1.3v13.392a1.3 1.3 0 01-1.3 1.3h-1.158a1.274 1.274 0 01-1.258-1.078 3.429 3.429 0 00-3.389-2.903H11.77v2.692a2.293 2.293 0 01-4.546.426L6.63 15.98A3 3 0 014 13.004v-2a3 3 0 013-3h4.763v.002zm6.937 10.69h-1.135a4.729 4.729 0 00-4.67-3.981h-1.121v-5.41h1.107a4.744 4.744 0 004.685-4.001H18.7v13.392zm-8.237-3.993H6.959a1.7 1.7 0 01-1.659-1.7v-2a1.7 1.7 0 011.7-1.7h3.463v5.4zm-2.506 1.3l.545 2.889a.993.993 0 001.967-.185v-2.703H7.957z" fill="#626F84"/></svg>