<svg viewBox="0 0 24 24" fill="none" xmlns="http://www.w3.org/2000/svg"><path d="M13.712 16.113a3.43 3.43 0 012.572 2.805c.096.62.63 1.078 1.258 1.078H18.7a1.3 1.3 0 001.3-1.3V5.304a1.3 1.3 0 00-1.3-1.3h-1.152c-.631 0-1.168.46-1.264 1.084a3.445 3.445 0 01-2.575 2.817c-.362.09-.659.39-.659.763v6.68c0 .375.298.676.662.765z" fill="#626F84"/><path fill-rule="evenodd" clip-rule="evenodd" d="M4 13.004a3 3 0 002.63 2.977v.003h4.43a.7.7 0 00.7-.7v-6.58a.7.7 0 00-.7-.7H7a3 3 0 00-3 3v2zM7.475 12c0-.55.448-1 1-1s1 .45 1 1-.448 1-1 1-1-.45-1-1z" fill="#626F84"/><path d="M11.76 18.707v-.723a.7.7 0 00-.7-.7H8.662a.7.7 0 00-.688.83l.192 1.019C8.371 20.216 9.087 21 10.19 21c1.266 0 1.57-1.026 1.57-2.293z" fill="#626F84"/></svg>