<svg viewBox="0 0 23 11" fill="none" xmlns="http://www.w3.org/2000/svg"><path fill-rule="evenodd" clip-rule="evenodd" d="M17.66.984L17.004 0l-.656.984a1.25 1.25 0 00-1.672.466l-1.354-.271.284 1.418a1.25 1.25 0 00-.622 1.746L12 4.999l.987.657a1.25 1.25 0 00.484 1.685L13.179 8.8l1.47-.294a1.25 1.25 0 001.7.515l.655.984.656-.984a1.25 1.25 0 001.705-.524l1.419.284-.284-1.418a1.25 1.25 0 00.52-1.708L22.005 5l-.98-.654a1.25 1.25 0 00-.602-1.74l.28-1.41-1.36.272A1.25 1.25 0 0017.66.984zm-.705 2.361c-.035.019-.06.081-.11.206l-.31.777a.256.256 0 01-.035.07.107.107 0 01-.037.028c-.017.008-.035.01-.073.013l-.8.069c-.13.011-.194.017-.222.046a.118.118 0 00-.03.099c.007.04.056.085.155.174l.605.546c.03.026.044.04.053.056.008.014.013.03.015.047a.266.266 0 01-.012.078l-.184.816c-.03.132-.045.198-.027.235a.108.108 0 00.079.06c.039.008.094-.027.204-.098l.69-.438c.031-.02.047-.03.065-.035a.102.102 0 01.046 0c.017.004.033.015.065.035l.69.438c.11.07.165.106.204.099a.108.108 0 00.078-.06c.018-.038.003-.104-.027-.236l-.184-.816c-.008-.04-.013-.06-.011-.078a.118.118 0 01.014-.047.246.246 0 01.053-.056l.606-.546c.098-.089.148-.133.154-.174a.117.117 0 00-.03-.099c-.028-.03-.092-.035-.222-.046l-.8-.07c-.037-.002-.056-.004-.072-.012a.107.107 0 01-.038-.028c-.012-.014-.019-.033-.034-.07l-.311-.777c-.05-.125-.075-.187-.11-.206a.102.102 0 00-.097 0z" fill="#fff"/></svg>