<svg viewBox="0 0 28 20" fill="none" xmlns="http://www.w3.org/2000/svg"><rect width="28" height="20" rx="2" fill="#F0F2F5"/><path d="M11.672 8.252a1.75 1.75 0 11-3.499 0 1.75 1.75 0 013.5 0z" fill="url(#paint0_linear_17_7519)"/><path d="M18.67 10.002a4.665 4.665 0 11-9.33 0 4.665 4.665 0 019.33 0z" fill="url(#paint1_linear_17_7519)"/><path d="M11.672 11.752a1.75 1.75 0 11-3.499 0 1.75 1.75 0 013.5 0z" fill="url(#paint2_linear_17_7519)"/><path d="M19.837 8.252a1.75 1.75 0 11-3.5 0 1.75 1.75 0 013.5 0z" fill="url(#paint3_linear_17_7519)"/><path d="M19.837 11.752a1.75 1.75 0 11-3.499 0 1.75 1.75 0 013.5 0z" fill="url(#paint4_linear_17_7519)"/><path d="M14.005 5.92a1.75 1.75 0 11-3.499 0 1.75 1.75 0 013.5 0z" fill="url(#paint5_linear_17_7519)"/><path d="M14.005 14.084a1.75 1.75 0 11-3.499 0 1.75 1.75 0 013.5 0z" fill="url(#paint6_linear_17_7519)"/><path d="M17.504 5.92a1.75 1.75 0 11-3.499 0 1.75 1.75 0 013.5 0z" fill="url(#paint7_linear_17_7519)"/><path d="M17.504 14.084a1.75 1.75 0 11-3.499 0 1.75 1.75 0 013.5 0z" fill="url(#paint8_linear_17_7519)"/><path d="M7.004 9.997l3.5-2.333v4.666l-3.5-2.333z" fill="url(#paint9_linear_17_7519)"/><path d="M21 9.997l-3.499-2.333v4.666l3.5-2.333z" fill="url(#paint10_linear_17_7519)"/><path d="M14.005 17l2.333-3.499h-4.666l2.333 3.5z" fill="url(#paint11_linear_17_7519)"/><path d="M14.005 3.004l2.333 3.499h-4.666l2.333-3.5z" fill="url(#paint12_linear_17_7519)"/><path d="M8.853 4.653l4.124.825-3.299 3.3-.825-4.125z" fill="url(#paint13_linear_17_7519)"/><path d="M8.653 15.314l.825-4.123 3.3 3.299-4.125.824z" fill="url(#paint14_linear_17_7519)"/><path d="M19.18 4.676L18.355 8.8l-3.3-3.3 4.125-.824z" fill="url(#paint15_linear_17_7519)"/><path d="M19.292 15.287l-4.123-.824 3.299-3.3.824 4.124z" fill="url(#paint16_linear_17_7519)"/><path d="M13.814 8.262c.06-.15.09-.224.132-.246.036-.02.08-.02.116 0 .042.022.072.097.132.246l.373.933a.308.308 0 00.04.083.129.129 0 00.046.034c.02.009.042.01.087.015l.959.083c.155.013.232.02.266.056.029.03.042.074.036.117-.008.05-.067.103-.185.21l-.727.654a.296.296 0 00-.063.067.142.142 0 00-.017.056.322.322 0 00.014.094l.22.978c.036.158.054.238.032.282a.13.13 0 01-.094.073c-.046.008-.112-.034-.244-.118l-.827-.525a.279.279 0 00-.078-.042.12.12 0 00-.056 0 .277.277 0 00-.078.042l-.827.525c-.132.084-.198.126-.245.118a.13.13 0 01-.094-.073c-.021-.044-.003-.124.033-.282l.22-.978A.322.322 0 0013 10.57a.14.14 0 00-.018-.056.294.294 0 00-.063-.067l-.726-.654c-.118-.107-.178-.16-.185-.21a.141.141 0 01.036-.117c.033-.036.11-.043.266-.056l.959-.083c.045-.004.068-.006.087-.015a.128.128 0 00.045-.034.308.308 0 00.04-.083l.374-.933z" fill="#fff"/><defs><linearGradient id="paint0_linear_17_7519" x1="14.002" y1="3.004" x2="14.002" y2="17" gradientUnits="userSpaceOnUse"><stop offset=".276" stop-color="#BB9026"/><stop offset=".661" stop-color="#C39931"/><stop offset="1" stop-color="#D0A742"/></linearGradient><linearGradient id="paint1_linear_17_7519" x1="14.002" y1="3.004" x2="14.002" y2="17" gradientUnits="userSpaceOnUse"><stop offset=".276" stop-color="#BB9026"/><stop offset=".661" stop-color="#C39931"/><stop offset="1" stop-color="#D0A742"/></linearGradient><linearGradient id="paint2_linear_17_7519" x1="14.002" y1="3.004" x2="14.002" y2="17" gradientUnits="userSpaceOnUse"><stop offset=".276" stop-color="#BB9026"/><stop offset=".661" stop-color="#C39931"/><stop offset="1" stop-color="#D0A742"/></linearGradient><linearGradient id="paint3_linear_17_7519" x1="14.002" y1="3.004" x2="14.002" y2="17" gradientUnits="userSpaceOnUse"><stop offset=".276" stop-color="#BB9026"/><stop offset=".661" stop-color="#C39931"/><stop offset="1" stop-color="#D0A742"/></linearGradient><linearGradient id="paint4_linear_17_7519" x1="14.002" y1="3.004" x2="14.002" y2="17" gradientUnits="userSpaceOnUse"><stop offset=".276" stop-color="#BB9026"/><stop offset=".661" stop-color="#C39931"/><stop offset="1" stop-color="#D0A742"/></linearGradient><linearGradient id="paint5_linear_17_7519" x1="14.002" y1="3.004" x2="14.002" y2="17" gradientUnits="userSpaceOnUse"><stop offset=".276" stop-color="#BB9026"/><stop offset=".661" stop-color="#C39931"/><stop offset="1" stop-color="#D0A742"/></linearGradient><linearGradient id="paint6_linear_17_7519" x1="14.002" y1="3.004" x2="14.002" y2="17" gradientUnits="userSpaceOnUse"><stop offset=".276" stop-color="#BB9026"/><stop offset=".661" stop-color="#C39931"/><stop offset="1" stop-color="#D0A742"/></linearGradient><linearGradient id="paint7_linear_17_7519" x1="14.002" y1="3.004" x2="14.002" y2="17" gradientUnits="userSpaceOnUse"><stop offset=".276" stop-color="#BB9026"/><stop offset=".661" stop-color="#C39931"/><stop offset="1" stop-color="#D0A742"/></linearGradient><linearGradient id="paint8_linear_17_7519" x1="14.002" y1="3.004" x2="14.002" y2="17" gradientUnits="userSpaceOnUse"><stop offset=".276" stop-color="#BB9026"/><stop offset=".661" stop-color="#C39931"/><stop offset="1" stop-color="#D0A742"/></linearGradient><linearGradient id="paint9_linear_17_7519" x1="14.002" y1="3.004" x2="14.002" y2="17" gradientUnits="userSpaceOnUse"><stop offset=".276" stop-color="#BB9026"/><stop offset=".661" stop-color="#C39931"/><stop offset="1" stop-color="#D0A742"/></linearGradient><linearGradient id="paint10_linear_17_7519" x1="14.002" y1="3.004" x2="14.002" y2="17" gradientUnits="userSpaceOnUse"><stop offset=".276" stop-color="#BB9026"/><stop offset=".661" stop-color="#C39931"/><stop offset="1" stop-color="#D0A742"/></linearGradient><linearGradient id="paint11_linear_17_7519" x1="14.002" y1="3.004" x2="14.002" y2="17" gradientUnits="userSpaceOnUse"><stop offset=".276" stop-color="#BB9026"/><stop offset=".661" stop-color="#C39931"/><stop offset="1" stop-color="#D0A742"/></linearGradient><linearGradient id="paint12_linear_17_7519" x1="14.002" y1="3.004" x2="14.002" y2="17" gradientUnits="userSpaceOnUse"><stop offset=".276" stop-color="#BB9026"/><stop offset=".661" stop-color="#C39931"/><stop offset="1" stop-color="#D0A742"/></linearGradient><linearGradient id="paint13_linear_17_7519" x1="14.002" y1="3.004" x2="14.002" y2="17" gradientUnits="userSpaceOnUse"><stop offset=".276" stop-color="#BB9026"/><stop offset=".661" stop-color="#C39931"/><stop offset="1" stop-color="#D0A742"/></linearGradient><linearGradient id="paint14_linear_17_7519" x1="14.002" y1="3.004" x2="14.002" y2="17" gradientUnits="userSpaceOnUse"><stop offset=".276" stop-color="#BB9026"/><stop offset=".661" stop-color="#C39931"/><stop offset="1" stop-color="#D0A742"/></linearGradient><linearGradient id="paint15_linear_17_7519" x1="14.002" y1="3.004" x2="14.002" y2="17" gradientUnits="userSpaceOnUse"><stop offset=".276" stop-color="#BB9026"/><stop offset=".661" stop-color="#C39931"/><stop offset="1" stop-color="#D0A742"/></linearGradient><linearGradient id="paint16_linear_17_7519" x1="14.002" y1="3.004" x2="14.002" y2="17" gradientUnits="userSpaceOnUse"><stop offset=".276" stop-color="#BB9026"/><stop offset=".661" stop-color="#C39931"/><stop offset="1" stop-color="#D0A742"/></linearGradient></defs></svg>