<svg viewBox="0 0 23 11" fill="none" xmlns="http://www.w3.org/2000/svg"><path d="M15.337 3.752a1.25 1.25 0 11-2.501 0 1.25 1.25 0 012.5 0z" fill="#29313D"/><path d="M20.339 5.002a3.335 3.335 0 11-6.67 0 3.335 3.335 0 016.67 0z" fill="#29313D"/><path d="M15.337 6.253a1.25 1.25 0 11-2.501 0 1.25 1.25 0 012.5 0zM21.173 3.752a1.25 1.25 0 11-2.501 0 1.25 1.25 0 012.5 0z" fill="#29313D"/><path d="M21.173 6.253a1.25 1.25 0 11-2.501 0 1.25 1.25 0 012.5 0zM17.004 2.084a1.25 1.25 0 11-2.5 0 1.25 1.25 0 012.5 0zM17.004 7.92a1.25 1.25 0 11-2.5 0 1.25 1.25 0 012.5 0zM19.505 2.084a1.25 1.25 0 11-2.5 0 1.25 1.25 0 012.5 0z" fill="#29313D"/><path d="M19.505 7.92a1.25 1.25 0 11-2.5 0 1.25 1.25 0 012.5 0zM12 4.999l2.501-1.668v3.335L12 4.999zM22.004 4.999l-2.5-1.668v3.335l2.5-1.667z" fill="#29313D"/><path d="M17.004 10.004l1.668-2.5h-3.335l1.667 2.5zM17.004 0l1.668 2.501h-3.335L17.004 0z" fill="#29313D"/><path d="M13.322 1.179l2.948.59-2.358 2.358-.59-2.948zM13.179 8.8l.59-2.948 2.358 2.358-2.948.59zM20.703 1.195l-.59 2.948-2.358-2.358 2.948-.59zM20.784 8.78l-2.948-.59 2.358-2.358.59 2.948z" fill="#29313D"/><path d="M16.846 3.55c.05-.123.074-.186.11-.204a.102.102 0 01.096 0c.035.018.06.08.11.205l.311.778c.015.037.023.055.034.069.01.012.023.022.038.029.016.007.035.009.073.012l.8.07c.129.01.194.016.221.046a.118.118 0 01.03.098c-.006.041-.055.086-.154.175l-.606.545a.246.246 0 00-.052.056.12.12 0 00-.015.047c-.002.019.003.039.012.078l.184.816c.03.132.044.198.026.235a.108.108 0 01-.078.061c-.039.007-.094-.028-.204-.098l-.69-.439a.232.232 0 00-.065-.034.102.102 0 00-.046 0 .235.235 0 00-.066.034l-.689.439c-.11.07-.165.105-.204.098a.108.108 0 01-.079-.06c-.017-.038-.002-.104.027-.236l.184-.816a.266.266 0 00.012-.078.119.119 0 00-.015-.047.25.25 0 00-.052-.056l-.606-.545c-.099-.09-.148-.134-.155-.175a.118.118 0 01.03-.098c.028-.03.093-.036.222-.047l.8-.069c.038-.003.057-.005.073-.012a.107.107 0 00.037-.029.256.256 0 00.034-.07l.312-.777z" fill="#fff"/></svg>