<svg viewBox="0 0 40 40" fill="none" xmlns="http://www.w3.org/2000/svg"><rect x="6" y="10" width="28" height="20" rx="2" fill="#F0F2F5"/><path d="M17.672 18.253a1.75 1.75 0 11-3.499 0 1.75 1.75 0 013.5 0z" fill="url(#paint0_linear_17_7523)"/><path d="M24.67 20.002a4.665 4.665 0 11-9.33 0 4.665 4.665 0 019.33 0z" fill="url(#paint1_linear_17_7523)"/><path d="M17.672 21.752a1.75 1.75 0 11-3.499 0 1.75 1.75 0 013.5 0z" fill="url(#paint2_linear_17_7523)"/><path d="M25.837 18.253a1.75 1.75 0 11-3.499 0 1.75 1.75 0 013.5 0z" fill="url(#paint3_linear_17_7523)"/><path d="M25.837 21.752a1.75 1.75 0 11-3.499 0 1.75 1.75 0 013.5 0z" fill="url(#paint4_linear_17_7523)"/><path d="M20.005 15.92a1.75 1.75 0 11-3.499 0 1.75 1.75 0 013.5 0z" fill="url(#paint5_linear_17_7523)"/><path d="M20.005 24.084a1.75 1.75 0 11-3.499 0 1.75 1.75 0 013.5 0z" fill="url(#paint6_linear_17_7523)"/><path d="M23.504 15.92a1.75 1.75 0 11-3.499 0 1.75 1.75 0 013.5 0z" fill="url(#paint7_linear_17_7523)"/><path d="M23.504 24.084a1.75 1.75 0 11-3.499 0 1.75 1.75 0 013.5 0z" fill="url(#paint8_linear_17_7523)"/><path d="M13.004 19.997l3.5-2.333v4.666l-3.5-2.333z" fill="url(#paint9_linear_17_7523)"/><path d="M27 19.997l-3.499-2.333v4.666l3.5-2.333z" fill="url(#paint10_linear_17_7523)"/><path d="M20.005 27l2.333-3.499h-4.666l2.333 3.5z" fill="url(#paint11_linear_17_7523)"/><path d="M20.005 13.004l2.333 3.5h-4.666l2.333-3.5z" fill="url(#paint12_linear_17_7523)"/><path d="M14.853 14.653l4.124.825-3.299 3.3-.825-4.125z" fill="url(#paint13_linear_17_7523)"/><path d="M14.653 25.314l.825-4.123 3.3 3.299-4.125.824z" fill="url(#paint14_linear_17_7523)"/><path d="M25.18 14.676l-.825 4.124-3.3-3.3 4.125-.824z" fill="url(#paint15_linear_17_7523)"/><path d="M25.292 25.287l-4.123-.824 3.299-3.3.824 4.124z" fill="url(#paint16_linear_17_7523)"/><path d="M19.814 18.262c.06-.15.09-.224.132-.246.036-.02.08-.02.116 0 .042.022.072.097.132.246l.373.933a.309.309 0 00.04.083.13.13 0 00.046.034c.02.009.042.01.087.015l.959.083c.155.013.232.02.266.055.029.031.042.075.036.118-.008.05-.067.103-.185.21l-.726.654a.296.296 0 00-.064.067.142.142 0 00-.017.056.322.322 0 00.014.093l.22.979c.036.158.054.238.033.282a.13.13 0 01-.095.073c-.046.008-.112-.034-.244-.118l-.827-.525a.279.279 0 00-.078-.042.12.12 0 00-.056 0 .277.277 0 00-.078.042l-.827.525c-.132.084-.198.126-.245.118a.13.13 0 01-.094-.073c-.021-.044-.003-.124.033-.282l.22-.979A.322.322 0 0019 20.57a.14.14 0 00-.017-.056.294.294 0 00-.064-.067l-.726-.654c-.118-.107-.177-.16-.185-.21a.141.141 0 01.036-.117c.033-.036.11-.043.266-.056l.959-.083c.045-.004.068-.006.087-.015a.129.129 0 00.045-.034.309.309 0 00.04-.083l.374-.933z" fill="#fff"/><defs><linearGradient id="paint0_linear_17_7523" x1="20.002" y1="13.004" x2="20.002" y2="27" gradientUnits="userSpaceOnUse"><stop offset=".276" stop-color="#BB9026"/><stop offset=".661" stop-color="#C39931"/><stop offset="1" stop-color="#D0A742"/></linearGradient><linearGradient id="paint1_linear_17_7523" x1="20.002" y1="13.004" x2="20.002" y2="27" gradientUnits="userSpaceOnUse"><stop offset=".276" stop-color="#BB9026"/><stop offset=".661" stop-color="#C39931"/><stop offset="1" stop-color="#D0A742"/></linearGradient><linearGradient id="paint2_linear_17_7523" x1="20.002" y1="13.004" x2="20.002" y2="27" gradientUnits="userSpaceOnUse"><stop offset=".276" stop-color="#BB9026"/><stop offset=".661" stop-color="#C39931"/><stop offset="1" stop-color="#D0A742"/></linearGradient><linearGradient id="paint3_linear_17_7523" x1="20.002" y1="13.004" x2="20.002" y2="27" gradientUnits="userSpaceOnUse"><stop offset=".276" stop-color="#BB9026"/><stop offset=".661" stop-color="#C39931"/><stop offset="1" stop-color="#D0A742"/></linearGradient><linearGradient id="paint4_linear_17_7523" x1="20.002" y1="13.004" x2="20.002" y2="27" gradientUnits="userSpaceOnUse"><stop offset=".276" stop-color="#BB9026"/><stop offset=".661" stop-color="#C39931"/><stop offset="1" stop-color="#D0A742"/></linearGradient><linearGradient id="paint5_linear_17_7523" x1="20.002" y1="13.004" x2="20.002" y2="27" gradientUnits="userSpaceOnUse"><stop offset=".276" stop-color="#BB9026"/><stop offset=".661" stop-color="#C39931"/><stop offset="1" stop-color="#D0A742"/></linearGradient><linearGradient id="paint6_linear_17_7523" x1="20.002" y1="13.004" x2="20.002" y2="27" gradientUnits="userSpaceOnUse"><stop offset=".276" stop-color="#BB9026"/><stop offset=".661" stop-color="#C39931"/><stop offset="1" stop-color="#D0A742"/></linearGradient><linearGradient id="paint7_linear_17_7523" x1="20.002" y1="13.004" x2="20.002" y2="27" gradientUnits="userSpaceOnUse"><stop offset=".276" stop-color="#BB9026"/><stop offset=".661" stop-color="#C39931"/><stop offset="1" stop-color="#D0A742"/></linearGradient><linearGradient id="paint8_linear_17_7523" x1="20.002" y1="13.004" x2="20.002" y2="27" gradientUnits="userSpaceOnUse"><stop offset=".276" stop-color="#BB9026"/><stop offset=".661" stop-color="#C39931"/><stop offset="1" stop-color="#D0A742"/></linearGradient><linearGradient id="paint9_linear_17_7523" x1="20.002" y1="13.004" x2="20.002" y2="27" gradientUnits="userSpaceOnUse"><stop offset=".276" stop-color="#BB9026"/><stop offset=".661" stop-color="#C39931"/><stop offset="1" stop-color="#D0A742"/></linearGradient><linearGradient id="paint10_linear_17_7523" x1="20.002" y1="13.004" x2="20.002" y2="27" gradientUnits="userSpaceOnUse"><stop offset=".276" stop-color="#BB9026"/><stop offset=".661" stop-color="#C39931"/><stop offset="1" stop-color="#D0A742"/></linearGradient><linearGradient id="paint11_linear_17_7523" x1="20.002" y1="13.004" x2="20.002" y2="27" gradientUnits="userSpaceOnUse"><stop offset=".276" stop-color="#BB9026"/><stop offset=".661" stop-color="#C39931"/><stop offset="1" stop-color="#D0A742"/></linearGradient><linearGradient id="paint12_linear_17_7523" x1="20.002" y1="13.004" x2="20.002" y2="27" gradientUnits="userSpaceOnUse"><stop offset=".276" stop-color="#BB9026"/><stop offset=".661" stop-color="#C39931"/><stop offset="1" stop-color="#D0A742"/></linearGradient><linearGradient id="paint13_linear_17_7523" x1="20.002" y1="13.004" x2="20.002" y2="27" gradientUnits="userSpaceOnUse"><stop offset=".276" stop-color="#BB9026"/><stop offset=".661" stop-color="#C39931"/><stop offset="1" stop-color="#D0A742"/></linearGradient><linearGradient id="paint14_linear_17_7523" x1="20.002" y1="13.004" x2="20.002" y2="27" gradientUnits="userSpaceOnUse"><stop offset=".276" stop-color="#BB9026"/><stop offset=".661" stop-color="#C39931"/><stop offset="1" stop-color="#D0A742"/></linearGradient><linearGradient id="paint15_linear_17_7523" x1="20.002" y1="13.004" x2="20.002" y2="27" gradientUnits="userSpaceOnUse"><stop offset=".276" stop-color="#BB9026"/><stop offset=".661" stop-color="#C39931"/><stop offset="1" stop-color="#D0A742"/></linearGradient><linearGradient id="paint16_linear_17_7523" x1="20.002" y1="13.004" x2="20.002" y2="27" gradientUnits="userSpaceOnUse"><stop offset=".276" stop-color="#BB9026"/><stop offset=".661" stop-color="#C39931"/><stop offset="1" stop-color="#D0A742"/></linearGradient></defs></svg>