<svg viewBox="0 0 40 40" fill="none" xmlns="http://www.w3.org/2000/svg"><rect x="6" y="10" width="28" height="20" rx="2" fill="#F0F2F5"/><path fill-rule="evenodd" clip-rule="evenodd" d="M21.343 17.634a1.09 1.09 0 01.99-.634h1.62v6h-1.908v-3.546h-.137l-1.344 2.912a1.09 1.09 0 01-.99.634h-1.62v-6h1.909v3.545h.136l1.344-2.911zM24.771 19.727V23h1.906v-1.909h2.049c.89 0 1.645-.57 1.926-1.364h-5.88zM24.499 17a3 3 0 002.949 2.454h3.282A2.045 2.045 0 0028.726 17H24.5zM14.181 17.789A1.091 1.091 0 0115.23 17h1.907v6h-1.91v-3.546h-.136L14 23h-1.364l-1.09-3.546h-.137V23H9.5v-6h1.906c.486 0 .914.322 1.048.789l.796 2.757h.136l.795-2.757z" fill="#29313D"/></svg>