<svg viewBox="0 0 22 10" fill="none" xmlns="http://www.w3.org/2000/svg"><path fill-rule="evenodd" clip-rule="evenodd" d="M13.135 3.596c.168-.364.532-.596.932-.596h1.523v5.641h-1.795V5.308h-.128l-1.264 2.737a1.026 1.026 0 01-.93.596H9.948V3h1.795v3.333h.128l1.263-2.737zM16.36 5.565v3.077h1.79V6.847h1.927c.837 0 1.547-.536 1.812-1.282h-5.53zM16.102 3a2.82 2.82 0 002.773 2.308h3.086A1.923 1.923 0 0020.076 3h-3.974zM6.401 3.742c.127-.44.53-.742.986-.742h1.792v5.641H7.384V5.308h-.128L6.231 8.64H4.949L3.923 5.308h-.128V8.64H2V3h1.792c.457 0 .86.302.986.742l.748 2.592h.128L6.4 3.742z" fill="#fff"/></svg>