<svg viewBox="0 0 24 24" fill="none" xmlns="http://www.w3.org/2000/svg"><path fill-rule="evenodd" clip-rule="evenodd" d="M15.133 11.022a3.103 3.103 0 11-6.206 0 3.103 3.103 0 016.206 0zm-1.3 0a1.803 1.803 0 11-3.606 0 1.803 1.803 0 013.606 0z" fill="#626F84"/><path d="M17.347 6.342a.65.65 0 01.65.65v5.382a.65.65 0 11-1.3 0V6.992a.65.65 0 01.65-.65zM7.299 9.845a.65.65 0 10-1.3 0v5.382a.65.65 0 101.3 0V9.845z" fill="#626F84"/><path fill-rule="evenodd" clip-rule="evenodd" d="M4.493 6.433C3.703 6.381 3 6.983 3 7.774v9.155c0 .622.446 1.163 1.062 1.248 3.556.492 5.612-.312 7.71-1.132 2.047-.8 4.134-1.617 7.694-1.259.803.081 1.534-.526 1.534-1.334v-9.35c0-.635-.465-1.184-1.096-1.258-3.906-.458-6.09.402-8.261 1.257-1.968.775-3.927 1.546-7.15 1.332zm7.612-.117c-1.992.786-4.18 1.648-7.699 1.415a.132.132 0 00-.095.03.072.072 0 00-.01.01l-.001.002v9.125c3.143.422 4.93-.256 6.923-1.035l.082-.032c2.095-.819 4.42-1.728 8.29-1.338a.124.124 0 00.093-.028.07.07 0 00.01-.01l.002-.002V5.129c-3.388-.388-5.305.29-7.276 1.062l-.319.125z" fill="#626F84"/><path d="M11.603 18.389c2.234-.874 4.616-1.78 8.858-1.158a.65.65 0 01-.188 1.286c-3.914-.573-6.045.241-8.197 1.082l-.067.027c-2.202.86-4.459 1.743-8.417 1.115a.65.65 0 01.204-1.284c3.61.573 5.601-.206 7.738-1.041l.07-.027z" fill="#626F84"/></svg>