<svg viewBox="0 0 24 24" fill="none" xmlns="http://www.w3.org/2000/svg"><path fill-rule="evenodd" clip-rule="evenodd" d="M3 7.774c0-.792.702-1.393 1.493-1.34 3.223.213 5.182-.558 7.15-1.333 2.172-.855 4.354-1.715 8.261-1.257.631.074 1.096.623 1.096 1.258v9.35c0 .808-.73 1.415-1.534 1.334-3.56-.358-5.647.458-7.695 1.259-2.097.82-4.153 1.624-7.709 1.132C3.446 18.092 3 17.551 3 16.93V7.774zm12.133 3.248a3.103 3.103 0 11-6.206 0 3.103 3.103 0 016.206 0zm3.831-4.03a.65.65 0 10-1.3 0v5.382a.65.65 0 001.3 0V6.992zM5.682 9.032a.65.65 0 01.65.65v5.383a.65.65 0 11-1.3 0V9.683a.65.65 0 01.65-.65z" fill="#626F84"/><path d="M20.46 17.23c-4.24-.62-6.623.285-8.857 1.159l-.069.027c-2.137.835-4.129 1.614-7.738 1.04a.65.65 0 00-.204 1.285c3.958.628 6.215-.255 8.417-1.115l.067-.027c2.152-.84 4.283-1.655 8.197-1.082a.65.65 0 00.188-1.286z" fill="#626F84"/></svg>