<svg viewBox="0 0 28 28" fill="none" xmlns="http://www.w3.org/2000/svg"><rect y="4" width="28" height="20" rx="3" fill="#fff"/><mask id="a" style="mask-type:alpha" maskUnits="userSpaceOnUse" x="0" y="4" width="28" height="20"><rect y="4" width="28" height="20" rx="3" fill="#fff"/></mask><g mask="url(#a)" fill-rule="evenodd" clip-rule="evenodd"><path d="M9.333 24h9.334V4H9.333v20z" fill="#146BBC"/><path d="M0 24h9.333V4H0v20zM18.667 24H28V4h-9.333v20z" fill="#E43642"/><path d="M4.667 14l.666.667H4L4.667 14zm0 2a.667.667 0 110-1.333.667.667 0 010 1.333zm.666 0H2.667v4H4v-1.333L4.667 20l.666-1.333V20h1.334v-4H5.333zm-.666 1.333L5.333 16v2a.667.667 0 00-.666-.667zM4 18c0-.368.298-.667.667-.667L4 16v2zm.667.667H4V18c0 .368.298.667.667.667zm0 0h.666V18a.667.667 0 01-.666.667z" fill="url(#paint0_linear_17_4969)"/></g><defs><linearGradient id="paint0_linear_17_4969" x1="2.667" y1="14" x2="2.667" y2="20" gradientUnits="userSpaceOnUse"><stop stop-color="#F8D246"/><stop offset="1" stop-color="#F9CE2F"/></linearGradient></defs></svg>