<svg viewBox="0 0 28 28" fill="none" xmlns="http://www.w3.org/2000/svg"><rect y="4" width="28" height="20" rx="3" fill="#fff"/><mask id="a" style="mask-type:alpha" maskUnits="userSpaceOnUse" x="0" y="4" width="28" height="20"><rect y="4" width="28" height="20" rx="3" fill="#fff"/></mask><g mask="url(#a)" fill-rule="evenodd" clip-rule="evenodd"><path d="M0 24h28v-5.333H0V24z" fill="#FFE547"/><path d="M0 9.333h28V4H0v5.333z" fill="#118C81"/><path d="M0 18.667h28V9.333H0v9.334z" fill="#fff"/><path d="M0 17.333h28v-6.666H0v6.666z" fill="#262626"/><path d="M0 4l13.333 10L0 24V4z" fill="#EF2147"/><path d="M4.667 15.274l-1.96 1.423.748-2.303-1.959-1.424h2.422l.749-2.303.749 2.302h2.42l-1.958 1.425.748 2.303-1.96-1.423z" fill="#FDE444"/></g></svg>