<svg viewBox="0 0 24 24" fill="none" xmlns="http://www.w3.org/2000/svg"><path fill-rule="evenodd" clip-rule="evenodd" d="M6.898 6.345a2.496 2.496 0 01-.261-1.744l.018-.085a2.365 2.365 0 011.593-1.76A3.313 3.313 0 0112 4.052a3.313 3.313 0 013.752-1.296c.808.258 1.416.93 1.593 1.76l.018.085a2.495 2.495 0 01-.262 1.744A3 3 0 0120 9.344V17a3 3 0 01-3 3H7a3 3 0 01-3-3V9.343a3 3 0 012.898-2.998zm5.852-.705l-.094.696v.001h2.248c.772 0 1.348-.71 1.187-1.466l-.018-.084a1.065 1.065 0 00-.717-.793A2.011 2.011 0 0012.75 5.64zm-1.5 0l.094.696v.001H9.096a1.214 1.214 0 01-1.187-1.466l.018-.084c.08-.374.353-.677.717-.793A2.011 2.011 0 0111.25 5.64zM9.25 9.9a.65.65 0 01.709.14L12 12.08l2.04-2.04a.65.65 0 011.11.46v5a.65.65 0 01-1.3 0v-3.43l-1.39 1.39a.65.65 0 01-.92 0l-1.39-1.39v3.43a.65.65 0 01-1.3 0v-5c0-.263.158-.5.401-.6z" fill="#626F84"/></svg>