<svg viewBox="0 0 24 24" fill="none" xmlns="http://www.w3.org/2000/svg"><path d="M9.96 10.04a.65.65 0 00-1.11.46v5a.65.65 0 101.3 0v-3.43l1.39 1.39a.65.65 0 00.92 0l1.39-1.39v3.43a.65.65 0 101.3 0v-5a.65.65 0 00-1.11-.46L12 12.08l-2.04-2.04z" fill="#626F84"/><path fill-rule="evenodd" clip-rule="evenodd" d="M6.637 4.6a2.496 2.496 0 00.261 1.745A3 3 0 004 9.344V17a3 3 0 003 3h10a3 3 0 003-3V9.344a3 3 0 00-2.899-2.999c.284-.508.395-1.119.262-1.744l-.018-.085a2.365 2.365 0 00-1.593-1.76A3.313 3.313 0 0012 4.052a3.313 3.313 0 00-3.752-1.296 2.365 2.365 0 00-1.593 1.76l-.018.085zm6.019 1.736l.094-.696a2.011 2.011 0 012.606-1.646c.364.116.638.419.717.793l.018.084a1.214 1.214 0 01-1.187 1.466h-2.248zm-1.312 0l-.094-.696a2.011 2.011 0 00-2.606-1.646 1.065 1.065 0 00-.718.793l-.017.084a1.214 1.214 0 001.187 1.466h2.248zM7 7.644a1.7 1.7 0 00-1.7 1.7V17A1.7 1.7 0 007 18.7h10a1.7 1.7 0 001.7-1.7V9.344a1.7 1.7 0 00-1.7-1.7H7z" fill="#626F84"/></svg>