<svg viewBox="0 0 24 24" fill="none" xmlns="http://www.w3.org/2000/svg"><path d="M10 4.3a5.7 5.7 0 00-4.663 8.978c.205.292.242.715-.01.968-.292.295-.75.2-.994-.136a7 7 0 019.805-9.757c.299.22.356.626.097.89-.263.269-.699.27-1.008.058C12.31 4.67 11.198 4.3 10 4.3zM11.35 14.003a.65.65 0 01.65-.65h4a.65.65 0 110 1.3h-4a.65.65 0 01-.65-.65z" fill="#626F84"/><path fill-rule="evenodd" clip-rule="evenodd" d="M14 7a7 7 0 100 14 7 7 0 000-14zm0 1.3a5.7 5.7 0 100 11.4 5.7 5.7 0 000-11.4z" fill="#626F84"/></svg>