<svg viewBox="0 0 28 28" fill="none" xmlns="http://www.w3.org/2000/svg"><rect y="4" width="28" height="20" rx="3" fill="#fff"/><mask id="a" style="mask-type:alpha" maskUnits="userSpaceOnUse" x="0" y="4" width="28" height="20"><rect y="4" width="28" height="20" rx="3" fill="#fff"/></mask><g mask="url(#a)" fill-rule="evenodd" clip-rule="evenodd"><path d="M0 17.333L28 4H0v13.333z" fill="#0C4799"/><path d="M4.667 10l-1.02 1.13.077-1.52-1.521.077 1.13-1.02-1.13-1.02 1.52.077-.077-1.521 1.02 1.13 1.021-1.13-.078 1.52 1.521-.077L6 8.666l1.13 1.021-1.52-.078.077 1.521L4.667 10z" fill="#FFD243"/><path d="M0 24h28V10.667L0 24z" fill="#1BAC55"/><path d="M3.082 26.667L30.171 9.74l-5.253-8.407L-2.171 18.26l5.253 8.407z" fill="#fff"/><path d="M-.63 27.072l32.792-20.49L28.629.928l-32.791 20.49 3.533 5.654z" fill="#E52347"/></g></svg>