<svg viewBox="0 0 28 28" fill="none" xmlns="http://www.w3.org/2000/svg"><mask id="a" style="mask-type:alpha" maskUnits="userSpaceOnUse" x="0" y="4" width="28" height="20"><rect y="4" width="28" height="20" rx="3" fill="#0A2D7A"/></mask><g mask="url(#a)"><path fill="#0A2D7A" d="M0 4h28v20H0z"/><path fill="#F7C74B" d="M0 13h28v1.87H0z"/><path d="M8 14.866l.42 1.742 1.233-1.299-.507 1.718 1.718-.507-1.299 1.234 1.742.42-1.742.419 1.299 1.234-1.718-.508.507 1.718-1.234-1.299L8 21.48l-.42-1.742-1.234 1.3.508-1.719-1.718.508 1.299-1.234-1.742-.42 1.742-.42-1.3-1.233 1.72.507-.509-1.718 1.235 1.299L8 14.866z" fill="#fff"/></g></svg>