<svg viewBox="0 0 28 28" fill="none" xmlns="http://www.w3.org/2000/svg"><rect x=".25" y="4.25" width="27.5" height="19.5" rx="2.75" fill="#fff" stroke="#D6D8DD" stroke-width=".5"/><mask id="a" style="mask-type:alpha" maskUnits="userSpaceOnUse" x="0" y="4" width="28" height="20"><rect x=".25" y="4.25" width="27.5" height="19.5" rx="2.75" fill="#fff" stroke="#fff" stroke-width=".5"/></mask><g mask="url(#a)"><path fill="#D6182D" d="M10.667 4h6.667v20h-6.667z"/><path fill="#1425A2" d="M0 10.667h28v6.667H0z"/><path fill-rule="evenodd" clip-rule="evenodd" d="M11.333 15.667l-.471.138.138-.472-.138-.471.471.138.472-.138-.138.471.138.472-.472-.138zM16.667 15.667l-.472.138.138-.472-.138-.471.472.138.471-.138-.138.471.138.472-.471-.138zM8.667 14.333l-.472.138.138-.471-.138-.471.472.138.471-.138L9 14l.138.471-.471-.138zM19.333 14.333l-.471.138L19 14l-.138-.471.471.138.472-.138-.138.471.138.471-.472-.138zM14 13l-.471.138.138-.471-.138-.472.471.138.471-.138-.138.472.138.471L14 13z" fill="#fff"/></g></svg>