<svg viewBox="0 0 28 28" fill="none" xmlns="http://www.w3.org/2000/svg"><mask id="a" style="mask-type:alpha" maskUnits="userSpaceOnUse" x="0" y="3" width="28" height="21"><rect y="3.995" width="28" height="20" rx="3" fill="#C4C4C4"/></mask><g mask="url(#a)"><path fill="#0D39A6" d="M0 3.995h28v6.67H0z"/><path fill="#DB4F40" d="M0 10.665h28v6.67H0z"/><path fill="#41924C" d="M0 17.335h28v6.67H0z"/><circle cx="10.955" cy="13.995" r="5.809" fill="#F7E54D" stroke="#000" stroke-width=".383"/><path d="M10.035 12.195c.16.448.52.56.68.56v.4c-.48 0-.56-.12-.68-.2-.21-.14-.218-.325-.28-.76-.04-.28-.107-.48-.16-.6.08.013.28.152.44.6zM10.035 16.395c.16-.448.52-.72.68-.72v-.56c-.48 0-.56.12-.68.2-.21.14-.218.604-.28 1.04-.04.28-.107.72-.16.84.08-.013.28-.352.44-.8zM11.875 16.395c-.16-.448-.52-.72-.68-.72v-.56c.48 0 .56.12.68.2.21.14.218.604.28 1.04.04.28.107.72.16.84-.08-.013-.28-.352-.44-.8zM11.875 12.195c-.16.448-.52.56-.68.56v.4c.48 0 .56-.12.68-.2.21-.14.218-.325.28-.76.04-.28.107-.48.16-.6-.08.013-.28.152-.44.6zM10.635 9.635c-.544.192-.573.8-.52 1.08l.28-.12c.896-.288 1.387-1.24 1.52-1.68-.2.16-.736.528-1.28.72z" fill="#000"/><path d="M10.715 8.315h.48v9.68h-.48v-9.68z" fill="#000"/><path d="M12.955 19.355s-.68.52-2 .52c-1.32 0-2-.52-2-.52l1.098-1.28a2.61 2.61 0 011.804 0l1.098 1.28zM11.595 16.675c0 .552-.287 1-.64 1-.354 0-.64-.448-.64-1s.286-1 .64-1c.353 0 .64.448.64 1zM11.755 11.835a.8.8 0 11-1.6 0 .8.8 0 011.6 0zM11.755 14.115c0 .287-.358.52-.8.52-.442 0-.8-.233-.8-.52 0-.287.358-.52.8-.52.442 0 .8.233.8.52zM9.995 13.195h1.92v.4h-1.92v-.4zM9.995 14.635h1.92v.4h-1.92v-.4z" fill="#000"/></g></svg>