<svg viewBox="0 0 28 28" fill="none" xmlns="http://www.w3.org/2000/svg"><rect y="4" width="28" height="20" rx="3" fill="#fff"/><mask id="a" style="mask-type:alpha" maskUnits="userSpaceOnUse" x="0" y="4" width="28" height="20"><rect y="4" width="28" height="20" rx="3" fill="#fff"/></mask><g mask="url(#a)"><path fill="#0A17A7" d="M0 4h28v20H0z"/><path d="M0 3.667h-.901l.684.586 4.55 3.9v1.009l-4.527 3.233-.14.1v1.44l.51-.319 5.253-3.283h1.13l4.523 3.23a.554.554 0 00.682-.87L7.667 9.18V8.172l4.387-3.134a.667.667 0 00.28-.543V3.4l-.51.318L6.57 7h-1.13L.86 3.729l-.088-.062H0z" fill="#FF2E3B" stroke="#fff" stroke-width=".667"/><path fill-rule="evenodd" clip-rule="evenodd" d="M0 7.333V10h4.667v3.333c0 .368.298.667.666.667h1.334a.667.667 0 00.666-.667V10H12a.667.667 0 00.667-.667V8A.667.667 0 0012 7.333H7.333V4H4.667v3.333H0z" fill="#fff"/><path fill-rule="evenodd" clip-rule="evenodd" d="M0 8h5.333V4h1.334v4H12v1.333H6.667v4H5.333v-4H0V8z" fill="#FF2E3B"/><path fill-rule="evenodd" clip-rule="evenodd" d="M20 21.333l-.943.277.276-.943-.276-.943L20 20l.943-.276-.276.943.276.942-.943-.276zM20 8.667l-.943.276.276-.943-.276-.943.943.276.943-.276-.276.943.276.943L20 8.667zM24 12.667l-.943.276.276-.943-.276-.943.943.276.943-.276-.276.943.276.943-.943-.276zM16 14l-.943.276.276-.943-.276-.943.943.277.943-.277-.276.943.276.943L16 14z" fill="#CA1931"/></g></svg>