<svg viewBox="0 0 24 24" fill="none" xmlns="http://www.w3.org/2000/svg"><path fill-rule="evenodd" clip-rule="evenodd" d="M12.6 2.58a.65.65 0 10-1.3 0v2.044c-.989.134-1.893.57-2.603 1.222L5.925 2.243a.65.65 0 00-1.03.792l14.404 18.722a.65.65 0 101.03-.793l-3.373-4.384H19.1a.65.65 0 100-1.3h-.725L16.61 8.22a4.792 4.792 0 00-4.01-3.596V2.58zm3.355 12.7h1.085l-1.69-6.74a3.497 3.497 0 00-3.4-2.66c-.943 0-1.815.378-2.453 1.005l6.458 8.395zm-10.43 0L7.28 8.265l1.01 1.314-1.429 5.7h5.816l1 1.3H4.8a.65.65 0 110-1.3h.725zm5.125 3.305a.65.65 0 00-1.3.03c.031 1.298 1.174 2.235 2.45 2.235 1.277 0 2.42-.937 2.45-2.235a.65.65 0 00-1.3-.03c-.01.481-.464.965-1.15.965-.686 0-1.138-.484-1.15-.965z" fill="#626F84"/></svg>