<svg viewBox="0 0 24 24" fill="none" xmlns="http://www.w3.org/2000/svg"><path fill-rule="evenodd" clip-rule="evenodd" d="M12.6 2.58a.65.65 0 10-1.3 0v2.044A4.792 4.792 0 007.29 8.22l-1.765 7.06H4.8a.65.65 0 000 1.3h14.3a.65.65 0 100-1.3h-.725L16.61 8.22a4.792 4.792 0 00-4.01-3.596V2.58zm4.44 12.7l-1.69-6.74a3.497 3.497 0 00-3.4-2.66c-1.61 0-3.01 1.1-3.4 2.66l-1.69 6.74h10.18z" fill="#626F84"/><path d="M10.65 18.585a.65.65 0 00-1.3.03c.03 1.298 1.173 2.235 2.45 2.235 1.276 0 2.419-.937 2.45-2.234a.65.65 0 00-1.3-.031c-.011.481-.464.965-1.15.965-.686 0-1.139-.484-1.15-.965z" fill="#626F84"/></svg>