<svg viewBox="0 0 24 24" fill="none" xmlns="http://www.w3.org/2000/svg"><path fill-rule="evenodd" clip-rule="evenodd" d="M12.6 2.58a.65.65 0 10-1.3 0v2.044c-.989.134-1.893.57-2.603 1.222L5.925 2.243a.65.65 0 00-1.03.792l14.404 18.722a.65.65 0 101.03-.793l-3.373-4.384H19.1a.65.65 0 100-1.3h-.725L16.61 8.22a4.792 4.792 0 00-4.01-3.596V2.58zm-7.075 12.7L7.28 8.265l6.397 8.315H4.8a.65.65 0 110-1.3h.725zm4.46 2.67a.65.65 0 00-.634.666c.03 1.297 1.173 2.234 2.45 2.234 1.276 0 2.418-.937 2.45-2.235a.65.65 0 00-.635-.665 74.152 74.152 0 00-3.631 0z" fill="#626F84"/></svg>