<svg viewBox="0 0 24 24" fill="none" xmlns="http://www.w3.org/2000/svg"><path fill-rule="evenodd" clip-rule="evenodd" d="M12 3a9 9 0 100 18 9 9 0 000-18zm-1.96 12.688c.28.28.74.27 1.01-.02 1.556-1.69 3.101-3.446 4.693-5.09l-.016 2.152a.658.658 0 00.633.668c.191.005.36-.069.485-.198a.627.627 0 00.184-.435l.034-3.738a.698.698 0 00-.747-.723l-3.723.074a.658.658 0 00-.611.69.65.65 0 00.689.61h2.133c-1.465 1.514-2.859 3.1-4.284 4.65l-2.4-2.4a.658.658 0 00-.92 0c-.25.25-.25.67 0 .92l2.84 2.84z" fill="#626F84"/></svg>