<svg viewBox="0 0 24 24" fill="none" xmlns="http://www.w3.org/2000/svg"><path d="M11.05 15.668c-.27.29-.73.3-1.01.02l-2.84-2.84a.658.658 0 010-.92c.25-.25.67-.25.92 0l2.4 2.4 3.397-3.695a30.5 30.5 0 01.887-.955h-2.133a.65.65 0 01-.69-.61.658.658 0 01.612-.69l3.723-.075a.698.698 0 01.747.724l-.034 3.738a.627.627 0 01-.184.435.645.645 0 01-.485.199.658.658 0 01-.633-.67l.016-2.151-.228.234a.666.666 0 01-.045.056l-4.42 4.8z" fill="#626F84"/><path fill-rule="evenodd" clip-rule="evenodd" d="M3 12a9 9 0 1118 0 9 9 0 01-18 0zm9-7.7a7.7 7.7 0 100 15.4 7.7 7.7 0 000-15.4z" fill="#626F84"/></svg>