<svg viewBox="0 0 28 28" fill="none" xmlns="http://www.w3.org/2000/svg"><rect x=".25" y="4.25" width="27.5" height="19.5" rx="2.75" fill="#fff" stroke="#D6D8DD" stroke-width=".5"/><mask id="a" style="mask-type:alpha" maskUnits="userSpaceOnUse" x="0" y="4" width="28" height="20"><rect x=".25" y="4.25" width="27.5" height="19.5" rx="2.75" fill="#fff" stroke="#fff" stroke-width=".5"/></mask><g mask="url(#a)" fill-rule="evenodd" clip-rule="evenodd"><path d="M0 24h28v-6.667H0V24z" fill="#138E16"/><path d="M0 24h9.333v-6.667H28v-6.666H9.333V4H0v20z" fill="#ED2B35"/><path d="M4.667 8.712l-1.157 1.69.6-1.958-2.043.15 1.906-.752-1.391-1.505L4.358 7.36l.309-2.026.308 2.026 1.777-1.022L5.36 7.842l1.905.751-2.043-.15.6 1.96-1.156-1.691z" fill="#fff"/></g></svg>