<svg viewBox="0 0 24 24" fill="none" xmlns="http://www.w3.org/2000/svg"><path fill-rule="evenodd" clip-rule="evenodd" d="M4.647 8.804a.65.65 0 01-.65-.65v-2.8c0-.746.604-1.35 1.35-1.35h2.8a.65.65 0 010 1.3H6.216L8.903 7.99a.65.65 0 11-.92.919L5.297 6.223v1.931a.65.65 0 01-.65.65zm1.568 9.889h1.932a.65.65 0 110 1.3h-2.8a1.35 1.35 0 01-1.35-1.35v-2.8a.65.65 0 111.3 0v1.93l2.686-2.686a.65.65 0 01.92.919l-2.688 2.687zm12.486-.912V15.85a.65.65 0 111.3 0v2.8a1.35 1.35 0 01-1.35 1.35h-2.8a.65.65 0 110-1.3h1.931l-2.687-2.686a.65.65 0 01.92-.92l2.686 2.687zM15.196 4.654a.65.65 0 01.65-.65h2.8c.746 0 1.35.604 1.35 1.35v2.8a.65.65 0 11-1.3 0V6.223L16.01 8.91a.65.65 0 01-.92-.92l2.687-2.686h-1.93a.65.65 0 01-.65-.65z" fill="#626F84"/></svg>