<svg viewBox="0 0 24 24" fill="none" xmlns="http://www.w3.org/2000/svg"><path d="M6.812 13.28c.237.064.42.249.506.479a5.002 5.002 0 007.856 2.105.762.762 0 01.678-.161l1.324.355a.659.659 0 00.73-.268 6.976 6.976 0 00.866-1.947c.109-.402.513-.668.915-.56l1.48.396a.7.7 0 01.494.857l-.214.8a9.966 9.966 0 01-.918 1.919.67.67 0 01-.748.286l-1.189-.319a.739.739 0 00-.729.221 8.003 8.003 0 01-13.722-3.942c-.09-.471.357-.84.82-.716l1.85.496zM8.91 8.069a.761.761 0 01-.664.15l-1.363-.366a.66.66 0 00-.724.26c-.19.285-.36.585-.508.898-.155.328-.516.52-.866.426l-1.568-.42c-.39-.105-.613-.517-.457-.889a9.986 9.986 0 01.765-1.467.67.67 0 01.744-.281l1.209.324a.739.739 0 00.723-.215 8.003 8.003 0 0113.635 3.891c.098.474-.351.85-.818.725l-1.874-.502a.762.762 0 01-.501-.462A5.002 5.002 0 008.91 8.069z" fill="#626F84"/></svg>