<svg viewBox="0 0 24 24" fill="none" xmlns="http://www.w3.org/2000/svg"><path fill-rule="evenodd" clip-rule="evenodd" d="M5 5.005a3 3 0 00-3 3v7.99a3 3 0 003 3h14a3 3 0 003-3v-7.99a3 3 0 00-3-3H5zm1 7.95v2.42a.65.65 0 101.3 0v-1.78h1.91a2.81 2.81 0 000-5.62H7.35A1.35 1.35 0 006 9.325V12.955zm1.3-.66v-2.97a.05.05 0 01.05-.05h1.86a1.51 1.51 0 110 3.02H7.3zm10.7-.652V8.625a.65.65 0 10-1.3 0v2.377h-1.202a2.511 2.511 0 000 5.023h1.153a1.35 1.35 0 001.35-1.35V11.643zm-1.3.66v2.372a.05.05 0 01-.05.05h-1.152a1.211 1.211 0 010-2.422H16.7z" fill="#626F84"/></svg>