<svg viewBox="0 0 24 24" fill="none" xmlns="http://www.w3.org/2000/svg"><path fill-rule="evenodd" clip-rule="evenodd" d="M5 6.403h14a1.7 1.7 0 011.7 1.7v7.794a1.7 1.7 0 01-1.7 1.7H5a1.7 1.7 0 01-1.7-1.7V8.103a1.7 1.7 0 011.7-1.7zm-3 1.7a3 3 0 013-3h14a3 3 0 013 3v7.794a3 3 0 01-3 3H5a3 3 0 01-3-3V8.103zm4 4.851v2.42a.65.65 0 101.3 0v-1.78h1.91a2.81 2.81 0 100-5.619H7.35A1.35 1.35 0 006 9.325v3.61l-.001.01v.01zm1.3-.66V9.326a.05.05 0 01.05-.05h1.86a1.51 1.51 0 010 3.02H7.3zm10.7-.65V8.624a.65.65 0 00-1.3 0v2.377h-1.203a2.511 2.511 0 100 5.023h1.154a1.35 1.35 0 001.35-1.35V11.643zm-1.3.659v2.372a.05.05 0 01-.05.05h-1.153a1.211 1.211 0 010-2.422h1.204z" fill="#626F84"/></svg>