<svg viewBox="0 0 28 28" fill="none" xmlns="http://www.w3.org/2000/svg"><rect x=".25" y="4.25" width="27.5" height="19.5" rx="2.75" fill="#fff" stroke="#D6D8DD" stroke-width=".5"/><mask id="a" style="mask-type:alpha" maskUnits="userSpaceOnUse" x="0" y="4" width="28" height="20"><rect x=".25" y="4.25" width="27.5" height="19.5" rx="2.75" fill="#fff" stroke="#fff" stroke-width=".5"/></mask><g mask="url(#a)" fill-rule="evenodd" clip-rule="evenodd"><path d="M28 13.333H13.333V4H28v9.333z" fill="#E52448"/><path d="M13.333 24H0V13.333h13.333V24zM6.667 9.76l-1.568 1.064.528-1.82L4.13 7.844l1.893-.06L6.667 6l.642 1.782 1.894.06-1.497 1.163.528 1.819L6.667 9.76z" fill="#1367AE"/><path d="M20.667 19.76l-1.568 1.064.528-1.82-1.496-1.161 1.893-.06.643-1.783.642 1.782 1.894.06-1.497 1.163.528 1.819-1.567-1.064z" fill="#E52448"/></g></svg>