<svg viewBox="0 0 24 24" fill="none" xmlns="http://www.w3.org/2000/svg"><path d="M7.75 12a1.5 1.5 0 11-3 0 1.5 1.5 0 013 0zM13.5 12a1.5 1.5 0 11-3 0 1.5 1.5 0 013 0zM19.25 12a1.5 1.5 0 11-3 0 1.5 1.5 0 013 0zM4.892 2h.799a.65.65 0 010 1.3h-.8a1.7 1.7 0 00-1.7 1.7v.691a.65.65 0 11-1.3 0v-.69a3 3 0 013-3zM2.542 17.659a.65.65 0 00-.65.65V19a3 3 0 003 3h.799a.65.65 0 100-1.3h-.8a1.7 1.7 0 01-1.7-1.7v-.691a.65.65 0 00-.65-.65zM21.242 17.659a.65.65 0 00-.65.65V19a1.7 1.7 0 01-1.7 1.7h-.583a.65.65 0 100 1.3h.583a3 3 0 003-3v-.691a.65.65 0 00-.65-.65zM21.242 6.341a.65.65 0 00.65-.65v-.69a3 3 0 00-3-3h-.583a.65.65 0 100 1.3h.583a1.7 1.7 0 011.7 1.7v.69c0 .36.29.65.65.65z" fill="#626F84"/></svg>