<svg viewBox="0 0 24 24" fill="none" xmlns="http://www.w3.org/2000/svg"><path fill-rule="evenodd" clip-rule="evenodd" d="M3 7a3 3 0 013-3h12a3 3 0 013 3v1.3a.7.7 0 01-.7.7H19a3 3 0 100 6h1.3a.7.7 0 01.7.7V17a3 3 0 01-3 3H6a3 3 0 01-3-3V7zm8.517 1.416a.65.65 0 01.919-.008l2.223 2.184a.65.65 0 11-.91.927l-1.08-1.06v4.905a.65.65 0 11-1.3 0V10.42l-1.109 1.13a.65.65 0 01-.927-.911l2.184-2.224z" fill="#626F84"/><path d="M19.037 10.273a1.715 1.715 0 100 3.43H21.3a.7.7 0 00.7-.7v-2.03a.7.7 0 00-.7-.7h-2.263z" fill="#626F84"/></svg>