<svg viewBox="0 0 24 24" fill="none" xmlns="http://www.w3.org/2000/svg"><path d="M11.508 8.416a.65.65 0 01.92-.008l2.223 2.184a.65.65 0 11-.911.928l-1.08-1.06v4.903a.65.65 0 11-1.3 0v-4.941l-1.108 1.129a.65.65 0 11-.928-.911l2.184-2.224z" fill="#626F84"/><path fill-rule="evenodd" clip-rule="evenodd" d="M21 7a3 3 0 00-3-3H6a3 3 0 00-3 3v10a3 3 0 003 3h12a3 3 0 003-3v-2.035a1.3 1.3 0 001-1.265v-3.4a1.3 1.3 0 00-1-1.265V7zM4.3 7A1.7 1.7 0 016 5.3h12A1.7 1.7 0 0119.7 7v2H19a3 3 0 100 6h.7v2a1.7 1.7 0 01-1.7 1.7H6A1.7 1.7 0 014.3 17V7zm16.4 6.7H19a1.7 1.7 0 110-3.4h1.7v3.4z" fill="#626F84"/></svg>