<svg viewBox="0 0 40 40" fill="none" xmlns="http://www.w3.org/2000/svg"><rect x="1" y="6" width="38" height="28" rx="4" fill="#2B313B"/><path d="M21.31 13.01c1.05-.071 2.202.226 2.944.942a.957.957 0 11-1.329 1.378c-.248-.24-.811-.455-1.486-.41-.649.044-1.2.317-1.508.785-.367.56-.474 1.141-.466 1.963.004.374.031.77.063 1.233l.013.193c.012.182.024.37.035.567h2.367a.957.957 0 110 1.915h-2.357a7.61 7.61 0 01-1.175 3.51h5.96a.957.957 0 110 1.914h-8.413a.957.957 0 01-.309-1.864c.266-.09.786-.471 1.255-1.25a5.665 5.665 0 00.759-2.31h-1.647a.957.957 0 010-1.915h1.643a52.49 52.49 0 00-.028-.438l-.013-.19a23.789 23.789 0 01-.067-1.344c-.01-1.014.12-2.03.78-3.034.72-1.097 1.902-1.572 2.979-1.645z" fill="#fff"/></svg>