<svg viewBox="0 0 40 40" fill="none" xmlns="http://www.w3.org/2000/svg"><rect x="1" y="6" width="38" height="28" rx="4" fill="#2B313B"/><path d="M18.914 13.89c-1.568.382-2.52 1.678-2.595 3.085-.092 1.712 1.1 3.374 3.427 3.76 1.032.172 1.662.54 2.015.915.347.367.464.777.43 1.152-.067.736-.79 1.63-2.303 1.63-.807 0-1.31-.331-1.627-.709-.352-.418-.456-.867-.456-.991a.867.867 0 00-1.735 0c0 .584.284 1.42.863 2.108a3.66 3.66 0 001.981 1.218v1.075a.867.867 0 101.735 0V26.11c1.847-.282 3.126-1.579 3.27-3.151.08-.882-.216-1.78-.896-2.5-.674-.716-1.685-1.219-2.993-1.436-1.54-.256-2.019-1.21-1.979-1.956.042-.78.639-1.557 1.837-1.557.782 0 1.22.314 1.487.674.297.4.411.9.411 1.215a.867.867 0 001.735 0 3.91 3.91 0 00-.754-2.25 3.34 3.34 0 00-2.118-1.306v-.977a.867.867 0 00-1.735 0v1.023z" fill="#fff"/></svg>