<svg viewBox="0 0 40 40" fill="none" xmlns="http://www.w3.org/2000/svg"><rect x="1" y="6" width="38" height="28" rx="4" fill="#2B313B"/><path fill-rule="evenodd" clip-rule="evenodd" d="M19.16 14.89c.284-.142.596-.216.913-.216h.236A1.806 1.806 0 0121.64 17.7h-6.473a.837.837 0 100 1.675h4.269l-1.688 1.25h-2.58a.837.837 0 100 1.675h1.26a3.48 3.48 0 003.259 4.7h.236c.577 0 1.145-.134 1.661-.392l1.742-.87a.837.837 0 10-.748-1.498l-1.742.87a2.043 2.043 0 01-.913.216h-.236a1.806 1.806 0 01-1.331-3.026h6.473a.837.837 0 000-1.675H20.56l1.688-1.25h2.581a.837.837 0 100-1.675h-1.26a3.478 3.478 0 00-3.26-4.7h-.236c-.577 0-1.145.134-1.661.392l-1.742.87a.837.837 0 10.748 1.498l1.742-.87z" fill="#fff"/></svg>