<svg viewBox="0 0 22 10" fill="none" xmlns="http://www.w3.org/2000/svg"><path d="M10.195 4.496c-.006-.594.485-.88.508-.894a1.098 1.098 0 00-.86-.466c-.366-.037-.714.216-.9.216-.185 0-.471-.21-.774-.204a1.15 1.15 0 00-.972.588c-.415.72-.106 1.784.297 2.367.198.286.433.607.742.595.298-.012.41-.193.77-.193.36 0 .46.193.775.187.32-.006.523-.291.72-.577.226-.331.32-.651.324-.668-.007-.003-.624-.24-.63-.95zM9.603 2.75c.164-.198.275-.475.245-.75-.237.01-.523.158-.692.356-.152.176-.285.457-.25.727.264.02.533-.134.697-.333zM13.569 2.587c.278 0 .523.034.735.102.212.068.386.166.524.293.14.123.247.274.317.452.07.175.106.37.106.586 0 .463-.133.818-.399 1.064-.265.247-.693.37-1.283.37h-.399v1.592h-.884V2.587h1.283zm0 2.166c.498 0 .748-.244.748-.733 0-.488-.25-.732-.748-.732h-.399v1.465h.399zM15.6 3.912a2.55 2.55 0 01.572-.165c.188-.034.391-.051.611-.051.328 0 .586.042.773.127.19.085.334.191.43.319a.943.943 0 01.18.414c.03.148.044.284.044.407v2.083h-.829v-.484h-.012a.817.817 0 01-.268.325 1.244 1.244 0 01-.741.21c-.204 0-.378-.028-.524-.083a1.038 1.038 0 01-.355-.23.927.927 0 01-.206-.318 1.167 1.167 0 01-.006-.738.768.768 0 01.23-.35c.117-.111.279-.2.487-.268.207-.073.483-.109.828-.109a4.4 4.4 0 01.237.007h.312v-.14c0-.09-.021-.17-.063-.242a.491.491 0 00-.155-.179.766.766 0 00-.237-.108.973.973 0 00-.274-.038 2.008 2.008 0 00-1.034.293v-.682zm1.62 1.637a6.17 6.17 0 00-.38.013 1.5 1.5 0 00-.375.057.68.68 0 00-.28.16.405.405 0 00-.112.305c0 .12.04.221.118.306.08.08.212.121.399.121a.995.995 0 00.268-.038.65.65 0 00.25-.134.668.668 0 00.18-.268 1.11 1.11 0 00.075-.439v-.083h-.144zM19.21 8.46c-.079 0-.162-.01-.249-.032a1.847 1.847 0 01-.243-.063v-.663c.05.021.104.04.162.057a.687.687 0 00.23.032.725.725 0 00.356-.076c.095-.051.172-.149.23-.293l.075-.191L18.5 3.747h.934l.605 1.821.18.63h.032l.2-.655.585-1.796h.86l-1.365 3.7c-.046.123-.1.244-.162.363a1.12 1.12 0 01-.23.325 1.047 1.047 0 01-.368.236c-.15.06-.337.09-.56.09z" fill="#fff"/></svg>