<svg viewBox="0 0 40 40" fill="none" xmlns="http://www.w3.org/2000/svg"><rect x="6" y="10" width="28" height="20" rx="2" fill="#F0F2F5"/><path d="M14.426 19.458c-.007-.823.673-1.219.704-1.238-.383-.56-.979-.637-1.191-.646-.507-.051-.99.298-1.246.298-.257 0-.654-.29-1.074-.282a1.593 1.593 0 00-1.347.816c-.574.995-.146 2.47.413 3.279.273.395.599.84 1.027.824.413-.017.569-.267 1.067-.267s.638.267 1.074.259c.443-.009.725-.404.996-.8.314-.459.443-.903.45-.926-.01-.004-.864-.332-.873-1.317zM13.607 17.04c.227-.276.38-.659.338-1.04-.327.013-.723.218-.958.494-.21.243-.395.632-.345 1.006.365.028.738-.186.965-.46zM19.1 16.814c.386 0 .726.047 1.02.14.293.095.534.23.724.407.196.17.343.38.44.626.098.242.147.512.147.812 0 .641-.184 1.133-.552 1.474-.369.341-.961.512-1.778.512h-.553v2.206h-1.225v-6.177H19.1zm0 3c.691 0 1.037-.338 1.037-1.015 0-.676-.346-1.015-1.036-1.015h-.553v2.03h.553zM21.914 18.65c.27-.113.535-.19.794-.23.259-.047.54-.07.846-.07.454 0 .81.058 1.07.176.265.117.463.264.595.44.133.177.216.368.25.574.041.206.061.395.061.565v2.886h-1.148v-.67h-.017a2.108 2.108 0 01-.12.202 1.137 1.137 0 01-.251.247 1.727 1.727 0 01-1.027.291c-.282 0-.524-.038-.725-.114a1.44 1.44 0 01-.492-.318 1.285 1.285 0 01-.285-.441 1.62 1.62 0 01-.009-1.024c.052-.176.158-.338.32-.485.16-.153.385-.277.673-.37.287-.1.67-.15 1.148-.15.109 0 .218.002.328.008h.431v-.194a.66.66 0 00-.086-.335.68.68 0 00-.216-.248 1.061 1.061 0 00-.328-.15 1.348 1.348 0 00-.38-.053c-.195 0-.408.027-.638.08-.23.047-.495.156-.794.326v-.944zm2.244 2.267c-.161 0-.337.006-.527.018a2.078 2.078 0 00-.518.08.942.942 0 00-.388.22c-.104.1-.155.24-.155.423a.6.6 0 00.164.424c.109.112.293.168.552.168.12 0 .244-.018.371-.053a.901.901 0 00.345-.186.925.925 0 00.25-.37c.07-.16.104-.362.104-.61v-.114h-.198zM26.916 24.95a1.46 1.46 0 01-.345-.044 2.555 2.555 0 01-.337-.088V23.9c.07.03.144.056.225.08.08.029.187.043.32.043.2 0 .364-.035.491-.106.132-.07.239-.206.32-.406l.103-.264-1.76-4.827h1.294l.837 2.523.25.874h.044l.276-.909.811-2.488h1.191l-1.89 5.127c-.063.17-.138.338-.224.503-.08.17-.187.32-.32.45a1.45 1.45 0 01-.509.326 2.118 2.118 0 01-.777.124z" fill="#2F3441"/></svg>