<svg viewBox="0 0 24 24" fill="none" xmlns="http://www.w3.org/2000/svg"><path d="M12.325 11.397a.65.65 0 01.65-.65h3.309a.65.65 0 01.65.65v4.471a.65.65 0 11-1.3 0v-3.82h-2.01v3.82a.65.65 0 11-1.3 0v-4.47zM8.712 12.061a.9.9 0 00-.568.202l-.017.014a.65.65 0 11-.821-1.008l.017-.013c.392-.32.883-.495 1.389-.495h.458a1.74 1.74 0 011.4 2.775 1.79 1.79 0 01-1.331 2.985h-.481c-.523 0-1.03-.18-1.434-.51l-.018-.014a.65.65 0 11.82-1.008l.019.014a.97.97 0 00.613.218h.481a.49.49 0 000-.979h-.155a.65.65 0 110-1.3h.086a.44.44 0 100-.88h-.458z" fill="#626F84"/><path fill-rule="evenodd" clip-rule="evenodd" d="M3 16a3 3 0 003 3h12a3 3 0 003-3V8a3 3 0 00-3-3H6a3 3 0 00-3 3v8zm15-9.7A1.7 1.7 0 0119.7 8v.29H4.495a.65.65 0 00-.195.03V8A1.7 1.7 0 016 6.3h12zM4.3 9.56V16A1.7 1.7 0 006 17.7h12a1.7 1.7 0 001.7-1.7V9.59H4.495a.65.65 0 01-.195-.03z" fill="#626F84"/></svg>