<svg viewBox="0 0 24 24" fill="none" xmlns="http://www.w3.org/2000/svg"><path fill-rule="evenodd" clip-rule="evenodd" d="M20.65 6.35a3 3 0 00-3-3h-8a3 3 0 00-3 3v10a3 3 0 003 3h8a3 3 0 003-3v-10zm-3-1.7h-8a1.7 1.7 0 00-1.7 1.7v10a1.7 1.7 0 001.7 1.7h8a1.7 1.7 0 001.7-1.7v-10a1.7 1.7 0 00-1.7-1.7z" fill="#626F84"/><path d="M4.65 8.7a.65.65 0 00-.65.65v9.4A3.25 3.25 0 007.25 22h8.4a.65.65 0 100-1.3h-8.4a1.95 1.95 0 01-1.95-1.95v-9.4a.65.65 0 00-.65-.65z" fill="#626F84"/><path fill-rule="evenodd" clip-rule="evenodd" d="M13.468 11.643c-.042.188-.078.344-.117.508l.005-.002.376-.124-.264-.382zm-1.075-1.25a27.935 27.935 0 01-.507 2.248c-.462.159-.845.299-1.16.433-.697.296-1.198.613-1.508 1.154-.219.381-.254.79-.143 1.16.107.354.337.637.595.835.472.36 1.32.6 1.964.049.25-.214.45-.518.613-.821.167-.314.32-.68.458-1.064.084-.235.165-.482.242-.733.526-.175 1.05-.362 1.581-.52.128.167.258.33.387.48.312.364.665.718 1.046.958.382.24.88.418 1.416.252.542-.168.963-.55 1.09-1.083.126-.526-.07-1.05-.451-1.429-.593-.588-1.61-.852-2.942-.636-.458-.577-.858-1.12-1.295-1.71.068-.479.118-.969.124-1.416.008-.545-.042-1.182-.327-1.634a1.192 1.192 0 00-.77-.552c-.336-.07-.668.011-.965.148-.29.134-.547.313-.73.559-.19.255-.272.544-.266.835.01.53.312 1.023.592 1.398.28.374.635.752.956 1.089zm.206-1.712l.004-.15c.007-.472-.048-.754-.105-.882a.797.797 0 00-.113.044c-.16.073-.216.134-.231.154-.008.01-.01.013-.01.033.003.092.075.298.334.645.039.052.08.103.121.156zm3.419 4.22c.234.26.447.452.635.57.218.137.312.12.34.111.19-.06.21-.14.21-.144.002-.008.017-.085-.103-.203-.142-.141-.482-.321-1.082-.334zm-4.635 1.308l-.148.061c-.617.263-.793.438-.89.605-.04.07-.034.108-.025.137a.38.38 0 00.14.178.51.51 0 00.248.104c.064.006.082-.011.082-.011.068-.058.176-.193.309-.443.095-.178.19-.39.284-.631z" fill="#626F84"/></svg>