<svg viewBox="0 0 24 24" fill="none" xmlns="http://www.w3.org/2000/svg"><path fill-rule="evenodd" clip-rule="evenodd" d="M6.688 3.582c-.67 0-1.213.543-1.213 1.213V8.19a.167.167 0 01-.167.167h-.067c-1.197 0-2.167.97-2.167 2.167V13c0 1.197.97 2.167 2.167 2.167h.107c.081 0 .15.059.164.14l.555 3.333a2.127 2.127 0 004.225-.34l.001-.002a.06.06 0 01.023-.01.051.051 0 01.023.002 9.61 9.61 0 002.475.32 9.57 9.57 0 002.767-.403.106.106 0 01.089.014.058.058 0 01.018.018v.006c0 1.2.973 2.172 2.173 2.172a2.136 2.136 0 002.101-1.697c.619-3.006.99-6.188 1.006-6.335a.655.655 0 000-.144c.016-.17.024-.344.024-.518a6.586 6.586 0 00-6.587-6.586H9.508a.216.216 0 01-.116-.041.62.62 0 01-.169-.173 3.062 3.062 0 00-2.535-1.342zm.087 4.607V4.884c.57.028 1.07.326 1.373.771.262.385.73.783 1.36.783h4.898a5.286 5.286 0 015.286 5.286c0 .17-.01.337-.028.502a.662.662 0 00-.001.13c-.074.62-.426 3.438-.974 6.104a.836.836 0 01-.828.658.872.872 0 01-.872-.872c0-.968-.967-1.53-1.784-1.283a8.27 8.27 0 01-2.391.348 8.307 8.307 0 01-2.14-.276c-.787-.21-1.682.342-1.682 1.256a.827.827 0 01-1.642.136l-.556-3.333a1.467 1.467 0 00-1.446-1.226H5.24A.867.867 0 014.374 13v-2.478c0-.48.388-.867.867-.867h.067c.81 0 1.467-.657 1.467-1.467zm3.937-.289a.605.605 0 100 1.21h4.164a.605.605 0 100-1.21h-4.164z" fill="#626F84"/></svg>