<svg viewBox="0 0 24 24" fill="none" xmlns="http://www.w3.org/2000/svg"><path fill-rule="evenodd" clip-rule="evenodd" d="M5.392 7.968a4.464 4.464 0 118.871 0l-.262 2.306a4.2 4.2 0 01-8.347 0l-.262-2.306zM2.117 19.698A6 6 0 017.974 15h3.707a6 6 0 015.857 4.698l.1.45a.7.7 0 01-.683.852H2.7a.7.7 0 01-.683-.852l.1-.45z" fill="#626F84"/><path d="M18.935 20.59c-.018.125.003.262.11.33a.5.5 0 00.27.08H21.3a.7.7 0 00.683-.852l-.1-.45a6.002 6.002 0 00-4.394-4.518c-.369-.092-.631.16-.675.476-.013.095.034.186.1.254a7.283 7.283 0 011.893 3.506l.1.45c.055.247.062.49.028.724zM14.149 13.203c-.163.207-.322.494-.163.704a.223.223 0 00.186.093 4.2 4.2 0 004.174-3.726l.262-2.306A4.464 4.464 0 0014.172 3a.33.33 0 00-.27.13c-.077.1-.02.235.068.326a5.744 5.744 0 011.585 4.659l-.262 2.306a5.482 5.482 0 01-1.144 2.782z" fill="#626F84"/></svg>