<svg viewBox="0 0 24 24" fill="none" xmlns="http://www.w3.org/2000/svg"><path fill-rule="evenodd" clip-rule="evenodd" d="M9.828 3a4.464 4.464 0 00-4.436 4.968l.262 2.306a4.2 4.2 0 008.347 0l.262-2.306A4.464 4.464 0 009.828 3zm2.881 7.127l.262-2.306a3.164 3.164 0 10-6.287 0l.262 2.306a2.9 2.9 0 005.763 0zM7.974 15a6 6 0 00-5.857 4.698l-.1.45A.7.7 0 002.7 21h14.255a.7.7 0 00.683-.852l-.1-.45A6 6 0 0011.681 15H7.974zm8.224 4.7a4.7 4.7 0 00-4.517-3.4H7.974a4.7 4.7 0 00-4.517 3.4h12.741z" fill="#626F84"/><path d="M14.172 14c-.38 0-.515-.462-.277-.758.047-.059.092-.118.137-.178.164-.223.415-.364.687-.416a2.9 2.9 0 002.335-2.52l.262-2.307A3.166 3.166 0 0015 4.41a1.741 1.741 0 01-.91-.566c-.05-.062-.1-.122-.153-.181-.22-.252-.099-.662.236-.662a4.464 4.464 0 014.436 4.968l-.262 2.306A4.2 4.2 0 0114.172 14zM19.314 21c-.342 0-.587-.352-.59-.694-.004-.314.22-.606.535-.606h1.284a4.702 4.702 0 00-3.06-3.17 1.027 1.027 0 01-.52-.339c-.364-.465-.047-1.154.526-1.01a6.002 6.002 0 014.394 4.517l.1.45A.7.7 0 0121.3 21h-1.986z" fill="#626F84"/></svg>