<svg viewBox="0 0 24 24" fill="none" xmlns="http://www.w3.org/2000/svg"><path d="M12 3a4.464 4.464 0 00-4.435 4.968l.262 2.306a4.2 4.2 0 008.346 0l.263-2.306A4.464 4.464 0 0012 3zM11.885 16.042c.129-.499-.216-1.042-.73-1.042h-1.009a6 6 0 00-5.857 4.698l-.1.45a.7.7 0 00.684.852h6.593c.578 0 .93-.683.702-1.215a5.81 5.81 0 01-.283-3.743z" fill="#626F84"/><path fill-rule="evenodd" clip-rule="evenodd" d="M22 17.5a4.5 4.5 0 10-9 0 4.5 4.5 0 009 0zm-7.157 0a.65.65 0 01.65-.65h1.357v-1.222a.65.65 0 111.3 0v1.222h1.357a.65.65 0 110 1.3H18.15v1.222a.65.65 0 11-1.3 0V18.15h-1.357a.65.65 0 01-.65-.65z" fill="#626F84"/></svg>