<svg viewBox="0 0 24 24" fill="none" xmlns="http://www.w3.org/2000/svg"><path fill-rule="evenodd" clip-rule="evenodd" d="M3 16a3 3 0 003 3h12a3 3 0 003-3V8a3 3 0 00-3-3H6a3 3 0 00-3 3v8zm15-9.7A1.7 1.7 0 0119.7 8v.29H4.495a.65.65 0 00-.195.03V8A1.7 1.7 0 016 6.3h12zM4.3 9.56V16A1.7 1.7 0 006 17.7h12a1.7 1.7 0 001.7-1.7V9.59H4.495a.65.65 0 01-.195-.03zm5.975 2.617a.653.653 0 011.289-.214l.333 1.941c.019.11.177.11.197 0l.34-1.943a.653.653 0 011.287.217l-.402 2.468a1.342 1.342 0 01-2.65-.004l-.394-2.465zm5.239-.757a.653.653 0 00-.645.757l.394 2.465a1.342 1.342 0 002.65.004l.402-2.468a.653.653 0 00-1.288-.217l-.34 1.944c-.019.11-.177.11-.196 0l-.333-1.942a.653.653 0 00-.644-.543zm-8.538 2.085c0-.677.415-.965.64-.965.113 0 .243.05.368.187a.65.65 0 10.96-.878c-.33-.36-.792-.609-1.328-.609-1.2 0-1.94 1.158-1.94 2.264 0 1.107.74 2.265 1.94 2.265.58 0 1.073-.293 1.405-.7a.65.65 0 10-1.007-.822c-.133.163-.277.222-.398.222-.225 0-.64-.288-.64-.964z" fill="#626F84"/></svg>