<svg viewBox="0 0 24 24" fill="none" xmlns="http://www.w3.org/2000/svg"><path d="M7.565 7.968a4.464 4.464 0 118.87 0l-.262 2.306a4.2 4.2 0 01-8.346 0l-.262-2.306zM11.154 15c.515 0 .86.543.73 1.042a5.81 5.81 0 00.284 3.743c.228.532-.124 1.215-.702 1.215H4.873a.7.7 0 01-.684-.852l.1-.45A6 6 0 0110.146 15h1.008z" fill="#626F84"/><path fill-rule="evenodd" clip-rule="evenodd" d="M14.318 14.318a4.5 4.5 0 106.364 6.364 4.5 4.5 0 00-6.364-6.364zm5.445.92a3.2 3.2 0 10-4.526 4.525 3.2 3.2 0 004.526-4.526z" fill="#626F84"/><path fill-rule="evenodd" clip-rule="evenodd" d="M20.435 19.515l-4.95-4.95-.92.92 4.95 4.95.92-.92z" fill="#626F84"/></svg>