<svg viewBox="0 0 24 24" fill="none" xmlns="http://www.w3.org/2000/svg"><path fill-rule="evenodd" clip-rule="evenodd" d="M7.564 7.986a4.464 4.464 0 118.871 0l-.262 2.306a4.2 4.2 0 01-8.347 0l-.262-2.306zm3.59 7.032c.515 0 .86.543.73 1.042a5.812 5.812 0 00.283 3.744c.228.531-.123 1.214-.702 1.214H4.872a.7.7 0 01-.683-.852l.1-.45a6 6 0 015.857-4.698h1.008zm3.138 3.325a3.853 3.853 0 102.55-4.186.65.65 0 10.426 1.229 2.552 2.552 0 11-1.676 2.86l.501.492a.65.65 0 10.911-.927l-1.578-1.55a.65.65 0 00-.919.008l-1.55 1.578a.65.65 0 10.927.91l.408-.414z" fill="#626F84"/></svg>