<svg viewBox="0 0 24 24" fill="none" xmlns="http://www.w3.org/2000/svg"><path fill-rule="evenodd" clip-rule="evenodd" d="M7.565 7.968a4.464 4.464 0 118.87 0l-.262 2.306a4.2 4.2 0 01-8.346 0l-.262-2.306zm7.579-.147l-.262 2.306a2.9 2.9 0 01-5.764 0l-.262-2.306a3.164 3.164 0 116.288 0z" fill="#626F84"/><path d="M4.29 19.698A6 6 0 0110.145 15h1.511a.65.65 0 110 1.3h-1.51a4.7 4.7 0 00-4.517 3.4h6.027a.65.65 0 110 1.3H4.873a.7.7 0 01-.684-.852l.1-.45zM17.5 19a1.5 1.5 0 100-3 1.5 1.5 0 000 3z" fill="#626F84"/><path fill-rule="evenodd" clip-rule="evenodd" d="M16.964 13c-.467 0-.862.327-.926.766-.08.544-.678.871-1.215.665a.96.96 0 00-1.162.378l-.504.83a.857.857 0 00.224 1.135.862.862 0 01-.02 1.391.858.858 0 00-.236 1.144l.505.83a.96.96 0 001.148.383c.556-.204 1.176.144 1.26.712.064.44.46.766.926.766h1.009c.46 0 .853-.319.924-.752.096-.588.74-.94 1.325-.726a.96.96 0 001.148-.384l.505-.829a.858.858 0 00-.236-1.144.862.862 0 01-.02-1.391.858.858 0 00.224-1.136l-.504-.829a.96.96 0 00-1.162-.378c-.56.216-1.189-.12-1.28-.68-.07-.432-.463-.751-.924-.751h-1.009zm.508 1.3a.342.342 0 00-.307.213c-.407.925-1.424 1.409-2.386 1.247a.23.23 0 00-.237.103.232.232 0 00.021.263 2.16 2.16 0 01-.026 2.7.23.23 0 00-.023.264c.048.08.141.118.233.103.986-.157 2.015.355 2.422 1.3a.33.33 0 00.296.207h.013c.13 0 .243-.085.295-.204.423-.963 1.477-1.47 2.48-1.304a.228.228 0 00.234-.102.229.229 0 00-.023-.263 2.16 2.16 0 01-.027-2.701.231.231 0 00.021-.263.23.23 0 00-.237-.102c-.976.168-2.02-.311-2.443-1.252a.342.342 0 00-.306-.209z" fill="#626F84"/></svg>