<svg viewBox="0 0 24 24" fill="none" xmlns="http://www.w3.org/2000/svg"><path fill-rule="evenodd" clip-rule="evenodd" d="M12 3a4.464 4.464 0 00-4.435 4.968l.262 2.306a4.2 4.2 0 008.346 0l.263-2.306A4.464 4.464 0 0012 3zm2.882 7.127l.262-2.306a3.164 3.164 0 10-6.288 0l.262 2.306a2.9 2.9 0 005.764 0z" fill="#626F84"/><path d="M10.146 15a6 6 0 00-5.857 4.698l-.1.45a.7.7 0 00.684.852h6.784a.65.65 0 100-1.3H5.63a4.7 4.7 0 014.516-3.4h1.511a.65.65 0 100-1.3h-1.51z" fill="#626F84"/><path fill-rule="evenodd" clip-rule="evenodd" d="M14.318 14.318a4.5 4.5 0 106.364 6.364 4.5 4.5 0 00-6.364-6.364zm5.445.92a3.2 3.2 0 00-4.02-.414l4.433 4.432a3.2 3.2 0 00-.413-4.019zm-4.526 4.525a3.2 3.2 0 01-.413-4.02l4.432 4.433a3.2 3.2 0 01-4.019-.413z" fill="#626F84"/></svg>