<svg viewBox="0 0 24 24" fill="none" xmlns="http://www.w3.org/2000/svg"><path fill-rule="evenodd" clip-rule="evenodd" d="M12 3a4.464 4.464 0 00-4.436 4.968l.262 2.306a4.2 4.2 0 008.347 0l.262-2.306A4.464 4.464 0 0012 3zm2.881 7.127l.262-2.306a3.164 3.164 0 10-6.287 0l.262 2.306a2.9 2.9 0 005.763 0zM10.146 15a6 6 0 00-5.857 4.698l-.1.45a.7.7 0 00.683.852h7.785a.65.65 0 100-1.3H5.629a4.7 4.7 0 014.517-3.4h2.51a.65.65 0 100-1.3h-2.51zm4.146 3.343a3.853 3.853 0 102.55-4.186.65.65 0 10.426 1.229 2.552 2.552 0 11-1.676 2.86l.501.492a.65.65 0 10.911-.927l-1.578-1.55a.65.65 0 00-.919.008l-1.55 1.578a.65.65 0 10.927.91l.408-.414z" fill="#626F84"/></svg>