<svg viewBox="0 0 24 24" fill="none" xmlns="http://www.w3.org/2000/svg"><path d="M7.565 7.968a4.464 4.464 0 118.87 0l-.262 2.306a4.2 4.2 0 01-8.346 0l-.262-2.306zM11.154 15c.515 0 .86.543.73 1.042a5.81 5.81 0 00.284 3.743c.228.532-.124 1.215-.702 1.215H4.873a.7.7 0 01-.684-.852l.1-.45A6 6 0 0110.146 15h1.008z" fill="#626F84"/><path fill-rule="evenodd" clip-rule="evenodd" d="M16.038 13.766c.064-.44.46-.766.926-.766h1.009c.46 0 .853.32.924.752.091.559.72.895 1.28.679a.96.96 0 011.162.378l.504.83a.858.858 0 01-.224 1.135.862.862 0 00.02 1.391c.369.272.47.76.236 1.144l-.505.83a.96.96 0 01-1.148.383c-.585-.215-1.229.138-1.325.726-.07.433-.463.752-.924.752h-1.009c-.467 0-.862-.327-.926-.766-.084-.568-.704-.916-1.26-.712a.96.96 0 01-1.148-.384l-.505-.829a.858.858 0 01.236-1.144.862.862 0 00.02-1.391.857.857 0 01-.224-1.136l.504-.829a.96.96 0 011.162-.378c.537.207 1.135-.121 1.215-.665zM17.5 19a1.5 1.5 0 100-3 1.5 1.5 0 000 3z" fill="#626F84"/></svg>