<svg viewBox="0 0 28 28" fill="none" xmlns="http://www.w3.org/2000/svg"><rect x=".25" y="4.25" width="27.5" height="19.5" rx="2.75" fill="#fff" stroke="#D6D8DD" stroke-width=".5"/><mask id="a" style="mask-type:alpha" maskUnits="userSpaceOnUse" x="0" y="4" width="28" height="20"><rect x=".25" y="4.25" width="27.5" height="19.5" rx="2.75" fill="#fff" stroke="#fff" stroke-width=".5"/></mask><g mask="url(#a)" fill-rule="evenodd" clip-rule="evenodd"><path d="M0 24h28V13.333H12.444l.89.667L0 24z" fill="#DD1C34"/><path d="M28 13.333H12.444L0 4h28v9.333z" fill="#0D4BC3"/><path d="M2 8a.667.667 0 100-1.333A.667.667 0 002 8zm8 6.667a.667.667 0 100-1.334.667.667 0 000 1.334zm-7.333 6a.667.667 0 11-1.334 0 .667.667 0 011.334 0zm1.865-5.34l-1.14 1.753.432-2.047a1.344 1.344 0 01-.19-.19l-2.047.433 1.753-1.141a1.352 1.352 0 010-.27l-1.753-1.14 2.047.432c.056-.07.12-.133.19-.19L3.39 10.92l1.141 1.753a1.33 1.33 0 01.27 0l1.14-1.753-.432 2.047c.07.057.133.12.19.19l2.046-.433-1.753 1.141a1.35 1.35 0 010 .27l1.753 1.14-2.046-.432c-.057.07-.12.133-.19.19l.432 2.047-1.14-1.753a1.33 1.33 0 01-.27 0z" fill="#FDD64D"/></g></svg>