<svg viewBox="0 0 24 24" fill="none" xmlns="http://www.w3.org/2000/svg"><path fill-rule="evenodd" clip-rule="evenodd" d="M4.62 6.38c.045-.932.6-1.67 1.263-2.142l1.208-.862a1.95 1.95 0 012.72.456l1.42 1.99a1.95 1.95 0 01-.455 2.72l-1.012.723a.047.047 0 00-.005.004c.2.62.675 1.853 1.616 3.172a11.888 11.888 0 002.474 2.561.047.047 0 00.005-.003l1.013-.722a1.95 1.95 0 012.72.455l1.458 2.044a1.95 1.95 0 01-.456 2.72l-1.165.83c-.692.494-1.61.775-2.531.486-1.596-.501-4.493-1.905-7.248-5.766-2.768-3.88-3.103-7.03-3.025-8.665zm2.018-1.084c-.443.316-.7.724-.72 1.147-.064 1.36.196 4.218 2.785 7.848 2.578 3.613 5.231 4.857 6.58 5.28.428.135.926.025 1.386-.303l1.166-.83a.65.65 0 00.152-.907l-1.459-2.044a.65.65 0 00-.906-.152l-1.013.722a1.291 1.291 0 01-1.527-.004 13.178 13.178 0 01-2.765-2.857 13.176 13.176 0 01-1.8-3.544 1.291 1.291 0 01.492-1.445l1.012-.722a.65.65 0 00.152-.907l-1.42-1.991a.65.65 0 00-.907-.152l-1.208.861z" fill="#626F84"/></svg>