<svg viewBox="0 0 25 24" fill="none" xmlns="http://www.w3.org/2000/svg"><path fill-rule="evenodd" clip-rule="evenodd" d="M6.006 5.134c.368-.122.761.1.845.477l2.36 10.62c.441 1.99 2.436 3.233 4.428 2.763l5.673-1.34a.65.65 0 10-.302-1.265l-5.672 1.34a2.362 2.362 0 01-2.852-1.78L8.126 5.33a1.96 1.96 0 00-2.533-1.429l-1.182.392a.65.65 0 10.413 1.234l1.182-.393zM7.526 20.5a1.5 1.5 0 001.504-1.497 1.5 1.5 0 00-1.504-1.497 1.5 1.5 0 00-1.505 1.497A1.5 1.5 0 007.526 20.5zM9.82 6.528a1.35 1.35 0 011.032-1.61l4.158-.914a1.357 1.357 0 011.617 1.027l1.917 8.633a1.35 1.35 0 01-1.032 1.61l-4.157.914a1.357 1.357 0 01-1.617-1.027L9.82 6.528zm1.314-.34a.05.05 0 00-.038.06l.81 3.65 4.256-.938-.81-3.649a.05.05 0 00-.06-.038l-4.158.914zm5.31 4.041l-4.255.938.824 3.713a.05.05 0 00.06.038l4.157-.914a.05.05 0 00.039-.06l-.826-3.715z" fill="#626F84"/></svg>