<svg viewBox="0 0 24 24" fill="none" xmlns="http://www.w3.org/2000/svg"><path fill-rule="evenodd" clip-rule="evenodd" d="M20.312 11.754l-2.11-.004-4.825 4.825.013 2.102c-.127 1.078-1.442 1.535-2.21.767l-2.842-2.842-4.503 4.503a.65.65 0 11-.92-.92l4.504-4.502-2.862-2.863c-.768-.768-.312-2.083.767-2.21l2.101.013 4.825-4.825-.004-2.11c.127-1.079 1.442-1.535 2.21-.767l6.623 6.623c.768.768.312 2.083-.767 2.21zm-8.223 6.76l-6.603-6.603 2.474.015.003-.002 4.113 4.113-.002.003.015 2.474zm.535-11.252l-3.742 3.742 4.114 4.114 3.742-3.742-4.114-4.114zm.92-.92l.007-.007-.005-2.486 6.605 6.605-2.486-.005-.008.007-4.113-4.113z" fill="#626F84"/></svg>