<svg viewBox="0 0 28 28" fill="none" xmlns="http://www.w3.org/2000/svg"><rect y="4" width="28" height="20" rx="3" fill="#fff"/><mask id="a" style="mask-type:alpha" maskUnits="userSpaceOnUse" x="0" y="4" width="28" height="20"><rect y="4" width="28" height="20" rx="3" fill="#fff"/></mask><g mask="url(#a)"><path fill="#062365" d="M0 4h28v20H0z"/><path d="M0 3.667h-.901l.684.586 4.55 3.9v1.009l-4.527 3.233-.14.1v1.44l.51-.319 5.253-3.283h1.13l4.523 3.23a.554.554 0 00.682-.87L7.667 9.18V8.172l4.387-3.134a.667.667 0 00.28-.543V3.4l-.51.318L6.57 7h-1.13L.86 3.729l-.088-.062H0z" fill="#DB1E36" stroke="#fff" stroke-width=".667"/><path fill-rule="evenodd" clip-rule="evenodd" d="M0 7.333V10h4.667v3.333c0 .368.298.667.666.667h1.334a.667.667 0 00.666-.667V10H12a.667.667 0 00.667-.667V8A.667.667 0 0012 7.333H7.333V4H4.667v3.333H0z" fill="#fff"/><path fill-rule="evenodd" clip-rule="evenodd" d="M0 8h5.333V4h1.334v4H12v1.333H6.667v4H5.333v-4H0V8z" fill="#DB1E36"/><path d="M20.059 19C17 19 17 15.882 17 11.216h6.118c0 4.745 0 7.784-3.06 7.784z" fill="#4564B9"/><mask id="b" style="mask-type:alpha" maskUnits="userSpaceOnUse" x="17" y="11" width="7" height="8"><path d="M20.059 19C17 19 17 15.882 17 11.216h6.118c0 4.745 0 7.784-3.06 7.784z" fill="#C4C4C4"/></mask><g mask="url(#b)"><path d="M15.04 19l5-7.765 5 7.765h-10z" fill="#E9E41B"/><path d="M16.02 19l4.02-6.235L24.058 19h-8.04z" fill="#3C732E"/></g><path d="M18.333 10.118l.471 1.098h2.569l-.451-1.138.45-1.078h-2.568l-.47 1.118z" fill="#8C8076"/></g></svg>