<svg viewBox="0 0 24 24" fill="none" xmlns="http://www.w3.org/2000/svg"><path fill-rule="evenodd" clip-rule="evenodd" d="M12.5 16.471l-1.064.963c-2.2 1.985-5.053 2.299-7.2.348a.74.74 0 01-.052-.047l-.006-.006a5.753 5.753 0 01-.293-.295l-1.433-1.438a.715.715 0 011.013-1.01l1.427 1.433 3.165-2.856L4.75 9.928A2.263 2.263 0 017.435 6.38l5.529 2.756 4.318-3.896c1.171-1.057 2.817-1.171 3.874 0s.623 2.839-.548 3.896l-3.68 3.33 1.53 4.061a2.263 2.263 0 01-3.793 2.323L12.5 16.471zM6.855 7.544l6.322 3.15 4.975-4.489c.775-.698 1.577-.606 2.039-.094.235.26.306.554.246.894-.065.37-.297.802-.7 1.166l-9.172 8.299c-.922.83-1.918 1.256-2.834 1.317a3.342 3.342 0 01-1.917-.45l4.082-3.683-4.183-4.6a.963.963 0 011.142-1.51zm6.61 8.055l2.165 2.38a.963.963 0 001.614-.989l-.002-.004-1.35-3.582-2.428 2.195z" fill="#626F84"/></svg>