<svg viewBox="0 0 24 24" fill="none" xmlns="http://www.w3.org/2000/svg"><path fill-rule="evenodd" clip-rule="evenodd" d="M5 5.005a3 3 0 00-3 3v7.99a3 3 0 003 3h14a3 3 0 003-3v-7.99a3 3 0 00-3-3H5zm1.05 10.37V9.325c0-.745.605-1.35 1.35-1.35h1.862a2.81 2.81 0 010 5.62H7.35v1.78a.65.65 0 11-1.3 0zm1.3-6.05v2.97h1.912a1.51 1.51 0 000-3.02H7.4a.05.05 0 00-.05.05zm8.97-.568a.65.65 0 10-1.3 0V10h-.985a.65.65 0 000 1.3h.985v2.788a1.95 1.95 0 001.95 1.95h1.023a.65.65 0 100-1.3H16.97a.65.65 0 01-.65-.65V11.3h1.063a.65.65 0 100-1.3H16.32V8.758z" fill="#626F84"/></svg>