<svg viewBox="0 0 28 28" fill="none" xmlns="http://www.w3.org/2000/svg"><rect y="4" width="28" height="20" rx="3" fill="#fff"/><mask id="a" style="mask-type:alpha" maskUnits="userSpaceOnUse" x="0" y="4" width="28" height="20"><rect y="4" width="28" height="20" rx="3" fill="#fff"/></mask><g mask="url(#a)"><path fill="#FF2936" d="M0 4h28v20H0z"/><path fill-rule="evenodd" clip-rule="evenodd" d="M0 24h10.667V4H0v20z" fill="#128415"/><path d="M10.667 17.333a3.333 3.333 0 100-6.666 3.333 3.333 0 000 6.666z" stroke="#FAF94F" stroke-width="1.333"/><path fill-rule="evenodd" clip-rule="evenodd" d="M9.333 12.333c0-.184.15-.333.334-.333h2c.184 0 .333.15.333.333v2.334a1.333 1.333 0 01-2.667 0v-2.334z" fill="#fff"/><path fill-rule="evenodd" clip-rule="evenodd" d="M10.667 14.667c.368 0 .666-.966.666-1.334a.667.667 0 10-1.333 0c0 .368.299 1.334.667 1.334z" fill="#1D50B5"/></g></svg>