<svg viewBox="0 0 25 24" fill="none" xmlns="http://www.w3.org/2000/svg"><path fill-rule="evenodd" clip-rule="evenodd" d="M3.111 6.613h11.105c.361 0 .654.29.654.65v.684c0 .026.001.052.004.077v2.888c0 1.076.878 1.95 1.96 1.95h2.421c.013.1.02.201.02.303v1.565a.05.05 0 01-.05.05H4.853a.05.05 0 01-.05-.05v-3.56a.652.652 0 00-.654-.65.652.652 0 00-.653.65v3.56c0 .745.607 1.35 1.357 1.35h14.372c.75 0 1.356-.605 1.356-1.35v-1.565c0-.464-.088-.924-.261-1.355l-1.048-2.608a3.226 3.226 0 00-3.098-2.017 1.955 1.955 0 00-1.958-1.872H3.111a.652.652 0 00-.653.65c0 .359.292.65.653.65zm13.07 4.298V8.486a1.92 1.92 0 011.878 1.198l.754 1.877h-1.979a.652.652 0 01-.653-.65zM4.163 7.939a.652.652 0 00-.654.65c0 .359.293.65.654.65h3.219c.36 0 .653-.291.653-.65a.652.652 0 00-.653-.65h-3.22zm5.156 10.306c0 .828-.675 1.5-1.507 1.5a1.504 1.504 0 01-1.508-1.5c0-.829.675-1.5 1.508-1.5.832 0 1.507.671 1.507 1.5zm8.394 0c0 .828-.675 1.5-1.508 1.5a1.504 1.504 0 01-1.507-1.5c0-.829.675-1.5 1.507-1.5.833 0 1.508.671 1.508 1.5z" fill="#626F84"/></svg>