<svg viewBox="0 0 25 24" fill="none" xmlns="http://www.w3.org/2000/svg"><path fill-rule="evenodd" clip-rule="evenodd" d="M2.518 5.963a.65.65 0 01.65-.65H13.76c1.05 0 1.9.851 1.9 1.901h.752c1.22 0 2.32.734 2.788 1.861l1.167 2.811c.152.367.23.76.23 1.157v1.745c0 .722-.585 1.308-1.308 1.308H4.908a1.3 1.3 0 01-1.3-1.3v-3.529c0-.426.346-.772.773-.772h1.135a.647.647 0 100-1.294H4.255a.647.647 0 110-1.294h3.201a.647.647 0 000-1.294H3.167a.65.65 0 01-.65-.65zm13.057 3.24c0-.388.316-.703.705-.703h.498c.528 0 1.005.317 1.208.805l.801 1.928a.704.704 0 01-.65.974H16.28a.704.704 0 01-.705-.704v-2.3z" fill="#626F84"/><path d="M9.393 18.244a1.5 1.5 0 11-3 0 1.5 1.5 0 013 0zM17.745 18.244a1.5 1.5 0 11-3 0 1.5 1.5 0 013 0z" fill="#626F84"/></svg>