<svg viewBox="0 0 24 24" fill="none" xmlns="http://www.w3.org/2000/svg"><path d="M14.65 10.697a.7.7 0 00-.7.7v1.206a.7.7 0 00.7.7h2.004a.7.7 0 00.7-.7v-1.206a.7.7 0 00-.7-.7H14.65z" fill="#626F84"/><path fill-rule="evenodd" clip-rule="evenodd" d="M7 4a3 3 0 00-3 3v11.7A1.3 1.3 0 005.3 20h13.4a1.3 1.3 0 001.3-1.3V7a3 3 0 00-3-3H7zm10 1.3h-3.65a.7.7 0 00-.7.7v12a.7.7 0 00.7.7H18a.7.7 0 00.7-.7V7A1.7 1.7 0 0017 5.3zm-10 0h3.65a.7.7 0 01.7.7v2.215a.7.7 0 01-.7.7H6a.7.7 0 01-.7-.7V7A1.7 1.7 0 017 5.3zm-1 4.915a.7.7 0 00-.7.7v2.216a.7.7 0 00.7.7h4.65a.7.7 0 00.7-.7v-2.216a.7.7 0 00-.7-.7H6zM6 18.7a.7.7 0 01-.7-.7v-2.17a.7.7 0 01.7-.7h4.65a.7.7 0 01.7.7V18a.7.7 0 01-.7.7H6z" fill="#626F84"/></svg>