<svg viewBox="0 0 24 24" fill="none" xmlns="http://www.w3.org/2000/svg"><path d="M7 4h3.65a.7.7 0 01.7.7v3.515a.7.7 0 01-.7.7H4.7a.7.7 0 01-.7-.7V7a3 3 0 013-3zM4.7 10.215a.7.7 0 00-.7.7v2.216a.7.7 0 00.7.7h5.95a.7.7 0 00.7-.7v-2.216a.7.7 0 00-.7-.7H4.7zM4 18.7v-2.87a.7.7 0 01.7-.7h5.95a.7.7 0 01.7.7v3.47a.7.7 0 01-.7.7H5.3A1.3 1.3 0 014 18.7z" fill="#626F84"/><path fill-rule="evenodd" clip-rule="evenodd" d="M18.7 20h-5.35a.7.7 0 01-.7-.7V4.7a.7.7 0 01.7-.7H17a3 3 0 013 3v11.7a1.3 1.3 0 01-1.3 1.3zm-4.05-9.819a.7.7 0 00-.7.7v2.237a.7.7 0 00.7.7H18a.7.7 0 00.7-.7v-2.237a.7.7 0 00-.7-.7h-3.35z" fill="#626F84"/></svg>