<svg viewBox="0 0 24 24" fill="none" xmlns="http://www.w3.org/2000/svg"><path d="M13.892 11.496h-.914v-1.73h.914a.865.865 0 010 1.73z" fill="#626F84"/><path fill-rule="evenodd" clip-rule="evenodd" d="M17.65 3.35a3 3 0 013 3v10a3 3 0 01-3 3h-8a3 3 0 01-3-3v-10a3 3 0 013-3h8zm-5.322 5.116a.65.65 0 00-.65.65v4.465a.65.65 0 101.3 0v-.785h.914a2.165 2.165 0 000-4.33h-1.564z" fill="#626F84"/><path d="M4 9.35a.65.65 0 111.3 0v9.4a1.95 1.95 0 001.95 1.95h8.4a.65.65 0 110 1.3h-8.4A3.25 3.25 0 014 18.75v-9.4z" fill="#626F84"/></svg>