<svg viewBox="0 0 24 24" fill="none" xmlns="http://www.w3.org/2000/svg"><path d="M8.946 10.475c.071-.62.258-1.215.544-1.758a5.183 5.183 0 001.472 4.204l1.504 1.52a.65.65 0 10.924-.915l-1.505-1.52c-1.266-1.279-1.447-3.309-.51-4.83A.378.378 0 0111.699 7h.739a1.3 1.3 0 01.983.45l.274.317a2.3 2.3 0 01.103 2.882l-.039.051a.284.284 0 00.105.427 4.07 4.07 0 011.695 5.826l-.565.906a.3.3 0 01-.254.141h-.873v3.35a.65.65 0 11-1.3 0V18h-1.294v3.35a.65.65 0 01-1.3 0V18h-1.85a.3.3 0 01-.297-.347l1.061-6.676.059-.502zM12.952 5.524C12.026 6.702 9.335 6.73 8.55 4.339c-.06-.182.084-.36.274-.387.735-.104 1.123-.517 1.593-1.019.155-.165.319-.34.507-.516a1.529 1.529 0 01.08-.074c.254-.215.574-.343.924-.343.895 0 1.591.844 1.49 1.807l-.088.838a1.58 1.58 0 01-.378.879z" fill="#626F84"/></svg>