<svg viewBox="0 0 24 24" fill="none" xmlns="http://www.w3.org/2000/svg"><path d="M14.7 3H9.3A1.3 1.3 0 008 4.3v1.696a.7.7 0 00.7.7h6.6a.7.7 0 00.7-.7V4.3A1.3 1.3 0 0014.7 3z" fill="#626F84"/><path fill-rule="evenodd" clip-rule="evenodd" d="M21 15a3 3 0 01-3 3h-.5v-4.2a1.3 1.3 0 00-1.3-1.3H7.8a1.3 1.3 0 00-1.3 1.3V18H6a3 3 0 01-3-3v-4a3 3 0 013-3h12a3 3 0 013 3v4zm-2.514-3.33a1 1 0 100-2 1 1 0 000 2z" fill="#626F84"/><path d="M14.7 21a1.3 1.3 0 001.3-1.3v-5a.7.7 0 00-.7-.7H8.7a.7.7 0 00-.7.7v5A1.3 1.3 0 009.3 21h5.4z" fill="#626F84"/></svg>