<svg viewBox="0 0 24 24" fill="none" xmlns="http://www.w3.org/2000/svg"><path d="M8.8 3.006a1.95 1.95 0 00-1.95 1.95v1.099a.65.65 0 001.3 0v-1.1a.65.65 0 01.65-.65h6.4a.65.65 0 01.65.65v1.1a.65.65 0 101.3 0v-1.1a1.95 1.95 0 00-1.95-1.95H8.8zM18.696 11.48a1 1 0 11-2 0 1 1 0 012 0z" fill="#626F84"/><path fill-rule="evenodd" clip-rule="evenodd" d="M17 19.7a1.3 1.3 0 01-1.3 1.3H8.3A1.3 1.3 0 017 19.7V18H6a3 3 0 01-3-3v-4a3 3 0 013-3h12a3 3 0 013 3v4a3 3 0 01-3 3h-1v1.7zm-1.3 0H8.3v-5.4h7.4v5.4zm1.3-3h1a1.7 1.7 0 001.7-1.7v-4A1.7 1.7 0 0018 9.3H6A1.7 1.7 0 004.3 11v4A1.7 1.7 0 006 16.7h1v-3a.7.7 0 01.7-.7h8.6a.7.7 0 01.7.7v3z" fill="#626F84"/></svg>