<svg viewBox="0 0 24 24" fill="none" xmlns="http://www.w3.org/2000/svg"><path d="M3.713 11.85c-.391 0-.71-.322-.672-.71a9.001 9.001 0 0117.918 0c.037.388-.28.71-.672.71H16.5a.65.65 0 00-.594.386l-1.248 2.809L12.5 6.5a.65.65 0 00-1.237-.063l-2.426 7.647-1.296-1.945A.65.65 0 007 11.85H3.713z" fill="#626F84"/><path d="M3.868 13.15c-.422 0-.75.371-.66.783C4.093 17.975 7.693 21 12 21c4.307 0 7.907-3.025 8.792-7.067.09-.412-.238-.783-.66-.783h-3.21l-1.828 4.114a.65.65 0 01-1.223-.099l-2.108-8.359-2.155 6.922a.65.65 0 01-1.149.133L6.652 13.15H3.868z" fill="#626F84"/></svg>