<svg viewBox="0 0 28 28" fill="none" xmlns="http://www.w3.org/2000/svg"><rect x=".25" y="4.25" width="27.5" height="19.5" rx="2.75" fill="#fff" stroke="#F5F5F5" stroke-width=".5"/><mask id="a" style="mask-type:alpha" maskUnits="userSpaceOnUse" x="0" y="4" width="28" height="20"><rect x=".25" y="4.25" width="27.5" height="19.5" rx="2.75" fill="#fff" stroke="#fff" stroke-width=".5"/></mask><g mask="url(#a)"><path fill-rule="evenodd" clip-rule="evenodd" d="M0 4h28v4H0V4zm0 8h28v4H0v-4zm0 8v4h28v-4H0z" fill="#FA2222"/><path fill-rule="evenodd" clip-rule="evenodd" d="M0 4l13.333 10L0 24V4z" fill="#1D63F9"/><g filter="url(#filter0_d_17_4742)"><path fill-rule="evenodd" clip-rule="evenodd" d="M4.667 15.274l-1.96 1.423.748-2.303-1.959-1.424h2.422l.749-2.303.749 2.302h2.42l-1.958 1.425.748 2.303-1.96-1.423z" fill="url(#paint0_linear_17_4742)"/></g></g><defs><linearGradient id="paint0_linear_17_4742" x1="1.333" y1="10.667" x2="1.333" y2="17.333" gradientUnits="userSpaceOnUse"><stop stop-color="#fff"/><stop offset="1" stop-color="#F0F0F0"/></linearGradient><filter id="filter0_d_17_4742" x="1.496" y="10.667" width="6.34" height="7.03" filterUnits="userSpaceOnUse" color-interpolation-filters="sRGB"><feFlood flood-opacity="0" result="BackgroundImageFix"/><feColorMatrix in="SourceAlpha" values="0 0 0 0 0 0 0 0 0 0 0 0 0 0 0 0 0 0 127 0" result="hardAlpha"/><feOffset dy="1"/><feColorMatrix values="0 0 0 0 0 0 0 0 0 0 0 0 0 0 0 0 0 0 0.06 0"/><feBlend in2="BackgroundImageFix" result="effect1_dropShadow_17_4742"/><feBlend in="SourceGraphic" in2="effect1_dropShadow_17_4742" result="shape"/></filter></defs></svg>