<svg viewBox="0 0 25 24" fill="none" xmlns="http://www.w3.org/2000/svg"><path d="M5.009 2h.8a.65.65 0 110 1.3h-.8a1.7 1.7 0 00-1.7 1.7v.691a.65.65 0 01-1.3 0V5a3 3 0 013-3zM2.659 17.659a.65.65 0 00-.65.65V19a3 3 0 003 3h.8a.65.65 0 100-1.3h-.8a1.7 1.7 0 01-1.7-1.7v-.691a.65.65 0 00-.65-.65zM21.359 17.659a.65.65 0 00-.65.65V19a1.7 1.7 0 01-1.7 1.7h-.583a.65.65 0 100 1.3h.583a3 3 0 003-3v-.691a.65.65 0 00-.65-.65zM21.359 6.341a.65.65 0 00.65-.65V5a3 3 0 00-3-3h-.583a.65.65 0 100 1.3h.583a1.7 1.7 0 011.7 1.7v.691c0 .359.29.65.65.65z" fill="#626F84"/><path fill-rule="evenodd" clip-rule="evenodd" d="M5.933 7.224a1.3 1.3 0 011.3-1.3H9.95a1.3 1.3 0 011.3 1.3v2.717a1.3 1.3 0 01-1.3 1.3H7.233a1.3 1.3 0 01-1.3-1.3V7.224zm1.3 0H9.95v2.717H7.233V7.224zM5.933 14.06a1.3 1.3 0 011.3-1.3H9.95a1.3 1.3 0 011.3 1.3v2.716a1.3 1.3 0 01-1.3 1.3H7.233a1.3 1.3 0 01-1.3-1.3V14.06zm1.3 0H9.95v2.716H7.233V14.06z" fill="#626F84"/><path d="M16.785 18.279h-2.2a.65.65 0 110-1.3h2.2v-2.373a.65.65 0 011.3 0v2.373a1.3 1.3 0 01-1.3 1.3z" fill="#626F84"/><path fill-rule="evenodd" clip-rule="evenodd" d="M12.768 7.224a1.3 1.3 0 011.3-1.3h2.716a1.3 1.3 0 011.3 1.3v2.717a1.3 1.3 0 01-1.3 1.3h-2.716a1.3 1.3 0 01-1.3-1.3V7.224zm1.3 0h2.716v2.717h-2.716V7.224z" fill="#626F84"/><path d="M13.418 12.717a.65.65 0 01.65.65v.979a.65.65 0 11-1.3 0v-.98a.65.65 0 01.65-.65z" fill="#626F84"/></svg>