<svg viewBox="0 0 24 24" fill="none" xmlns="http://www.w3.org/2000/svg"><path d="M8.65 6.999a.65.65 0 100 1.3h6.703a.65.65 0 100-1.3H8.65zM8 10.647a.65.65 0 01.65-.65h6.703a.65.65 0 110 1.3H8.65a.65.65 0 01-.65-.65zM8 13.646a.65.65 0 01.65-.65h3.201a.65.65 0 110 1.3h-3.2a.65.65 0 01-.651-.65z" fill="#626F84"/><path fill-rule="evenodd" clip-rule="evenodd" d="M5 19.394L5.009 5.6A2.6 2.6 0 017.609 3h8.79A2.6 2.6 0 0119 5.6l-.009 13.8c0 1.253-1.378 2.02-2.444 1.358L14.87 19.72a.6.6 0 00-.67.026l-1.289.945a1.602 1.602 0 01-1.894 0l-1.279-.938a.6.6 0 00-.675-.024l-1.608 1.016C6.39 21.42 5 20.654 5 19.394zm12.691.004L17.7 5.6A1.3 1.3 0 0016.4 4.3H7.61a1.3 1.3 0 00-1.301 1.3L6.3 19.394a.3.3 0 00.462.252l1.607-1.016a1.9 1.9 0 012.14.075l1.278.938c.106.078.25.078.356 0l1.288-.945a1.9 1.9 0 012.126-.083l1.675 1.038a.301.301 0 00.46-.255z" fill="#626F84"/></svg>