<svg viewBox="0 0 24 24" fill="none" xmlns="http://www.w3.org/2000/svg"><path fill-rule="evenodd" clip-rule="evenodd" d="M8.038 3a3 3 0 00-3 3v13.376a1.643 1.643 0 002.542 1.375l1.5-.982a.7.7 0 01.806.028l1.127.853c.147.11.307.195.475.253.421.144.692-.326.583-.758a6.076 6.076 0 016.136-7.564c.435.017.83-.31.83-.746V6a3 3 0 00-3-3h-8zm.668 3.993a.65.65 0 000 1.3h6.7a.65.65 0 000-1.3h-6.7zm-.65 3.65a.65.65 0 01.65-.65h6.7a.65.65 0 010 1.3h-6.7a.65.65 0 01-.65-.65zm.65 2.348a.65.65 0 100 1.3h3.207a.65.65 0 100-1.3H8.706z" fill="#626F84"/><path d="M15.72 18.61l.501.492a.65.65 0 10.911-.928l-1.578-1.55a.65.65 0 00-.92.009l-1.55 1.578a.65.65 0 10.928.91l.408-.414a3.853 3.853 0 102.55-4.186.65.65 0 00.426 1.228 2.552 2.552 0 11-1.676 2.86z" fill="#626F84"/></svg>