<svg viewBox="0 0 24 24" fill="none" xmlns="http://www.w3.org/2000/svg"><path d="M10.222 6.38A6.193 6.193 0 0119.01 12a6.187 6.187 0 01-6.191 6.19c-3.42 0-6.18-2.777-6.18-6.19 0-.11.003-.218.008-.326L7.74 12.84c.13.14.31.21.48.21.16 0 .31-.05.42-.18a.65.65 0 00.03-.92L6.48 9.6a.69.69 0 00-1.02 0l-2.19 2.35a.65.65 0 00.03.92c.26.25.67.23.92-.03l1.129-1.206A7.587 7.587 0 005.34 12c0 4.127 3.34 7.49 7.48 7.49A7.487 7.487 0 0020.31 12 7.493 7.493 0 009.678 5.2a.65.65 0 00.543 1.18z" fill="#626F84"/></svg>