<svg viewBox="0 0 28 28" fill="none" xmlns="http://www.w3.org/2000/svg"><path d="M.25 21A2.75 2.75 0 003 23.75h22A2.75 2.75 0 0027.75 21V7A2.75 2.75 0 0025 4.25H3A2.75 2.75 0 00.25 7v14z" fill="#fff" stroke="#D6D8DD" stroke-width=".5"/><mask id="a" style="mask-type:alpha" maskUnits="userSpaceOnUse" x="0" y="4" width="28" height="20"><path d="M0 21a3 3 0 003 3h22a3 3 0 003-3V7a3 3 0 00-3-3H3a3 3 0 00-3 3v14z" fill="#B82B21"/></mask><g mask="url(#a)"><path d="M-3 17h34V4H-3v13z" fill="#B82B21"/><path d="M14.4 12.32L13.993 11l-.407 1.32-.7-1.19-.091 1.377-.956-.996.229 1.362-1.16-.75.537 1.272-1.302-.461.816 1.114-1.373-.15 1.05.897-1.37.171 1.23.63-1.295.483 1.341.33L9.66 17h8.669l-.884-.591 1.341-.33-1.294-.483 1.23-.63-1.371-.171 1.05-.896-1.372.149.815-1.114-1.301.461.537-1.272-1.16.75.229-1.362-.956.996-.092-1.378-.7 1.19z" fill="#F2D046"/><path fill-rule="evenodd" clip-rule="evenodd" d="M-3.003 16.213h34.285v1.665c-.57 0-1.142.183-1.713.367-.571.184-1.143.367-1.716.367-.57 0-1.141-.183-1.712-.366-.572-.184-1.144-.368-1.716-.368-.572 0-1.144.184-1.715.367-.571.184-1.142.367-1.713.367-.57 0-1.142-.183-1.713-.367-.572-.183-1.143-.367-1.716-.367-.572 0-1.144.184-1.715.368-.57.183-1.141.367-1.711.367-.573 0-1.144-.184-1.716-.368-.572-.183-1.143-.367-1.716-.367-.57 0-1.14.183-1.712.367-.572.184-1.144.367-1.716.367-.57 0-1.142-.183-1.713-.366-.572-.184-1.145-.368-1.716-.368-.57 0-1.142.184-1.713.367-.571.184-1.142.367-1.713.367-.575 0-1.148-.184-1.72-.367-.57-.184-1.14-.367-1.71-.367v-1.665zm34.285 4.115v-1.224c-.57 0-1.142.183-1.713.367-.571.183-1.143.367-1.716.367-.57 0-1.141-.183-1.712-.367-.572-.183-1.144-.367-1.716-.367-.572 0-1.144.184-1.715.367-.571.184-1.142.367-1.713.367-.57 0-1.142-.183-1.713-.367-.572-.183-1.143-.367-1.716-.367-.572 0-1.144.184-1.715.367-.57.184-1.141.367-1.711.367-.573 0-1.144-.183-1.716-.367-.572-.184-1.143-.367-1.716-.367-.57 0-1.14.183-1.712.367-.572.183-1.144.367-1.716.367-.57 0-1.142-.183-1.713-.367-.572-.183-1.145-.367-1.716-.367-.57 0-1.142.183-1.713.367-.571.183-1.142.367-1.713.367-.575 0-1.148-.184-1.72-.368-.57-.183-1.14-.366-1.71-.366v1.224c.57 0 1.14.183 1.71.367.572.183 1.145.367 1.72.367.57 0 1.142-.183 1.713-.367.571-.183 1.142-.367 1.713-.367.571 0 1.144.184 1.716.367.571.184 1.143.367 1.713.367.572 0 1.144-.183 1.716-.367.571-.183 1.142-.367 1.712-.367.573 0 1.144.184 1.716.367.572.184 1.143.367 1.716.367.57 0 1.14-.183 1.71-.366.572-.184 1.144-.368 1.716-.368.573 0 1.144.184 1.716.367.571.184 1.142.367 1.713.367.57 0 1.142-.183 1.713-.367.571-.183 1.143-.367 1.715-.367.572 0 1.144.184 1.716.368.571.183 1.142.366 1.712.366.573 0 1.145-.183 1.716-.367.571-.183 1.142-.367 1.713-.367zm0 1.223V24H-3.002v-2.449c.57 0 1.14.184 1.71.367.572.184 1.145.369 1.72.369.57 0 1.142-.184 1.713-.368.571-.184 1.142-.368 1.713-.368.571 0 1.144.184 1.716.368.571.184 1.143.368 1.713.368.572 0 1.144-.184 1.716-.368.571-.184 1.142-.368 1.712-.368.573 0 1.144.184 1.716.368.572.184 1.143.368 1.716.368.57 0 1.14-.184 1.71-.368.572-.184 1.144-.368 1.716-.368.573 0 1.144.184 1.716.368.571.184 1.142.368 1.713.368.57 0 1.142-.184 1.713-.368.571-.184 1.143-.368 1.715-.368.572 0 1.144.184 1.716.368.571.184 1.142.368 1.712.368.573 0 1.145-.184 1.716-.368s1.142-.368 1.713-.368z" fill="#1C316C"/><path d="M-3.003 16.654c1.141 0 2.283.734 3.43.734 1.141 0 2.285-.735 3.426-.735 1.143 0 2.288.735 3.43.735 1.143 0 2.286-.735 3.427-.735 1.145 0 2.287.735 3.432.735 1.14 0 2.282-.735 3.426-.735 1.145 0 2.286.735 3.43.735 1.14 0 2.284-.735 3.427-.735 1.143 0 2.287.735 3.428.735 1.145 0 2.286-.735 3.43-.735v-1.225c-1.144 0-2.285.734-3.43.734-1.141 0-2.285-.734-3.428-.734-1.143 0-2.287.734-3.428.734-1.143 0-2.284-.734-3.429-.734-1.144 0-2.285.734-3.426.734-1.145 0-2.287-.734-3.432-.734-1.14 0-2.284.734-3.428.734-1.141 0-2.286-.734-3.43-.734-1.14 0-2.284.734-3.425.734-1.147 0-2.289-.734-3.43-.734v1.226z" fill="#fff"/><path d="M14.918 9.708l1.267.007c.006-.053-.11-.158-.21-.176-.32-.05-.56.055-.947.058l-.11.11z" fill="#F2D046"/><path d="M12.392 9.408c.3.376.876.637 1.427.64.746.005 1.566-.595 2.562-.781l-3.253-.066c-.419-.287-.74-.252-.957-.073l-.619.02c-.09.048.072.247.2.255l.64.005z" fill="#F2D046"/><path d="M13.863 9.194c-.118-.546-.555-.779-1.078-.847-.608-.083-2.003-.163-2.929-.43.401.393 1.241.59 1.824.68.618.094 1.219.231 1.696.59l.487.007z" fill="#F2D046"/><path d="M13.47 9.557c.193.246.494.234.815.017.324-.218.675-.826.842-.836 1.186-.069 2.614-.567 3.296-.953-.865.123-1.723.26-2.595.265-1.487.005-1.664.684-2.269 1.159l-.09.348z" fill="#F2D046"/></g></svg>