<svg viewBox="0 0 24 24" fill="none" xmlns="http://www.w3.org/2000/svg"><path fill-rule="evenodd" clip-rule="evenodd" d="M12.647 5.305H17c.939 0 1.7.764 1.7 1.706v9.978c0 .942-.761 1.706-1.7 1.706h-4.353v-3.098a.651.651 0 10-1.3 0v3.098H7c-.939 0-1.7-.764-1.7-1.706V7.01c0-.942.761-1.706 1.7-1.706h4.347V8.31a.651.651 0 101.3 0V5.305zM4 7.01A3.006 3.006 0 017 4h10c1.657 0 3 1.348 3 3.011v9.978A3.006 3.006 0 0117 20H7c-1.657 0-3-1.348-3-3.011V7.01zm6.286 6.448l-.941-.88h5.27l-.917.814a.654.654 0 00-.058.92c.237.27.648.297.917.058l2.225-1.969a.654.654 0 00.013-.967L14.57 9.358a.648.648 0 00-.918.033.654.654 0 00.033.922l1.03.962H9.26l1.013-.896a.654.654 0 00.057-.921.648.648 0 00-.917-.058l-2.224 1.97a.654.654 0 00-.013.966L9.4 14.414c.263.245.674.23.919-.033a.654.654 0 00-.033-.922z" fill="#626F84"/></svg>