<svg viewBox="0 0 24 24" fill="none" xmlns="http://www.w3.org/2000/svg"><path fill-rule="evenodd" clip-rule="evenodd" d="M3.003 8.7a3 3 0 013-3h6.75a3 3 0 013 3V18a3 3 0 01-3 3h-6.75a3 3 0 01-3-3V8.7zm3-1.7h6.75a1.7 1.7 0 011.7 1.7V18a1.7 1.7 0 01-1.7 1.7h-6.75a1.7 1.7 0 01-1.7-1.7V8.7a1.7 1.7 0 011.7-1.7z" fill="#626F84"/><path d="M20.05 10.527a.65.65 0 01-.919 0L17.365 8.76a.65.65 0 01.92-.92l.656.657a5.2 5.2 0 00-5.2-5.195.65.65 0 110-1.3 6.5 6.5 0 016.5 6.495l.656-.656a.65.65 0 11.92.92l-1.767 1.765z" fill="#626F84"/></svg>