<svg viewBox="0 0 24 24" fill="none" xmlns="http://www.w3.org/2000/svg"><path fill-rule="evenodd" clip-rule="evenodd" d="M22 8.716a3 3 0 00-3-3h-6.727a3 3 0 00-3 3V18a3 3 0 003 3H19a3 3 0 003-3V8.716zm-3-1.7h-6.727a1.7 1.7 0 00-1.7 1.7V18a1.7 1.7 0 001.7 1.7H19a1.7 1.7 0 001.7-1.7V8.716a1.7 1.7 0 00-1.7-1.7z" fill="#626F84"/><path d="M4.956 10.524a.65.65 0 00.92 0L7.64 8.758a.65.65 0 00-.92-.919l-.655.656a5.2 5.2 0 015.2-5.195.65.65 0 100-1.3 6.5 6.5 0 00-6.5 6.495L4.11 7.84a.65.65 0 00-.92.92l1.766 1.765z" fill="#626F84"/></svg>