<svg viewBox="0 0 24 24" fill="none" xmlns="http://www.w3.org/2000/svg"><path fill-rule="evenodd" clip-rule="evenodd" d="M11.333 15.293c0-.36.293-.65.654-.65.362 0 .655.29.655.65v1.377h1.384c.362 0 .655.29.655.65 0 .36-.293.651-.655.651h-1.384v1.377c0 .359-.293.65-.655.65a.653.653 0 01-.654-.65V17.97H9.948a.653.653 0 01-.654-.65c0-.36.293-.652.654-.652h1.385v-1.376zm-6.024-4.955V7.653A2.36 2.36 0 017.676 5.3h8.648a2.36 2.36 0 012.367 2.353v2.685H5.309zm13.382 1.302v2.997a2.039 2.039 0 01-2.045 2.032.653.653 0 00-.654.651c0 .36.293.651.654.651A3.344 3.344 0 0020 14.637V7.653c0-2.019-1.646-3.655-3.676-3.655H7.676C5.646 3.998 4 5.634 4 7.653v7.02a3.308 3.308 0 003.317 3.298.653.653 0 00.655-.65c0-.36-.293-.652-.655-.652a2.002 2.002 0 01-2.008-1.996V11.64h13.382z" fill="#626F84"/></svg>