<svg viewBox="0 0 24 24" fill="none" xmlns="http://www.w3.org/2000/svg"><path fill-rule="evenodd" clip-rule="evenodd" d="M11.333 8.707c0 .36.293.65.654.65a.653.653 0 00.655-.65V7.33h1.384a.653.653 0 00.655-.65c0-.36-.293-.651-.655-.651h-1.384V4.652c0-.359-.293-.65-.655-.65a.653.653 0 00-.654.65V6.03H9.948a.653.653 0 00-.654.65c0 .36.293.651.654.651h1.385v1.377zM5.309 13.66v2.686A2.36 2.36 0 007.676 18.7h8.648a2.36 2.36 0 002.367-2.353v-2.686H5.309zm13.382-1.301V9.363a2.039 2.039 0 00-2.045-2.033.653.653 0 01-.654-.65c0-.36.293-.651.654-.651A3.344 3.344 0 0120 9.363v6.984c0 2.019-1.646 3.655-3.676 3.655H7.676C5.646 20.002 4 18.366 4 16.347v-7.02a3.308 3.308 0 013.317-3.298c.362 0 .655.291.655.65 0 .36-.293.651-.655.651-1.109 0-2.008.894-2.008 1.997v3.033h13.382z" fill="#626F84"/></svg>