<svg viewBox="0 0 24 24" fill="none" xmlns="http://www.w3.org/2000/svg"><path fill-rule="evenodd" clip-rule="evenodd" d="M9.026 7.657a.65.65 0 01.65-.65h3.328a3.322 3.322 0 010 6.644h-2.678v1.048h3.02a.65.65 0 010 1.3h-3.02v.848a.65.65 0 11-1.3 0V16h-.702a.65.65 0 110-1.3h.702v-1.048H8.33a.65.65 0 110-1.3h.696V7.657zm1.3 4.694h2.678a2.022 2.022 0 100-4.044h-2.678v4.044z" fill="#626F84"/><path fill-rule="evenodd" clip-rule="evenodd" d="M21 12a9 9 0 11-18 0 9 9 0 0118 0zm-1.3 0a7.7 7.7 0 11-15.4 0 7.7 7.7 0 0115.4 0z" fill="#626F84"/></svg>