<svg viewBox="0 0 28 28" fill="none" xmlns="http://www.w3.org/2000/svg"><rect y="4" width="28" height="20" rx="3" fill="#fff"/><mask id="a" style="mask-type:alpha" maskUnits="userSpaceOnUse" x="0" y="4" width="28" height="20"><rect y="4" width="28" height="20" rx="3" fill="#fff"/></mask><g mask="url(#a)"><g filter="url(#filter0_d_17_4664)"><path fill-rule="evenodd" clip-rule="evenodd" d="M0 24h28v-5.333H0V24z" fill="#2D754D"/></g><path fill-rule="evenodd" clip-rule="evenodd" d="M0 13.333h28V4H0v9.333z" fill="#25B1EB"/><path fill-rule="evenodd" clip-rule="evenodd" d="M0 18.667h28v-5.334H0v5.334zM21.333 10l-1.02 1.13.078-1.52-1.521.077L20 8.667l-1.13-1.02 1.52.077-.077-1.521 1.02 1.13 1.02-1.13-.077 1.52 1.521-.077-1.13 1.02 1.13 1.021-1.52-.078.077 1.521-1.02-1.13z" fill="#FECB2F"/></g><defs><filter id="filter0_d_17_4664" x="0" y="18.667" width="28" height="5.333" filterUnits="userSpaceOnUse" color-interpolation-filters="sRGB"><feFlood flood-opacity="0" result="BackgroundImageFix"/><feColorMatrix in="SourceAlpha" values="0 0 0 0 0 0 0 0 0 0 0 0 0 0 0 0 0 0 127 0" result="hardAlpha"/><feOffset/><feColorMatrix values="0 0 0 0 0 0 0 0 0 0 0 0 0 0 0 0 0 0 0.06 0"/><feBlend in2="BackgroundImageFix" result="effect1_dropShadow_17_4664"/><feBlend in="SourceGraphic" in2="effect1_dropShadow_17_4664" result="shape"/></filter></defs></svg>