<svg viewBox="0 0 24 24" fill="none" xmlns="http://www.w3.org/2000/svg"><path fill-rule="evenodd" clip-rule="evenodd" d="M13.915 9.086l2.981.433c.325.046.456.45.222.678l-2.158 2.099a.3.3 0 00-.087.266l.509 2.965a.4.4 0 01-.581.42l-2.662-1.395a.3.3 0 00-.28 0l-2.661 1.402a.402.402 0 01-.581-.422l.508-2.97a.3.3 0 00-.086-.266l-2.153-2.1a.396.396 0 01.216-.677l2.982-.433a.3.3 0 00.226-.164l1.33-2.7a.4.4 0 01.718 0l1.331 2.7a.3.3 0 00.226.164zm-.187 1.287l1.17.17-.845.82a1.6 1.6 0 00-.461 1.418l.2 1.17-1.05-.55a1.6 1.6 0 00-1.488 0l-1.048.553.2-1.173a1.6 1.6 0 00-.46-1.416l-.843-.823 1.167-.17a1.6 1.6 0 001.206-.875l.523-1.063.524 1.063a1.6 1.6 0 001.205.876z" fill="#626F84"/><path fill-rule="evenodd" clip-rule="evenodd" d="M4 6.015a1.3 1.3 0 01.985-1.261l6.287-1.572a3 3 0 011.456 0l6.287 1.572A1.3 1.3 0 0120 6.015v5.23a9 9 0 01-4.23 7.632l-3.081 1.926a1.3 1.3 0 01-1.378 0L8.23 18.877A9 9 0 014 11.245v-5.23zm14.7 0v5.23a7.7 7.7 0 01-3.619 6.53L12 19.7l-3.081-1.926a7.7 7.7 0 01-3.619-6.53v-5.23l6.288-1.572a1.7 1.7 0 01.824 0L18.7 6.015z" fill="#626F84"/></svg>