<svg viewBox="0 0 24 24" fill="none" xmlns="http://www.w3.org/2000/svg"><path d="M12.059 13.382c-.27.29-.73.3-1.01.02l-1.861-1.843a.658.658 0 010-.92c.25-.25.67-.25.92 0l1.42 1.403 2.632-2.83a.65.65 0 01.92-.04c.26.24.28.65.04.92l-3.061 3.29z" fill="#626F84"/><path fill-rule="evenodd" clip-rule="evenodd" d="M4.985 4.754A1.3 1.3 0 004 6.015v5.23a9 9 0 004.23 7.632l3.081 1.926a1.3 1.3 0 001.378 0l3.081-1.926A9 9 0 0020 11.245v-5.23a1.3 1.3 0 00-.985-1.261l-6.287-1.572a3 3 0 00-1.456 0L4.985 4.754zM18.7 11.245v-5.23l-6.288-1.572a1.7 1.7 0 00-.824 0L5.3 6.015v5.23a7.7 7.7 0 003.619 6.53L12 19.7l3.081-1.926a7.7 7.7 0 003.619-6.53z" fill="#626F84"/></svg>