<svg viewBox="0 0 24 24" fill="none" xmlns="http://www.w3.org/2000/svg"><path fill-rule="evenodd" clip-rule="evenodd" d="M4 6.015a1.3 1.3 0 01.985-1.261l6.287-1.572a3 3 0 011.456 0l6.287 1.572A1.3 1.3 0 0120 6.015v5.23a9 9 0 01-4.23 7.632l-3.081 1.926a1.3 1.3 0 01-1.378 0L8.23 18.877A9 9 0 014 11.245v-5.23zm9.689 2.907l-1.331-2.7a.4.4 0 00-.718 0l-1.33 2.7a.3.3 0 01-.226.164l-2.982.433a.396.396 0 00-.216.678l2.153 2.099a.3.3 0 01.087.265l-.51 2.971a.402.402 0 00.582.422l2.662-1.402a.3.3 0 01.279 0l2.662 1.396a.4.4 0 00.58-.421l-.508-2.965a.3.3 0 01.087-.266l2.158-2.1a.399.399 0 00-.222-.677l-2.981-.433a.3.3 0 01-.226-.164z" fill="#626F84"/></svg>