<svg viewBox="0 0 28 28" fill="none" xmlns="http://www.w3.org/2000/svg"><rect y="4" width="28" height="20" rx="3" fill="#fff"/><mask id="a" style="mask-type:alpha" maskUnits="userSpaceOnUse" x="0" y="4" width="28" height="20"><rect y="4" width="28" height="20" rx="3" fill="#fff"/></mask><g mask="url(#a)"><path fill="url(#paint0_linear_17_4595)" d="M0 4h28v20H0z"/><path fill-rule="evenodd" clip-rule="evenodd" d="M17.333 14v-3.334c0-.737.597-1.333 1.334-1.333h4c.736 0 1.333.596 1.333 1.333V14c0 3.333-3.333 4.667-3.333 4.667S17.333 17.333 17.333 14z" fill="#8FC5FF"/><mask id="b" style="mask-type:alpha" maskUnits="userSpaceOnUse" x="17" y="9" width="7" height="10"><path fill-rule="evenodd" clip-rule="evenodd" d="M17.333 14v-3.334c0-.737.597-1.333 1.334-1.333h4c.736 0 1.333.596 1.333 1.333V14c0 3.333-3.333 4.667-3.333 4.667S17.333 17.333 17.333 14z" fill="#fff"/></mask><g mask="url(#b)"><path fill-rule="evenodd" clip-rule="evenodd" d="M20.09 15.884s.667-.864 1.06-.864c.392 0 .464.573 1.068.573.603 0 .922-.914 1.503-.914.581 0 0 3 0 3l-.788.812-4.611.533 1.768-3.14z" fill="#366CC9"/><path fill-rule="evenodd" clip-rule="evenodd" d="M18.126 14.551l.589-.551.578 1.416.776-1.416.668 4.035-1.11-.226L16 16.151l2.126-1.6z" fill="#CF6200"/><path fill="#FF0" d="M17.333 9.333H24v4h-6.667z"/></g><path d="M17.667 14V10.666a1 1 0 011-1h4a1 1 0 011 1V14c0 1.543-.768 2.626-1.557 3.336a6.247 6.247 0 01-1.443.966h-.001a6.244 6.244 0 01-1.443-.966c-.788-.71-1.556-1.793-1.556-3.336z" stroke="#fff" stroke-width=".667"/><mask id="c" style="mask-type:alpha" maskUnits="userSpaceOnUse" x="17" y="9" width="7" height="10"><path d="M17.667 14V10.666a1 1 0 011-1h4a1 1 0 011 1V14c0 1.543-.768 2.626-1.557 3.336a6.247 6.247 0 01-1.443.966h-.001a6.244 6.244 0 01-1.443-.966c-.788-.71-1.556-1.793-1.556-3.336z" fill="#fff" stroke="#fff" stroke-width=".667"/></mask><path d="M0 3.667h-.901l.684.586 4.55 3.9v1.009l-4.527 3.233-.14.1v1.44l.51-.319 5.253-3.283h1.13l4.523 3.23a.554.554 0 00.682-.87L7.667 9.18V8.172l4.387-3.134a.667.667 0 00.28-.543V3.4l-.51.318L6.57 7h-1.13L.86 3.729l-.088-.062H0z" fill="#DB1E36" stroke="#fff" stroke-width=".667"/><path fill-rule="evenodd" clip-rule="evenodd" d="M0 7.333V10h4.667v3.333c0 .368.298.667.666.667h1.334a.667.667 0 00.666-.667V10H12a.667.667 0 00.667-.667V8A.667.667 0 0012 7.333H7.333V4H4.667v3.333H0z" fill="#fff"/><path fill-rule="evenodd" clip-rule="evenodd" d="M0 8h5.333V4h1.334v4H12v1.333H6.667v4H5.333v-4H0V8z" fill="#DB1E36"/></g><defs><linearGradient id="paint0_linear_17_4595" x1="0" y1="4" x2="0" y2="24" gradientUnits="userSpaceOnUse"><stop stop-color="#07319C"/><stop offset="1" stop-color="#00247E"/></linearGradient></defs></svg>