<svg viewBox="0 0 28 28" fill="none" xmlns="http://www.w3.org/2000/svg"><rect y="4" width="28" height="20" rx="3" fill="#fff"/><mask id="a" style="mask-type:alpha" maskUnits="userSpaceOnUse" x="0" y="4" width="28" height="20"><rect y="4" width="28" height="20" rx="3" fill="#fff"/></mask><g mask="url(#a)"><path fill="#E31F37" d="M0 4h28v20H0z"/><path fill-rule="evenodd" clip-rule="evenodd" d="M-1.333 14.667h16v-12h-16v12z" fill="#083B9A"/><path fill-rule="evenodd" clip-rule="evenodd" d="M6.667 6.667l-.943.276L6 6l-.276-.943.943.276.942-.276L7.333 6l.276.943-.942-.276zm0 6.666l-.943.277.276-.943-.276-.943.943.276.942-.276-.276.943.276.943-.942-.277zm-3.61-3.057L4 10l.943.276-.276-.943.276-.942L4 8.667l-.943-.276.276.942-.276.943zM10 9.333l-.943.276.276-.942-.276-.943L10 8l.943-.276-.276.943.276.942L10 9.333zM8.667 11A.333.333 0 118 11a.333.333 0 01.667 0z" fill="#fff"/></g></svg>