<svg viewBox="0 0 28 28" fill="none" xmlns="http://www.w3.org/2000/svg"><rect y="4" width="28" height="20" rx="3" fill="#fff"/><mask id="a" style="mask-type:alpha" maskUnits="userSpaceOnUse" x="0" y="4" width="28" height="20"><rect y="4" width="28" height="20" rx="3" fill="#fff"/></mask><g mask="url(#a)" fill-rule="evenodd" clip-rule="evenodd"><path d="M0 24h28v-6.667H0V24zM0 10.667h28V4H0v6.667z" fill="#2ACB41"/><path d="M0 17.333h28v-6.666H0v6.666z" fill="#FDD043"/><path d="M0 4l10.667 10L0 24V4z" fill="#E71E43"/><path d="M14.667 15.093l-1.568 1.064.528-1.82-1.497-1.161 1.894-.06.643-1.783.642 1.783 1.894.06-1.496 1.162.527 1.82-1.567-1.065zM21.333 15.093l-1.567 1.064.528-1.82-1.497-1.161 1.894-.06.642-1.783.643 1.783 1.893.06-1.496 1.162.528 1.82-1.568-1.065z" fill="#262626"/></g></svg>