<svg viewBox="0 0 24 24" fill="none" xmlns="http://www.w3.org/2000/svg"><path fill-rule="evenodd" clip-rule="evenodd" d="M7.777 20H17a3 3 0 003-3v-6.757a3 3 0 00-.879-2.122L15.88 4.88A3 3 0 0013.757 4H6.993A3 3 0 004 7v10a3 3 0 003 3h.532a.65.65 0 00.245 0zm9.233-1.3v-5a1.35 1.35 0 00-1.35-1.35H8.354a1.35 1.35 0 00-1.35 1.35v5H7A1.7 1.7 0 015.3 17V7a1.7 1.7 0 011.693-1.7v3c0 .746.604 1.35 1.35 1.35h4.305a1.35 1.35 0 001.35-1.35V5.317c.362.052.7.22.961.48l3.243 3.244a1.7 1.7 0 01.498 1.202V17a1.7 1.7 0 01-1.69 1.7zm-1.3 0v-5a.05.05 0 00-.05-.05H8.354a.05.05 0 00-.05.05v5h7.406zM12.698 8.3v-3H8.293v3c0 .028.022.05.05.05h4.305a.05.05 0 00.05-.05z" fill="#626F84"/></svg>