<svg viewBox="0 0 24 24" fill="none" xmlns="http://www.w3.org/2000/svg"><path fill-rule="evenodd" clip-rule="evenodd" d="M13.495 4.3H7A1.7 1.7 0 005.3 6v5.35h13.4V9.297c0-.1-.009-.2-.026-.298h-2.721a1.95 1.95 0 01-1.95-1.95V4.378a1.7 1.7 0 00-.508-.078zm1.808 1.067v1.682c0 .36.29.65.65.65h1.83l-2.48-2.332zM20 11.35V9.297a3 3 0 00-.945-2.185L15.55 3.815A3 3 0 0013.495 3H7a3 3 0 00-3 3v5.35H2.61a.65.65 0 100 1.3h18.78a.65.65 0 100-1.3H20zM4.65 13.944a.65.65 0 01.65.65V18A1.7 1.7 0 007 19.7h10a1.7 1.7 0 001.7-1.7v-3.406a.65.65 0 011.3 0V18a3 3 0 01-3 3H7a3 3 0 01-3-3v-3.406a.65.65 0 01.65-.65z" fill="#626F84"/></svg>