<svg viewBox="0 0 24 24" fill="none" xmlns="http://www.w3.org/2000/svg"><path fill-rule="evenodd" clip-rule="evenodd" d="M18.619 3.347l2.034 2.034-2.034 2.035-2.035-2.035 2.035-2.034zm-.84-1a1.187 1.187 0 011.679 0l2.195 2.195a1.187 1.187 0 010 1.679l-2.195 2.194a1.187 1.187 0 01-1.678 0l-2.195-2.194a1.187 1.187 0 010-1.679l2.194-2.194zM7.106 3.682h-3.4v3.4h3.4v-3.4zm11.513 13.246a1.7 1.7 0 100 3.4 1.7 1.7 0 000-3.4zM2.406 3.68a1.3 1.3 0 011.3-1.3h3.4a1.3 1.3 0 011.3 1.3v3.4a1.3 1.3 0 01-1.3 1.3h-3.4a1.3 1.3 0 01-1.3-1.3v-3.4zm16.213 11.946a3 3 0 100 6 3 3 0 000-6z" fill="#626F84"/><path d="M18.619 10.059a.65.65 0 01.65.65v2.963a.65.65 0 01-1.3 0V10.71a.65.65 0 01.65-.65zM10.357 4.731a.65.65 0 100 1.3h2.93a.65.65 0 100-1.3h-2.93zM11.74 17.959l-1.513-1.462a.65.65 0 01.92-.92l2.975 2.572a.65.65 0 010 .92l-2.968 2.563a.65.65 0 01-.92-.92l1.505-1.453H8.412a3.65 3.65 0 01-3.65-3.65v-5.277a.65.65 0 011.3 0v5.277a2.35 2.35 0 002.35 2.35h3.328z" fill="#626F84"/></svg>