<svg viewBox="0 0 24 24" fill="none" xmlns="http://www.w3.org/2000/svg"><path d="M19.458 2.348a1.187 1.187 0 00-1.678 0l-2.195 2.194a1.187 1.187 0 000 1.679l2.194 2.194a1.187 1.187 0 001.679 0l2.195-2.194a1.187 1.187 0 000-1.679l-2.195-2.194zM2.406 3.681a1.3 1.3 0 011.3-1.3h3.4a1.3 1.3 0 011.3 1.3v3.4a1.3 1.3 0 01-1.3 1.3h-3.4a1.3 1.3 0 01-1.3-1.3v-3.4zM18.619 10.059a.65.65 0 01.65.65v2.963a.65.65 0 01-1.3 0V10.71a.65.65 0 01.65-.65zM15.619 18.627a3 3 0 116 0 3 3 0 01-6 0zM10.357 4.731a.65.65 0 100 1.3h2.93a.65.65 0 100-1.3h-2.93zM11.74 17.959l-1.513-1.462a.65.65 0 01.92-.92l2.975 2.572a.65.65 0 010 .92l-2.968 2.563a.65.65 0 01-.92-.92l1.505-1.453H8.412a3.65 3.65 0 01-3.65-3.65v-5.277a.65.65 0 011.3 0v5.277a2.35 2.35 0 002.35 2.35h3.328z" fill="#626F84"/></svg>