<svg viewBox="0 0 24 24" fill="none" xmlns="http://www.w3.org/2000/svg"><path d="M16.57 8.418a.628.628 0 01-.893-.881c1.153-1.168 2.421-2.423 2.421-2.423l-2.088.1a.633.633 0 01-.674-.574.62.62 0 01.167-.476.603.603 0 01.408-.198l3.59-.22c.4-.034.738.28.732.682l-.051 3.524a.633.633 0 01-.632.621.624.624 0 01-.621-.63l.08-1.972-2.44 2.447zM9.095 18.835c-.553.466-1.274 1.074-2.455 1.074-2.071 0-3.038-1.348-3.42-1.88a5.492 5.492 0 00-.087-.12.65.65 0 011.034-.787c.034.044.069.092.106.143.38.519.983 1.344 2.367 1.344.683 0 1.08-.316 1.649-.795l.029-.024c.554-.468 1.277-1.078 2.464-1.078 1.98 0 3.049 1.398 3.461 1.937.058.076.103.135.135.17a.65.65 0 01-.957.88 6.713 6.713 0 01-.272-.325c-.469-.583-1.095-1.362-2.367-1.362-.688 0-1.088.318-1.655.796l-.032.027zM7.406 4.98a1.3 1.3 0 011.838 0l1.133 1.134a.7.7 0 01.007.983L8.365 9.171a.7.7 0 01-.996.006l-1.12-1.12a1.3 1.3 0 010-1.838L7.406 4.98zM9.278 11.087a.7.7 0 01-.007-.983l2.02-2.074a.7.7 0 01.996-.007l7.432 7.433a3 3 0 01.802 1.447l.4 1.731c.216.936-.083 1.316-1.019 1.1l-1.732-.4a3 3 0 01-1.447-.802l-7.445-7.445z" fill="#626F84"/></svg>