<svg viewBox="0 0 28 28" fill="none" xmlns="http://www.w3.org/2000/svg"><rect x=".25" y="4.25" width="27.5" height="19.5" rx="2.75" fill="#fff" stroke="#D6D8DD" stroke-width=".5"/><mask id="a" style="mask-type:alpha" maskUnits="userSpaceOnUse" x="0" y="4" width="28" height="20"><rect x=".25" y="4.25" width="27.5" height="19.5" rx="2.75" fill="#fff" stroke="#fff" stroke-width=".5"/></mask><g mask="url(#a)"><path fill-rule="evenodd" clip-rule="evenodd" d="M0 17.333h28v-6.666H0v6.666z" fill="#17508F"/><path fill-rule="evenodd" clip-rule="evenodd" d="M0 10.667h28V4H0v6.667z" fill="#E1444D"/><path fill-rule="evenodd" clip-rule="evenodd" d="M6 14c0-.645.344-2.082.537-2.841a.656.656 0 01.638-.492h2.984c.3 0 .563.2.637.49.194.755.537 2.183.537 2.843 0 .745-.5 2.7-.634 3.21a.574.574 0 01-.112.223c-.255.31-1.088 1.234-1.92 1.234-.833 0-1.666-.926-1.921-1.235a.573.573 0 01-.112-.22C6.5 16.704 6 14.763 6 14z" fill="#fff"/><mask id="b" style="mask-type:alpha" maskUnits="userSpaceOnUse" x="6" y="10" width="6" height="9"><path fill-rule="evenodd" clip-rule="evenodd" d="M6 14c0-.645.344-2.082.537-2.841a.656.656 0 01.638-.492h2.984c.3 0 .563.2.637.49.194.755.537 2.183.537 2.843 0 .745-.5 2.7-.634 3.21a.574.574 0 01-.112.223c-.255.31-1.088 1.234-1.92 1.234-.833 0-1.666-.926-1.921-1.235a.573.573 0 01-.112-.22C6.5 16.704 6 14.763 6 14z" fill="#fff"/></mask><g mask="url(#b)" stroke="#E1444D" stroke-width="1.333" stroke-linecap="square"><path d="M11.333 11.333L6 18M6 11.333L11.333 18"/></g></g></svg>