<svg viewBox="0 0 24 24" fill="none" xmlns="http://www.w3.org/2000/svg"><path fill-rule="evenodd" clip-rule="evenodd" d="M16 12a4 4 0 11-8 0 4 4 0 018 0zm-1.3 0a2.7 2.7 0 11-5.4 0 2.7 2.7 0 015.4 0z" fill="#626F84"/><path fill-rule="evenodd" clip-rule="evenodd" d="M10.983 3.005c-.886 0-1.636.653-1.758 1.53a1.685 1.685 0 01-2.303 1.33 1.774 1.774 0 00-2.204.757L3.76 8.28a1.774 1.774 0 00.424 2.27c.882.71.867 2.077-.038 2.782a1.774 1.774 0 00-.446 2.287l.956 1.657a1.774 1.774 0 002.178.767c1.055-.408 2.233.288 2.39 1.424.122.877.872 1.53 1.758 1.53h1.913c.875 0 1.62-.637 1.754-1.502a1.863 1.863 0 012.514-1.452c.816.317 1.74-.01 2.178-.767l.957-1.657a1.774 1.774 0 00-.447-2.287c-.905-.705-.92-2.073-.038-2.782a1.774 1.774 0 00.425-2.27l-.957-1.657a1.774 1.774 0 00-2.204-.757c-1.063.432-2.255-.24-2.428-1.358a1.774 1.774 0 00-1.754-1.502h-1.913zm-.47 1.71a.474.474 0 01.47-.41h1.913c.234 0 .433.17.47.402.303 1.962 2.376 3.104 4.2 2.363.22-.09.472-.003.59.202l.957 1.657a.474.474 0 01-.114.607c-1.547 1.245-1.5 3.61.055 4.82a.474.474 0 01.12.612l-.958 1.657a.475.475 0 01-.582.205 3.163 3.163 0 00-4.269 2.465.474.474 0 01-.469.402h-1.913a.474.474 0 01-.47-.41c-.27-1.951-2.296-3.174-4.147-2.457a.474.474 0 01-.583-.205l-.956-1.657a.474.474 0 01.119-.611c1.555-1.21 1.601-3.576.054-4.82a.474.474 0 01-.113-.608l.957-1.657a.474.474 0 01.589-.202 2.985 2.985 0 004.08-2.356z" fill="#626F84"/></svg>