<svg viewBox="0 0 24 24" fill="none" xmlns="http://www.w3.org/2000/svg"><path d="M9.65 7.65a.65.65 0 00-1.3 0v1.994a2.07 2.07 0 00.007.156c.008.1.021.237.049.4.054.324.163.766.388 1.215.226.453.575.924 1.111 1.282.54.36 1.231.578 2.095.578.864 0 1.555-.218 2.095-.578.536-.358.885-.83 1.111-1.282a4.34 4.34 0 00.444-1.771V7.65a.65.65 0 10-1.3 0v1.987l-.004.07a3.035 3.035 0 01-.302 1.127 1.984 1.984 0 01-.67.781c-.304.203-.738.36-1.374.36-.636 0-1.07-.157-1.374-.36a1.984 1.984 0 01-.67-.781 3.037 3.037 0 01-.306-1.197V7.65z" fill="#626F84"/><path fill-rule="evenodd" clip-rule="evenodd" d="M16.475 4h-8.95a2.6 2.6 0 00-2.594 2.432l-.831 10.8A2.6 2.6 0 006.694 20h10.612a2.6 2.6 0 002.594-2.768l-.83-10.8A2.6 2.6 0 0016.474 4zm0 1.3h-8.95a1.3 1.3 0 00-1.297 1.216l-.831 10.8A1.3 1.3 0 006.694 18.7h10.612a1.3 1.3 0 001.297-1.384l-.831-10.8A1.3 1.3 0 0016.475 5.3z" fill="#626F84"/></svg>