<svg viewBox="0 0 24 24" fill="none" xmlns="http://www.w3.org/2000/svg"><path fill-rule="evenodd" clip-rule="evenodd" d="M7.525 4h8.95a2.6 2.6 0 012.594 2.432l.831 10.8A2.6 2.6 0 0117.306 20H6.694A2.6 2.6 0 014.1 17.232l.83-10.8A2.6 2.6 0 017.526 4zM9.62 7.65a.65.65 0 00-1.3 0v1.994a2.173 2.173 0 00.008.156 4.337 4.337 0 00.436 1.615c.226.453.575.924 1.111 1.282.54.36 1.232.578 2.095.578.864 0 1.555-.218 2.095-.578.536-.358.886-.83 1.112-1.282a4.337 4.337 0 00.443-1.771V7.65a.65.65 0 10-1.3 0v1.986l-.004.071a3.039 3.039 0 01-.302 1.127 1.983 1.983 0 01-.67.781c-.303.203-.737.36-1.374.36-.636 0-1.07-.157-1.373-.36a1.983 1.983 0 01-.67-.781 3.037 3.037 0 01-.306-1.197V7.65z" fill="#626F84"/></svg>