<svg viewBox="0 0 24 24" fill="none" xmlns="http://www.w3.org/2000/svg"><path d="M17.997 16.83c-.225.28-.217.692.044.94.26.245.673.236.9-.04a8.976 8.976 0 10-13.875-.02.615.615 0 00.902.04c.26-.248.269-.657.045-.938a7.676 7.676 0 1111.985.018z" fill="#626F84"/><path d="M16.686 15.6c-.217.284-.63.293-.889.047-.262-.248-.268-.659-.057-.952a4.585 4.585 0 10-7.47-.02c.207.292.2.7-.06.948-.26.247-.675.238-.892-.049a5.885 5.885 0 119.369.026z" fill="#626F84"/><path d="M14.5 11.957c0 1.151-.778 2.12-1.837 2.411v5.976a.65.65 0 11-1.3 0v-5.969a2.501 2.501 0 113.137-2.418z" fill="#626F84"/></svg>