<svg viewBox="0 0 24 24" fill="none" xmlns="http://www.w3.org/2000/svg"><path d="M9.235 4.784a1.3 1.3 0 00-1.838 0L6.24 6.022a1.3 1.3 0 000 1.84L7.36 8.98a.7.7 0 00.996-.007l2.019-2.073a.7.7 0 00-.007-.984L9.235 4.784zM9.262 9.907a.7.7 0 00.007.983l7.445 7.446a3 3 0 001.447.802l1.732.4c.936.215 1.235-.164 1.019-1.1l-.4-1.732a3.002 3.002 0 00-.802-1.447l-7.432-7.432a.7.7 0 00-.997.007L9.262 9.907zM6.64 19.99c1.181 0 1.902-.609 2.455-1.075l.032-.027c.567-.478.967-.796 1.655-.796 1.271 0 1.898.78 2.367 1.362.096.12.186.23.273.325a.65.65 0 00.956-.88 2.908 2.908 0 01-.135-.17c-.412-.538-1.481-1.937-3.461-1.937-1.187 0-1.91.61-2.464 1.078l-.03.024c-.567.479-.965.795-1.648.795-1.384 0-1.987-.825-2.367-1.344a9.25 9.25 0 00-.106-.143.65.65 0 00-1.034.787l.087.12c.382.532 1.349 1.88 3.42 1.88z" fill="#626F84"/></svg>