<svg viewBox="0 0 24 24" fill="none" xmlns="http://www.w3.org/2000/svg"><mask id="a" fill="#fff"><path d="M15.938 19.7H9A1.7 1.7 0 017.3 18v-.288a.65.65 0 10-1.3 0V18a3 3 0 003 3h6.938a3 3 0 003-3V6a3 3 0 00-3-3H9a3 3 0 00-3 3v.35a.65.65 0 001.3 0V6A1.7 1.7 0 019 4.3h6.938c.223 0 .437.043.632.122l-1.546.911a3 3 0 00-1.477 2.585v8.123a3 3 0 001.45 2.569l1.593.96c-.201.084-.421.13-.652.13z"/><path d="M6.991 8.91a.65.65 0 01.918-.042l2.776 2.527a.65.65 0 01.158.742.646.646 0 01-.176.296l-2.708 2.6a.65.65 0 01-.9-.937l1.544-1.484H3.701a.65.65 0 010-1.3h4.962L7.034 9.83a.65.65 0 01-.043-.918z"/></mask><path d="M15.938 19.7H9A1.7 1.7 0 017.3 18v-.288a.65.65 0 10-1.3 0V18a3 3 0 003 3h6.938a3 3 0 003-3V6a3 3 0 00-3-3H9a3 3 0 00-3 3v.35a.65.65 0 001.3 0V6A1.7 1.7 0 019 4.3h6.938c.223 0 .437.043.632.122l-1.546.911a3 3 0 00-1.477 2.585v8.123a3 3 0 001.45 2.569l1.593.96c-.201.084-.421.13-.652.13z" fill="#626F84"/><path d="M6.991 8.91a.65.65 0 01.918-.042l2.776 2.527a.65.65 0 01.158.742.646.646 0 01-.176.296l-2.708 2.6a.65.65 0 01-.9-.937l1.544-1.484H3.701a.65.65 0 010-1.3h4.962L7.034 9.83a.65.65 0 01-.043-.918z" fill="#626F84"/><path d="M15.938 19.7H9A1.7 1.7 0 017.3 18v-.288a.65.65 0 10-1.3 0V18a3 3 0 003 3h6.938a3 3 0 003-3V6a3 3 0 00-3-3H9a3 3 0 00-3 3v.35a.65.65 0 001.3 0V6A1.7 1.7 0 019 4.3h6.938c.223 0 .437.043.632.122l-1.546.911a3 3 0 00-1.477 2.585v8.123a3 3 0 001.45 2.569l1.593.96c-.201.084-.421.13-.652.13z" stroke="#626F84" stroke-width="2.6" mask="url(#a)"/><path d="M6.991 8.91a.65.65 0 01.918-.042l2.776 2.527a.65.65 0 01.158.742.646.646 0 01-.176.296l-2.708 2.6a.65.65 0 01-.9-.937l1.544-1.484H3.701a.65.65 0 010-1.3h4.962L7.034 9.83a.65.65 0 01-.043-.918z" stroke="#626F84" stroke-width="2.6" mask="url(#a)"/></svg>