<svg viewBox="0 0 24 24" fill="none" xmlns="http://www.w3.org/2000/svg"><path fill-rule="evenodd" clip-rule="evenodd" d="M15.938 19.7H9A1.7 1.7 0 017.3 18v-.288a.65.65 0 10-1.3 0V18a3 3 0 003 3h6.938a3 3 0 003-3V6a3 3 0 00-3-3H9a3 3 0 00-3 3v.35a.65.65 0 001.3 0V6A1.7 1.7 0 019 4.3h6.938c.223 0 .437.043.633.122l-1.547.911a3 3 0 00-1.477 2.585v8.123a3 3 0 001.45 2.569l1.593.96c-.201.084-.421.13-.652.13zm1.58-14.328c.077.195.12.406.12.628v12c0 .217-.041.424-.115.615l-1.854-1.118a1.7 1.7 0 01-.822-1.456V7.918a1.7 1.7 0 01.837-1.465l1.834-1.08z" fill="#626F84"/><path d="M6.994 8.91a.65.65 0 01.918-.042l2.776 2.527a.65.65 0 01.157.742.648.648 0 01-.176.296l-2.708 2.6a.65.65 0 11-.9-.937l1.545-1.484H3.703a.65.65 0 110-1.3h4.962L7.037 9.829a.65.65 0 01-.043-.919z" fill="#626F84"/></svg>