<svg viewBox="0 0 24 24" fill="none" xmlns="http://www.w3.org/2000/svg"><path fill-rule="evenodd" clip-rule="evenodd" d="M7.442 4.569a1.3 1.3 0 011.838 0L19.753 15.04a3 3 0 01.801 1.447l.4 1.73a1.3 1.3 0 01-1.56 1.56l-1.73-.4a3 3 0 01-1.447-.802L5.745 8.104a1.3 1.3 0 010-1.838l1.697-1.697zm-.778 2.616L8.36 5.488l1.621 1.621-1.697 1.697-1.621-1.621zm12.17 8.775L10.9 8.028 9.204 9.725l7.932 7.932a1.7 1.7 0 00.82.455l1.731.4-.4-1.732a1.7 1.7 0 00-.454-.82z" fill="#626F84"/><path d="M6.653 20.006c1.18 0 1.902-.608 2.454-1.074l.032-.027c.567-.478.967-.796 1.655-.796 1.272 0 1.899.78 2.368 1.362.096.12.185.23.272.325a.65.65 0 10.957-.88 2.91 2.91 0 01-.136-.17c-.412-.538-1.48-1.937-3.46-1.937-1.188 0-1.91.61-2.465 1.078l-.029.024c-.568.479-.965.795-1.648.795-1.384 0-1.988-.825-2.367-1.344l-.106-.143a.65.65 0 10-1.035.787l.088.12c.381.532 1.348 1.88 3.42 1.88z" fill="#626F84"/></svg>