<svg viewBox="0 0 24 24" fill="none" xmlns="http://www.w3.org/2000/svg"><path fill-rule="evenodd" clip-rule="evenodd" d="M5 6.403h14a1.7 1.7 0 011.7 1.7v7.794a1.7 1.7 0 01-1.7 1.7H5a1.7 1.7 0 01-1.7-1.7V8.103a1.7 1.7 0 011.7-1.7zm-3 1.7a3 3 0 013-3h14a3 3 0 013 3v7.794a3 3 0 01-3 3H5a3 3 0 01-3-3V8.103zm7.09.282a.65.65 0 00-1.197.001l-2.84 6.712a.65.65 0 001.198.506l.677-1.601h3.138l.681 1.603a.65.65 0 001.197-.51L9.09 8.387zm.423 4.318l-1.02-2.399-1.015 2.399h2.035zm6.193-2.525a.915.915 0 00-.053 1.826h.106a.915.915 0 00-.053-1.826zm.492 3.073a2.216 2.216 0 001.524-3.078h.657a.65.65 0 000-1.3h-2.63a.657.657 0 00-.077.005 2.215 2.215 0 00-1.794 3.464 2.003 2.003 0 001.114 3.668h3.365a.65.65 0 100-1.3h-3.365a.703.703 0 110-1.406h.631a2.287 2.287 0 00.166 0h.15a.647.647 0 00.259-.053z" fill="#626F84"/></svg>