<svg viewBox="0 0 24 24" fill="none" xmlns="http://www.w3.org/2000/svg"><path d="M9.513 12.703l-1.02-2.399-1.014 2.399h2.034zM15.706 10.178a.915.915 0 00-.053 1.826h.107a.915.915 0 00-.054-1.826z" fill="#626F84"/><path fill-rule="evenodd" clip-rule="evenodd" d="M5 5.005a3 3 0 00-3 3v7.99a3 3 0 003 3h14a3 3 0 003-3v-7.99a3 3 0 00-3-3H5zm4.09 3.38a.65.65 0 00-1.197.001l-2.84 6.712a.65.65 0 101.198.506l.678-1.601h3.137l.681 1.603a.65.65 0 101.197-.51L9.09 8.387zm7.108 4.866a2.215 2.215 0 001.524-3.078h.657a.65.65 0 000-1.3h-2.63a.657.657 0 00-.076.005 2.215 2.215 0 00-1.795 3.464 2.003 2.003 0 001.114 3.668h3.365a.65.65 0 000-1.3h-3.365a.703.703 0 010-1.406h.631a2.295 2.295 0 00.166 0h.15a.648.648 0 00.26-.053z" fill="#626F84"/></svg>