<svg viewBox="0 0 24 24" fill="none" xmlns="http://www.w3.org/2000/svg"><path fill-rule="evenodd" clip-rule="evenodd" d="M5.758 7.773A3 3 0 005 9.766V18a3 3 0 003 3h8a3 3 0 003-3V6a3 3 0 00-3-3h-4.653a3 3 0 00-2.242 1.007L5.758 7.773zM8.904 9a1.3 1.3 0 00-1.3 1.3v.544a.7.7 0 00.7.7h1.682a.65.65 0 010 1.3H8.304a.7.7 0 00-.7.7v.3a.7.7 0 00.7.7h1.682a.65.65 0 010 1.3H8.304a.7.7 0 00-.7.7v.544a1.3 1.3 0 001.3 1.3h6.187a1.3 1.3 0 001.3-1.3v-.544a.7.7 0 00-.7-.7h-1.737a.65.65 0 110-1.3h1.737a.7.7 0 00.7-.7v-.3a.7.7 0 00-.7-.7h-1.737a.65.65 0 110-1.3h1.737a.7.7 0 00.7-.7V10.3a1.3 1.3 0 00-1.3-1.3H8.904z" fill="#626F84"/></svg>