<svg viewBox="0 0 24 24" fill="none" xmlns="http://www.w3.org/2000/svg"><path fill-rule="evenodd" clip-rule="evenodd" d="M7.604 10.3a1.3 1.3 0 011.3-1.3h6.187a1.3 1.3 0 011.3 1.3v6.788a1.3 1.3 0 01-1.3 1.3H8.904a1.3 1.3 0 01-1.3-1.3V10.3zm1.3 0h6.187v1.244h-1.136a.65.65 0 000 1.3h1.136v1.7h-1.136a.65.65 0 000 1.3h1.136v1.244H8.904v-1.244h1.082a.65.65 0 000-1.3H8.904v-1.7h1.082a.65.65 0 000-1.3H8.904V10.3z" fill="#626F84"/><path fill-rule="evenodd" clip-rule="evenodd" d="M5 9.766a3 3 0 01.758-1.993l3.347-3.766A3 3 0 0111.347 3H16a3 3 0 013 3v12a3 3 0 01-3 3H8a3 3 0 01-3-3V9.766zM17.7 6v12a1.7 1.7 0 01-1.7 1.7H8A1.7 1.7 0 016.3 18V9.766a1.7 1.7 0 01.43-1.13l3.347-3.765a1.7 1.7 0 011.27-.571H16A1.7 1.7 0 0117.7 6z" fill="#626F84"/></svg>