<svg viewBox="0 0 28 28" fill="none" xmlns="http://www.w3.org/2000/svg"><rect x=".25" y="4.25" width="27.5" height="19.5" rx="2.75" fill="#fff" stroke="#D6D8DD" stroke-width=".5"/><mask id="a" style="mask-type:alpha" maskUnits="userSpaceOnUse" x="0" y="4" width="28" height="20"><rect x=".25" y="4.25" width="27.5" height="19.5" rx="2.75" fill="#fff" stroke="#fff" stroke-width=".5"/></mask><g mask="url(#a)" fill-rule="evenodd" clip-rule="evenodd"><path d="M0 14.667h28V4H0v10.667z" fill="#E12237"/><path d="M6.667 13.333c.945 0 1.813-.327 2.498-.876a3.333 3.333 0 110-6.248 4 4 0 10-2.498 7.124zM8 8.667a.667.667 0 11-1.333 0 .667.667 0 011.333 0zM8.667 12a.667.667 0 100-1.333.667.667 0 000 1.333zM12 11.333a.667.667 0 11-1.333 0 .667.667 0 011.333 0zm.667-2a.667.667 0 100-1.333.667.667 0 000 1.333zm-2-2.666a.667.667 0 11-1.334 0 .667.667 0 011.334 0z" fill="#fff"/></g></svg>