<svg viewBox="0 0 28 28" fill="none" xmlns="http://www.w3.org/2000/svg"><rect x=".25" y="4.25" width="27.5" height="19.5" rx="2.75" fill="#fff" stroke="#D6D8DD" stroke-width=".5"/><mask id="a" style="mask-type:alpha" maskUnits="userSpaceOnUse" x="0" y="4" width="28" height="20"><rect x=".25" y="4.25" width="27.5" height="19.5" rx="2.75" fill="#fff" stroke="#fff" stroke-width=".5"/></mask><g mask="url(#a)"><path fill-rule="evenodd" clip-rule="evenodd" d="M0 17.333h28v-6.666H0v6.666z" fill="#0C47B7"/><path fill-rule="evenodd" clip-rule="evenodd" d="M0 24h28v-6.667H0V24z" fill="#E53B35"/><path d="M6.95 7.333A2 2 0 004.95 9.256l-.26 6.74a2 2 0 00.698 1.596l2.876 2.465a2.667 2.667 0 003.47 0l2.876-2.465a2 2 0 00.697-1.595l-.26-6.74a2 2 0 00-1.998-1.924h-6.1z" fill="#F73744" stroke="#fff" stroke-width="1.333"/><mask id="b" style="mask-type:alpha" maskUnits="userSpaceOnUse" x="4" y="6" width="12" height="16"><path d="M6.95 7.333A2 2 0 004.95 9.256l-.26 6.74a2 2 0 00.698 1.596l2.876 2.465a2.667 2.667 0 003.47 0l2.876-2.465a2 2 0 00.697-1.595l-.26-6.74a2 2 0 00-1.998-1.924h-6.1z" fill="#fff" stroke="#fff" stroke-width="1.333"/></mask><g mask="url(#b)" fill-rule="evenodd" clip-rule="evenodd"><path d="M9.333 15A.333.333 0 009 14.667H7.667a.333.333 0 01-.334-.334v-.666c0-.184.15-.334.334-.334H9c.184 0 .333-.149.333-.333v-.667A.333.333 0 009 12h-.667A.333.333 0 018 11.667V11c0-.184.15-.333.333-.333H9c.184 0 .333-.15.333-.334v-.666c0-.184.15-.334.334-.334h.666c.184 0 .334.15.334.334v.666c0 .184.149.334.333.334h.667c.184 0 .333.149.333.333v.667c0 .184-.15.333-.333.333H11a.333.333 0 00-.333.333V13c0 .184.149.333.333.333h1.333c.184 0 .334.15.334.334v.666c0 .184-.15.334-.334.334H11a.333.333 0 00-.333.333v2c0 .184-.15.333-.334.333h-.666A.333.333 0 019.333 17v-2z" fill="#fff"/><path d="M11.204 17.425a1.333 1.333 0 00-2.408 0C7.176 17.681 6 18.44 6 19.334c0 1.105 1.79 2 4 2s4-.895 4-2c0-.894-1.175-1.652-2.796-1.907z" fill="#1251A1"/></g></g></svg>