<svg viewBox="0 0 28 28" fill="none" xmlns="http://www.w3.org/2000/svg"><rect y="4" width="28" height="20" rx="3" fill="#fff"/><mask id="a" style="mask-type:alpha" maskUnits="userSpaceOnUse" x="0" y="4" width="28" height="20"><rect y="4" width="28" height="20" rx="3" fill="#fff"/></mask><g mask="url(#a)"><path fill="url(#paint0_linear_17_4531)" d="M0 4h28v20H0z"/><g filter="url(#filter0_d_17_4531)"><path fill-rule="evenodd" clip-rule="evenodd" d="M0 4h28L0 24V4z" fill="url(#paint1_linear_17_4531)"/></g><path fill-rule="evenodd" clip-rule="evenodd" d="M28 4L0 24h28V4z" fill="#2C7442"/><path fill="#FFD646" d="M-2.774 23.706L27.715 3.141l1.047 1.553L-1.726 25.26z"/><path fill-rule="evenodd" clip-rule="evenodd" d="M2.02 8.348l.187-1.09-.792-.773 1.095-.16.49-.992.49.993 1.095.159-.792.773.187 1.09L3 7.833l-.98.515zm6.667 0l.187-1.09-.792-.773 1.095-.16.49-.992.49.993 1.095.159-.793.773.187 1.09-.98-.515-.979.515zm.187 2.91l-.187 1.09.98-.515.98.515-.188-1.09.793-.773-1.096-.16-.49-.992-.49.993-1.094.159.792.773zM3 11.832l-.98.515.187-1.09-.792-.773 1.095-.16.49-.992.49.993 1.095.159-.792.773.187 1.09-.98-.515zm2.354-1.485l.98-.515.979.515-.187-1.09.792-.773-1.095-.16-.49-.992-.49.993-1.095.159.793.773-.187 1.09z" fill="#fff"/></g><defs><linearGradient id="paint0_linear_17_4531" x1="0" y1="4" x2="0" y2="24" gradientUnits="userSpaceOnUse"><stop stop-color="#1DBE4F"/><stop offset="1" stop-color="#159B3F"/></linearGradient><linearGradient id="paint1_linear_17_4531" x1="0" y1="4" x2="0" y2="24" gradientUnits="userSpaceOnUse"><stop stop-color="#0660D4"/><stop offset="1" stop-color="#0051BB"/></linearGradient><filter id="filter0_d_17_4531" x="0" y="4" width="28" height="20" filterUnits="userSpaceOnUse" color-interpolation-filters="sRGB"><feFlood flood-opacity="0" result="BackgroundImageFix"/><feColorMatrix in="SourceAlpha" values="0 0 0 0 0 0 0 0 0 0 0 0 0 0 0 0 0 0 127 0" result="hardAlpha"/><feOffset/><feColorMatrix values="0 0 0 0 0 0 0 0 0 0 0 0 0 0 0 0 0 0 0.06 0"/><feBlend in2="BackgroundImageFix" result="effect1_dropShadow_17_4531"/><feBlend in="SourceGraphic" in2="effect1_dropShadow_17_4531" result="shape"/></filter></defs></svg>