<svg viewBox="0 0 28 28" fill="none" xmlns="http://www.w3.org/2000/svg"><rect x=".25" y="4.25" width="27.5" height="19.5" rx="2.75" fill="#fff" stroke="#D6D8DD" stroke-width=".5"/><mask id="a" style="mask-type:alpha" maskUnits="userSpaceOnUse" x="0" y="4" width="28" height="20"><rect x=".25" y="4.25" width="27.5" height="19.5" rx="2.75" fill="#fff" stroke="#fff" stroke-width=".5"/></mask><g mask="url(#a)"><path fill-rule="evenodd" clip-rule="evenodd" d="M0 24h28v-6.667H0V24z" fill="#427D32"/><path fill-rule="evenodd" clip-rule="evenodd" d="M0 10.667h28V4H0v6.667z" fill="#000"/><path fill-rule="evenodd" clip-rule="evenodd" d="M0 16.5h29v-5H0v5z" fill="#C92F29"/><path fill-rule="evenodd" clip-rule="evenodd" d="M0 4l13.333 10L0 24V4z" fill="#1E49A9"/><path d="M3.844 10.954l1.298 1.75 2.067-.692-1.265 1.775L7.24 15.54l-2.079-.655-1.264 1.776-.02-2.18-2.08-.654 2.067-.693-.02-2.18z" fill="#F8DD4C"/></g></svg>