<svg viewBox="0 0 28 28" fill="none" xmlns="http://www.w3.org/2000/svg"><rect y="4" width="28" height="20" rx="3" fill="#fff"/><mask id="a" style="mask-type:alpha" maskUnits="userSpaceOnUse" x="0" y="4" width="28" height="20"><rect y="4" width="28" height="20" rx="3" fill="#fff"/></mask><g mask="url(#a)"><path fill="#0A17A7" d="M0 4h28v20H0z"/><path d="M0 3.667h-.901l.684.586 4.55 3.9v1.009l-4.527 3.233-.14.1v1.44l.51-.319 5.253-3.283h1.13l4.523 3.23a.554.554 0 00.682-.87L7.667 9.18V8.172l4.387-3.134a.667.667 0 00.28-.543V3.4l-.51.318L6.57 7h-1.13L.86 3.729l-.088-.062H0z" fill="#FF2E3B" stroke="#fff" stroke-width=".667"/><path fill-rule="evenodd" clip-rule="evenodd" d="M0 7.333V10h4.667v3.333c0 .368.298.667.666.667h1.334a.667.667 0 00.666-.667V10H12a.667.667 0 00.667-.667V8A.667.667 0 0012 7.333H7.333V4H4.667v3.333H0z" fill="url(#paint0_linear_107628_1509)"/><path fill-rule="evenodd" clip-rule="evenodd" d="M0 8h5.333V4h1.334v4H12v1.333H6.667v4H5.333v-4H0V8z" fill="url(#paint1_linear_107628_1509)"/><path d="M18.675 10.211l-.272.781h2.276l-.306-.78h-1.698z" fill="#8E361C"/><path d="M18.9 7.698s.091-.13.095-.161c.005-.031.415-.052.66-.623.137-.3 0-.124 0-.124l-.008-.146s.17-.202.108-.31c-.062-.11-.041.14-.141.134-.1-.005-.046-.27-.046-.27s-.008-.03-.037-.046c-.042.005-.03.098-.066.108-.038.01-.071-.217-.071-.217s-.062-.104-.116.223c.029.347.207.28.207.508 0 .228-.157.405-.203.41-.046.005-.03-.192-.03-.192s-.024-.093-.04-.093c-.017 0 .09-.021.074-.28-.037-.312-.066.072-.133.057-.066-.016-.016-.286.008-.317.025-.031-.029-.16-.174.171-.012.161-.029-.041-.058-.03a.349.349 0 00.029.342c.104.119.17.238.166.3-.004.063-.058.203-.133.203-.074 0 .004-.171 0-.228-.004-.058-.128-.265-.128-.265s-.088-.176-.08-.182c.009-.005-.008-.03-.049.15-.042.182-.092-.119-.092-.119s-.058.224.067.358c-.095-.015-.104.032-.104.032 0 .062.129.088.146.197.016.109-.133.17-.133.17s.062.11.236-.103c.004.135-.066.229-.066.229.058.032.104.029.112.114zM18.33 7.698s-.077-.144-.08-.173c-.005-.028-.383.036-.561-.54-.117-.274 0-.114 0-.114l.007-.132s-.124-.19-.071-.288c.053-.1.03.127.099.128.084-.005.039-.246.039-.246s.007-.028.031-.042c.035.004.05.146.082.156.031.01.097-.167.117-.204.03-.005.029-.146.074.152-.024.316-.234.255-.234.462 0 .208.134.369.173.373.039.005.025-.174.025-.174s.02-.085.035-.085c.014 0-.123.033-.11-.203.032-.221.103.014.16 0 .056-.015-.008-.234.009-.268.003-.033.087-.177.119.14.01.147.074-.125.099-.116.042.118-.019.276-.079.384a.498.498 0 00-.124.284c.003.057.024.128.088.128.063 0 .021-.1.025-.151.003-.052.109-.22.109-.22.02-.042.003-.12.025-.155.035 0 .049-.06.084.106.035.165.078-.109.078-.109s.05.203-.057.326c.081-.014.088.028.088.028 0 .057-.038.08-.052.18-.015.099.042.155.042.155s-.053.1-.201-.094a.369.369 0 00.056.208c-.05.03-.088.027-.095.104z" fill="#C8AA41"/><path d="M18.919 7.72s.184-.204.385-.02c-.09.338-.418.21-.418.21s.011.17-.021.25c.065.062.119.266.119.266s.337-.102.407.081a.608.608 0 01.223 0s.26-.081.353-.081c.092 0 .385.095.413.162.027.068.124.523.19.516.065-.006-.158.109-.218-.006-.06-.116-.043.149-.043.149s.185.244.206.298c.022.055-.114.496-.01.802-.091.01-.098.128-.098.128-.005.135-.141.17-.141.17l-.033-.183-.092.068.038-.143s.125-.38.135-.502c.011-.122-.114-.34-.211-.34-.098 0-.169.387-.169.387s-.048.292-.032.32c.016.026-.066-.096-.066-.096s-.043.177-.075.231c-.033.054-.104.075-.104.075s-.049-.177-.032-.245c.016-.067.266-.332.244-.522-.022-.19 0-.143-.005-.15-.006-.006-.13-.142-.136-.217-.005-.074-.163.095-.37.041-.063.138-.07.482-.07.482s-.022.414.022.462c.043.047-.109.149-.109.149l-.108.183s-.038-.115-.038-.108a.692.692 0 01-.076.067l.043-.136c-.003-.102.106-.383.106-.62 0-.238.014-.493.014-.493s-.201-.013-.196.245c.005.258-.049.271-.038.346.01.075.065.285.049.346s-.082.082-.082.082l-.016.034s-.2.115-.195.162a1.634 1.634 0 00-.006-.135l-.01-.197s.119-.095.119-.333c0-.237-.028-.271-.022-.325.005-.055.033-.252.027-.272-.005-.02-.114.054-.146.054-.033 0 .06-.142.07-.244.011-.102-.108.095-.206-.02.045-.126.114-.163.125-.258.01-.095-.076.081-.152.013a.318.318 0 01.081-.17s-.062-.009-.087 0c-.049-.02.055-.115.06-.25.006-.136-.06-.19-.06-.197 0-.007-.108-.123-.124-.17-.017-.048-.017-.102-.017-.102s-.18.163-.39-.183c.193-.207.401-.054.401-.054s.054-.19.304-.177c.25.014.299.19.288.17z" fill="#8E361C"/><ellipse cx="16.263" cy="14.932" rx=".985" ry="2.683" fill="#D9D9DB"/><ellipse cx="22.648" cy="14.932" rx=".985" ry="2.683" fill="#010101"/><path d="M21.188 13.743h-3.464c0 1.8 0 4.381 1.8 4.381s1.664-2.649 1.664-4.38z" fill="#fff"/><path d="M20.645 13.743h-2.378l1.189 3.906 1.189-3.906z" fill="#62C977"/><path d="M21.459 19.992a2.509 2.509 0 00-1.97-.95c-.797 0-1.508.37-1.968.95h-1.047a3.396 3.396 0 016.032 0H21.46z" fill="#EEC543"/><path d="M17.606 18.927c.359.762.319 1.535-.089 1.726-.407.192-1.028-.27-1.386-1.033-.358-.762-.318-1.535.089-1.726.407-.192 1.028.27 1.386 1.033zM21.293 18.927c-.358.762-.318 1.535.09 1.726.407.192 1.027-.27 1.386-1.033.358-.762.318-1.535-.09-1.726-.407-.192-1.027.27-1.386 1.033z" fill="#EEC543"/><path d="M18.375 11.063l-.312 2.646h2.921l-.311-2.646a.272.272 0 00-.27-.24h-1.758a.272.272 0 00-.27.24z" fill="#646263"/><path d="M18.32 10.836l-1.107-1.162a.272.272 0 00-.312-.059l-.517.243a.272.272 0 00-.056.457l.675.549c.049.039.082.094.095.155l.33 1.591c.015.073.06.137.123.176l.464.287a.272.272 0 00.296-.007l.35-.239a.272.272 0 00.111-.28l-.14-.66a.144.144 0 00-.141-.114.144.144 0 01-.143-.155l.045-.572a.272.272 0 00-.074-.21zM20.66 10.836l1.106-1.162a.272.272 0 01.312-.059l.518.243c.181.085.211.33.056.457l-.676.549a.272.272 0 00-.095.155l-.33 1.591a.271.271 0 01-.123.176l-.463.287a.272.272 0 01-.297-.007l-.348-.239a.272.272 0 01-.113-.28l.142-.66a.144.144 0 01.14-.114c.084 0 .15-.071.143-.155l-.046-.572a.272.272 0 01.074-.21z" fill="#fff"/></g><defs><linearGradient id="paint0_linear_107628_1509" x1="0" y1="4" x2="0" y2="14" gradientUnits="userSpaceOnUse"><stop stop-color="#fff"/><stop offset="1" stop-color="#F0F0F0"/></linearGradient><linearGradient id="paint1_linear_107628_1509" x1="0" y1="4" x2="0" y2="13.333" gradientUnits="userSpaceOnUse"><stop stop-color="#FF2E3B"/><stop offset="1" stop-color="#FC0D1B"/></linearGradient></defs></svg>