<svg viewBox="0 0 28 28" fill="none" xmlns="http://www.w3.org/2000/svg"><rect y="4" width="28" height="20" rx="3" fill="#fff"/><mask id="a" style="mask-type:alpha" maskUnits="userSpaceOnUse" x="0" y="4" width="28" height="20"><rect y="4" width="28" height="20" rx="3" fill="#fff"/></mask><g mask="url(#a)"><path fill-rule="evenodd" clip-rule="evenodd" d="M0 9.333h28V4H0v5.333zM0 24h28v-5.333H0V24z" fill="#DD172C"/><path fill-rule="evenodd" clip-rule="evenodd" d="M0 18.667h28V9.333H0v9.334z" fill="#FFD133"/><path fill-rule="evenodd" clip-rule="evenodd" d="M7.333 13.333h1.334V14H7.333v-.667z" fill="#FFEDB1"/><path d="M6.059 13.361A.333.333 0 016.391 13h1.884c.195 0 .349.167.333.361l-.172 2.055a1 1 0 01-.996.917h-.213a1 1 0 01-.997-.917l-.171-2.055z" stroke="#A41517" stroke-width=".667"/><path fill-rule="evenodd" clip-rule="evenodd" d="M6 14h2.667v.667H8L7.333 16l-.666-1.333H6V14z" fill="#A41517"/><rect x="4" y="12" width="1.333" height="4.667" rx=".667" fill="#A41517"/><rect x="9.333" y="12" width="1.333" height="4.667" rx=".667" fill="#A41517"/><path d="M6 11.733c0-.589.478-1.066 1.067-1.066H7.6c.59 0 1.067.477 1.067 1.066 0 .148-.12.267-.267.267H6.267A.267.267 0 016 11.733z" fill="#A41517"/></g></svg>