<svg viewBox="0 0 28 28" fill="none" xmlns="http://www.w3.org/2000/svg"><rect y="4" width="28" height="20" rx="3" fill="#fff"/><mask id="a" style="mask-type:alpha" maskUnits="userSpaceOnUse" x="0" y="4" width="28" height="20"><rect y="4" width="28" height="20" rx="3" fill="#fff"/></mask><g mask="url(#a)"><path fill="#FFBF19" d="M0 4h28v20H0z"/><path fill-rule="evenodd" clip-rule="evenodd" d="M10.667 5.333h14.666c.737 0 1.334.597 1.334 1.334v14.666c0 .737-.597 1.334-1.334 1.334H10.667V5.333z" fill="#A52531"/><path d="M1.333 6.667c0-.737.597-1.334 1.334-1.334h2.666v17.334H2.667a1.333 1.333 0 01-1.334-1.334V6.667z" fill="#03664F"/><rect x="5.333" y="5.333" width="4" height="17.333" rx=".667" fill="#FF6816"/><path fill-rule="evenodd" clip-rule="evenodd" d="M13.333 7.333a.667.667 0 11-1.333 0v-.666h.667c.368 0 .666.298.666.666zm10.667 0a.667.667 0 001.333 0v-.666h-.666a.667.667 0 00-.667.666zM24.667 20a.667.667 0 000 1.333h.666v-.666a.667.667 0 00-.666-.667zm-11.334.667a.667.667 0 10-1.333 0v.666h.667a.667.667 0 00.666-.666zM16 16.574a.574.574 0 00-.574-.574.535.535 0 01-.18-.03c-.386-.139-1.913-.72-1.913-1.303 0-.365.2-.73.38-.986a.832.832 0 00.12-.766c-.226-.598-.593-1.687-.5-2.248.05-.3.25-.561.48-.772.355-.326.854-.018.854.465v2.561c0 .253.142.484.368.597l.677.338a.447.447 0 00.4-.8l-.779-.39V12c.332 0 .438-.448.141-.596l-.14-.07v-.667h1.056c.177 0 .347-.07.472-.196l.276-.276A.666.666 0 0117.61 10h.646c.252 0 .483.143.596.368l.359.718c.079.159.092.342.036.51l-.287.86a.667.667 0 00.633.877h2.191a.524.524 0 00.234-.991l-.543-.272a.667.667 0 00-.298-.07h-.51a.667.667 0 01-.666-.667v-.39c0-.177.07-.347.195-.472l.472-.471v.667c0 .368.298.666.666.666h.922c.252 0 .483.143.596.369l.429.858c.035.07.058.147.065.225.03.336.104 1.305-.012 1.882-.093.467-.355.9-.521 1.14a.77.77 0 00-.145.435v1.915a.51.51 0 11-.965-.227l.228-.456a.315.315 0 000-.281l-.032-.063c-.14-.282-.565-.182-.565.133 0 .046-.01.092-.031.133l-.47.941a.596.596 0 01-1.067-.533l.165-.33a.666.666 0 00.07-.298v-.51a.667.667 0 00-.667-.666H18a.667.667 0 00-.667.667v.509a.666.666 0 01-.07.298l-.432.863a.596.596 0 01-1.066-.533l.165-.33a.666.666 0 00.07-.298v-.602z" fill="#FFBF18"/></g></svg>