<svg viewBox="0 0 24 24" fill="none" xmlns="http://www.w3.org/2000/svg"><path d="M12 4.97l1.92 3.9.3.61.68.1 4.3.63-3.11 3.04-.49.48.12.67.74 4.29-3.85-2.02-.61-.33-.6.32-3.85 2.02.74-4.29.12-.67-.49-.48-3.11-3.04 4.3-.63.68-.1.3-.61L12 4.97zm0-2.05c-.25 0-.5.13-.63.39L8.91 8.3l-5.51.8a.7.7 0 00-.39 1.19L7 14.17l-.94 5.48a.7.7 0 001.02.74L12 17.81l4.92 2.59c.11.06.22.08.33.08a.7.7 0 00.69-.82L17 14.17l3.98-3.88c.42-.4.19-1.11-.39-1.19l-5.51-.8-2.46-4.99a.672.672 0 00-.62-.39z" fill="#626F84"/></svg>