<svg viewBox="0 0 24 24" fill="none" xmlns="http://www.w3.org/2000/svg"><path fill-rule="evenodd" clip-rule="evenodd" d="M4.878 4.867a1.3 1.3 0 011.227-.87h11.79a1.3 1.3 0 011.227.87l1.638 4.667.002.353A2.807 2.807 0 0119 11.815V19.7a1.3 1.3 0 01-1.3 1.3h-3.211a1.3 1.3 0 01-1.3-1.3v-4.441h-2.378V19.7c0 .716-.584 1.297-1.3 1.3H6.3A1.3 1.3 0 015 19.7v-7.88a2.809 2.809 0 01-1.762-1.934l.002-.352 1.638-4.667zM6.3 11.99V19.7h3.211v-4.441a1.3 1.3 0 011.3-1.3h2.378a1.3 1.3 0 011.3 1.3V19.7H17.7v-7.718a2.773 2.773 0 01-1.756-.842c-.516.598-1.274.898-2.01.899-.661 0-1.335-.24-1.832-.72h-.2a2.634 2.634 0 01-1.826.716c-.734 0-1.49-.3-2.004-.896a2.79 2.79 0 01-1.772.85zm7.632-1.25c-.615 0-1.173-.362-1.282-1.096V5.298h1.9l.687 4.433c-.163.672-.717 1.007-1.305 1.008zm2.594-1.175h.01c.18.758.79 1.134 1.45 1.132.618-.002 1.216-.335 1.47-.995l-1.618-4.403h-1.973l.661 4.266zM6.162 5.298h1.959L7.462 9.64c-.206.711-.803 1.064-1.444 1.062-.62-.001-1.22-.336-1.474-1l1.618-4.404zM8.77 9.684l.666-4.386h1.914v4.387c-.125.704-.672 1.051-1.272 1.05-.6 0-1.162-.35-1.308-1.051z" fill="#626F84"/></svg>