<svg viewBox="0 0 24 24" fill="none" xmlns="http://www.w3.org/2000/svg"><path d="M4.878 4.867a1.3 1.3 0 011.227-.87h11.79a1.3 1.3 0 011.227.87l1.638 4.667.002.353c-.194 1.367-1.26 2.109-2.31 2.109s-2.406-.81-2.594-1.582c-.13.78-.92 1.625-1.926 1.625-.928 0-1.777-.934-1.959-1.625-.135.701-.748 1.621-1.895 1.621-1.148 0-1.824-.922-1.98-1.62-.191.687-1.369 1.587-2.39 1.587-1.292 0-2.276-.872-2.47-2.116l.002-.352 1.638-4.667zM5.708 13.302c-.37 0-.708.279-.708.65V19.7A1.3 1.3 0 006.3 21h2.4a1.305 1.305 0 001.3-1.3v-2.427a1.3 1.3 0 011.3-1.3h1.4a1.3 1.3 0 011.3 1.3V19.7a1.3 1.3 0 001.3 1.3h2.4a1.3 1.3 0 001.3-1.3v-5.899c0-.288-.26-.505-.547-.505-.76 0-1.519-.223-2.176-.604a.46.46 0 00-.502.029 3.1 3.1 0 01-1.843.618c-.635 0-1.195-.2-1.654-.485a.476.476 0 00-.506.004 3.09 3.09 0 01-1.694.477 3.17 3.17 0 01-1.875-.587.466.466 0 00-.511-.021 3.823 3.823 0 01-1.984.575z" fill="#626F84"/></svg>