<svg viewBox="0 0 24 24" fill="none" xmlns="http://www.w3.org/2000/svg"><path fill-rule="evenodd" clip-rule="evenodd" d="M2.717 10.24a1.3 1.3 0 01-.016-2.304l7.893-4.19a3 3 0 012.813 0l7.892 4.19c.38.201.603.544.67.911.02.064.031.131.031.201l.028 6.299a.65.65 0 01-1.3 0l-.021-4.81L18.63 11.6v4.265c0 .904-.4 1.761-1.094 2.341a8.66 8.66 0 01-11.112 0 3.053 3.053 0 01-1.094-2.341V11.58l-2.613-1.34zm.594-1.156l7.892-4.19a1.7 1.7 0 011.594 0l7.892 4.19-7.913 4.058a1.7 1.7 0 01-1.552 0L3.311 9.084zm3.319 3.163v3.619c0 .519.23 1.01.628 1.344a7.359 7.359 0 009.444 0c.398-.333.628-.825.628-1.344v-3.599l-3.961 2.031a3 3 0 01-2.738 0L6.63 12.247z" fill="#626F84"/></svg>