<svg viewBox="0 0 28 28" fill="none" xmlns="http://www.w3.org/2000/svg"><rect y="4" width="28" height="20" rx="3" fill="#fff"/><mask id="a" style="mask-type:alpha" maskUnits="userSpaceOnUse" x="0" y="4" width="28" height="20"><rect y="4" width="28" height="20" rx="3" fill="#fff"/></mask><g mask="url(#a)"><path fill="red" d="M0 4h28v20H0z"/><path fill-rule="evenodd" clip-rule="evenodd" d="M12 16H8.333A.333.333 0 018 15.667v-3.334c0-.184.15-.333.333-.333H12V8.333c0-.184.15-.333.333-.333h3.334c.184 0 .333.15.333.333V12h3.667c.184 0 .333.15.333.333v3.334c0 .184-.15.333-.333.333H16v3.667c0 .184-.15.333-.333.333h-3.334a.333.333 0 01-.333-.333V16z" fill="#fff"/></g></svg>