<svg viewBox="0 0 24 24" fill="none" xmlns="http://www.w3.org/2000/svg"><path d="M12.973 7.767a.645.645 0 00.206.482c.117.11.26.176.437.177l3.739-.021a.698.698 0 00.712-.758l-.288-3.652a.658.658 0 00-.698-.6.65.65 0 00-.6.697l.186 2.037a7.5 7.5 0 00-12.125 6.666c.04.384.428.614.797.503.32-.096.514-.418.485-.751a6.2 6.2 0 019.971-5.45l-.01.011-2.153.016a.658.658 0 00-.659.643zM10.496 15.775a.645.645 0 00-.206-.481.627.627 0 00-.437-.178l-3.738.022a.698.698 0 00-.712.758l.287 3.652c.033.36.345.626.698.6a.65.65 0 00.6-.698l-.186-2.044A7.475 7.475 0 0012 19.5c.41 0 .814-.033 1.207-.096.353-.058.563-.425.478-.773-.087-.352-.44-.545-.8-.494a6.18 6.18 0 01-5.209-1.694l.009-.008 2.152-.016a.658.658 0 00.66-.644zM20.17 11.895a.65.65 0 10-.902-.937l-1.886 1.817-1.886-1.817a.65.65 0 10-.902.937l1.851 1.783-1.85 1.783a.65.65 0 00.901.937l1.886-1.817 1.886 1.817a.65.65 0 00.902-.937l-1.851-1.783 1.85-1.784z" fill="#626F84"/></svg>