<svg viewBox="0 0 24 24" fill="none" xmlns="http://www.w3.org/2000/svg"><path d="M13.18 8.25a.645.645 0 01-.207-.483.658.658 0 01.66-.643l2.152-.016.01-.011a6.2 6.2 0 00-9.971 5.45c.029.333-.164.655-.485.751-.37.111-.757-.12-.797-.503a7.5 7.5 0 0112.125-6.666l-.187-2.037a.65.65 0 01.601-.698.658.658 0 01.698.601l.288 3.652a.698.698 0 01-.712.758l-3.739.021a.627.627 0 01-.437-.177zM10.29 15.294c.131.123.207.29.206.481a.658.658 0 01-.659.644l-2.152.016-.009.009A6.18 6.18 0 0012 18.2c.35 0 .694-.029 1.028-.085.357-.06.697.064.79.414.09.343-.088.78-.437.844-.447.083-.91.127-1.381.127a7.475 7.475 0 01-5.198-2.094l.187 2.044a.65.65 0 01-.6.698.658.658 0 01-.699-.6l-.287-3.652a.698.698 0 01.712-.758l3.738-.022c.177.002.32.068.437.178zM16.985 15.949c-.27.29-.73.3-1.01.02L13.93 14.03a.658.658 0 010-.92c.25-.25.67-.25.92 0l1.604 1.499 3.09-3.127a.65.65 0 01.92-.04c.26.24.28.65.04.92l-3.52 3.587z" fill="#626F84"/></svg>