<svg viewBox="0 0 28 28" fill="none" xmlns="http://www.w3.org/2000/svg"><rect x=".25" y="4.25" width="27.5" height="19.5" rx="2.75" fill="#fff" stroke="#D6D8DD" stroke-width=".5"/><mask id="a" style="mask-type:alpha" maskUnits="userSpaceOnUse" x="0" y="4" width="28" height="20"><rect x=".25" y="4.25" width="27.5" height="19.5" rx="2.75" fill="#fff" stroke="#fff" stroke-width=".5"/></mask><g mask="url(#a)" fill-rule="evenodd" clip-rule="evenodd"><path d="M0 24h28v-6.667H0V24z" fill="#262626"/><path d="M0 10.667h28V4H0v6.667z" fill="#E32139"/><path d="M9.333 15.093l-1.567 1.064.528-1.82-1.497-1.161 1.894-.06.642-1.783.643 1.783 1.893.06-1.496 1.162.528 1.82-1.568-1.065zM18.667 15.093l-1.568 1.064.528-1.82-1.496-1.161 1.893-.06.643-1.783.642 1.783 1.894.06-1.497 1.162.528 1.82-1.567-1.065z" fill="#128A49"/></g></svg>