<svg viewBox="0 0 24 24" fill="none" xmlns="http://www.w3.org/2000/svg"><path d="M9.697 14.374h-1.4v1.4h1.4v-1.4z" fill="#626F84"/><path fill-rule="evenodd" clip-rule="evenodd" d="M20.39 7.525c.838 0 .838 1.3 0 1.3H19V15.2h1.39a.65.65 0 110 1.3H19V18c0 1.65-1.34 3-3 3H7c-1.66 0-3-1.34-3-3V6.035c0-1.66 1.34-3 3-3h9c1.66 0 3 1.34 3 3v1.49h1.39zm-9.523.942a.65.65 0 00-.985-.849L8.749 8.933l-.686-.636a.65.65 0 00-.885.952l1.18 1.096a.65.65 0 00.935-.052l1.574-1.826zm1.552.489c0 .359.29.65.65.65h2.281a.65.65 0 100-1.3h-2.281a.65.65 0 00-.65.65zm0 6.118c0 .359.29.65.65.65h2.281a.65.65 0 100-1.3h-2.281a.65.65 0 00-.65.65zm-4.122-2a1.3 1.3 0 00-1.3 1.3v1.4a1.3 1.3 0 001.3 1.3h1.4a1.3 1.3 0 001.3-1.3v-1.4a1.3 1.3 0 00-1.3-1.3h-1.4z" fill="#626F84"/></svg>