<svg viewBox="0 0 24 24" fill="none" xmlns="http://www.w3.org/2000/svg"><path fill-rule="evenodd" clip-rule="evenodd" d="M20.167 19.248l1.637 1.636a.65.65 0 11-.919.92l-1.636-1.636a3.227 3.227 0 11.918-.92zm-4.624-1.773a1.927 1.927 0 103.854 0 1.927 1.927 0 00-3.854 0z" fill="#626F84"/><path fill-rule="evenodd" clip-rule="evenodd" d="M20 13.15c0 .24-.272.387-.486.278a4.529 4.529 0 00-6.086 6.086c.109.214-.038.486-.278.486H7a3 3 0 01-3-3V7a3 3 0 013-3h10a3 3 0 013 3v6.15zm-8.624-1.8a.65.65 0 110 1.3H8.672a.65.65 0 110-1.3h2.704zm3.98-3.51a.65.65 0 110 1.3H8.673a.65.65 0 010-1.3h6.685z" fill="#626F84"/></svg>