<svg viewBox="0 0 24 24" fill="none" xmlns="http://www.w3.org/2000/svg"><path fill-rule="evenodd" clip-rule="evenodd" d="M21.804 20.884l-1.637-1.636a3.227 3.227 0 10-.918.92l1.636 1.636a.65.65 0 10.92-.92zm-4.334-1.482a1.927 1.927 0 110-3.854 1.927 1.927 0 010 3.854z" fill="#626F84"/><path d="M20 12.688c0 .437-.497.712-.904.555a.598.598 0 01-.396-.545V7A1.7 1.7 0 0017 5.3H7A1.7 1.7 0 005.3 7v10A1.7 1.7 0 007 18.7h5.698c.244 0 .457.168.544.396.157.408-.117.904-.554.904H7a3 3 0 01-3-3V7a3 3 0 013-3h10a3 3 0 013 3v5.688z" fill="#626F84"/><path d="M11.376 11.35a.65.65 0 110 1.3H8.672a.65.65 0 110-1.3h2.704zM15.357 7.84a.65.65 0 010 1.3H8.673a.65.65 0 110-1.3h6.684z" fill="#626F84"/></svg>