<svg viewBox="0 0 24 24" fill="none" xmlns="http://www.w3.org/2000/svg"><path d="M18.576 15.894a.3.3 0 01.424 0l1.098 1.098a.3.3 0 010 .424l-3.54 3.54a3 3 0 01-1.284.76l-.858.25a.3.3 0 01-.373-.368l.237-.857a3 3 0 01.77-1.321l3.526-3.526z" fill="#626F84"/><path fill-rule="evenodd" clip-rule="evenodd" d="M7 4a3 3 0 00-3 3v10a3 3 0 003 3h4.606a1.3 1.3 0 00.919-.38l7.094-7.095a1.3 1.3 0 00.381-.92V7a3 3 0 00-3-3H7zm1.015 3.65a.65.65 0 01.65-.65h6.67a.65.65 0 110 1.3H12.65v8.084a.65.65 0 11-1.3 0V8.3H8.665a.65.65 0 01-.65-.65z" fill="#626F84"/><path d="M21.375 14.085a.7.7 0 00-.99 0l-.7.7a.3.3 0 000 .425l1.097 1.098a.3.3 0 00.425 0l.7-.701a.7.7 0 000-.99l-.532-.532z" fill="#626F84"/></svg>