<svg viewBox="0 0 24 24" fill="none" xmlns="http://www.w3.org/2000/svg"><path fill-rule="evenodd" clip-rule="evenodd" d="M21.804 20.884l-1.637-1.636a3.227 3.227 0 00-3.987-4.732l-3.562-7.178-.02.008.02-.01a.65.65 0 00-.595-.36.65.65 0 00-.594.36l.02.01-.02-.01-4.375 8.817a.65.65 0 101.164.578l1.055-2.126h5.5l.334.672a3.227 3.227 0 004.142 4.89l1.636 1.637a.65.65 0 10.92-.92zm-7.675-7.579l-2.106-4.241-2.105 4.241h4.21zm3.341 6.097a1.927 1.927 0 110-3.854 1.927 1.927 0 010 3.854z" fill="#626F84"/><path d="M20 12.688c0 .437-.496.712-.904.555a.598.598 0 01-.396-.545V7A1.7 1.7 0 0017 5.3H7A1.7 1.7 0 005.3 7v10A1.7 1.7 0 007 18.7h5.698c.244 0 .457.168.544.396.157.408-.117.904-.554.904H7a3 3 0 01-3-3V7a3 3 0 013-3h10a3 3 0 013 3v5.688z" fill="#626F84"/></svg>