<svg viewBox="0 0 24 24" fill="none" xmlns="http://www.w3.org/2000/svg"><path d="M18.576 15.894a.3.3 0 01.424 0l1.098 1.098a.3.3 0 010 .424l-3.54 3.54a3 3 0 01-1.284.76l-.858.25a.3.3 0 01-.373-.368l.237-.857a3 3 0 01.77-1.321l3.526-3.526zM19.81 12.835a.65.65 0 00.19-.46V7a3 3 0 00-3-3H7a3 3 0 00-3 3v10a3 3 0 003 3h5.375a.65.65 0 000-1.3H7A1.7 1.7 0 015.3 17V7A1.7 1.7 0 017 5.3h10A1.7 1.7 0 0118.7 7v5.375c0 .58.7.87 1.11.46z" fill="#626F84"/><path d="M8.015 7.606a.65.65 0 01.65-.65h6.67a.65.65 0 010 1.3H12.65v7.143a.65.65 0 01-1.3 0V8.256H8.665a.65.65 0 01-.65-.65zM21.375 14.085a.7.7 0 00-.99 0l-.7.7a.3.3 0 000 .425l1.097 1.098a.3.3 0 00.425 0l.7-.701a.7.7 0 000-.99l-.532-.532z" fill="#626F84"/></svg>