<svg viewBox="0 0 24 24" fill="none" xmlns="http://www.w3.org/2000/svg"><path fill-rule="evenodd" clip-rule="evenodd" d="M22 17.5a4.5 4.5 0 11-9 0 4.5 4.5 0 019 0zm-2.182-1.255a.65.65 0 01.015.919l-2.17 2.241a.65.65 0 01-.911.022l-1.55-1.455a.65.65 0 01.89-.948l1.082 1.017 1.725-1.782a.65.65 0 01.92-.014zm-.256-4.168c.207.079.438-.067.438-.288V7a3 3 0 00-3-3H7a3 3 0 00-3 3v10a3 3 0 003 3h4.789c.22 0 .367-.231.288-.438a5.8 5.8 0 017.485-7.485zM12.027 12a.65.65 0 00-.65-.65H8.672a.65.65 0 100 1.3h2.704a.65.65 0 00.65-.65zm3.98-3.51a.65.65 0 00-.65-.65H8.673a.65.65 0 100 1.3h6.685a.65.65 0 00.65-.65z" fill="#626F84"/></svg>