<svg viewBox="0 0 24 24" fill="none" xmlns="http://www.w3.org/2000/svg"><path fill-rule="evenodd" clip-rule="evenodd" d="M20.167 19.248l1.637 1.636a.65.65 0 11-.919.92l-1.636-1.636a3.227 3.227 0 01-4.538-4.368.65.65 0 01-.026-.184V12.3h-5.37v4.095a.65.65 0 11-1.3 0V7.606a.65.65 0 011.3 0v3.393h5.37V7.606a.65.65 0 111.3 0v7.003a3.227 3.227 0 014.182 4.638zm-4.624-1.773a1.927 1.927 0 103.854 0 1.927 1.927 0 00-3.854 0z" fill="#626F84"/><path d="M20 12.688c0 .437-.496.712-.904.555a.598.598 0 01-.396-.545V7A1.7 1.7 0 0017 5.3H7A1.7 1.7 0 005.3 7v10A1.7 1.7 0 007 18.7h5.698c.244 0 .457.168.544.396.157.408-.117.904-.554.904H7a3 3 0 01-3-3V7a3 3 0 013-3h10a3 3 0 013 3v5.688z" fill="#626F84"/></svg>