<svg viewBox="0 0 24 24" fill="none" xmlns="http://www.w3.org/2000/svg"><path fill-rule="evenodd" clip-rule="evenodd" d="M20.167 19.248l1.637 1.636a.65.65 0 11-.919.92l-1.636-1.636a3.227 3.227 0 11.918-.92zm-4.624-1.773a1.927 1.927 0 103.854 0 1.927 1.927 0 00-3.854 0z" fill="#626F84"/><path d="M20 13.15c0 .24-.272.387-.486.278a4.51 4.51 0 00-2.043-.485 4.51 4.51 0 00-1.877.406l-3-6.046A.65.65 0 0012 6.942a.65.65 0 00-.594.361L7.03 16.119a.65.65 0 101.165.578l1.055-2.126h4.743a4.51 4.51 0 00-1.05 2.9c0 .735.175 1.43.485 2.043.109.214-.038.486-.278.486H7a3 3 0 01-3-3V7a3 3 0 013-3h10a3 3 0 013 3v6.15z" fill="#626F84"/><path d="M12 9.03L9.895 13.27h4.21L12 9.03z" fill="#626F84"/></svg>