<svg viewBox="0 0 24 24" fill="none" xmlns="http://www.w3.org/2000/svg"><path fill-rule="evenodd" clip-rule="evenodd" d="M20.167 19.248l1.637 1.636a.65.65 0 11-.919.92l-1.636-1.636a3.227 3.227 0 11.918-.92zm-4.624-1.773a1.927 1.927 0 103.854 0 1.927 1.927 0 00-3.854 0z" fill="#626F84"/><path d="M20 13.15c0 .24-.272.387-.486.278a4.51 4.51 0 00-2.043-.485c-.511 0-1.003.084-1.461.24V7.62a.65.65 0 00-1.3 0v3.393H9.34V7.62a.65.65 0 10-1.3 0v8.788a.65.65 0 101.3 0v-4.095h5.37v1.569a4.521 4.521 0 00-1.767 3.59c0 .734.175 1.428.485 2.042.109.214-.038.486-.278.486H7a3 3 0 01-3-3V7a3 3 0 013-3h10a3 3 0 013 3v6.15z" fill="#626F84"/></svg>