<svg viewBox="0 0 24 24" fill="none" xmlns="http://www.w3.org/2000/svg"><path fill-rule="evenodd" clip-rule="evenodd" d="M19.09 14.124c.406.157.91-.114.91-.549V7a3 3 0 00-3-3H7a3 3 0 00-3 3v10a3 3 0 003 3h6.086c.417 0 .69-.454.57-.854-.076-.251-.299-.446-.561-.446H7A1.7 1.7 0 015.3 17V7A1.7 1.7 0 017 5.3h10A1.7 1.7 0 0118.7 7v6.588c0 .24.166.449.39.536zM12.026 12a.65.65 0 00-.65-.65H8.672a.65.65 0 100 1.3h2.704a.65.65 0 00.65-.65zm3.98-3.51a.65.65 0 00-.65-.65H8.673a.65.65 0 000 1.3h6.685a.65.65 0 00.65-.65zm3.827 8.674a.65.65 0 00-.934-.905l-1.725 1.782-1.083-1.017a.65.65 0 00-.89.948l1.55 1.455a.65.65 0 00.912-.022l2.17-2.241z" fill="#626F84"/></svg>