<svg viewBox="0 0 24 24" fill="none" xmlns="http://www.w3.org/2000/svg"><path d="M7.565 7.968a4.464 4.464 0 118.87 0l-.262 2.306a4.2 4.2 0 01-8.346 0l-.262-2.306zM12.994 15a1.3 1.3 0 011.3 1.3v3.4a1.3 1.3 0 01-1.3 1.3H4.873a.7.7 0 01-.684-.852l.1-.45A6 6 0 0110.146 15h2.848zM19.79 19c0 .834-.507 1.55-1.28 1.871-.774.322-1.743.227-2.714-.353a.65.65 0 11.667-1.116c.7.419 1.236.399 1.55.269.315-.131.477-.393.477-.67 0-.366-.133-.571-.294-.7-.182-.144-.455-.232-.761-.232h-.56a.65.65 0 110-1.3h.56c.422 0 .671-.21.794-.47.136-.29.108-.623-.045-.843-.19-.272-.413-.379-.661-.394-.274-.017-.636.078-1.047.337a.65.65 0 01-.694-1.1c.563-.355 1.195-.573 1.82-.535.653.04 1.237.358 1.649.949.447.642.466 1.476.154 2.14a2.142 2.142 0 01-.323.495c.438.384.708.946.708 1.652z" fill="#626F84"/></svg>