<svg viewBox="0 0 24 24" fill="none" xmlns="http://www.w3.org/2000/svg"><path fill-rule="evenodd" clip-rule="evenodd" d="M19.704 14.377c.718 0 1.3-.587 1.3-1.31V5.31c0-.723-.582-1.31-1.3-1.31h-1.801c-.718 0-1.3.587-1.3 1.31v7.756c0 .724.582 1.31 1.3 1.31h1.8zm-4.419-.704c0 .215-.053.427-.153.617l-1.397 2.638a2.786 2.786 0 00-.323 1.303v.337A2.422 2.422 0 0110.999 21a2.422 2.422 0 01-2.413-2.432v-.652a3 3 0 01.094-.742l.47-1.842H7c-1.952 0-3.384-1.849-2.91-3.757l1.313-5.286A3.005 3.005 0 018.314 4h5.671c.718 0 1.3.587 1.3 1.31v8.363z" fill="#626F84"/></svg>