<svg viewBox="0 0 24 24" fill="none" xmlns="http://www.w3.org/2000/svg"><path fill-rule="evenodd" clip-rule="evenodd" d="M19.696 4c.718 0 1.3.587 1.3 1.31v7.756c0 .724-.582 1.31-1.3 1.31h-3.612l-2.073 2.454c-.387.457-.6 1.039-.6 1.64v.098A2.422 2.422 0 0111 21a2.422 2.422 0 01-2.413-2.432v-.652a3 3 0 01.094-.742l.47-1.842H7c-1.952 0-3.384-1.849-2.91-3.758L5.404 6.29A3.005 3.005 0 018.314 4h11.382zm-4.424 9.317V5.31H8.314c-.78 0-1.46.535-1.649 1.298l-1.313 5.285c-.268 1.081.543 2.13 1.65 2.13h2.147c.402 0 .781.187 1.028.507.246.32.332.737.231 1.129l-.428 1.68a3 3 0 00-.094.742v.487c0 .62.499 1.122 1.113 1.122.615 0 1.113-.502 1.113-1.122v-.098c0-.912.322-1.795.91-2.49l2.25-2.663zm1.33-.25V5.31h3.094v7.756h-3.094z" fill="#626F84"/></svg>