<svg viewBox="0 0 24 24" fill="none" xmlns="http://www.w3.org/2000/svg"><path fill-rule="evenodd" clip-rule="evenodd" d="M5.3 9.623c-.718 0-1.3.587-1.3 1.31v7.757c0 .723.582 1.31 1.3 1.31h1.79c.718 0 1.3-.587 1.3-1.31v-7.756c0-.724-.582-1.31-1.3-1.31H5.3zm4.408.704c0-.215.053-.427.154-.617l1.397-2.638c.213-.4.324-.849.324-1.303v-.337A2.423 2.423 0 0113.997 3a2.423 2.423 0 012.414 2.432v.653c0 .25-.031.499-.093.741l-.47 1.842h2.149c1.953 0 3.386 1.849 2.912 3.757l-1.314 5.286A3.006 3.006 0 0116.683 20H11.01c-.718 0-1.3-.587-1.3-1.31v-8.363z" fill="#626F84"/></svg>