<svg viewBox="0 0 24 24" fill="none" xmlns="http://www.w3.org/2000/svg"><path d="M12 3a4.464 4.464 0 014.435 4.968l-.262 2.306a4.2 4.2 0 01-8.346 0l-.262-2.306A4.464 4.464 0 0112 3zM12.115 16.042c-.129-.499.216-1.042.73-1.042h1.009a6 6 0 015.857 4.698l.1.45a.7.7 0 01-.684.852h-6.593c-.578 0-.93-.683-.702-1.215a5.81 5.81 0 00.283-3.743z" fill="#626F84"/><path fill-rule="evenodd" clip-rule="evenodd" d="M2 17.5a4.5 4.5 0 109 0 4.5 4.5 0 00-9 0zm4.156 2.644c.13.14.3.21.48.21.16 0 .31-.05.44-.17l2.348-2.237c.31-.28.31-.76 0-1.04l-2.348-2.228a.658.658 0 00-.92.04.65.65 0 00.04.92l1.189 1.138H4.013a.65.65 0 100 1.3h3.379l-1.196 1.147c-.26.24-.28.65-.04.92z" fill="#626F84"/></svg>