<svg viewBox="0 0 24 24" fill="none" xmlns="http://www.w3.org/2000/svg"><path d="M3.377 17.906a.628.628 0 01.629-.604l3.455.006-1.45-1.337a.624.624 0 01-.008-.886.633.633 0 01.886-.007l2.528 2.455a.671.671 0 01-.035 1l-2.694 2.383a.604.604 0 01-.429.149.62.62 0 01-.454-.219.633.633 0 01.07-.883l1.548-1.405s-1.784.01-3.425-.001a.626.626 0 01-.621-.65z" fill="#626F84"/><path fill-rule="evenodd" clip-rule="evenodd" d="M12 3a4.464 4.464 0 014.435 4.968l-.262 2.306a4.2 4.2 0 01-8.347 0l-.262-2.306A4.464 4.464 0 0112 3zm-2.882 7.127l-.262-2.306a3.164 3.164 0 116.288 0l-.262 2.306a2.9 2.9 0 01-5.764 0z" fill="#626F84"/><path d="M13.854 15a6 6 0 015.857 4.698l.1.45a.7.7 0 01-.684.852h-7.784a.65.65 0 110-1.3h7.027a4.7 4.7 0 00-4.517-3.4h-2.51a.65.65 0 110-1.3h2.51z" fill="#626F84"/></svg>