<svg viewBox="0 0 28 28" fill="none" xmlns="http://www.w3.org/2000/svg"><rect y="4" width="28" height="20" rx="3" fill="#fff"/><mask id="a" style="mask-type:alpha" maskUnits="userSpaceOnUse" x="0" y="4" width="28" height="20"><rect y="4" width="28" height="20" rx="3" fill="#fff"/></mask><g mask="url(#a)"><path fill="#FFD44D" d="M0 4h28v20H0z"/><path fill-rule="evenodd" clip-rule="evenodd" d="M12 4h16v4H12V4zm0 8h16v4H12v-4zm16 8H0v4h28v-4z" fill="#159A74"/><path fill="#ED1F45" d="M0 4h12v12H0z"/><path fill-rule="evenodd" clip-rule="evenodd" d="M6 11.56l-2.351 1.676.867-2.754-2.32-1.718 2.887-.026L6 6l.917 2.738 2.887.026-2.32 1.718.867 2.754L6 11.56z" fill="#fff"/></g></svg>