<svg viewBox="0 0 28 28" fill="none" xmlns="http://www.w3.org/2000/svg"><mask id="a" style="mask-type:alpha" maskUnits="userSpaceOnUse" x="0" y="4" width="28" height="20"><rect y="4" width="28" height="20" rx="3" fill="#062365"/></mask><g mask="url(#a)"><path fill="#062365" d="M0 4h28v20H0z"/><path d="M26.052 20.064l-20.507-.218c-.386-.224-.16-.445 0-.528l20.351.17.53.327-.374.249zM26.472 19.209l-20.787-.171c1.171-.612 3.816-2.352 5.55-3.856 1.757-1.524 7.992-5.504 11.35-6.919-3.887 3.887.777 10.822 3.887 10.822v.124z" fill="#F8D147"/><path d="M5.902 8.14l.165.504h.53l-.43.312.165.505-.43-.312-.429.312.164-.505-.43-.312h.531l.164-.505zM5.903 16.317l.185.57h.598l-.484.351.185.57-.484-.352-.485.352.185-.57-.484-.351h.599l.185-.57zM2.73 11.31l.165.506h.53l-.429.312.164.505-.43-.312-.429.312.164-.505-.43-.312h.532l.164-.505zM8.639 10.658l.129.397h.418l-.338.246.129.397-.338-.245-.338.245.129-.397-.338-.246h.418l.129-.397z" fill="#fff"/></g></svg>