<svg viewBox="0 0 28 28" fill="none" xmlns="http://www.w3.org/2000/svg"><rect x=".25" y="4.25" width="27.5" height="19.5" rx="2.75" fill="#fff" stroke="#D6D8DD" stroke-width=".5"/><mask id="a" style="mask-type:alpha" maskUnits="userSpaceOnUse" x="0" y="4" width="28" height="20"><rect x=".25" y="4.25" width="27.5" height="19.5" rx="2.75" fill="#fff" stroke="#fff" stroke-width=".5"/></mask><g mask="url(#a)" fill-rule="evenodd" clip-rule="evenodd"><path d="M28 4H16v10.667H0V24h28V4z" fill="#E20F1B"/><path d="M7 5.333a.333.333 0 00-.333.334V8H4.333A.333.333 0 004 8.333v2c0 .184.15.334.333.334h2.334V13c0 .184.149.333.333.333h2c.184 0 .333-.149.333-.333v-2.333h2.334c.184 0 .333-.15.333-.334v-2A.333.333 0 0011.667 8H9.333V5.667A.333.333 0 009 5.333H7z" fill="url(#paint0_linear_17_4402)"/></g><defs><linearGradient id="paint0_linear_17_4402" x1="4" y1="5.333" x2="4" y2="13.333" gradientUnits="userSpaceOnUse"><stop stop-color="#DF101B"/><stop offset="1" stop-color="#C00711"/></linearGradient></defs></svg>