<svg viewBox="0 0 24 24" fill="none" xmlns="http://www.w3.org/2000/svg"><path d="M7.777 14.946L6.248 16.71a.65.65 0 11-.982-.851l1.79-2.065a.653.653 0 01.151-.129.706.706 0 01.873-.06 7.025 7.025 0 003.888 1.168c1.5 0 2.89-.468 4.034-1.265.292-.204.696-.175.93.095a.655.655 0 01.05.066l1.752 2.022a.65.65 0 11-.983.851l-1.453-1.677a8.308 8.308 0 01-3.649 1.18v1.902a.65.65 0 01-1.3 0v-1.877l.001-.02a8.307 8.307 0 01-3.573-1.103zM5.412 18.65a1.3 1.3 0 11-2.6 0 1.3 1.3 0 012.6 0zM13.3 20.7a1.3 1.3 0 11-2.6 0 1.3 1.3 0 012.6 0zM19.888 19.95a1.3 1.3 0 100-2.6 1.3 1.3 0 000 2.6zM11.299 6.916V5.36h1.778a.779.779 0 110 1.557H11.3z" fill="#626F84"/><path fill-rule="evenodd" clip-rule="evenodd" d="M12 13.419A5.71 5.71 0 1012 2a5.71 5.71 0 000 11.419zm1.077-5.203H11.3v.7h1.743a.65.65 0 110 1.3h-1.743v.493a.65.65 0 11-1.3 0v-.493h-.424a.65.65 0 010-1.3H10v-.7h-.415a.65.65 0 010-1.3h.415V5.008c0-.528.428-.949.95-.949h2.128a2.079 2.079 0 110 4.157z" fill="#626F84"/></svg>