<svg viewBox="0 0 24 24" fill="none" xmlns="http://www.w3.org/2000/svg"><path fill-rule="evenodd" clip-rule="evenodd" d="M12.864 8.246h-1.28v.603h1.253a.65.65 0 110 1.3h-1.253v.317a.65.65 0 11-1.3 0v-.316h-.433a.65.65 0 010-1.3h.433v-.604h-.42a.65.65 0 010-1.3h.42V5.625a.95.95 0 01.95-.95h1.63a1.786 1.786 0 010 3.57zm-1.28-1.3v-.971h1.28a.486.486 0 010 .97h-1.28z" fill="#626F84"/><path fill-rule="evenodd" clip-rule="evenodd" d="M17.71 7.71a5.71 5.71 0 11-11.42 0 5.71 5.71 0 0111.42 0zm-1.3 0a4.41 4.41 0 11-8.82 0 4.41 4.41 0 018.82 0z" fill="#626F84"/><path d="M6.248 16.71l1.529-1.764a8.307 8.307 0 003.573 1.103.68.68 0 000 .02v1.877a.65.65 0 001.3 0v-1.877-.025a8.308 8.308 0 003.648-1.18l1.454 1.677a.65.65 0 10.982-.851l-1.753-2.022a.655.655 0 00-.05-.066c-.233-.27-.637-.3-.93-.095a7.027 7.027 0 01-4.033 1.265 7.025 7.025 0 01-3.888-1.167.706.706 0 00-.873.059.653.653 0 00-.151.129l-1.79 2.065a.65.65 0 00.982.851zM4.112 19.95a1.3 1.3 0 100-2.6 1.3 1.3 0 000 2.6zM13.3 20.7a1.3 1.3 0 11-2.6 0 1.3 1.3 0 012.6 0zM21.188 18.65a1.3 1.3 0 11-2.6 0 1.3 1.3 0 012.6 0z" fill="#626F84"/></svg>