<svg viewBox="0 0 24 24" fill="none" xmlns="http://www.w3.org/2000/svg"><path d="M15.052 15.735c2.764-.03 4.948-.463 4.948-3.61 0-2.385-2.802-6.519-4.337-8.604a1.204 1.204 0 00-1.956 0 48.83 48.83 0 00-1.583 2.281c-.2.308-.118.714.152.963a5.69 5.69 0 011.834 4.191 5.681 5.681 0 01-1.208 3.511c-.363.465-.177 1.195.41 1.233.145.01.291.017.44.022v2.03a.65.65 0 101.3 0v-2.017z" fill="#626F84"/><path d="M12.81 10.956a4.406 4.406 0 01-3.755 4.357v2.439a.65.65 0 01-1.3 0v-2.439a4.406 4.406 0 115.055-4.357zM4 20.352a.65.65 0 01.65-.65h14.7a.65.65 0 110 1.3H4.65a.65.65 0 01-.65-.65z" fill="#626F84"/></svg>