<svg viewBox="0 0 24 24" fill="none" xmlns="http://www.w3.org/2000/svg"><path fill-rule="evenodd" clip-rule="evenodd" d="M15.052 15.735c2.764-.03 4.948-.463 4.948-3.61 0-2.385-2.802-6.519-4.337-8.604a1.204 1.204 0 00-1.955 0c-.73.99-1.744 2.443-2.608 3.95a4.405 4.405 0 10-3.345 7.842v2.439a.65.65 0 001.3 0v-2.439c.497-.073.966-.23 1.395-.454.791.624 1.96.814 3.302.863v2.03a.65.65 0 101.3 0v-2.017zm-.367-11.349c-.768 1.05-1.812 2.559-2.65 4.073.489.71.775 1.57.775 2.497a4.39 4.39 0 01-1.247 3.071c.171.083.382.156.642.217.652.151 1.474.193 2.48.193 1.498 0 2.52-.101 3.166-.431.278-.143.462-.318.59-.554.138-.251.26-.658.26-1.327 0-.369-.115-.904-.378-1.596-.256-.675-.622-1.42-1.05-2.183-.829-1.479-1.84-2.94-2.588-3.96zm-6.28 9.675a3.105 3.105 0 100-6.21 3.105 3.105 0 000 6.21z" fill="#626F84"/><path d="M4.65 19.702a.65.65 0 100 1.3h14.7a.65.65 0 000-1.3H4.65z" fill="#626F84"/></svg>