<svg viewBox="0 0 28 20" fill="none" xmlns="http://www.w3.org/2000/svg"><rect width="28" height="20" rx="2" fill="#F0F2F5"/><path d="M5.702 6.08l-.369-.205S5.825 5 7.303 5c2.952 0 2.952 3.5 2.952 3.5v1.422H7.052l.104-2.297-.744.286a.167.167 0 00-.107.16.417.417 0 01-.416.429h-.126a.43.43 0 01-.428-.445l.367-1.975zM11.854 6.08l-.369-.205S11.978 5 13.455 5c2.952 0 2.952 3.5 2.952 3.5v1.422h-3.203l.104-2.297-.744.286a.167.167 0 00-.107.16.417.417 0 01-.416.429h-.126a.43.43 0 01-.428-.445l.367-1.975zM18.007 6.08l-.37-.205S18.13 5 19.608 5c2.953 0 2.953 3.5 2.953 3.5v1.422h-3.203l.104-2.297-.744.286a.167.167 0 00-.107.16.417.417 0 01-.417.429h-.126a.43.43 0 01-.428-.445l.368-1.975zM5.99 12.549H4.267a.273.273 0 00-.267.279c0 .154.12.279.267.279h.595v2.255c0 .154.12.279.267.279a.273.273 0 00.266-.28v-2.254h.595a.273.273 0 00.267-.28c0-.153-.12-.278-.267-.278zM8.711 12.549h-.826a.273.273 0 00-.267.279v2.534c0 .154.12.279.267.279a.273.273 0 00.267-.28v-.94h.559c.493 0 .894-.42.894-.936s-.4-.936-.894-.936zm0 1.314h-.56v-.756h.56a.37.37 0 01.361.378.37.37 0 01-.361.378zM11.88 12.549c-.572 0-1.037.536-1.037 1.196v.7c0 .66.465 1.196 1.036 1.196.572 0 1.036-.537 1.036-1.196v-.7c0-.66-.464-1.196-1.036-1.196zm.552 1.896c0 .351-.248.637-.553.637-.304 0-.552-.286-.552-.637v-.7c0-.352.248-.638.552-.638.305 0 .553.286.553.638v.7zM20.304 15.082h-.225l-.631-.987.71-1.112a.287.287 0 00-.073-.387.26.26 0 00-.37.076l-.73 1.144h-.4v-.983c0-.154-.12-.28-.267-.28a.273.273 0 00-.267.28v2.529c0 .154.12.279.267.279a.273.273 0 00.267-.28v-.987h.4l.73 1.143c.05.077.133.124.221.124h.368a.273.273 0 00.267-.28c0-.154-.12-.279-.267-.279zM23.981 15.285l-.145-.386a.285.285 0 00-.058-.154l-.753-1.994a.265.265 0 00-.253-.177.268.268 0 00-.247.187l-.673 1.996a.285.285 0 00-.05.148l-.127.379a.283.283 0 00.162.356.264.264 0 00.34-.17l.092-.27h1.107l.11.29c.041.11.141.177.248.177a.255.255 0 00.097-.02.284.284 0 00.15-.362zm-1.524-.644l.334-.99.374.99h-.708zM16.172 12.549a.273.273 0 00-.267.279v.344l-1.133 1.088v-1.432c0-.154-.12-.28-.267-.28a.273.273 0 00-.267.28v2.534c0 .154.12.279.267.279a.273.273 0 00.267-.28v-.344l1.133-1.087v1.432c0 .154.12.279.267.279a.273.273 0 00.266-.28v-2.533c0-.154-.12-.28-.266-.28zM15.338 12.309c.17 0 .307-.144.307-.321a.314.314 0 00-.306-.321.314.314 0 00-.307.32c0 .178.137.322.306.322z" fill="#29313D"/></svg>