<svg viewBox="0 0 28 28" fill="none" xmlns="http://www.w3.org/2000/svg"><rect y="4" width="28" height="20" rx="3" fill="#fff"/><mask id="a" style="mask-type:alpha" maskUnits="userSpaceOnUse" x="0" y="4" width="28" height="20"><rect y="4" width="28" height="20" rx="3" fill="#fff"/></mask><g mask="url(#a)"><path fill-rule="evenodd" clip-rule="evenodd" d="M0 24h28V4H0v20z" fill="#30C375"/><path fill="#DE414F" d="M4 4h4v20H4z"/><path fill-rule="evenodd" clip-rule="evenodd" d="M6 8c1.105 0 2-.597 2-1.333 0-.737-.895-1.334-2-1.334S4 5.93 4 6.667C4 7.403 4.895 8 6 8z" fill="#fff"/><mask id="b" style="mask-type:alpha" maskUnits="userSpaceOnUse" x="4" y="5" width="4" height="3"><path fill-rule="evenodd" clip-rule="evenodd" d="M6 8c1.105 0 2-.597 2-1.333 0-.737-.895-1.334-2-1.334S4 5.93 4 6.667C4 7.403 4.895 8 6 8z" fill="#fff"/></mask><g mask="url(#b)"><path fill-rule="evenodd" clip-rule="evenodd" d="M6 7.333A.667.667 0 106 6a.667.667 0 000 1.333z" fill="#DD404F"/><path fill="#FBAF29" d="M4 5.333h2v1.333H4zM6 6.667h2V8H6z"/></g><path fill-rule="evenodd" clip-rule="evenodd" d="M6 22.667c1.105 0 2-.597 2-1.334C8 20.597 7.105 20 6 20s-2 .597-2 1.333c0 .737.895 1.334 2 1.334z" fill="#fff"/><mask id="c" style="mask-type:alpha" maskUnits="userSpaceOnUse" x="4" y="20" width="4" height="3"><path fill-rule="evenodd" clip-rule="evenodd" d="M6 22.667c1.105 0 2-.597 2-1.334C8 20.597 7.105 20 6 20s-2 .597-2 1.333c0 .737.895 1.334 2 1.334z" fill="#fff"/></mask><g mask="url(#c)"><path fill-rule="evenodd" clip-rule="evenodd" d="M6 22a.667.667 0 100-1.333A.667.667 0 006 22z" fill="#DD404F"/><path fill="#FBAF29" d="M4 20h2v1.333H4zM6 21.333h2v1.333H6z"/></g><path fill-rule="evenodd" clip-rule="evenodd" d="M6 16c1.105 0 2-.597 2-1.333 0-.737-.895-1.334-2-1.334s-2 .597-2 1.334C4 15.403 4.895 16 6 16z" fill="#28AE67"/><mask id="d" style="mask-type:alpha" maskUnits="userSpaceOnUse" x="4" y="13" width="4" height="3"><path fill-rule="evenodd" clip-rule="evenodd" d="M6 16c1.105 0 2-.597 2-1.333 0-.737-.895-1.334-2-1.334s-2 .597-2 1.334C4 15.403 4.895 16 6 16z" fill="#fff"/></mask><g mask="url(#d)"><path fill-rule="evenodd" clip-rule="evenodd" d="M6 15.333c.736 0 1.333-.298 1.333-.666C7.333 14.299 6.736 14 6 14s-1.333.299-1.333.667c0 .368.597.666 1.333.666z" fill="#DD404F"/></g><path fill-rule="evenodd" clip-rule="evenodd" d="M6 18.667c1.105 0 2-.299 2-.667 0-.368-.895-.667-2-.667S4 17.632 4 18c0 .368.895.667 2 .667z" fill="#28AE67"/><mask id="e" style="mask-type:alpha" maskUnits="userSpaceOnUse" x="4" y="17" width="4" height="2"><path fill-rule="evenodd" clip-rule="evenodd" d="M6 18.667c1.105 0 2-.299 2-.667 0-.368-.895-.667-2-.667S4 17.632 4 18c0 .368.895.667 2 .667z" fill="#fff"/></mask><path fill-rule="evenodd" clip-rule="evenodd" d="M6 12c1.105 0 2-.597 2-1.333 0-.737-.895-1.334-2-1.334s-2 .597-2 1.334C4 11.403 4.895 12 6 12z" fill="#FBAF29"/><mask id="f" style="mask-type:alpha" maskUnits="userSpaceOnUse" x="4" y="9" width="4" height="3"><path fill-rule="evenodd" clip-rule="evenodd" d="M6 12c1.105 0 2-.597 2-1.333 0-.737-.895-1.334-2-1.334s-2 .597-2 1.334C4 11.403 4.895 12 6 12z" fill="#fff"/></mask><g mask="url(#f)"><path fill-rule="evenodd" clip-rule="evenodd" d="M6 11.333A.667.667 0 106 10a.667.667 0 000 1.333z" fill="#DD404F"/><path fill="#28AE67" d="M4 9.333h1.333V12H4zM6.667 9.333H8V12H6.667z"/></g><path fill-rule="evenodd" clip-rule="evenodd" d="M14.823 8.238a.667.667 0 101.021.857.667.667 0 00-1.021-.857zm-1.728 2.585a.667.667 0 10-.857 1.021.667.667 0 00.857-1.021zm-1.333-1.334a.667.667 0 10-.857 1.022.667.667 0 00.857-1.022zm2.666-2.666a.667.667 0 10-.857 1.021.667.667 0 00.857-1.021zm-.666 2a.667.667 0 10-.857 1.02.667.667 0 00.857-1.02z" fill="#fff"/><path fill-rule="evenodd" clip-rule="evenodd" d="M17.476 13.45a4.066 4.066 0 01-6.168-.487 4.067 4.067 0 005.68-5.68 4.066 4.066 0 01.488 6.168z" fill="#fff"/></g></svg>