<svg viewBox="0 0 28 28" fill="none" xmlns="http://www.w3.org/2000/svg"><rect y="4" width="28" height="20" rx="3" fill="#fff"/><mask id="a" style="mask-type:alpha" maskUnits="userSpaceOnUse" x="0" y="4" width="28" height="20"><rect y="4" width="28" height="20" rx="3" fill="#fff"/></mask><g mask="url(#a)"><path fill="#07319C" d="M0 4h28v20H0z"/><path d="M17.667 14V10.666a1 1 0 011-1h4a1 1 0 011 1V14c0 1.543-.768 2.626-1.557 3.336a6.254 6.254 0 01-1.443.966h-.001a6.25 6.25 0 01-1.443-.966c-.788-.71-1.556-1.793-1.556-3.336z" fill="#FFD033" stroke="#fff" stroke-width=".667"/><mask id="b" style="mask-type:alpha" maskUnits="userSpaceOnUse" x="17" y="9" width="7" height="10"><path d="M17.667 14V10.666a1 1 0 011-1h4a1 1 0 011 1V14c0 1.543-.768 2.626-1.557 3.336a6.254 6.254 0 01-1.443.966h-.001a6.25 6.25 0 01-1.443-.966c-.788-.71-1.556-1.793-1.556-3.336z" fill="#fff" stroke="#fff" stroke-width=".667"/></mask><g mask="url(#b)" fill-rule="evenodd" clip-rule="evenodd"><path d="M22 13.333c.368 0 .667-.597.667-1.333s-.299-1.333-.667-1.333c-.368 0-.667.597-.667 1.333s.299 1.333.667 1.333z" fill="#BA5B1F"/><path d="M19.538 13.293c.346-.126.423-.789.171-1.48-.252-.693-.737-1.152-1.082-1.026-.346.126-.423.79-.171 1.481.252.692.736 1.151 1.082 1.025z" fill="#FF9F3E"/><path d="M19.052 13.27c.333.157.856-.258 1.167-.926.311-.667.293-1.334-.04-1.49-.334-.155-.857.26-1.168.927-.311.667-.293 1.334.04 1.49z" fill="#FF937F"/><path d="M20 14.667l.667-1.334.666 1.334V16H20v-1.333z" fill="#01A827"/></g><path d="M0 3.667h-.901l.684.586 4.55 3.9v1.009l-4.527 3.233-.14.1v1.44l.51-.319 5.253-3.283h1.13l4.523 3.23a.554.554 0 00.682-.87L7.667 9.18V8.172l4.387-3.134a.667.667 0 00.28-.543V3.4l-.51.318L6.57 7h-1.13L.86 3.729l-.088-.062H0z" fill="#DB1E36" stroke="#fff" stroke-width=".667"/><path fill-rule="evenodd" clip-rule="evenodd" d="M0 7.333V10h4.667v3.333c0 .368.298.667.666.667h1.334a.667.667 0 00.666-.667V10H12a.667.667 0 00.667-.667V8A.667.667 0 0012 7.333H7.333V4H4.667v3.333H0z" fill="#fff"/><path fill-rule="evenodd" clip-rule="evenodd" d="M0 8h5.333V4h1.334v4H12v1.333H6.667v4H5.333v-4H0V8z" fill="#DB1E36"/></g></svg>