<svg viewBox="0 0 28 28" fill="none" xmlns="http://www.w3.org/2000/svg"><rect y="4" width="28" height="20" rx="3" fill="#fff"/><mask id="a" style="mask-type:alpha" maskUnits="userSpaceOnUse" x="0" y="4" width="28" height="20"><rect y="4" width="28" height="20" rx="3" fill="#fff"/></mask><g mask="url(#a)"><path fill="#52B3EB" d="M0 4h28v20H0z"/><path fill="#062365" d="M0 3.991h12.649V14H0z"/><path d="M0 3.667h-.901l.684.586 4.55 3.9v1.009l-4.527 3.233-.14.1v1.44l.51-.319 5.253-3.283h1.13l4.523 3.23a.554.554 0 00.682-.87L7.667 9.18V8.172l4.387-3.134a.667.667 0 00.28-.543V3.4l-.51.318L6.57 7h-1.13L.86 3.729l-.088-.062H0z" fill="#DB1E36" stroke="#fff" stroke-width=".667"/><path fill-rule="evenodd" clip-rule="evenodd" d="M0 7.333V10h4.667v3.333c0 .368.298.667.666.667h1.334a.667.667 0 00.666-.667V10H12a.667.667 0 00.667-.667V8A.667.667 0 0012 7.333H7.333V4H4.667v3.333H0z" fill="#fff"/><path fill-rule="evenodd" clip-rule="evenodd" d="M0 8h5.333V4h1.334v4H12v1.333H6.667v4H5.333v-4H0V8z" fill="#DB1E36"/><path d="M24.223 6l.312.962h1.011l-.817.594.312.961-.818-.594-.818.594.313-.961-.819-.594h1.012L24.223 6zM25.235 12.747l.331 1.02h1.073l-.868.63.332 1.02-.868-.63-.867.63.33-1.02-.867-.63h1.073l.331-1.02zM21.271 14.771l.313.962h1.01l-.817.594.312.961-.818-.594-.818.595.313-.962-.818-.594h1.01l.313-.962zM10.392 20.169l.312.961h1.011l-.818.595.313.961-.818-.594-.818.594.312-.961-.818-.595h1.011l.313-.961zM20.821 9.107l.828.612.837-.597-.326.976.827.611-1.029-.008-.326.975-.31-.98-1.029-.01.838-.597-.31-.982zM17.152 10.052l.852.63.863-.615-.336 1.004.851.63-1.06-.009-.335 1.005-.319-1.01-1.06-.01.863-.615-.319-1.01zM14.51 14.253l.836.618.847-.604-.33.986.835.618-1.039-.009-.33.986-.313-.991-1.039-.01.846-.603-.312-.991zM18.599 18.048l.835.618.847-.604-.33.986.835.619-1.039-.01-.33.986-.313-.991-1.039-.009.846-.604-.312-.991zM14.297 19.313l.836.618.846-.604-.33.986.836.619-1.04-.01-.33.986-.312-.99-1.04-.01.847-.604-.313-.991z" fill="#F9DD4A"/></g></svg>