<svg viewBox="0 0 24 24" fill="none" xmlns="http://www.w3.org/2000/svg"><path d="M11.594 8.461l-1.335 4.644a.3.3 0 00.288.383h2.67a.3.3 0 00.289-.383l-1.335-4.644c-.083-.29-.494-.29-.577 0z" fill="#626F84"/><path fill-rule="evenodd" clip-rule="evenodd" d="M9.483 15.902a.3.3 0 01.289-.22h4.192a.3.3 0 01.288.218l.746 2.583a.3.3 0 00.288.217h2.5a.3.3 0 00.284-.394l-4.235-12.8a.3.3 0 00-.285-.206h-3.1a.3.3 0 00-.285.206l-4.235 12.8a.3.3 0 00.285.394H8.47a.3.3 0 00.289-.219l.724-2.58zM4.305 19.08a.7.7 0 00.664.92h4.183a.7.7 0 00.674-.51l.642-2.288a.3.3 0 01.289-.22h2.23a.3.3 0 01.287.218l.663 2.294a.7.7 0 00.672.506h4.422a.7.7 0 00.665-.92l-4.831-14.6A.7.7 0 0014.2 4H9.8a.7.7 0 00-.665.48l-4.83 14.6z" fill="#626F84"/></svg>