<svg viewBox="0 0 24 24" fill="none" xmlns="http://www.w3.org/2000/svg"><path fill-rule="evenodd" clip-rule="evenodd" d="M19.7 12a7.7 7.7 0 11-15.4 0 7.7 7.7 0 0115.4 0zm1.3 0a9 9 0 11-18 0 9 9 0 0118 0zm-9.547-3.975c.22-.11.463-.167.709-.167h.183a1.402 1.402 0 011.033 2.349H8.353a.65.65 0 100 1.3h3.314l-1.31.97H8.352a.65.65 0 100 1.3h.978a2.7 2.7 0 002.53 3.65h.184c.448 0 .89-.104 1.29-.304l1.352-.676a.65.65 0 10-.58-1.163l-1.353.676c-.22.11-.463.167-.71.167h-.183a1.402 1.402 0 01-1.033-2.35h5.026a.65.65 0 100-1.3H12.54l1.31-.97h2.004a.65.65 0 100-1.3h-.979a2.702 2.702 0 00-2.53-3.65h-.183c-.448 0-.89.105-1.29.305l-1.353.676a.65.65 0 00.581 1.163l1.353-.676z" fill="#626F84"/></svg>