<svg viewBox="0 0 28 28" fill="none" xmlns="http://www.w3.org/2000/svg"><rect y="4" width="28" height="20" rx="3" fill="#fff"/><mask id="a" style="mask-type:alpha" maskUnits="userSpaceOnUse" x="0" y="4" width="28" height="20"><rect y="4" width="28" height="20" rx="3" fill="#fff"/></mask><g mask="url(#a)" fill-rule="evenodd" clip-rule="evenodd"><path d="M0 6.667h28V4H0v2.667zM0 17.333h28v-2.666H0v2.666z" fill="#262626"/><path d="M0 14.667h28v-4H0v4z" fill="#ED1623"/><path d="M0 10.667h28v-4H0v4z" fill="#FEE044"/><path d="M0 24h28v-2.667H0V24z" fill="#ED1623"/><path d="M0 21.333h28v-4H0v4z" fill="#FEE044"/><path d="M14 18.667a4.667 4.667 0 100-9.334 4.667 4.667 0 000 9.334z" fill="#fff"/><path d="M12.902 11.569a.333.333 0 010-.471l.412-.412a.397.397 0 00.035-.04c.035-.047.124-.16.229-.254.177-.161.68-.178.854-.015.048.045.09.094.127.14.072.09.076.212.025.315l-.549 1.098a.333.333 0 00-.035.149v.382c0 .126.071.241.184.298l1.101.55a.336.336 0 01.087.063l1.125 1.125a.333.333 0 01.062.385l-.352.704a.333.333 0 01-.534.087l-.104-.104a.333.333 0 00-.471 0l-.334.333a.333.333 0 00-.097.236v.39c0 .089.035.174.097.236.21.21.062.57-.235.57h-.39a.333.333 0 01-.237-.57.333.333 0 00.098-.235v-.196a.333.333 0 00-.333-.333h-.196a.333.333 0 00-.235.098l-.334.333a.333.333 0 01-.471 0l-.195-.195a.333.333 0 010-.472l.333-.333a.333.333 0 01.236-.098h.39a.333.333 0 00.236-.569l-1.195-1.195a.333.333 0 010-.471l.862-.862a.333.333 0 000-.472l-.196-.195z" fill="#262626"/></g></svg>