<svg viewBox="0 0 24 24" fill="none" xmlns="http://www.w3.org/2000/svg"><path fill-rule="evenodd" clip-rule="evenodd" d="M12 3a9 9 0 110 18 9 9 0 010-18zm-1.85 9.768c.18 0 .35-.07.48-.21.24-.27.22-.68-.04-.92l-1.554-1.482h5.232a2.35 2.35 0 012.35 2.35v.344a2.35 2.35 0 01-2.35 2.35h-1.643a.65.65 0 100 1.3h1.643a3.65 3.65 0 003.65-3.65v-.344a3.65 3.65 0 00-3.65-3.65h-4.71a43.26 43.26 0 00-.519-.003l1.551-1.375a.65.65 0 00.04-.92.658.658 0 00-.92-.04L7 8.983c-.31.28-.31.76 0 1.04l2.71 2.575c.13.12.28.17.44.17z" fill="#626F84"/></svg>