<svg viewBox="0 0 28 28" fill="none" xmlns="http://www.w3.org/2000/svg"><rect y="4" width="28" height="20" rx="3" fill="#fff"/><mask id="a" style="mask-type:alpha" maskUnits="userSpaceOnUse" x="0" y="4" width="28" height="20"><rect y="4" width="28" height="20" rx="3" fill="#fff"/></mask><g mask="url(#a)"><path fill="#0A17A7" d="M0 4h28v20H0z"/><path fill-rule="evenodd" clip-rule="evenodd" d="M-1.282 2.084l11.949 8.06V2.666h6.666v7.476l11.95-8.06 1.49 2.211-9.447 6.373H28v6.666h-6.674l9.448 6.373-1.492 2.21-11.949-8.06v7.477h-6.666v-7.476l-11.95 8.06-1.49-2.211 9.447-6.373H0v-6.666h6.674l-9.448-6.373 1.492-2.21z" fill="#fff"/><path d="M18.668 10.332L31.333 2M20.013 17.698l11.354 7.652M8.006 10.31L-3.837 2.33M9.29 17.605L-3.837 26.31" stroke="#DB1F35" stroke-width=".667" stroke-linecap="round"/><path fill-rule="evenodd" clip-rule="evenodd" d="M0 16h12v8h4v-8h12v-4H16V4h-4v8H0v4z" fill="#E6273E"/></g></svg>