<svg viewBox="0 0 28 28" fill="none" xmlns="http://www.w3.org/2000/svg"><rect y="4" width="28" height="20" rx="3" fill="#fff"/><mask id="a" style="mask-type:alpha" maskUnits="userSpaceOnUse" x="0" y="4" width="28" height="20"><rect y="4" width="28" height="20" rx="3" fill="#fff"/></mask><g mask="url(#a)"><path fill-rule="evenodd" clip-rule="evenodd" d="M28 4H0v1.333h28V4zm0 2.667H0V8h28V6.667zM0 9.333h28v1.334H0V9.333zM28 12H0v1.333h28V12zM0 14.667h28V16H0v-1.333zm28 2.666H0v1.334h28v-1.334zM0 20h28v1.333H0V20zm28 2.667H0V24h28v-1.333z" fill="#D02F44"/><path fill="#46467F" d="M0 4h12v9.333H0z"/><g filter="url(#filter0_d_107628_1275)"><path fill-rule="evenodd" clip-rule="evenodd" d="M2.667 6a.667.667 0 11-1.334 0 .667.667 0 011.334 0zm2.666 0A.667.667 0 114 6a.667.667 0 011.333 0zm2 .667a.667.667 0 100-1.334.667.667 0 000 1.334zM10.667 6a.667.667 0 11-1.334 0 .667.667 0 011.334 0zM3.333 8a.667.667 0 100-1.333.667.667 0 000 1.333zm3.334-.667a.667.667 0 11-1.334 0 .667.667 0 011.334 0zm2 .667a.667.667 0 100-1.333.667.667 0 000 1.333zm2 .667a.667.667 0 11-1.334 0 .667.667 0 011.334 0zm-3.334.666a.667.667 0 100-1.333.667.667 0 000 1.333zm-2-.666a.667.667 0 11-1.333 0 .667.667 0 011.333 0zM2 9.333A.667.667 0 102 8a.667.667 0 000 1.333zM4 10a.667.667 0 11-1.333 0A.667.667 0 014 10zm2 .667a.667.667 0 100-1.334.667.667 0 000 1.334zM9.333 10A.667.667 0 118 10a.667.667 0 011.333 0zM10 12a.667.667 0 100-1.333A.667.667 0 0010 12zm-2-.667a.667.667 0 11-1.333 0 .667.667 0 011.333 0zM4.667 12a.667.667 0 100-1.333.667.667 0 000 1.333zm-2-.667a.667.667 0 11-1.334 0 .667.667 0 011.334 0z" fill="url(#paint0_linear_107628_1275)"/></g></g><defs><linearGradient id="paint0_linear_107628_1275" x1="1.333" y1="5.333" x2="1.333" y2="12" gradientUnits="userSpaceOnUse"><stop stop-color="#fff"/><stop offset="1" stop-color="#F0F0F0"/></linearGradient><filter id="filter0_d_107628_1275" x="1.333" y="5.333" width="9.333" height="7.667" filterUnits="userSpaceOnUse" color-interpolation-filters="sRGB"><feFlood flood-opacity="0" result="BackgroundImageFix"/><feColorMatrix in="SourceAlpha" values="0 0 0 0 0 0 0 0 0 0 0 0 0 0 0 0 0 0 127 0" result="hardAlpha"/><feOffset dy="1"/><feColorMatrix values="0 0 0 0 0 0 0 0 0 0 0 0 0 0 0 0 0 0 0.06 0"/><feBlend in2="BackgroundImageFix" result="effect1_dropShadow_107628_1275"/><feBlend in="SourceGraphic" in2="effect1_dropShadow_107628_1275" result="shape"/></filter></defs></svg>