<svg viewBox="0 0 24 24" fill="none" xmlns="http://www.w3.org/2000/svg"><path d="M19.296 4.503a5.15 5.15 0 00-7.283 0l-1.023.965a.65.65 0 00.919.919l1.023-.965a3.85 3.85 0 115.445 5.445l-1.023.965a.65.65 0 10.919.919l1.023-.965a5.15 5.15 0 000-7.283zM4.58 19.22a5.15 5.15 0 007.283 0l.879-.854a.65.65 0 10-.92-.919l-.878.853a3.85 3.85 0 11-5.445-5.444l.879-.854a.65.65 0 10-.92-.919l-.878.853a5.15 5.15 0 000 7.284zM5.792 5.835a.65.65 0 01.92 0l11.495 11.497a.65.65 0 01-.919.919L5.792 6.755a.65.65 0 010-.92z" fill="#626F84"/></svg>