<svg viewBox="0 0 24 24" fill="none" xmlns="http://www.w3.org/2000/svg"><path d="M12.65 13.642a.65.65 0 10-1.3 0v1.716a.65.65 0 101.3 0v-1.716z" fill="#626F84"/><path fill-rule="evenodd" clip-rule="evenodd" d="M17.007 4.427a2.688 2.688 0 00-2.688 2.688V9H16a3 3 0 013 3v5a3 3 0 01-3 3H8a3 3 0 01-3-3v-5a3 3 0 013-3h5.019V7.115a3.988 3.988 0 017.977 0v.08a.65.65 0 11-1.3 0v-.08a2.688 2.688 0 00-2.689-2.688zM16 10.3H8A1.7 1.7 0 006.3 12v5A1.7 1.7 0 008 18.7h8a1.7 1.7 0 001.7-1.7v-5a1.7 1.7 0 00-1.7-1.7z" fill="#626F84"/></svg>