<svg viewBox="0 0 24 24" fill="none" xmlns="http://www.w3.org/2000/svg"><path d="M20.82 3.258c.247.258.239.67-.017.919L18.928 6l1.875 1.823c.256.25.264.661.017.92a.64.64 0 01-.91.017L18 6.903 16.09 8.76a.64.64 0 01-.91-.018.654.654 0 01.017-.919L17.072 6l-1.875-1.823a.654.654 0 01-.017-.92.64.64 0 01.91-.017L18 5.097l1.91-1.857a.64.64 0 01.91.018z" fill="#626F84"/><path fill-rule="evenodd" clip-rule="evenodd" d="M9.28 4.472a1.3 1.3 0 00-1.839 0L5.744 6.169a1.3 1.3 0 000 1.838L16.217 18.48a3 3 0 001.446.801l1.732.4a1.3 1.3 0 001.558-1.56l-.399-1.73a3 3 0 00-.802-1.447L9.28 4.472zm-.92.919L6.665 7.088l1.62 1.621 1.698-1.697L8.36 5.391zm2.541 2.54l7.932 7.932a1.7 1.7 0 01.454.82l.4 1.731-1.731-.4a1.7 1.7 0 01-.82-.454L9.204 9.628 10.9 7.931z" fill="#626F84"/><path d="M9.107 18.835c-.553.466-1.274 1.074-2.455 1.074-2.071 0-3.038-1.348-3.42-1.88a5.492 5.492 0 00-.087-.12.65.65 0 011.035-.787l.105.143c.38.519.983 1.344 2.367 1.344.683 0 1.08-.316 1.65-.795l.028-.024c.554-.468 1.277-1.078 2.464-1.078 1.98 0 3.05 1.398 3.461 1.937.058.076.103.135.136.17a.65.65 0 11-.957.88 6.67 6.67 0 01-.272-.325c-.47-.583-1.096-1.362-2.368-1.362-.688 0-1.088.318-1.655.796l-.032.027z" fill="#626F84"/></svg>