<svg viewBox="0 0 24 24" fill="none" xmlns="http://www.w3.org/2000/svg"><path fill-rule="evenodd" clip-rule="evenodd" d="M12 21a9 9 0 100-18 9 9 0 000 18zm2.88-13.86l-.228-.868a.65.65 0 01.438-.81.65.65 0 01.81.439l.712 2.519a.69.69 0 01-.515.88l-2.43.484a.65.65 0 01-.78-.49.526.526 0 01.057-.453.66.66 0 01.423-.308l.962-.207a4.35 4.35 0 00-6.673 3.915.65.65 0 01-1.298.074A5.65 5.65 0 0114.88 7.14zm2.762 4.545a.65.65 0 00-1.298.073 4.35 4.35 0 01-6.673 3.916l.962-.207a.66.66 0 00.423-.308.526.526 0 00.057-.454.65.65 0 00-.78-.49l-2.43.484a.69.69 0 00-.515.881L8.1 18.1a.65.65 0 00.81.437.65.65 0 00.438-.81l-.228-.866a5.65 5.65 0 008.522-5.176z" fill="#626F84"/></svg>