<svg viewBox="0 0 24 24" fill="none" xmlns="http://www.w3.org/2000/svg"><path d="M13.18 8.249a.645.645 0 01-.207-.482.658.658 0 01.66-.643l2.152-.016.01-.011a6.2 6.2 0 00-9.971 5.45c.029.333-.164.655-.485.751-.37.111-.757-.12-.797-.503a7.5 7.5 0 0112.125-6.666l-.187-2.037a.65.65 0 01.601-.698.658.658 0 01.698.601l.288 3.652a.698.698 0 01-.712.758l-3.739.021a.627.627 0 01-.437-.177zM10.29 15.294c.131.123.207.29.206.481a.658.658 0 01-.659.643l-2.152.017-.009.009A6.2 6.2 0 0018.1 10.88c-.061-.338.112-.685.435-.802.353-.129.745.066.819.435a7.5 7.5 0 01-12.551 6.893l.187 2.043a.65.65 0 01-.6.698.658.658 0 01-.699-.6l-.287-3.652a.698.698 0 01.712-.758l3.738-.022c.177.002.32.068.437.178z" fill="#626F84"/></svg>