<svg viewBox="0 0 28 28" fill="none" xmlns="http://www.w3.org/2000/svg"><rect x=".25" y="4.25" width="27.5" height="19.5" rx="2.75" fill="#fff" stroke="#D6D8DD" stroke-width=".5"/><mask id="a" style="mask-type:alpha" maskUnits="userSpaceOnUse" x="0" y="4" width="28" height="20"><rect x=".25" y="4.25" width="27.5" height="19.5" rx="2.75" fill="#fff" stroke="#fff" stroke-width=".5"/></mask><g mask="url(#a)" fill-rule="evenodd" clip-rule="evenodd"><path d="M28 6.667H13.333v2.666H28V6.667zM13.333 12v2.667H28V12H13.333zm0 5.333H0V20h28v-2.667H13.333zM0 24v-1.333h28V24H0z" fill="#0E4DC5"/><path d="M6.667 13.321l-.89 1.329-.226-1.583-1.378.81.484-1.524-1.594.133 1.097-1.164-1.493-.572 1.493-.572-1.097-1.163 1.594.132-.484-1.524 1.378.81.226-1.582.89 1.328.89-1.328.225 1.583 1.379-.811-.484 1.524 1.594-.132-1.098 1.163 1.494.572-1.494.572 1.098 1.164-1.594-.133.484 1.525-1.379-.811-.225 1.583-.89-1.329zm0-.025a2.545 2.545 0 100-5.091 2.545 2.545 0 000 5.09zm2-2.63a2 2 0 11-4 0 2 2 0 014 0z" fill="#FED443"/></g></svg>