<svg viewBox="0 0 24 24" fill="none" xmlns="http://www.w3.org/2000/svg"><path d="M14.774 7.45a.65.65 0 010-.919l.717-.717a.65.65 0 11.92.92l-.717.716a.65.65 0 01-.92 0zM16.604 8.361a.65.65 0 00.92.92l.716-.718a.65.65 0 00-.919-.919l-.717.717z" fill="#626F84"/><path fill-rule="evenodd" clip-rule="evenodd" d="M11.594 6.161a1.3 1.3 0 00-1.75.08l-6.96 6.96a3 3 0 000 4.242l3.728 3.727a3 3 0 004.242 0l6.96-6.959a1.3 1.3 0 00.079-1.75l3.494-3.495a1.3 1.3 0 000-1.838l-4.46-4.46a1.3 1.3 0 00-1.839 0L11.594 6.16zm-.831 1l6.131 6.131-6.959 6.96a1.7 1.7 0 01-2.404 0l-3.727-3.728a1.7 1.7 0 010-2.404l6.959-6.96zm5.244-3.574l4.46 4.46-3.46 3.46-4.46-4.46 3.46-3.46z" fill="#626F84"/></svg>