<svg viewBox="0 0 24 24" fill="none" xmlns="http://www.w3.org/2000/svg"><path d="M10.775 7.149a1.3 1.3 0 00-1.839 0L2.885 13.2a3 3 0 000 4.243l3.727 3.727a3 3 0 004.242 0l6.052-6.051a1.3 1.3 0 000-1.839L10.775 7.15z" fill="#626F84"/><path fill-rule="evenodd" clip-rule="evenodd" d="M12.103 6.643a.7.7 0 010-.99l2.986-2.986a1.3 1.3 0 011.838 0l4.46 4.46a1.3 1.3 0 010 1.84l-2.985 2.984a.7.7 0 01-.99 0l-5.309-5.308zM15.225 7a.65.65 0 010-.919l.716-.717a.65.65 0 11.92.92L16.144 7a.65.65 0 01-.92 0zm1.83.911a.65.65 0 10.919.92l.716-.718a.65.65 0 10-.919-.919l-.717.717z" fill="#626F84"/></svg>