<svg viewBox="0 0 24 24" fill="none" xmlns="http://www.w3.org/2000/svg"><path d="M11.262 7.43A2.504 2.504 0 009.317 9.74c-.069 1.283.824 2.529 2.568 2.818.774.128 1.246.405 1.51.685.26.276.348.582.323.864-.05.551-.592 1.221-1.726 1.221-.605 0-.982-.248-1.22-.531-.263-.313-.341-.65-.341-.743a.65.65 0 10-1.3 0c0 .438.212 1.064.646 1.58.343.407.834.759 1.485.912v.806a.65.65 0 101.3 0v-.766c1.384-.21 2.343-1.183 2.45-2.361.06-.661-.161-1.333-.67-1.874-.506-.536-1.263-.913-2.244-1.075-1.154-.192-1.513-.908-1.483-1.466.032-.584.479-1.167 1.377-1.167.586 0 .914.236 1.114.505.223.3.308.674.308.91a.65.65 0 001.3 0 2.93 2.93 0 00-.565-1.686 2.502 2.502 0 00-1.587-.978v-.732a.65.65 0 10-1.3 0v.766z" fill="#626F84"/><path fill-rule="evenodd" clip-rule="evenodd" d="M3 12a9 9 0 1118 0 9 9 0 01-18 0zm1.3 0a7.7 7.7 0 1115.4 0 7.7 7.7 0 01-15.4 0z" fill="#626F84"/></svg>