<svg viewBox="0 0 24 24" fill="none" xmlns="http://www.w3.org/2000/svg"><path fill-rule="evenodd" clip-rule="evenodd" d="M7.565 7.968a4.464 4.464 0 118.87 0l-.262 2.306a4.2 4.2 0 01-8.346 0l-.262-2.306zm7.579-.147l-.262 2.306a2.9 2.9 0 01-5.764 0l-.262-2.306a3.164 3.164 0 116.288 0z" fill="#626F84"/><path d="M4.29 19.698A6 6 0 0110.145 15h2.511a.65.65 0 110 1.3h-2.51a4.7 4.7 0 00-4.517 3.4h7.027a.65.65 0 110 1.3H4.873a.7.7 0 01-.684-.852l.1-.45zM16.775 14.917c.13-.14.3-.21.48-.21.16 0 .31.05.44.17l2.71 2.575c.31.28.31.76 0 1.04l-2.71 2.465c-.27.24-.68.22-.92-.04a.65.65 0 01.04-.92l1.55-1.375h-3.371a.65.65 0 110-1.3h3.378l-1.557-1.485a.658.658 0 01-.04-.92z" fill="#626F84"/></svg>