<svg viewBox="0 0 24 24" fill="none" xmlns="http://www.w3.org/2000/svg"><path fill-rule="evenodd" clip-rule="evenodd" d="M12 3a4.464 4.464 0 00-4.435 4.968l.262 2.306a4.2 4.2 0 008.346 0l.263-2.306A4.464 4.464 0 0012 3zm2.882 7.127l.262-2.306a3.164 3.164 0 10-6.288 0l.262 2.306a2.9 2.9 0 005.764 0z" fill="#626F84"/><path d="M10.146 15a6 6 0 00-5.857 4.698l-.1.45a.7.7 0 00.684.852h7.784a.65.65 0 100-1.3H5.63a4.7 4.7 0 014.516-3.4h2.511a.65.65 0 100-1.3h-2.51zM20.797 16.105a.65.65 0 10-.902-.937l-1.927 1.857-1.927-1.856a.65.65 0 00-.902.936l1.892 1.823-1.892 1.823a.65.65 0 00.902.937l1.927-1.857 1.927 1.857a.65.65 0 10.902-.937l-1.892-1.823 1.892-1.823z" fill="#626F84"/></svg>