<svg viewBox="0 0 24 24" fill="none" xmlns="http://www.w3.org/2000/svg"><path d="M7.565 7.968a4.464 4.464 0 118.87 0l-.262 2.306a4.2 4.2 0 01-8.346 0l-.262-2.306zM11.154 15c.515 0 .86.543.73 1.042a5.81 5.81 0 00.284 3.743c.228.532-.124 1.215-.702 1.215H4.873a.7.7 0 01-.684-.852l.1-.45A6 6 0 0110.146 15h1.008z" fill="#626F84"/><path fill-rule="evenodd" clip-rule="evenodd" d="M17.5 13a4.5 4.5 0 100 9 4.5 4.5 0 000-9zm.136 1.646c-.18 0-.35.07-.48.21-.24.27-.22.68.04.92l1.196 1.147h-3.379a.65.65 0 100 1.3h3.372l-1.189 1.138a.65.65 0 00-.04.92c.24.26.65.28.92.04l2.348-2.228c.31-.28.31-.76 0-1.04l-2.348-2.237a.627.627 0 00-.44-.17z" fill="#626F84"/></svg>