<svg viewBox="0 0 24 24" fill="none" xmlns="http://www.w3.org/2000/svg"><path d="M6.132 2.996a.65.65 0 00-.65.65l.003 4.074.003.003c.055.95.518 1.79 1.217 2.349.44.352.786.856.747 1.418l-.525 7.536a1.85 1.85 0 103.688-.044l-.693-7.383c-.056-.591.317-1.126.789-1.487a3.247 3.247 0 001.268-2.39l.003-.002.003-4.074a.65.65 0 00-1.3 0v2.972a.65.65 0 01-1.302 0V3.646a.65.65 0 00-1.3 0v2.972a.65.65 0 01-1.301 0V3.646a.65.65 0 00-.65-.65zM14.543 2.996a1.18 1.18 0 00-1.18 1.18V19.14a1.864 1.864 0 103.69-.376l-.89-4.312a1.482 1.482 0 01.966-1.7 1.482 1.482 0 00.92-1.874L15.66 3.8a1.18 1.18 0 00-1.118-.803z" fill="#626F84"/></svg>