<svg viewBox="0 0 24 24" fill="none" xmlns="http://www.w3.org/2000/svg"><path fill-rule="evenodd" clip-rule="evenodd" d="M8.288 2.98h-.002a.65.65 0 00-.65.65v2.391a.646.646 0 01-1.288.072v-.487h-.004V3.63a.65.65 0 10-1.3 0v2.391c0 .042.001.084.004.125v2.073c0 1.01.459 1.966 1.248 2.597.13.103.2.264.19.43l-.48 7.372a2.294 2.294 0 104.579-.003l-.49-7.369a.508.508 0 01.19-.43 3.324 3.324 0 001.248-2.597V6.033 3.631a.65.65 0 10-1.3 0v2.397a.646.646 0 01-1.293-.007v-2.39a.65.65 0 00-.65-.65h-.002zm1.945 4.878a1.944 1.944 0 01-1.945-.387 1.939 1.939 0 01-1.94.388v.36c0 .615.28 1.197.76 1.581.462.37.714.941.675 1.53l-.48 7.373a.994.994 0 101.985-.002l-.49-7.369c-.04-.59.213-1.162.675-1.532.48-.384.76-.966.76-1.58v-.362zm3.097-3.135a1.743 1.743 0 013.394-.556l2.194 6.518a2.243 2.243 0 01-1.175 2.746.943.943 0 00-.521 1.054l.788 3.643a2.367 2.367 0 11-4.68.5V4.724zm1.742-.443a.443.443 0 00-.442.443v13.906a1.067 1.067 0 102.11-.226l-.789-3.643a2.243 2.243 0 011.241-2.506.943.943 0 00.494-1.154l-2.194-6.518a.443.443 0 00-.42-.302z" fill="#626F84"/></svg>