<svg viewBox="0 0 28 28" fill="none" xmlns="http://www.w3.org/2000/svg"><rect x=".25" y="4.25" width="27.5" height="19.5" rx="2.75" fill="#fff" stroke="#D6D8DD" stroke-width=".5"/><mask id="a" style="mask-type:alpha" maskUnits="userSpaceOnUse" x="0" y="4" width="28" height="20"><rect x=".25" y="4.25" width="27.5" height="19.5" rx="2.75" fill="#fff" stroke="#fff" stroke-width=".5"/></mask><g mask="url(#a)" fill-rule="evenodd" clip-rule="evenodd"><path d="M0 10.667h28V4H0v6.667z" fill="#04AAC8"/><path d="M0 24h28v-6.667H0V24z" fill="#23C840"/><path d="M4.667 9.333a1.99 1.99 0 001.111-.337 1.667 1.667 0 110-3.326 2 2 0 10-1.111 3.663zM8 8.667a.667.667 0 11-1.333 0 .667.667 0 011.333 0zm2-2a.667.667 0 100-1.334.667.667 0 000 1.334zM13.333 6A.667.667 0 1112 6a.667.667 0 011.333 0zm-.666 3.333a.667.667 0 100-1.333.667.667 0 000 1.333zm-2-.666a.667.667 0 11-1.334 0 .667.667 0 011.334 0z" fill="#fff"/></g></svg>