<svg viewBox="0 0 24 24" fill="none" xmlns="http://www.w3.org/2000/svg"><path fill-rule="evenodd" clip-rule="evenodd" d="M13.204 3.124c-1.505.404-2.273 1.19-2.658 1.964-.386-.773-1.154-1.56-2.658-1.964-2.436-.652-3.672.54-4.208 1.351-.223.338-.012.75.379.855l3.707.993c-.574.152-1.191.486-1.813 1.108-1.674 1.673-1.24 3.288-.8 4.139.184.358.646.38.931.095l3.219-3.218c-.08 1.178 0 2.493.15 3.884.107.99.333 1.975.667 2.901a7.568 7.568 0 00-4.76 3.714 11.673 11.673 0 01-1.347-.779.65.65 0 00-.72 1.083c2.085 1.385 3.832 1.821 5.401 1.718 1.543-.1 2.841-.722 3.99-1.28l.044-.02c1.167-.567 2.165-1.052 3.272-1.13 1.076-.076 2.334.234 3.968 1.487a.65.65 0 10.792-1.031c-1.19-.912-2.267-1.423-3.278-1.64a7.531 7.531 0 00-6.055-2.336 11.238 11.238 0 01-.681-2.827c-.235-2.174-.262-3.925.103-5.21a.7.7 0 00.092-.019l6.092-1.632c.39-.105.601-.517.378-.855-.535-.811-1.772-2.003-4.207-1.35zm6.373 7.716a3.001 3.001 0 11-6.002 0 3.001 3.001 0 016.002 0z" fill="#626F84"/></svg>