<svg viewBox="0 0 24 24" fill="none" xmlns="http://www.w3.org/2000/svg"><path fill-rule="evenodd" clip-rule="evenodd" d="M12.15 3.274c-1.044.28-1.747.79-2.2 1.393-.425-.682-1.155-1.305-2.359-1.627-1.1-.295-2.004-.18-2.72.15a3.71 3.71 0 00-1.468 1.25 1.16 1.16 0 00-.109 1.163c.16.348.476.604.855.702l1.872.477a4.97 4.97 0 00-.651.551c-.812.812-1.16 1.656-1.222 2.445-.06.773.16 1.432.384 1.885.195.396.562.618.95.652a1.29 1.29 0 001.018-.381L9.003 9.43c.008.318.026.639.052.96.14 1.7.526 3.398 1.063 4.843-2.075.525-3.769 1.894-4.77 3.706-.42-.205-.865-.46-1.335-.773a.65.65 0 00-.72 1.083c2.085 1.385 3.832 1.821 5.401 1.718 1.543-.1 2.841-.722 3.99-1.28l.044-.02c1.167-.567 2.165-1.052 3.272-1.13 1.076-.076 2.334.234 3.968 1.487a.65.65 0 10.792-1.031c-1.186-.91-2.26-1.42-3.27-1.639C16.126 15.917 14.105 15 12.02 15c-.2 0-.397.008-.592.022-.54-1.376-.938-3.054-1.077-4.737-.06-.716-.07-1.408-.029-2.069a.295.295 0 01.217-.265l5.07-1.407c.375-.101.687-.358.844-.704a1.161 1.161 0 00-.11-1.157 3.714 3.714 0 00-1.466-1.255c-.717-.332-1.624-.449-2.727-.153zm-3 2.967l-.082-.02a3.814 3.814 0 00-.132-.034l-4.38-1.12c.203-.259.485-.523.86-.696.42-.194 1.01-.297 1.839-.075 1.228.329 1.662 1.02 1.83 1.593.036.12.06.24.077.352h-.013zm6.041-.932L10.57 6.547a2.49 2.49 0 01.01-.078c.053-.216.114-.428.182-.635.05-.107.108-.215.18-.319.257-.375.71-.762 1.544-.985.831-.223 1.423-.119 1.844.077.377.174.659.442.861.702zM6.568 19.424c1.096-1.87 3.08-3.125 5.452-3.125 1.199 0 2.382.373 3.371 1.002-1.151.186-2.186.689-3.14 1.153l-.134.064c-1.167.567-2.252 1.071-3.508 1.153a5.708 5.708 0 01-2.041-.247zm2.453-11.85l-3.383 3.384c-.13-.3-.226-.672-.194-1.08.035-.454.234-1.015.845-1.626.608-.608 1.173-.813 1.635-.855.413-.037.791.054 1.097.178zm9.256 3.266a1.701 1.701 0 11-3.402 0 1.701 1.701 0 013.402 0zm1.3 0a3.001 3.001 0 11-6.002 0 3.001 3.001 0 016.002 0z" fill="#626F84"/></svg>