<svg viewBox="0 0 28 28" fill="none" xmlns="http://www.w3.org/2000/svg"><rect y="4" width="28" height="20" rx="3" fill="#fff"/><mask id="a" style="mask-type:alpha" maskUnits="userSpaceOnUse" x="0" y="4" width="28" height="20"><rect y="4" width="28" height="20" rx="3" fill="#fff"/></mask><g mask="url(#a)" fill-rule="evenodd" clip-rule="evenodd"><path d="M0 17.333h28v-6.666H0v6.666z" fill="#063191"/><path d="M0 24h28v-6.667H0V24z" fill="#E2213B"/><path d="M14 13.333A.667.667 0 1014 12a.667.667 0 000 1.333zM11.333 14a.667.667 0 100-1.333.667.667 0 000 1.333zm6-.667a.667.667 0 11-1.333 0 .667.667 0 011.333 0zM10 16a.667.667 0 100-1.333A.667.667 0 0010 16zm8.667-.667a.667.667 0 11-1.334 0 .667.667 0 011.334 0z" fill="#fff"/><path d="M0 10.667h28V4H0v6.667z" fill="#FFD044"/></g></svg>