<svg viewBox="0 0 24 24" fill="none" xmlns="http://www.w3.org/2000/svg"><g clip-path="url(#clip0_6746_1213)" fill="#626F84"><path d="M3.01 11.569a9 9 0 114.71 8.34.615.615 0 01-.204-.888c.196-.295.591-.377.905-.211 1.07.562 2.287.88 3.58.88a7.7 7.7 0 10-7.688-8.151h.005l1.092-1.166a.66.66 0 01.48-.21c.16 0 .31.05.42.18.26.25.28.66.03.92l-2.19 2.35c-.27.3-.74.3-1.02 0l-2.19-2.35a.65.65 0 01.03-.92.65.65 0 01.92.03l1.12 1.196z"/><path d="M12.65 8.143a.65.65 0 00-1.3 0v4.5c0 .36.291.65.65.65h4a.65.65 0 000-1.3h-3.35v-3.85z"/></g><defs><clipPath id="clip0_6746_1213"><path fill="#fff" d="M0 0h24v24H0z"/></clipPath></defs></svg>