<svg viewBox="0 0 24 24" fill="none" xmlns="http://www.w3.org/2000/svg"><path fill-rule="evenodd" clip-rule="evenodd" d="M14 5.998a2 2 0 01-1.266 1.862l.031.035 1.886 2.212a1.3 1.3 0 001.726.227l1.906-1.31a2 2 0 111.837.971l-.95 6.212a1.3 1.3 0 01-1.286 1.104H6.117a1.3 1.3 0 01-1.285-1.104l-.95-6.212a2 2 0 111.84-.98l1.933 1.321a1.3 1.3 0 001.727-.235L11.24 7.9a.993.993 0 01.033-.037A2 2 0 1114 5.998zm-2 .7a.7.7 0 100-1.4.7.7 0 000 1.4zm6.762 3.574l-1.648 1.133a2.6 2.6 0 01-3.452-.455l-1.656-1.942-1.63 1.932a2.6 2.6 0 01-3.454.47l-1.684-1.15.88 5.75h11.766l.878-5.738zM4.7 7.998a.7.7 0 11-1.4 0 .7.7 0 011.4 0zm15.3.7a.7.7 0 100-1.4.7.7 0 000 1.4z" fill="#626F84"/><path d="M18.35 20.002a.65.65 0 100-1.3H5.65a.65.65 0 100 1.3h12.7z" fill="#626F84"/></svg>