<svg viewBox="0 0 28 20" fill="none" xmlns="http://www.w3.org/2000/svg"><rect width="28" height="20" rx="2" fill="#F0F2F5"/><path fill-rule="evenodd" clip-rule="evenodd" d="M13.275 6.63l-1.521 7.112h-1.84l1.521-7.112h1.84zM24.772 13.742H23.07l-.224-1.062h-2.36l-.383 1.062H18.17l2.761-6.59a.837.837 0 01.784-.522h1.57l1.486 7.112zm-2.787-5.19l-.969 2.67h1.526l-.557-2.67zM18.266 11.42c.008-1.877-2.594-1.98-2.577-2.82.005-.254.248-.526.78-.595.264-.034.99-.061 1.815.318l.322-1.509a4.962 4.962 0 00-1.721-.314c-1.819 0-3.099.966-3.109 2.351-.012 1.024.914 1.595 1.61 1.936.718.348.958.572.955.883-.005.478-.573.689-1.1.697-.926.014-1.463-.25-1.89-.45l-.334 1.56c.43.197 1.224.368 2.045.377 1.934 0 3.199-.955 3.204-2.433zM10.646 6.63l-2.982 7.112H5.72L4.252 8.066c-.089-.349-.166-.477-.437-.625-.442-.24-1.173-.465-1.815-.605l.043-.206h3.132c.398 0 .757.265.848.725l.775 4.116L8.713 6.63h1.933z" fill="#29313D"/></svg>