<svg viewBox="0 0 28 28" fill="none" xmlns="http://www.w3.org/2000/svg"><rect y="4" width="28" height="20" rx="3" fill="#fff"/><mask id="a" style="mask-type:alpha" maskUnits="userSpaceOnUse" x="0" y="4" width="28" height="20"><rect y="4" width="28" height="20" rx="3" fill="#fff"/></mask><g mask="url(#a)"><path fill="#F44653" d="M0 4h28v20H0z"/><path fill-rule="evenodd" clip-rule="evenodd" d="M0 15h15V4H0v11z" fill="#083B9A" stroke="#fff"/><path fill-rule="evenodd" clip-rule="evenodd" d="M0 15h5V4H0v11z" fill="#083B9A"/><path fill-rule="evenodd" clip-rule="evenodd" d="M5 15h5V4H5v11z" fill="#fff"/><path fill-rule="evenodd" clip-rule="evenodd" d="M10 15h5V4h-5v11z" fill="#F44653"/><path d="M23.895 10.5h-5.126l2.563 2.563 2.563-2.563zM23.895 17.42h-5.126l2.563-2.563 2.563 2.563zM24.664 11.397v5.126L22.1 13.96l2.563-2.563zM18 11.397v5.126l2.563-2.563L18 11.397z" fill="#fff"/></g></svg>