<svg viewBox="0 0 24 24" fill="none" xmlns="http://www.w3.org/2000/svg"><path fill-rule="evenodd" clip-rule="evenodd" d="M21.545 17.267a1.943 1.943 0 01-.01 2.459C20.716 20.735 19.302 22 17.344 22c-1.961 0-3.374-1.27-4.187-2.28a1.941 1.941 0 01-.011-2.448C13.95 16.263 15.354 15 17.345 15c1.988 0 3.393 1.259 4.2 2.267zM19.35 18.5a2 2 0 11-4 0 2 2 0 014 0z" fill="#626F84"/><path fill-rule="evenodd" clip-rule="evenodd" d="M7 4a3 3 0 00-3 3v10a3 3 0 003 3h4.296c.226 0 .373-.242.3-.456a3.235 3.235 0 01.534-3.082c.588-.738 1.536-1.694 2.845-2.266l1.586-2.19-1.432-1.927a.714.714 0 01.095-.95.592.592 0 01.877.103l1.742 2.345a.72.72 0 01.005.84l-.94 1.299a5.867 5.867 0 012.651.414c.206.083.441-.063.441-.286V7a3 3 0 00-3-3H7zm5.825 5.027a.65.65 0 01.452.8l-1.302 4.693a.65.65 0 01-1.253-.347l1.303-4.693a.65.65 0 01.8-.453zM8.874 10.08a.714.714 0 00-.095-.95.592.592 0 00-.877.103l-1.745 2.344a.719.719 0 000 .848l1.745 2.344c.216.29.61.336.877.102a.714.714 0 00.095-.95L7.444 12l1.43-1.92z" fill="#626F84"/></svg>