<svg viewBox="0 0 24 24" fill="none" xmlns="http://www.w3.org/2000/svg"><path d="M18.375 18.524a1 1 0 11-2 0 1 1 0 012 0z" fill="#626F84"/><path fill-rule="evenodd" clip-rule="evenodd" d="M21.534 19.726a1.944 1.944 0 00.011-2.46C20.738 16.26 19.333 15 17.345 15c-1.991 0-3.395 1.263-4.198 2.272a1.941 1.941 0 00.01 2.449C13.972 20.73 15.385 22 17.346 22c1.957 0 3.372-1.265 4.19-2.274zm-4.19.974c1.368 0 2.45-.89 3.18-1.792a.644.644 0 00.006-.829c-.712-.89-1.784-1.78-3.185-1.78-1.403 0-2.472.893-3.181 1.783a.642.642 0 00.006.823c.727.902 1.806 1.795 3.175 1.795z" fill="#626F84"/><path d="M20 13.398c0 .428-.441.715-.849.584-.254-.082-.451-.314-.451-.582V7A1.7 1.7 0 0017 5.3H7A1.7 1.7 0 005.3 7v10A1.7 1.7 0 007 18.7h3.933c.277 0 .5.212.56.482.085.386-.175.818-.57.818H7a3 3 0 01-3-3V7a3 3 0 013-3h10a3 3 0 013 3v6.398z" fill="#626F84"/><path d="M8.015 7.606a.65.65 0 01.65-.65h6.67a.65.65 0 010 1.3H12.65v7.143a.65.65 0 01-1.3 0V8.256H8.665a.65.65 0 01-.65-.65z" fill="#626F84"/></svg>