<svg viewBox="0 0 24 24" fill="none" xmlns="http://www.w3.org/2000/svg"><path fill-rule="evenodd" clip-rule="evenodd" d="M21.545 17.267a1.943 1.943 0 01-.01 2.459C20.716 20.735 19.302 22 17.344 22c-1.961 0-3.374-1.27-4.187-2.28a1.941 1.941 0 01-.011-2.448C13.95 16.263 15.354 15 17.345 15c1.988 0 3.393 1.259 4.2 2.267zM19.35 18.5a2 2 0 11-4 0 2 2 0 014 0z" fill="#626F84"/><path d="M4 7a3 3 0 013-3h10a3 3 0 013 3v6.822c0 .223-.236.37-.443.285a5.915 5.915 0 00-2.258-.445c-2.107 0-3.656 1.082-4.649 2.096V8.3h2.685a.65.65 0 100-1.3h-6.67a.65.65 0 000 1.3h2.685v9.786c-.06.489-.01.988.152 1.46.073.213-.075.454-.3.454H7a3 3 0 01-3-3V7z" fill="#626F84"/></svg>