<svg viewBox="0 0 24 24" fill="none" xmlns="http://www.w3.org/2000/svg"><path fill-rule="evenodd" clip-rule="evenodd" d="M20.65 6.35a3 3 0 00-3-3h-8a3 3 0 00-3 3v10a3 3 0 003 3h8a3 3 0 003-3v-10zm-3-1.7h-8a1.7 1.7 0 00-1.7 1.7v10a1.7 1.7 0 001.7 1.7h8a1.7 1.7 0 001.7-1.7v-10a1.7 1.7 0 00-1.7-1.7z" fill="#626F84"/><path d="M4.65 8.7a.65.65 0 00-.65.65v9.4A3.25 3.25 0 007.25 22h8.4a.65.65 0 100-1.3h-8.4a1.95 1.95 0 01-1.95-1.95v-9.4a.65.65 0 00-.65-.65z" fill="#626F84"/><path fill-rule="evenodd" clip-rule="evenodd" d="M13.653 6.42a4.704 4.704 0 110 9.41 4.704 4.704 0 010-9.41zm1.622 7.699a3.409 3.409 0 001.72-2.344h-1.26c-.054.883-.218 1.688-.46 2.344zm-3.244 0a3.409 3.409 0 01-1.72-2.344h1.26c.054.883.218 1.688.46 2.344zm.842-2.344c.063.878.246 1.622.48 2.146.11.245.216.41.3.512.084-.102.19-.267.3-.512.234-.524.418-1.268.48-2.146h-1.56zm1.56-1.3h-1.56c.063-.878.246-1.622.48-2.146.11-.245.216-.41.3-.512.084.102.19.267.3.512.234.524.418 1.268.48 2.146zm1.302 0h1.26a3.41 3.41 0 00-1.72-2.344c.242.656.406 1.46.46 2.344zm-3.704-2.344c-.242.656-.406 1.46-.46 2.344h-1.26a3.41 3.41 0 011.72-2.344z" fill="#626F84"/></svg>