<svg viewBox="0 0 28 28" fill="none" xmlns="http://www.w3.org/2000/svg"><rect x=".25" y="4.25" width="27.5" height="19.5" rx="2.75" fill="#fff" stroke="#D6D8DD" stroke-width=".5"/><mask id="a" style="mask-type:alpha" maskUnits="userSpaceOnUse" x="0" y="4" width="28" height="20"><rect y="4" width="28" height="20" rx="3" fill="#347743"/></mask><g mask="url(#a)"><path fill="#000" d="M0 4h28v6.731H0z"/><path fill="#347743" d="M0 17.269h28V24H0z"/><path d="M10 14L0 4v20l10-10zM17.571 11.428a2.674 2.674 0 000 5.26 2.673 2.673 0 110-5.26z" fill="#B42A26"/><path d="M17.494 12.154l.432 1.329h1.397l-1.13.82.432 1.33-1.13-.821-1.131.82.432-1.328-1.13-.821h1.396l.432-1.33z" fill="#B42A26"/></g></svg>