<svg viewBox="0 0 24 24" fill="none" xmlns="http://www.w3.org/2000/svg"><path fill-rule="evenodd" clip-rule="evenodd" d="M12 19.7a7.7 7.7 0 100-15.4 7.7 7.7 0 000 15.4zm0 1.3a9 9 0 100-18 9 9 0 000 18zM6.732 8.74a.65.65 0 01.865.31l2.657 5.629 1.027-2.176-1.367-2.897a.65.65 0 111.175-.555L12 10.98l.91-1.93a.65.65 0 111.176.556l-1.367 2.897 1.027 2.176 2.657-5.628a.65.65 0 111.175.555l-3.244 6.873a.65.65 0 01-1.176 0L12 14.025l-1.158 2.454a.65.65 0 01-1.176 0L6.422 9.606a.65.65 0 01.31-.865z" fill="#626F84"/></svg>