<svg viewBox="0 0 24 24" fill="none" xmlns="http://www.w3.org/2000/svg"><path d="M11 3.016a2.65 2.65 0 00-2.65 2.65.65.65 0 001.3 0c0-.746.604-1.35 1.35-1.35h2c.746 0 1.35.604 1.35 1.35a.65.65 0 101.3 0A2.65 2.65 0 0013 3.016h-2zM2.995 10.467c0-1.66 1.34-3 3-3H18c1.65 0 3 1.34 3 3v1.57a1.96 1.96 0 01-1.96 1.96H4.969a1.974 1.974 0 01-1.974-1.93v-1.6zM19.676 15.291c.577-.023 1.323.435 1.323 1.012V17c0 1.66-1.34 3-3 3H5.995c-1.66 0-3-1.34-3-3V16.3c0-.578.748-1.035 1.326-1.01.176.008.356.008.538.007H7.35v1.612a.65.65 0 101.3 0v-1.612h6.7v1.61a.65.65 0 101.3 0v-1.61h2.508c.175 0 .348.001.518-.006z" fill="#626F84"/></svg>