<svg viewBox="0 0 28 28" fill="none" xmlns="http://www.w3.org/2000/svg"><rect y="4" width="28" height="20" rx="3" fill="#fff"/><mask id="a" style="mask-type:alpha" maskUnits="userSpaceOnUse" x="0" y="4" width="28" height="20"><rect y="4" width="28" height="20" rx="3" fill="#fff"/></mask><g mask="url(#a)"><path fill="#19BFBF" d="M0 4h28v20H0z"/><path fill-rule="evenodd" clip-rule="evenodd" d="M14 21.333a7.333 7.333 0 100-14.666 7.333 7.333 0 000 14.666zm5.963-6.666a6.005 6.005 0 01-3.746 4.91c.65-1.324 1.03-3.049 1.103-4.91h2.643zm-3.977 0c-.098 2.249-.685 4.236-1.6 5.32a6.076 6.076 0 01-.771 0c-.916-1.084-1.503-3.071-1.6-5.32h3.97zm-5.306 0c.073 1.861.453 3.586 1.103 4.91a6.006 6.006 0 01-3.746-4.91h2.643zm1.334-1.334h3.972c-.098-2.249-.685-4.236-1.6-5.32a6.084 6.084 0 00-.771 0c-.916 1.084-1.503 3.071-1.6 5.32zm-.231-4.91c-.65 1.324-1.03 3.049-1.103 4.91H8.037a6.006 6.006 0 013.746-4.91zm8.18 4.91H17.32c-.073-1.861-.453-3.586-1.103-4.91a6.006 6.006 0 013.746 4.91z" fill="#fff"/></g></svg>