<svg viewBox="0 0 24 24" fill="none" xmlns="http://www.w3.org/2000/svg"><path fill-rule="evenodd" clip-rule="evenodd" d="M20.65 6.35a3 3 0 00-3-3h-8a3 3 0 00-3 3v10a3 3 0 003 3h8a3 3 0 003-3v-10zm-8.895 2.22a.65.65 0 00-.195.899l1.216 1.892-1.214 1.863a.65.65 0 101.09.71l1.02-1.567 1.02 1.566a.65.65 0 001.09-.71l-1.214-1.862 1.216-1.892a.65.65 0 10-1.094-.703l-1.018 1.584-1.018-1.584a.65.65 0 00-.899-.196z" fill="#626F84"/><path d="M4.65 8.7a.65.65 0 00-.65.65v9.4A3.25 3.25 0 007.25 22h8.4a.65.65 0 100-1.3h-8.4a1.95 1.95 0 01-1.95-1.95v-9.4a.65.65 0 00-.65-.65z" fill="#626F84"/></svg>