<svg viewBox="0 0 28 28" fill="none" xmlns="http://www.w3.org/2000/svg"><rect y="4" width="28" height="20" rx="3" fill="#009F60"/><mask id="a" style="mask-type:alpha" maskUnits="userSpaceOnUse" x="0" y="4" width="28" height="20"><rect y="4" width="28" height="20" rx="3" fill="#fff"/></mask><g mask="url(#a)"><path fill="#EA8B42" d="M24 14.667h4V24h-4z"/><path fill-rule="evenodd" clip-rule="evenodd" d="M20 24h4v-9.333h-4V24z" fill="#1A1919"/><path fill-rule="evenodd" clip-rule="evenodd" d="M16 24h4v-9.333h-4V24z" fill="#DB3C36"/><path fill-rule="evenodd" clip-rule="evenodd" d="M21.014 7.484c-.092.003-.16-.03-.183-.083.15-.088.25-.068.376.044a.269.269 0 00-.053-.244c-.053-.058-.096-.058-.169-.063-.072-.005-.145-.024-.193-.024-.071-.156-.248-.09-.419-.026-.277.104-.526.292-.638.48-.05.087-.057.12-.088.17.026-.004.024-.004.04-.013-.02.214-.045.412-.006.54-.049.184-.01.301.048.36.058.058.082.083.092.151.01.068.038.132.087.17.048.04.077.098.082.132.005.034.154.181.217.22.024.014.03.044.058.082-.063.371.189.742.13 1.107.044.005.102 0 .16-.014.048.311.077.463-.193.555-.27.093-.419.184-.343.288.053.073.163.01.232-.054a.496.496 0 01.164-.107c.048-.014.058 0 .034.063-.024.064-.155.2-.16.269-.005.068.053.117.145.063a.52.52 0 00.194-.278c.014-.058.038-.098.033 0-.005.098-.062.273.068.302.13.03.17-.126.126-.268-.044-.141-.058-.22-.04-.268.02-.049.04-.078.088-.063.048.014.145-.005.14-.083-.005-.078-.072-.142-.15-.098-.077.044-.135.038-.101-.058.024-.069.067-.151.072-.205.053.078.353.088.474.015.029.146.106.278-.063.414-.17.137-.304.268-.3.366.005.097.044.156.13.107a.328.328 0 00.16-.18c.02-.064.058-.064.039.014-.02.078-.053.19-.039.259.015.068.121.073.165.01.043-.064.033-.147.024-.23a.408.408 0 01.024-.205c.02-.034.058-.083.096.01.04.093.058.166.136.19.077.025.135-.01.12-.102-.014-.093-.115-.195-.217-.273-.101-.078-.067-.117-.063-.19.005-.073-.01-.205-.014-.263.092.068.193.058.241.058.049 0 .128-.015.049-.088-.16-.146-.107-.234-.218-.341a.939.939 0 01-.246-.414c-.034-.142-.108-.4-.256-.532-.082-.073-.107-.273-.087-.502.02-.23.024-.482-.184-.6-.207-.116-.203-.214-.135-.316.068-.103.155-.203.266-.21.025-.002.083-.006.106-.024a.084.084 0 00-.058-.02z" fill="#EA8B42"/><path fill-rule="evenodd" clip-rule="evenodd" d="M19.663 8.01a.777.777 0 00.018.254c-.049.185-.01.302.048.36.058.06.082.084.092.152.01.068.038.132.087.17a.236.236 0 01.082.132c.005.034.154.181.217.22.024.014.03.044.058.082-.026.154.002.308.04.462-.342.286-.68.151-.537-.141-.284.227-.773.22-.664 0-.444.156-.58.026-.522-.117-.373.15-.567.006-.515-.098-.31.085-.509.033-.541-.02-.032-.051.045-.168.116-.227a.8.8 0 01-.406.033c-.129-.02-.096-.059-.07-.117.025-.059.059-.151.162-.242-.247.048-.556.082-.773.01-.041-.015-.111-.03-.068-.074.044-.044.174-.151.334-.22-.363.054-1.049.093-1.242-.126.188.039.43-.039.584-.102-.608-.069-1.44-.488-1.449-.897.174.282.474.38.773.468-.406-.24-.575-.527-.59-.717.233.224.585.478.933.536-.246-.131-.565-.517-.652-.785.179.161.638.42.952.502-.218-.17-.57-.575-.551-.799.082.083.285.239.7.483.416.243.641.225.984.299a.874.874 0 01-.123-.226c.101.014.197.053.487.234.29.18.924.235 1.286.395.265.117.644.044.75.117zM21.85 10.514c.015-.012.015-.034-.024-.07-.16-.147-.107-.235-.218-.342a.938.938 0 01-.246-.414c-.034-.142-.108-.4-.256-.532-.082-.073-.106-.273-.087-.502.016-.196.022-.41-.106-.54.241-.07.463-.084.54-.006.402-.102.75-.133 1.091-.156.393-.026 1.134-.195 1.662-.552-.032.13-.213.325-.374.422.535-.13 1.18-.37 1.727-.78-.007.286-.239.5-.374.618.374-.208.921-.468 1.108-.793.082.333-.477.768-.78 1.009.31-.15.71-.288.864-.509-.003.27-.355.605-.69.8.342-.13.722-.267.94-.468.027.271-1.02.895-1.539 1.066.451-.11 1.037-.26 1.295-.416-.013.055-.118.132-.194.189-.315.233-.799.358-1.094.415.039.163-.013.254-.193.267-.18.013-.617-.057-.836-.168a.278.278 0 01-.115.031c.213.161.285.278.242.346-.043.069-.196.056-.312.032.092.258-.215.241-.47.095.1.132.115.244-.025.273A.464.464 0 0123 9.761c-.01.097-.103.162-.227.13.425.258.4.352.328.45-.072.097-.326.078-.461-.01-.058.2-.29.2-.462.042-.001.08-.166.237-.329.141z" fill="#EA8B42"/><path fill-rule="evenodd" clip-rule="evenodd" d="M19.877 11.495c.007-.062.013-.133.065-.179.051-.046.083-.085.128-.04.046.046.017.089-.045.108a.18.18 0 00-.112.11c-.01.037-.042.056-.036 0zM20.228 11.794c-.032-.103-.016-.234.02-.273.035-.04.08-.065.122-.026.042.039.058.094-.02.127-.068.028-.074.1-.077.152-.003.052-.026.082-.045.02zM20.68 11.53c-.026.042.006.212.09.254.059.03.086.023.05-.033a.123.123 0 01-.002-.136.078.078 0 00-.026-.107c-.042-.026-.094-.01-.113.023zM21.043 11.378c-.053-.04-.103.008-.122.042-.04.068-.01.166.051.221.061.055.052-.02.032-.052-.019-.033-.022-.098.02-.104a.059.059 0 00.02-.107zM21.346 11.488c-.052-.015-.103.04-.097.104.005.049.01.11.058.143.033.022.055.036.039-.022-.016-.059.01-.108.038-.124.03-.016.017-.085-.038-.1zM21.774 11.212c-.037.026-.035.088 0 .11.035.023.087.056.078.11-.01.056.019.076.045.014.025-.062.029-.153 0-.195-.03-.042-.09-.062-.123-.04z" fill="#000"/><path fill-rule="evenodd" clip-rule="evenodd" d="M20.84 7.397c.023.05.087.079.174.076.027 0 .044.007.064.04-.02.016-.06.022-.111.026-.093.006-.173.077-.258.205-.076.115-.05.2.132.301.18.101.216.278.189.61-.02.241.009.427.083.493.123.11.202.3.26.537.032.137.13.301.243.41a.297.297 0 01.06.08.543.543 0 01.025.059c.035.094.06.135.132.201.04.037.048.068.023.088-.016.013-.046.019-.079.019h-.018a.364.364 0 01-.21-.048l.004.055.006.066a1.004 1.004 0 01-.002.158.197.197 0 00-.005.05c.002.03.02.058.068.094.124.096.208.195.221.28.015.097-.045.143-.134.115-.055-.018-.083-.053-.116-.13l-.011-.03a3.777 3.777 0 00-.015-.037c-.016-.037-.03-.05-.043-.046-.011.003-.023.017-.035.038a.403.403 0 00-.023.198c.015.127.013.18-.026.236-.048.071-.166.065-.183-.013a.373.373 0 01.01-.147l.014-.058.015-.058c.007-.03.005-.047.003-.048-.003 0-.014.014-.021.039a.34.34 0 01-.165.186c-.089.05-.14 0-.146-.116-.005-.091.097-.208.303-.374a.285.285 0 00.083-.1c.03-.062.025-.11-.007-.233a1.42 1.42 0 01-.014-.057c-.122.063-.377.057-.458-.008a.714.714 0 01-.042.114 1.349 1.349 0 00-.028.071c-.014.041-.011.063.003.068.015.007.046-.001.083-.022.08-.045.16.014.166.106.005.077-.085.115-.154.094-.036-.01-.053.003-.074.057-.017.043-.006.114.039.261.05.163-.007.311-.138.282-.08-.018-.102-.082-.09-.193 0-.014.003-.027.005-.048a.728.728 0 00.009-.11.27.27 0 00-.013.04.526.526 0 01-.198.285c-.092.054-.167.012-.161-.073.002-.032.024-.072.07-.136l.013-.018a.554.554 0 00.077-.118c.021-.055.018-.06-.02-.049a.484.484 0 00-.161.105c-.095.088-.197.123-.248.052-.04-.055-.024-.11.044-.162.06-.046.16-.092.304-.142.23-.078.247-.154.2-.535a.316.316 0 01-.173.002c.024-.149.005-.268-.066-.542-.072-.28-.091-.407-.062-.556a.291.291 0 01-.02-.031l-.014-.025a.06.06 0 00-.021-.024c-.069-.042-.218-.19-.223-.227a.226.226 0 00-.078-.125.274.274 0 01-.09-.177c-.01-.058-.021-.077-.09-.146-.071-.072-.095-.201-.05-.365-.03-.098-.028-.192 0-.486l.004-.037a.066.066 0 01-.012.002l-.015.002-.01-.016a.363.363 0 00.017-.03l.005-.01.005-.009.023-.05c.011-.023.023-.045.038-.07.114-.191.365-.381.643-.485.264-.1.37-.107.423.025.023 0 .035.002.103.013a.92.92 0 00.09.011l.017.001c.062.004.088.01.12.03.013.01.026.021.04.036a.28.28 0 01.056.254l-.018.005c-.126-.113-.223-.125-.36-.056zm.226.116a.07.07 0 00-.052-.018c-.094.002-.167-.03-.189-.103.145-.085.25-.075.376.033a.243.243 0 01-.004.017l.018-.005-.014-.012a.257.257 0 00-.055-.216.195.195 0 00-.036-.033c-.028-.017-.05-.022-.109-.026l-.017-.001a.941.941 0 01-.092-.012l-.032-.005-.078-.014c-.055-.122-.152-.115-.405-.02-.274.102-.522.29-.632.476a.97.97 0 00-.038.068l-.023.05a.507.507 0 01-.005.01l-.005.01-.006.011a.04.04 0 01-.008.002l-.015.002.01.016a.39.39 0 00.013-.02h.001a.122.122 0 00.013-.008l.016.01-.006.058c-.027.29-.03.384-.001.484-.042.162-.02.284.046.35.07.072.085.094.094.158.01.069.04.128.084.163.045.037.08.096.085.139.005.028.15.173.213.211a.08.08 0 01.028.032l.008.015.006.01.005.008c.004.008.01.016.016.03-.026.153-.008.277.064.554.072.277.09.399.057.54a.9.9 0 00.169-.006c.062.4.042.485-.2.568-.143.048-.242.093-.299.138-.06.045-.072.088-.04.133.04.055.13.024.216-.056a.501.501 0 01.169-.11c.06-.017.073.009.047.078a.55.55 0 01-.08.123l-.012.017c-.044.061-.065.1-.067.125-.005.068.052.099.129.054a.506.506 0 00.188-.271c.008-.034.018-.059.029-.065.012-.009.022 0 .025.016a.735.735 0 01-.007.126 1.29 1.29 0 00-.006.047c-.01.102.007.155.073.17.11.024.16-.104.113-.255-.046-.151-.058-.225-.038-.275.025-.063.05-.085.1-.07.057.018.13-.014.126-.071-.005-.078-.069-.126-.133-.09-.043.025-.079.034-.102.024-.028-.011-.033-.045-.015-.095.006-.019.013-.035.028-.072a.47.47 0 00.044-.13l.02-.005c.049.073.342.082.458.011l.016.008.017.07c.033.127.038.178.006.247a.306.306 0 01-.09.107c-.2.162-.299.276-.295.357.005.102.043.139.115.099a.319.319 0 00.154-.175c.01-.034.028-.056.046-.053.02.004.024.033.013.074l-.015.058-.013.057a.355.355 0 00-.01.138c.012.058.106.063.145.006.034-.05.036-.1.022-.22v-.002a.42.42 0 01.025-.21c.015-.026.03-.043.048-.049.026-.007.049.012.068.06l.016.037.011.028c.03.072.055.103.102.118.075.024.12-.01.107-.09-.012-.079-.093-.174-.213-.267-.052-.04-.074-.072-.076-.11a.212.212 0 01.004-.054.96.96 0 00.002-.154 2.857 2.857 0 00-.005-.066l-.007-.077.017-.009c.013.01.027.018.041.025a.343.343 0 00.176.032h.018c.029 0 .054-.006.066-.015.011-.01.007-.026-.024-.055a.448.448 0 01-.138-.21.488.488 0 00-.024-.057.276.276 0 00-.056-.074.948.948 0 01-.25-.42c-.056-.234-.133-.42-.252-.526-.081-.072-.112-.263-.09-.51.026-.325-.01-.494-.179-.59-.191-.108-.222-.206-.139-.332.088-.134.173-.208.274-.215.015 0 .028-.002.04-.003a.198.198 0 01.06-.001z" fill="#000"/><path fill-rule="evenodd" clip-rule="evenodd" d="M19.402 7.96c.165.006.225.013.267.042l.005.01a.801.801 0 00.017.255c-.042.162-.02.284.046.35.07.072.085.094.094.158.01.069.04.128.084.163.045.037.08.096.085.139.005.028.15.173.213.211a.08.08 0 01.028.032 1.771 1.771 0 01.014.025l.005.008c.004.008.01.016.016.03-.023.132-.008.264.035.467-.161.136-.336.188-.46.149-.111-.036-.155-.138-.109-.266a.823.823 0 01-.454.147c-.151-.001-.237-.062-.203-.161-.367.123-.57.053-.52-.117-.304.113-.555.035-.516-.1-.26.067-.487.043-.532-.03-.028-.045.015-.137.082-.207a.825.825 0 01-.365.017c-.062-.01-.093-.024-.1-.049-.007-.019-.005-.024.018-.076l.003-.007.021-.047a.544.544 0 01.117-.173c-.3.056-.558.064-.741.002l-.028-.009a.124.124 0 01-.051-.026c-.015-.016-.013-.035.007-.055.058-.06.162-.135.272-.192-.523.07-1.023.039-1.181-.14l.01-.017c.147.03.336-.008.54-.087-.668-.089-1.408-.524-1.418-.902l.02-.006c.136.22.316.325.689.44-.322-.209-.509-.468-.525-.682l.018-.009c.264.255.578.454.866.521-.239-.155-.522-.506-.603-.758l.017-.012c.182.164.604.395.897.486-.266-.224-.53-.586-.514-.776l.019-.007c.101.103.335.268.698.481.225.132.396.193.622.234l.11.02c.12.02.165.027.222.038a.83.83 0 01-.11-.208l.012-.012c.113.016.22.067.492.236.13.081.29.129.679.22l.018.003c.313.073.452.112.587.17.07.032.152.051.25.062.066.008.114.01.235.015zm.25.056V8.01l.005.01a.113.113 0 00-.005-.004zm-4.041.503c.156.021.35-.024.557-.108l-.003-.021c-.643-.072-1.373-.482-1.436-.843.146.215.347.315.755.435l.009-.02c-.345-.202-.55-.463-.581-.679.28.266.615.468.916.519l.007-.02c-.232-.124-.531-.478-.633-.741.21.173.644.404.925.478l.01-.019c-.264-.207-.54-.57-.548-.766.111.105.34.265.685.467.227.133.4.194.629.237l.111.019c.138.022.176.029.247.044l.011-.017a1.036 1.036 0 01-.118-.206c.104.018.212.07.468.23.134.083.294.131.685.222l.018.004c.312.073.45.111.583.17a.882.882 0 00.256.063c.067.007.115.01.237.014.153.006.214.013.25.035-.004.11 0 .19.02.251-.045.164-.021.293.05.365.069.07.081.088.09.146.01.074.041.138.09.177a.226.226 0 01.078.125c.006.037.154.185.223.227a.06.06 0 01.02.024l.014.025a.291.291 0 00.02.03c-.024.129-.01.264.038.459-.153.12-.32.17-.436.133-.11-.035-.145-.14-.08-.273l-.017-.013a.797.797 0 01-.472.166c-.15 0-.222-.058-.175-.153l-.013-.014c-.383.134-.575.062-.509-.103l-.014-.014c-.314.125-.563.04-.501-.083l-.013-.015c-.26.071-.49.049-.529-.015-.025-.04.036-.15.114-.213l-.01-.019a.783.783 0 01-.401.032c-.055-.008-.08-.02-.084-.034-.004-.011-.002-.017.018-.061l.003-.007a.543.543 0 01.147-.227l.013-.011-.01-.019c-.313.062-.58.073-.767.01l-.027-.009a.111.111 0 01-.043-.02c-.006-.007-.005-.014.007-.026.068-.069.2-.162.33-.217l-.006-.021c-.515.076-1.026.058-1.208-.1zm0 0a.248.248 0 01-.024-.023l-.01.018a.498.498 0 00.034.005zm1.543-1.241a.094.094 0 01-.004-.015l-.012.012.016.003zm-1.565-.544a.19.19 0 010-.024l-.018.007a.67.67 0 00.018.017zm-.387.307a.684.684 0 01-.014-.038l-.017.011a.92.92 0 00.03.027zm-.29.242a.42.42 0 01-.003-.029l-.019.009.022.02zm-.183.264a.29.29 0 01-.004-.044l-.02.006.024.038z" fill="#000"/><path fill-rule="evenodd" clip-rule="evenodd" d="M21.844 10.524l-.001-.018c.012-.01.007-.026-.024-.055a.446.446 0 01-.138-.21.526.526 0 00-.024-.057.276.276 0 00-.056-.074.95.95 0 01-.25-.42c-.056-.234-.133-.42-.252-.526-.081-.072-.112-.263-.09-.51l.005-.088.007.004h.001l.013.007a2.75 2.75 0 01-.005.078c-.02.241.009.427.083.493.123.11.202.3.26.537.032.137.13.301.243.41a.299.299 0 01.06.08.506.506 0 01.025.059c.036.094.06.135.132.201.033.03.044.057.033.076a.178.178 0 01-.011-.006l.001.018a.039.039 0 00.01-.012c.13.065.3-.04.302-.139l.018-.007c.174.16.39.147.444-.037l.016-.006c.138.09.382.1.447.012.089-.12.036-.214-.326-.434l.008-.02c.114.03.205-.025.214-.12l.017-.008c.124.08.23.097.378.066.121-.025.124-.118.018-.255l.014-.016a.673.673 0 00.36.103c.099-.01.136-.071.095-.185l.013-.015c.148.032.266.027.3-.026.04-.064-.038-.18-.239-.332l.005-.02a.366.366 0 00.12-.03c.2.101.63.181.83.167.169-.012.223-.091.193-.266.43-.084.827-.22 1.09-.414a3.57 3.57 0 00.117-.092.376.376 0 00.058-.062l.03-.017-.015-.012a.09.09 0 01-.015.03c-.22.123-.607.237-1.267.399l-.006-.02c.587-.194 1.494-.78 1.531-1.032l.02-.016-.019-.007a.1.1 0 010 .023c-.153.133-.367.239-.725.377l-.1.039-.1.038-.01-.02c.36-.21.652-.518.682-.754a.568.568 0 00.022-.03l-.02-.006a.335.335 0 01-.002.036c-.1.124-.265.22-.583.362l-.01.005-.138.062a5.37 5.37 0 00-.115.053l-.011-.018a7.38 7.38 0 00.3-.246c.163-.142.287-.27.37-.392.086-.124.124-.235.11-.333a.574.574 0 00.015-.024l-.02-.003a.269.269 0 01.006.027c-.116.183-.339.351-.697.553a32.25 32.25 0 01-.4.22l-.013-.017c.228-.198.356-.37.37-.588l.017-.013-.017-.01v.023c-.488.36-1.087.616-1.713.769l-.006-.015-.002-.005c.152-.092.312-.265.36-.388l.025-.017-.016-.011a.247.247 0 01-.01.028c-.459.302-1.142.505-1.641.538a6.02 6.02 0 00-1.099.153c-.067-.068-.266-.065-.514.003a.354.354 0 00-.012-.013l-.005.018.018-.005c.085.096.112.222.104.423l-.02.004-.002.016c.01-.217-.017-.346-.11-.441l.005-.018c.262-.074.475-.08.541-.005a5.555 5.555 0 011.092-.157c.506-.033 1.201-.242 1.657-.55l.016.011c-.028.116-.174.287-.325.394.61-.155 1.189-.41 1.661-.763l.017.01c-.004.212-.112.38-.308.563l.022-.012.298-.164c.37-.209.595-.38.703-.569l.02.003c.027.11-.013.237-.109.377-.085.124-.21.253-.374.396a6.004 6.004 0 01-.229.19l.032-.015.138-.062.01-.004c.338-.153.502-.25.596-.385l.02.006c-.003.23-.26.529-.599.75l.095-.037c.37-.143.586-.25.737-.39l.018.008c.021.227-.763.762-1.369 1.01.576-.145.915-.252 1.108-.369l.016.012c-.007.029-.035.062-.08.103a1.178 1.178 0 01-.119.092c-.265.197-.664.333-1.09.405.042.174-.021.266-.203.28-.204.014-.638-.067-.83-.17a.237.237 0 01-.093.03c.194.15.271.269.223.344-.04.062-.155.069-.305.04.035.116-.012.185-.12.196a.653.653 0 01-.33-.084c.084.13.07.226-.059.253a.47.47 0 01-.38-.061c-.017.083-.09.135-.184.13.33.207.381.31.286.438-.072.096-.316.089-.464 0-.063.184-.282.2-.46.047-.023.11-.205.21-.342.13zm-.333-2.018a.23.23 0 00.011-.045l-.012-.012-.473.093v.015l-.013-.007-.003.02h.001l.014-.002v.01c.183.091.386.086.46-.041.161.088.416.045.498-.078.23.084.446.033.485-.178l-.014-.012-.453.155a.15.15 0 00.008-.058l-.51.14zm-.005.012a.153.153 0 00.005-.012l-.022.006-.002.02.01.005.002-.005.021-.007c.152.073.38.032.462-.07l.012.004a.145.145 0 00.005-.008l.019-.006c.206.069.393.025.436-.15l.018-.006-.014-.012a.449.449 0 01-.004.018l-.436.15a.657.657 0 01-.013-.005.159.159 0 00.007-.016l-.013.004a.122.122 0 00.013-.051l-.492.148a.286.286 0 01-.014-.007zm.489-.082l.01.004a.16.16 0 01-.006.011l-.01.004v-.01a.18.18 0 00.006-.009zm0 0a.659.659 0 01-.006-.002v.012a.19.19 0 01-.007.009v-.02l.017-.007a.14.14 0 01-.004.008zm-.489.082a.198.198 0 01-.007.014h-.003l.002-.019.008.005zm-.455.047l-.015.003v-.011l.015.008zm.447-.092c-.037.169-.25.19-.447.092l.447-.092zm0 0a.249.249 0 00.003-.015l.013.012-.016.003zm2.33-.654l-.965.311.005.021c.102-.017.263-.064.477-.137l.092-.032.399-.143-.007-.02zm0 0a58.594 58.594 0 01-.49.174 3.49 3.49 0 01-.474.137l.005.02.967-.311-.007-.02zm-2.813.743v.004h-.001v-.004zM17.25 7.493c.068.1.247.246.36.281a.382.382 0 00.098.218l-.51-.164-.014.013a.328.328 0 00.058.117l-.352-.142c.03 0 .061-.001.096-.006l.006-.019-.082-.074.34-.224zm-.37.076l.37-.076.015-.014.343.263v.01a.41.41 0 01-.059-.028l-.216-.166a.576.576 0 01-.066-.077l-.015.015.081.062c.062.062.144.127.216.166l.06.047.001.003.01.003.01-.019-.022-.016v-.025l.016-.009.773.378c0 .005.002.01.003.014l-.015.004-.755-.369a.3.3 0 010-.016l-.015.009.015.007c-.001.15.096.3.273.353.156.047.31.053.44.028-.034.01-.067.021-.099.034a.985.985 0 01-.347-.041.421.421 0 01-.153-.083l.005-.004-.004-.018-.037-.012a.37.37 0 00.02.02l-.01.006-.508-.163a.298.298 0 01-.005-.02l-.014.014.02.006a.31.31 0 00.115.154l-.049-.012.004-.002.001-.02-.04-.017a.335.335 0 00.017.021l-.014.004-.419-.17.002-.003a.4.4 0 00.063.006l-.066-.027-.014.006-.005.01a.253.253 0 01-.02-.006l.023-.015c.04.01.09.014.151.007l.018.016.005-.018a.755.755 0 01-.023.002l-.068-.062.018-.012-.14-.126.057-.012.047.007.005-.017zm-.005 0h.004l.001-.004-.976-.503-.012.017c.233.222.505.391.79.469a.204.204 0 00-.016.064l-.13.026-.407-.144-.01.018c.076.063.18.11.314.147l-.6.122-.006.021.398.124c-.004.037.017.079.067.118a.422.422 0 00.063.039c-.05.024-.07.064-.06.106l-.805-.228-.008.02c.207.132.467.202.824.235.01.018.025.036.045.054a.118.118 0 00-.03.092.44.44 0 00-.161.03l.005.021.161-.026c.01.03.031.062.062.09.26.235.9.23 1.506.02.014.03.05.05.106.067a.86.86 0 00.07.016l-.746.323.005.02c.227-.033.545-.18.78-.336.062.01.126.012.19.01a.22.22 0 00-.012.172l-.789.28.007.02c.26-.076.6-.195.79-.28a.167.167 0 00.134.094l-.791.346.007.02c.185-.047.551-.208.832-.362.08.004.17-.005.26-.023a.314.314 0 00-.03.103l-.756.355.008.02c.229-.059.435-.162.747-.348 0 .05.016.095.048.13l-.692.35.007.02c.076-.016.165-.05.267-.1.056-.027.114-.058.175-.093a5.11 5.11 0 00.26-.16.263.263 0 00.167.062l-.566.265.007.02c.125-.026.245-.075.375-.147l.141-.083.095-.055a.697.697 0 00.213-.055.303.303 0 00-.055.134l-.578.289.008.02a5.61 5.61 0 00.57-.285.141.141 0 00.032.071.09.09 0 00.067.038l-.397.185.009.02c.136-.055.322-.142.479-.222a1.723 1.723 0 00.397-.234.249.249 0 00-.004.138l-.636.386.01.02c.17-.066.485-.263.634-.383a.177.177 0 00.083.082l-.442.281.01.02c.168-.072.363-.198.457-.29l.004.002a.343.343 0 00.29-.011l-.38.285.012.018c.185-.11.404-.272.476-.359l-.014-.015h-.001l-.003-.016-.447-.195.078-.061.091-.072-.009-.019-.292.054.204-.157-.012-.017a6.15 6.15 0 00-.257.186l-.265.05c.157-.087.323-.221.473-.39l-.01-.018-.386.055.052-.034.117-.079.113-.074-.01-.018-.371.219-.342.049c.21-.076.411-.194.534-.319a1.65 1.65 0 00.161-.03h.003l.005-.002v-.021l-.642-.123c.04-.003.083-.008.126-.015V8.27l-.735-.216-.014.01.001.022.024.012V8.1l-.002-.002h-.007L18.4 8.1v.002l-.012.003-.003-.001a1.12 1.12 0 00.003.001l.016.008.003.008a.821.821 0 01-.163.03 1.196 1.196 0 00-.127.058l-.493-.124a.328.328 0 00.12-.059l-.006-.004-.003-.016-.008.006.011.01v.002l-.02-.006a.315.315 0 01-.144.054l-.248-.063a.347.347 0 00.081.043l-.09-.023a.35.35 0 01-.04-.032h-.001l-.002-.003v-.02l-.015.005a.28.28 0 00.015.015l-.029-.01-.01.002-.421-.106a.156.156 0 01.012-.067l-.01-.004h.003l.009.001.002-.006-.011.004-.013-.002a.182.182 0 00-.014.069 5.761 5.761 0 00-.095-.017l.088-.059a.173.173 0 01-.098-.077l-.004-.008.006-.02-.016-.007a.204.204 0 01-.007-.075l.022-.004a.17.17 0 00.018.104c.02.034.053.059.103.072l.083-.055-.147-.133.026-.005-.031-.029c.029.007.058.013.087.017l.024-.005.02.01.004-.014zm-.062-.014l.064.01-.002.005-.024.004-.038-.019zm-.107-.023c.036.01.072.017.107.023l-.847-.437a2.394 2.394 0 01-.06-.054l-.011.017.07.037c.222.197.475.345.739.414l-.015.002a.16.16 0 00-.007.014l.014.004.006.005a.186.186 0 00-.014.05l.057-.011-.043-.04.001-.002.037.008-.034-.03zm-.003.022a.208.208 0 01.005-.01l-.017.003.005.005.007.002zm.003-.022h-.002.002zm-.032.158l-.001-.003-.138-.049-.04.009-.3-.107a.529.529 0 01-.063-.045l-.01.019.074.026c.074.045.17.08.284.11l-.047.01c.074.02.157.038.25.054v-.002l.004-.02-.014-.002zm-.127-.025l-.053-.018-.014.003.067.015zm0 0c.04.01.082.018.127.025a.169.169 0 00.008.022v.002l-.135-.049zm.123.21l.027-.017c-.206-.036-.338-.044-.398-.018a.125.125 0 00-.069.063 1.948 1.948 0 00-.198-.065l-.199-.057-.006.021a19.911 19.911 0 00.26.075l.048.015.09.034.023.028a.15.15 0 00.057.073l.009.006.041.05a.625.625 0 00.024.011l.002.001c-.084.03-.088.102-.011.164h-.002l-.01.002a.226.226 0 00-.007.009c.005.004.01.009.017.013-.046.053-.03.12.035.178.247.223.86.224 1.45.027l.04.006.001.002.008-.002-.002-.021v-.02l-.011-.002a.222.222 0 01.027-.075.424.424 0 01.146-.135 1.17 1.17 0 00.056-.01V8.21h-.001l-.004.001V8.21l-.047.009-.493-.125a.355.355 0 00.05-.01l-.049-.012a.355.355 0 01-.092-.001l-.075-.02c.024.01.05.016.075.02l.09.023a.382.382 0 01-.255-.065l-.082-.02.041-.012-.041-.01-.045.01-.373-.094a.117.117 0 01-.003-.023l-.005-.002-.017-.003c0 .008 0 .015.002.022a5.316 5.316 0 00-.124-.022zm-.294.194a.448.448 0 01-.062-.036l-.066-.079c-.01-.038.01-.073.06-.095.052-.022.175-.015.362.016l-.294.194zm.01.005h-.008a.195.195 0 00-.023.009l.02-.014.01.005zm0 0c.121.057.31.1.521.13l-.521-.13zm.688.172l-.167-.041c.399.056.882.062 1.16.014l.023.006a.91.91 0 00-.028.016c-.242.041-.63.042-.988.005zm-.172-.02l.172.02.815.205v.003a1.855 1.855 0 01-.058.004l-.929-.232zm-.52-.131l.002-.001h-.005l.002.001zm0 0l.52.13a2.02 2.02 0 01-.521-.13zm1.493.374l-.044-.01h-.025l-1.436-.2c.012.01.025.018.041.027l-.04-.006.003-.003-.01.003h.006l-.002.003a.4.4 0 00.091.05c.25.098.942.167 1.346.148l.047.007.035-.012h.002c0 .006.002.012.004.018h.004l-.002-.019h.004v-.002h-.003l.001-.02-.009.001v.017l-.013-.002zm.013.004l-.013-.004-.069-.01a3.012 3.012 0 01-.132.004l-1.263-.177a.45.45 0 00.056.027c.222.087.8.151 1.207.15l.131.018a1.97 1.97 0 00.082-.005h.008v-.004h-.007zm.005 0l.002.001h-.002zm0 0h-.005v.002l.005-.001zm-1.09-.574l.014.004c.023.09.155.142.373.094l.044.011c-.26.068-.422.003-.44-.11l.01.001zm0 0h.001zm1.287.326a.87.87 0 01.023-.014v.02l-.023-.006zm-1.865-.3a1.842 1.842 0 00-.09-.033l-.302-.111.397.123a.084.084 0 00-.005.02zm0 0l.007.003.007-.021-.01-.003h.001l.01.003-.007.021-.008-.002v-.001zm2.182.197v-.001l.006-.002.002.001-.008.002zm.27.163c-.14-.032-.237-.09-.27-.163a.734.734 0 01-.06.015c-.183.055-.365.161-.412.25-.05.09-.029.128.07.156.289.081.633.007.895-.177l.01.006a.101.101 0 00.006.01 1.195 1.195 0 01-.352.17l-.247.023-.008.005a.193.193 0 00-.01.016l.023-.001-.003.002.005-.001c-.058.092-.027.248.108.265a.622.622 0 00.038.004l-.04.018h.008c-.093.051-.195.102-.295.149l-.232.101a2.32 2.32 0 01-.272.096l.007.02.265-.116c.073-.03.152-.064.232-.101l.33-.145h.004l.016-.009-.006-.012c.081.003.171-.007.264-.027a.437.437 0 00-.013.025l.027-.006c-.085.156-.025.3.154.322.02.002.042.003.065.001l-.046.022h.008l-.063.038-.095.056-.294.138c-.04.013-.08.024-.12.032l.007.02.113-.052a1.516 1.516 0 00.294-.138l.201-.094h.001l.005-.003-.01-.019a.705.705 0 00.24-.065.859.859 0 00-.022.032l.036-.015c-.078.112-.089.172-.043.231.025.032.061.038.125.017l-.074.034h.008c-.139.07-.29.138-.404.185l.008.02.468-.219.01-.003.025-.013-.008-.017a1.5 1.5 0 00.312-.18l.075-.056.005-.003a.494.494 0 00-.011.035l.019-.014.01-.008c-.048.135-.007.22.094.258a.32.32 0 00.35-.065l.014.007-.003-.018-.012.011-.442-.193.02-.015-.023-.01-.003.001c.029-.021.058-.044.09-.07l.057-.044.042-.008-.008-.019-.034.027-.292.054.038-.029-.018.004a5.82 5.82 0 01.222-.16l-.013-.018-.238.183-.018.003-.038.03-.293.054a1.22 1.22 0 00.066-.035l-.072.014c.165-.08.346-.216.51-.396l.029-.004-.01-.018-.02.022-.402.057.042-.027-.043.006.325-.193-.01-.018c-.035.021-.07.044-.115.074l-.117.079-.09.059-.049.007-.048.028-.417.06c.041-.011.082-.025.123-.04l-.127.019c.237-.066.48-.194.626-.332l.035-.005.003-.002-.007-.016.118-.021.047.009h.003V8.43a1.623 1.623 0 01-.05.012l-.682-.133c.03 0 .063-.002.095-.004l-.092-.018c.053 0 .108-.004.166-.011l.047.014.001-.021a1.514 1.514 0 01-.048.007l-.675-.198v-.014l-.014.01.014.004a.1.1 0 00.003.019h.002V8.1h-.001V8.118l-.007.002.021.011c.04.062.138.113.273.139l.062.031a1.022 1.022 0 01-.052-.008l-.008-.02-.034.012zm.009.002l-.01-.002-.435.143.005.022c.197-.025.309-.067.473-.156l-.002-.001-.008-.019-.023.013zm-.118.057l.15-.05v-.001a.873.873 0 01-.032-.006c-.042.022-.08.04-.118.057zm-.176.058c.063-.015.119-.034.176-.058l-.176.058zm0 0c-.045.01-.094.018-.15.025l.005.022.145-.047zm.437-.095a1.113 1.113 0 01-.058-.006l.129.065.006-.004a.124.124 0 00.005.01l.005.002-.002-.018-.008.006a.096.096 0 01-.006-.02l.025.013.002.019-.01.007c.026.04.082.07.158.09l-.083.039-.428.041a1.137 1.137 0 01-.239.044l.002-.003-.005.003h.003v.001l.606-.059-.366.166.008.02a2.73 2.73 0 00.45-.195l.345-.034a1.45 1.45 0 00.089-.007l.001-.001.03-.003-.008-.018.008-.001-.002-.003-.163.016c-.249.005-.42-.065-.401-.167h.002-.002l.002-.01-.012.007.01.002H18.9l.004-.016.009-.005h.014l-.01-.002-.004.002a1.18 1.18 0 01-.136-.008l-.354-.18v.002c.003.01.007.02.014.03l.272.138a.978.978 0 00.068.01l.052.027zm0 0l.071.003a.102.102 0 000 .033l-.07-.036zm.65.158zm0 0a1.404 1.404 0 01-.156.012l-.138.014a.813.813 0 01-.075-.011l.003-.002-.01-.019-.028.013h.004c-.02.012-.04.024-.062.035l-.025.003-.061.027.036-.004c-.13.067-.271.128-.4.17l.007.02.423-.192.027-.003.047-.026.114-.011c.055.006.117.007.183.003l.09-.008a.756.756 0 00.021-.021zm-.421.038l.014-.001.038-.022.002-.001-.01-.02-.023.014.03.006-.051.024zm0 0l-.04.004a2.876 2.876 0 01-.05.027l.03-.003.06-.028zm-.289.346l-.004.009.07-.018-.066.01zm0 0l.003-.004-.008.005h.005zm.536-.076l-.053.007-.282.167.01.02c.115-.044.224-.103.377-.202l-.05.008.049-.03-.007.002-.044.028zm-.03.018l.03-.018h.002l-.032.018zm0 0a2.74 2.74 0 01-.095.057l.095-.057zm-.095.057a1.48 1.48 0 01-.208.098l.009.02.199-.118zm.063.279l-.004.006.017-.008-.014.002zm0 0l.002-.004-.007.005.005-.001zm.325-.06l-.02.003a2.49 2.49 0 00-.189.157l.014.016.241-.185-.018.004.038-.03-.029.006-.038.029zm0 0l-.208.159.014.016c.034-.034.124-.106.222-.18l-.029.005zm.196.074zm0 0l.004-.01-.014.006.01.004zm-.005-.023l-.013.01.002-.005.011-.005zm-.406.25v-.002l-.032.015.01-.004a6.44 6.44 0 01-.076.039c.02 0 .044-.005.072-.015l.034-.016-.008-.017zm0 0l-.001-.002-.022.011a.564.564 0 00.023-.009zm-.104-.264a1.111 1.111 0 01-.025.012l.003-.005.007-.004.015-.003zm-.264.077l.01.02-.006.002a.418.418 0 01-.043 0l.038-.022h.001zm0 0h-.001.001zm-.154-.362a1.498 1.498 0 01-.08.02l.003-.005.007-.005.07-.01zm-.346.047l.007.013-.019.008a.653.653 0 01-.035-.003l.034-.02.013.002zm0 0h.002l-.004-.007-.014.006h.003l.01-.006.003.007zm-.072-.747l-.004-.001h.008l-.004.001zm-.01-.006a.138.138 0 01-.003-.01l.015-.005-.002.02-.01-.005zm1.83 1.227h.001v-.002l-.094.07a.4.4 0 00.088-.063 2.45 2.45 0 01-.466.348l.012.018.474-.356-.015-.015zm0 0l-.005.005.005-.006v.001zm-.388.078h.002l.005-.006-.013-.016-.017.01.003.003a1.182 1.182 0 01-.148.115l-.086.055c-.068.041-.141.08-.21.108l.01.02.2-.128c.03-.018.059-.036.086-.055l.168-.106zm0 0l.006-.004-.014-.017-.012.012a.261.261 0 00.02.009zm-.107-.095l.001.002.011-.01-.012-.017-.007.004v.002a2.8 2.8 0 01-.246.173l-.15.091a1.86 1.86 0 01-.238.12l.01.019.228-.139.15-.09.253-.155zm0 0a.174.174 0 01-.007-.02l.006-.004.012.018-.01.006zm-.59-.018v.001l.016-.009-.01-.019-.006.004a5.688 5.688 0 01-.577.288l.008.02.569-.285zm0 0a.13.13 0 010-.023l.006-.003.01.019-.016.007zm-.378-.165v.001l.008-.005-.01-.019-.014.007v.002c-.07.045-.124.08-.18.113l-.395.2a.825.825 0 01-.114.033l.007.02.107-.053a1.63 1.63 0 00.148-.064 2.93 2.93 0 00.248-.136l.195-.099zm0 0a.2.2 0 01-.015-.014l.012-.008.01.019-.007.003zm-.064-.148v.002l.014-.009-.01-.019-.003.001a7.62 7.62 0 01-.209.122l-.402.189a1.679 1.679 0 01-.143.043l.007.02.136-.063c.125-.044.252-.105.402-.189l.208-.097zm0 0l.013-.006-.01-.02-.002.002a.245.245 0 00-.001.024zm-.41-.203l.007-.003-.008-.02-.008.003c-.19.085-.529.203-.788.28l.007.02.79-.28zm0 0a.189.189 0 01-.009-.02l.008-.003.008.02-.007.003zm-.188-.202h.001l.003-.002-.01-.019-.032.014.008.002a2.549 2.549 0 01-.102.062l-.548.237a.99.99 0 01-.102.02l.006.021.096-.041a2.32 2.32 0 00.548-.237l.132-.057zm0 0a.881.881 0 01-.03-.005l.022-.015.01.02h-.002zm-1.782-.202v.002l.01-.002v-.022h-.015v.002l-.16.026.007.021a.415.415 0 01.158-.027zm0 0a.135.135 0 01-.005-.02l.012-.002v.022h-.007zm-.02-.17l.006.001.004-.02-.02-.007v.004a3.622 3.622 0 01-.106-.011l-.625-.177a1.15 1.15 0 01-.072-.042l-.009.019.082.023c.166.09.368.145.624.177l.115.033zm0 0a.129.129 0 01-.01-.022l.018.002-.003.02h-.006zm1.304-.444l.006.004.01-.019a.216.216 0 01-.018-.005l.002.02zm2.632 1.73a4.32 4.32 0 01-.226.267l.016.014.227-.268-.017-.013zm0 0l.017.013c-.044.06-.156.192-.227.269l-.017-.014.228-.269zM20.159 7.52a1.17 1.17 0 00-.054.424.347.347 0 01-.006.093.767.767 0 00.035.357l.02-.007a.747.747 0 01-.033-.348.345.345 0 00.005-.098c-.012-.086.011-.31.053-.414l-.02-.008zm-.33.574a.825.825 0 01.025-.262l.02.006a.803.803 0 00-.023.255l-.021.001zm.015.134a.999.999 0 00.02.346l.02-.005a.982.982 0 01-.019-.337l-.02-.004zm.076.577a.222.222 0 01-.022-.045l.02-.007a.2.2 0 00.02.04.5.5 0 00.044.058c.015.017.026.03.05.054l-.016.016a1.17 1.17 0 01-.05-.055.522.522 0 01-.046-.06zm.083-.449c-.01.125.059.361.129.442a.868.868 0 00.237.454l.015-.016a.866.866 0 01-.234-.447.808.808 0 01-.125-.431l-.022-.002zm-.029-.14a.743.743 0 01-.004-.207l.02.004a.722.722 0 00.006.2l-.021.004zm.334.13c-.046-.154-.047-.523 0-.718l.02.005c-.045.191-.044.556 0 .706l-.02.006zm-.058.057a.688.688 0 00.01.347l.02-.007a.666.666 0 01-.01-.335l-.02-.005zm.389-.176a.812.812 0 01-.2-.524h.02c-.005.162.071.37.196.51l-.016.014zm-.235.012c-.014.185-.004.355.03.453a.648.648 0 01.023.111l.009.055.01.056a.494.494 0 00.07.195l.018-.013a.475.475 0 01-.068-.186 1.768 1.768 0 01-.01-.056l-.008-.054a.66.66 0 00-.024-.115 1.237 1.237 0 01-.028-.444l-.022-.002zm.173.302l-.008-.03.02-.006.009.03a.675.675 0 01.02.109.245.245 0 01-.014.122l-.02-.009a.225.225 0 00.013-.111.653.653 0 00-.02-.105zm.118-.171c.035.117.058.26.052.322l.022.002a1.136 1.136 0 00-.054-.33l-.02.006zm.15.947a.836.836 0 01-.093-.301l.021-.002a.817.817 0 00.091.293l-.019.01zm-.252-.006c.04.122.11.248.173.297l.013-.017c-.058-.046-.126-.169-.165-.287l-.02.007zm.595.341a.938.938 0 00-.14-.29l.018-.012c.07.099.098.164.142.295l-.02.007zM20.264 9.391a.684.684 0 00.045.003c.053.003.072.008.096.034a.297.297 0 01.049.079 1.2 1.2 0 00.316.388c.125.22.18.512.142.668a.25.25 0 00-.11-.165.594.594 0 00-.08-.047.552.552 0 01-.17.11l.004.02a.434.434 0 00.17-.113c.02.017.032.026.047.036l.016.011c.056.04.092.09.102.152l.02-.004v.006l.02.005c.042-.154-.009-.438-.127-.662.146.068.24.143.258.25l.02.003.01-.024c.05-.11.068-.185.049-.263l.002.003.017.02.123.149h-.002c.003.02.005.052.008.1l.004.06.007.1c.007.114.015.189.026.238l.02-.005a1.865 1.865 0 01-.025-.234 57.877 57.877 0 01-.006-.1l-.004-.061a2.592 2.592 0 00-.006-.07c.046.057.058.077.064.099l.005.02.002.01a.69.69 0 00.155.278l.016-.015a.671.671 0 01-.15-.268l-.003-.011a.285.285 0 00-.005-.023c-.01-.037-.038-.07-.21-.277l-.02-.024a4.015 4.015 0 01-.04-.05l-.018.012c.043.093.03.17-.026.298-.032-.102-.13-.175-.274-.24-.083-.037-.265-.253-.328-.389a.315.315 0 00-.052-.085c-.03-.03-.053-.037-.111-.04a.671.671 0 01-.043-.003l-.003.021zm1.041.687a.607.607 0 00-.003-.031l-.02.003.023.028zm-.393.486zm-.108-.652l-.012-.005a.173.173 0 01-.022-.012l.018-.011.016.028zm-.39-.195c.038.114.068.25.07.329l.022-.001a1.432 1.432 0 00-.071-.335l-.02.007zm.325.56a1.684 1.684 0 00-.083-.342l.02-.007c.04.113.081.281.085.347l-.022.002zm.375-.04a.67.67 0 01.044.265l.021.002a.692.692 0 00-.046-.274l-.02.008z" fill="#000"/></g></svg>