<svg viewBox="0 0 28 28" fill="none" xmlns="http://www.w3.org/2000/svg"><rect y="4" width="28" height="20" rx="3" fill="#fff"/><mask id="a" style="mask-type:alpha" maskUnits="userSpaceOnUse" x="0" y="4" width="28" height="20"><rect y="4" width="28" height="20" rx="3" fill="#fff"/></mask><g mask="url(#a)"><path fill-rule="evenodd" clip-rule="evenodd" d="M0 6.667h28V4H0v2.667zM0 24h28v-2.667H0V24zM0 12h28V9.333H0V12zM0 18.667h28V16H0v2.667z" fill="#369D0C"/><path fill-rule="evenodd" clip-rule="evenodd" d="M0 16h28v-4H0v4z" fill="#262626"/><path fill-rule="evenodd" clip-rule="evenodd" d="M0 9.333h28V6.667H0v2.666zM0 21.333h28v-2.666H0v2.666z" fill="#FFD40E"/><path d="M-.667 23.333V4.667h.445L12.222 14-.222 23.333h-.445z" fill="#fff" stroke="#262626" stroke-width="1.333"/><path fill-rule="evenodd" clip-rule="evenodd" d="M4 15.3l-1.96 1.397.724-2.295L.83 12.97l2.406-.022L4 10.667l.764 2.281 2.406.022-1.934 1.432.723 2.295L4 15.3z" fill="url(#paint0_linear_17_3899)"/></g><defs><linearGradient id="paint0_linear_17_3899" x1=".667" y1="10.667" x2=".667" y2="17.333" gradientUnits="userSpaceOnUse"><stop stop-color="#F12F1F"/><stop offset="1" stop-color="#DE2010"/></linearGradient></defs></svg>