<svg viewBox="0 0 24 24" fill="none" xmlns="http://www.w3.org/2000/svg"><path fill-rule="evenodd" clip-rule="evenodd" d="M8.3 11.5c0-1.77 1.43-3.2 3.2-3.2 1.77 0 3.2 1.43 3.2 3.2 0 1.77-1.43 3.2-3.2 3.2-1.77 0-3.2-1.43-3.2-3.2zm4.745.01a.65.65 0 00-.65-.65h-1.799a.65.65 0 100 1.3h1.799a.65.65 0 00.65-.65z" fill="#626F84"/><path fill-rule="evenodd" clip-rule="evenodd" d="M12 3a9 9 0 100 18 9 9 0 000-18zm-.5 4A4.497 4.497 0 007 11.5c0 2.488 2.012 4.5 4.5 4.5 1.01 0 1.94-.331 2.69-.89l1.85 1.85a.65.65 0 10.92-.92l-1.85-1.85c.559-.75.89-1.68.89-2.69C16 9.012 13.988 7 11.5 7z" fill="#626F84"/></svg>